<svg xmlns="http://www.w3.org/2000/svg" width="124" height="21" fill="none" viewBox="0 0 124 21"><rect width="124" height="21" fill="currentColor" class="fill" rx="5"/><rect width="122.8" height="19.8" x=".6" y=".6" stroke="url(#paint0_linear_2035_51)" stroke-opacity=".88" stroke-width="1.2" rx="4.4"/><g clip-path="url(#clip0_2035_51)"><path fill="currentColor" d="M16.66 7.573c.274-.382.632-.735 1.01-.953 1.191-.688 2.449-.594 3.04.4.59.996.267 2.1-.852 2.857-.571.344-1.125.553-1.737.635M9.34 7.572c-.274-.381-.632-.734-1.01-.952-1.191-.688-2.449-.594-3.04.4-.59.996-.267 2.1.852 2.857.571.344 1.125.553 1.737.635" class="base"/><path fill="currentColor" d="M13 6.609c-3.727.06-5.33 1.833-5.169 4.493.119 1.953 1.924 3.505 3.656 4.118a1.617 1.617 0 0 1-.062-.407c-.02-.829.64-1.526 1.575-1.526.935 0 1.577.698 1.575 1.52 0 .137-.02.27-.056.397 1.72-.625 3.501-2.17 3.65-4.102.205-2.677-1.442-4.554-5.169-4.493Zm-2.5 4.943a.755.755 0 0 1 0 1.51.755.755 0 0 1 0-1.509Zm5.006.008a.748.748 0 1 1 0 1.496.748.748 0 0 1 0-1.496Z" class="base"/><path stroke="currentColor" stroke-linecap="round" stroke-width=".714" d="m9.922 14.379-.975 1.29m7.131-1.29.975 1.29m-8.49-2.566-1.568.64m10.361-.64 1.568.64" class="base"/><path stroke="currentColor" stroke-linecap="round" stroke-linejoin="round" stroke-width=".5" d="M13 13.287c-.935 0-1.596.697-1.575 1.526.022.88.716 1.515 1.575 1.515.877 0 1.573-.698 1.575-1.52.002-.823-.64-1.521-1.575-1.521Z" class="base"/></g><path fill="currentColor" d="M24.837 15.5h-1.514l3.402-9.455h1.649l3.402 9.455h-1.514l-2.673-7.737h-.074L24.837 15.5Zm.254-3.702h4.912v1.2h-4.912v-1.2Zm9.32-5.753V15.5h-1.38V6.045h1.38Zm7.17 4.095-1.25.222a1.485 1.485 0 0 0-.25-.457 1.233 1.233 0 0 0-.453-.356c-.19-.092-.429-.138-.715-.138-.39 0-.717.088-.979.263-.261.172-.392.396-.392.67 0 .236.088.427.263.572.175.144.459.263.85.355l1.126.259c.652.15 1.139.383 1.459.697.32.314.48.722.48 1.223 0 .425-.123.804-.37 1.136-.243.33-.583.588-1.02.775-.434.188-.937.282-1.51.282-.793 0-1.441-.17-1.943-.508-.502-.341-.81-.826-.923-1.454l1.334-.203c.083.348.254.61.512.79.259.175.596.262 1.011.262.453 0 .815-.093 1.085-.281.271-.19.407-.423.407-.697a.725.725 0 0 0-.25-.559c-.163-.15-.414-.264-.752-.341l-1.2-.263c-.662-.151-1.151-.391-1.468-.72-.315-.33-.471-.747-.471-1.252 0-.418.117-.785.35-1.098.234-.314.557-.56.97-.734.412-.179.885-.268 1.417-.268.767 0 1.37.166 1.81.498.44.33.73.771.872 1.325Zm4.643 5.503c-.664 0-1.245-.152-1.74-.457a3.082 3.082 0 0 1-1.154-1.279c-.274-.547-.411-1.188-.411-1.92 0-.736.137-1.379.41-1.93.275-.55.66-.979 1.155-1.283.495-.305 1.076-.457 1.74-.457.665 0 1.245.152 1.74.457.496.304.881.732 1.155 1.283.274.551.41 1.194.41 1.93 0 .732-.136 1.373-.41 1.92a3.082 3.082 0 0 1-1.154 1.28c-.496.304-1.076.456-1.74.456Zm.005-1.159c.43 0 .788-.114 1.071-.341.283-.228.492-.531.628-.91.138-.378.208-.795.208-1.25 0-.453-.07-.869-.208-1.247a2.03 2.03 0 0 0-.628-.919c-.283-.23-.64-.346-1.071-.346-.434 0-.794.115-1.08.346-.283.23-.494.537-.633.919a3.677 3.677 0 0 0-.203 1.246c0 .456.068.873.203 1.251.139.379.35.682.633.91.286.227.646.341 1.08.341Zm11.269 1.16c-.665 0-1.245-.153-1.74-.458a3.083 3.083 0 0 1-1.155-1.279c-.274-.547-.41-1.188-.41-1.92 0-.736.136-1.379.41-1.93.274-.55.659-.979 1.154-1.283.496-.305 1.076-.457 1.74-.457.666 0 1.246.152 1.741.457.496.304.88.732 1.154 1.283.274.551.411 1.194.411 1.93 0 .732-.137 1.373-.41 1.92a3.082 3.082 0 0 1-1.155 1.28c-.495.304-1.075.456-1.74.456Zm.004-1.16c.431 0 .788-.114 1.071-.341.284-.228.493-.531.628-.91a3.62 3.62 0 0 0 .208-1.25c0-.453-.07-.869-.208-1.247a2.03 2.03 0 0 0-.628-.919c-.283-.23-.64-.346-1.07-.346-.435 0-.795.115-1.08.346-.284.23-.495.537-.633.919a3.677 3.677 0 0 0-.203 1.246c0 .456.067.873.203 1.251.138.379.349.682.632.91.286.227.646.341 1.08.341Zm6.222-3.194v4.21h-1.38V8.41h1.325v1.153h.088c.163-.375.418-.677.766-.905.35-.227.792-.341 1.325-.341.483 0 .906.101 1.27.304.363.2.644.499.844.896.2.397.3.888.3 1.473v4.51h-1.38v-4.344c0-.514-.134-.916-.402-1.205-.267-.292-.635-.439-1.103-.439-.32 0-.605.07-.854.208a1.494 1.494 0 0 0-.586.61c-.142.264-.213.584-.213.96Z" class="tagline"/><path fill="currentColor" d="M72.716 15.5V6.045H75v7.6h3.933V15.5h-6.218Zm10.716.134c-.742 0-1.382-.146-1.92-.439a3.033 3.033 0 0 1-1.238-1.26c-.286-.548-.43-1.199-.43-1.953 0-.732.145-1.372.434-1.92.29-.551.698-.979 1.224-1.284.526-.307 1.146-.461 1.86-.461.505 0 .967.078 1.385.235.419.157.78.39 1.085.697.305.308.542.688.711 1.14.17.45.254.965.254 1.547v.563h-6.163v-1.31h4.062a1.271 1.271 0 0 0-.17-.643 1.16 1.16 0 0 0-.457-.438 1.319 1.319 0 0 0-.66-.162c-.253 0-.48.057-.68.171a1.284 1.284 0 0 0-.66 1.108v1.334c0 .29.058.543.171.762.114.216.276.383.485.503.21.12.459.18.748.18.2 0 .382-.027.545-.083.163-.055.303-.137.42-.244a1.01 1.01 0 0 0 .263-.397l2.073.06c-.086.464-.276.869-.568 1.214-.29.341-.67.607-1.14.798-.471.188-1.016.282-1.635.282Zm4.518-.134V8.41h2.147v1.3h.078c.148-.43.397-.77.748-1.02.35-.249.77-.373 1.256-.373.492 0 .914.126 1.264.378.351.253.575.591.67 1.016h.074c.132-.422.39-.759.775-1.011.385-.256.839-.383 1.362-.383.671 0 1.216.215 1.634.646.419.428.628 1.016.628 1.764V15.5H96.33v-4.256c0-.354-.091-.624-.273-.808a.939.939 0 0 0-.706-.282c-.31 0-.555.102-.734.305-.175.2-.263.47-.263.808V15.5h-2.17v-4.28c0-.329-.089-.589-.268-.78-.178-.19-.414-.286-.706-.286a.955.955 0 0 0-.877.54 1.39 1.39 0 0 0-.125.61V15.5H87.95Zm12.035 0V8.41h2.147v1.3h.078c.148-.43.397-.77.748-1.02.351-.249.769-.373 1.256-.373.492 0 .914.126 1.265.378.351.253.574.591.669 1.016h.074c.132-.422.391-.759.775-1.011.385-.256.839-.383 1.362-.383.671 0 1.216.215 1.635.646.418.428.627 1.016.627 1.764V15.5h-2.257v-4.256c0-.354-.091-.624-.272-.808a.94.94 0 0 0-.707-.282c-.311 0-.555.102-.734.305-.175.2-.263.47-.263.808V15.5h-2.17v-4.28c0-.329-.089-.589-.267-.78-.179-.19-.414-.286-.707-.286a.95.95 0 0 0-.877.54 1.391 1.391 0 0 0-.124.61V15.5h-2.258Zm13.162 2.66a4.35 4.35 0 0 1-.767-.066 3.091 3.091 0 0 1-.618-.161l.498-1.639c.222.074.422.117.6.13a.84.84 0 0 0 .467-.088.664.664 0 0 0 .304-.365l.088-.213-2.521-7.349h2.364l1.307 5.06h.073l1.325-5.06h2.378l-2.673 7.77c-.129.387-.312.729-.549 1.024a2.386 2.386 0 0 1-.91.702c-.369.17-.825.254-1.366.254Z" class="base"/><defs><linearGradient id="paint0_linear_2035_51" x1="0" x2="124" y1="10.5" y2="10.5" gradientUnits="userSpaceOnUse"><stop stop-color="#12D10E"/><stop offset=".5" stop-color="#69D066"/><stop offset="1" stop-color="#06C698"/></linearGradient><clipPath id="clip0_2035_51"><path fill="currentColor" d="M5 3h16v16H5z" class="base"/></clipPath></defs><style>.fill{color:#fff}.base{color:#000}.tagline{color:#1a1a1a}@media (prefers-color-scheme:dark){.fill{color:#000}.base{color:#fff}.tagline{color:#e8e8e8}}</style></svg>