<svg xmlns="http://www.w3.org/2000/svg" width="142" height="21" fill="none" viewBox="0 0 142 21"><rect width="142" height="21" fill="currentColor" class="fill" rx="5"/><rect width="140.8" height="19.8" x=".6" y=".6" stroke="url(#paint0_linear_2035_39)" stroke-opacity=".88" stroke-width="1.2" rx="4.4"/><g clip-path="url(#clip0_2035_39)"><path fill="currentColor" d="M16.66 7.573c.274-.382.632-.735 1.01-.953 1.191-.688 2.449-.594 3.04.4.59.996.267 2.1-.852 2.857-.571.344-1.125.553-1.737.635M9.34 7.572c-.274-.381-.632-.734-1.01-.952-1.191-.688-2.449-.594-3.04.4-.59.996-.267 2.1.852 2.857.571.344 1.125.553 1.737.635" class="base"/><path fill="currentColor" d="M13 6.609c-3.727.06-5.33 1.833-5.169 4.493.119 1.953 1.924 3.505 3.656 4.118a1.617 1.617 0 0 1-.062-.407c-.02-.829.64-1.526 1.575-1.526.935 0 1.577.698 1.575 1.52 0 .137-.02.27-.056.397 1.72-.625 3.501-2.17 3.65-4.102.205-2.677-1.442-4.554-5.169-4.493Zm-2.5 4.943a.755.755 0 0 1 0 1.51.755.755 0 0 1 0-1.509Zm5.006.008a.748.748 0 0 1 0 1.495.746.746 0 0 1-.746-.747c0-.413.333-.748.746-.748Z" class="base"/><path stroke="currentColor" stroke-linecap="round" stroke-width=".714" d="m9.922 14.379-.975 1.29m7.131-1.29.975 1.29m-8.49-2.566-1.568.64m10.361-.64 1.568.64" class="base"/><path stroke="currentColor" stroke-linecap="round" stroke-linejoin="round" stroke-width=".5" d="M13 13.287c-.935 0-1.596.697-1.575 1.526.022.88.716 1.515 1.575 1.515.877 0 1.573-.698 1.575-1.52.002-.823-.64-1.521-1.575-1.521Z" class="base"/></g><path fill="currentColor" d="M24.039 15.5V6.045h1.426v8.227h4.284V15.5h-5.71Zm10.283.143c-.699 0-1.3-.15-1.805-.448a3.037 3.037 0 0 1-1.164-1.27c-.27-.547-.406-1.189-.406-1.924 0-.727.136-1.367.407-1.92a3.155 3.155 0 0 1 1.144-1.298c.493-.31 1.068-.466 1.727-.466.4 0 .788.066 1.163.198.376.133.713.34 1.011.623.299.284.534.651.707 1.104.172.45.258.995.258 1.639v.489h-5.637v-1.034h4.284c0-.363-.073-.685-.221-.965a1.675 1.675 0 0 0-.623-.67 1.741 1.741 0 0 0-.933-.244c-.388 0-.726.095-1.015.286a1.92 1.92 0 0 0-.665.739c-.154.302-.231.63-.231.983v.808c0 .474.083.877.25 1.21.169.332.404.586.706.761.301.173.654.259 1.057.259.261 0 .5-.037.715-.111a1.484 1.484 0 0 0 .919-.9l1.306.235a2.366 2.366 0 0 1-.563 1.011 2.73 2.73 0 0 1-1.01.67 3.784 3.784 0 0 1-1.381.235Zm4.574-.143V8.41h1.325v1.153h.087c.148-.39.39-.695.725-.914.336-.221.737-.332 1.205-.332.474 0 .871.11 1.191.332.323.222.562.526.716.914h.073c.17-.378.439-.68.808-.905.37-.227.81-.341 1.32-.341.644 0 1.169.201 1.575.605.41.403.614 1.01.614 1.823V15.5h-1.38v-4.626c0-.48-.131-.828-.393-1.043a1.427 1.427 0 0 0-.937-.323c-.45 0-.799.138-1.048.415-.25.274-.374.627-.374 1.057v4.52h-1.376v-4.713c0-.385-.12-.694-.36-.928-.24-.234-.552-.351-.937-.351-.261 0-.503.07-.725.208a1.524 1.524 0 0 0-.53.567 1.74 1.74 0 0 0-.199.845V15.5h-1.38Zm11.489 0V8.41h1.325v1.153h.088c.147-.39.389-.695.724-.914.336-.221.738-.332 1.205-.332.474 0 .871.11 1.191.332.324.222.562.526.716.914h.074c.169-.378.438-.68.808-.905.369-.227.809-.341 1.32-.341.643 0 1.168.201 1.574.605.41.403.614 1.01.614 1.823V15.5h-1.38v-4.626c0-.48-.131-.828-.393-1.043a1.427 1.427 0 0 0-.937-.323c-.45 0-.798.138-1.048.415-.249.274-.374.627-.374 1.057v4.52h-1.375v-4.713c0-.385-.12-.694-.36-.928-.24-.234-.553-.351-.938-.351-.261 0-.503.07-.724.208a1.524 1.524 0 0 0-.531.567 1.738 1.738 0 0 0-.199.845V15.5h-1.38Zm12.108 2.66c-.206 0-.394-.018-.563-.052a1.77 1.77 0 0 1-.379-.101l.332-1.131c.253.067.477.097.674.087a.807.807 0 0 0 .522-.221c.154-.139.29-.365.406-.679l.171-.47-2.594-7.184h1.477l1.796 5.503h.074l1.795-5.503h1.482l-2.922 8.037c-.135.37-.308.682-.517.938-.21.258-.459.452-.748.581-.29.13-.625.194-1.006.194Zm12.918-2.517c-.665 0-1.245-.152-1.74-.457a3.082 3.082 0 0 1-1.155-1.279c-.274-.547-.41-1.188-.41-1.92 0-.736.136-1.379.41-1.93.274-.55.659-.979 1.154-1.283.496-.305 1.076-.457 1.74-.457.666 0 1.246.152 1.741.457.496.304.88.732 1.154 1.283.274.551.411 1.194.411 1.93 0 .732-.137 1.373-.41 1.92a3.082 3.082 0 0 1-1.155 1.28c-.495.304-1.075.456-1.74.456Zm.004-1.159c.431 0 .788-.114 1.072-.341.283-.228.492-.531.627-.91.139-.378.208-.795.208-1.25 0-.453-.07-.869-.208-1.247a2.03 2.03 0 0 0-.627-.919c-.284-.23-.64-.346-1.072-.346-.434 0-.794.115-1.08.346-.283.23-.494.537-.632.919a3.674 3.674 0 0 0-.203 1.246c0 .456.067.873.203 1.251.138.379.35.682.632.91.286.227.647.341 1.08.341Zm6.222-3.194v4.21h-1.38V8.41h1.325v1.153h.088c.163-.375.418-.677.766-.905.35-.227.792-.341 1.325-.341.483 0 .906.101 1.27.304.363.2.644.499.844.896.2.397.3.888.3 1.473v4.51h-1.38v-4.344c0-.514-.134-.916-.402-1.205-.267-.292-.635-.439-1.103-.439-.32 0-.605.07-.854.208a1.494 1.494 0 0 0-.586.61c-.142.264-.213.584-.213.96Z" class="tagline"/><path fill="currentColor" d="M90.716 15.5V6.045H93v7.6h3.933V15.5h-6.218Zm10.716.134c-.742 0-1.382-.146-1.92-.439a3.033 3.033 0 0 1-1.238-1.26c-.286-.548-.43-1.199-.43-1.953 0-.732.145-1.372.434-1.92.29-.551.698-.979 1.224-1.284.526-.307 1.146-.461 1.86-.461.505 0 .967.078 1.385.235.419.157.78.39 1.085.697.305.308.542.688.711 1.14.169.45.254.965.254 1.547v.563h-6.163v-1.31h4.062a1.279 1.279 0 0 0-.17-.643 1.167 1.167 0 0 0-.457-.438 1.32 1.32 0 0 0-.661-.162c-.252 0-.478.057-.678.171a1.282 1.282 0 0 0-.66 1.108v1.334c0 .29.057.543.17.762.114.216.276.383.485.503.209.12.459.18.748.18.2 0 .382-.027.545-.083.163-.055.303-.137.42-.244.117-.108.205-.24.263-.397l2.073.06c-.086.464-.276.869-.568 1.214a2.873 2.873 0 0 1-1.14.798c-.471.188-1.016.282-1.634.282Zm4.518-.134V8.41h2.147v1.3h.078c.148-.43.397-.77.748-1.02.351-.249.769-.373 1.256-.373.492 0 .914.126 1.265.378.35.253.573.591.669 1.016h.074c.132-.422.391-.759.775-1.011.385-.256.839-.383 1.362-.383.671 0 1.216.215 1.634.646.419.428.628 1.016.628 1.764V15.5h-2.257v-4.256c0-.354-.091-.624-.273-.808a.938.938 0 0 0-.706-.282c-.311 0-.555.102-.734.305-.175.2-.263.47-.263.808V15.5h-2.17v-4.28c0-.329-.089-.589-.268-.78-.178-.19-.413-.286-.706-.286a.956.956 0 0 0-.877.54 1.391 1.391 0 0 0-.125.61V15.5h-2.257Zm12.035 0V8.41h2.147v1.3h.078c.148-.43.397-.77.748-1.02.351-.249.769-.373 1.256-.373.492 0 .914.126 1.265.378.351.253.574.591.669 1.016h.074c.132-.422.391-.759.775-1.011.385-.256.839-.383 1.362-.383.671 0 1.216.215 1.635.646.418.428.627 1.016.627 1.764V15.5h-2.257v-4.256c0-.354-.091-.624-.272-.808a.94.94 0 0 0-.707-.282c-.311 0-.555.102-.734.305-.175.2-.263.47-.263.808V15.5h-2.17v-4.28c0-.329-.089-.589-.267-.78-.179-.19-.414-.286-.707-.286a.95.95 0 0 0-.877.54 1.391 1.391 0 0 0-.124.61V15.5h-2.258Zm13.162 2.66a4.35 4.35 0 0 1-.767-.066 3.091 3.091 0 0 1-.618-.161l.498-1.639c.222.074.422.117.6.13a.84.84 0 0 0 .467-.088.664.664 0 0 0 .304-.365l.088-.213-2.521-7.349h2.364l1.307 5.06h.073l1.325-5.06h2.378l-2.673 7.77c-.129.387-.312.729-.549 1.024a2.393 2.393 0 0 1-.91.702c-.369.17-.825.254-1.366.254Z" class="base"/><defs><linearGradient id="paint0_linear_2035_39" x1="0" x2="142" y1="10.5" y2="10.5" gradientUnits="userSpaceOnUse"><stop stop-color="#12D10E"/><stop offset=".5" stop-color="#69D066"/><stop offset="1" stop-color="#06C698"/></linearGradient><clipPath id="clip0_2035_39"><path fill="currentColor" d="M5 3h16v16H5z" class="base"/></clipPath></defs><style>.fill{color:#fff}.base{color:#000}.tagline{color:#1a1a1a}@media (prefers-color-scheme:dark){.fill{color:#000}.base{color:#fff}.tagline{color:#e8e8e8}}</style></svg>