<svg xmlns="http://www.w3.org/2000/svg" width="114" height="21" fill="none" viewBox="0 0 114 21"><rect width="112.8" height="19.8" x=".6" y=".6" fill="currentColor" class="fill" rx="4.4"/><rect width="112.8" height="19.8" x=".6" y=".6" stroke="url(#paint0_linear_2101_22)" stroke-width="1.2" rx="4.4"/><g clip-path="url(#clip0_2101_22)"><path fill="currentColor" d="M12.977 18.044c4.406 0 7.978-2.884 7.978-6.44 0-2.206-1.368-4.154-3.47-5.31-.855-.475-1.527-.901-2.086-1.256-1.054-.67-1.704-1.082-2.422-1.082-.729 0-1.551.522-2.636 1.21-.612.397-1.236.773-1.872 1.129C6.367 7.45 5 9.398 5 11.603c0 3.557 3.571 6.441 7.977 6.441Zm-.931-11.887c.222-.504.335-1.05.331-1.602 0-.096.134-.124.153-.018.437 1.85-.6 2.766-1.367 3.073-.083.032-.133-.08-.069-.139.408-.365.732-.813.952-1.314Zm1.368-.068a3.864 3.864 0 0 0-.52-1.533v-.01c-.045-.082.057-.175.123-.115 1.304 1.404.869 2.704.37 3.358-.055.068-.153-.002-.126-.084a3.89 3.89 0 0 0 .153-1.616Zm1.18-.372a3.807 3.807 0 0 0-1.07-1.201v-.01c-.075-.056-.017-.182.075-.145 1.725.723 1.844 2.114 1.634 2.93a.077.077 0 0 1-.086.06.073.073 0 0 1-.048-.03.079.079 0 0 1-.014-.055 3.91 3.91 0 0 0-.49-1.55Zm-3.38.372c-.411.363-.853.506-1.373.665-.077 0-.129-.052-.103-.12 1.165-.605 1.58-1.097 1.993-1.847 0 0 .104-.078.126.056 0 .202-.232.884-.644 1.246Zm3.287 7.47a1.966 1.966 0 0 1-.624 1.033 1.44 1.44 0 0 1-.854.412 1.445 1.445 0 0 1-.882-.412 1.967 1.967 0 0 1-.616-1.033.162.162 0 0 1 .043-.131.154.154 0 0 1 .128-.046h2.636a.151.151 0 0 1 .127.047.159.159 0 0 1 .042.13Zm-3.629-1.446a1.233 1.233 0 0 1-1.585-.163 1.313 1.313 0 0 1-.155-1.627c.138-.212.335-.376.564-.474a1.227 1.227 0 0 1 1.369.28 1.321 1.321 0 0 1 .271 1.405 1.284 1.284 0 0 1-.464.579Zm5.647.003a1.232 1.232 0 0 1-1.582-.168 1.304 1.304 0 0 1-.364-.908c0-.255.073-.505.212-.717.138-.212.335-.378.565-.474a1.227 1.227 0 0 1 1.37.283 1.32 1.32 0 0 1 .266 1.407 1.281 1.281 0 0 1-.467.577Z" class="base"/></g><path fill="currentColor" d="M24.039 15.5V6.045H27.5c.671 0 1.226.111 1.667.333.44.218.769.515.988.89.218.373.327.793.327 1.261 0 .394-.072.726-.217.997a1.786 1.786 0 0 1-.581.647c-.24.16-.505.277-.794.35v.093c.314.015.62.117.918.305.302.184.551.447.748.789.197.341.296.757.296 1.246 0 .484-.114.918-.342 1.302-.225.382-.572.685-1.043.91-.471.221-1.073.332-1.805.332h-3.624Zm1.426-1.223h2.06c.682 0 1.172-.133 1.467-.397.296-.265.443-.596.443-.993 0-.299-.075-.572-.226-.822a1.616 1.616 0 0 0-.646-.595c-.277-.148-.606-.222-.988-.222h-2.11v3.029Zm0-4.141h1.911c.32 0 .608-.062.864-.185a1.51 1.51 0 0 0 .614-.517c.154-.225.23-.49.23-.794 0-.391-.136-.719-.41-.983-.274-.265-.694-.397-1.26-.397h-1.949v2.876Zm11.46 2.423V8.41h1.386V15.5h-1.358v-1.228h-.074a2.213 2.213 0 0 1-.784.946c-.357.25-.802.374-1.334.374-.456 0-.86-.1-1.21-.3a2.109 2.109 0 0 1-.822-.9c-.197-.397-.295-.888-.295-1.473V8.41h1.38v4.344c0 .483.134.868.402 1.154.267.287.615.43 1.043.43.259 0 .516-.065.771-.194.258-.13.472-.325.642-.587.172-.261.257-.593.254-.997Zm3.24 2.941V8.41h1.38v7.09h-1.38Zm.697-8.185a.877.877 0 0 1-.618-.24.78.78 0 0 1-.254-.582.77.77 0 0 1 .254-.581.868.868 0 0 1 .618-.245c.24 0 .445.081.614.245.173.16.259.354.259.581a.774.774 0 0 1-.259.582.861.861 0 0 1-.614.24Zm3.92-1.27V15.5h-1.38V6.045h1.38ZM49.95 8.41v1.108h-3.873V8.409h3.873ZM47.115 6.71h1.38v6.708c0 .268.04.47.12.605.08.132.184.223.31.272.13.046.27.07.42.07.11 0 .208-.008.29-.024.084-.015.149-.027.195-.037l.25 1.14a2.703 2.703 0 0 1-.896.148 2.428 2.428 0 0 1-1.016-.194 1.742 1.742 0 0 1-.762-.627c-.194-.284-.29-.639-.29-1.067V6.71Zm9.34 8.79-2.087-7.09h1.426l1.39 5.207h.07l1.393-5.208h1.427l1.385 5.184h.069l1.38-5.184h1.427L62.253 15.5h-1.408l-1.44-5.12h-.107l-1.44 5.12h-1.404Zm9.19 0V8.41h1.38v7.09h-1.38Zm.697-8.185a.877.877 0 0 1-.619-.24.78.78 0 0 1-.254-.582.77.77 0 0 1 .254-.581.868.868 0 0 1 .619-.245c.24 0 .445.081.614.245.172.16.258.354.258.581a.774.774 0 0 1-.258.582.862.862 0 0 1-.614.24Zm5.85 1.094v1.108h-3.873V8.409h3.873ZM69.358 6.71h1.38v6.708c0 .268.04.47.12.605.08.132.183.223.31.272.128.046.268.07.42.07.11 0 .207-.008.29-.024.083-.015.148-.027.194-.037l.25 1.14a2.703 2.703 0 0 1-.896.148 2.428 2.428 0 0 1-1.016-.194 1.742 1.742 0 0 1-.762-.627c-.194-.284-.29-.639-.29-1.067V6.71Zm5.894 4.58v4.21h-1.38V6.045h1.361v3.518h.088c.166-.381.42-.685.761-.91.342-.224.788-.336 1.34-.336.486 0 .91.1 1.273.3.367.2.65.498.85.895.203.394.305.887.305 1.478v4.51h-1.38v-4.344c0-.52-.135-.923-.402-1.21-.268-.289-.64-.434-1.118-.434-.326 0-.618.07-.877.208a1.498 1.498 0 0 0-.604.61c-.145.264-.217.584-.217.96Z" class="tagline"/><path fill="currentColor" d="M83.716 15.5V6.045h3.942c.708 0 1.3.1 1.777.3.48.2.84.48 1.08.84.244.36.365.778.365 1.252 0 .36-.075.681-.226.965a1.99 1.99 0 0 1-.623.697 2.49 2.49 0 0 1-.919.387v.093c.382.018.734.121 1.057.31.327.187.588.449.785.784.197.332.296.726.296 1.182 0 .508-.13.961-.388 1.362-.259.397-.633.71-1.122.941-.49.228-1.083.342-1.782.342h-4.242ZM86 13.658h1.412c.496 0 .86-.094 1.094-.282.237-.187.356-.449.356-.784 0-.244-.057-.453-.17-.628a1.099 1.099 0 0 0-.486-.411 1.755 1.755 0 0 0-.752-.148H86v2.253Zm0-3.725h1.265c.249 0 .47-.042.664-.125a1.02 1.02 0 0 0 .453-.36.96.96 0 0 0 .166-.568c0-.317-.112-.566-.337-.748-.225-.181-.528-.272-.91-.272h-1.301v2.073Zm10.922 2.506V8.41h2.253V15.5h-2.151v-1.32h-.074a2.063 2.063 0 0 1-.803 1.034c-.376.252-.83.378-1.362.378-.483 0-.908-.11-1.274-.332a2.264 2.264 0 0 1-.854-.928c-.204-.4-.307-.868-.31-1.403v-4.52h2.258v4.076c.003.385.104.688.305.91.2.222.472.332.817.332.224 0 .426-.049.604-.148a1.09 1.09 0 0 0 .43-.438c.107-.194.161-.428.161-.702Zm5.947-.983V15.5h-2.257V8.41h2.147v1.3h.078c.157-.433.425-.773.803-1.02.379-.249.83-.373 1.353-.373.499 0 .931.112 1.297.337.37.221.656.532.859.932.206.397.308.862.305 1.394v4.52h-2.258v-4.076c.003-.394-.097-.702-.3-.924-.2-.221-.478-.332-.835-.332-.237 0-.447.052-.628.157a1.042 1.042 0 0 0-.416.439c-.095.19-.144.421-.148.692Z" class="base"/><defs><linearGradient id="paint0_linear_2101_22" x1="0" x2="114" y1="10.5" y2="10.5" gradientUnits="userSpaceOnUse"><stop stop-color="#F472B6"/><stop offset="1" stop-color="#F9F1E1"/></linearGradient><clipPath id="clip0_2101_22"><path fill="currentColor" d="M5 3h16v16H5z" class="base"/></clipPath></defs><style>.fill{color:#fff}.base{color:#000}.tagline{color:#1a1a1a}@media (prefers-color-scheme:dark){.fill{color:#000}.base{color:#fff}.tagline{color:#e8e8e8}}</style></svg>