<svg xmlns="http://www.w3.org/2000/svg" width="159" height="21" fill="none" viewBox="0 0 159 21"><rect width="159" height="21" fill="currentColor" class="fill" rx="5"/><rect width="157.8" height="19.8" x=".6" y=".6" stroke="url(#paint0_linear_2040_141)" stroke-opacity=".88" stroke-width="1.2" rx="4.4"/><g clip-path="url(#clip0_2040_141)"><path fill="currentColor" d="M8.683 2.763a1.473 1.473 0 0 0-1.445.923l-.002.005-1.87 4.884-.065.161-.002.005a4.52 4.52 0 0 0-.264 1.06v.002a4.52 4.52 0 0 0 .394 2.474v.003l.002.003v.002l.002.002v.001l.002.001a4.571 4.571 0 0 0 .15.292l.008.015.005.009.003.005.003.003a4.534 4.534 0 0 0 .909 1.12c.09.08.184.158.283.233l.017.014.004.003h.001l2.92 2.186 1.442 1.091.877.664v.001a1.565 1.565 0 0 0 1.878 0v-.001l.877-.664 1.455-1.1-.137.109 3.072-2.3.004-.004a4.523 4.523 0 0 0 1.493-5.226v-.002l-.02-.051-1.914-4.994-.002-.006a1.467 1.467 0 0 0-.577-.696h-.002a1.48 1.48 0 0 0-1.703.09l-.003.001-.002.002a1.463 1.463 0 0 0-.496.756l.012-.044-1.075 3.292h-3.833l-1.076-3.292.013.044a1.464 1.464 0 0 0-.496-.756v-.001a1.47 1.47 0 0 0-.842-.32Zm8.749 2.839L18.88 9.38l.02.053a2.59 2.59 0 0 1-.857 2.993l-.006.004-.006.005-2.329 1.743-.024-.02-.598.479-1.432 1.085-.652.493-.652-.493-1.446-1.095L7.99 12.45l-.037-.03-.007-.004a2.577 2.577 0 0 1-.67-.767l.015.03-.116-.158.1.128a2.6 2.6 0 0 1-.091-.173l-.097-.138.09.126a2.601 2.601 0 0 1-.196-.594 2.594 2.594 0 0 1-.03-.827v-.005a2.611 2.611 0 0 1 .145-.588l1.474-3.847 1.116 3.413h6.631l1.116-3.414ZM5.56 12.465l.075.103-.005-.003-.07-.1Zm.141.273c.03.038.059.077.06.08a35.606 35.606 0 0 0-.06-.08Z" class="base"/></g><path fill="currentColor" d="M31.891 9.12h-1.44a2.202 2.202 0 0 0-.863-1.408 2.387 2.387 0 0 0-.734-.37A2.866 2.866 0 0 0 28 7.219a2.67 2.67 0 0 0-1.464.41c-.428.275-.766.676-1.015 1.206-.247.53-.37 1.175-.37 1.939 0 .77.123 1.418.37 1.948.249.53.589.93 1.02 1.2.43.271.915.406 1.454.406.299 0 .582-.04.85-.12.27-.083.515-.204.733-.364a2.212 2.212 0 0 0 .873-1.39l1.44.005a3.855 3.855 0 0 1-.447 1.283 3.54 3.54 0 0 1-.845 1.007c-.342.28-.733.497-1.173.65-.44.154-.92.231-1.44.231-.819 0-1.548-.194-2.188-.581-.64-.391-1.145-.95-1.515-1.676-.366-.726-.549-1.593-.549-2.6 0-1.009.185-1.875.554-2.598.37-.727.874-1.284 1.514-1.672.64-.39 1.368-.586 2.184-.586.502 0 .97.073 1.403.217.437.142.83.351 1.177.628.348.274.636.61.864 1.006.227.394.381.845.461 1.353Zm4.583 6.523c-.664 0-1.245-.152-1.74-.457a3.082 3.082 0 0 1-1.154-1.279c-.274-.547-.411-1.188-.411-1.92 0-.736.137-1.379.41-1.93.275-.55.66-.979 1.155-1.283.495-.305 1.076-.457 1.74-.457.665 0 1.245.152 1.74.457.496.304.881.732 1.155 1.283.274.551.41 1.194.41 1.93 0 .732-.136 1.373-.41 1.92a3.082 3.082 0 0 1-1.154 1.28c-.496.304-1.076.456-1.74.456Zm.005-1.159c.43 0 .788-.114 1.071-.341.283-.228.492-.531.628-.91.138-.378.208-.795.208-1.25 0-.453-.07-.869-.208-1.247a2.03 2.03 0 0 0-.628-.919c-.283-.23-.64-.346-1.071-.346-.434 0-.794.115-1.08.346-.283.23-.494.537-.633.919a3.677 3.677 0 0 0-.203 1.246c0 .456.068.873.203 1.251.139.379.35.682.633.91.286.227.646.341 1.08.341Zm6.222-3.194v4.21h-1.38V8.41h1.324v1.153h.088c.163-.375.419-.677.767-.905.35-.227.792-.341 1.324-.341.484 0 .907.101 1.27.304.363.2.645.499.845.896.2.397.3.888.3 1.473v4.51h-1.38v-4.344c0-.514-.134-.916-.402-1.205-.268-.292-.636-.439-1.104-.439-.32 0-.604.07-.854.208a1.493 1.493 0 0 0-.586.61c-.141.264-.212.584-.212.96ZM52.4 8.41v1.107h-3.873V8.409H52.4Zm-2.834-1.7h1.38v6.708c0 .268.04.47.12.605.08.132.183.223.31.272.128.046.269.07.42.07.11 0 .207-.008.29-.024.083-.015.148-.027.194-.037l.25 1.14a2.703 2.703 0 0 1-.896.148 2.428 2.428 0 0 1-1.016-.194 1.742 1.742 0 0 1-.762-.627c-.194-.284-.29-.639-.29-1.067V6.71Zm4.36 8.79V8.41h1.335v1.126h.074c.13-.382.357-.682.683-.9.33-.222.702-.333 1.117-.333a5.907 5.907 0 0 1 .587.032v1.32a2.473 2.473 0 0 0-.296-.05 2.818 2.818 0 0 0-.425-.033c-.326 0-.617.07-.872.208a1.544 1.544 0 0 0-.822 1.39v4.33h-1.38Zm4.99 0V8.41h1.38v7.09h-1.38Zm.697-8.185a.877.877 0 0 1-.618-.24.78.78 0 0 1-.254-.582.77.77 0 0 1 .254-.581.868.868 0 0 1 .618-.245c.24 0 .445.081.614.245.173.16.259.354.259.581a.774.774 0 0 1-.259.582.862.862 0 0 1-.614.24Zm2.651 8.185V6.045h1.38V9.56h.084c.08-.148.195-.319.346-.513.15-.194.36-.363.628-.508.267-.147.621-.221 1.062-.221a2.77 2.77 0 0 1 1.532.434c.45.289.802.706 1.057 1.25.259.546.388 1.201.388 1.967 0 .767-.127 1.424-.383 1.972-.255.544-.606.965-1.053 1.26a2.725 2.725 0 0 1-1.528.439c-.43 0-.783-.073-1.057-.217a2 2 0 0 1-.637-.508 3.844 3.844 0 0 1-.355-.517h-.116V15.5h-1.348Zm1.353-3.546c0 .5.072.936.217 1.312.144.375.354.669.628.881.274.21.61.314 1.006.314.412 0 .757-.109 1.034-.328.277-.221.487-.521.628-.9a3.56 3.56 0 0 0 .217-1.279c0-.467-.07-.887-.212-1.26a1.929 1.929 0 0 0-.628-.882c-.277-.215-.623-.323-1.039-.323-.4 0-.739.103-1.016.31a1.899 1.899 0 0 0-.623.863c-.141.37-.212.8-.212 1.292Zm11.166.605V8.41h1.385V15.5h-1.357v-1.228h-.074a2.213 2.213 0 0 1-.785.946c-.357.25-.802.374-1.334.374-.456 0-.859-.1-1.21-.3a2.109 2.109 0 0 1-.821-.9c-.197-.397-.296-.888-.296-1.473V8.41h1.38v4.344c0 .483.134.868.402 1.154.268.287.616.43 1.044.43.258 0 .515-.065.77-.194.259-.13.473-.325.642-.587.172-.261.257-.593.254-.997Zm6.55-4.15v1.108h-3.874V8.409h3.874ZM78.498 6.71h1.38v6.708c0 .268.04.47.12.605.08.132.184.223.31.272.129.046.27.07.42.07.11 0 .208-.008.29-.024.084-.015.148-.027.195-.037l.249 1.14a2.702 2.702 0 0 1-.896.148 2.428 2.428 0 0 1-1.015-.194 1.742 1.742 0 0 1-.762-.627c-.194-.284-.29-.639-.29-1.067V6.71Zm7.341 8.933c-.698 0-1.3-.15-1.805-.448a3.038 3.038 0 0 1-1.163-1.27c-.27-.547-.406-1.189-.406-1.924 0-.727.135-1.367.406-1.92a3.154 3.154 0 0 1 1.145-1.298c.492-.31 1.068-.466 1.727-.466.4 0 .787.066 1.163.198.375.133.712.34 1.01.623.3.284.535.651.707 1.104.173.45.259.995.259 1.639v.489h-5.637v-1.034h4.284c0-.363-.074-.685-.221-.965a1.675 1.675 0 0 0-.624-.67 1.741 1.741 0 0 0-.932-.244c-.388 0-.727.095-1.016.286a1.92 1.92 0 0 0-.665.739c-.153.302-.23.63-.23.983v.808c0 .474.083.877.249 1.21.17.332.404.586.706.761.302.173.654.259 1.057.259.262 0 .5-.037.716-.111a1.485 1.485 0 0 0 .919-.9l1.306.235a2.366 2.366 0 0 1-.563 1.011c-.268.287-.605.51-1.011.67a3.785 3.785 0 0 1-1.38.235Zm11.002 0c-.665 0-1.245-.152-1.74-.457a3.082 3.082 0 0 1-1.155-1.279c-.274-.547-.41-1.188-.41-1.92 0-.736.136-1.379.41-1.93.274-.55.659-.979 1.154-1.283.496-.305 1.076-.457 1.74-.457.665 0 1.245.152 1.74.457.496.304.881.732 1.155 1.283.274.551.411 1.194.411 1.93 0 .732-.137 1.373-.41 1.92a3.082 3.082 0 0 1-1.155 1.28c-.496.304-1.076.456-1.74.456Zm.004-1.159c.431 0 .788-.114 1.071-.341.283-.228.493-.531.628-.91.139-.378.208-.795.208-1.25 0-.453-.07-.869-.208-1.247a2.03 2.03 0 0 0-.628-.919c-.283-.23-.64-.346-1.07-.346-.435 0-.795.115-1.081.346-.283.23-.494.537-.633.919a3.677 3.677 0 0 0-.203 1.246c0 .456.068.873.203 1.251.139.379.35.682.633.91.286.227.646.341 1.08.341Zm6.222-3.194v4.21h-1.38V8.41h1.325v1.153h.087c.163-.375.419-.677.767-.905.351-.227.792-.341 1.325-.341.483 0 .906.101 1.269.304.363.2.645.499.845.896.2.397.3.888.3 1.473v4.51h-1.38v-4.344c0-.514-.134-.916-.402-1.205-.268-.292-.635-.439-1.103-.439-.32 0-.605.07-.854.208a1.493 1.493 0 0 0-.587.61c-.141.264-.212.584-.212.96Z" class="tagline"/><path fill="currentColor" d="M117.92 9.134a1.642 1.642 0 0 0-.231-.513 1.463 1.463 0 0 0-.374-.383 1.595 1.595 0 0 0-.508-.235 2.24 2.24 0 0 0-.627-.083c-.459 0-.856.11-1.191.332-.333.222-.59.545-.771.97-.182.421-.273.934-.273 1.537 0 .606.088 1.123.263 1.551.176.428.43.754.762.979.333.224.736.337 1.21.337.418 0 .772-.068 1.061-.203.293-.139.514-.334.665-.587.151-.252.226-.55.226-.89l.425.05h-2.299V10.33h4.076v1.252c0 .846-.18 1.57-.54 2.174a3.59 3.59 0 0 1-1.477 1.39c-.625.323-1.343.484-2.156.484-.902 0-1.694-.195-2.377-.586a4.062 4.062 0 0 1-1.598-1.671c-.381-.726-.572-1.588-.572-2.585 0-.776.115-1.464.346-2.064a4.391 4.391 0 0 1 .965-1.533 4.18 4.18 0 0 1 1.44-.95 4.792 4.792 0 0 1 1.768-.324 4.81 4.81 0 0 1 1.529.236c.474.157.892.378 1.255.664.366.287.663.627.891 1.02.228.395.37.827.425 1.298h-2.313Zm4.206 6.366V8.41h2.257v7.09h-2.257Zm1.131-7.917c-.317 0-.59-.105-.817-.314a1.01 1.01 0 0 1-.342-.767c0-.295.114-.547.342-.757.227-.212.5-.318.817-.318.32 0 .592.106.817.318a.99.99 0 0 1 .341.757c0 .299-.113.554-.341.767-.225.21-.497.314-.817.314Zm6.565.826v1.662h-4.473V8.409h4.473Zm-3.536-1.699h2.258v6.56c0 .139.021.251.064.337a.409.409 0 0 0 .199.18c.086.034.189.051.309.051.086 0 .177-.008.273-.023a4.18 4.18 0 0 0 .221-.046l.342 1.63c-.108.03-.26.069-.457.115a3.809 3.809 0 0 1-.697.088c-.53.024-.984-.037-1.362-.185a1.77 1.77 0 0 1-.864-.702c-.196-.317-.292-.715-.286-1.195V6.71Zm4.841 8.79V6.045h2.285v7.6h3.933V15.5h-6.218Zm9.4.12c-.452 0-.854-.075-1.205-.226a1.874 1.874 0 0 1-.826-.693c-.2-.31-.3-.7-.3-1.168 0-.394.069-.726.207-.997.139-.27.33-.49.573-.66a2.69 2.69 0 0 1 .84-.383c.317-.09.656-.15 1.016-.18.403-.037.728-.075.974-.116.246-.043.424-.103.535-.18a.388.388 0 0 0 .171-.337v-.023c0-.237-.082-.42-.245-.549-.163-.13-.383-.194-.66-.194-.298 0-.538.065-.72.194a.85.85 0 0 0-.346.535l-2.082-.073c.061-.431.22-.816.475-1.155.259-.341.613-.609 1.062-.803.452-.197.996-.295 1.63-.295.452 0 .869.054 1.251.161.381.105.714.259.997.462.283.2.502.446.655.739.157.292.236.626.236 1.001v4.82h-2.124v-.988h-.055c-.126.24-.288.443-.485.61a1.93 1.93 0 0 1-.688.373 2.919 2.919 0 0 1-.886.125Zm.697-1.477c.243 0 .462-.05.656-.148.197-.098.354-.234.47-.406.117-.176.176-.379.176-.61v-.674a1.344 1.344 0 0 1-.236.093 3.935 3.935 0 0 1-.295.078 5.417 5.417 0 0 1-.332.065l-.328.05a2.039 2.039 0 0 0-.545.158.859.859 0 0 0-.342.277.685.685 0 0 0-.115.397c0 .233.083.412.249.535.17.123.384.185.642.185Zm4.921 1.357V6.045h2.258v3.578h.046c.092-.215.223-.423.392-.623.173-.2.391-.363.656-.49.268-.129.588-.193.96-.193.492 0 .953.129 1.38.388.431.258.779.657 1.044 1.195.264.539.397 1.225.397 2.06 0 .802-.128 1.475-.384 2.017-.252.541-.593.947-1.024 1.218-.428.271-.904.407-1.427.407a2.26 2.26 0 0 1-.928-.176 2.03 2.03 0 0 1-.66-.462 2.217 2.217 0 0 1-.406-.614h-.069v1.15h-2.235Zm2.211-3.546c0 .382.051.715.153.998.104.283.254.503.448.66.197.154.432.23.706.23a1.1 1.1 0 0 0 .706-.23c.194-.157.34-.377.439-.66.101-.283.152-.616.152-.998 0-.381-.051-.712-.152-.992a1.4 1.4 0 0 0-.439-.65 1.089 1.089 0 0 0-.706-.232c-.277 0-.512.076-.706.226a1.42 1.42 0 0 0-.448.647c-.102.28-.153.614-.153 1.002Z" class="base"/><defs><linearGradient id="paint0_linear_2040_141" x1="0" x2="159" y1="10.5" y2="10.5" gradientUnits="userSpaceOnUse"><stop stop-color="#FEB484"/><stop offset=".501" stop-color="#A686F2"/><stop offset="1" stop-color="#592AC8"/></linearGradient><clipPath id="clip0_2040_141"><path fill="currentColor" d="M5 2.5h16v16H5z" class="base"/></clipPath></defs><style>.fill{color:#fff}.base{color:#000}.tagline{color:#1a1a1a}@media (prefers-color-scheme:dark){.fill{color:#000}.base{color:#fff}.tagline{color:#e8e8e8}}</style></svg>