<svg xmlns="http://www.w3.org/2000/svg" width="120" height="21" fill="none" viewBox="0 0 120 21"><rect width="120" height="21" fill="currentColor" class="fill" rx="5"/><rect width="118.8" height="19.8" x=".6" y=".6" stroke="url(#paint0_linear_2038_90)" stroke-width="1.2" rx="4.4"/><g clip-path="url(#clip0_2038_90)"><path fill="currentColor" d="M8.683 2.763a1.473 1.473 0 0 0-1.445.923l-.002.005-1.87 4.884-.065.161-.002.005a4.52 4.52 0 0 0-.264 1.06v.002a4.52 4.52 0 0 0 .394 2.474v.003l.002.003v.002l.002.002v.001l.002.001a4.571 4.571 0 0 0 .15.292l.008.015.005.009.003.005.003.003a4.534 4.534 0 0 0 .909 1.12c.09.08.184.158.283.233l.017.014.004.003h.001l2.92 2.186 1.442 1.091.877.664v.001a1.565 1.565 0 0 0 1.878 0v-.001l.877-.664 1.455-1.1-.137.109 3.072-2.3.004-.004a4.523 4.523 0 0 0 1.493-5.226v-.002l-.02-.051-1.914-4.994-.002-.006a1.467 1.467 0 0 0-.577-.696h-.002a1.48 1.48 0 0 0-1.703.09l-.003.001-.002.002a1.463 1.463 0 0 0-.496.756l.012-.044-1.075 3.292h-3.833l-1.076-3.292.013.044a1.464 1.464 0 0 0-.496-.756v-.001a1.47 1.47 0 0 0-.842-.32Zm8.749 2.839L18.88 9.38l.02.053a2.59 2.59 0 0 1-.857 2.993l-.006.004-.006.005-2.329 1.743-.024-.02-.598.479-1.432 1.085-.652.493-.652-.493-1.446-1.095L7.99 12.45l-.037-.03-.007-.004a2.577 2.577 0 0 1-.67-.767l.015.03-.116-.158.1.128a2.591 2.591 0 0 1-.091-.173l-.097-.138.09.126a2.605 2.605 0 0 1-.196-.594 2.594 2.594 0 0 1-.03-.827v-.005a2.611 2.611 0 0 1 .145-.588l1.474-3.847 1.116 3.413h6.631l1.116-3.414ZM5.56 12.465l.075.103-.005-.003-.07-.1Zm.141.273c.03.038.059.077.06.08a28.26 28.26 0 0 0-.06-.08Z" class="base"/></g><path fill="currentColor" d="M24.039 15.5V6.045h5.863v1.228h-4.437v2.881h4.017v1.223h-4.017V15.5H24.04Zm9.972.143c-.664 0-1.245-.152-1.74-.457a3.082 3.082 0 0 1-1.154-1.279c-.274-.547-.41-1.188-.41-1.92 0-.736.136-1.379.41-1.93.274-.55.659-.979 1.154-1.283.495-.305 1.076-.457 1.74-.457.665 0 1.245.152 1.74.457.496.304.881.732 1.155 1.283.274.551.41 1.194.41 1.93 0 .732-.136 1.373-.41 1.92a3.082 3.082 0 0 1-1.154 1.28c-.496.304-1.076.456-1.74.456Zm.005-1.159c.43 0 .788-.114 1.071-.341.283-.228.492-.531.628-.91.138-.378.208-.795.208-1.25 0-.453-.07-.869-.208-1.247a2.03 2.03 0 0 0-.628-.919c-.283-.23-.64-.346-1.07-.346-.435 0-.795.115-1.081.346-.283.23-.494.537-.633.919a3.674 3.674 0 0 0-.203 1.246c0 .456.068.873.203 1.251.139.379.35.682.633.91.286.227.646.341 1.08.341Zm4.842 1.016V8.41h1.334v1.126h.074c.129-.382.357-.682.683-.9.33-.222.702-.333 1.117-.333a5.903 5.903 0 0 1 .586.032v1.32a2.47 2.47 0 0 0-.295-.05 2.82 2.82 0 0 0-.425-.033 1.8 1.8 0 0 0-.872.208 1.543 1.543 0 0 0-.822 1.39v4.33h-1.38Zm6.258-2.405-.009-1.685h.24l2.825-3h1.653l-3.222 3.415h-.217l-1.27 1.27Zm-1.27 2.405V6.045h1.381V15.5h-1.38Zm4.479 0-2.54-3.37.952-.965 3.282 4.335h-1.694Zm9.185.143c-.664 0-1.244-.152-1.74-.457a3.082 3.082 0 0 1-1.154-1.279c-.274-.547-.41-1.188-.41-1.92 0-.736.136-1.379.41-1.93.274-.55.659-.979 1.154-1.283.496-.305 1.076-.457 1.74-.457.665 0 1.245.152 1.74.457.496.304.881.732 1.155 1.283.274.551.41 1.194.41 1.93 0 .732-.136 1.373-.41 1.92a3.082 3.082 0 0 1-1.154 1.28c-.496.304-1.076.456-1.74.456Zm.005-1.159c.431 0 .788-.114 1.071-.341.283-.228.492-.531.628-.91.138-.378.208-.795.208-1.25 0-.453-.07-.869-.208-1.247a2.03 2.03 0 0 0-.628-.919c-.283-.23-.64-.346-1.07-.346-.435 0-.795.115-1.081.346-.283.23-.494.537-.633.919a3.677 3.677 0 0 0-.203 1.246c0 .456.068.873.203 1.251.139.379.35.682.633.91.286.227.646.341 1.08.341Zm6.222-3.194v4.21h-1.38V8.41h1.325v1.153h.087c.163-.375.419-.677.767-.905.35-.227.792-.341 1.325-.341.483 0 .906.101 1.269.304.363.2.645.499.845.896.2.397.3.888.3 1.473v4.51h-1.38v-4.344c0-.514-.134-.916-.402-1.205-.268-.292-.636-.439-1.103-.439-.32 0-.605.07-.854.208a1.494 1.494 0 0 0-.587.61c-.141.264-.212.584-.212.96Z" class="tagline"/><path fill="currentColor" d="M78.92 9.134a1.66 1.66 0 0 0-.23-.513 1.475 1.475 0 0 0-.375-.383 1.604 1.604 0 0 0-.507-.235c-.191-.056-.4-.083-.628-.083-.459 0-.856.11-1.191.332-.333.222-.59.545-.771.97-.182.421-.273.934-.273 1.537 0 .606.088 1.123.263 1.551.176.428.43.754.762.979.332.224.736.337 1.21.337.418 0 .772-.068 1.061-.203.293-.139.514-.334.665-.587.151-.252.226-.55.226-.89l.425.05h-2.299V10.33h4.077v1.252c0 .846-.18 1.57-.54 2.174a3.592 3.592 0 0 1-1.478 1.39c-.625.323-1.343.484-2.156.484-.901 0-1.694-.195-2.377-.586a4.063 4.063 0 0 1-1.598-1.671c-.381-.726-.572-1.588-.572-2.585 0-.776.115-1.464.346-2.064.231-.603.553-1.114.965-1.533a4.17 4.17 0 0 1 1.44-.95 4.788 4.788 0 0 1 1.769-.324c.547 0 1.057.079 1.528.236a4.08 4.08 0 0 1 1.255.664c.367.287.663.627.891 1.02.228.395.37.827.425 1.298H78.92Zm4.206 6.366V8.41h2.257v7.09h-2.257Zm1.13-7.917c-.316 0-.589-.105-.816-.314a1.01 1.01 0 0 1-.342-.767c0-.295.114-.547.342-.757.227-.212.5-.318.817-.318.32 0 .592.106.817.318.228.21.341.462.341.757 0 .299-.113.554-.341.767-.225.21-.497.314-.817.314Zm6.567.826v1.662h-4.474V8.409h4.474ZM87.285 6.71h2.258v6.56c0 .139.021.251.064.337a.403.403 0 0 0 .199.18c.086.034.19.051.31.051.085 0 .176-.008.272-.023.098-.018.172-.034.221-.046l.342 1.63c-.108.03-.26.069-.457.115a3.798 3.798 0 0 1-.697.088c-.53.024-.984-.037-1.362-.185a1.766 1.766 0 0 1-.864-.702c-.197-.317-.292-.715-.286-1.195V6.71Zm4.84 8.79V6.045h2.286v7.6h3.933V15.5h-6.218Zm9.401.12c-.452 0-.854-.075-1.205-.226a1.877 1.877 0 0 1-.826-.693c-.2-.31-.3-.7-.3-1.168 0-.394.069-.726.207-.997.139-.27.33-.49.573-.66.243-.17.523-.297.84-.383.317-.09.656-.15 1.016-.18.403-.037.728-.075.974-.116.246-.043.424-.103.535-.18a.388.388 0 0 0 .171-.337v-.023c0-.237-.082-.42-.245-.549-.163-.13-.383-.194-.66-.194-.298 0-.538.065-.72.194a.85.85 0 0 0-.346.535l-2.082-.073c.061-.431.22-.816.475-1.155.259-.341.613-.609 1.062-.803.452-.197.996-.295 1.63-.295.452 0 .869.054 1.251.161.381.105.714.259.997.462.283.2.502.446.655.739.157.292.236.626.236 1.001v4.82h-2.124v-.988h-.055c-.126.24-.288.443-.485.61a1.93 1.93 0 0 1-.688.373 2.919 2.919 0 0 1-.886.125Zm.697-1.477c.243 0 .462-.05.656-.148.197-.098.354-.234.47-.406.117-.176.176-.379.176-.61v-.674a1.344 1.344 0 0 1-.236.093 3.935 3.935 0 0 1-.295.078 5.417 5.417 0 0 1-.332.065l-.328.05a2.039 2.039 0 0 0-.545.158.866.866 0 0 0-.342.277.685.685 0 0 0-.115.397c0 .233.083.412.249.535.17.123.384.185.642.185Zm4.921 1.357V6.045h2.258v3.578h.046c.092-.215.223-.423.392-.623.173-.2.391-.363.656-.49.268-.129.588-.193.96-.193.492 0 .953.129 1.38.388.431.258.779.657 1.044 1.195.264.539.397 1.225.397 2.06 0 .802-.128 1.475-.383 2.017-.253.541-.594.947-1.025 1.218-.428.271-.904.407-1.427.407a2.26 2.26 0 0 1-.928-.176 2.03 2.03 0 0 1-.66-.462 2.217 2.217 0 0 1-.406-.614h-.069v1.15h-2.235Zm2.212-3.546c0 .382.05.715.152.998.104.283.254.503.448.66.197.154.432.23.706.23a1.1 1.1 0 0 0 .706-.23c.194-.157.34-.377.439-.66.101-.283.152-.616.152-.998 0-.381-.051-.712-.152-.992a1.4 1.4 0 0 0-.439-.65 1.089 1.089 0 0 0-.706-.232c-.277 0-.512.076-.706.226a1.42 1.42 0 0 0-.448.647c-.102.28-.152.614-.152 1.002Z" class="base"/><defs><linearGradient id="paint0_linear_2038_90" x1="0" x2="120" y1="10.5" y2="10.5" gradientUnits="userSpaceOnUse"><stop stop-color="#FEB484"/><stop offset=".501" stop-color="#A686F2"/><stop offset="1" stop-color="#592AC8"/></linearGradient><clipPath id="clip0_2038_90"><path fill="currentColor" d="M5 2.5h16v16H5z" class="base"/></clipPath></defs><style>.fill{color:#fff}.base{color:#000}.tagline{color:#1a1a1a}@media (prefers-color-scheme:dark){.fill{color:#000}.base{color:#fff}.tagline{color:#e8e8e8}}</style></svg>