<svg xmlns="http://www.w3.org/2000/svg" width="140" height="21" fill="none" viewBox="0 0 140 21"><rect width="140" height="21" fill="currentColor" class="fill" rx="5"/><rect width="138.8" height="19.8" x=".6" y=".6" stroke="url(#paint0_linear_2058_151)"  stroke-width="1.2" rx="4.4"/><path fill="currentColor" fill-rule="evenodd" d="M12 17.5a7 7 0 1 1 0-14 7 7 0 0 1 0 14Zm-.556-5.472h1.284c1.21 0 2.19-.954 2.19-2.132 0-1.178-.98-2.132-2.19-2.132h-1.853c-.698 0-1.264.55-1.264 1.23v4.788l1.833-1.754Z" class="base" clip-rule="evenodd"/><path fill="currentColor" d="M22.039 15.5V6.045h5.863v1.228h-4.437v2.881h4.017v1.223h-4.017V15.5H22.04Zm9.972.143c-.664 0-1.245-.152-1.74-.457a3.082 3.082 0 0 1-1.154-1.279c-.274-.547-.41-1.188-.41-1.92 0-.736.136-1.379.41-1.93.274-.55.659-.979 1.154-1.283.495-.305 1.076-.457 1.74-.457.665 0 1.245.152 1.74.457.496.304.881.732 1.155 1.283.274.551.41 1.194.41 1.93 0 .732-.136 1.373-.41 1.92a3.082 3.082 0 0 1-1.154 1.28c-.496.304-1.076.456-1.74.456Zm.005-1.159c.43 0 .788-.114 1.071-.341.283-.228.492-.531.628-.91.138-.378.208-.795.208-1.25 0-.453-.07-.869-.208-1.247a2.03 2.03 0 0 0-.628-.919c-.283-.23-.64-.346-1.07-.346-.435 0-.795.115-1.081.346-.283.23-.494.537-.633.919a3.674 3.674 0 0 0-.203 1.246c0 .456.068.873.203 1.251.139.379.35.682.633.91.286.227.646.341 1.08.341Zm6.222-8.439V15.5h-1.38V6.045h1.38Zm3.237 0V15.5h-1.38V6.045h1.38Zm4.844 9.598c-.665 0-1.245-.152-1.74-.457a3.082 3.082 0 0 1-1.154-1.279c-.274-.547-.411-1.188-.411-1.92 0-.736.137-1.379.41-1.93.274-.55.66-.979 1.155-1.283.495-.305 1.075-.457 1.74-.457s1.245.152 1.74.457c.496.304.88.732 1.155 1.283.273.551.41 1.194.41 1.93 0 .732-.137 1.373-.41 1.92a3.082 3.082 0 0 1-1.154 1.28c-.496.304-1.076.456-1.74.456Zm.005-1.159c.43 0 .788-.114 1.07-.341.284-.228.493-.531.629-.91.138-.378.207-.795.207-1.25 0-.453-.069-.869-.207-1.247a2.03 2.03 0 0 0-.628-.919c-.283-.23-.64-.346-1.071-.346-.434 0-.794.115-1.08.346-.284.23-.495.537-.633.919a3.674 3.674 0 0 0-.203 1.246c0 .456.067.873.203 1.251.139.379.35.682.632.91.287.227.647.341 1.08.341Zm6.163 1.016L50.4 8.41h1.427l1.39 5.207h.068l1.395-5.208h1.426l1.385 5.184h.07l1.38-5.184h1.426L58.285 15.5h-1.408l-1.44-5.12h-.107l-1.44 5.12h-1.403Zm15.617.143c-.665 0-1.245-.152-1.74-.457a3.082 3.082 0 0 1-1.154-1.279c-.274-.547-.411-1.188-.411-1.92 0-.736.137-1.379.41-1.93.275-.55.66-.979 1.155-1.283.495-.305 1.075-.457 1.74-.457s1.245.152 1.74.457c.496.304.88.732 1.155 1.283.274.551.41 1.194.41 1.93 0 .732-.136 1.373-.41 1.92a3.082 3.082 0 0 1-1.154 1.28c-.496.304-1.076.456-1.74.456Zm.005-1.159c.43 0 .788-.114 1.07-.341.284-.228.493-.531.629-.91.138-.378.207-.795.207-1.25 0-.453-.069-.869-.207-1.247a2.03 2.03 0 0 0-.628-.919c-.283-.23-.64-.346-1.071-.346-.434 0-.794.115-1.08.346-.284.23-.494.537-.633.919a3.677 3.677 0 0 0-.203 1.246c0 .456.068.873.203 1.251.139.379.35.682.633.91.286.227.646.341 1.08.341Zm6.222-3.194v4.21h-1.38V8.41h1.324v1.153h.088c.163-.375.419-.677.766-.905.351-.227.793-.341 1.325-.341.484 0 .907.101 1.27.304.363.2.645.499.845.896.2.397.3.888.3 1.473v4.51h-1.38v-4.344c0-.514-.135-.916-.402-1.205-.268-.292-.636-.439-1.104-.439-.32 0-.604.07-.854.208a1.495 1.495 0 0 0-.586.61c-.142.264-.212.584-.212.96Z" class="tagline"/><path fill="currentColor" d="M82.716 15.5V6.045h3.905c.708 0 1.319.139 1.833.416a2.91 2.91 0 0 1 1.196 1.15c.28.489.42 1.058.42 1.708 0 .652-.143 1.223-.43 1.712a2.879 2.879 0 0 1-1.214 1.131c-.526.268-1.15.402-1.874.402h-2.41v-1.8h1.985c.345 0 .633-.06.863-.18.234-.12.411-.288.531-.504.12-.218.18-.472.18-.761 0-.293-.06-.545-.18-.758a1.209 1.209 0 0 0-.53-.498c-.234-.117-.522-.176-.864-.176h-1.126V15.5h-2.285Zm8.48 0V8.41h2.257v7.09h-2.257Zm1.131-7.917c-.317 0-.59-.105-.817-.314a1.01 1.01 0 0 1-.342-.767c0-.295.114-.547.342-.757.228-.212.5-.318.817-.318.32 0 .593.106.817.318.228.21.342.462.342.757 0 .299-.114.554-.342.767-.225.21-.497.314-.817.314Zm4.484.826 1.168 2.336 1.21-2.336h2.275l-1.98 3.545 2.054 3.546h-2.257l-1.302-2.354-1.27 2.354h-2.29l2.06-3.546L94.52 8.41h2.29Zm8.745 7.225c-.742 0-1.382-.146-1.921-.439a3.033 3.033 0 0 1-1.237-1.26c-.286-.548-.429-1.199-.429-1.953 0-.732.144-1.372.433-1.92a3.14 3.14 0 0 1 1.224-1.284c.526-.307 1.146-.461 1.86-.461.505 0 .967.078 1.385.235.419.157.78.39 1.085.697.305.308.542.688.711 1.14.169.45.254.965.254 1.547v.563h-6.163v-1.31h4.062a1.279 1.279 0 0 0-.17-.643 1.16 1.16 0 0 0-.457-.438 1.32 1.32 0 0 0-.661-.162c-.252 0-.478.057-.678.171a1.282 1.282 0 0 0-.66 1.108v1.334c0 .29.057.543.17.762.114.216.276.383.485.503.209.12.459.18.748.18.2 0 .382-.027.545-.083.163-.055.303-.137.42-.244.117-.108.205-.24.263-.397l2.073.06c-.086.464-.276.869-.568 1.214a2.873 2.873 0 0 1-1.14.798c-.471.188-1.016.282-1.634.282Zm6.775-9.589V15.5h-2.257V6.045h2.257Zm5.467 2.364v1.662h-4.561V8.409h4.561Zm-3.61 7.091V8.049c0-.548.103-1.002.31-1.362.206-.363.492-.634.858-.812.367-.182.79-.273 1.27-.273.314 0 .609.025.886.074.28.046.488.088.623.125l-.36 1.652a1.873 1.873 0 0 0-.304-.069 2.14 2.14 0 0 0-.333-.027c-.264 0-.446.058-.544.175-.099.117-.148.277-.148.48V15.5h-2.258Zm7.783.134c-.742 0-1.382-.146-1.921-.439a3.033 3.033 0 0 1-1.237-1.26c-.286-.548-.429-1.199-.429-1.953 0-.732.144-1.372.434-1.92.289-.551.697-.979 1.223-1.284.526-.307 1.146-.461 1.86-.461.505 0 .967.078 1.385.235.419.157.78.39 1.085.697.305.308.542.688.711 1.14.169.45.254.965.254 1.547v.563h-6.163v-1.31h4.062a1.279 1.279 0 0 0-.17-.643 1.16 1.16 0 0 0-.457-.438 1.32 1.32 0 0 0-.661-.162c-.252 0-.478.057-.678.171a1.282 1.282 0 0 0-.66 1.108v1.334c0 .29.057.543.171.762.113.216.275.383.484.503.21.12.459.18.748.18.2 0 .382-.027.545-.083.163-.055.303-.137.42-.244.117-.108.205-.24.263-.397l2.073.06c-.086.464-.276.869-.568 1.214a2.873 2.873 0 0 1-1.14.798c-.471.188-1.016.282-1.634.282Zm7.108-.032c-.523 0-.999-.136-1.427-.407-.427-.27-.769-.677-1.025-1.218-.255-.542-.383-1.215-.383-2.018 0-.834.133-1.52.397-2.059.265-.538.611-.937 1.039-1.195a2.655 2.655 0 0 1 1.39-.388c.372 0 .69.064.955.194.265.126.483.289.656.489.172.2.303.408.392.623h.046V6.045h2.258V15.5h-2.235v-1.15h-.069a2.217 2.217 0 0 1-.406.614c-.176.191-.396.345-.66.462a2.26 2.26 0 0 1-.928.176Zm.785-1.76c.274 0 .507-.076.701-.23.194-.157.343-.377.448-.66.105-.283.157-.616.157-.998 0-.387-.052-.721-.157-1.001a1.377 1.377 0 0 0-.448-.646 1.107 1.107 0 0 0-.701-.227c-.28 0-.517.077-.711.231a1.43 1.43 0 0 0-.444.651 3.01 3.01 0 0 0-.147.992c0 .382.051.715.152.998.102.283.248.503.439.66.194.154.431.23.711.23Z" class="base"/><defs><linearGradient id="paint0_linear_2058_151" x1="0" x2="140" y1="10.5" y2="10.5" gradientUnits="userSpaceOnUse"><stop stop-color="#F22449"/><stop offset=".25" stop-color="#FF8D11"/><stop offset=".5" stop-color="#11D946"/><stop offset=".75" stop-color="#0098FD"/><stop offset="1" stop-color="#C835B7"/></linearGradient></defs><style>.fill{color:#fff}.base{color:#000}.tagline{color:#1a1a1a}@media (prefers-color-scheme:dark){.fill{color:#000}.base{color:#fff}.tagline{color:#e8e8e8}}</style></svg>