<svg xmlns="http://www.w3.org/2000/svg" width="144" height="21" fill="none" viewBox="0 0 144 21"><rect width="144" height="21" fill="currentColor" class="fill" rx="5"/><rect width="142.8" height="19.8" x=".6" y=".6" stroke="url(#paint0_linear_2065_26)" stroke-opacity=".88" stroke-width="1.2" rx="4.4"/><g clip-path="url(#clip0_2065_26)"><path fill="currentColor" fill-rule="evenodd" d="M18.614 3.975 17.3 5.674l1.313-1.699Z" class="base" clip-rule="evenodd"/><path fill="currentColor" fill-rule="evenodd" d="M18.85 3.669a.385.385 0 0 0-.542.07l-1.313 1.699a.385.385 0 0 0 .356.619.386.386 0 0 0 .256-.148l1.313-1.698a.385.385 0 0 0-.07-.542ZM5.386 3.975 6.7 5.674 5.386 3.975ZM5.15 3.669a.386.386 0 0 0-.07.542l1.313 1.698a.386.386 0 1 0 .612-.471L5.692 3.739a.386.386 0 0 0-.542-.07Z" class="base" clip-rule="evenodd"/><path fill="currentColor" d="M7.058 5.056a.925.925 0 0 0-.927.928v2.161c0 .514.413.927.927.927h9.884a.924.924 0 0 0 .927-.927V5.984a.925.925 0 0 0-.927-.928H7.058Zm1.968 1.158a1.043 1.043 0 1 1 0 2.085 1.043 1.043 0 0 1 0-2.085Zm6.024 0a1.042 1.042 0 1 1 0 2.085 1.042 1.042 0 0 1 0-2.085ZM7.058 9.381a.924.924 0 0 0-.927.926v6.178c0 .514.413.926.927.926h9.884a.924.924 0 0 0 .927-.926v-6.178a.924.924 0 0 0-.927-.926H7.058Zm4.942.772a3.248 3.248 0 0 1 3.244 3.244A3.248 3.248 0 0 1 12 16.641a3.248 3.248 0 0 1-3.244-3.244A3.248 3.248 0 0 1 12 10.153Zm0 .587a2.652 2.652 0 0 0-2.656 2.657A2.65 2.65 0 0 0 12 16.053a2.65 2.65 0 0 0 2.656-2.656A2.652 2.652 0 0 0 12 10.74Zm0 .726c1.06 0 1.931.87 1.931 1.931 0 1.06-.87 1.93-1.931 1.93a1.938 1.938 0 0 1-1.88-1.498h.974c.16.34.502.571.906.571a.996.996 0 0 0 1.003-1.003A.997.997 0 0 0 12 12.392c-.379 0-.7.205-.872.51h-.99A1.937 1.937 0 0 1 12 11.466Z" class="base"/></g><path fill="currentColor" d="M28.437 9.032c-.09-.28-.21-.53-.36-.752a2.303 2.303 0 0 0-1.237-.937 2.84 2.84 0 0 0-.863-.125c-.533 0-1.013.137-1.44.41-.429.275-.767.676-1.016 1.206-.247.526-.37 1.17-.37 1.934 0 .766.125 1.414.374 1.944.25.529.591.93 1.025 1.204.434.274.928.411 1.482.411.514 0 .962-.104 1.343-.313.385-.21.682-.505.891-.887.213-.385.319-.837.319-1.357l.37.07h-2.706v-1.178h3.716v1.076c0 .794-.17 1.483-.508 2.068a3.458 3.458 0 0 1-1.394 1.348c-.59.317-1.268.475-2.031.475-.856 0-1.607-.197-2.253-.59-.643-.395-1.145-.953-1.505-1.676-.36-.727-.54-1.588-.54-2.586 0-.754.105-1.43.314-2.03.21-.601.503-1.11.882-1.529.381-.422.83-.743 1.343-.965a4.205 4.205 0 0 1 1.694-.337c.511 0 .987.076 1.427.226.443.151.837.365 1.182.642A3.632 3.632 0 0 1 29.9 9.032h-1.464Zm6.284 6.611c-.698 0-1.3-.15-1.805-.448a3.037 3.037 0 0 1-1.163-1.27c-.27-.547-.406-1.189-.406-1.924 0-.727.135-1.367.406-1.92a3.155 3.155 0 0 1 1.145-1.298c.492-.31 1.068-.466 1.726-.466.4 0 .788.066 1.164.198.375.133.712.34 1.01.623.3.284.535.651.707 1.104.172.45.259.995.259 1.639v.489h-5.637v-1.034h4.284c0-.363-.074-.685-.222-.965a1.676 1.676 0 0 0-.623-.67 1.741 1.741 0 0 0-.932-.244c-.388 0-.727.095-1.016.286a1.922 1.922 0 0 0-.665.739c-.154.302-.23.63-.23.983v.808c0 .474.083.877.249 1.21.169.332.404.586.706.761.302.173.654.259 1.057.259.262 0 .5-.037.716-.111a1.484 1.484 0 0 0 .919-.9l1.306.235a2.367 2.367 0 0 1-.563 1.011 2.73 2.73 0 0 1-1.011.67 3.784 3.784 0 0 1-1.38.235Zm7.884-7.234v1.108h-3.873V8.409h3.873ZM39.771 6.71h1.38v6.708c0 .268.04.47.12.605.08.132.183.223.31.272.128.046.268.07.42.07.11 0 .207-.008.29-.024.083-.015.148-.027.194-.037l.25 1.14a2.31 2.31 0 0 1-.342.093 2.7 2.7 0 0 1-.554.055 2.429 2.429 0 0 1-1.016-.194 1.742 1.742 0 0 1-.762-.627c-.194-.284-.29-.639-.29-1.067V6.71Zm7.801 8.79V8.41h1.38v7.09h-1.38Zm.697-8.185a.878.878 0 0 1-.618-.24.78.78 0 0 1-.254-.582.77.77 0 0 1 .254-.581.869.869 0 0 1 .618-.245c.24 0 .445.081.614.245.173.16.259.354.259.581a.774.774 0 0 1-.259.582.861.861 0 0 1-.614.24Zm5.85 1.094v1.108h-3.873V8.409h3.874ZM51.286 6.71h1.38v6.708c0 .268.04.47.12.605.08.132.184.223.31.272.13.046.27.07.42.07.11 0 .208-.008.29-.024.084-.015.149-.027.195-.037l.249 1.14a2.702 2.702 0 0 1-.896.148 2.428 2.428 0 0 1-1.015-.194 1.742 1.742 0 0 1-.762-.627c-.194-.284-.29-.639-.29-1.067V6.71Zm11.177 1.7v1.107h-4.007V8.409h4.007Zm-2.909 7.09V7.587c0-.443.097-.81.291-1.103.194-.295.451-.515.771-.66a2.46 2.46 0 0 1 1.043-.222c.277 0 .514.023.711.07.197.043.344.083.439.12l-.323 1.117a6.577 6.577 0 0 0-.25-.065 1.42 1.42 0 0 0-.369-.041c-.335 0-.575.083-.72.249-.142.166-.212.406-.212.72V15.5h-1.38Zm4.333 0V8.41h1.334v1.126h.074c.13-.382.357-.682.683-.9.33-.222.702-.333 1.117-.333a5.903 5.903 0 0 1 .587.032v1.32a2.473 2.473 0 0 0-.296-.05 2.818 2.818 0 0 0-.425-.033 1.8 1.8 0 0 0-.872.208 1.544 1.544 0 0 0-.822 1.39v4.33h-1.38Zm7.722.143c-.665 0-1.245-.152-1.74-.457a3.082 3.082 0 0 1-1.154-1.279c-.274-.547-.411-1.188-.411-1.92 0-.736.137-1.379.41-1.93.275-.55.66-.979 1.155-1.283.495-.305 1.075-.457 1.74-.457s1.245.152 1.74.457c.496.304.88.732 1.155 1.283.274.551.41 1.194.41 1.93 0 .732-.136 1.373-.41 1.92a3.082 3.082 0 0 1-1.154 1.28c-.496.304-1.076.456-1.74.456Zm.005-1.159c.43 0 .788-.114 1.07-.341.284-.228.493-.531.629-.91.138-.378.207-.795.207-1.25 0-.453-.069-.869-.207-1.247a2.03 2.03 0 0 0-.628-.919c-.283-.23-.64-.346-1.071-.346-.434 0-.794.115-1.08.346-.284.23-.495.537-.633.919a3.677 3.677 0 0 0-.203 1.246c0 .456.068.873.203 1.251.138.379.35.682.632.91.287.227.647.341 1.08.341Zm4.841 1.016V8.41h1.325v1.153h.088c.148-.39.39-.695.725-.914.335-.221.737-.332 1.205-.332.474 0 .87.11 1.19.332.324.222.562.526.716.914h.074c.17-.378.439-.68.808-.905.37-.227.81-.341 1.32-.341.644 0 1.168.201 1.575.605.409.403.614 1.01.614 1.823V15.5h-1.38v-4.626c0-.48-.132-.828-.393-1.043a1.427 1.427 0 0 0-.937-.323c-.45 0-.8.138-1.048.415-.25.274-.374.627-.374 1.057v4.52h-1.376v-4.713c0-.385-.12-.694-.36-.928-.24-.234-.552-.351-.937-.351-.262 0-.503.07-.725.208a1.524 1.524 0 0 0-.53.567 1.74 1.74 0 0 0-.2.845V15.5h-1.38Z" class="tagline"/><path fill="currentColor" d="M90.716 15.5V6.045h6.453v1.856h-4.168v1.94h3.757v1.86h-3.757V15.5h-2.285Zm12.142-5.595v1.736h-4.376V9.905h4.376Zm5.089 5.595h-3.495V6.045h3.49c.963 0 1.793.19 2.488.568a3.882 3.882 0 0 1 1.616 1.625c.379.705.568 1.548.568 2.53 0 .985-.189 1.831-.568 2.54a3.888 3.888 0 0 1-1.611 1.629c-.699.375-1.528.563-2.488.563Zm-1.21-1.948h1.122c.529 0 .977-.09 1.343-.268.37-.182.648-.475.836-.882.191-.409.286-.954.286-1.634 0-.68-.095-1.222-.286-1.625a1.768 1.768 0 0 0-.845-.877c-.369-.182-.825-.272-1.367-.272h-1.089v5.558Zm7.211 1.948V8.41h2.193v1.292h.074c.129-.468.34-.816.632-1.044a1.6 1.6 0 0 1 1.02-.346c.105 0 .213.008.323.023.111.013.214.033.31.06v1.962a2.18 2.18 0 0 0-.425-.087 3.765 3.765 0 0 0-.462-.033c-.267 0-.509.06-.724.18-.213.117-.38.282-.504.494-.12.21-.18.456-.18.739v3.85h-2.257Zm8.413.134c-.744 0-1.384-.152-1.92-.457a3.161 3.161 0 0 1-1.233-1.284c-.286-.55-.429-1.189-.429-1.915 0-.73.143-1.368.429-1.916.29-.551.701-.979 1.233-1.284.536-.307 1.176-.461 1.92-.461.745 0 1.384.154 1.916.461.536.305.947.733 1.233 1.284.289.548.434 1.186.434 1.916 0 .726-.145 1.365-.434 1.915a3.11 3.11 0 0 1-1.233 1.284c-.532.305-1.171.457-1.916.457Zm.014-1.704c.271 0 .5-.083.688-.249.188-.166.331-.397.43-.692.101-.296.152-.637.152-1.025 0-.394-.051-.739-.152-1.034-.099-.296-.242-.527-.43-.693a1.001 1.001 0 0 0-.688-.25c-.28 0-.517.084-.711.25-.19.166-.337.397-.438.693-.099.295-.148.64-.148 1.034 0 .388.049.73.148 1.025.101.295.248.526.438.692.194.166.431.25.711.25Zm4.725 1.57V8.41h2.258v7.09H127.1Zm1.131-7.917c-.317 0-.589-.105-.817-.314a1.01 1.01 0 0 1-.341-.767.99.99 0 0 1 .341-.757c.228-.212.5-.318.817-.318.32 0 .593.106.817.318.228.21.342.462.342.757 0 .299-.114.554-.342.767-.224.21-.497.314-.817.314Zm5.153 8.019c-.523 0-.998-.136-1.426-.407-.428-.27-.769-.677-1.025-1.218-.255-.542-.383-1.215-.383-2.018 0-.834.132-1.52.397-2.059.265-.538.611-.937 1.039-1.195a2.654 2.654 0 0 1 1.389-.388c.373 0 .691.064.956.194.265.126.483.289.655.489.173.2.304.408.393.623h.046V6.045h2.257V15.5h-2.234v-1.15h-.069a2.24 2.24 0 0 1-.406.614c-.176.191-.396.345-.661.462a2.257 2.257 0 0 1-.928.176Zm.785-1.76c.274 0 .508-.076.702-.23.194-.157.343-.377.448-.66.104-.283.157-.616.157-.998a2.88 2.88 0 0 0-.157-1.001 1.384 1.384 0 0 0-.448-.646 1.11 1.11 0 0 0-.702-.227c-.28 0-.517.077-.711.231a1.43 1.43 0 0 0-.443.651c-.098.28-.148.61-.148.992s.051.715.153.998c.101.283.248.503.438.66.194.154.431.23.711.23Z" class="base"/><defs><linearGradient id="paint0_linear_2065_26" x1="144" x2="0" y1="10.5" y2="10.5" gradientUnits="userSpaceOnUse"><stop offset=".25" stop-color="#1B77D2"/><stop offset="1" stop-color="#B1EB0B"/></linearGradient><clipPath id="clip0_2065_26"><path fill="currentColor" d="M5 3.5h14v14H5z" class="base"/></clipPath></defs><style>.fill{color:#fff}.base{color:#000}.tagline{color:#1a1a1a}@media (prefers-color-scheme:dark){.fill{color:#000}.base{color:#fff}.tagline{color:#e8e8e8}}</style></svg>