<svg xmlns="http://www.w3.org/2000/svg" width="143" height="21" fill="none" viewBox="0 0 143 21"><rect width="141.8" height="19.8" x=".6" y=".6" fill="currentColor" class="fill" rx="4.4"/><rect width="141.8" height="19.8" x=".6" y=".6" stroke="url(#paint0_linear_2100_9)" stroke-width="1.2" rx="4.4"/><g clip-path="url(#clip0_2100_9)"><path fill="currentColor" fill-rule="evenodd" d="M13 6.229c-2.133 0-3.466 1.06-4 3.18.8-1.06 1.733-1.457 2.8-1.192.608.151 1.044.59 1.525 1.076C14.109 10.084 15.017 11 17 11c2.133 0 3.467-1.06 4-3.18-.8 1.06-1.733 1.457-2.8 1.192-.609-.151-1.044-.59-1.525-1.076C15.89 7.144 14.983 6.23 13 6.23ZM9 11c-2.133 0-3.467 1.06-4 3.181.8-1.06 1.733-1.458 2.8-1.193.609.151 1.044.59 1.525 1.076.785.791 1.692 1.707 3.675 1.707 2.133 0 3.467-1.06 4-3.18-.8 1.06-1.733 1.457-2.8 1.193-.608-.152-1.044-.59-1.525-1.077C11.891 11.918 10.983 11 9 11Z" class="base" clip-rule="evenodd"/></g><path fill="currentColor" d="M24.039 15.5V6.045H27.5c.671 0 1.226.111 1.667.333.44.218.769.515.988.89.218.373.327.793.327 1.261 0 .394-.072.726-.217.997a1.786 1.786 0 0 1-.581.647c-.24.16-.505.277-.794.35v.093c.314.015.62.117.918.305.302.184.551.447.748.789.197.341.296.757.296 1.246 0 .484-.114.918-.342 1.302-.225.382-.572.685-1.043.91-.471.221-1.073.332-1.805.332h-3.624Zm1.426-1.223h2.06c.682 0 1.172-.133 1.467-.397.296-.265.443-.596.443-.993 0-.299-.075-.572-.226-.822a1.616 1.616 0 0 0-.646-.595c-.277-.148-.606-.222-.988-.222h-2.11v3.029Zm0-4.141h1.911c.32 0 .608-.062.864-.185a1.51 1.51 0 0 0 .614-.517c.154-.225.23-.49.23-.794 0-.391-.136-.719-.41-.983-.274-.265-.694-.397-1.26-.397h-1.949v2.876Zm11.46 2.423V8.41h1.386V15.5h-1.358v-1.228h-.074a2.213 2.213 0 0 1-.784.946c-.357.25-.802.374-1.334.374-.456 0-.86-.1-1.21-.3a2.109 2.109 0 0 1-.822-.9c-.197-.397-.295-.888-.295-1.473V8.41h1.38v4.344c0 .483.134.868.402 1.154.267.287.615.43 1.043.43.259 0 .516-.065.771-.194.258-.13.472-.325.642-.587.172-.261.257-.593.254-.997Zm3.24 2.941V8.41h1.38v7.09h-1.38Zm.697-8.185a.877.877 0 0 1-.618-.24.78.78 0 0 1-.254-.582.77.77 0 0 1 .254-.581.868.868 0 0 1 .618-.245c.24 0 .445.081.614.245.173.16.259.354.259.581a.774.774 0 0 1-.259.582.861.861 0 0 1-.614.24Zm3.92-1.27V15.5h-1.38V6.045h1.38ZM49.95 8.41v1.108h-3.873V8.409h3.873ZM47.115 6.71h1.38v6.708c0 .268.04.47.12.605.08.132.184.223.31.272.13.046.27.07.42.07.11 0 .208-.008.29-.024.084-.015.149-.027.195-.037l.25 1.14a2.703 2.703 0 0 1-.896.148 2.428 2.428 0 0 1-1.016-.194 1.742 1.742 0 0 1-.762-.627c-.194-.284-.29-.639-.29-1.067V6.71Zm9.34 8.79-2.087-7.09h1.426l1.39 5.207h.07l1.393-5.208h1.427l1.385 5.184h.069l1.38-5.184h1.427L62.253 15.5h-1.408l-1.44-5.12h-.107l-1.44 5.12h-1.404Zm9.19 0V8.41h1.38v7.09h-1.38Zm.697-8.185a.877.877 0 0 1-.619-.24.78.78 0 0 1-.254-.582.77.77 0 0 1 .254-.581.868.868 0 0 1 .619-.245c.24 0 .445.081.614.245.172.16.258.354.258.581a.774.774 0 0 1-.258.582.862.862 0 0 1-.614.24Zm5.85 1.094v1.108h-3.873V8.409h3.873ZM69.358 6.71h1.38v6.708c0 .268.04.47.12.605.08.132.183.223.31.272.128.046.268.07.42.07.11 0 .207-.008.29-.024.083-.015.148-.027.194-.037l.25 1.14a2.703 2.703 0 0 1-.896.148 2.428 2.428 0 0 1-1.016-.194 1.742 1.742 0 0 1-.762-.627c-.194-.284-.29-.639-.29-1.067V6.71Zm5.894 4.58v4.21h-1.38V6.045h1.361v3.518h.088c.166-.381.42-.685.761-.91.342-.224.788-.336 1.34-.336.486 0 .91.1 1.273.3.367.2.65.498.85.895.203.394.305.887.305 1.478v4.51h-1.38v-4.344c0-.52-.135-.923-.402-1.21-.268-.289-.64-.434-1.118-.434-.326 0-.618.07-.877.208a1.498 1.498 0 0 0-.604.61c-.145.264-.217.584-.217.96Z" class="tagline"/><path fill="currentColor" d="M83.406 7.901V6.045h7.991v1.856H88.53V15.5h-2.252V7.901h-2.872Zm10.141 7.719c-.452 0-.854-.075-1.204-.226a1.877 1.877 0 0 1-.827-.693c-.2-.31-.3-.7-.3-1.168 0-.394.07-.726.208-.997.138-.27.33-.49.572-.66.244-.17.523-.297.84-.383.317-.09.656-.15 1.016-.18.403-.037.728-.075.974-.116.247-.043.425-.103.536-.18a.388.388 0 0 0 .17-.337v-.023c0-.237-.081-.42-.244-.549-.163-.13-.383-.194-.66-.194-.299 0-.539.065-.72.194a.854.854 0 0 0-.347.535l-2.082-.073c.062-.431.22-.816.476-1.155.258-.341.612-.609 1.062-.803.452-.197.995-.295 1.63-.295.452 0 .869.054 1.25.161a3.1 3.1 0 0 1 .997.462c.284.2.502.446.656.739.157.292.235.626.235 1.001v4.82h-2.123v-.988h-.056c-.126.24-.287.443-.484.61-.194.166-.424.29-.688.373a2.922 2.922 0 0 1-.886.125Zm.698-1.477c.243 0 .461-.05.655-.148.197-.098.354-.234.471-.406.117-.176.175-.379.175-.61v-.674a1.346 1.346 0 0 1-.235.093 5.259 5.259 0 0 1-.628.143l-.328.05a2.042 2.042 0 0 0-.544.158.86.86 0 0 0-.342.277.679.679 0 0 0-.115.397c0 .233.083.412.249.535.17.123.383.185.642.185Zm4.92 1.357V8.41h2.258v7.09h-2.257Zm1.132-7.917c-.317 0-.59-.105-.817-.314a1.01 1.01 0 0 1-.342-.767c0-.295.114-.547.342-.757.227-.212.5-.318.817-.318.32 0 .592.106.817.318.228.21.342.462.342.757 0 .299-.114.554-.342.767-.225.21-.497.314-.817.314Zm4.821-1.538V15.5h-2.258V6.045h2.258Zm2.761 9.455-1.846-7.09h2.266l.956 4.542h.06l1.025-4.543h2.211l1.053 4.51h.06l.928-4.51h2.266l-1.851 7.091h-2.414l-1.108-4.132h-.079l-1.108 4.132h-2.419Zm9.885 0V8.41h2.258v7.09h-2.258Zm1.131-7.917c-.317 0-.589-.105-.817-.314a1.013 1.013 0 0 1-.341-.767c0-.295.114-.547.341-.757.228-.212.5-.318.817-.318.32 0 .593.106.818.318.227.21.341.462.341.757 0 .299-.114.554-.341.767-.225.21-.498.314-.818.314Zm4.821 3.873V15.5h-2.257V8.41h2.146v1.3h.079c.157-.433.425-.773.803-1.02.379-.249.83-.373 1.353-.373.498 0 .931.112 1.297.337.369.221.655.532.859.932.206.397.307.862.304 1.394v4.52h-2.257v-4.076c.003-.394-.097-.702-.3-.924-.2-.221-.479-.332-.836-.332-.237 0-.446.052-.628.157a1.04 1.04 0 0 0-.415.439c-.096.19-.145.421-.148.692Zm8.572 4.146c-.523 0-.999-.136-1.427-.407-.427-.27-.769-.677-1.025-1.218-.255-.542-.383-1.215-.383-2.018 0-.834.133-1.52.397-2.059.265-.538.611-.937 1.039-1.195a2.655 2.655 0 0 1 1.39-.388c.372 0 .69.064.955.194.265.126.483.289.656.489.172.2.303.408.392.623h.046V6.045h2.258V15.5h-2.235v-1.15h-.069a2.217 2.217 0 0 1-.406.614c-.176.191-.396.345-.66.462a2.26 2.26 0 0 1-.928.176Zm.785-1.76c.274 0 .507-.076.701-.23.194-.157.343-.377.448-.66.105-.283.157-.616.157-.998 0-.387-.052-.721-.157-1.001a1.377 1.377 0 0 0-.448-.646 1.107 1.107 0 0 0-.701-.227c-.28 0-.517.077-.711.231a1.43 1.43 0 0 0-.444.651 3.01 3.01 0 0 0-.147.992c0 .382.051.715.152.998.102.283.248.503.439.66.194.154.431.23.711.23Z" class="base"/><defs><linearGradient id="paint0_linear_2100_9" x1="0" x2="143" y1="10.5" y2="10.5" gradientUnits="userSpaceOnUse"><stop stop-color="#38BDF8"/><stop offset="1" stop-color="#6366F1"/></linearGradient><clipPath id="clip0_2100_9"><path fill="currentColor" d="M5 3h16v16H5z" class="base"/></clipPath></defs><style>.fill{color:#fff}.base{color:#000}.tagline{color:#1a1a1a}@media (prefers-color-scheme:dark){.fill{color:#000}.base{color:#fff}.tagline{color:#e8e8e8}}</style></svg>