<svg xmlns="http://www.w3.org/2000/svg" width="147" height="21" fill="none" viewBox="0 0 147 21"><rect width="147" height="21" fill="currentColor" class="fill" rx="5"/><rect width="145.8" height="19.8" x=".6" y=".6" stroke="url(#paint0_linear_2072_83)" stroke-opacity=".88" stroke-width="1.2" rx="4.4"/><g clip-path="url(#clip0_2072_83)"><path fill="currentColor" d="M8.695 10.203a3.695 3.695 0 1 0 0-7.39 3.695 3.695 0 0 0 0 7.39ZM10.207 11.687H7.18c-.955 0-1.729.774-1.729 1.729v3.025c0 .955.774 1.73 1.73 1.73h3.025c.955 0 1.729-.775 1.729-1.73v-3.025c0-.955-.774-1.729-1.73-1.729ZM20.475 5.626l-.663-.382-3.814-2.202a1.05 1.05 0 0 0-1.575.91V9.12a1.05 1.05 0 0 0 1.575.91l4.477-2.584a1.05 1.05 0 0 0 0-1.82ZM20.252 14.946c0 .36-.289.648-.648.648h-5.186a.647.647 0 0 1-.649-.648c0-.36.29-.648.649-.648h5.186c.36 0 .648.289.648.648Zm-3.241-3.242c.359 0 .648.29.648.649v5.186a.647.647 0 1 1-1.297 0v-5.186c0-.36.29-.649.649-.649Z" class="base"/></g><path fill="currentColor" d="M30.437 9.032c-.09-.28-.21-.53-.36-.752a2.303 2.303 0 0 0-1.237-.937 2.84 2.84 0 0 0-.863-.125c-.533 0-1.013.137-1.44.41-.429.275-.767.676-1.016 1.206-.247.526-.37 1.17-.37 1.934 0 .766.125 1.414.374 1.944.25.529.591.93 1.025 1.204.434.274.928.411 1.482.411.514 0 .962-.104 1.343-.313.385-.21.682-.505.891-.887.213-.385.319-.837.319-1.357l.37.07h-2.706v-1.178h3.716v1.076c0 .794-.17 1.483-.508 2.068a3.458 3.458 0 0 1-1.394 1.348c-.59.317-1.268.475-2.031.475-.856 0-1.607-.197-2.253-.59-.643-.395-1.145-.953-1.505-1.676-.36-.727-.54-1.588-.54-2.586 0-.754.105-1.43.314-2.03.21-.601.503-1.11.882-1.529.381-.422.83-.743 1.343-.965a4.205 4.205 0 0 1 1.694-.337c.511 0 .987.076 1.427.226.443.151.837.365 1.182.642A3.632 3.632 0 0 1 31.9 9.032h-1.464Zm6.284 6.611c-.698 0-1.3-.15-1.805-.448a3.037 3.037 0 0 1-1.163-1.27c-.27-.547-.406-1.189-.406-1.924 0-.727.135-1.367.406-1.92a3.155 3.155 0 0 1 1.145-1.298c.492-.31 1.068-.466 1.726-.466.4 0 .788.066 1.164.198.375.133.712.34 1.01.623.3.284.535.651.707 1.104.172.45.259.995.259 1.639v.489h-5.637v-1.034h4.284c0-.363-.074-.685-.222-.965a1.676 1.676 0 0 0-.623-.67 1.741 1.741 0 0 0-.932-.244c-.388 0-.727.095-1.016.286a1.922 1.922 0 0 0-.665.739c-.154.302-.23.63-.23.983v.808c0 .474.083.877.249 1.21.169.332.404.586.706.761.302.173.654.259 1.057.259.262 0 .5-.037.716-.111a1.484 1.484 0 0 0 .919-.9l1.306.235a2.367 2.367 0 0 1-.563 1.011 2.73 2.73 0 0 1-1.011.67 3.784 3.784 0 0 1-1.38.235Zm7.884-7.234v1.108h-3.873V8.409h3.873ZM41.771 6.71h1.38v6.708c0 .268.04.47.12.605.08.132.183.223.31.272.128.046.268.07.42.07.11 0 .207-.008.29-.024.083-.015.148-.027.194-.037l.25 1.14a2.31 2.31 0 0 1-.342.093 2.7 2.7 0 0 1-.554.055 2.429 2.429 0 0 1-1.016-.194 1.742 1.742 0 0 1-.762-.627c-.194-.284-.29-.639-.29-1.067V6.71Zm7.801 8.79V8.41h1.38v7.09h-1.38Zm.697-8.185a.878.878 0 0 1-.618-.24.78.78 0 0 1-.254-.582.77.77 0 0 1 .254-.581.869.869 0 0 1 .618-.245c.24 0 .445.081.614.245.173.16.259.354.259.581a.774.774 0 0 1-.259.582.861.861 0 0 1-.614.24Zm5.85 1.094v1.108h-3.873V8.409h3.874ZM53.286 6.71h1.38v6.708c0 .268.04.47.12.605.08.132.184.223.31.272.13.046.27.07.42.07.11 0 .208-.008.29-.024.084-.015.149-.027.195-.037l.249 1.14a2.702 2.702 0 0 1-.896.148 2.428 2.428 0 0 1-1.015-.194 1.742 1.742 0 0 1-.762-.627c-.194-.284-.29-.639-.29-1.067V6.71Zm11.177 1.7v1.107h-4.007V8.409h4.007Zm-2.909 7.09V7.587c0-.443.097-.81.291-1.103.194-.295.451-.515.771-.66a2.46 2.46 0 0 1 1.043-.222c.277 0 .514.023.711.07.197.043.344.083.439.12l-.323 1.117a6.577 6.577 0 0 0-.25-.065 1.42 1.42 0 0 0-.369-.041c-.335 0-.575.083-.72.249-.142.166-.212.406-.212.72V15.5h-1.38Zm4.333 0V8.41h1.334v1.126h.074c.13-.382.357-.682.683-.9.33-.222.702-.333 1.117-.333a5.903 5.903 0 0 1 .587.032v1.32a2.473 2.473 0 0 0-.296-.05 2.818 2.818 0 0 0-.425-.033 1.8 1.8 0 0 0-.872.208 1.544 1.544 0 0 0-.822 1.39v4.33h-1.38Zm7.722.143c-.665 0-1.245-.152-1.74-.457a3.082 3.082 0 0 1-1.154-1.279c-.274-.547-.411-1.188-.411-1.92 0-.736.137-1.379.41-1.93.275-.55.66-.979 1.155-1.283.495-.305 1.075-.457 1.74-.457s1.245.152 1.74.457c.496.304.88.732 1.155 1.283.274.551.41 1.194.41 1.93 0 .732-.136 1.373-.41 1.92a3.082 3.082 0 0 1-1.154 1.28c-.496.304-1.076.456-1.74.456Zm.005-1.159c.43 0 .788-.114 1.07-.341.284-.228.493-.531.629-.91.138-.378.207-.795.207-1.25 0-.453-.069-.869-.207-1.247a2.03 2.03 0 0 0-.628-.919c-.283-.23-.64-.346-1.071-.346-.434 0-.794.115-1.08.346-.284.23-.495.537-.633.919a3.677 3.677 0 0 0-.203 1.246c0 .456.068.873.203 1.251.138.379.35.682.632.91.287.227.647.341 1.08.341Zm4.841 1.016V8.41h1.325v1.153h.088c.148-.39.39-.695.725-.914.335-.221.737-.332 1.205-.332.474 0 .87.11 1.19.332.324.222.562.526.716.914h.074c.17-.378.439-.68.808-.905.37-.227.81-.341 1.32-.341.644 0 1.168.201 1.575.605.409.403.614 1.01.614 1.823V15.5h-1.38v-4.626c0-.48-.132-.828-.393-1.043a1.427 1.427 0 0 0-.937-.323c-.45 0-.8.138-1.048.415-.25.274-.374.627-.374 1.057v4.52h-1.376v-4.713c0-.385-.12-.694-.36-.928-.24-.234-.552-.351-.937-.351-.262 0-.503.07-.725.208a1.524 1.524 0 0 0-.53.567 1.74 1.74 0 0 0-.2.845V15.5h-1.38Z" class="tagline"/><path fill="currentColor" d="M92.716 15.5V6.045h6.453v1.856h-4.168v1.94h3.757v1.86h-3.757V15.5h-2.285Zm9.861-9.455V15.5h-2.257V6.045h2.257Zm3.436 9.575c-.452 0-.854-.075-1.205-.226a1.88 1.88 0 0 1-.826-.693c-.2-.31-.3-.7-.3-1.168 0-.394.069-.726.208-.997.138-.27.329-.49.572-.66a2.69 2.69 0 0 1 .84-.383c.317-.09.656-.15 1.016-.18.403-.037.728-.075.974-.116.246-.043.425-.103.536-.18a.39.39 0 0 0 .17-.337v-.023c0-.237-.081-.42-.244-.549-.163-.13-.383-.194-.66-.194-.299 0-.539.065-.721.194a.855.855 0 0 0-.346.535l-2.082-.073c.062-.431.22-.816.476-1.155.258-.341.612-.609 1.061-.803.453-.197.996-.295 1.63-.295.452 0 .869.054 1.251.161.382.105.714.259.997.462.283.2.502.446.656.739.157.292.235.626.235 1.001v4.82h-2.123v-.988h-.056a1.94 1.94 0 0 1-1.172.983 2.926 2.926 0 0 1-.887.125Zm.697-1.477c.244 0 .462-.05.656-.148.197-.098.354-.234.471-.406.117-.176.175-.379.175-.61v-.674a1.332 1.332 0 0 1-.235.093 5.138 5.138 0 0 1-.628.143 21.77 21.77 0 0 1-.328.05 2.05 2.05 0 0 0-.545.158.863.863 0 0 0-.341.277.678.678 0 0 0-.116.397c0 .233.083.412.25.535.169.123.383.185.641.185Zm8.924-5.734v1.662h-4.473V8.409h4.473Zm-3.536-1.699h2.257v6.56c0 .139.022.251.065.337a.402.402 0 0 0 .198.18c.087.034.19.051.31.051.086 0 .177-.008.272-.023.099-.018.172-.034.222-.046l.341 1.63c-.107.03-.26.069-.457.115a3.797 3.797 0 0 1-.697.088c-.529.024-.983-.037-1.362-.185a1.767 1.767 0 0 1-.863-.702c-.197-.317-.292-.715-.286-1.195V6.71Zm7.098 4.746V15.5h-2.258V6.045h2.184v3.666h.078c.16-.437.422-.779.785-1.025.366-.246.814-.37 1.343-.37.499 0 .933.112 1.302.333.37.219.656.528.859.928.206.4.308.868.305 1.403v4.52h-2.258v-4.076c.003-.394-.095-.702-.295-.924-.2-.221-.482-.332-.845-.332-.237 0-.446.052-.628.157a1.076 1.076 0 0 0-.42.439c-.099.19-.149.421-.152.692Zm10.582.983V8.41h2.253V15.5h-2.152v-1.32h-.074a2.06 2.06 0 0 1-.803 1.034c-.375.252-.829.378-1.362.378-.483 0-.908-.11-1.274-.332a2.265 2.265 0 0 1-.854-.928c-.203-.4-.306-.868-.309-1.403v-4.52h2.257v4.076c.003.385.105.688.305.91.2.222.472.332.817.332.225 0 .426-.049.605-.148a1.09 1.09 0 0 0 .429-.438c.108-.194.162-.428.162-.702Zm3.689 3.061V6.045h2.258v3.578h.046c.092-.215.223-.423.392-.623.173-.2.391-.363.656-.49.268-.129.588-.193.96-.193.493 0 .953.129 1.381.388.43.258.778.657 1.043 1.195.265.539.397 1.225.397 2.06 0 .802-.128 1.475-.383 2.017-.253.541-.594.947-1.025 1.218-.428.271-.903.407-1.427.407a2.26 2.26 0 0 1-.928-.176 2.03 2.03 0 0 1-.66-.462 2.217 2.217 0 0 1-.406-.614h-.069v1.15h-2.235Zm2.212-3.546c0 .382.051.715.152.998.105.283.254.503.448.66.197.154.432.23.706.23.277 0 .513-.076.707-.23a1.43 1.43 0 0 0 .438-.66c.102-.283.152-.616.152-.998 0-.381-.05-.712-.152-.992a1.4 1.4 0 0 0-.438-.65 1.091 1.091 0 0 0-.707-.232c-.277 0-.512.076-.706.226-.194.151-.343.367-.448.647-.101.28-.152.614-.152 1.002Z" class="base"/><defs><linearGradient id="paint0_linear_2072_83" x1="0" x2="147" y1="10.5" y2="10.5" gradientUnits="userSpaceOnUse"><stop stop-color="#3E3947"/><stop offset="1" stop-color="#5C428A"/></linearGradient><clipPath id="clip0_2072_83"><path fill="currentColor" d="M5 2.5h16v16H5z" class="base"/></clipPath></defs><style>.fill{color:#fff}.base{color:#000}.tagline{color:#1a1a1a}@media (prefers-color-scheme:dark){.fill{color:#000}.base{color:#fff}.tagline{color:#e8e8e8}}</style></svg>