<svg xmlns="http://www.w3.org/2000/svg" width="177" height="21" fill="none"><g clip-path="url(#a)"><rect width="177" height="21" fill="#000" rx="5"/><g filter="url(#b)"><g clip-path="url(#c)"><path fill="url(#d)" d="M13.14 6.69h-.03l-.03.02-.01.02v.02l3.08 11.55a8 8 0 0 0 3.61-3.1L13.2 6.71l-.03-.02h-.03Z"/><path fill="#fff" d="M12.99 2.95A8 8 0 0 0 6.2 15.2l6.67-8.62c.05-.06.17-.06.21 0l6.67 8.62A8 8 0 0 0 13 2.95Z"/></g></g><g filter="url(#e)"><path fill="#E8E8E8" d="M31.9 9.12h-1.45a2.2 2.2 0 0 0-.86-1.4 2.39 2.39 0 0 0-.74-.38 2.87 2.87 0 0 0-2.31.29 2.8 2.8 0 0 0-1.02 1.2 4.58 4.58 0 0 0-.37 1.94c0 .77.12 1.42.37 1.95s.59.93 1.02 1.2a2.95 2.95 0 0 0 2.3.29c.28-.09.52-.2.74-.37a2.24 2.24 0 0 0 .87-1.39h1.44a3.85 3.85 0 0 1-1.3 2.3c-.33.28-.72.5-1.16.65a4.44 4.44 0 0 1-3.64-.35 4.07 4.07 0 0 1-1.5-1.68 5.71 5.71 0 0 1-.56-2.6c0-1 .19-1.87.56-2.6a4.04 4.04 0 0 1 3.7-2.25c.5 0 .97.07 1.4.21a3.7 3.7 0 0 1 2.04 1.64c.23.4.38.84.46 1.35Zm2.97 2.17v4.21h-1.38V6.05h1.36v3.51h.09c.16-.38.42-.68.76-.9a2.4 2.4 0 0 1 1.34-.34c.48 0 .9.1 1.27.3.37.2.65.5.85.9.2.39.3.88.3 1.47v4.51H38.1v-4.34c0-.52-.14-.93-.4-1.21a1.45 1.45 0 0 0-1.12-.44c-.33 0-.62.07-.88.21a1.5 1.5 0 0 0-.6.6c-.15.27-.22.6-.22.97Zm9.5 4.35c-.7 0-1.3-.15-1.81-.44-.5-.3-.9-.73-1.16-1.27a4.3 4.3 0 0 1-.41-1.93c0-.73.13-1.37.4-1.92.28-.55.66-.99 1.15-1.3a3.47 3.47 0 0 1 2.89-.27 2.82 2.82 0 0 1 1.72 1.73c.17.45.26 1 .26 1.64v.49h-5.64v-1.03h4.28c0-.37-.07-.69-.22-.97a1.67 1.67 0 0 0-1.55-.91c-.4 0-.73.1-1.02.28a2.03 2.03 0 0 0-.89 1.73v.8c0 .48.08.88.24 1.21.17.33.4.59.71.76a2 2 0 0 0 1.06.26c.26 0 .5-.03.71-.1a1.48 1.48 0 0 0 .92-.9l1.3.23a2.54 2.54 0 0 1-1.57 1.68c-.4.15-.86.23-1.38.23Zm7.55 0c-.68 0-1.27-.15-1.77-.46-.5-.32-.87-.75-1.13-1.3a4.32 4.32 0 0 1-.4-1.9c0-.71.13-1.35.4-1.9.28-.55.66-.99 1.15-1.3a3.2 3.2 0 0 1 1.74-.46c.54 0 1.02.1 1.44.3a2.51 2.51 0 0 1 1.49 2.08h-1.35a1.6 1.6 0 0 0-.5-.86 1.5 1.5 0 0 0-1.06-.36c-.38 0-.72.1-1 .3-.3.2-.52.5-.68.86a3.3 3.3 0 0 0-.24 1.31c0 .52.08.97.24 1.34.16.38.38.67.66.88.3.2.63.3 1.02.3.27 0 .5-.04.71-.14.22-.1.4-.24.54-.42.15-.18.26-.4.31-.65h1.35a2.58 2.58 0 0 1-1.45 2.08c-.42.2-.9.3-1.47.3Zm5.66-2.55v-1.68h.23l2.83-3h1.65l-3.22 3.42h-.22l-1.27 1.26Zm-1.27 2.41V6.05h1.38v9.45h-1.38Zm4.48 0-2.54-3.37.95-.96 3.29 4.33h-1.7Zm9.19.14a3.07 3.07 0 0 1-2.9-1.73 4.24 4.24 0 0 1-.4-1.92c0-.74.13-1.38.4-1.93a3.08 3.08 0 0 1 2.9-1.74 3 3 0 0 1 2.89 1.74c.28.55.41 1.2.41 1.93s-.13 1.37-.4 1.92a3.08 3.08 0 0 1-2.9 1.73Zm0-1.16c.43 0 .79-.11 1.07-.34a2 2 0 0 0 .63-.9c.14-.39.2-.8.2-1.26 0-.45-.06-.87-.2-1.24a2.03 2.03 0 0 0-.63-.92 1.64 1.64 0 0 0-1.07-.35c-.43 0-.8.12-1.08.35-.28.23-.5.53-.63.92-.14.37-.2.79-.2 1.24 0 .46.06.87.2 1.25s.35.68.63.91c.29.23.65.34 1.08.34Zm9.34-1.92V8.4h1.38v7.09h-1.36v-1.23h-.07a2.2 2.2 0 0 1-2.12 1.32 2.1 2.1 0 0 1-2.03-1.2c-.2-.4-.3-.89-.3-1.47V8.4h1.38v4.34c0 .49.14.87.4 1.16.27.28.62.43 1.05.43a1.7 1.7 0 0 0 1.41-.78c.17-.27.26-.6.26-1Zm6.54-4.15v1.1H82v-1.1h3.87Zm-2.83-1.7h1.38v6.7c0 .28.04.48.12.61a.6.6 0 0 0 .31.28 1.62 1.62 0 0 0 .71.05l.2-.05.24 1.14a2.7 2.7 0 0 1-1.91-.05 1.74 1.74 0 0 1-.76-.62 1.8 1.8 0 0 1-.29-1.07V6.71Zm10.79 8.93a3.07 3.07 0 0 1-2.9-1.73 4.24 4.24 0 0 1-.4-1.92c0-.74.13-1.38.4-1.93a3.08 3.08 0 0 1 2.9-1.74 3 3 0 0 1 2.89 1.74c.28.55.41 1.2.41 1.93s-.13 1.37-.4 1.92a3.08 3.08 0 0 1-2.9 1.73Zm0-1.16c.43 0 .8-.11 1.07-.34a2 2 0 0 0 .63-.9 3.75 3.75 0 0 0 .01-2.5 2.03 2.03 0 0 0-.64-.92 1.64 1.64 0 0 0-1.07-.35c-.43 0-.79.12-1.08.35-.28.23-.5.53-.63.92a3.81 3.81 0 0 0 0 2.49c.14.38.35.68.63.91.29.23.65.34 1.08.34Zm6.23-3.19v4.21h-1.38V8.4h1.32v1.16h.09c.16-.37.42-.67.76-.9.35-.23.8-.34 1.33-.34.48 0 .9.1 1.27.3.36.2.64.5.84.9.2.4.3.88.3 1.47v4.51h-1.38v-4.34c0-.52-.13-.92-.4-1.2a1.4 1.4 0 0 0-1.1-.45c-.32 0-.6.07-.86.21a1.5 1.5 0 0 0-.58.6 2 2 0 0 0-.21.97Z"/><path fill="#fff" d="M117.3 9.47h-2.31a2 2 0 0 0-.19-.64 1.56 1.56 0 0 0-.94-.8 2.14 2.14 0 0 0-.7-.11c-.46 0-.86.11-1.19.34-.33.22-.58.55-.76.97-.18.43-.27.94-.27 1.54 0 .63.1 1.16.27 1.58.19.42.44.74.77.96.32.21.71.32 1.16.32.25 0 .48-.04.7-.1a1.55 1.55 0 0 0 .94-.74c.1-.18.17-.39.2-.61l2.32.01a3.97 3.97 0 0 1-4.2 3.44c-.86 0-1.63-.19-2.3-.56a4.06 4.06 0 0 1-1.6-1.66c-.4-.72-.59-1.6-.59-2.64s.2-1.92.6-2.64a4 4 0 0 1 1.61-1.65 5.06 5.06 0 0 1 3.86-.32 3.55 3.55 0 0 1 2.18 1.8c.24.44.38.94.44 1.51Zm4.62 6.16c-.75 0-1.39-.15-1.92-.45a3.14 3.14 0 0 1-1.24-1.29 4.1 4.1 0 0 1-.43-1.91c0-.73.15-1.37.43-1.92.3-.55.7-.98 1.23-1.28a3.9 3.9 0 0 1 1.93-.46c.74 0 1.38.15 1.91.46.54.3.95.73 1.23 1.28.3.55.44 1.19.44 1.92 0 .72-.15 1.36-.44 1.91-.28.55-.7.98-1.23 1.29a3.8 3.8 0 0 1-1.91.45Zm0-1.7a1 1 0 0 0 .7-.25c.19-.17.33-.4.43-.7.1-.29.15-.63.15-1.02s-.05-.73-.15-1.03c-.1-.3-.24-.53-.43-.7a1 1 0 0 0-.7-.24c-.27 0-.5.08-.7.25-.2.16-.34.4-.44.69-.1.3-.15.64-.15 1.03 0 .4.05.73.15 1.03.1.3.25.52.44.7.2.16.43.24.7.24Zm7.32 1.67a2.62 2.62 0 0 1-2.45-1.62 4.73 4.73 0 0 1-.38-2.02c0-.83.13-1.52.4-2.06.26-.54.6-.94 1.03-1.2a2.65 2.65 0 0 1 2.35-.19 2.07 2.07 0 0 1 1.05 1.11h.04V6.05h2.26v9.45h-2.23v-1.15h-.07a1.97 1.97 0 0 1-1.07 1.08c-.26.11-.57.17-.93.17Zm.79-1.76c.27 0 .5-.07.7-.23.2-.16.34-.38.45-.66.1-.28.16-.61.16-1 0-.38-.06-.72-.16-1s-.25-.5-.45-.64a1.1 1.1 0 0 0-.7-.23c-.28 0-.52.08-.71.23-.2.15-.34.37-.44.65-.1.28-.15.61-.15 1 0 .38.05.7.15 1 .1.27.25.5.44.65.2.16.43.23.7.23Zm8.25 1.8a4 4 0 0 1-1.92-.44 3.1 3.1 0 0 1-1.23-1.26 4.17 4.17 0 0 1-.43-1.96c0-.73.14-1.37.43-1.92.29-.55.7-.98 1.22-1.28a4.08 4.08 0 0 1 3.25-.23 2.98 2.98 0 0 1 1.8 1.84c.16.45.25.96.25 1.55v.56h-6.16v-1.31h4.06c0-.24-.06-.46-.17-.64a1.16 1.16 0 0 0-.46-.44 1.3 1.3 0 0 0-.66-.16 1.35 1.35 0 0 0-1.15.62c-.12.2-.18.41-.19.66v1.33c0 .29.06.54.17.76.12.22.28.38.49.5.2.12.46.18.75.18.2 0 .38-.02.54-.08.16-.05.3-.14.42-.24a1 1 0 0 0 .26-.4l2.08.06c-.09.46-.28.87-.57 1.21-.3.35-.67.61-1.14.8-.47.19-1.02.28-1.64.28Zm4.52-.14V6.05h2.26v3.57h.05c.09-.21.22-.42.39-.62a2.03 2.03 0 0 1 1.61-.69 2.62 2.62 0 0 1 2.43 1.59c.26.54.4 1.23.4 2.06 0 .8-.13 1.47-.39 2.02a2.61 2.61 0 0 1-3.38 1.45 2.03 2.03 0 0 1-1.06-1.08h-.07v1.15h-2.24Zm2.21-3.55c0 .39.06.72.16 1s.25.5.44.66c.2.16.44.23.71.23.28 0 .51-.07.7-.23.2-.16.35-.38.44-.66.1-.28.16-.61.16-1 0-.38-.05-.7-.16-.99a1.4 1.4 0 0 0-.43-.65 1.1 1.1 0 0 0-.71-.23c-.28 0-.51.08-.7.23-.2.15-.35.36-.45.64a3 3 0 0 0-.16 1Zm9.42 3.68a4 4 0 0 1-1.92-.43c-.53-.3-.95-.72-1.23-1.26a4.17 4.17 0 0 1-.44-1.96c0-.73.15-1.37.44-1.92.29-.55.7-.98 1.22-1.28a4.14 4.14 0 0 1 3.25-.23 2.98 2.98 0 0 1 1.8 1.84c.16.45.25.96.25 1.55v.56h-6.17v-1.31h4.07c0-.24-.06-.46-.17-.64a1.17 1.17 0 0 0-.46-.44c-.2-.11-.41-.16-.66-.16a1.35 1.35 0 0 0-1.16.62c-.11.2-.17.41-.18.66v1.33c0 .29.06.54.17.76.11.22.28.38.49.5.2.12.46.18.74.18.2 0 .39-.02.55-.08.16-.05.3-.14.42-.24a1 1 0 0 0 .26-.4l2.08.06c-.1.46-.28.87-.57 1.21-.3.35-.67.61-1.14.8a4.4 4.4 0 0 1-1.64.28Zm4.52-.13V8.4h2.2v1.3h.07c.13-.47.34-.81.63-1.04.3-.23.63-.35 1.02-.35a2.33 2.33 0 0 1 .63.09v1.96a3.77 3.77 0 0 0-.89-.12c-.26 0-.5.06-.72.18a1.2 1.2 0 0 0-.5.5c-.12.2-.18.45-.18.73v3.85h-2.26Zm8.41 2.8c-.67 0-1.25-.09-1.73-.27a2.73 2.73 0 0 1-1.13-.78c-.28-.32-.44-.7-.5-1.1l2.14-.12c.04.14.12.27.22.37.11.11.26.2.43.25.18.06.39.1.63.1.38 0 .7-.1.94-.29.25-.18.37-.5.37-.95v-1.25h-.08a1.67 1.67 0 0 1-1.08.99 2.87 2.87 0 0 1-2.35-.21 2.61 2.61 0 0 1-1.03-1.12 4.4 4.4 0 0 1-.38-1.97c0-.83.13-1.51.4-2.05.26-.54.6-.94 1.03-1.2a2.65 2.65 0 0 1 2.35-.19c.27.13.49.29.66.49.17.2.3.4.4.62h.06V8.41h2.25v7.12c0 .6-.16 1.1-.46 1.52-.3.4-.72.72-1.26.93-.54.22-1.17.33-1.88.33Zm.07-4.54c.27 0 .5-.07.7-.22.2-.14.34-.35.45-.62.1-.27.16-.6.16-.97 0-.39-.06-.72-.16-1s-.25-.5-.45-.64a1.1 1.1 0 0 0-.7-.23c-.28 0-.52.08-.71.23-.2.15-.34.37-.44.65-.1.28-.15.6-.15.99 0 .37.05.7.15.97.1.27.25.48.44.62.2.15.43.22.7.22Z"/></g></g><rect width="175.8" height="19.8" x=".6" y=".6" stroke="url(#f)" stroke-opacity=".88" stroke-width="1.2" rx="4.4"/><defs><linearGradient id="d" x1="13.14" x2="18.28" y1="6.69" y2="16.95" gradientUnits="userSpaceOnUse"><stop stop-color="#fff" stop-opacity="0"/><stop offset=".5" stop-color="#fff" stop-opacity=".3"/><stop offset="1" stop-color="#fff" stop-opacity=".3"/></linearGradient><linearGradient id="f" x1="0" x2="177" y1="10.5" y2="10.5" gradientUnits="userSpaceOnUse"><stop stop-color="#4793CC"/><stop offset="1" stop-color="#21716D"/></linearGradient><clipPath id="a"><rect width="177" height="21" fill="#fff" rx="5"/></clipPath><clipPath id="c"><path fill="#fff" d="M5 2.5h16v16H5z"/></clipPath><filter id="b" width="27.2" height="27.2" x="-.6" y="-3.1" color-interpolation-filters="sRGB" filterUnits="userSpaceOnUse"><feFlood flood-opacity="0" result="BackgroundImageFix"/><feColorMatrix in="SourceAlpha" result="hardAlpha" values="0 0 0 0 0 0 0 0 0 0 0 0 0 0 0 0 0 0 127 0"/><feOffset/><feGaussianBlur stdDeviation="2.8"/><feComposite in2="hardAlpha" operator="out"/><feColorMatrix values="0 0 0 0 0 0 0 0 0 0 0 0 0 0 0 0 0 0 0.25 0"/><feBlend in2="BackgroundImageFix" result="effect1_dropShadow_2040_175"/><feBlend in="SourceGraphic" in2="effect1_dropShadow_2040_175" result="shape"/></filter><filter id="e" width="160.43" height="27.43" x="17.29" y="-3.21" color-interpolation-filters="sRGB" filterUnits="userSpaceOnUse"><feFlood flood-opacity="0" result="BackgroundImageFix"/><feColorMatrix in="SourceAlpha" result="hardAlpha" values="0 0 0 0 0 0 0 0 0 0 0 0 0 0 0 0 0 0 127 0"/><feOffset/><feGaussianBlur stdDeviation="2.86"/><feComposite in2="hardAlpha" operator="out"/><feColorMatrix values="0 0 0 0 0 0 0 0 0 0 0 0 0 0 0 0 0 0 0.25 0"/><feBlend in2="BackgroundImageFix" result="effect1_dropShadow_2040_175"/><feBlend in="SourceGraphic" in2="effect1_dropShadow_2040_175" result="shape"/></filter></defs></svg>