<svg xmlns="http://www.w3.org/2000/svg" width="180" height="21" fill="none" viewBox="0 0 180 21"><rect width="180" height="21" fill="currentColor" class="fill" rx="5"/><rect width="178.8" height="19.8" x=".6" y=".6" stroke="url(#paint0_linear_2040_152)" stroke-opacity=".88" stroke-width="1.2" rx="4.4"/><g clip-path="url(#clip0_2040_152)"><path fill="url(#paint1_linear_2040_152)" d="M13.137 6.686a.09.09 0 0 0-.03.006.07.07 0 0 0-.023.014.05.05 0 0 0-.014.02.04.04 0 0 0-.001.022L16.15 18.3a8 8 0 0 0 3.614-3.098l-6.568-8.49a.064.064 0 0 0-.025-.019.09.09 0 0 0-.035-.007Z"/><path fill="currentColor" d="M12.986 2.953A8 8 0 0 0 6.208 15.2l6.67-8.623c.048-.062.168-.062.216 0l6.67 8.624a8 8 0 0 0-6.778-12.25Z" class="base"/></g><path fill="currentColor" d="M31.891 9.12h-1.44a2.202 2.202 0 0 0-.863-1.408 2.387 2.387 0 0 0-.734-.37A2.866 2.866 0 0 0 28 7.219a2.67 2.67 0 0 0-1.464.41c-.428.275-.766.676-1.015 1.206-.247.53-.37 1.175-.37 1.939 0 .77.123 1.418.37 1.948.249.53.589.93 1.02 1.2.43.271.915.406 1.454.406.299 0 .582-.04.85-.12.27-.083.515-.204.733-.364a2.212 2.212 0 0 0 .873-1.39l1.44.005a3.855 3.855 0 0 1-.447 1.283 3.54 3.54 0 0 1-.845 1.007c-.342.28-.733.497-1.173.65-.44.154-.92.231-1.44.231-.819 0-1.548-.194-2.188-.581-.64-.391-1.145-.95-1.515-1.676-.366-.726-.549-1.593-.549-2.6 0-1.009.185-1.875.554-2.598.37-.727.874-1.284 1.514-1.672.64-.39 1.368-.586 2.184-.586.502 0 .97.073 1.403.217.437.142.83.351 1.177.628.348.274.636.61.864 1.006.227.394.381.845.461 1.353Zm4.583 6.523c-.664 0-1.245-.152-1.74-.457a3.082 3.082 0 0 1-1.154-1.279c-.274-.547-.411-1.188-.411-1.92 0-.736.137-1.379.41-1.93.275-.55.66-.979 1.155-1.283.495-.305 1.076-.457 1.74-.457.665 0 1.245.152 1.74.457.496.304.881.732 1.155 1.283.274.551.41 1.194.41 1.93 0 .732-.136 1.373-.41 1.92a3.082 3.082 0 0 1-1.154 1.28c-.496.304-1.076.456-1.74.456Zm.005-1.159c.43 0 .788-.114 1.071-.341.283-.228.492-.531.628-.91.138-.378.208-.795.208-1.25 0-.453-.07-.869-.208-1.247a2.03 2.03 0 0 0-.628-.919c-.283-.23-.64-.346-1.071-.346-.434 0-.794.115-1.08.346-.283.23-.494.537-.633.919a3.677 3.677 0 0 0-.203 1.246c0 .456.068.873.203 1.251.139.379.35.682.633.91.286.227.646.341 1.08.341Zm6.222-3.194v4.21h-1.38V8.41h1.324v1.153h.088c.163-.375.419-.677.767-.905.35-.227.792-.341 1.324-.341.484 0 .907.101 1.27.304.363.2.645.499.845.896.2.397.3.888.3 1.473v4.51h-1.38v-4.344c0-.514-.134-.916-.402-1.205-.268-.292-.636-.439-1.104-.439-.32 0-.604.07-.854.208a1.493 1.493 0 0 0-.586.61c-.141.264-.212.584-.212.96ZM52.4 8.41v1.107h-3.873V8.409H52.4Zm-2.834-1.7h1.38v6.708c0 .268.04.47.12.605.08.132.183.223.31.272.128.046.269.07.42.07.11 0 .207-.008.29-.024.083-.015.148-.027.194-.037l.25 1.14a2.703 2.703 0 0 1-.896.148 2.428 2.428 0 0 1-1.016-.194 1.742 1.742 0 0 1-.762-.627c-.194-.284-.29-.639-.29-1.067V6.71Zm4.36 8.79V8.41h1.335v1.126h.074c.13-.382.357-.682.683-.9.33-.222.702-.333 1.117-.333a5.907 5.907 0 0 1 .587.032v1.32a2.473 2.473 0 0 0-.296-.05 2.818 2.818 0 0 0-.425-.033c-.326 0-.617.07-.872.208a1.544 1.544 0 0 0-.822 1.39v4.33h-1.38Zm4.99 0V8.41h1.38v7.09h-1.38Zm.697-8.185a.877.877 0 0 1-.618-.24.78.78 0 0 1-.254-.582.77.77 0 0 1 .254-.581.868.868 0 0 1 .618-.245c.24 0 .445.081.614.245.173.16.259.354.259.581a.774.774 0 0 1-.259.582.862.862 0 0 1-.614.24Zm2.651 8.185V6.045h1.38V9.56h.084c.08-.148.195-.319.346-.513.15-.194.36-.363.628-.508.267-.147.621-.221 1.062-.221a2.77 2.77 0 0 1 1.532.434c.45.289.802.706 1.057 1.25.259.546.388 1.201.388 1.967 0 .767-.127 1.424-.383 1.972-.255.544-.606.965-1.053 1.26a2.725 2.725 0 0 1-1.528.439c-.43 0-.783-.073-1.057-.217a2 2 0 0 1-.637-.508 3.844 3.844 0 0 1-.355-.517h-.116V15.5h-1.348Zm1.353-3.546c0 .5.072.936.217 1.312.144.375.354.669.628.881.274.21.61.314 1.006.314.412 0 .757-.109 1.034-.328.277-.221.487-.521.628-.9a3.56 3.56 0 0 0 .217-1.279c0-.467-.07-.887-.212-1.26a1.929 1.929 0 0 0-.628-.882c-.277-.215-.623-.323-1.039-.323-.4 0-.739.103-1.016.31a1.899 1.899 0 0 0-.623.863c-.141.37-.212.8-.212 1.292Zm11.166.605V8.41h1.385V15.5h-1.357v-1.228h-.074a2.213 2.213 0 0 1-.785.946c-.357.25-.802.374-1.334.374-.456 0-.859-.1-1.21-.3a2.109 2.109 0 0 1-.821-.9c-.197-.397-.296-.888-.296-1.473V8.41h1.38v4.344c0 .483.134.868.402 1.154.268.287.616.43 1.044.43.258 0 .515-.065.77-.194.259-.13.473-.325.642-.587.172-.261.257-.593.254-.997Zm6.55-4.15v1.108h-3.874V8.409h3.874ZM78.498 6.71h1.38v6.708c0 .268.04.47.12.605.08.132.184.223.31.272.129.046.27.07.42.07.11 0 .208-.008.29-.024.084-.015.148-.027.195-.037l.249 1.14a2.702 2.702 0 0 1-.896.148 2.428 2.428 0 0 1-1.015-.194 1.742 1.742 0 0 1-.762-.627c-.194-.284-.29-.639-.29-1.067V6.71Zm7.341 8.933c-.698 0-1.3-.15-1.805-.448a3.038 3.038 0 0 1-1.163-1.27c-.27-.547-.406-1.189-.406-1.924 0-.727.135-1.367.406-1.92a3.154 3.154 0 0 1 1.145-1.298c.492-.31 1.068-.466 1.727-.466.4 0 .787.066 1.163.198.375.133.712.34 1.01.623.3.284.535.651.707 1.104.173.45.259.995.259 1.639v.489h-5.637v-1.034h4.284c0-.363-.074-.685-.221-.965a1.675 1.675 0 0 0-.624-.67 1.741 1.741 0 0 0-.932-.244c-.388 0-.727.095-1.016.286a1.92 1.92 0 0 0-.665.739c-.153.302-.23.63-.23.983v.808c0 .474.083.877.249 1.21.17.332.404.586.706.761.302.173.654.259 1.057.259.262 0 .5-.037.716-.111a1.485 1.485 0 0 0 .919-.9l1.306.235a2.366 2.366 0 0 1-.563 1.011c-.268.287-.605.51-1.011.67a3.785 3.785 0 0 1-1.38.235Zm11.002 0c-.665 0-1.245-.152-1.74-.457a3.082 3.082 0 0 1-1.155-1.279c-.274-.547-.41-1.188-.41-1.92 0-.736.136-1.379.41-1.93.274-.55.659-.979 1.154-1.283.496-.305 1.076-.457 1.74-.457.665 0 1.245.152 1.74.457.496.304.881.732 1.155 1.283.274.551.411 1.194.411 1.93 0 .732-.137 1.373-.41 1.92a3.082 3.082 0 0 1-1.155 1.28c-.496.304-1.076.456-1.74.456Zm.004-1.159c.431 0 .788-.114 1.071-.341.283-.228.493-.531.628-.91.139-.378.208-.795.208-1.25 0-.453-.07-.869-.208-1.247a2.03 2.03 0 0 0-.628-.919c-.283-.23-.64-.346-1.07-.346-.435 0-.795.115-1.081.346-.283.23-.494.537-.633.919a3.677 3.677 0 0 0-.203 1.246c0 .456.068.873.203 1.251.139.379.35.682.633.91.286.227.646.341 1.08.341Zm6.222-3.194v4.21h-1.38V8.41h1.325v1.153h.087c.163-.375.419-.677.767-.905.351-.227.792-.341 1.325-.341.483 0 .906.101 1.269.304.363.2.645.499.845.896.2.397.3.888.3 1.473v4.51h-1.38v-4.344c0-.514-.134-.916-.402-1.205-.268-.292-.635-.439-1.103-.439-.32 0-.605.07-.854.208a1.493 1.493 0 0 0-.587.61c-.141.264-.212.584-.212.96Z" class="tagline"/><path fill="currentColor" d="M120.298 9.47h-2.309a1.99 1.99 0 0 0-.189-.64 1.555 1.555 0 0 0-.937-.8 2.137 2.137 0 0 0-.706-.11c-.459 0-.854.112-1.187.337-.329.224-.583.55-.762.974-.175.425-.263.938-.263 1.542 0 .628.09 1.154.268 1.579.182.421.436.74.762.955.329.213.718.319 1.168.319a2.3 2.3 0 0 0 .688-.097 1.69 1.69 0 0 0 .549-.282c.16-.126.291-.278.392-.457.105-.181.177-.386.217-.614l2.309.014a3.5 3.5 0 0 1-.365 1.237c-.2.406-.476.777-.826 1.113a3.906 3.906 0 0 1-1.284.794c-.502.197-1.077.295-1.726.295-.856 0-1.622-.188-2.299-.563-.674-.379-1.207-.93-1.598-1.653s-.586-1.603-.586-2.64c0-1.04.198-1.922.595-2.646.398-.723.935-1.272 1.612-1.648.677-.375 1.435-.563 2.276-.563.572 0 1.101.08 1.588.24.486.157.914.388 1.283.693.369.301.669.672.9 1.112.231.44.374.944.43 1.51Zm4.617 6.164c-.745 0-1.385-.152-1.92-.457a3.148 3.148 0 0 1-1.233-1.284c-.286-.55-.429-1.189-.429-1.915 0-.73.143-1.368.429-1.916.289-.551.7-.979 1.233-1.284.535-.307 1.175-.461 1.92-.461.745 0 1.384.154 1.916.461a3.08 3.08 0 0 1 1.233 1.284c.289.548.434 1.186.434 1.916 0 .726-.145 1.365-.434 1.915a3.117 3.117 0 0 1-1.233 1.284c-.532.305-1.171.457-1.916.457Zm.014-1.704c.271 0 .5-.083.688-.249.188-.166.331-.397.429-.692.102-.296.153-.637.153-1.025 0-.394-.051-.739-.153-1.034-.098-.296-.241-.527-.429-.693a1.001 1.001 0 0 0-.688-.25c-.28 0-.517.084-.711.25a1.564 1.564 0 0 0-.438.693c-.099.295-.148.64-.148 1.034 0 .388.049.73.148 1.025.101.295.247.526.438.692.194.166.431.25.711.25Zm7.315 1.672c-.523 0-.999-.136-1.427-.407-.427-.27-.769-.677-1.025-1.218-.255-.542-.383-1.215-.383-2.018 0-.834.133-1.52.397-2.059.265-.538.611-.937 1.039-1.195a2.655 2.655 0 0 1 1.39-.388c.372 0 .691.064.955.194.265.126.483.289.656.489.172.2.303.408.392.623h.046V6.045h2.258V15.5h-2.235v-1.15h-.069a2.217 2.217 0 0 1-.406.614c-.176.191-.396.345-.66.462a2.26 2.26 0 0 1-.928.176Zm.785-1.76c.274 0 .507-.076.701-.23.194-.157.344-.377.448-.66.105-.283.157-.616.157-.998 0-.387-.052-.721-.157-1.001a1.377 1.377 0 0 0-.448-.646 1.107 1.107 0 0 0-.701-.227c-.28 0-.517.077-.711.231-.194.154-.342.37-.443.651-.099.28-.148.61-.148.992s.051.715.152.998c.102.283.248.503.439.66.194.154.431.23.711.23Zm8.255 1.792c-.742 0-1.382-.146-1.92-.439a3.036 3.036 0 0 1-1.238-1.26c-.286-.548-.429-1.199-.429-1.953 0-.732.145-1.372.434-1.92.289-.551.697-.979 1.223-1.284.527-.307 1.147-.461 1.861-.461.505 0 .966.078 1.385.235.418.157.78.39 1.085.697.304.308.541.688.711 1.14.169.45.253.965.253 1.547v.563h-6.163v-1.31h4.063a1.27 1.27 0 0 0-.171-.643 1.16 1.16 0 0 0-.457-.438 1.32 1.32 0 0 0-.66-.162 1.35 1.35 0 0 0-.679.171 1.283 1.283 0 0 0-.66 1.108v1.334c0 .29.057.543.171.762.114.216.275.383.485.503.209.12.458.18.748.18.2 0 .381-.027.544-.083.163-.055.303-.137.42-.244.117-.108.205-.24.264-.397l2.072.06c-.086.464-.275.869-.567 1.214-.29.341-.67.607-1.141.798-.471.188-1.015.282-1.634.282Zm4.518-.134V6.045h2.258v3.578h.046c.092-.215.223-.423.392-.623.173-.2.391-.363.656-.49.268-.129.588-.193.96-.193.493 0 .953.129 1.381.388.43.258.778.657 1.043 1.195.265.539.397 1.225.397 2.06 0 .802-.128 1.475-.383 2.017-.253.541-.594.947-1.025 1.218-.428.271-.903.407-1.427.407a2.26 2.26 0 0 1-.928-.176 2.03 2.03 0 0 1-.66-.462 2.217 2.217 0 0 1-.406-.614h-.069v1.15h-2.235Zm2.212-3.546c0 .382.051.715.152.998.105.283.254.503.448.66.197.154.432.23.706.23.277 0 .513-.076.707-.23a1.43 1.43 0 0 0 .438-.66c.102-.283.152-.616.152-.998 0-.381-.05-.712-.152-.992a1.4 1.4 0 0 0-.438-.65 1.091 1.091 0 0 0-.707-.232c-.277 0-.512.076-.706.226-.194.151-.343.367-.448.647-.101.28-.152.614-.152 1.002Zm9.418 3.68c-.741 0-1.381-.146-1.92-.439a3.033 3.033 0 0 1-1.237-1.26c-.286-.548-.43-1.199-.43-1.953 0-.732.145-1.372.434-1.92a3.14 3.14 0 0 1 1.224-1.284c.526-.307 1.146-.461 1.86-.461.505 0 .967.078 1.385.235.419.157.78.39 1.085.697.305.308.542.688.711 1.14.169.45.254.965.254 1.547v.563h-6.163v-1.31h4.062a1.279 1.279 0 0 0-.17-.643 1.167 1.167 0 0 0-.457-.438 1.32 1.32 0 0 0-.661-.162c-.252 0-.478.057-.678.171a1.282 1.282 0 0 0-.66 1.108v1.334c0 .29.057.543.17.762.114.216.276.383.485.503.209.12.459.18.748.18.2 0 .382-.027.545-.083.163-.055.303-.137.42-.244.117-.108.205-.24.263-.397l2.073.06c-.086.464-.276.869-.568 1.214a2.873 2.873 0 0 1-1.14.798c-.471.188-1.016.282-1.635.282Zm4.519-.134V8.41h2.193v1.292h.074c.129-.468.34-.816.632-1.044.292-.23.632-.346 1.02-.346.105 0 .213.008.323.023.111.013.214.033.31.06v1.962a2.18 2.18 0 0 0-.425-.087 3.765 3.765 0 0 0-.462-.033c-.267 0-.509.06-.724.18a1.29 1.29 0 0 0-.504.494c-.12.21-.18.456-.18.739v3.85h-2.257Zm8.409 2.807c-.674 0-1.251-.094-1.731-.282-.481-.188-.858-.444-1.131-.77a2.13 2.13 0 0 1-.494-1.109l2.137-.12c.04.145.114.271.222.379.11.107.254.19.429.25.178.058.388.087.628.087.378 0 .691-.093.937-.277.249-.182.374-.5.374-.956v-1.246h-.079a1.67 1.67 0 0 1-.406.586 1.927 1.927 0 0 1-.678.406 2.67 2.67 0 0 1-.924.148c-.517 0-.991-.12-1.422-.36-.427-.243-.771-.619-1.029-1.127-.256-.51-.383-1.167-.383-1.97 0-.829.132-1.51.397-2.046.264-.538.611-.937 1.038-1.195a2.655 2.655 0 0 1 1.39-.388c.372 0 .691.064.956.194.267.126.487.289.66.489.172.2.303.408.392.623h.065V8.41h2.248v7.119c0 .6-.151 1.106-.452 1.519-.302.412-.724.724-1.265.937-.542.215-1.168.323-1.879.323Zm.069-4.547c.274 0 .508-.073.702-.217a1.37 1.37 0 0 0 .448-.624 2.72 2.72 0 0 0 .156-.974c0-.384-.052-.715-.156-.992a1.384 1.384 0 0 0-.448-.646 1.11 1.11 0 0 0-.702-.227c-.28 0-.517.077-.711.231-.194.154-.342.37-.443.651a2.926 2.926 0 0 0-.148.983c0 .379.051.704.153.974.101.271.247.479.438.624.194.144.431.217.711.217Z" class="base"/><defs><linearGradient id="paint0_linear_2040_152" x1="0" x2="180" y1="10.5" y2="10.5" gradientUnits="userSpaceOnUse"><stop stop-color="#4793CC"/><stop offset="1" stop-color="#21716D"/></linearGradient><linearGradient id="paint1_linear_2040_152" x1="13.137" x2="18.28" y1="6.686" y2="16.951" gradientUnits="userSpaceOnUse"><stop class="base" stop-color="currentColor" stop-opacity="0"/><stop class="base" offset=".495" stop-color="currentColor" stop-opacity=".3"/><stop class="base" offset="1" stop-color="currentColor" stop-opacity=".3"/></linearGradient><clipPath id="clip0_2040_152"><path fill="currentColor" d="M5 2.5h16v16H5z" class="base"/></clipPath></defs><style>.fill{color:#fff}.base{color:#000}.tagline{color:#1a1a1a}@media (prefers-color-scheme:dark){.fill{color:#000}.base{color:#fff}.tagline{color:#e8e8e8}}</style></svg>