<svg xmlns="http://www.w3.org/2000/svg" width="141" height="21" fill="none" viewBox="0 0 141 21"><rect width="141" height="21" fill="currentColor" class="fill" rx="5"/><rect width="139.8" height="19.8" x=".6" y=".6" stroke="url(#paint0_linear_2038_104)" stroke-opacity=".88" stroke-width="1.2" rx="4.4"/><g clip-path="url(#clip0_2038_104)"><path fill="url(#paint1_linear_2038_104)" d="M13.137 6.686a.09.09 0 0 0-.03.006.07.07 0 0 0-.023.014.05.05 0 0 0-.014.02.04.04 0 0 0-.001.022L16.15 18.3a8 8 0 0 0 3.614-3.098l-6.568-8.49a.064.064 0 0 0-.025-.019.09.09 0 0 0-.035-.007Z"/><path fill="currentColor" d="M12.986 2.953A8 8 0 0 0 6.208 15.2l6.67-8.623c.048-.062.168-.062.216 0l6.67 8.624a8 8 0 0 0-6.778-12.25Z" class="base"/></g><path fill="currentColor" d="M24.039 15.5V6.045h5.863v1.228h-4.437v2.881h4.017v1.223h-4.017V15.5H24.04Zm9.972.143c-.664 0-1.245-.152-1.74-.457a3.082 3.082 0 0 1-1.154-1.279c-.274-.547-.41-1.188-.41-1.92 0-.736.136-1.379.41-1.93.274-.55.659-.979 1.154-1.283.495-.305 1.076-.457 1.74-.457.665 0 1.245.152 1.74.457.496.304.881.732 1.155 1.283.274.551.41 1.194.41 1.93 0 .732-.136 1.373-.41 1.92a3.082 3.082 0 0 1-1.154 1.28c-.496.304-1.076.456-1.74.456Zm.005-1.159c.43 0 .788-.114 1.071-.341.283-.228.492-.531.628-.91.138-.378.208-.795.208-1.25 0-.453-.07-.869-.208-1.247a2.03 2.03 0 0 0-.628-.919c-.283-.23-.64-.346-1.07-.346-.435 0-.795.115-1.081.346-.283.23-.494.537-.633.919a3.674 3.674 0 0 0-.203 1.246c0 .456.068.873.203 1.251.139.379.35.682.633.91.286.227.646.341 1.08.341Zm4.842 1.016V8.41h1.334v1.126h.074c.129-.382.357-.682.683-.9.33-.222.702-.333 1.117-.333a5.903 5.903 0 0 1 .586.032v1.32a2.47 2.47 0 0 0-.295-.05 2.82 2.82 0 0 0-.425-.033 1.8 1.8 0 0 0-.872.208 1.543 1.543 0 0 0-.822 1.39v4.33h-1.38Zm6.258-2.405-.009-1.685h.24l2.825-3h1.653l-3.222 3.415h-.217l-1.27 1.27Zm-1.27 2.405V6.045h1.381V15.5h-1.38Zm4.479 0-2.54-3.37.952-.965 3.282 4.335h-1.694Zm9.185.143c-.664 0-1.244-.152-1.74-.457a3.082 3.082 0 0 1-1.154-1.279c-.274-.547-.41-1.188-.41-1.92 0-.736.136-1.379.41-1.93.274-.55.659-.979 1.154-1.283.496-.305 1.076-.457 1.74-.457.665 0 1.245.152 1.74.457.496.304.881.732 1.155 1.283.274.551.41 1.194.41 1.93 0 .732-.136 1.373-.41 1.92a3.082 3.082 0 0 1-1.154 1.28c-.496.304-1.076.456-1.74.456Zm.005-1.159c.431 0 .788-.114 1.071-.341.283-.228.492-.531.628-.91.138-.378.208-.795.208-1.25 0-.453-.07-.869-.208-1.247a2.03 2.03 0 0 0-.628-.919c-.283-.23-.64-.346-1.07-.346-.435 0-.795.115-1.081.346-.283.23-.494.537-.633.919a3.677 3.677 0 0 0-.203 1.246c0 .456.068.873.203 1.251.139.379.35.682.633.91.286.227.646.341 1.08.341Zm6.222-3.194v4.21h-1.38V8.41h1.325v1.153h.087c.163-.375.419-.677.767-.905.35-.227.792-.341 1.325-.341.483 0 .906.101 1.269.304.363.2.645.499.845.896.2.397.3.888.3 1.473v4.51h-1.38v-4.344c0-.514-.134-.916-.402-1.205-.268-.292-.636-.439-1.103-.439-.32 0-.605.07-.854.208a1.494 1.494 0 0 0-.587.61c-.141.264-.212.584-.212.96Z" class="tagline"/><path fill="currentColor" d="M81.298 9.47h-2.309a1.999 1.999 0 0 0-.189-.64 1.561 1.561 0 0 0-.937-.8 2.138 2.138 0 0 0-.706-.11c-.459 0-.855.112-1.187.337-.33.224-.583.55-.762.974-.175.425-.263.938-.263 1.542 0 .628.09 1.154.268 1.579.182.421.436.74.762.955.33.213.718.319 1.168.319.252 0 .481-.033.688-.097.209-.065.392-.159.549-.282.16-.126.29-.278.392-.457.105-.181.177-.386.217-.614l2.309.014c-.04.418-.162.83-.365 1.237-.2.406-.476.777-.827 1.113-.35.332-.778.597-1.283.794-.501.197-1.077.295-1.726.295-.856 0-1.622-.188-2.3-.563-.673-.379-1.206-.93-1.597-1.653-.39-.723-.586-1.603-.586-2.64 0-1.04.198-1.922.596-2.646.397-.723.934-1.272 1.61-1.648.678-.375 1.436-.563 2.277-.563.572 0 1.101.08 1.588.24.486.157.914.388 1.283.693.37.301.67.672.9 1.112.231.44.374.944.43 1.51Zm4.617 6.164c-.745 0-1.385-.152-1.92-.457a3.153 3.153 0 0 1-1.233-1.284c-.286-.55-.43-1.189-.43-1.915 0-.73.144-1.368.43-1.916.29-.551.7-.979 1.233-1.284.535-.307 1.175-.461 1.92-.461.745 0 1.384.154 1.916.461.535.305.946.733 1.233 1.284.289.548.434 1.186.434 1.916 0 .726-.145 1.365-.434 1.915a3.114 3.114 0 0 1-1.233 1.284c-.532.305-1.171.457-1.916.457Zm.014-1.704a1 1 0 0 0 .688-.249c.188-.166.33-.397.43-.692.1-.296.152-.637.152-1.025 0-.394-.051-.739-.153-1.034-.098-.296-.241-.527-.43-.693a1 1 0 0 0-.687-.25c-.28 0-.517.084-.71.25-.192.166-.338.397-.44.693-.098.295-.147.64-.147 1.034 0 .388.05.73.147 1.025.102.295.248.526.44.692.193.166.43.25.71.25Zm7.315 1.672c-.523 0-.999-.136-1.427-.407-.427-.27-.77-.677-1.024-1.218-.256-.542-.384-1.215-.384-2.018 0-.834.133-1.52.397-2.059.265-.538.611-.937 1.04-1.195.43-.259.893-.388 1.389-.388.372 0 .69.064.955.194.265.126.483.289.656.489.172.2.303.408.392.623h.046V6.045h2.258V15.5h-2.235v-1.15h-.069c-.095.219-.23.424-.406.614-.175.191-.396.345-.66.462-.262.117-.571.176-.928.176Zm.785-1.76c.274 0 .508-.076.701-.23a1.49 1.49 0 0 0 .448-.66c.105-.283.157-.616.157-.998 0-.387-.052-.721-.157-1.001a1.381 1.381 0 0 0-.448-.646 1.109 1.109 0 0 0-.701-.227c-.28 0-.517.077-.711.231-.194.154-.342.37-.444.651-.098.28-.147.61-.147.992s.05.715.152.998c.102.283.248.503.439.66.194.154.43.23.71.23Zm8.255 1.792c-.742 0-1.382-.146-1.92-.439a3.031 3.031 0 0 1-1.238-1.26c-.286-.548-.429-1.199-.429-1.953 0-.732.145-1.372.434-1.92.29-.551.697-.979 1.223-1.284.527-.307 1.147-.461 1.861-.461.505 0 .966.078 1.385.235.418.157.78.39 1.085.697.304.308.541.688.711 1.14.169.45.253.965.253 1.547v.563h-6.162v-1.31h4.062a1.27 1.27 0 0 0-.171-.643 1.16 1.16 0 0 0-.457-.438 1.32 1.32 0 0 0-.66-.162 1.35 1.35 0 0 0-.679.171 1.283 1.283 0 0 0-.66 1.108v1.334c0 .29.057.543.171.762.114.216.275.383.485.503.209.12.458.18.748.18.2 0 .381-.027.544-.083.163-.055.304-.137.42-.244.117-.108.205-.24.264-.397l2.072.06c-.086.464-.275.869-.567 1.214-.29.341-.67.607-1.141.798-.471.188-1.015.282-1.634.282Zm4.518-.134V6.045h2.258v3.578h.046c.092-.215.223-.423.392-.623.173-.2.391-.363.656-.49.268-.129.588-.193.96-.193.493 0 .953.129 1.381.388.43.258.778.657 1.043 1.195.265.539.397 1.225.397 2.06 0 .802-.128 1.475-.383 2.017-.253.541-.594.947-1.025 1.218-.428.271-.903.407-1.427.407a2.26 2.26 0 0 1-.928-.176 2.03 2.03 0 0 1-.66-.462 2.217 2.217 0 0 1-.406-.614h-.069v1.15h-2.235Zm2.212-3.546c0 .382.051.715.152.998.105.283.254.503.448.66.197.154.432.23.706.23.277 0 .513-.076.707-.23a1.43 1.43 0 0 0 .438-.66c.102-.283.152-.616.152-.998 0-.381-.05-.712-.152-.992a1.4 1.4 0 0 0-.438-.65 1.091 1.091 0 0 0-.707-.232c-.277 0-.512.076-.706.226-.194.151-.343.367-.448.647-.101.28-.152.614-.152 1.002Zm9.418 3.68c-.741 0-1.381-.146-1.92-.439a3.033 3.033 0 0 1-1.237-1.26c-.286-.548-.43-1.199-.43-1.953 0-.732.145-1.372.434-1.92a3.14 3.14 0 0 1 1.224-1.284c.526-.307 1.146-.461 1.86-.461.505 0 .967.078 1.385.235.419.157.78.39 1.085.697.305.308.542.688.711 1.14.169.45.254.965.254 1.547v.563h-6.163v-1.31h4.062a1.279 1.279 0 0 0-.17-.643 1.167 1.167 0 0 0-.457-.438 1.32 1.32 0 0 0-.661-.162c-.252 0-.478.057-.678.171a1.282 1.282 0 0 0-.66 1.108v1.334c0 .29.057.543.17.762.114.216.276.383.485.503.209.12.459.18.748.18.2 0 .382-.027.545-.083.163-.055.303-.137.42-.244.117-.108.205-.24.263-.397l2.073.06c-.086.464-.276.869-.568 1.214a2.873 2.873 0 0 1-1.14.798c-.471.188-1.016.282-1.635.282Zm4.519-.134V8.41h2.193v1.292h.074c.129-.468.34-.816.632-1.044.292-.23.632-.346 1.02-.346.105 0 .213.008.323.023.111.013.214.033.31.06v1.962a2.18 2.18 0 0 0-.425-.087 3.765 3.765 0 0 0-.462-.033c-.267 0-.509.06-.724.18a1.29 1.29 0 0 0-.504.494c-.12.21-.18.456-.18.739v3.85h-2.257Zm8.409 2.807c-.674 0-1.251-.094-1.731-.282-.481-.188-.858-.444-1.131-.77a2.13 2.13 0 0 1-.494-1.109l2.137-.12c.04.145.114.271.222.379.11.107.254.19.429.25.178.058.388.087.628.087.378 0 .691-.093.937-.277.249-.182.374-.5.374-.956v-1.246h-.079a1.67 1.67 0 0 1-.406.586 1.927 1.927 0 0 1-.678.406 2.67 2.67 0 0 1-.924.148c-.517 0-.991-.12-1.422-.36-.427-.243-.771-.619-1.029-1.127-.256-.51-.383-1.167-.383-1.97 0-.829.132-1.51.397-2.046.264-.538.611-.937 1.038-1.195a2.655 2.655 0 0 1 1.39-.388c.372 0 .691.064.956.194.267.126.487.289.66.489.172.2.303.408.392.623h.065V8.41h2.248v7.119c0 .6-.151 1.106-.452 1.519-.302.412-.724.724-1.265.937-.542.215-1.168.323-1.879.323Zm.069-4.547c.274 0 .508-.073.702-.217a1.37 1.37 0 0 0 .448-.624 2.72 2.72 0 0 0 .156-.974c0-.384-.052-.715-.156-.992a1.384 1.384 0 0 0-.448-.646 1.11 1.11 0 0 0-.702-.227c-.28 0-.517.077-.711.231-.194.154-.342.37-.443.651a2.926 2.926 0 0 0-.148.983c0 .379.051.704.153.974.101.271.247.479.438.624.194.144.431.217.711.217Z" class="base"/><defs><linearGradient id="paint0_linear_2038_104" x1="0" x2="141" y1="10.5" y2="10.5" gradientUnits="userSpaceOnUse"><stop stop-color="#4793CC"/><stop offset="1" stop-color="#21716D"/></linearGradient><linearGradient id="paint1_linear_2038_104" x1="13.137" x2="18.28" y1="6.686" y2="16.951" gradientUnits="userSpaceOnUse"><stop class="base" stop-color="currentColor" stop-opacity="0"/><stop class="base" offset=".495" stop-color="currentColor" stop-opacity=".3"/><stop class="base" offset="1" stop-color="currentColor" stop-opacity=".3"/></linearGradient><clipPath id="clip0_2038_104"><path fill="currentColor" d="M5 2.5h16v16H5z" class="base"/></clipPath></defs><style>.fill{color:#fff}.base{color:#000}.tagline{color:#1a1a1a}@media (prefers-color-scheme:dark){.fill{color:#000}.base{color:#fff}.tagline{color:#e8e8e8}}</style></svg>