<svg xmlns="http://www.w3.org/2000/svg" width="169" height="21" fill="none"><g clip-path="url(#a)"><rect width="169" height="21" fill="#000" rx="5"/><g filter="url(#b)"><g clip-path="url(#c)"><path fill="#fff" d="M8.47 4.87A17.49 17.49 0 0 1 13 10.06v3.62c0-.08-.03 0-.1.2-.38 1.01-1.86 4.98-5.23 1.8-1.78-1.66-.96-3.33 2.28-3.84-1.85.3-3.93-.18-4.5-2.05C5.27 9.25 5 5.94 5 5.49c0-2.24 2.14-1.53 3.47-.62Zm9.06 0A17.49 17.49 0 0 0 13 10.06v3.62c0-.08.03 0 .1.2.38 1.01 1.86 4.98 5.23 1.8 1.78-1.66.96-3.33-2.28-3.84 1.85.3 3.93-.18 4.5-2.05.17-.54.45-3.85.45-4.3 0-2.24-2.14-1.53-3.47-.62Z"/></g></g><g filter="url(#d)"><path fill="#E8E8E8" d="M24.04 15.5V6.05h5.86v1.22h-4.43v2.88h4.01v1.23h-4.01v4.12h-1.43Zm9.97.14c-.66 0-1.24-.15-1.74-.45-.5-.3-.88-.73-1.15-1.28a4.24 4.24 0 0 1-.41-1.92c0-.74.13-1.38.4-1.93a3.08 3.08 0 0 1 2.9-1.74c.67 0 1.25.15 1.74.45.5.3.88.74 1.16 1.29.27.55.4 1.2.4 1.93s-.13 1.37-.4 1.92a3.08 3.08 0 0 1-2.9 1.73Zm0-1.16c.44 0 .8-.11 1.08-.34a2 2 0 0 0 .62-.9 3.75 3.75 0 0 0 .01-2.5 2.03 2.03 0 0 0-.63-.92 1.64 1.64 0 0 0-1.07-.35c-.44 0-.8.12-1.08.35-.29.23-.5.53-.64.92a3.81 3.81 0 0 0 0 2.49c.14.38.35.68.64.91.28.23.64.34 1.08.34Zm6.23-8.43v9.45h-1.38V6.05h1.38Zm3.24 0v9.45h-1.39V6.05h1.39Zm4.84 9.6a3.08 3.08 0 0 1-2.9-1.74 4.24 4.24 0 0 1-.4-1.92c0-.74.13-1.38.4-1.93a3.08 3.08 0 0 1 2.9-1.74 3 3 0 0 1 2.89 1.74c.28.55.41 1.2.41 1.93s-.13 1.37-.4 1.92a3.08 3.08 0 0 1-2.9 1.73Zm0-1.17c.43 0 .8-.11 1.07-.34a2 2 0 0 0 .63-.9 3.75 3.75 0 0 0 .01-2.5 2.03 2.03 0 0 0-.64-.92 1.64 1.64 0 0 0-1.07-.35c-.43 0-.79.12-1.08.35-.28.23-.5.53-.63.92a3.81 3.81 0 0 0 0 2.49c.14.38.35.68.63.91.29.23.65.34 1.08.34Zm6.17 1.02L52.4 8.4h1.43l1.39 5.22h.07l1.39-5.21h1.43l1.38 5.18h.07l1.38-5.18h1.43l-2.09 7.09h-1.4l-1.44-5.12h-.11l-1.44 5.12h-1.4Z"/><path fill="#fff" d="M72.16 18.3c-1 0-1.9-.13-2.67-.4a5.07 5.07 0 0 1-3.22-3.07 7.14 7.14 0 0 1-.43-2.54c0-.94.14-1.8.42-2.56a5.56 5.56 0 0 1 3.28-3.3c.8-.3 1.71-.45 2.74-.45.93 0 1.77.13 2.52.4a4.94 4.94 0 0 1 3.1 2.95c.28.7.42 1.5.41 2.38 0 .61-.05 1.15-.17 1.63-.12.48-.3.9-.55 1.24-.24.34-.55.6-.92.8-.37.2-.8.31-1.31.35-.4.03-.71.01-.92-.07a.83.83 0 0 1-.45-.36 1.74 1.74 0 0 1-.18-.54h-.05c-.07.19-.23.36-.47.5a3.49 3.49 0 0 1-1.87.41 2.8 2.8 0 0 1-2.56-1.94 4.47 4.47 0 0 1-.23-1.5c0-.57.09-1.06.24-1.48.16-.41.37-.76.63-1.03a3.1 3.1 0 0 1 1.75-.94 3.16 3.16 0 0 1 1.88.24c.23.12.37.24.42.38h.07v-.52h1.6v4.62c0 .2.05.34.12.43.07.09.17.13.29.13.18 0 .33-.08.47-.26.14-.18.24-.45.32-.82a6.9 6.9 0 0 0-.14-3.03 3.14 3.14 0 0 0-1.66-1.81 4.45 4.45 0 0 0-1.15-.36 7.1 7.1 0 0 0-1.2-.1 5.3 5.3 0 0 0-2.04.36 3.84 3.84 0 0 0-2.26 2.41 5.6 5.6 0 0 0-.28 1.76c0 .7.1 1.34.3 1.89a3.55 3.55 0 0 0 2.32 2.2 6 6 0 0 0 1.97.29 7.85 7.85 0 0 0 2.68-.47l.53 1.5c-.2.12-.46.23-.8.34a9.28 9.28 0 0 1-2.53.35Zm-.12-4.34c.37 0 .66-.07.87-.2.22-.14.37-.34.46-.61a3.5 3.5 0 0 0 0-1.83 1.09 1.09 0 0 0-.44-.58c-.2-.15-.51-.22-.9-.22-.34 0-.63.07-.87.2-.23.13-.41.32-.54.57a2.48 2.48 0 0 0-.03 1.76c.1.27.27.49.5.66.24.17.55.25.95.25Zm7.49 1.54V8.4h2.14v1.31h.08a2.02 2.02 0 0 1 2-1.4c.5 0 .92.13 1.27.39.35.25.58.59.67 1.01h.07c.14-.42.4-.76.78-1.01a2.4 2.4 0 0 1 1.36-.38c.67 0 1.22.21 1.64.64.42.43.62 1.02.62 1.77v4.77h-2.25v-4.26c0-.35-.1-.62-.28-.8a.94.94 0 0 0-.7-.29c-.31 0-.56.1-.74.3-.17.2-.26.48-.26.82v4.23h-2.17v-4.28c0-.33-.09-.59-.27-.78a.92.92 0 0 0-.7-.29.95.95 0 0 0-.88.54c-.08.18-.12.38-.12.61v4.2h-2.26Zm15.35.13a4 4 0 0 1-1.92-.43c-.54-.3-.95-.72-1.24-1.26a4.16 4.16 0 0 1-.43-1.96c0-.73.15-1.37.43-1.92.3-.55.7-.98 1.23-1.28.52-.3 1.14-.46 1.86-.46.5 0 .97.08 1.38.23A2.98 2.98 0 0 1 98 10.4c.17.45.25.96.25 1.55v.56h-6.16V11.2h4.06c0-.24-.06-.46-.17-.64a1.16 1.16 0 0 0-.46-.44c-.19-.11-.4-.16-.66-.16a1.35 1.35 0 0 0-1.15.62c-.12.2-.18.41-.18.66v1.33c0 .29.05.54.17.76.11.22.27.38.48.5.21.12.46.18.75.18.2 0 .38-.02.54-.08.17-.05.3-.14.42-.24.12-.11.2-.24.27-.4l2.07.06c-.09.46-.28.87-.57 1.21a2.8 2.8 0 0 1-1.14.8 4.4 4.4 0 0 1-1.63.28Zm6.77-9.58v9.45H99.4V6.05h2.25Zm4.75 9.58a3.9 3.9 0 0 1-1.92-.45 3.18 3.18 0 0 1-1.23-1.29 4.09 4.09 0 0 1-.43-1.91c0-.73.14-1.37.43-1.92.29-.55.7-.98 1.23-1.28a3.8 3.8 0 0 1 1.92-.46c.74 0 1.38.15 1.92.46.53.3.94.73 1.23 1.28.29.55.43 1.19.43 1.92 0 .72-.14 1.36-.43 1.91-.29.55-.7.98-1.23 1.29a3.8 3.8 0 0 1-1.92.45Zm.01-1.7a1 1 0 0 0 .7-.25c.18-.17.32-.4.42-.7.1-.29.15-.63.15-1.02s-.05-.73-.15-1.03c-.1-.3-.24-.53-.43-.7a1 1 0 0 0-.69-.24 1 1 0 0 0-.7.25c-.2.16-.34.4-.44.69-.1.3-.15.64-.15 1.03 0 .4.05.73.14 1.03.1.3.25.52.44.7.2.16.43.24.71.24Zm6.99-2.47v4.04h-2.26V8.4h2.15v1.31h.07c.16-.43.43-.77.8-1.02a2.4 2.4 0 0 1 1.36-.37c.5 0 .93.1 1.3.33s.65.54.86.94c.2.4.3.86.3 1.39v4.52h-2.26v-4.08c0-.39-.1-.7-.3-.92-.2-.22-.48-.33-.83-.33-.24 0-.45.05-.63.15a.97.97 0 0 0-.41.44c-.1.2-.15.43-.15.7Zm9.98-3.05v1.66h-4.47V8.41h4.47Zm-3.53-1.7h2.25v6.56c0 .14.02.25.07.34a.4.4 0 0 0 .2.18.9.9 0 0 0 .3.05 1.7 1.7 0 0 0 .5-.07l.34 1.63-.46.11a3.36 3.36 0 0 1-2.06-.1 1.77 1.77 0 0 1-.86-.7c-.2-.31-.3-.71-.28-1.2v-6.8Zm4.68 8.79V8.4h2.26v7.1h-2.26Zm1.13-7.92c-.31 0-.58-.1-.81-.31a1.01 1.01 0 0 1-.34-.77 1 1 0 0 1 .34-.75c.23-.22.5-.32.81-.32.32 0 .6.1.82.32a1 1 0 0 1 .34.75 1 1 0 0 1-.34.77c-.22.2-.5.31-.82.31Zm4.83 3.88v4.04h-2.26V8.4h2.14v1.31h.08c.16-.43.43-.77.8-1.02a2.4 2.4 0 0 1 1.36-.37c.5 0 .93.1 1.3.33s.65.54.85.94c.21.4.31.86.3 1.39v4.52h-2.25v-4.08c0-.39-.1-.7-.3-.92-.2-.22-.48-.33-.83-.33-.24 0-.45.05-.63.15-.18.1-.32.25-.42.44-.1.2-.14.43-.14.7Zm5.98 4.04V8.4h2.25v7.1h-2.25Zm1.13-7.92c-.32 0-.6-.1-.82-.31a1.01 1.01 0 0 1-.34-.77 1 1 0 0 1 .34-.75c.23-.22.5-.32.82-.32.32 0 .59.1.81.32a1 1 0 0 1 .35.75c0 .3-.12.56-.34.77-.23.2-.5.31-.82.31Zm3.83 8.05c-.33 0-.62-.11-.85-.35a1.14 1.14 0 0 1-.35-.85c0-.32.11-.6.35-.83.23-.24.52-.35.85-.35.31 0 .6.11.83.35a1.13 1.13 0 0 1 .2 1.44c-.12.18-.26.32-.44.43-.18.11-.38.16-.59.16Zm2.7-.13V8.4h2.14v1.31h.08a2.02 2.02 0 0 1 2-1.4c.5 0 .91.13 1.27.39.35.25.57.59.66 1.01h.08c.13-.42.39-.76.77-1.01a2.4 2.4 0 0 1 1.37-.38c.67 0 1.21.21 1.63.64.42.43.63 1.02.63 1.77v4.77h-2.26v-4.26c0-.35-.09-.62-.27-.8a.94.94 0 0 0-.7-.29c-.32 0-.56.1-.74.3-.18.2-.26.48-.26.82v4.23h-2.18v-4.28c0-.33-.08-.59-.26-.78a.92.92 0 0 0-.7-.29.96.96 0 0 0-.89.54 1.4 1.4 0 0 0-.12.61v4.2h-2.26Zm15.34.13a4 4 0 0 1-1.92-.43c-.53-.3-.95-.72-1.24-1.26a4.17 4.17 0 0 1-.43-1.96c0-.73.15-1.37.44-1.92.29-.55.7-.98 1.22-1.28a4.14 4.14 0 0 1 3.25-.23 2.98 2.98 0 0 1 1.8 1.84c.16.45.25.96.25 1.55v.56h-6.17v-1.31h4.07c0-.24-.06-.46-.17-.64a1.16 1.16 0 0 0-.46-.44c-.2-.11-.41-.16-.66-.16a1.35 1.35 0 0 0-1.16.62c-.11.2-.17.41-.18.66v1.33c0 .29.06.54.17.76.11.22.28.38.48.5.22.12.46.18.75.18.2 0 .39-.02.55-.08.16-.05.3-.14.42-.24a1 1 0 0 0 .26-.4l2.07.06a2.5 2.5 0 0 1-.56 1.21c-.3.35-.67.61-1.14.8a4.4 4.4 0 0 1-1.64.28Z"/></g></g><rect width="167.8" height="19.8" x=".6" y=".6" stroke="url(#e)" stroke-opacity=".75" stroke-width="1.2" rx="4.4"/><defs><clipPath id="a"><rect width="169" height="21" fill="#fff" rx="5"/></clipPath><clipPath id="c"><path fill="#fff" d="M5 4h16v13H5z"/></clipPath><filter id="b" width="27.2" height="27.2" x="-.6" y="-3.1" color-interpolation-filters="sRGB" filterUnits="userSpaceOnUse"><feFlood flood-opacity="0" result="BackgroundImageFix"/><feColorMatrix in="SourceAlpha" result="hardAlpha" values="0 0 0 0 0 0 0 0 0 0 0 0 0 0 0 0 0 0 127 0"/><feOffset/><feGaussianBlur stdDeviation="2.8"/><feComposite in2="hardAlpha" operator="out"/><feColorMatrix values="0 0 0 0 0 0 0 0 0 0 0 0 0 0 0 0 0 0 0.25 0"/><feBlend in2="BackgroundImageFix" result="effect1_dropShadow_2030_2"/><feBlend in="SourceGraphic" in2="effect1_dropShadow_2030_2" result="shape"/></filter><filter id="d" width="152.43" height="27.43" x="17.29" y="-3.21" color-interpolation-filters="sRGB" filterUnits="userSpaceOnUse"><feFlood flood-opacity="0" result="BackgroundImageFix"/><feColorMatrix in="SourceAlpha" result="hardAlpha" values="0 0 0 0 0 0 0 0 0 0 0 0 0 0 0 0 0 0 127 0"/><feOffset/><feGaussianBlur stdDeviation="2.86"/><feComposite in2="hardAlpha" operator="out"/><feColorMatrix values="0 0 0 0 0 0 0 0 0 0 0 0 0 0 0 0 0 0 0.25 0"/><feBlend in2="BackgroundImageFix" result="effect1_dropShadow_2030_2"/><feBlend in="SourceGraphic" in2="effect1_dropShadow_2030_2" result="shape"/></filter><linearGradient id="e" x1="0" x2="169" y1="10.5" y2="10.5" gradientUnits="userSpaceOnUse"><stop stop-color="#0B7AFF"/><stop offset="1" stop-color="#5BC8FF"/></linearGradient></defs></svg>