<svg width="169" height="21" viewBox="0 0 169 21" fill="none" xmlns="http://www.w3.org/2000/svg">
<g clip-path="url(#clip0_2030_2)">
<rect width="169" height="21" rx="5" fill="black"/>
<g filter="url(#filter0_d_2030_2)">
<g clip-path="url(#clip1_2030_2)">
<path d="M8.46825 4.86784C10.3025 6.12839 12.2757 8.68391 13 10.0553V13.6775C13 13.6004 12.9675 13.6875 12.8975 13.8752C12.5195 14.8915 11.043 18.8579 7.66675 15.687C5.889 14.0176 6.712 12.3481 9.948 11.8441C8.09675 12.1323 6.0155 11.6559 5.4445 9.788C5.28 9.25067 5 5.94091 5 5.4939C5 3.2547 7.14475 3.95853 8.46825 4.86784ZM17.5317 4.86784C15.6975 6.12839 13.7242 8.68391 13 10.0553V13.6775C13 13.6004 13.0325 13.6875 13.1025 13.8752C13.4805 14.8915 14.957 18.8579 18.3332 15.687C20.111 14.0176 19.288 12.3481 16.052 11.8441C17.9032 12.1323 19.9845 11.6559 20.5555 9.788C20.72 9.25067 21 5.94091 21 5.4939C21 3.2547 18.8555 3.95853 17.5317 4.86784Z" fill="white"/>
</g>
</g>
<g filter="url(#filter1_d_2030_2)">
<path d="M24.0387 15.5V6.04546H29.9016V7.27344H25.4652V10.1541H29.4815V11.3775H25.4652V15.5H24.0387ZM34.0114 15.6431C33.3467 15.6431 32.7665 15.4908 32.271 15.1861C31.7755 14.8814 31.3908 14.4551 31.1169 13.9073C30.843 13.3595 30.7061 12.7193 30.7061 11.9869C30.7061 11.2513 30.843 10.6081 31.1169 10.0572C31.3908 9.50627 31.7755 9.07848 32.271 8.77379C32.7665 8.46911 33.3467 8.31676 34.0114 8.31676C34.6762 8.31676 35.2564 8.46911 35.7519 8.77379C36.2474 9.07848 36.6321 9.50627 36.906 10.0572C37.1799 10.6081 37.3168 11.2513 37.3168 11.9869C37.3168 12.7193 37.1799 13.3595 36.906 13.9073C36.6321 14.4551 36.2474 14.8814 35.7519 15.1861C35.2564 15.4908 34.6762 15.6431 34.0114 15.6431ZM34.0161 14.4844C34.4469 14.4844 34.8039 14.3705 35.0871 14.1428C35.3702 13.915 35.5795 13.6119 35.7149 13.2333C35.8534 12.8548 35.9227 12.4377 35.9227 11.9822C35.9227 11.5298 35.8534 11.1143 35.7149 10.7358C35.5795 10.3542 35.3702 10.0479 35.0871 9.81712C34.8039 9.58629 34.4469 9.47088 34.0161 9.47088C33.5821 9.47088 33.222 9.58629 32.9358 9.81712C32.6527 10.0479 32.4418 10.3542 32.3034 10.7358C32.1679 11.1143 32.1002 11.5298 32.1002 11.9822C32.1002 12.4377 32.1679 12.8548 32.3034 13.2333C32.4418 13.6119 32.6527 13.915 32.9358 14.1428C33.222 14.3705 33.5821 14.4844 34.0161 14.4844ZM40.2379 6.04546V15.5H38.8576V6.04546H40.2379ZM43.4752 6.04546V15.5H42.0949V6.04546H43.4752ZM48.3191 15.6431C47.6543 15.6431 47.0742 15.4908 46.5787 15.1861C46.0831 14.8814 45.6984 14.4551 45.4245 13.9073C45.1506 13.3595 45.0137 12.7193 45.0137 11.9869C45.0137 11.2513 45.1506 10.6081 45.4245 10.0572C45.6984 9.50627 46.0831 9.07848 46.5787 8.77379C47.0742 8.46911 47.6543 8.31676 48.3191 8.31676C48.9838 8.31676 49.564 8.46911 50.0595 8.77379C50.555 9.07848 50.9397 9.50627 51.2136 10.0572C51.4875 10.6081 51.6245 11.2513 51.6245 11.9869C51.6245 12.7193 51.4875 13.3595 51.2136 13.9073C50.9397 14.4551 50.555 14.8814 50.0595 15.1861C49.564 15.4908 48.9838 15.6431 48.3191 15.6431ZM48.3237 14.4844C48.7545 14.4844 49.1116 14.3705 49.3947 14.1428C49.6778 13.915 49.8871 13.6119 50.0225 13.2333C50.161 12.8548 50.2303 12.4377 50.2303 11.9822C50.2303 11.5298 50.161 11.1143 50.0225 10.7358C49.8871 10.3542 49.6778 10.0479 49.3947 9.81712C49.1116 9.58629 48.7545 9.47088 48.3237 9.47088C47.8897 9.47088 47.5296 9.58629 47.2434 9.81712C46.9603 10.0479 46.7495 10.3542 46.611 10.7358C46.4755 11.1143 46.4078 11.5298 46.4078 11.9822C46.4078 12.4377 46.4755 12.8548 46.611 13.2333C46.7495 13.6119 46.9603 13.915 47.2434 14.1428C47.5296 14.3705 47.8897 14.4844 48.3237 14.4844ZM54.4867 15.5L52.4 8.40909H53.8265L55.2161 13.6165H55.2853L56.6795 8.40909H58.106L59.4909 13.5934H59.5602L60.9405 8.40909H62.367L60.285 15.5H58.8769L57.4366 10.3803H57.3304L55.8901 15.5H54.4867Z" fill="#E8E8E8"/>
<path d="M72.1555 18.3022C71.1584 18.3022 70.2689 18.1668 69.4872 17.8959C68.7055 17.6282 68.0438 17.2343 67.5021 16.7141C66.9605 16.1971 66.5481 15.5677 66.2649 14.826C65.9818 14.0843 65.8387 13.2395 65.8356 12.2915C65.8387 11.3529 65.9818 10.4988 66.2649 9.7294C66.5511 8.95691 66.9682 8.29214 67.516 7.73509C68.0669 7.17495 68.7409 6.74254 69.538 6.43786C70.3382 6.13317 71.2507 5.98082 72.2756 5.98082C73.2112 5.98082 74.0514 6.11316 74.7962 6.37784C75.541 6.64252 76.1749 7.02415 76.6982 7.52273C77.2244 8.02131 77.6261 8.62299 77.9031 9.32777C78.18 10.0326 78.317 10.8281 78.3139 11.7145C78.317 12.3208 78.2585 12.864 78.1385 13.3441C78.0185 13.8242 77.8353 14.2351 77.5891 14.5767C77.346 14.9183 77.0382 15.1876 76.6658 15.3846C76.2965 15.5785 75.861 15.6939 75.3594 15.7308C74.9531 15.7647 74.6454 15.7401 74.4361 15.657C74.2268 15.5739 74.0791 15.4538 73.9929 15.2969C73.9067 15.1368 73.8467 14.9583 73.8129 14.7614H73.7575C73.6867 14.9491 73.5312 15.1168 73.2912 15.2646C73.0542 15.4092 72.7711 15.5185 72.4418 15.5923C72.1125 15.6693 71.7739 15.697 71.4261 15.6754C71.0753 15.6508 70.7337 15.5677 70.4013 15.4261C70.0689 15.2815 69.7688 15.0707 69.5011 14.7937C69.2364 14.5136 69.0256 14.1612 68.8686 13.7365C68.7147 13.3118 68.6362 12.8117 68.6332 12.2361C68.6362 11.6606 68.7163 11.1667 68.8732 10.7543C69.0333 10.3388 69.241 9.99408 69.4964 9.72017C69.755 9.44318 70.0381 9.22929 70.3459 9.07848C70.6536 8.9246 70.9553 8.82457 71.2507 8.77841C71.6077 8.71686 71.9524 8.71224 72.2848 8.76456C72.6172 8.81688 72.8973 8.90152 73.125 9.01847C73.3558 9.13542 73.4989 9.2616 73.5543 9.39702H73.6236V8.87997H75.2209V13.4964C75.227 13.6965 75.267 13.8411 75.3409 13.9304C75.4148 14.0196 75.5102 14.0643 75.6271 14.0643C75.8056 14.0643 75.9626 13.9766 76.098 13.8011C76.2365 13.6226 76.3427 13.3503 76.4165 12.984C76.4935 12.6147 76.5304 12.1454 76.5273 11.576C76.5304 10.942 76.4473 10.4003 76.2781 9.95099C76.1119 9.49858 75.8857 9.12464 75.5994 8.82919C75.3132 8.53374 74.987 8.30291 74.6207 8.13672C74.2576 7.96745 73.8729 7.84896 73.4666 7.78125C73.0604 7.71354 72.6603 7.67969 72.2663 7.67969C71.4815 7.67969 70.8029 7.79818 70.2305 8.03516C69.658 8.26906 69.1841 8.59375 68.8086 9.00923C68.4331 9.42472 68.1531 9.90637 67.9684 10.4542C67.7868 10.9989 67.6945 11.5837 67.6914 12.2085C67.6945 12.9194 67.796 13.5488 67.9961 14.0966C68.1961 14.6413 68.4901 15.0984 68.8778 15.4677C69.2656 15.837 69.7442 16.1155 70.3136 16.3033C70.886 16.4941 71.5415 16.5895 72.2802 16.5895C72.6403 16.5895 72.9911 16.5664 73.3327 16.5202C73.6744 16.4741 73.9852 16.4156 74.2653 16.3448C74.5484 16.274 74.7808 16.2002 74.9624 16.1232L75.4886 17.6236C75.2947 17.7436 75.027 17.8544 74.6854 17.956C74.3468 18.0606 73.959 18.1437 73.522 18.2053C73.0881 18.2699 72.6326 18.3022 72.1555 18.3022ZM72.0447 13.9627C72.411 13.9627 72.7003 13.895 72.9126 13.7596C73.125 13.6211 73.2758 13.418 73.3651 13.1502C73.4543 12.8825 73.4943 12.5547 73.4851 12.1669C73.4851 11.8468 73.4451 11.5637 73.3651 11.3175C73.285 11.0713 73.1404 10.8774 72.9311 10.7358C72.7218 10.5942 72.4202 10.5234 72.0263 10.5234C71.6877 10.5234 71.4 10.5896 71.163 10.7219C70.9291 10.8543 70.7491 11.0436 70.6229 11.2898C70.4998 11.536 70.4382 11.833 70.4382 12.1808C70.4382 12.4854 70.489 12.7747 70.5906 13.0486C70.6921 13.3195 70.8598 13.5395 71.0937 13.7088C71.3276 13.8781 71.6446 13.9627 72.0447 13.9627ZM79.528 15.5V8.40909H81.6747V9.71094H81.7532C81.9009 9.28007 82.1502 8.93999 82.5011 8.6907C82.8519 8.44141 83.2705 8.31676 83.7567 8.31676C84.2492 8.31676 84.6708 8.44295 85.0217 8.69531C85.3725 8.94768 85.5956 9.28622 85.691 9.71094H85.7649C85.8972 9.2893 86.1558 8.9523 86.5405 8.69993C86.9252 8.44448 87.3791 8.31676 87.9023 8.31676C88.5733 8.31676 89.118 8.5322 89.5366 8.96307C89.9551 9.39086 90.1644 9.97869 90.1644 10.7266V15.5H87.907V11.2436C87.907 10.8897 87.8162 10.6204 87.6346 10.4357C87.453 10.248 87.2176 10.1541 86.9283 10.1541C86.6174 10.1541 86.3727 10.2557 86.1942 10.4588C86.0188 10.6589 85.9311 10.9281 85.9311 11.2667V15.5H83.7614V11.2205C83.7614 10.8912 83.6721 10.6312 83.4936 10.4403C83.3151 10.2495 83.0797 10.1541 82.7873 10.1541C82.5903 10.1541 82.4164 10.2018 82.2656 10.2972C82.1148 10.3896 81.9963 10.5219 81.9102 10.6942C81.8271 10.8666 81.7855 11.0697 81.7855 11.3036V15.5H79.528ZM94.8778 15.6339C94.1361 15.6339 93.496 15.4877 92.9574 15.1953C92.4219 14.8999 92.0095 14.4798 91.7202 13.935C91.4339 13.3872 91.2908 12.7363 91.2908 11.9822C91.2908 11.2498 91.4355 10.6096 91.7248 10.0618C92.0141 9.51089 92.4219 9.0831 92.9481 8.77841C93.4744 8.47064 94.0946 8.31676 94.8086 8.31676C95.3133 8.31676 95.775 8.39524 96.1935 8.5522C96.6121 8.70916 96.9737 8.94152 97.2784 9.24929C97.5831 9.55705 97.8201 9.93714 97.9893 10.3896C98.1586 10.8389 98.2432 11.3544 98.2432 11.9361V12.4993H92.0802V11.1882H96.1427C96.1397 10.9482 96.0827 10.7343 95.9719 10.5465C95.8611 10.3588 95.7088 10.2126 95.5149 10.108C95.3241 10.0002 95.104 9.94638 94.8547 9.94638C94.6024 9.94638 94.3762 10.0033 94.1761 10.1172C93.9761 10.228 93.8176 10.3803 93.7006 10.5742C93.5837 10.765 93.5221 10.982 93.516 11.2251V12.5593C93.516 12.8486 93.5729 13.1025 93.6868 13.321C93.8007 13.5365 93.9622 13.7042 94.1715 13.8242C94.3808 13.9442 94.6301 14.0043 94.9194 14.0043C95.1194 14.0043 95.301 13.9766 95.4641 13.9212C95.6272 13.8658 95.7673 13.7842 95.8842 13.6765C96.0012 13.5688 96.0889 13.4364 96.1474 13.2795L98.2202 13.3395C98.134 13.8042 97.9447 14.2089 97.6523 14.5536C97.363 14.8952 96.9829 15.1615 96.5121 15.3523C96.0412 15.54 95.4964 15.6339 94.8778 15.6339ZM101.654 6.04546V15.5H99.3962V6.04546H101.654ZM106.401 15.6339C105.656 15.6339 105.016 15.4815 104.48 15.1768C103.948 14.8691 103.537 14.4413 103.248 13.8935C102.961 13.3426 102.818 12.704 102.818 11.9776C102.818 11.2482 102.961 10.6096 103.248 10.0618C103.537 9.51089 103.948 9.0831 104.48 8.77841C105.016 8.47064 105.656 8.31676 106.401 8.31676C107.145 8.31676 107.784 8.47064 108.316 8.77841C108.852 9.0831 109.263 9.51089 109.549 10.0618C109.838 10.6096 109.983 11.2482 109.983 11.9776C109.983 12.704 109.838 13.3426 109.549 13.8935C109.263 14.4413 108.852 14.8691 108.316 15.1768C107.784 15.4815 107.145 15.6339 106.401 15.6339ZM106.414 13.9304C106.685 13.9304 106.915 13.8473 107.102 13.6811C107.29 13.5149 107.433 13.2841 107.532 12.9886C107.633 12.6932 107.684 12.3516 107.684 11.9638C107.684 11.5698 107.633 11.2251 107.532 10.9297C107.433 10.6342 107.29 10.4034 107.102 10.2372C106.915 10.071 106.685 9.98793 106.414 9.98793C106.134 9.98793 105.897 10.071 105.703 10.2372C105.513 10.4034 105.366 10.6342 105.265 10.9297C105.166 11.2251 105.117 11.5698 105.117 11.9638C105.117 12.3516 105.166 12.6932 105.265 12.9886C105.366 13.2841 105.513 13.5149 105.703 13.6811C105.897 13.8473 106.134 13.9304 106.414 13.9304ZM113.397 11.456V15.5H111.139V8.40909H113.286V9.71094H113.365C113.521 9.27699 113.789 8.93691 114.168 8.6907C114.546 8.44141 114.997 8.31676 115.52 8.31676C116.019 8.31676 116.451 8.4291 116.818 8.65376C117.187 8.87535 117.473 9.1862 117.676 9.58629C117.883 9.98331 117.984 10.448 117.981 10.9805V15.5H115.724V11.4236C115.727 11.0297 115.627 10.7219 115.423 10.5004C115.223 10.2788 114.945 10.168 114.588 10.168C114.351 10.168 114.142 10.2203 113.96 10.3249C113.782 10.4265 113.643 10.5727 113.545 10.7635C113.449 10.9543 113.4 11.1851 113.397 11.456ZM123.381 8.40909V10.071H118.908V8.40909H123.381ZM119.845 6.71023H122.102V13.2702C122.102 13.4087 122.124 13.5211 122.167 13.6072C122.213 13.6903 122.279 13.7504 122.365 13.7873C122.452 13.8211 122.555 13.8381 122.675 13.8381C122.761 13.8381 122.852 13.8304 122.947 13.815C123.046 13.7965 123.12 13.7811 123.169 13.7688L123.51 15.3984C123.403 15.4292 123.25 15.4677 123.053 15.5138C122.859 15.56 122.627 15.5893 122.356 15.6016C121.827 15.6262 121.373 15.5646 120.994 15.4169C120.619 15.2661 120.331 15.0322 120.131 14.7152C119.934 14.3982 119.839 13.9996 119.845 13.5195V6.71023ZM124.533 15.5V8.40909H126.79V15.5H124.533ZM125.664 7.58274C125.347 7.58274 125.075 7.4781 124.847 7.26882C124.619 7.05646 124.505 6.80102 124.505 6.50249C124.505 6.20703 124.619 5.95466 124.847 5.74538C125.075 5.53303 125.347 5.42685 125.664 5.42685C125.984 5.42685 126.256 5.53303 126.481 5.74538C126.709 5.95466 126.823 6.20703 126.823 6.50249C126.823 6.80102 126.709 7.05646 126.481 7.26882C126.256 7.4781 125.984 7.58274 125.664 7.58274ZM130.485 11.456V15.5H128.227V8.40909H130.374V9.71094H130.452C130.609 9.27699 130.877 8.93691 131.256 8.6907C131.634 8.44141 132.085 8.31676 132.608 8.31676C133.107 8.31676 133.539 8.4291 133.906 8.65376C134.275 8.87535 134.561 9.1862 134.764 9.58629C134.97 9.98331 135.072 10.448 135.069 10.9805V15.5H132.811V11.4236C132.814 11.0297 132.714 10.7219 132.511 10.5004C132.311 10.2788 132.033 10.168 131.676 10.168C131.439 10.168 131.23 10.2203 131.048 10.3249C130.869 10.4265 130.731 10.5727 130.632 10.7635C130.537 10.9543 130.488 11.1851 130.485 11.456ZM136.467 15.5V8.40909H138.724V15.5H136.467ZM137.598 7.58274C137.281 7.58274 137.008 7.4781 136.78 7.26882C136.553 7.05646 136.439 6.80102 136.439 6.50249C136.439 6.20703 136.553 5.95466 136.78 5.74538C137.008 5.53303 137.281 5.42685 137.598 5.42685C137.918 5.42685 138.19 5.53303 138.415 5.74538C138.642 5.95466 138.756 6.20703 138.756 6.50249C138.756 6.80102 138.642 7.05646 138.415 7.26882C138.19 7.4781 137.918 7.58274 137.598 7.58274ZM141.43 15.6339C141.098 15.6339 140.813 15.5169 140.576 15.283C140.342 15.0491 140.227 14.766 140.23 14.4336C140.227 14.1074 140.342 13.8288 140.576 13.598C140.813 13.3641 141.098 13.2472 141.43 13.2472C141.744 13.2472 142.021 13.3641 142.261 13.598C142.504 13.8288 142.628 14.1074 142.631 14.4336C142.628 14.6552 142.569 14.8568 142.455 15.0384C142.344 15.2199 142.198 15.3646 142.017 15.4723C141.838 15.58 141.643 15.6339 141.43 15.6339ZM144.122 15.5V8.40909H146.268V9.71094H146.347C146.495 9.28007 146.744 8.93999 147.095 8.6907C147.446 8.44141 147.864 8.31676 148.35 8.31676C148.843 8.31676 149.265 8.44295 149.615 8.69531C149.966 8.94768 150.189 9.28622 150.285 9.71094H150.359C150.491 9.2893 150.75 8.9523 151.134 8.69993C151.519 8.44448 151.973 8.31676 152.496 8.31676C153.167 8.31676 153.712 8.5322 154.13 8.96307C154.549 9.39086 154.758 9.97869 154.758 10.7266V15.5H152.501V11.2436C152.501 10.8897 152.41 10.6204 152.228 10.4357C152.047 10.248 151.811 10.1541 151.522 10.1541C151.211 10.1541 150.966 10.2557 150.788 10.4588C150.613 10.6589 150.525 10.9281 150.525 11.2667V15.5H148.355V11.2205C148.355 10.8912 148.266 10.6312 148.087 10.4403C147.909 10.2495 147.673 10.1541 147.381 10.1541C147.184 10.1541 147.01 10.2018 146.859 10.2972C146.709 10.3896 146.59 10.5219 146.504 10.6942C146.421 10.8666 146.379 11.0697 146.379 11.3036V15.5H144.122ZM159.472 15.6339C158.73 15.6339 158.09 15.4877 157.551 15.1953C157.016 14.8999 156.603 14.4798 156.314 13.935C156.028 13.3872 155.885 12.7363 155.885 11.9822C155.885 11.2498 156.029 10.6096 156.319 10.0618C156.608 9.51089 157.016 9.0831 157.542 8.77841C158.068 8.47064 158.688 8.31676 159.402 8.31676C159.907 8.31676 160.369 8.39524 160.787 8.5522C161.206 8.70916 161.567 8.94152 161.872 9.24929C162.177 9.55705 162.414 9.93714 162.583 10.3896C162.752 10.8389 162.837 11.3544 162.837 11.9361V12.4993H156.674V11.1882H160.736C160.733 10.9482 160.676 10.7343 160.566 10.5465C160.455 10.3588 160.303 10.2126 160.109 10.108C159.918 10.0002 159.698 9.94638 159.448 9.94638C159.196 9.94638 158.97 10.0033 158.77 10.1172C158.57 10.228 158.411 10.3803 158.294 10.5742C158.177 10.765 158.116 10.982 158.11 11.2251V12.5593C158.11 12.8486 158.167 13.1025 158.281 13.321C158.394 13.5365 158.556 13.7042 158.765 13.8242C158.975 13.9442 159.224 14.0043 159.513 14.0043C159.713 14.0043 159.895 13.9766 160.058 13.9212C160.221 13.8658 160.361 13.7842 160.478 13.6765C160.595 13.5688 160.683 13.4364 160.741 13.2795L162.814 13.3395C162.728 13.8042 162.538 14.2089 162.246 14.5536C161.957 14.8952 161.577 15.1615 161.106 15.3523C160.635 15.54 160.09 15.6339 159.472 15.6339Z" fill="white"/>
</g>
</g>
<rect x="0.6" y="0.6" width="167.8" height="19.8" rx="4.4" stroke="url(#paint0_linear_2030_2)" stroke-opacity="0.75" stroke-width="1.2"/>
<defs>
<filter id="filter0_d_2030_2" x="-0.60028" y="-3.10028" width="27.2006" height="27.2006" filterUnits="userSpaceOnUse" color-interpolation-filters="sRGB">
<feFlood flood-opacity="0" result="BackgroundImageFix"/>
<feColorMatrix in="SourceAlpha" type="matrix" values="0 0 0 0 0 0 0 0 0 0 0 0 0 0 0 0 0 0 127 0" result="hardAlpha"/>
<feOffset/>
<feGaussianBlur stdDeviation="2.80014"/>
<feComposite in2="hardAlpha" operator="out"/>
<feColorMatrix type="matrix" values="0 0 0 0 0 0 0 0 0 0 0 0 0 0 0 0 0 0 0.25 0"/>
<feBlend mode="normal" in2="BackgroundImageFix" result="effect1_dropShadow_2030_2"/>
<feBlend mode="normal" in="SourceGraphic" in2="effect1_dropShadow_2030_2" result="shape"/>
</filter>
<filter id="filter1_d_2030_2" x="17.2857" y="-3.21428" width="152.429" height="27.4286" filterUnits="userSpaceOnUse" color-interpolation-filters="sRGB">
<feFlood flood-opacity="0" result="BackgroundImageFix"/>
<feColorMatrix in="SourceAlpha" type="matrix" values="0 0 0 0 0 0 0 0 0 0 0 0 0 0 0 0 0 0 127 0" result="hardAlpha"/>
<feOffset/>
<feGaussianBlur stdDeviation="2.85714"/>
<feComposite in2="hardAlpha" operator="out"/>
<feColorMatrix type="matrix" values="0 0 0 0 0 0 0 0 0 0 0 0 0 0 0 0 0 0 0.25 0"/>
<feBlend mode="normal" in2="BackgroundImageFix" result="effect1_dropShadow_2030_2"/>
<feBlend mode="normal" in="SourceGraphic" in2="effect1_dropShadow_2030_2" result="shape"/>
</filter>
<linearGradient id="paint0_linear_2030_2" x1="0" y1="10.5" x2="169" y2="10.5" gradientUnits="userSpaceOnUse">
<stop stop-color="#0B7AFF"/>
<stop offset="1" stop-color="#58B9FE"/>
</linearGradient>
<clipPath id="clip0_2030_2">
<rect width="169" height="21" rx="5" fill="white"/>
</clipPath>
<clipPath id="clip1_2030_2">
<rect width="16" height="13" fill="white" transform="translate(5 4)"/>
</clipPath>
</defs>
</svg>
