<svg xmlns="http://www.w3.org/2000/svg" width="96" height="21" fill="none" viewBox="0 0 96 21"><rect width="96" height="21" fill="currentColor" class="fill" rx="5"/><rect width="94.8" height="19.8" x=".6" y=".6" stroke="url(#paint0_linear_2079_19)" stroke-width="1.2" rx="4.4"/><g clip-path="url(#clip0_2079_19)"><path fill="currentColor" d="M8.56 18.5a2.56 2.56 0 0 0 2.56-2.56v-2.56H8.56a2.56 2.56 0 0 0 0 5.12ZM6.001 10.5a2.56 2.56 0 0 1 2.56-2.56h2.56v5.12h-2.56a2.56 2.56 0 0 1-2.56-2.56ZM6.001 5.06a2.56 2.56 0 0 1 2.56-2.56h2.56v5.12h-2.56a2.56 2.56 0 0 1-2.56-2.56ZM11.549 2.5h2.56a2.56 2.56 0 0 1 0 5.12h-2.56V2.5ZM16.669 10.5a2.561 2.561 0 0 1-5.12 0 2.56 2.56 0 0 1 5.12 0Z" class="base"/></g><path fill="currentColor" d="M20.039 15.5V6.045h5.863v1.228h-4.437v2.881h4.017v1.223h-4.017V15.5H20.04Zm7.506 0V8.41h1.38v7.09h-1.38Zm.697-8.185a.877.877 0 0 1-.618-.24.78.78 0 0 1-.254-.582.77.77 0 0 1 .254-.581.868.868 0 0 1 .618-.245c.24 0 .445.081.614.245.172.16.259.354.259.581a.774.774 0 0 1-.259.582.862.862 0 0 1-.614.24Zm5.513 10.992c-.563 0-1.047-.074-1.454-.222a2.814 2.814 0 0 1-.988-.586 2.46 2.46 0 0 1-.572-.799l1.186-.49c.083.136.194.28.333.43.141.154.332.285.572.393.243.107.556.161.937.161.523 0 .956-.127 1.297-.383.342-.252.513-.655.513-1.21v-1.394h-.088c-.083.151-.203.319-.36.504a1.947 1.947 0 0 1-.637.48c-.27.135-.623.203-1.057.203-.56 0-1.065-.131-1.514-.393-.447-.264-.8-.654-1.062-1.168-.259-.517-.388-1.152-.388-1.906s.128-1.4.383-1.94c.259-.538.613-.95 1.062-1.236a2.76 2.76 0 0 1 1.528-.434c.44 0 .796.074 1.067.221.27.145.481.314.632.508.154.194.272.365.355.513h.102v-1.15h1.353v7.248c0 .61-.142 1.11-.425 1.5-.283.391-.666.68-1.15.868a4.433 4.433 0 0 1-1.625.282Zm-.013-4.058c.397 0 .732-.092 1.006-.277.277-.188.486-.455.628-.803.144-.351.217-.771.217-1.26 0-.478-.071-.898-.213-1.26a1.873 1.873 0 0 0-.623-.85c-.274-.207-.612-.31-1.015-.31-.416 0-.762.108-1.04.323a1.95 1.95 0 0 0-.627.868 3.45 3.45 0 0 0-.208 1.228c0 .465.071.873.213 1.224.141.35.35.625.628.822.28.196.624.295 1.034.295Zm5.064 1.251V8.41h1.325v1.153h.087c.148-.39.39-.695.725-.914.336-.221.737-.332 1.205-.332.474 0 .871.11 1.191.332.323.222.562.526.716.914h.074c.169-.378.438-.68.808-.905.369-.227.809-.341 1.32-.341.643 0 1.168.201 1.574.605.41.403.614 1.01.614 1.823V15.5h-1.38v-4.626c0-.48-.131-.828-.393-1.043a1.427 1.427 0 0 0-.937-.323c-.45 0-.798.138-1.048.415-.25.274-.374.627-.374 1.057v4.52h-1.375v-4.713c0-.385-.12-.694-.36-.928-.24-.234-.553-.351-.938-.351-.261 0-.503.07-.724.208a1.524 1.524 0 0 0-.531.567 1.738 1.738 0 0 0-.199.845V15.5h-1.38Zm13.553.157c-.45 0-.856-.083-1.22-.25a2.053 2.053 0 0 1-.862-.733c-.21-.32-.314-.713-.314-1.178 0-.4.077-.729.23-.988.154-.258.362-.463.624-.613.261-.151.554-.265.877-.342.323-.077.652-.136.988-.176l1.034-.12c.265-.033.457-.087.577-.161.12-.074.18-.194.18-.36v-.033c0-.403-.114-.715-.342-.937-.224-.221-.56-.332-1.006-.332-.465 0-.831.103-1.099.31-.264.202-.448.429-.55.678l-1.296-.296c.154-.43.378-.778.674-1.043a2.734 2.734 0 0 1 1.03-.582 4.018 4.018 0 0 1 1.222-.184c.284 0 .584.034.9.101.32.065.62.185.896.36.28.176.51.427.688.753.179.323.268.743.268 1.26V15.5H54.51v-.97h-.055c-.09.179-.224.354-.402.527a2.131 2.131 0 0 1-.688.43c-.28.113-.616.17-1.006.17Zm.3-1.108c.381 0 .708-.075.978-.226.274-.151.482-.348.624-.591.144-.246.217-.51.217-.79v-.914c-.05.05-.145.096-.287.139a4.46 4.46 0 0 1-.475.106 58.06 58.06 0 0 1-.522.079l-.425.055c-.267.034-.512.09-.733.17a1.26 1.26 0 0 0-.527.347c-.129.148-.194.345-.194.59 0 .343.127.601.379.777.252.172.574.258.965.258Z" class="tagline"/><path fill="currentColor" d="M59.715 15.5V6.045h3.943c.708 0 1.3.1 1.777.3.48.2.84.48 1.08.84.244.36.365.778.365 1.252 0 .36-.075.681-.226.965a1.99 1.99 0 0 1-.623.697 2.49 2.49 0 0 1-.919.387v.093c.382.018.734.121 1.057.31.327.187.588.449.785.784.197.332.296.726.296 1.182 0 .508-.13.961-.388 1.362-.259.397-.633.71-1.122.941-.49.228-1.083.342-1.782.342h-4.242Zm2.286-1.842h1.412c.496 0 .86-.094 1.094-.282.237-.187.356-.449.356-.784 0-.244-.057-.453-.17-.628a1.099 1.099 0 0 0-.486-.411 1.755 1.755 0 0 0-.752-.148H62v2.253Zm0-3.725h1.265c.249 0 .47-.042.664-.125a1.02 1.02 0 0 0 .453-.36.96.96 0 0 0 .166-.568c0-.317-.112-.566-.337-.748-.225-.181-.528-.272-.91-.272h-1.301v2.073Zm8.346 5.687c-.452 0-.854-.075-1.205-.226a1.877 1.877 0 0 1-.826-.693c-.2-.31-.3-.7-.3-1.168 0-.394.07-.726.208-.997.138-.27.329-.49.572-.66.243-.17.523-.297.84-.383.317-.09.656-.15 1.016-.18.403-.037.728-.075.974-.116.246-.043.425-.103.536-.18a.388.388 0 0 0 .17-.337v-.023c0-.237-.081-.42-.244-.549-.163-.13-.383-.194-.66-.194-.299 0-.54.065-.72.194a.854.854 0 0 0-.347.535l-2.082-.073c.062-.431.22-.816.476-1.155.258-.341.612-.609 1.061-.803.453-.197.996-.295 1.63-.295.452 0 .87.054 1.251.161a3.1 3.1 0 0 1 .997.462c.283.2.502.446.656.739.157.292.235.626.235 1.001v4.82h-2.123v-.988h-.056c-.126.24-.288.443-.485.61-.193.166-.423.29-.687.373a2.922 2.922 0 0 1-.887.125Zm.697-1.477c.243 0 .462-.05.656-.148.197-.098.354-.234.47-.406.118-.176.176-.379.176-.61v-.674a1.346 1.346 0 0 1-.235.093 5.259 5.259 0 0 1-.628.143l-.328.05a2.042 2.042 0 0 0-.545.158.86.86 0 0 0-.341.277.679.679 0 0 0-.116.397c0 .233.084.412.25.535.169.123.383.185.641.185Zm7.179-8.098V15.5h-2.257V6.045h2.257Zm3.694 0V15.5H79.66V6.045h2.257Zm7.628 4.53-2.073.055a.773.773 0 0 0-.175-.393.944.944 0 0 0-.374-.272 1.274 1.274 0 0 0-.526-.102c-.262 0-.485.053-.67.157-.181.105-.27.247-.268.425a.453.453 0 0 0 .166.36c.118.102.325.183.624.245l1.366.258c.708.136 1.234.36 1.579.674.348.314.523.73.526 1.247-.003.486-.147.91-.434 1.27-.283.36-.67.64-1.163.84-.492.196-1.056.295-1.69.295-1.012 0-1.81-.208-2.396-.623-.581-.419-.914-.979-.997-1.68l2.23-.056a.87.87 0 0 0 .383.59c.206.136.47.204.79.204.289 0 .524-.054.706-.162.181-.107.274-.25.277-.429a.455.455 0 0 0-.212-.383c-.139-.099-.356-.176-.651-.231l-1.238-.236c-.71-.129-1.24-.367-1.588-.715-.347-.35-.52-.797-.517-1.339-.003-.474.123-.878.379-1.214.255-.338.618-.597 1.09-.775.47-.179 1.026-.268 1.666-.268.96 0 1.717.201 2.271.605.554.4.86.95.919 1.652Z" class="base"/><defs><linearGradient id="paint0_linear_2079_19" x1="0" x2="96" y1="10.5" y2="10.5" gradientUnits="userSpaceOnUse"><stop stop-color="#F24E1E"/><stop offset=".33" stop-color="#A259FF"/><stop offset=".66" stop-color="#1ABCFE"/><stop offset="1" stop-color="#0ACF83"/></linearGradient><clipPath id="clip0_2079_19"><path fill="currentColor" d="M6 2.5h10.669v16H6z" class="base"/></clipPath></defs><style>.fill{color:#fff}.base{color:#000}.tagline{color:#1a1a1a}@media (prefers-color-scheme:dark){.fill{color:#000}.base{color:#fff}.tagline{color:#e8e8e8}}</style></svg>