<svg xmlns="http://www.w3.org/2000/svg" width="145" height="21" fill="none" viewBox="0 0 145 21"><rect width="145" height="21" fill="currentColor" class="fill" rx="5"/><rect width="143.8" height="19.8" x=".6" y=".6" stroke="url(#paint0_linear_5_17)" stroke-opacity=".85" stroke-width="1.2" rx="4.4"/><path fill="currentColor" d="M19.944 6.41c-.216-1.583-1.613-2.831-3.27-3.073-.279-.04-1.337-.19-3.79-.19h-.018c-2.453 0-2.979.15-3.258.19-1.61.235-3.08 1.356-3.437 2.958-.172.79-.19 1.664-.158 2.466.045 1.151.054 2.3.16 3.446.073.761.2 1.516.382 2.26.339 1.373 1.711 2.515 3.056 2.981a8.293 8.293 0 0 0 4.472.233c.163-.037.325-.08.484-.13.36-.113.783-.24 1.093-.462a.034.034 0 0 0 .014-.027v-1.11a.032.032 0 0 0-.012-.026.033.033 0 0 0-.014-.006.033.033 0 0 0-.014 0c-.95.224-1.925.337-2.902.335-1.682 0-2.134-.788-2.264-1.117a3.423 3.423 0 0 1-.196-.88c0-.005 0-.01.002-.014a.032.032 0 0 1 .038-.019c.935.223 1.893.336 2.855.335.231 0 .462 0 .693-.006.967-.027 1.986-.075 2.938-.259.023-.005.047-.009.067-.015 1.501-.284 2.93-1.178 3.074-3.44.006-.09.02-.933.02-1.026 0-.314.102-2.228-.015-3.404Zm-2.31 5.645h-1.578V8.238c0-.804-.34-1.214-1.03-1.214-.757 0-1.137.485-1.137 1.443v2.09H12.32v-2.09c0-.958-.38-1.443-1.138-1.443-.686 0-1.028.41-1.029 1.214v3.817H8.576V8.122c0-.804.208-1.442.624-1.916.428-.472.99-.714 1.688-.714.808 0 1.418.306 1.825.92l.393.65.393-.65c.407-.614 1.017-.92 1.824-.92.697 0 1.259.242 1.689.714.415.473.623 1.112.623 1.916l-.001 3.933Z" class="base"/><path fill="currentColor" d="M24.039 15.5V6.045h5.863v1.228h-4.437v2.881h4.017v1.223h-4.017V15.5H24.04Zm9.972.143c-.664 0-1.245-.152-1.74-.457a3.082 3.082 0 0 1-1.154-1.279c-.274-.547-.41-1.188-.41-1.92 0-.736.136-1.379.41-1.93.274-.55.659-.979 1.154-1.283.495-.305 1.076-.457 1.74-.457.665 0 1.245.152 1.74.457.496.304.881.732 1.155 1.283.274.551.41 1.194.41 1.93 0 .732-.136 1.373-.41 1.92a3.082 3.082 0 0 1-1.154 1.28c-.496.304-1.076.456-1.74.456Zm.005-1.159c.43 0 .788-.114 1.071-.341.283-.228.492-.531.628-.91.138-.378.208-.795.208-1.25 0-.453-.07-.869-.208-1.247a2.03 2.03 0 0 0-.628-.919c-.283-.23-.64-.346-1.07-.346-.435 0-.795.115-1.081.346-.283.23-.494.537-.633.919a3.674 3.674 0 0 0-.203 1.246c0 .456.068.873.203 1.251.139.379.35.682.633.91.286.227.646.341 1.08.341Zm6.222-8.439V15.5h-1.38V6.045h1.38Zm3.237 0V15.5h-1.38V6.045h1.38Zm4.844 9.598c-.665 0-1.245-.152-1.74-.457a3.082 3.082 0 0 1-1.154-1.279c-.274-.547-.411-1.188-.411-1.92 0-.736.137-1.379.41-1.93.274-.55.66-.979 1.155-1.283.495-.305 1.075-.457 1.74-.457s1.245.152 1.74.457c.496.304.88.732 1.155 1.283.273.551.41 1.194.41 1.93 0 .732-.137 1.373-.41 1.92a3.082 3.082 0 0 1-1.154 1.28c-.496.304-1.076.456-1.74.456Zm.005-1.159c.43 0 .788-.114 1.07-.341.284-.228.493-.531.629-.91.138-.378.207-.795.207-1.25 0-.453-.069-.869-.207-1.247a2.03 2.03 0 0 0-.628-.919c-.283-.23-.64-.346-1.071-.346-.434 0-.794.115-1.08.346-.284.23-.495.537-.633.919a3.674 3.674 0 0 0-.203 1.246c0 .456.067.873.203 1.251.139.379.35.682.632.91.287.227.647.341 1.08.341Zm6.163 1.016L52.4 8.41h1.427l1.39 5.207h.068l1.395-5.208h1.426l1.385 5.184h.07l1.38-5.184h1.426L60.285 15.5h-1.408l-1.44-5.12h-.107l-1.44 5.12h-1.403Z" class="tagline"/><path fill="currentColor" d="M72.156 18.302c-.998 0-1.887-.135-2.669-.406-.781-.268-1.443-.662-1.985-1.182a5.066 5.066 0 0 1-1.237-1.888c-.283-.742-.426-1.587-.43-2.535.004-.938.147-1.792.43-2.562a5.558 5.558 0 0 1 1.251-1.994 5.592 5.592 0 0 1 2.022-1.297c.8-.305 1.713-.457 2.738-.457.935 0 1.775.132 2.52.397a5.277 5.277 0 0 1 1.902 1.145c.526.498.928 1.1 1.205 1.805.277.705.414 1.5.41 2.386a6.597 6.597 0 0 1-.175 1.63c-.12.48-.303.891-.549 1.233-.243.341-.55.61-.923.808-.37.194-.805.309-1.307.346-.406.034-.714.01-.923-.074-.21-.083-.357-.203-.443-.36a1.746 1.746 0 0 1-.18-.536h-.056c-.07.188-.226.356-.466.504-.237.144-.52.253-.85.327-.329.077-.667.105-1.015.083a3.163 3.163 0 0 1-1.025-.249 2.8 2.8 0 0 1-.9-.632 3.063 3.063 0 0 1-.632-1.058c-.154-.424-.233-.924-.236-1.5.003-.575.083-1.07.24-1.482.16-.415.368-.76.623-1.034.259-.277.542-.49.85-.642.308-.153.61-.253.905-.3a3.16 3.16 0 0 1 1.034-.013c.332.052.612.137.84.253.23.117.374.244.43.379h.069V8.88h1.597v4.616c.006.2.046.345.12.434.074.09.17.134.286.134.179 0 .336-.087.471-.263.139-.178.245-.45.319-.817.076-.37.113-.839.11-1.408.003-.634-.08-1.176-.249-1.625a3.145 3.145 0 0 0-.679-1.122 3.185 3.185 0 0 0-.978-.692 4.448 4.448 0 0 0-1.154-.356 7.291 7.291 0 0 0-1.2-.101c-.785 0-1.464.118-2.036.355a3.838 3.838 0 0 0-1.422.974 4.065 4.065 0 0 0-.84 1.445 5.602 5.602 0 0 0-.278 1.755c.004.71.105 1.34.305 1.888.2.544.494 1.001.882 1.37.388.37.866.649 1.436.836.572.191 1.228.287 1.966.287a8.412 8.412 0 0 0 1.985-.245 4.82 4.82 0 0 0 .697-.222l.527 1.5a3.4 3.4 0 0 1-.804.333 7.52 7.52 0 0 1-1.163.25c-.434.064-.89.096-1.367.096Zm-.111-4.34c.366 0 .655-.067.868-.202.212-.139.363-.342.452-.61.09-.268.13-.595.12-.983 0-.32-.04-.603-.12-.85a1.087 1.087 0 0 0-.434-.581c-.21-.142-.51-.213-.905-.213-.338 0-.626.067-.863.199a1.337 1.337 0 0 0-.54.568c-.123.246-.185.543-.185.89 0 .305.051.595.153.869.101.27.269.49.503.66.234.17.55.254.95.254Zm7.483 1.538V8.41h2.147v1.3h.078c.148-.43.397-.77.748-1.02.35-.249.77-.373 1.256-.373.492 0 .914.126 1.265.378.35.253.574.591.669 1.016h.074c.132-.422.39-.759.775-1.011.385-.256.84-.383 1.362-.383.671 0 1.216.215 1.635.646.418.428.627 1.016.627 1.764V15.5h-2.257v-4.256c0-.354-.09-.624-.272-.808a.94.94 0 0 0-.707-.282c-.31 0-.555.102-.734.305-.175.2-.263.47-.263.808V15.5h-2.17v-4.28c0-.329-.089-.589-.267-.78-.179-.19-.414-.286-.707-.286a.955.955 0 0 0-.877.54 1.39 1.39 0 0 0-.124.61V15.5h-2.258Zm15.35.134c-.742 0-1.382-.146-1.92-.439a3.033 3.033 0 0 1-1.238-1.26c-.286-.548-.43-1.199-.43-1.953 0-.732.145-1.372.435-1.92.29-.551.697-.979 1.223-1.284.526-.307 1.147-.461 1.86-.461.505 0 .967.078 1.385.235.42.157.78.39 1.085.697.305.308.542.688.711 1.14.17.45.254.965.254 1.547v.563H92.08v-1.31h4.063a1.271 1.271 0 0 0-.171-.643 1.16 1.16 0 0 0-.457-.438 1.319 1.319 0 0 0-.66-.162c-.253 0-.479.057-.679.171a1.284 1.284 0 0 0-.66 1.108v1.334c0 .29.057.543.17.762.115.216.276.383.485.503.21.12.46.18.748.18.2 0 .382-.027.545-.083.163-.055.303-.137.42-.244.117-.108.205-.24.263-.397l2.073.06c-.086.464-.275.869-.568 1.214-.289.341-.67.607-1.14.798-.47.188-1.016.282-1.634.282Zm6.776-9.589V15.5h-2.258V6.045h2.258Zm4.747 9.589c-.745 0-1.385-.152-1.921-.457a3.161 3.161 0 0 1-1.233-1.284c-.286-.55-.429-1.189-.429-1.915 0-.73.143-1.368.429-1.916.29-.551.701-.979 1.233-1.284.536-.307 1.176-.461 1.921-.461.744 0 1.383.154 1.915.461.536.305.947.733 1.233 1.284.289.548.434 1.186.434 1.916 0 .726-.145 1.365-.434 1.915a3.11 3.11 0 0 1-1.233 1.284c-.532.305-1.171.457-1.915.457Zm.013-1.704a1 1 0 0 0 .688-.249c.188-.166.331-.397.43-.692.101-.296.152-.637.152-1.025 0-.394-.051-.739-.152-1.034-.099-.296-.242-.527-.43-.693a1 1 0 0 0-.688-.25c-.28 0-.517.084-.711.25-.19.166-.337.397-.438.693-.099.295-.148.64-.148 1.034 0 .388.049.73.148 1.025.101.295.248.526.438.692.194.166.431.25.711.25Zm6.983-2.474V15.5h-2.258V8.41h2.147v1.3h.078a1.99 1.99 0 0 1 .804-1.02c.378-.249.829-.373 1.352-.373.499 0 .931.112 1.298.337.369.221.655.532.858.932.206.397.308.862.305 1.394v4.52h-2.257v-4.076c.003-.394-.097-.702-.301-.924-.2-.221-.478-.332-.835-.332-.237 0-.446.052-.628.157a1.04 1.04 0 0 0-.415.439c-.096.19-.145.421-.148.692Zm9.984-3.047v1.662h-4.473V8.409h4.473Zm-3.536-1.699h2.257v6.56c0 .139.022.251.065.337a.402.402 0 0 0 .198.18c.087.034.19.051.31.051.086 0 .177-.008.272-.023.099-.018.172-.034.222-.046l.341 1.63c-.107.03-.26.069-.457.115a3.789 3.789 0 0 1-.697.088c-.529.024-.983-.037-1.362-.185a1.767 1.767 0 0 1-.863-.702c-.197-.317-.292-.715-.286-1.195V6.71Zm4.688 8.79V8.41h2.257v7.09h-2.257Zm1.131-7.917c-.317 0-.589-.105-.817-.314a1.01 1.01 0 0 1-.342-.767c0-.295.114-.547.342-.757.228-.212.5-.318.817-.318.32 0 .592.106.817.318.228.21.342.462.342.757 0 .299-.114.554-.342.767-.225.21-.497.314-.817.314Zm4.821 3.873V15.5h-2.258V8.41h2.147v1.3h.078a1.99 1.99 0 0 1 .804-1.02c.378-.249.829-.373 1.352-.373.499 0 .931.112 1.298.337.369.221.655.532.858.932.206.397.308.862.305 1.394v4.52h-2.258v-4.076c.003-.394-.097-.702-.3-.924-.2-.221-.478-.332-.835-.332-.237 0-.447.052-.628.157a1.042 1.042 0 0 0-.416.439 1.58 1.58 0 0 0-.147.692Zm5.981 4.044V8.41h2.258v7.09h-2.258Zm1.132-7.917c-.317 0-.59-.105-.818-.314a1.013 1.013 0 0 1-.341-.767c0-.295.114-.547.341-.757a1.16 1.16 0 0 1 .818-.318c.32 0 .592.106.817.318.227.21.341.462.341.757 0 .299-.114.554-.341.767-.225.21-.497.314-.817.314Z" class="base"/><defs><linearGradient id="paint0_linear_5_17" x1="0" x2="145" y1="10.5" y2="10.5" gradientUnits="userSpaceOnUse"><stop stop-color="#39A8E9"/><stop offset=".5" stop-color="#E05188"/><stop offset="1" stop-color="#E6B03C"/></linearGradient></defs><style>.fill{color:#fff}.base{color:#000}.tagline{color:#1a1a1a}@media (prefers-color-scheme:dark){.fill{color:#000}.base{color:#fff}.tagline{color:#e8e8e8}}</style></svg>