<svg xmlns="http://www.w3.org/2000/svg" width="79" height="21" fill="none" viewBox="0 0 79 21"><rect width="79" height="21" fill="currentColor" class="fill" rx="5"/><rect width="77.8" height="19.8" x=".6" y=".6" stroke="url(#paint0_linear_2013_84)" stroke-opacity=".88" stroke-width="1.2" rx="4.4"/><path fill="currentColor" d="m9.105 6.433-4.102 3.699H5v2.436c0 1.102 1.08 1.999 2.407 1.999h2.53c1.326 0 2.407-.897 2.407-1.999v-1.6h1.312v1.6c0 .96.82 1.763 1.908 1.955l.186-.216 1.06-1.234-1.926-1.412 1.658-1.215-.576-.314H6.264l3.418-3.081-.577-.618Zm7.706 1.106-.269.645 3.197 1.948h-2.084l.395.215-1.794 1.314L18 12.94l-1.4 1.627h1.993c1.327 0 2.407-.897 2.407-1.999v-2.436l-4.19-2.593ZM23.406 7.901V6.045h7.991v1.856h-2.866V15.5h-2.253V7.901h-2.872ZM34.8 15.634c-.742 0-1.382-.146-1.92-.439a3.032 3.032 0 0 1-1.238-1.26c-.286-.548-.43-1.199-.43-1.953 0-.732.145-1.372.435-1.92.289-.551.697-.979 1.223-1.284.526-.307 1.147-.461 1.86-.461.505 0 .967.078 1.385.235.419.157.78.39 1.085.697.305.308.542.688.711 1.14.17.45.254.965.254 1.547v.563h-6.163v-1.31h4.063a1.272 1.272 0 0 0-.171-.643 1.16 1.16 0 0 0-.457-.438 1.319 1.319 0 0 0-.66-.162c-.253 0-.479.057-.679.171a1.284 1.284 0 0 0-.66 1.108v1.334c0 .29.057.543.17.762.114.216.276.383.485.503.21.12.459.18.748.18.2 0 .382-.027.545-.083.163-.055.303-.137.42-.244.117-.108.205-.24.263-.397l2.073.06c-.086.464-.275.869-.568 1.214-.29.341-.67.607-1.14.798-.47.188-1.016.282-1.634.282Zm4.518-.134V8.41h2.193v1.292h.074c.129-.468.34-.816.632-1.044a1.6 1.6 0 0 1 1.02-.346c.105 0 .213.008.324.023.11.013.214.033.309.06v1.962a2.166 2.166 0 0 0-.425-.087 3.771 3.771 0 0 0-.461-.033c-.268 0-.51.06-.725.18-.213.117-.38.282-.503.494-.12.21-.18.456-.18.739v3.85h-2.258Zm5.472 0V8.41h2.193v1.292h.074c.129-.468.34-.816.632-1.044a1.6 1.6 0 0 1 1.02-.346c.105 0 .212.008.323.023.111.013.214.033.31.06v1.962a2.166 2.166 0 0 0-.425-.087 3.772 3.772 0 0 0-.462-.033c-.267 0-.51.06-.724.18-.213.117-.38.282-.504.494-.12.21-.18.456-.18.739v3.85H44.79Zm5.471 0V8.41h2.258v7.09H50.26Zm1.131-7.917c-.317 0-.589-.105-.817-.314a1.01 1.01 0 0 1-.341-.767c0-.295.114-.547.341-.757.228-.212.5-.318.817-.318.32 0 .593.106.818.318.227.21.341.462.341.757 0 .299-.114.554-.341.767-.225.21-.497.314-.818.314Zm2.564 7.917V6.045h2.257v3.578h.046c.093-.215.224-.423.393-.623.172-.2.39-.363.655-.49.268-.129.588-.193.96-.193.493 0 .953.129 1.38.388.432.258.78.657 1.044 1.195.265.539.397 1.225.397 2.06 0 .802-.127 1.475-.383 2.017-.252.541-.594.947-1.025 1.218-.428.271-.903.407-1.426.407-.357 0-.667-.059-.928-.176a2.018 2.018 0 0 1-.66-.462 2.216 2.216 0 0 1-.407-.614h-.069v1.15h-2.234Zm2.211-3.546c0 .382.05.715.152.998.105.283.254.503.448.66.197.154.433.23.706.23.278 0 .513-.076.707-.23.194-.157.34-.377.438-.66.102-.283.153-.616.153-.998 0-.381-.051-.712-.153-.992a1.398 1.398 0 0 0-.438-.65 1.09 1.09 0 0 0-.706-.232c-.277 0-.513.076-.707.226-.194.151-.343.367-.448.647-.101.28-.152.614-.152 1.002Zm8.362-5.909V15.5H62.27V6.045h2.258Zm4.751 9.589c-.742 0-1.382-.146-1.92-.439a3.033 3.033 0 0 1-1.237-1.26c-.287-.548-.43-1.199-.43-1.953 0-.732.145-1.372.434-1.92.29-.551.697-.979 1.224-1.284.526-.307 1.146-.461 1.86-.461.505 0 .966.078 1.385.235.418.157.78.39 1.085.697.304.308.541.688.71 1.14.17.45.255.965.255 1.547v.563h-6.163v-1.31h4.062a1.272 1.272 0 0 0-.17-.643 1.16 1.16 0 0 0-.458-.438 1.319 1.319 0 0 0-.66-.162c-.252 0-.479.057-.678.171a1.285 1.285 0 0 0-.66 1.108v1.334c0 .29.056.543.17.762.114.216.276.383.485.503.21.12.458.18.748.18.2 0 .381-.027.544-.083.164-.055.304-.137.42-.244a1.01 1.01 0 0 0 .264-.397l2.073.06c-.087.464-.276.869-.568 1.214-.29.341-.67.607-1.14.798-.472.188-1.016.282-1.635.282Z" class="base"/><defs><linearGradient id="paint0_linear_2013_84" x1="0" x2="79" y1="10.5" y2="10.5" gradientUnits="userSpaceOnUse"><stop stop-color="#6F2C10"/><stop offset="1" stop-color="#925B28"/></linearGradient></defs><style>.fill{color:#fff}.base{color:#000}@media (prefers-color-scheme:dark){.fill{color:#000}.base{color:#fff}}</style></svg>