<svg xmlns="http://www.w3.org/2000/svg" width="79" height="21" fill="none"><g clip-path="url(#a)"><rect width="79" height="21" fill="#000" rx="5"/><g filter="url(#b)"><g clip-path="url(#c)"><path fill="#fff" d="M9.1 6.43 5 10.13v2.44c0 1.1 1.08 2 2.4 2h2.54c1.32 0 2.4-.9 2.4-2v-1.6h1.32v1.6c0 .96.82 1.76 1.9 1.95l.19-.21 1.06-1.24-1.93-1.4 1.66-1.22-.57-.32h-9.7l3.41-3.08-.57-.62Zm7.71 1.1-.27.65 3.2 1.95h-2.08l.39.22-1.8 1.31L18 12.94l-1.4 1.63h2c1.32 0 2.4-.9 2.4-2v-2.44l-4.19-2.6Z"/></g></g><g filter="url(#d)"><path fill="#fff" d="M23.4 7.9V6.05h8V7.9h-2.87v7.6h-2.25V7.9H23.4Zm11.4 7.73a4 4 0 0 1-1.92-.43c-.54-.3-.95-.72-1.24-1.26a4.16 4.16 0 0 1-.43-1.96c0-.73.15-1.37.44-1.92.29-.55.7-.98 1.22-1.28a4.14 4.14 0 0 1 3.25-.23 2.98 2.98 0 0 1 1.8 1.84c.16.45.25.96.25 1.55v.56H32v-1.31h4.06c0-.24-.06-.46-.17-.64a1.16 1.16 0 0 0-.45-.44c-.2-.11-.41-.16-.66-.16a1.35 1.35 0 0 0-1.16.62c-.11.2-.18.41-.18.66v1.33c0 .29.05.54.17.76.11.22.27.38.48.5.21.12.46.18.75.18.2 0 .38-.02.55-.08.16-.05.3-.14.42-.24a1 1 0 0 0 .26-.4l2.07.06c-.08.46-.27.87-.57 1.21a2.8 2.8 0 0 1-1.14.8 4.4 4.4 0 0 1-1.63.28Zm4.52-.13V8.4h2.2v1.3h.06c.13-.47.34-.81.64-1.04a1.6 1.6 0 0 1 1.02-.35 2.35 2.35 0 0 1 .63.09v1.96a3.77 3.77 0 0 0-.89-.12c-.26 0-.5.06-.72.18a1.3 1.3 0 0 0-.5.5c-.12.2-.18.45-.18.73v3.85h-2.26Zm5.47 0V8.4h2.2v1.3h.07c.13-.47.34-.81.63-1.04.3-.23.63-.35 1.02-.35a2.35 2.35 0 0 1 .63.09v1.96a3.77 3.77 0 0 0-.89-.12c-.26 0-.5.06-.72.18a1.3 1.3 0 0 0-.5.5c-.12.2-.18.45-.18.73v3.85h-2.26Zm5.47 0V8.4h2.26v7.1h-2.26Zm1.13-7.92c-.31 0-.59-.1-.81-.31a1.01 1.01 0 0 1-.35-.77 1 1 0 0 1 .35-.75c.22-.22.5-.32.81-.32.32 0 .6.1.82.32a1 1 0 0 1 .34.75 1 1 0 0 1-.34.77c-.23.2-.5.31-.82.31Zm2.57 7.92V6.05h2.25v3.57h.05c.1-.21.22-.42.4-.62.16-.2.38-.36.65-.49s.59-.2.96-.2a2.62 2.62 0 0 1 2.42 1.59c.27.54.4 1.23.4 2.06 0 .8-.13 1.47-.38 2.02a2.61 2.61 0 0 1-3.38 1.45 2.02 2.02 0 0 1-1.07-1.08h-.07v1.15h-2.23Zm2.2-3.55c0 .39.06.72.16 1s.25.5.45.66c.2.16.43.23.7.23.28 0 .52-.07.71-.23.2-.16.34-.38.44-.66.1-.28.15-.61.15-1 0-.38-.05-.7-.15-.99a1.4 1.4 0 0 0-.44-.65c-.2-.15-.43-.23-.7-.23-.28 0-.52.08-.71.23-.2.15-.35.36-.45.64a3 3 0 0 0-.15 1Zm8.37-5.9v9.45h-2.26V6.05h2.26Zm4.75 9.58a4 4 0 0 1-1.92-.43c-.54-.3-.95-.72-1.24-1.26a4.16 4.16 0 0 1-.43-1.96c0-.73.15-1.37.44-1.92.29-.55.7-.98 1.22-1.28a4.14 4.14 0 0 1 3.25-.23 2.98 2.98 0 0 1 1.8 1.84c.16.45.25.96.25 1.55v.56h-6.17v-1.31h4.07c0-.24-.06-.46-.18-.64a1.16 1.16 0 0 0-.45-.44c-.2-.11-.41-.16-.66-.16a1.35 1.35 0 0 0-1.16.62c-.11.2-.18.41-.18.66v1.33c0 .29.06.54.17.76.11.22.27.38.48.5.21.12.46.18.75.18.2 0 .38-.02.55-.08.16-.05.3-.14.42-.24.11-.11.2-.24.26-.4l2.07.06a2.67 2.67 0 0 1-1.71 2.01 4.4 4.4 0 0 1-1.63.28Z"/></g></g><rect width="77.8" height="19.8" x=".6" y=".6" stroke="url(#e)" stroke-opacity=".88" stroke-width="1.2" rx="4.4"/><defs><clipPath id="a"><rect width="79" height="21" fill="#fff" rx="5"/></clipPath><clipPath id="c"><path fill="#fff" d="M5 5h16v11H5z"/></clipPath><filter id="b" width="27.2" height="27.2" x="-.6" y="-3.1" color-interpolation-filters="sRGB" filterUnits="userSpaceOnUse"><feFlood flood-opacity="0" result="BackgroundImageFix"/><feColorMatrix in="SourceAlpha" result="hardAlpha" values="0 0 0 0 0 0 0 0 0 0 0 0 0 0 0 0 0 0 127 0"/><feOffset/><feGaussianBlur stdDeviation="2.8"/><feComposite in2="hardAlpha" operator="out"/><feColorMatrix values="0 0 0 0 0 0 0 0 0 0 0 0 0 0 0 0 0 0 0.25 0"/><feBlend in2="BackgroundImageFix" result="effect1_dropShadow_2013_84"/><feBlend in="SourceGraphic" in2="effect1_dropShadow_2013_84" result="shape"/></filter><filter id="d" width="62.43" height="27.43" x="17.29" y="-3.21" color-interpolation-filters="sRGB" filterUnits="userSpaceOnUse"><feFlood flood-opacity="0" result="BackgroundImageFix"/><feColorMatrix in="SourceAlpha" result="hardAlpha" values="0 0 0 0 0 0 0 0 0 0 0 0 0 0 0 0 0 0 127 0"/><feOffset/><feGaussianBlur stdDeviation="2.86"/><feComposite in2="hardAlpha" operator="out"/><feColorMatrix values="0 0 0 0 0 0 0 0 0 0 0 0 0 0 0 0 0 0 0.25 0"/><feBlend in2="BackgroundImageFix" result="effect1_dropShadow_2013_84"/><feBlend in="SourceGraphic" in2="effect1_dropShadow_2013_84" result="shape"/></filter><linearGradient id="e" x1="0" x2="79" y1="10.5" y2="10.5" gradientUnits="userSpaceOnUse"><stop stop-color="#6F2C10"/><stop offset="1" stop-color="#925B28"/></linearGradient></defs></svg>