<svg xmlns="http://www.w3.org/2000/svg" width="141" height="21" fill="none" viewBox="0 0 141 21"><rect width="141" height="21" fill="currentColor" class="fill" rx="5"/><rect width="139.8" height="19.8" x=".6" y=".6" stroke="url(#paint0_linear_2026_2)" stroke-opacity=".75" stroke-width="1.2" rx="4.4"/><g clip-path="url(#clip0_2026_2)"><path fill="currentColor" d="M8.468 4.868c1.835 1.26 3.808 3.816 4.532 5.187v3.623c0-.078-.033.01-.102.197-.378 1.017-1.855 4.983-5.231 1.812-1.778-1.67-.955-3.339 2.281-3.843-1.851.288-3.933-.188-4.504-2.056C5.28 9.251 5 5.941 5 5.494c0-2.24 2.145-1.535 3.468-.626Zm9.064 0c-1.835 1.26-3.808 3.816-4.532 5.187v3.623c0-.078.033.01.102.197.378 1.017 1.855 4.983 5.231 1.812 1.778-1.67.955-3.339-2.281-3.843 1.851.288 3.933-.188 4.503-2.056.165-.537.445-3.847.445-4.294 0-2.24-2.145-1.535-3.468-.626Z" class="base"/></g><path fill="currentColor" d="M24.039 15.5V6.045h5.863v1.228h-4.437v2.881h4.017v1.223h-4.017V15.5H24.04Zm9.972.143c-.664 0-1.245-.152-1.74-.457a3.082 3.082 0 0 1-1.154-1.279c-.274-.547-.41-1.188-.41-1.92 0-.736.136-1.379.41-1.93.274-.55.659-.979 1.154-1.283.495-.305 1.076-.457 1.74-.457.665 0 1.245.152 1.74.457.496.304.881.732 1.155 1.283.274.551.41 1.194.41 1.93 0 .732-.136 1.373-.41 1.92a3.082 3.082 0 0 1-1.154 1.28c-.496.304-1.076.456-1.74.456Zm.005-1.159c.43 0 .788-.114 1.071-.341.283-.228.492-.531.628-.91.138-.378.208-.795.208-1.25 0-.453-.07-.869-.208-1.247a2.03 2.03 0 0 0-.628-.919c-.283-.23-.64-.346-1.07-.346-.435 0-.795.115-1.081.346-.283.23-.494.537-.633.919a3.674 3.674 0 0 0-.203 1.246c0 .456.068.873.203 1.251.139.379.35.682.633.91.286.227.646.341 1.08.341Zm6.222-8.439V15.5h-1.38V6.045h1.38Zm3.237 0V15.5h-1.38V6.045h1.38Zm4.844 9.598c-.665 0-1.245-.152-1.74-.457a3.082 3.082 0 0 1-1.154-1.279c-.274-.547-.411-1.188-.411-1.92 0-.736.137-1.379.41-1.93.274-.55.66-.979 1.155-1.283.495-.305 1.075-.457 1.74-.457s1.245.152 1.74.457c.496.304.88.732 1.155 1.283.273.551.41 1.194.41 1.93 0 .732-.137 1.373-.41 1.92a3.082 3.082 0 0 1-1.154 1.28c-.496.304-1.076.456-1.74.456Zm.005-1.159c.43 0 .788-.114 1.07-.341.284-.228.493-.531.629-.91.138-.378.207-.795.207-1.25 0-.453-.069-.869-.207-1.247a2.03 2.03 0 0 0-.628-.919c-.283-.23-.64-.346-1.071-.346-.434 0-.794.115-1.08.346-.284.23-.495.537-.633.919a3.674 3.674 0 0 0-.203 1.246c0 .456.067.873.203 1.251.139.379.35.682.632.91.287.227.647.341 1.08.341Zm6.163 1.016L52.4 8.41h1.427l1.39 5.207h.068l1.395-5.208h1.426l1.385 5.184h.07l1.38-5.184h1.426L60.285 15.5h-1.408l-1.44-5.12h-.107l-1.44 5.12h-1.403Zm15.617.143c-.665 0-1.245-.152-1.74-.457a3.082 3.082 0 0 1-1.154-1.279c-.274-.547-.411-1.188-.411-1.92 0-.736.137-1.379.41-1.93.275-.55.66-.979 1.155-1.283.495-.305 1.075-.457 1.74-.457s1.245.152 1.74.457c.496.304.88.732 1.155 1.283.274.551.41 1.194.41 1.93 0 .732-.136 1.373-.41 1.92a3.082 3.082 0 0 1-1.154 1.28c-.496.304-1.076.456-1.74.456Zm.005-1.159c.43 0 .788-.114 1.07-.341.284-.228.493-.531.629-.91.138-.378.207-.795.207-1.25 0-.453-.069-.869-.207-1.247a2.03 2.03 0 0 0-.628-.919c-.283-.23-.64-.346-1.071-.346-.434 0-.794.115-1.08.346-.284.23-.494.537-.633.919a3.677 3.677 0 0 0-.203 1.246c0 .456.068.873.203 1.251.139.379.35.682.633.91.286.227.646.341 1.08.341Zm6.222-3.194v4.21h-1.38V8.41h1.324v1.153h.088c.163-.375.419-.677.766-.905.351-.227.793-.341 1.325-.341.484 0 .907.101 1.27.304.363.2.645.499.845.896.2.397.3.888.3 1.473v4.51h-1.38v-4.344c0-.514-.135-.916-.402-1.205-.268-.292-.636-.439-1.104-.439-.32 0-.604.07-.854.208a1.495 1.495 0 0 0-.586.61c-.142.264-.212.584-.212.96Z" class="tagline"/><path fill="currentColor" d="M84.716 15.5V6.045h3.942c.708 0 1.3.1 1.777.3.48.2.84.48 1.08.84.244.36.365.778.365 1.252 0 .36-.075.681-.226.965-.15.28-.358.512-.623.697a2.49 2.49 0 0 1-.919.387v.093c.382.018.734.121 1.057.31.327.187.588.449.785.784.197.332.296.726.296 1.182 0 .508-.13.961-.388 1.362-.259.397-.633.71-1.122.941-.49.228-1.083.342-1.782.342h-4.242ZM87 13.658h1.412c.496 0 .86-.094 1.094-.282.237-.187.356-.449.356-.784 0-.244-.057-.453-.17-.628a1.1 1.1 0 0 0-.486-.411 1.755 1.755 0 0 0-.752-.148H87v2.253Zm0-3.725h1.265c.249 0 .47-.042.664-.125a1.02 1.02 0 0 0 .453-.36.96.96 0 0 0 .166-.568c0-.317-.112-.566-.337-.748-.225-.181-.528-.272-.91-.272h-1.301v2.073Zm8.605-3.888V15.5h-2.258V6.045h2.258Zm6.012 6.394V8.41h2.252V15.5h-2.151v-1.32h-.074a2.06 2.06 0 0 1-.803 1.034c-.375.252-.829.378-1.362.378-.483 0-.908-.11-1.274-.332a2.264 2.264 0 0 1-.854-.928c-.203-.4-.306-.868-.31-1.403v-4.52H99.3v4.076c.003.385.105.688.305.91.2.222.472.332.817.332.225 0 .426-.049.605-.148.181-.101.324-.247.429-.438.108-.194.162-.428.162-.702Zm7.004 3.195c-.742 0-1.382-.146-1.921-.439a3.04 3.04 0 0 1-1.237-1.26c-.286-.548-.429-1.199-.429-1.953 0-.732.145-1.372.434-1.92.289-.551.697-.979 1.223-1.284.527-.307 1.147-.461 1.861-.461.504 0 .966.078 1.385.235.418.157.78.39 1.085.697.304.308.541.688.71 1.14.17.45.254.965.254 1.547v.563h-6.163v-1.31h4.063a1.27 1.27 0 0 0-.171-.643 1.16 1.16 0 0 0-.457-.438 1.32 1.32 0 0 0-.66-.162 1.35 1.35 0 0 0-.679.171 1.283 1.283 0 0 0-.66 1.108v1.334c0 .29.057.543.171.762.114.216.275.383.485.503.209.12.458.18.747.18.201 0 .382-.027.545-.083.163-.055.303-.137.42-.244.117-.108.205-.24.263-.397l2.073.06c-.086.464-.275.869-.568 1.214a2.873 2.873 0 0 1-1.14.798c-.471.188-1.015.282-1.634.282Zm10.709-5.06-2.073.056a.772.772 0 0 0-.175-.393.948.948 0 0 0-.374-.272 1.274 1.274 0 0 0-.526-.102 1.34 1.34 0 0 0-.67.157c-.181.105-.271.247-.268.425a.454.454 0 0 0 .167.36c.117.102.324.183.623.245l1.366.258c.708.136 1.234.36 1.579.674.348.314.523.73.526 1.247-.003.486-.147.91-.434 1.27-.283.36-.67.64-1.163.84-.492.196-1.055.295-1.689.295-1.013 0-1.812-.208-2.396-.623a2.33 2.33 0 0 1-.998-1.68l2.23-.056a.869.869 0 0 0 .383.59c.207.136.47.204.79.204.289 0 .524-.054.706-.162.182-.107.274-.25.277-.429a.456.456 0 0 0-.212-.383c-.139-.099-.356-.176-.651-.231l-1.237-.235c-.711-.13-1.241-.368-1.589-.716-.347-.35-.52-.797-.517-1.339-.003-.474.124-.878.379-1.214.255-.338.619-.597 1.089-.775.471-.179 1.027-.268 1.667-.268.96 0 1.717.201 2.271.605.554.4.861.95.919 1.652Zm3.323 3.066.009-2.692h.314l1.994-2.539h2.558l-2.964 3.638h-.596l-1.315 1.593Zm-2.036 1.86V6.045h2.257V15.5h-2.257Zm4.404 0-1.856-2.945 1.487-1.602 2.977 4.547h-2.608Zm4.847 2.66a4.34 4.34 0 0 1-.766-.066 3.114 3.114 0 0 1-.619-.161l.499-1.639c.222.074.422.117.6.13a.834.834 0 0 0 .466-.088c.133-.068.234-.19.305-.365l.088-.213-2.521-7.349h2.364l1.306 5.06h.074l1.325-5.06h2.378l-2.673 7.77c-.13.387-.313.729-.55 1.024a2.39 2.39 0 0 1-.909.702c-.37.17-.825.254-1.367.254Z" class="base"/><defs><linearGradient id="paint0_linear_2026_2" x1="0" x2="141" y1="10.5" y2="10.5" gradientUnits="userSpaceOnUse"><stop stop-color="#0B7AFF"/><stop offset="1" stop-color="#5BC8FF"/></linearGradient><clipPath id="clip0_2026_2"><path fill="currentColor" d="M5 4h16v13H5z" class="base"/></clipPath></defs><style>.fill{color:#fff}.base{color:#000}.tagline{color:#1a1a1a}@media (prefers-color-scheme:dark){.fill{color:#000}.base{color:#fff}.tagline{color:#e8e8e8}}</style></svg>