<svg fill="none" xmlns="http://www.w3.org/2000/svg" viewBox="0 0 103 21"><g clip-path="url(#a)"><rect width="103" height="21" rx="5" fill="#000"/><g filter="url(#b)"><g clip-path="url(#c)" fill="#fff"><path d="M16.413 7.64v-.8H21v1.6h-4.587v-.8Zm-2.88 0v-.8h1.707v1.6h-1.707v-.8ZM7.88 9.667V6.84h1.707v5.653H7.88V9.667Zm8.533 2.666V9.507h1.707v5.653h-1.707v-2.827Zm-2.88 0V9.507h1.707v5.653h-1.707v-2.827ZM10.653 11V6.84h1.707v8.32h-1.707V11ZM5 11V6.84h1.707v8.32H5V11Z"/></g></g><g filter="url(#d)"><path d="M24.039 15.5V6.045h1.426v8.227h4.284V15.5h-5.71Zm7.227 0V8.41h1.38v7.09h-1.38Zm.697-8.185a.877.877 0 0 1-.619-.24.78.78 0 0 1-.254-.582.77.77 0 0 1 .254-.581.868.868 0 0 1 .619-.245c.24 0 .445.081.614.245.172.16.258.354.258.581a.774.774 0 0 1-.258.582.862.862 0 0 1-.614.24Zm5.527 8.328c-.686 0-1.277-.155-1.773-.466a3.087 3.087 0 0 1-1.135-1.297c-.265-.551-.397-1.182-.397-1.893 0-.72.135-1.356.406-1.907.27-.554.652-.986 1.145-1.297.492-.31 1.072-.466 1.74-.466.539 0 1.019.1 1.44.3.422.197.762.474 1.02.83.262.358.418.775.467 1.252H39.06a1.61 1.61 0 0 0-.508-.859c-.262-.24-.613-.36-1.053-.36-.385 0-.721.102-1.01.305-.287.2-.51.486-.67.858-.16.37-.24.807-.24 1.311 0 .518.078.964.235 1.34.157.375.379.666.665.872.29.206.63.31 1.02.31.262 0 .499-.049.711-.144.216-.099.396-.239.54-.42.148-.182.251-.4.31-.656h1.343a2.61 2.61 0 0 1-.448 1.228 2.58 2.58 0 0 1-1.002.85c-.415.206-.903.31-1.463.31Zm7.445 0c-.698 0-1.3-.15-1.805-.448a3.038 3.038 0 0 1-1.163-1.27c-.271-.547-.407-1.189-.407-1.924 0-.727.136-1.367.407-1.92a3.154 3.154 0 0 1 1.145-1.298c.492-.31 1.068-.466 1.726-.466.4 0 .788.066 1.164.198.375.133.712.34 1.01.623.3.284.535.651.707 1.104.172.45.258.995.258 1.639v.489h-5.636v-1.034h4.284c0-.363-.074-.685-.222-.965a1.675 1.675 0 0 0-.623-.67 1.741 1.741 0 0 0-.933-.244 1.8 1.8 0 0 0-1.015.286 1.92 1.92 0 0 0-.665.739c-.154.302-.23.63-.23.983v.808c0 .474.082.877.248 1.21.17.332.405.586.707.761.301.173.654.259 1.057.259.262 0 .5-.037.716-.111a1.485 1.485 0 0 0 .919-.9l1.306.235a2.365 2.365 0 0 1-.563 1.011 2.73 2.73 0 0 1-1.011.67 3.785 3.785 0 0 1-1.38.235Zm5.954-4.353v4.21h-1.38V8.41h1.325v1.153h.088c.163-.375.418-.677.766-.905.35-.227.792-.341 1.325-.341.483 0 .906.101 1.27.304.363.2.644.499.844.896.2.397.3.888.3 1.473v4.51h-1.38v-4.344c0-.514-.134-.916-.402-1.205-.267-.292-.635-.439-1.103-.439-.32 0-.605.07-.854.208a1.495 1.495 0 0 0-.586.61c-.142.264-.213.584-.213.96Zm11.703-1.15-1.251.222a1.48 1.48 0 0 0-.25-.457 1.233 1.233 0 0 0-.452-.356c-.19-.092-.43-.138-.715-.138-.391 0-.717.088-.979.263-.262.172-.392.396-.392.67 0 .236.087.427.263.572.175.144.458.263.85.355l1.126.259c.652.15 1.138.383 1.458.697.32.314.48.722.48 1.223 0 .425-.123.804-.369 1.136-.243.33-.583.588-1.02.775-.434.188-.937.282-1.51.282-.794 0-1.442-.17-1.943-.508-.502-.341-.81-.826-.923-1.454l1.334-.203c.083.348.254.61.512.79.259.175.596.262 1.011.262.453 0 .814-.093 1.085-.281.27-.19.406-.423.406-.697a.725.725 0 0 0-.249-.559c-.163-.15-.414-.264-.752-.341l-1.2-.263c-.663-.151-1.152-.391-1.469-.72-.314-.33-.47-.747-.47-1.252 0-.418.116-.785.35-1.098.234-.314.557-.56.97-.734.412-.179.884-.268 1.417-.268.766 0 1.37.166 1.81.498.44.33.73.771.872 1.325Zm4.712 5.503c-.698 0-1.3-.15-1.805-.448a3.037 3.037 0 0 1-1.163-1.27c-.27-.547-.406-1.189-.406-1.924 0-.727.135-1.367.406-1.92a3.155 3.155 0 0 1 1.145-1.298c.492-.31 1.068-.466 1.726-.466.4 0 .788.066 1.164.198.375.133.712.34 1.01.623.3.284.535.651.707 1.104.172.45.259.995.259 1.639v.489H64.71v-1.034h4.284c0-.363-.074-.685-.222-.965a1.676 1.676 0 0 0-.623-.67 1.741 1.741 0 0 0-.932-.244 1.8 1.8 0 0 0-1.016.286 1.922 1.922 0 0 0-.665.739c-.154.302-.23.63-.23.983v.808c0 .474.082.877.249 1.21.169.332.404.586.706.761.302.173.654.259 1.057.259.262 0 .5-.037.716-.111a1.484 1.484 0 0 0 .919-.9l1.306.235a2.367 2.367 0 0 1-.563 1.011 2.73 2.73 0 0 1-1.011.67 3.784 3.784 0 0 1-1.38.235Z" fill="#E8E8E8"/><path d="M73.716 6.045h2.83l2.4 5.854h.11l2.401-5.854h2.83V15.5h-2.225V9.692h-.078l-2.272 5.748H78.29l-2.27-5.78h-.08v5.84h-2.224V6.045Zm14.282 0V15.5h-2.285V6.045h2.285Zm1.125 1.856V6.045h7.991v1.856h-2.867V15.5h-2.252V7.901h-2.872Z" fill="#fff"/></g></g><rect x=".6" y=".6" width="101.8" height="19.8" rx="4.4" stroke="url(#e)" stroke-opacity=".88" stroke-width="1.2"/><defs><clipPath id="a"><rect width="103" height="21" rx="5" fill="#fff"/></clipPath><clipPath id="c"><path fill="#fff" transform="translate(5 3)" d="M0 0h16v16H0z"/></clipPath><filter id="b" x="-.6" y="-3.1" width="27.201" height="27.701" filterUnits="userSpaceOnUse" color-interpolation-filters="sRGB"><feFlood flood-opacity="0" result="BackgroundImageFix"/><feColorMatrix in="SourceAlpha" values="0 0 0 0 0 0 0 0 0 0 0 0 0 0 0 0 0 0 127 0" result="hardAlpha"/><feOffset/><feGaussianBlur stdDeviation="2.8"/><feComposite in2="hardAlpha" operator="out"/><feColorMatrix values="0 0 0 0 0 0 0 0 0 0 0 0 0 0 0 0 0 0 0.25 0"/><feBlend in2="BackgroundImageFix" result="effect1_dropShadow_2011_59"/><feBlend in="SourceGraphic" in2="effect1_dropShadow_2011_59" result="shape"/></filter><filter id="d" x="17.286" y="-3.214" width="86.428" height="27.429" filterUnits="userSpaceOnUse" color-interpolation-filters="sRGB"><feFlood flood-opacity="0" result="BackgroundImageFix"/><feColorMatrix in="SourceAlpha" values="0 0 0 0 0 0 0 0 0 0 0 0 0 0 0 0 0 0 127 0" result="hardAlpha"/><feOffset/><feGaussianBlur stdDeviation="2.857"/><feComposite in2="hardAlpha" operator="out"/><feColorMatrix values="0 0 0 0 0 0 0 0 0 0 0 0 0 0 0 0 0 0 0.25 0"/><feBlend in2="BackgroundImageFix" result="effect1_dropShadow_2011_59"/><feBlend in="SourceGraphic" in2="effect1_dropShadow_2011_59" result="shape"/></filter><linearGradient id="e" x1="0" y1="10.5" x2="103" y2="10.5" gradientUnits="userSpaceOnUse"><stop stop-color="#A31F34"/><stop offset=".495" stop-color="#93646F"/><stop offset="1" stop-color="#A31F34"/></linearGradient></defs></svg>