<svg xmlns="http://www.w3.org/2000/svg" width="103" height="21" fill="none"><g clip-path="url(#a)"><rect width="103" height="21" fill="#000" rx="5"/><g filter="url(#b)"><g fill="#fff" clip-path="url(#c)"><path d="M16.41 7.64v-.8H21v1.6h-4.59v-.8Zm-2.88 0v-.8h1.71v1.6h-1.71v-.8ZM7.88 9.67V6.84h1.71v5.65H7.88V9.67Zm8.53 2.66V9.51h1.71v5.65h-1.71v-2.83Zm-2.88 0V9.51h1.71v5.65h-1.71v-2.83ZM10.65 11V6.84h1.71v8.32h-1.71V11ZM5 11V6.84h1.71v8.32H5V11Z"/></g></g><g filter="url(#d)"><path fill="#E8E8E8" d="M24.04 15.5V6.05h1.43v8.22h4.28v1.23h-5.71Zm7.23 0V8.4h1.38v7.1h-1.38Zm.7-8.19a.88.88 0 0 1-.63-.24.78.78 0 0 1-.25-.58c0-.22.09-.42.25-.58a.87.87 0 0 1 .62-.24c.24 0 .45.08.62.24.17.16.26.36.26.58a.86.86 0 0 1-.87.82Zm5.52 8.33c-.69 0-1.28-.15-1.77-.46-.5-.32-.87-.75-1.14-1.3a4.32 4.32 0 0 1-.4-1.9c0-.71.14-1.35.41-1.9a3.1 3.1 0 0 1 1.15-1.3 3.2 3.2 0 0 1 1.74-.46c.53 0 1.01.1 1.44.3a2.51 2.51 0 0 1 1.49 2.08h-1.35a1.61 1.61 0 0 0-.5-.86 1.5 1.5 0 0 0-1.06-.36c-.39 0-.72.1-1.01.3a2 2 0 0 0-.67.86 3.3 3.3 0 0 0-.24 1.31c0 .52.08.97.23 1.34.16.38.38.67.67.88.29.2.63.3 1.02.3.26 0 .5-.04.71-.14.22-.1.4-.24.54-.42.15-.18.25-.4.31-.65h1.34a2.58 2.58 0 0 1-1.45 2.08c-.41.2-.9.3-1.46.3Zm7.45 0c-.7 0-1.3-.15-1.81-.44-.5-.3-.89-.73-1.16-1.27a4.3 4.3 0 0 1-.41-1.93c0-.73.14-1.37.4-1.92.28-.55.66-.99 1.15-1.3A3.47 3.47 0 0 1 46 8.51a2.82 2.82 0 0 1 1.72 1.73c.17.45.26 1 .26 1.64v.49h-5.64v-1.03h4.28c0-.37-.07-.69-.22-.97a1.67 1.67 0 0 0-1.55-.91c-.39 0-.73.1-1.02.28a2.06 2.06 0 0 0-.89 1.73v.8c0 .48.08.88.25 1.21.16.33.4.59.7.76.3.18.66.26 1.06.26.26 0 .5-.03.71-.1a1.48 1.48 0 0 0 .92-.9l1.31.23a2.58 2.58 0 0 1-1.57 1.68c-.4.15-.87.23-1.38.23Zm5.95-4.35v4.21H49.5V8.4h1.32v1.16h.1c.15-.37.41-.67.76-.9.35-.23.79-.34 1.32-.34.49 0 .9.1 1.27.3.37.2.65.5.85.9.2.4.3.88.3 1.47v4.51h-1.38v-4.34c0-.52-.14-.92-.4-1.2-.27-.3-.64-.45-1.1-.45-.33 0-.61.07-.86.21a1.5 1.5 0 0 0-.59.6c-.14.27-.21.6-.21.97Zm11.7-1.15-1.25.22a1.48 1.48 0 0 0-.25-.46 1.23 1.23 0 0 0-.45-.35c-.2-.1-.43-.14-.72-.14-.39 0-.71.09-.98.26-.26.18-.39.4-.39.67 0 .24.09.43.27.58.17.14.45.26.85.35l1.12.26c.65.15 1.14.38 1.46.7.32.31.48.72.48 1.22 0 .43-.12.8-.37 1.14-.24.33-.58.58-1.02.77-.43.19-.94.28-1.5.28a3.4 3.4 0 0 1-1.95-.5 2.2 2.2 0 0 1-.93-1.46l1.34-.2c.08.35.25.6.51.79.26.17.6.26 1.01.26.45 0 .82-.1 1.09-.28.27-.2.4-.42.4-.7 0-.22-.08-.4-.25-.56a1.63 1.63 0 0 0-.75-.34l-1.2-.26a2.88 2.88 0 0 1-1.47-.72 1.74 1.74 0 0 1-.47-1.25c0-.42.12-.79.35-1.1.24-.32.56-.56.97-.74a3.7 3.7 0 0 1 1.42-.26c.77 0 1.37.16 1.8.5.45.32.74.77.88 1.32Zm4.71 5.5a3.04 3.04 0 0 1-2.97-1.72 4.3 4.3 0 0 1-.4-1.92c0-.73.14-1.37.4-1.92.28-.55.66-.99 1.15-1.3a3.47 3.47 0 0 1 2.89-.27 2.82 2.82 0 0 1 1.72 1.73c.17.45.26 1 .26 1.64v.49H64.7v-1.03h4.28c0-.37-.07-.69-.22-.97a1.68 1.68 0 0 0-1.55-.91c-.4 0-.73.1-1.02.28a2.03 2.03 0 0 0-.89 1.73v.8c0 .48.08.88.24 1.21.17.33.4.59.71.76.3.18.66.26 1.06.26.26 0 .5-.03.71-.1a1.48 1.48 0 0 0 .92-.9l1.3.23a2.54 2.54 0 0 1-1.57 1.68c-.4.15-.86.23-1.38.23Z"/><path fill="#fff" d="M73.72 6.05h2.83l2.4 5.85h.1l2.4-5.85h2.84v9.45h-2.23V9.7h-.08l-2.27 5.74H78.3l-2.27-5.78h-.08v5.84h-2.22V6.05Zm14.28 0v9.45h-2.3V6.05H88Zm1.12 1.85V6.05h8V7.9h-2.87v7.6h-2.26V7.9h-2.87Z"/></g></g><rect width="101.8" height="19.8" x=".6" y=".6" stroke="url(#e)" stroke-opacity=".88" stroke-width="1.2" rx="4.4"/><defs><clipPath id="a"><rect width="103" height="21" fill="#fff" rx="5"/></clipPath><clipPath id="c"><path fill="#fff" d="M5 3h16v16H5z"/></clipPath><filter id="b" width="27.2" height="27.7" x="-.6" y="-3.1" color-interpolation-filters="sRGB" filterUnits="userSpaceOnUse"><feFlood flood-opacity="0" result="BackgroundImageFix"/><feColorMatrix in="SourceAlpha" result="hardAlpha" values="0 0 0 0 0 0 0 0 0 0 0 0 0 0 0 0 0 0 127 0"/><feOffset/><feGaussianBlur stdDeviation="2.8"/><feComposite in2="hardAlpha" operator="out"/><feColorMatrix values="0 0 0 0 0 0 0 0 0 0 0 0 0 0 0 0 0 0 0.25 0"/><feBlend in2="BackgroundImageFix" result="effect1_dropShadow_2011_59"/><feBlend in="SourceGraphic" in2="effect1_dropShadow_2011_59" result="shape"/></filter><filter id="d" width="86.43" height="27.43" x="17.29" y="-3.21" color-interpolation-filters="sRGB" filterUnits="userSpaceOnUse"><feFlood flood-opacity="0" result="BackgroundImageFix"/><feColorMatrix in="SourceAlpha" result="hardAlpha" values="0 0 0 0 0 0 0 0 0 0 0 0 0 0 0 0 0 0 127 0"/><feOffset/><feGaussianBlur stdDeviation="2.86"/><feComposite in2="hardAlpha" operator="out"/><feColorMatrix values="0 0 0 0 0 0 0 0 0 0 0 0 0 0 0 0 0 0 0.25 0"/><feBlend in2="BackgroundImageFix" result="effect1_dropShadow_2011_59"/><feBlend in="SourceGraphic" in2="effect1_dropShadow_2011_59" result="shape"/></filter><linearGradient id="e" x1="0" x2="103" y1="10.5" y2="10.5" gradientUnits="userSpaceOnUse"><stop stop-color="#A31F34"/><stop offset=".49" stop-color="#93646F"/><stop offset="1" stop-color="#A31F34"/></linearGradient></defs></svg>