<svg xmlns="http://www.w3.org/2000/svg" width="121" height="21" fill="none" viewBox="0 0 121 21"><rect width="119.8" height="19.8" x=".6" y=".6" fill="currentColor" class="fill" rx="4.4"/><rect width="119.8" height="19.8" x=".6" y=".6" stroke="url(#paint0_linear_2100_2)" stroke-width="1.2" rx="4.4"/><g clip-path="url(#clip0_2100_2)"><path fill="currentColor" d="M9.269 16.314c-.726-.608-.938-1.887-.636-2.814.525.584 1.252.77 2.004.874 1.162.161 2.304.1 3.383-.386.124-.056.238-.13.373-.205.101.269.127.541.092.818-.086.675-.452 1.196-1.034 1.59-.233.159-.479.3-.72.449-.738.458-.938.994-.66 1.775l.027.085a1.905 1.905 0 0 1-.862-.677 1.79 1.79 0 0 1-.333-1.033c-.003-.182-.003-.366-.03-.545-.065-.438-.289-.634-.71-.645-.434-.012-.777.234-.868.62-.007.03-.017.06-.027.094ZM5 13s2.194-1.002 4.393-1.002l1.659-4.813c.062-.233.243-.391.448-.391.205 0 .386.158.448.39l1.659 4.814C16.212 11.998 18 13 18 13l-3.733-9.537C14.16 3.18 13.979 3 13.736 3H9.265c-.244 0-.417.181-.531.463L5 13Z" class="base"/></g><path fill="currentColor" d="M21.039 15.5V6.045H24.5c.671 0 1.226.111 1.667.333.44.218.769.515.988.89.218.373.327.793.327 1.261 0 .394-.072.726-.217.997a1.786 1.786 0 0 1-.581.647c-.24.16-.505.277-.794.35v.093c.314.015.62.117.918.305.302.184.551.447.748.789.197.341.296.757.296 1.246 0 .484-.114.918-.342 1.302-.225.382-.572.685-1.043.91-.471.221-1.073.332-1.805.332h-3.624Zm1.426-1.223h2.06c.682 0 1.172-.133 1.467-.397.296-.265.443-.596.443-.993 0-.299-.075-.572-.226-.822a1.616 1.616 0 0 0-.646-.595c-.277-.148-.606-.222-.988-.222h-2.11v3.029Zm0-4.141h1.911c.32 0 .608-.062.864-.185a1.51 1.51 0 0 0 .614-.517c.154-.225.23-.49.23-.794 0-.391-.136-.719-.41-.983-.274-.265-.694-.397-1.26-.397h-1.949v2.876Zm11.46 2.423V8.41h1.386V15.5h-1.358v-1.228h-.074a2.213 2.213 0 0 1-.784.946c-.357.25-.802.374-1.334.374-.456 0-.86-.1-1.21-.3a2.109 2.109 0 0 1-.822-.9c-.197-.397-.295-.888-.295-1.473V8.41h1.38v4.344c0 .483.134.868.402 1.154.267.287.615.43 1.043.43.259 0 .516-.065.771-.194.258-.13.472-.325.642-.587.172-.261.257-.593.254-.997Zm3.24 2.941V8.41h1.38v7.09h-1.38Zm.697-8.185a.877.877 0 0 1-.618-.24.78.78 0 0 1-.254-.582.77.77 0 0 1 .254-.581.868.868 0 0 1 .618-.245c.24 0 .445.081.614.245.173.16.259.354.259.581a.774.774 0 0 1-.259.582.861.861 0 0 1-.614.24Zm3.92-1.27V15.5h-1.38V6.045h1.38ZM46.95 8.41v1.108h-3.873V8.409h3.873ZM44.115 6.71h1.38v6.708c0 .268.04.47.12.605.08.132.184.223.31.272.13.046.27.07.42.07.11 0 .208-.008.29-.024.084-.015.149-.027.195-.037l.25 1.14a2.703 2.703 0 0 1-.896.148 2.428 2.428 0 0 1-1.016-.194 1.742 1.742 0 0 1-.762-.627c-.194-.284-.29-.639-.29-1.067V6.71Zm9.34 8.79-2.087-7.09h1.426l1.39 5.207h.07l1.393-5.208h1.427l1.385 5.184h.069l1.38-5.184h1.427L59.253 15.5h-1.408l-1.44-5.12h-.107l-1.44 5.12h-1.404Zm9.19 0V8.41h1.38v7.09h-1.38Zm.697-8.185a.877.877 0 0 1-.619-.24.78.78 0 0 1-.254-.582.77.77 0 0 1 .254-.581.868.868 0 0 1 .619-.245c.24 0 .444.081.614.245.172.16.258.354.258.581a.774.774 0 0 1-.258.582.862.862 0 0 1-.614.24Zm5.85 1.094v1.108h-3.873V8.409h3.873ZM66.358 6.71h1.38v6.708c0 .268.04.47.12.605.08.132.183.223.31.272.128.046.268.07.42.07.11 0 .207-.008.29-.024.083-.015.148-.027.194-.037l.25 1.14a2.703 2.703 0 0 1-.896.148 2.428 2.428 0 0 1-1.016-.194 1.742 1.742 0 0 1-.762-.627c-.194-.284-.29-.639-.29-1.067V6.71Zm5.894 4.58v4.21h-1.38V6.045h1.361v3.518h.088c.166-.381.42-.685.761-.91.342-.224.788-.336 1.34-.336.486 0 .91.1 1.273.3.367.2.65.498.85.895.203.394.305.887.305 1.478v4.51h-1.38v-4.344c0-.52-.135-.923-.402-1.21-.268-.289-.64-.434-1.118-.434-.326 0-.618.07-.877.208a1.498 1.498 0 0 0-.604.61c-.145.264-.217.584-.217.96Z" class="tagline"/><path fill="currentColor" d="M82.76 15.5h-2.455l3.19-9.455h3.042l3.19 9.455H87.27l-2.22-7.072h-.075L82.761 15.5Zm-.327-3.72h5.133v1.735h-5.133v-1.736Zm14.287-1.206-2.073.056a.774.774 0 0 0-.175-.393.944.944 0 0 0-.374-.272 1.274 1.274 0 0 0-.527-.102c-.261 0-.484.053-.67.157-.18.105-.27.247-.267.425a.453.453 0 0 0 .166.36c.117.102.325.183.624.245l1.366.258c.708.136 1.234.36 1.579.674.348.314.523.73.526 1.247-.003.486-.148.91-.434 1.27-.283.36-.67.64-1.163.84-.493.196-1.056.295-1.69.295-1.012 0-1.811-.208-2.396-.623-.581-.419-.914-.979-.997-1.68l2.23-.056a.87.87 0 0 0 .383.59c.206.136.47.204.79.204.289 0 .524-.054.706-.162.181-.107.274-.25.277-.429a.455.455 0 0 0-.213-.383c-.138-.099-.355-.176-.65-.231l-1.238-.236c-.71-.129-1.24-.367-1.588-.715-.348-.35-.52-.797-.517-1.339-.003-.474.123-.878.379-1.214.255-.338.618-.597 1.09-.775.47-.179 1.026-.268 1.666-.268.96 0 1.717.201 2.271.605.554.4.86.95.919 1.652Zm5.289-2.165v1.662h-4.473V8.409h4.473ZM98.473 6.71h2.257v6.56c0 .139.022.251.065.337a.402.402 0 0 0 .198.18c.087.034.19.051.31.051.086 0 .177-.008.272-.023.099-.018.172-.034.222-.046l.341 1.63c-.107.03-.26.069-.457.115a3.797 3.797 0 0 1-.697.088c-.529.024-.983-.037-1.362-.185a1.766 1.766 0 0 1-.863-.702c-.197-.317-.292-.715-.286-1.195V6.71Zm4.688 8.79V8.41h2.193v1.292h.074c.129-.468.34-.816.632-1.044.292-.23.632-.346 1.02-.346.105 0 .213.008.323.023.111.013.214.033.31.06v1.962a2.18 2.18 0 0 0-.425-.087 3.765 3.765 0 0 0-.462-.033c-.267 0-.509.06-.724.18a1.29 1.29 0 0 0-.504.494c-.12.21-.18.456-.18.739v3.85h-2.257Zm8.413.134c-.744 0-1.385-.152-1.92-.457a3.155 3.155 0 0 1-1.233-1.284c-.286-.55-.429-1.189-.429-1.915 0-.73.143-1.368.429-1.916.29-.551.7-.979 1.233-1.284.535-.307 1.176-.461 1.92-.461.745 0 1.384.154 1.916.461.536.305.947.733 1.233 1.284.289.548.434 1.186.434 1.916 0 .726-.145 1.365-.434 1.915a3.11 3.11 0 0 1-1.233 1.284c-.532.305-1.171.457-1.916.457Zm.014-1.704c.271 0 .5-.083.688-.249.188-.166.331-.397.429-.692.102-.296.153-.637.153-1.025 0-.394-.051-.739-.153-1.034-.098-.296-.241-.527-.429-.693a1.001 1.001 0 0 0-.688-.25c-.28 0-.517.084-.711.25a1.564 1.564 0 0 0-.438.693c-.099.295-.148.64-.148 1.034 0 .388.049.73.148 1.025.101.295.247.526.438.692.194.166.431.25.711.25Z" class="base"/><defs><linearGradient id="paint0_linear_2100_2" x1="0" x2="121" y1="10.5" y2="10.5" gradientUnits="userSpaceOnUse"><stop stop-color="#DF376D"/><stop offset="1" stop-color="#7B1BBB"/></linearGradient><clipPath id="clip0_2100_2"><path fill="currentColor" d="M5 3h13v16H5z" class="base"/></clipPath></defs><style>.fill{color:#fff}.base{color:#000}.tagline{color:#1a1a1a}@media (prefers-color-scheme:dark){.fill{color:#000}.base{color:#fff}.tagline{color:#e8e8e8}}</style></svg>