<svg xmlns="http://www.w3.org/2000/svg" width="154" height="21" fill="none" viewBox="0 0 154 21"><rect width="154" height="21" fill="currentColor" class="fill" rx="5"/><rect width="152.8" height="19.8" x=".6" y=".6" stroke="url(#paint0_linear_2006_8)" stroke-opacity=".88" stroke-width="1.2" rx="4.4"/><path fill="currentColor" d="M19.944 6.41c-.216-1.583-1.613-2.831-3.27-3.073-.279-.04-1.337-.19-3.79-.19h-.018c-2.453 0-2.979.15-3.258.19-1.61.235-3.08 1.356-3.437 2.958-.172.79-.19 1.664-.158 2.466.045 1.151.054 2.3.16 3.446.073.761.2 1.516.382 2.26.339 1.373 1.711 2.515 3.056 2.981a8.293 8.293 0 0 0 4.472.233c.163-.037.325-.08.484-.13.36-.113.783-.24 1.093-.462a.034.034 0 0 0 .014-.027v-1.11a.032.032 0 0 0-.012-.026.033.033 0 0 0-.014-.006.033.033 0 0 0-.014 0c-.95.224-1.925.337-2.902.335-1.682 0-2.134-.788-2.264-1.117a3.423 3.423 0 0 1-.196-.88c0-.005 0-.01.002-.014a.032.032 0 0 1 .038-.019c.935.223 1.893.336 2.855.335.231 0 .462 0 .693-.006.967-.027 1.986-.075 2.938-.259.023-.005.047-.009.067-.015 1.501-.284 2.93-1.178 3.074-3.44.006-.09.02-.933.02-1.026 0-.314.102-2.228-.015-3.404Zm-2.31 5.645h-1.578V8.238c0-.804-.34-1.214-1.03-1.214-.757 0-1.137.485-1.137 1.443v2.09H12.32v-2.09c0-.958-.38-1.443-1.138-1.443-.686 0-1.028.41-1.029 1.214v3.817H8.576V8.122c0-.804.208-1.442.624-1.916.428-.472.99-.714 1.688-.714.808 0 1.418.306 1.825.92l.393.65.393-.65c.407-.614 1.017-.92 1.824-.92.697 0 1.259.242 1.689.714.415.473.623 1.112.623 1.916l-.001 3.933Z" class="base"/><path fill="currentColor" d="M24.039 15.5V6.045h5.863v1.228h-4.437v2.881h4.017v1.223h-4.017V15.5H24.04Zm9.972.143c-.664 0-1.245-.152-1.74-.457a3.082 3.082 0 0 1-1.154-1.279c-.274-.547-.41-1.188-.41-1.92 0-.736.136-1.379.41-1.93.274-.55.659-.979 1.154-1.283.495-.305 1.076-.457 1.74-.457.665 0 1.245.152 1.74.457.496.304.881.732 1.155 1.283.274.551.41 1.194.41 1.93 0 .732-.136 1.373-.41 1.92a3.082 3.082 0 0 1-1.154 1.28c-.496.304-1.076.456-1.74.456Zm.005-1.159c.43 0 .788-.114 1.071-.341.283-.228.492-.531.628-.91.138-.378.208-.795.208-1.25 0-.453-.07-.869-.208-1.247a2.03 2.03 0 0 0-.628-.919c-.283-.23-.64-.346-1.07-.346-.435 0-.795.115-1.081.346-.283.23-.494.537-.633.919a3.674 3.674 0 0 0-.203 1.246c0 .456.068.873.203 1.251.139.379.35.682.633.91.286.227.646.341 1.08.341Zm6.222-8.439V15.5h-1.38V6.045h1.38Zm3.237 0V15.5h-1.38V6.045h1.38Zm4.844 9.598c-.665 0-1.245-.152-1.74-.457a3.082 3.082 0 0 1-1.154-1.279c-.274-.547-.411-1.188-.411-1.92 0-.736.137-1.379.41-1.93.274-.55.66-.979 1.155-1.283.495-.305 1.075-.457 1.74-.457s1.245.152 1.74.457c.496.304.88.732 1.155 1.283.273.551.41 1.194.41 1.93 0 .732-.137 1.373-.41 1.92a3.082 3.082 0 0 1-1.154 1.28c-.496.304-1.076.456-1.74.456Zm.005-1.159c.43 0 .788-.114 1.07-.341.284-.228.493-.531.629-.91.138-.378.207-.795.207-1.25 0-.453-.069-.869-.207-1.247a2.03 2.03 0 0 0-.628-.919c-.283-.23-.64-.346-1.071-.346-.434 0-.794.115-1.08.346-.284.23-.495.537-.633.919a3.674 3.674 0 0 0-.203 1.246c0 .456.067.873.203 1.251.139.379.35.682.632.91.287.227.647.341 1.08.341Zm6.163 1.016L52.4 8.41h1.427l1.39 5.207h.068l1.395-5.208h1.426l1.385 5.184h.07l1.38-5.184h1.426L60.285 15.5h-1.408l-1.44-5.12h-.107l-1.44 5.12h-1.403Zm15.617.143c-.665 0-1.245-.152-1.74-.457a3.082 3.082 0 0 1-1.154-1.279c-.274-.547-.411-1.188-.411-1.92 0-.736.137-1.379.41-1.93.275-.55.66-.979 1.155-1.283.495-.305 1.075-.457 1.74-.457s1.245.152 1.74.457c.496.304.88.732 1.155 1.283.274.551.41 1.194.41 1.93 0 .732-.136 1.373-.41 1.92a3.082 3.082 0 0 1-1.154 1.28c-.496.304-1.076.456-1.74.456Zm.005-1.159c.43 0 .788-.114 1.07-.341.284-.228.493-.531.629-.91.138-.378.207-.795.207-1.25 0-.453-.069-.869-.207-1.247a2.03 2.03 0 0 0-.628-.919c-.283-.23-.64-.346-1.071-.346-.434 0-.794.115-1.08.346-.284.23-.494.537-.633.919a3.677 3.677 0 0 0-.203 1.246c0 .456.068.873.203 1.251.139.379.35.682.633.91.286.227.646.341 1.08.341Zm6.222-3.194v4.21h-1.38V8.41h1.324v1.153h.088c.163-.375.419-.677.766-.905.351-.227.793-.341 1.325-.341.484 0 .907.101 1.27.304.363.2.645.499.845.896.2.397.3.888.3 1.473v4.51h-1.38v-4.344c0-.514-.135-.916-.402-1.205-.268-.292-.636-.439-1.104-.439-.32 0-.604.07-.854.208a1.495 1.495 0 0 0-.586.61c-.142.264-.212.584-.212.96Z" class="tagline"/><path fill="currentColor" d="M84.716 6.045h2.83l2.4 5.854h.11l2.401-5.854h2.83V15.5h-2.225V9.692h-.078l-2.272 5.748H89.29l-2.27-5.78h-.08v5.84h-2.224V6.045Zm13.996 9.575c-.453 0-.855-.075-1.205-.226a1.877 1.877 0 0 1-.827-.693c-.2-.31-.3-.7-.3-1.168 0-.394.07-.726.208-.997.139-.27.33-.49.572-.66.243-.17.524-.297.84-.383.318-.09.656-.15 1.016-.18.403-.037.728-.075.974-.116.247-.043.425-.103.536-.18a.388.388 0 0 0 .171-.337v-.023c0-.237-.082-.42-.245-.549-.163-.13-.383-.194-.66-.194-.299 0-.539.065-.72.194a.854.854 0 0 0-.347.535l-2.082-.073c.062-.431.22-.816.476-1.155.258-.341.612-.609 1.062-.803.452-.197.995-.295 1.63-.295.452 0 .869.054 1.25.161.382.105.714.259.997.462.284.2.502.446.656.739.157.292.235.626.235 1.001v4.82h-2.123v-.988h-.056c-.126.24-.287.443-.484.61-.194.166-.423.29-.688.373a2.923 2.923 0 0 1-.886.125Zm.697-1.477c.243 0 .461-.05.655-.148.197-.098.354-.234.471-.406.117-.176.175-.379.175-.61v-.674a1.324 1.324 0 0 1-.235.093 5.314 5.314 0 0 1-.628.143l-.328.05a2.042 2.042 0 0 0-.544.158.86.86 0 0 0-.342.277.678.678 0 0 0-.115.397c0 .233.083.412.249.535.17.123.383.185.642.185Zm11.111-3.569-2.072.056a.773.773 0 0 0-.176-.393.94.94 0 0 0-.374-.272 1.27 1.27 0 0 0-.526-.102c-.262 0-.485.053-.669.157-.182.105-.271.247-.268.425a.453.453 0 0 0 .166.36c.117.102.325.183.623.245l1.367.258c.708.136 1.234.36 1.579.674.347.314.523.73.526 1.247-.003.486-.148.91-.434 1.27-.283.36-.671.64-1.163.84-.493.196-1.056.295-1.69.295-1.013 0-1.811-.208-2.396-.623a2.326 2.326 0 0 1-.997-1.68l2.23-.056a.869.869 0 0 0 .383.59c.206.136.469.204.789.204.29 0 .525-.054.707-.162.181-.107.273-.25.277-.429a.457.457 0 0 0-.213-.383c-.138-.099-.355-.176-.651-.231l-1.237-.235c-.711-.13-1.24-.368-1.588-.716-.348-.35-.52-.797-.517-1.339-.003-.474.123-.878.378-1.214.256-.338.619-.597 1.09-.775.471-.179 1.026-.268 1.667-.268.96 0 1.717.201 2.271.605.554.4.86.95.918 1.652Zm5.29-2.165v1.662h-4.474V8.409h4.474Zm-3.536-1.699h2.257v6.56c0 .139.022.251.065.337a.402.402 0 0 0 .198.18c.086.034.189.051.309.051.087 0 .177-.008.273-.023a4.18 4.18 0 0 0 .221-.046l.342 1.63c-.108.03-.26.069-.457.115a3.789 3.789 0 0 1-.697.088c-.529.024-.983-.037-1.362-.185a1.767 1.767 0 0 1-.863-.702c-.197-.317-.293-.715-.286-1.195V6.71Zm7.921 8.924c-.744 0-1.384-.152-1.92-.457a3.161 3.161 0 0 1-1.233-1.284c-.286-.55-.429-1.189-.429-1.915 0-.73.143-1.368.429-1.916.29-.551.701-.979 1.233-1.284.536-.307 1.176-.461 1.92-.461.745 0 1.384.154 1.916.461.536.305.947.733 1.233 1.284.289.548.434 1.186.434 1.916 0 .726-.145 1.365-.434 1.915a3.11 3.11 0 0 1-1.233 1.284c-.532.305-1.171.457-1.916.457Zm.014-1.704c.271 0 .5-.083.688-.249.188-.166.331-.397.43-.692.101-.296.152-.637.152-1.025 0-.394-.051-.739-.152-1.034-.099-.296-.242-.527-.43-.693a1.001 1.001 0 0 0-.688-.25c-.28 0-.517.084-.711.25-.19.166-.337.397-.438.693-.099.295-.148.64-.148 1.034 0 .388.049.73.148 1.025.101.295.248.526.438.692.194.166.431.25.711.25Zm7.315 1.672a2.61 2.61 0 0 1-1.426-.407c-.428-.27-.77-.677-1.025-1.218-.256-.542-.383-1.215-.383-2.018 0-.834.132-1.52.397-2.059.264-.538.611-.937 1.038-1.195a2.655 2.655 0 0 1 1.39-.388c.372 0 .691.064.955.194.265.126.484.289.656.489.172.2.303.408.392.623h.047V6.045h2.257V15.5h-2.234v-1.15h-.07c-.095.219-.23.424-.406.614-.175.191-.395.345-.66.462a2.26 2.26 0 0 1-.928.176Zm.785-1.76c.274 0 .508-.076.702-.23.194-.157.343-.377.447-.66.105-.283.157-.616.157-.998 0-.387-.052-.721-.157-1.001a1.375 1.375 0 0 0-.447-.646 1.11 1.11 0 0 0-.702-.227c-.28 0-.517.077-.711.231-.194.154-.342.37-.443.651-.099.28-.148.61-.148.992s.051.715.152.998c.102.283.248.503.439.66.194.154.431.23.711.23Zm8.251 1.792c-.745 0-1.385-.152-1.921-.457a3.152 3.152 0 0 1-1.232-1.284c-.287-.55-.43-1.189-.43-1.915 0-.73.143-1.368.43-1.916.289-.551.7-.979 1.232-1.284.536-.307 1.176-.461 1.921-.461.745 0 1.383.154 1.916.461.535.305.946.733 1.232 1.284.289.548.434 1.186.434 1.916 0 .726-.145 1.365-.434 1.915a3.115 3.115 0 0 1-1.232 1.284c-.533.305-1.171.457-1.916.457Zm.014-1.704c.27 0 .5-.083.687-.249.188-.166.331-.397.43-.692.101-.296.152-.637.152-1.025 0-.394-.051-.739-.152-1.034-.099-.296-.242-.527-.43-.693a.999.999 0 0 0-.687-.25c-.28 0-.517.084-.711.25-.191.166-.337.397-.439.693-.098.295-.148.64-.148 1.034 0 .388.05.73.148 1.025.102.295.248.526.439.692.194.166.431.25.711.25Zm6.982-2.474V15.5h-2.257V8.41h2.146v1.3h.079c.157-.433.424-.773.803-1.02.378-.249.829-.373 1.353-.373.498 0 .931.112 1.297.337.369.221.655.532.858.932.207.397.308.862.305 1.394v4.52h-2.257v-4.076c.003-.394-.097-.702-.3-.924-.2-.221-.479-.332-.836-.332-.237 0-.446.052-.628.157a1.04 1.04 0 0 0-.415.439c-.096.19-.145.421-.148.692Z" class="base"/><defs><linearGradient id="paint0_linear_2006_8" x1="0" x2="154" y1="10.5" y2="10.5" gradientUnits="userSpaceOnUse"><stop stop-color="#4D34B7"/><stop offset="1" stop-color="#5B5CFF"/></linearGradient></defs><style>.fill{color:#fff}.base{color:#000}.tagline{color:#1a1a1a}@media (prefers-color-scheme:dark){.fill{color:#000}.base{color:#fff}.tagline{color:#e8e8e8}}</style></svg>