<svg xmlns="http://www.w3.org/2000/svg" width="127" height="21" fill="none" viewBox="0 0 127 21"><rect width="125.8" height="19.8" x=".6" y=".6" fill="currentColor" class="fill" rx="4.4"/><rect width="125.8" height="19.8" x=".6" y=".6" stroke="url(#paint0_linear_2101_15)" stroke-width="1.2" rx="4.4"/><path fill="currentColor" d="M13.31 2.5a4.596 4.596 0 0 0-2.386.712L7.197 5.588a4.273 4.273 0 0 0-1.932 2.864 4.499 4.499 0 0 0 .444 2.89 4.291 4.291 0 0 0-.64 1.596 4.55 4.55 0 0 0 .781 3.445c1.488 2.128 4.42 2.756 6.544 1.405l3.727-2.376a4.273 4.273 0 0 0 1.933-2.864 4.499 4.499 0 0 0-.445-2.89 4.267 4.267 0 0 0 .64-1.596 4.582 4.582 0 0 0-.78-3.445A4.975 4.975 0 0 0 13.31 2.5Zm.125 1.82a2.965 2.965 0 0 1 2.499 1.272c.43.6.596 1.347.47 2.073-.023.119-.051.235-.091.347l-.069.213-.191-.141a4.81 4.81 0 0 0-1.46-.73l-.136-.043.014-.137a.816.816 0 0 0-.152-.553.892.892 0 0 0-.957-.354.758.758 0 0 0-.227.101L9.407 8.745a.776.776 0 0 0-.35.52c-.04.22.011.444.141.625a.892.892 0 0 0 .957.354.758.758 0 0 0 .228-.102l1.419-.906c.235-.148.488-.26.758-.332a2.966 2.966 0 0 1 3.179 1.177c.43.6.595 1.347.47 2.073a2.567 2.567 0 0 1-1.164 1.723l-3.727 2.376c-.235.148-.491.26-.758.332a2.966 2.966 0 0 1-3.179-1.177 2.748 2.748 0 0 1-.47-2.073c.022-.12.051-.235.091-.347l.069-.213.191.141c.44.325.936.57 1.46.73l.136.043-.014.137a.817.817 0 0 0 .152.553.892.892 0 0 0 .957.354.758.758 0 0 0 .227-.101l3.728-2.377a.776.776 0 0 0 .35-.52.816.816 0 0 0-.141-.625.892.892 0 0 0-.957-.354.758.758 0 0 0-.228.101l-1.419.907a2.74 2.74 0 0 1-.758.332 2.966 2.966 0 0 1-3.179-1.177 2.747 2.747 0 0 1-.47-2.073A2.567 2.567 0 0 1 8.27 7.123l3.727-2.376a2.738 2.738 0 0 1 1.438-.427Z" class="base"/><path fill="currentColor" d="M22.039 15.5V6.045H25.5c.671 0 1.226.111 1.667.333.44.218.769.515.988.89.218.373.327.793.327 1.261 0 .394-.072.726-.217.997a1.786 1.786 0 0 1-.581.647c-.24.16-.505.277-.794.35v.093c.314.015.62.117.918.305.302.184.551.447.748.789.197.341.296.757.296 1.246 0 .484-.114.918-.342 1.302-.225.382-.572.685-1.043.91-.471.221-1.073.332-1.805.332h-3.624Zm1.426-1.223h2.06c.682 0 1.172-.133 1.467-.397.296-.265.443-.596.443-.993 0-.299-.075-.572-.226-.822a1.616 1.616 0 0 0-.646-.595c-.277-.148-.606-.222-.988-.222h-2.11v3.029Zm0-4.141h1.911c.32 0 .608-.062.864-.185a1.51 1.51 0 0 0 .614-.517c.154-.225.23-.49.23-.794 0-.391-.136-.719-.41-.983-.274-.265-.694-.397-1.26-.397h-1.949v2.876Zm11.46 2.423V8.41h1.386V15.5h-1.358v-1.228h-.074a2.213 2.213 0 0 1-.784.946c-.357.25-.802.374-1.334.374-.456 0-.86-.1-1.21-.3a2.109 2.109 0 0 1-.822-.9c-.197-.397-.295-.888-.295-1.473V8.41h1.38v4.344c0 .483.134.868.402 1.154.267.287.615.43 1.043.43.259 0 .516-.065.771-.194.258-.13.472-.325.642-.587.172-.261.257-.593.254-.997Zm3.24 2.941V8.41h1.38v7.09h-1.38Zm.697-8.185a.877.877 0 0 1-.618-.24.78.78 0 0 1-.254-.582.77.77 0 0 1 .254-.581.868.868 0 0 1 .618-.245c.24 0 .445.081.614.245.173.16.259.354.259.581a.774.774 0 0 1-.259.582.861.861 0 0 1-.614.24Zm3.92-1.27V15.5h-1.38V6.045h1.38ZM47.95 8.41v1.108h-3.873V8.409h3.873ZM45.115 6.71h1.38v6.708c0 .268.04.47.12.605.08.132.184.223.31.272.13.046.27.07.42.07.11 0 .208-.008.29-.024.084-.015.149-.027.195-.037l.25 1.14a2.703 2.703 0 0 1-.896.148 2.428 2.428 0 0 1-1.016-.194 1.742 1.742 0 0 1-.762-.627c-.194-.284-.29-.639-.29-1.067V6.71Zm9.34 8.79-2.087-7.09h1.426l1.39 5.207h.07l1.393-5.208h1.427l1.385 5.184h.069l1.38-5.184h1.427L60.253 15.5h-1.408l-1.44-5.12h-.107l-1.44 5.12h-1.404Zm9.19 0V8.41h1.38v7.09h-1.38Zm.697-8.185a.877.877 0 0 1-.619-.24.78.78 0 0 1-.254-.582.77.77 0 0 1 .254-.581.868.868 0 0 1 .619-.245c.24 0 .445.081.614.245.172.16.258.354.258.581a.774.774 0 0 1-.258.582.862.862 0 0 1-.614.24Zm5.85 1.094v1.108h-3.873V8.409h3.873ZM67.358 6.71h1.38v6.708c0 .268.04.47.12.605.08.132.183.223.31.272.128.046.268.07.42.07.11 0 .207-.008.29-.024.083-.015.148-.027.194-.037l.25 1.14a2.703 2.703 0 0 1-.896.148 2.428 2.428 0 0 1-1.016-.194 1.742 1.742 0 0 1-.762-.627c-.194-.284-.29-.639-.29-1.067V6.71Zm5.894 4.58v4.21h-1.38V6.045h1.361v3.518h.088c.166-.381.42-.685.761-.91.342-.224.788-.336 1.34-.336.486 0 .91.1 1.273.3.367.2.65.498.85.895.203.394.305.887.305 1.478v4.51h-1.38v-4.344c0-.52-.135-.923-.402-1.21-.268-.289-.64-.434-1.118-.434-.326 0-.618.07-.877.208a1.498 1.498 0 0 0-.604.61c-.145.264-.217.584-.217.96Z" class="tagline"/><path fill="currentColor" d="M86.826 8.88c-.03-.339-.168-.602-.41-.79-.241-.19-.584-.286-1.03-.286-.296 0-.542.039-.739.116a.962.962 0 0 0-.443.318.768.768 0 0 0-.152.457.678.678 0 0 0 .083.374.938.938 0 0 0 .276.286c.124.08.271.151.444.213.172.061.366.115.581.161l.813.185c.468.102.88.237 1.237.406.36.17.662.371.905.605.246.234.432.503.558.808.127.305.191.646.194 1.025-.003.597-.153 1.11-.452 1.537-.299.428-.728.756-1.288.983-.557.228-1.23.342-2.017.342-.791 0-1.48-.118-2.069-.355-.587-.237-1.044-.598-1.37-1.08-.327-.484-.495-1.095-.504-1.833h2.188c.019.304.1.558.245.761.145.203.343.357.596.462.255.105.55.157.886.157.308 0 .57-.042.785-.125a1.14 1.14 0 0 0 .503-.346.818.818 0 0 0 .18-.508.7.7 0 0 0-.166-.457c-.108-.13-.274-.24-.499-.332a5.126 5.126 0 0 0-.85-.263l-.987-.231c-.819-.188-1.464-.491-1.934-.91-.471-.421-.705-.99-.702-1.708-.003-.584.154-1.097.47-1.537.318-.44.756-.783 1.316-1.03.56-.246 1.2-.369 1.916-.369.733 0 1.368.125 1.907.374.541.246.962.593 1.26 1.039.299.446.451.963.457 1.551h-2.188Zm10.35-.47-2.433 7.09h-2.585L89.73 8.41h2.377l1.307 4.883h.073L94.8 8.41h2.377Zm3.952 7.224c-.742 0-1.382-.146-1.92-.439a3.032 3.032 0 0 1-1.238-1.26c-.286-.548-.43-1.199-.43-1.953 0-.732.145-1.372.435-1.92.29-.551.697-.979 1.223-1.284.526-.307 1.147-.461 1.861-.461.504 0 .966.078 1.385.235.418.157.78.39 1.084.697.305.308.542.688.711 1.14.17.45.254.965.254 1.547v.563H98.33v-1.31h4.063a1.27 1.27 0 0 0-.171-.643 1.16 1.16 0 0 0-.457-.438 1.32 1.32 0 0 0-.66-.162c-.253 0-.479.057-.679.171a1.286 1.286 0 0 0-.66 1.108v1.334c0 .29.057.543.17.762.115.216.276.383.485.503.21.12.459.18.748.18.2 0 .382-.027.545-.083.163-.055.303-.137.42-.244.117-.108.205-.24.263-.397l2.073.06c-.086.464-.275.869-.568 1.214a2.873 2.873 0 0 1-1.14.798c-.471.188-1.016.282-1.634.282Zm6.776-9.589V15.5h-2.258V6.045h2.258Zm5.439 2.364v1.662h-4.473V8.409h4.473Zm-3.536-1.699h2.257v6.56c0 .139.022.251.065.337a.402.402 0 0 0 .198.18c.087.034.19.051.31.051.086 0 .177-.008.272-.023.099-.018.172-.034.222-.046l.341 1.63c-.107.03-.26.069-.457.115a3.797 3.797 0 0 1-.697.088c-.529.024-.983-.037-1.362-.185a1.767 1.767 0 0 1-.863-.702c-.197-.317-.292-.715-.286-1.195V6.71Zm7.926 8.924c-.741 0-1.382-.146-1.92-.439a3.028 3.028 0 0 1-1.237-1.26c-.287-.548-.43-1.199-.43-1.953 0-.732.145-1.372.434-1.92.29-.551.697-.979 1.224-1.284.526-.307 1.146-.461 1.86-.461.505 0 .966.078 1.385.235.419.157.78.39 1.085.697.305.308.542.688.711 1.14.169.45.254.965.254 1.547v.563h-6.163v-1.31h4.062a1.27 1.27 0 0 0-.171-.643 1.154 1.154 0 0 0-.457-.438 1.317 1.317 0 0 0-.66-.162c-.252 0-.478.057-.678.171-.2.111-.359.263-.476.457-.117.191-.178.408-.185.651v1.334c0 .29.057.543.171.762.114.216.276.383.485.503.209.12.459.18.748.18.2 0 .381-.027.545-.083.163-.055.303-.137.42-.244.117-.108.204-.24.263-.397l2.073.06c-.087.464-.276.869-.568 1.214-.29.341-.67.607-1.14.798-.471.188-1.016.282-1.635.282Z" class="base"/><defs><linearGradient id="paint0_linear_2101_15" x1="0" x2="127" y1="10.5" y2="10.5" gradientUnits="userSpaceOnUse"><stop stop-color="#FF3E00"/><stop offset="1" stop-color="#FF6A00"/></linearGradient></defs><style>.fill{color:#fff}.base{color:#000}.tagline{color:#1a1a1a}@media (prefers-color-scheme:dark){.fill{color:#000}.base{color:#fff}.tagline{color:#e8e8e8}}</style></svg>