<svg xmlns="http://www.w3.org/2000/svg" width="145" height="21" fill="none" viewBox="0 0 145 21"><rect width="145" height="21" fill="currentColor" class="fill" rx="5"/><rect width="143.8" height="19.8" x=".6" y=".6" stroke="url(#paint0_linear_2056_113)" stroke-opacity=".88" stroke-width="1.2" rx="4.4"/><path fill="currentColor" d="M13 4.9s-5.003 0-6.25.334a2.005 2.005 0 0 0-1.416 1.414C4.999 7.895 5 10.5 5 10.5s0 2.604.334 3.851c.184.689.727 1.23 1.416 1.414C7.997 16.1 13 16.1 13 16.1s5.003 0 6.25-.334a2.005 2.005 0 0 0 1.416-1.414C21.001 13.104 21 10.5 21 10.5s0-2.605-.334-3.852a2.005 2.005 0 0 0-1.416-1.414C18.003 4.899 13 4.9 13 4.9Zm-1.602 3.2 4.157 2.4-4.157 2.4V8.1Z" class="base"/><path fill="currentColor" d="m25.89 15.5-2.622-9.455h1.5l1.842 7.322h.088l1.916-7.322H30.1l1.916 7.327h.088l1.837-7.327h1.505L32.819 15.5h-1.436l-1.99-7.082h-.073L27.33 15.5h-1.44ZM38 15.657c-.45 0-.855-.083-1.218-.25a2.053 2.053 0 0 1-.864-.733c-.21-.32-.314-.713-.314-1.178 0-.4.077-.729.231-.988.154-.258.362-.463.623-.613.262-.151.554-.265.877-.342.324-.077.653-.136.988-.176l1.035-.12c.264-.033.456-.087.576-.161.12-.074.18-.194.18-.36v-.033c0-.403-.113-.715-.341-.937-.225-.221-.56-.332-1.006-.332-.465 0-.831.103-1.1.31-.264.202-.447.429-.548.678l-1.298-.296c.154-.43.379-.778.674-1.043a2.734 2.734 0 0 1 1.03-.582 4.02 4.02 0 0 1 1.223-.184c.283 0 .583.034.9.101.32.065.619.185.896.36.28.176.51.427.688.753.178.323.268.743.268 1.26V15.5h-1.348v-.97h-.056c-.09.179-.223.354-.401.527a2.131 2.131 0 0 1-.688.43c-.28.113-.616.17-1.007.17Zm.3-1.108c.382 0 .708-.075.979-.226.274-.151.482-.348.623-.591.145-.246.217-.51.217-.79v-.914c-.049.05-.144.096-.286.139a4.46 4.46 0 0 1-.476.106 58.06 58.06 0 0 1-.521.079l-.425.055c-.268.034-.512.09-.734.17a1.26 1.26 0 0 0-.526.347c-.13.148-.194.345-.194.59 0 .343.126.601.379.777.252.172.573.258.964.258Zm8.348-6.14v1.108h-3.873V8.409h3.873ZM43.815 6.71h1.38v6.708c0 .268.04.47.12.605.08.132.183.223.31.272.129.046.269.07.42.07.11 0 .207-.008.29-.024.083-.015.148-.027.194-.037l.25 1.14a2.702 2.702 0 0 1-.896.148 2.428 2.428 0 0 1-1.016-.194 1.742 1.742 0 0 1-.762-.627c-.194-.284-.29-.639-.29-1.067V6.71Zm7.272 8.933c-.687 0-1.278-.155-1.773-.466a3.086 3.086 0 0 1-1.136-1.297c-.264-.551-.397-1.182-.397-1.893 0-.72.136-1.356.407-1.907.27-.554.652-.986 1.144-1.297.493-.31 1.073-.466 1.74-.466.54 0 1.02.1 1.441.3.422.197.762.474 1.02.83.262.358.417.775.467 1.252h-1.344a1.61 1.61 0 0 0-.508-.859c-.261-.24-.612-.36-1.052-.36-.385 0-.722.102-1.011.305-.286.2-.51.486-.67.858-.16.37-.24.807-.24 1.311 0 .518.079.964.236 1.34.157.375.378.666.665.872.289.206.629.31 1.02.31.262 0 .498-.049.71-.144.216-.099.396-.239.54-.42.149-.182.252-.4.31-.656H54a2.61 2.61 0 0 1-.448 1.228c-.25.36-.583.644-1.002.85-.415.206-.903.31-1.463.31Zm5.77-4.353v4.21h-1.381V6.045h1.362v3.518h.087c.167-.381.42-.685.762-.91.342-.224.788-.336 1.339-.336.486 0 .91.1 1.274.3.366.2.65.498.85.895.203.394.304.887.304 1.478v4.51h-1.38v-4.344c0-.52-.134-.923-.402-1.21-.268-.289-.64-.434-1.117-.434-.326 0-.619.07-.877.208a1.498 1.498 0 0 0-.605.61c-.145.264-.217.584-.217.96Zm12.866 4.353c-.664 0-1.245-.152-1.74-.457a3.082 3.082 0 0 1-1.154-1.279c-.274-.547-.411-1.188-.411-1.92 0-.736.137-1.379.41-1.93.275-.55.66-.979 1.155-1.283.495-.305 1.076-.457 1.74-.457.665 0 1.245.152 1.74.457.496.304.881.732 1.155 1.283.274.551.41 1.194.41 1.93 0 .732-.136 1.373-.41 1.92a3.082 3.082 0 0 1-1.154 1.28c-.496.304-1.076.456-1.74.456Zm.005-1.159c.43 0 .788-.114 1.071-.341.283-.228.492-.531.628-.91.138-.378.208-.795.208-1.25 0-.453-.07-.869-.208-1.247a2.03 2.03 0 0 0-.628-.919c-.283-.23-.64-.346-1.071-.346-.434 0-.794.115-1.08.346-.283.23-.494.537-.633.919a3.674 3.674 0 0 0-.203 1.246c0 .456.068.873.203 1.251.139.379.35.682.633.91.286.227.646.341 1.08.341Zm6.222-3.194v4.21h-1.38V8.41h1.324v1.153h.088c.163-.375.419-.677.767-.905.35-.227.792-.341 1.324-.341.484 0 .907.101 1.27.304.363.2.645.499.845.896.2.397.3.888.3 1.473v4.51h-1.38v-4.344c0-.514-.134-.916-.402-1.205-.268-.292-.636-.439-1.103-.439-.32 0-.605.07-.854.208a1.494 1.494 0 0 0-.587.61c-.141.264-.212.584-.212.96Z" class="tagline"/><path fill="currentColor" d="M84.245 6.045h2.553l1.998 3.957h.084l1.999-3.957h2.552l-3.457 6.297V15.5h-2.272v-3.158l-3.457-6.297Zm11.817 9.589c-.745 0-1.385-.152-1.92-.457a3.153 3.153 0 0 1-1.233-1.284c-.287-.55-.43-1.189-.43-1.915 0-.73.143-1.368.43-1.916.289-.551.7-.979 1.232-1.284.536-.307 1.176-.461 1.92-.461.745 0 1.384.154 1.916.461.536.305.947.733 1.233 1.284.29.548.434 1.186.434 1.916 0 .726-.145 1.365-.434 1.915a3.114 3.114 0 0 1-1.232 1.284c-.533.305-1.171.457-1.916.457Zm.014-1.704c.27 0 .5-.083.687-.249.188-.166.331-.397.43-.692.101-.296.152-.637.152-1.025 0-.394-.05-.739-.152-1.034-.099-.296-.242-.527-.43-.693a1.001 1.001 0 0 0-.688-.25c-.28 0-.517.084-.71.25-.191.166-.337.397-.439.693-.099.295-.148.64-.148 1.034 0 .388.05.73.148 1.025.102.295.248.526.439.692.194.166.43.25.71.25Zm9.299-1.49V8.41h2.253v7.09h-2.151v-1.32h-.074a2.065 2.065 0 0 1-.803 1.034c-.376.252-.83.378-1.362.378-.483 0-.908-.11-1.274-.332a2.265 2.265 0 0 1-.854-.928c-.203-.4-.306-.868-.31-1.403v-4.52h2.258v4.076c.003.385.105.688.305.91.2.222.472.332.817.332.224 0 .426-.049.605-.148.181-.101.324-.247.429-.438.108-.194.161-.428.161-.702Zm2.721-4.539V6.045h7.991v1.856h-2.867V15.5h-2.253V7.901h-2.871Zm12.717 4.538V8.41h2.253V15.5h-2.152v-1.32h-.073a2.062 2.062 0 0 1-.804 1.034c-.375.252-.829.378-1.362.378-.483 0-.907-.11-1.274-.332a2.265 2.265 0 0 1-.854-.928c-.203-.4-.306-.868-.309-1.403v-4.52h2.257v4.076c.004.385.105.688.305.91.2.222.473.332.817.332.225 0 .426-.049.605-.148.182-.101.325-.247.429-.438.108-.194.162-.428.162-.702Zm3.69 3.061V6.045h2.257v3.578h.046a2.48 2.48 0 0 1 .393-.623c.172-.2.391-.363.655-.49.268-.129.588-.193.96-.193.493 0 .953.129 1.381.388.431.258.778.657 1.043 1.195.265.539.397 1.225.397 2.06 0 .802-.128 1.475-.383 2.017-.252.541-.594.947-1.025 1.218-.428.271-.903.407-1.426.407-.357 0-.667-.059-.928-.176a2.023 2.023 0 0 1-.661-.462 2.24 2.24 0 0 1-.406-.614h-.069v1.15h-2.234Zm2.211-3.546c0 .382.051.715.152.998.105.283.254.503.448.66.197.154.432.23.706.23.277 0 .513-.076.707-.23.194-.157.34-.377.438-.66.102-.283.153-.616.153-.998 0-.381-.051-.712-.153-.992a1.392 1.392 0 0 0-.438-.65 1.091 1.091 0 0 0-.707-.232c-.277 0-.512.076-.706.226-.194.151-.343.367-.448.647-.101.28-.152.614-.152 1.002Zm9.419 3.68c-.742 0-1.382-.146-1.921-.439a3.033 3.033 0 0 1-1.237-1.26c-.286-.548-.429-1.199-.429-1.953 0-.732.144-1.372.434-1.92.289-.551.697-.979 1.223-1.284.526-.307 1.146-.461 1.86-.461.505 0 .967.078 1.385.235.419.157.781.39 1.085.697.305.308.542.688.711 1.14.169.45.254.965.254 1.547v.563h-6.163v-1.31h4.063a1.27 1.27 0 0 0-.171-.643 1.16 1.16 0 0 0-.457-.438 1.32 1.32 0 0 0-.66-.162c-.253 0-.479.057-.679.171-.2.111-.359.263-.476.457-.116.191-.178.408-.184.651v1.334c0 .29.057.543.171.762.114.216.275.383.484.503.21.12.459.18.748.18.2 0 .382-.027.545-.083.163-.055.303-.137.42-.244.117-.108.205-.24.263-.397l2.073.06c-.086.464-.275.869-.568 1.214a2.873 2.873 0 0 1-1.14.798c-.471.188-1.016.282-1.634.282Z" class="base"/><defs><linearGradient id="paint0_linear_2056_113" x1="0" x2="145" y1="10.5" y2="10.5" gradientUnits="userSpaceOnUse"><stop offset=".3" stop-color="#F00D0D"/><stop offset="1" stop-color="#F50057"/></linearGradient></defs><style>.fill{color:#fff}.base{color:#000}.tagline{color:#1a1a1a}@media (prefers-color-scheme:dark){.fill{color:#000}.base{color:#fff}.tagline{color:#e8e8e8}}</style></svg>