<svg xmlns="http://www.w3.org/2000/svg" width="146" height="21" fill="none"><g clip-path="url(#a)"><rect width="146" height="21" fill="#000" rx="5"/><g filter="url(#b)"><g fill="#fff" fill-rule="evenodd" clip-path="url(#c)" clip-rule="evenodd"><path d="M6.06 10.95V3l5.71 3.98-5.7 3.97Zm0 7.96v-7.96l5.71 3.98-5.7 3.98Zm5.71-3.98V6.98l5.58 3.98-5.58 3.97Z"/></g></g><g filter="url(#d)"><path fill="#E8E8E8" d="M20.04 15.5V6.05h5.86v1.22h-4.43v2.88h4.01v1.23h-4.01v4.12h-1.43Zm9.97.14c-.66 0-1.24-.15-1.74-.45-.5-.3-.88-.73-1.15-1.28a4.24 4.24 0 0 1-.41-1.92c0-.74.13-1.38.4-1.93a3.08 3.08 0 0 1 2.9-1.74c.67 0 1.25.15 1.74.45.5.3.88.74 1.16 1.29.27.55.4 1.2.4 1.93s-.13 1.37-.4 1.92a3.08 3.08 0 0 1-2.9 1.73Zm0-1.16c.44 0 .8-.11 1.08-.34a2 2 0 0 0 .62-.9 3.75 3.75 0 0 0 .01-2.5 2.03 2.03 0 0 0-.63-.92 1.64 1.64 0 0 0-1.07-.35c-.44 0-.8.12-1.08.35-.29.23-.5.53-.64.92a3.81 3.81 0 0 0 0 2.49c.14.38.35.68.64.91.28.23.64.34 1.08.34Zm6.23-8.43v9.45h-1.38V6.05h1.38Zm3.24 0v9.45h-1.39V6.05h1.39Zm4.84 9.6a3.08 3.08 0 0 1-2.9-1.74 4.24 4.24 0 0 1-.4-1.92c0-.74.13-1.38.4-1.93a3.08 3.08 0 0 1 2.9-1.74 3 3 0 0 1 2.89 1.74c.28.55.41 1.2.41 1.93s-.13 1.37-.4 1.92a3.08 3.08 0 0 1-2.9 1.73Zm0-1.17c.43 0 .8-.11 1.07-.34a2 2 0 0 0 .63-.9 3.75 3.75 0 0 0 .01-2.5 2.03 2.03 0 0 0-.64-.92 1.64 1.64 0 0 0-1.07-.35c-.43 0-.79.12-1.08.35-.28.23-.5.53-.63.92a3.81 3.81 0 0 0 0 2.49c.14.38.35.68.63.91.29.23.65.34 1.08.34Zm6.17 1.02L48.4 8.4h1.43l1.39 5.22h.07l1.39-5.21h1.43l1.38 5.18h.07l1.38-5.18h1.43l-2.09 7.09h-1.4l-1.44-5.12h-.11l-1.44 5.12h-1.4Zm15.61.14c-.66 0-1.24-.15-1.74-.45-.5-.3-.88-.73-1.15-1.28a4.24 4.24 0 0 1-.41-1.92c0-.74.14-1.38.41-1.93a3.08 3.08 0 0 1 2.9-1.74c.66 0 1.24.15 1.73.45.5.3.88.74 1.16 1.29.27.55.41 1.2.41 1.93s-.14 1.37-.41 1.92a3.08 3.08 0 0 1-2.9 1.73Zm0-1.16c.44 0 .8-.11 1.08-.34a2 2 0 0 0 .63-.9c.14-.39.2-.8.2-1.26 0-.45-.06-.87-.2-1.24a2.03 2.03 0 0 0-.63-.92 1.64 1.64 0 0 0-1.07-.35c-.44 0-.8.12-1.08.35-.28.23-.5.53-.63.92-.14.37-.2.79-.2 1.24 0 .46.06.87.2 1.25a2 2 0 0 0 .63.91c.28.23.64.34 1.08.34Zm6.23-3.19v4.21h-1.38V8.4h1.33v1.16h.08a2.1 2.1 0 0 1 2.09-1.24c.49 0 .91.1 1.27.3.37.2.65.5.85.9.2.4.3.88.3 1.47v4.51h-1.38v-4.34c0-.52-.14-.92-.4-1.2-.27-.3-.64-.45-1.1-.45-.33 0-.61.07-.86.21a1.5 1.5 0 0 0-.59.6c-.14.27-.2.6-.2.97Z"/><path fill="#fff" d="M80.72 15.5V6.05h3.9c.7 0 1.32.13 1.83.41.52.27.92.66 1.2 1.15.28.49.42 1.06.42 1.7a3.3 3.3 0 0 1-.43 1.72c-.28.49-.69.86-1.21 1.13-.53.27-1.15.4-1.88.4h-2.4v-1.8h1.98c.34 0 .63-.06.86-.18.23-.12.41-.28.53-.5.12-.22.18-.47.18-.76 0-.3-.06-.55-.18-.76a1.2 1.2 0 0 0-.53-.5 1.92 1.92 0 0 0-.86-.17H83v7.61h-2.28Zm11.65.13a4 4 0 0 1-1.92-.43c-.53-.3-.95-.72-1.24-1.26a4.16 4.16 0 0 1-.43-1.96c0-.73.15-1.37.44-1.92.29-.55.7-.98 1.22-1.28a4.14 4.14 0 0 1 3.25-.23 2.98 2.98 0 0 1 1.8 1.84c.16.45.25.96.25 1.55v.56h-6.17v-1.31h4.07c0-.24-.06-.46-.17-.64a1.16 1.16 0 0 0-.46-.44c-.2-.11-.41-.16-.66-.16a1.35 1.35 0 0 0-1.16.62c-.11.2-.17.41-.18.66v1.33c0 .29.06.54.17.76.11.22.28.38.48.5.21.12.46.18.75.18.2 0 .38-.02.55-.08.16-.05.3-.14.42-.24.11-.11.2-.24.26-.4l2.07.06a2.5 2.5 0 0 1-.56 1.21c-.3.35-.67.61-1.14.8a4.4 4.4 0 0 1-1.64.28Zm7.83 0a4 4 0 0 1-1.92-.43 3.1 3.1 0 0 1-1.23-1.26 4.16 4.16 0 0 1-.43-1.96c0-.73.14-1.37.43-1.92.29-.55.7-.98 1.22-1.28a4.08 4.08 0 0 1 3.25-.23 2.98 2.98 0 0 1 1.8 1.84c.17.45.25.96.25 1.55v.56H97.4v-1.31h4.06c0-.24-.06-.46-.17-.64a1.16 1.16 0 0 0-.46-.44 1.3 1.3 0 0 0-.66-.16 1.35 1.35 0 0 0-1.15.62c-.12.2-.18.41-.19.66v1.33c0 .29.06.54.17.76.12.22.28.38.49.5.2.12.46.18.75.18.2 0 .38-.02.54-.08.16-.05.3-.14.42-.24a1 1 0 0 0 .26-.4l2.08.06c-.09.46-.28.87-.57 1.21-.3.35-.67.61-1.14.8-.47.19-1.02.28-1.64.28Zm4.52-.13V8.4h2.2v1.3h.07c.13-.47.34-.81.63-1.04.3-.23.63-.35 1.02-.35a2.36 2.36 0 0 1 .63.09v1.96a3.76 3.76 0 0 0-.89-.12c-.26 0-.5.06-.72.18a1.3 1.3 0 0 0-.5.5c-.12.2-.18.45-.18.73v3.85h-2.26Zm4.43-7.6V6.05h7.99V7.9h-2.87v7.6h-2.25V7.9h-2.87Zm12.72 4.54V8.4h2.25v7.09h-2.15v-1.32h-.08a2 2 0 0 1-.8 1.03c-.38.26-.83.38-1.36.38a2.27 2.27 0 0 1-2.13-1.26c-.2-.4-.3-.87-.3-1.4V8.4h2.25v4.08c0 .38.1.68.3.9.2.23.48.34.82.34.22 0 .43-.05.6-.15.19-.1.33-.25.43-.44.11-.2.17-.43.17-.7Zm3.69 3.06V6.05h2.25v3.57h.05c.1-.21.22-.42.4-.62.16-.2.38-.36.65-.49s.59-.2.96-.2a2.62 2.62 0 0 1 2.42 1.59c.27.54.4 1.23.4 2.06 0 .8-.13 1.47-.38 2.02a2.61 2.61 0 0 1-3.38 1.45 2.03 2.03 0 0 1-1.07-1.08h-.07v1.15h-2.23Zm2.2-3.55c0 .39.06.72.16 1s.25.5.45.66c.2.16.43.23.7.23.28 0 .52-.07.7-.23.2-.16.35-.38.45-.66.1-.28.15-.61.15-1 0-.38-.05-.7-.15-.99a1.4 1.4 0 0 0-.44-.65 1.09 1.09 0 0 0-.7-.23c-.28 0-.52.08-.71.23-.2.15-.35.36-.45.64a3 3 0 0 0-.15 1Zm9.42 3.68a4 4 0 0 1-1.92-.43 3.1 3.1 0 0 1-1.23-1.26 4.17 4.17 0 0 1-.43-1.96c0-.73.14-1.37.43-1.92.3-.55.7-.98 1.23-1.28a4.08 4.08 0 0 1 3.24-.23 2.98 2.98 0 0 1 1.8 1.84c.17.45.25.96.25 1.55v.56h-6.16v-1.31h4.06c0-.24-.06-.46-.17-.64a1.16 1.16 0 0 0-.46-.44c-.19-.11-.4-.16-.66-.16a1.35 1.35 0 0 0-1.15.62c-.12.2-.18.41-.19.66v1.33c0 .29.06.54.17.76.12.22.28.38.49.5.2.12.46.18.75.18.2 0 .38-.02.54-.08.16-.05.3-.14.42-.24.12-.11.2-.24.27-.4l2.07.06c-.09.46-.28.87-.57 1.21a2.8 2.8 0 0 1-1.14.8 4.4 4.4 0 0 1-1.63.28Z"/></g></g><rect width="144.8" height="19.8" x=".6" y=".6" stroke="url(#e)" stroke-opacity=".88" stroke-width="1.2" rx="4.4"/><defs><clipPath id="a"><rect width="146" height="21" fill="#fff" rx="5"/></clipPath><clipPath id="c"><path fill="#fff" d="M6.06 3h11.3v16H6.05z"/></clipPath><filter id="b" width="23.55" height="27.7" x="-.6" y="-3.1" color-interpolation-filters="sRGB" filterUnits="userSpaceOnUse"><feFlood flood-opacity="0" result="BackgroundImageFix"/><feColorMatrix in="SourceAlpha" result="hardAlpha" values="0 0 0 0 0 0 0 0 0 0 0 0 0 0 0 0 0 0 127 0"/><feOffset/><feGaussianBlur stdDeviation="2.8"/><feComposite in2="hardAlpha" operator="out"/><feColorMatrix values="0 0 0 0 0 0 0 0 0 0 0 0 0 0 0 0 0 0 0.25 0"/><feBlend in2="BackgroundImageFix" result="effect1_dropShadow_2055_93"/><feBlend in="SourceGraphic" in2="effect1_dropShadow_2055_93" result="shape"/></filter><filter id="d" width="133.43" height="27.43" x="13.29" y="-3.21" color-interpolation-filters="sRGB" filterUnits="userSpaceOnUse"><feFlood flood-opacity="0" result="BackgroundImageFix"/><feColorMatrix in="SourceAlpha" result="hardAlpha" values="0 0 0 0 0 0 0 0 0 0 0 0 0 0 0 0 0 0 127 0"/><feOffset/><feGaussianBlur stdDeviation="2.86"/><feComposite in2="hardAlpha" operator="out"/><feColorMatrix values="0 0 0 0 0 0 0 0 0 0 0 0 0 0 0 0 0 0 0.25 0"/><feBlend in2="BackgroundImageFix" result="effect1_dropShadow_2055_93"/><feBlend in="SourceGraphic" in2="effect1_dropShadow_2055_93" result="shape"/></filter><linearGradient id="e" x1="0" x2="146" y1="10.5" y2="10.5" gradientUnits="userSpaceOnUse"><stop stop-color="#6A5687"/><stop offset=".5" stop-color="#EB7239"/><stop offset="1" stop-color="#FEE1CB"/></linearGradient></defs></svg>