<svg xmlns="http://www.w3.org/2000/svg" width="146" height="21" fill="none" viewBox="0 0 146 21"><rect width="146" height="21" fill="currentColor" class="fill" rx="5"/><rect width="144.8" height="19.8" x=".6" y=".6" stroke="url(#paint0_linear_2055_78)" stroke-width="1.2" rx="4.4"/><g clip-path="url(#clip0_2055_78)"><path fill="currentColor" fill-rule="evenodd" d="M6.063 10.955V2.999l5.711 3.978-5.711 3.978ZM6.063 18.91v-7.955l5.711 3.978-5.711 3.978Z" class="base" clip-rule="evenodd"/><path fill="currentColor" fill-rule="evenodd" d="M11.774 14.933V6.977l5.579 3.978-5.579 3.978Z" class="base" clip-rule="evenodd"/></g><path fill="currentColor" d="m21.89 15.5-2.622-9.455h1.5l1.842 7.322h.088l1.916-7.322H26.1l1.916 7.327h.088l1.837-7.327h1.505L28.819 15.5h-1.435l-1.99-7.082h-.074L23.33 15.5h-1.44ZM34 15.657c-.45 0-.855-.083-1.218-.25a2.053 2.053 0 0 1-.864-.733c-.21-.32-.314-.713-.314-1.178 0-.4.077-.729.231-.988.154-.258.362-.463.623-.613.262-.151.554-.265.877-.342.324-.077.653-.136.988-.176l1.035-.12c.264-.033.456-.087.576-.161.12-.074.18-.194.18-.36v-.033c0-.403-.113-.715-.341-.937-.225-.221-.56-.332-1.006-.332-.465 0-.831.103-1.1.31-.264.202-.447.429-.548.678l-1.298-.296c.154-.43.379-.778.674-1.043a2.734 2.734 0 0 1 1.03-.582 4.02 4.02 0 0 1 1.223-.184c.283 0 .583.034.9.101.32.065.619.185.896.36.28.176.51.427.688.753.178.323.268.743.268 1.26V15.5h-1.348v-.97h-.056c-.09.179-.223.354-.401.527a2.131 2.131 0 0 1-.688.43c-.28.113-.616.17-1.007.17Zm.3-1.108c.382 0 .708-.075.979-.226.274-.151.482-.348.623-.591.145-.246.217-.51.217-.79v-.914c-.049.05-.145.096-.286.139a4.46 4.46 0 0 1-.476.106 58.06 58.06 0 0 1-.521.079l-.425.055c-.268.034-.512.09-.734.17a1.26 1.26 0 0 0-.526.347c-.13.148-.194.345-.194.59 0 .343.126.601.379.777.252.172.573.258.964.258Zm8.348-6.14v1.108h-3.873V8.409h3.873ZM39.815 6.71h1.38v6.708c0 .268.04.47.12.605.08.132.183.223.31.272.129.046.269.07.42.07.11 0 .207-.008.29-.024.083-.015.148-.027.194-.037l.25 1.14a2.702 2.702 0 0 1-.896.148 2.428 2.428 0 0 1-1.016-.194 1.742 1.742 0 0 1-.762-.627c-.194-.284-.29-.639-.29-1.067V6.71Zm7.272 8.933c-.687 0-1.278-.155-1.773-.466a3.086 3.086 0 0 1-1.136-1.297c-.264-.551-.397-1.182-.397-1.893 0-.72.136-1.356.407-1.907.27-.554.652-.986 1.144-1.297.493-.31 1.073-.466 1.74-.466.54 0 1.02.1 1.441.3.422.197.762.474 1.02.83.262.358.417.775.467 1.252h-1.344a1.61 1.61 0 0 0-.508-.859c-.261-.24-.612-.36-1.052-.36-.385 0-.722.102-1.011.305-.286.2-.51.486-.67.858-.16.37-.24.807-.24 1.311 0 .518.079.964.236 1.34.157.375.378.666.665.872.289.206.629.31 1.02.31.262 0 .498-.049.71-.144.216-.099.396-.239.54-.42.149-.182.252-.4.31-.656H50a2.61 2.61 0 0 1-.448 1.228c-.25.36-.583.644-1.002.85-.415.206-.903.31-1.463.31Zm5.77-4.353v4.21h-1.381V6.045h1.362v3.518h.087c.167-.381.42-.685.762-.91.342-.224.788-.336 1.339-.336.486 0 .91.1 1.274.3.366.2.65.498.85.895.203.394.304.887.304 1.478v4.51h-1.38v-4.344c0-.52-.134-.923-.402-1.21-.268-.289-.64-.434-1.117-.434-.326 0-.619.07-.877.208a1.498 1.498 0 0 0-.605.61c-.145.264-.217.584-.217.96Zm12.866 4.353c-.664 0-1.245-.152-1.74-.457a3.082 3.082 0 0 1-1.154-1.279c-.274-.547-.411-1.188-.411-1.92 0-.736.137-1.379.41-1.93.275-.55.66-.979 1.155-1.283.495-.305 1.076-.457 1.74-.457.665 0 1.245.152 1.74.457.496.304.881.732 1.155 1.283.274.551.41 1.194.41 1.93 0 .732-.136 1.373-.41 1.92a3.082 3.082 0 0 1-1.154 1.28c-.496.304-1.076.456-1.74.456Zm.005-1.159c.43 0 .788-.114 1.071-.341.283-.228.492-.531.628-.91.138-.378.208-.795.208-1.25 0-.453-.07-.869-.208-1.247a2.03 2.03 0 0 0-.628-.919c-.283-.23-.64-.346-1.071-.346-.434 0-.794.115-1.08.346-.283.23-.494.537-.633.919a3.674 3.674 0 0 0-.203 1.246c0 .456.068.873.203 1.251.139.379.35.682.633.91.286.227.646.341 1.08.341Zm6.222-3.194v4.21h-1.38V8.41h1.324v1.153h.088c.163-.375.419-.677.767-.905.35-.227.792-.341 1.324-.341.484 0 .907.101 1.27.304.363.2.645.499.845.896.2.397.3.888.3 1.473v4.51h-1.38v-4.344c0-.514-.134-.916-.402-1.205-.268-.292-.636-.439-1.103-.439-.32 0-.605.07-.854.208a1.494 1.494 0 0 0-.587.61c-.141.264-.212.584-.212.96Z" class="tagline"/><path fill="currentColor" d="M80.716 15.5V6.045h3.905c.708 0 1.319.139 1.833.416a2.91 2.91 0 0 1 1.196 1.15c.28.489.42 1.058.42 1.708 0 .652-.143 1.223-.43 1.712a2.879 2.879 0 0 1-1.214 1.131c-.526.268-1.15.402-1.874.402h-2.41v-1.8h1.985c.345 0 .633-.06.863-.18.234-.12.411-.288.531-.504.12-.218.18-.472.18-.761 0-.293-.06-.545-.18-.758a1.208 1.208 0 0 0-.53-.498c-.234-.117-.522-.176-.864-.176h-1.126V15.5h-2.285Zm11.655.134c-.742 0-1.382-.146-1.92-.439a3.033 3.033 0 0 1-1.238-1.26c-.286-.548-.429-1.199-.429-1.953 0-.732.145-1.372.434-1.92.29-.551.697-.979 1.223-1.284.527-.307 1.147-.461 1.86-.461.505 0 .967.078 1.386.235.418.157.78.39 1.085.697.304.308.541.688.71 1.14.17.45.254.965.254 1.547v.563h-6.163v-1.31h4.063a1.272 1.272 0 0 0-.17-.643 1.16 1.16 0 0 0-.458-.438 1.32 1.32 0 0 0-.66-.162c-.252 0-.479.057-.679.171a1.285 1.285 0 0 0-.66 1.108v1.334c0 .29.057.543.17.762.115.216.276.383.486.503.209.12.458.18.747.18.2 0 .382-.027.545-.083.163-.055.303-.137.42-.244a1.01 1.01 0 0 0 .264-.397l2.072.06c-.086.464-.275.869-.567 1.214-.29.341-.67.607-1.14.798-.472.188-1.016.282-1.635.282Zm7.833 0c-.742 0-1.382-.146-1.92-.439a3.033 3.033 0 0 1-1.238-1.26c-.286-.548-.429-1.199-.429-1.953 0-.732.145-1.372.434-1.92.29-.551.697-.979 1.223-1.284.527-.307 1.147-.461 1.861-.461.504 0 .966.078 1.385.235.418.157.78.39 1.085.697.304.308.541.688.71 1.14.17.45.254.965.254 1.547v.563h-6.163v-1.31h4.063a1.27 1.27 0 0 0-.171-.643 1.16 1.16 0 0 0-.457-.438 1.32 1.32 0 0 0-.66-.162c-.252 0-.479.057-.679.171a1.285 1.285 0 0 0-.66 1.108v1.334c0 .29.057.543.17.762.115.216.276.383.486.503.209.12.458.18.748.18.2 0 .381-.027.544-.083.163-.055.303-.137.42-.244.117-.108.205-.24.264-.397l2.072.06c-.086.464-.275.869-.568 1.214a2.873 2.873 0 0 1-1.14.798c-.471.188-1.015.282-1.634.282Zm4.518-.134V8.41h2.193v1.292h.074c.129-.468.34-.816.633-1.044.292-.23.632-.346 1.02-.346.104 0 .212.008.323.023.111.013.214.033.309.06v1.962a2.164 2.164 0 0 0-.425-.087 3.763 3.763 0 0 0-.461-.033c-.268 0-.51.06-.725.18-.212.117-.38.282-.503.494-.12.21-.18.456-.18.739v3.85h-2.258Zm4.426-7.599V6.045h7.992v1.856h-2.867V15.5h-2.253V7.901h-2.872Zm12.718 4.538V8.41h2.252V15.5h-2.151v-1.32h-.074a2.06 2.06 0 0 1-.803 1.034c-.375.252-.829.378-1.362.378-.483 0-.908-.11-1.274-.332a2.265 2.265 0 0 1-.854-.928c-.203-.4-.306-.868-.309-1.403v-4.52h2.257v4.076c.003.385.105.688.305.91.2.222.472.332.817.332.225 0 .426-.049.605-.148.181-.101.324-.247.429-.438.108-.194.162-.428.162-.702Zm3.689 3.061V6.045h2.258v3.578h.046c.092-.215.223-.423.392-.623.173-.2.391-.363.656-.49.268-.129.588-.193.96-.193.493 0 .953.129 1.38.388.431.258.779.657 1.044 1.195.264.539.397 1.225.397 2.06 0 .802-.128 1.475-.383 2.017-.253.541-.594.947-1.025 1.218-.428.271-.903.407-1.427.407a2.26 2.26 0 0 1-.928-.176 2.03 2.03 0 0 1-.66-.462 2.217 2.217 0 0 1-.406-.614h-.069v1.15h-2.235Zm2.212-3.546c0 .382.05.715.152.998.105.283.254.503.448.66.197.154.432.23.706.23.277 0 .513-.076.706-.23.194-.157.341-.377.439-.66.102-.283.152-.616.152-.998 0-.381-.05-.712-.152-.992a1.393 1.393 0 0 0-.439-.65 1.087 1.087 0 0 0-.706-.232c-.277 0-.512.076-.706.226-.194.151-.343.367-.448.647-.102.28-.152.614-.152 1.002Zm9.418 3.68c-.741 0-1.381-.146-1.92-.439a3.028 3.028 0 0 1-1.237-1.26c-.286-.548-.43-1.199-.43-1.953 0-.732.145-1.372.434-1.92.29-.551.697-.979 1.224-1.284.526-.307 1.146-.461 1.86-.461.505 0 .967.078 1.385.235.419.157.78.39 1.085.697.305.308.542.688.711 1.14.169.45.254.965.254 1.547v.563h-6.163v-1.31h4.062a1.279 1.279 0 0 0-.17-.643 1.163 1.163 0 0 0-.458-.438 1.314 1.314 0 0 0-.66-.162c-.252 0-.478.057-.678.171a1.282 1.282 0 0 0-.66 1.108v1.334c0 .29.056.543.17.762.114.216.276.383.485.503.209.12.459.18.748.18.2 0 .382-.027.545-.083.163-.055.303-.137.42-.244.117-.108.204-.24.263-.397l2.073.06c-.086.464-.276.869-.568 1.214a2.873 2.873 0 0 1-1.14.798c-.471.188-1.016.282-1.635.282Z" class="base"/><defs><linearGradient id="paint0_linear_2055_78" x1="0" x2="146" y1="10.5" y2="10.5" gradientUnits="userSpaceOnUse"><stop stop-color="#6A5687"/><stop offset=".5" stop-color="#EB7239"/><stop offset="1" stop-color="#FEE1CB"/></linearGradient><clipPath id="clip0_2055_78"><path fill="currentColor" d="M6.063 3h11.29v16H6.063z" class="base"/></clipPath></defs><style>.fill{color:#fff}.base{color:#000}.tagline{color:#1a1a1a}@media (prefers-color-scheme:dark){.fill{color:#000}.base{color:#fff}.tagline{color:#e8e8e8}}</style></svg>