<svg xmlns="http://www.w3.org/2000/svg" width="146" height="21" fill="none"><g clip-path="url(#a)"><rect width="146" height="21" fill="#000" rx="5"/><g filter="url(#b)"><g fill="#fff" fill-rule="evenodd" clip-path="url(#c)" clip-rule="evenodd"><path d="M6.06 10.95V3l5.71 3.98-5.7 3.97Zm0 7.96v-7.96l5.71 3.98-5.7 3.98Zm5.71-3.98V6.98l5.58 3.98-5.58 3.97Z"/></g></g><g filter="url(#d)"><path fill="#E8E8E8" d="m21.89 15.5-2.62-9.45h1.5l1.84 7.32h.09l1.91-7.32h1.49l1.92 7.32h.08l1.84-7.32h1.5l-2.62 9.45h-1.44L25.4 8.42h-.07l-1.99 7.08H21.9Zm12.11.16a2.9 2.9 0 0 1-1.22-.25 2.05 2.05 0 0 1-.86-.74 2.1 2.1 0 0 1-.31-1.17c0-.4.07-.73.23-1 .15-.25.36-.45.62-.6a3 3 0 0 1 .88-.35c.32-.07.65-.13.98-.17.43-.05.77-.1 1.04-.12.26-.04.46-.09.58-.16a.4.4 0 0 0 .18-.36v-.04c0-.4-.12-.71-.35-.93-.22-.23-.56-.34-1-.34a1.66 1.66 0 0 0-1.65.99l-1.3-.3a2.5 2.5 0 0 1 1.7-1.62 4.02 4.02 0 0 1 2.13-.08c.32.06.62.18.9.36a2 2 0 0 1 .68.75c.18.32.27.74.27 1.26v4.71h-1.35v-.97h-.05c-.1.18-.23.35-.4.53-.18.17-.41.31-.7.43-.27.11-.6.17-1 .17Zm.3-1.11c.38 0 .7-.08.98-.23a1.58 1.58 0 0 0 .84-1.38v-.91a.72.72 0 0 1-.29.14c-.13.04-.3.07-.47.1a58.06 58.06 0 0 1-.95.14c-.27.03-.51.09-.73.17-.22.08-.4.2-.53.34a.87.87 0 0 0-.2.6c0 .34.13.6.39.77.25.17.57.26.96.26Zm8.35-6.14v1.1h-3.87v-1.1h3.87ZM39.8 6.7h1.38v6.7c0 .28.04.48.12.61.08.14.19.23.31.28a1.62 1.62 0 0 0 .71.05l.2-.05.25 1.14a2.7 2.7 0 0 1-1.91-.05 1.74 1.74 0 0 1-.76-.62 1.8 1.8 0 0 1-.3-1.07V6.71Zm7.28 8.93a3.3 3.3 0 0 1-1.78-.46 3.1 3.1 0 0 1-1.13-1.3 4.32 4.32 0 0 1-.4-1.9c0-.71.14-1.35.4-1.9.28-.55.66-.99 1.15-1.3a3.2 3.2 0 0 1 1.74-.46c.54 0 1.02.1 1.44.3A2.51 2.51 0 0 1 50 10.7h-1.34a1.6 1.6 0 0 0-.51-.86 1.5 1.5 0 0 0-1.05-.36c-.39 0-.73.1-1.02.3-.28.2-.5.5-.66.86a3.3 3.3 0 0 0-.24 1.31c0 .52.07.97.23 1.34.16.38.38.67.67.88.28.2.63.3 1.02.3a1.56 1.56 0 0 0 1.25-.56c.14-.18.25-.4.3-.65H50a2.58 2.58 0 0 1-1.45 2.08c-.42.2-.9.3-1.46.3Zm5.77-4.35v4.21h-1.38V6.05h1.36v3.51h.09c.16-.38.42-.68.76-.9a2.4 2.4 0 0 1 1.34-.34c.48 0 .9.1 1.27.3.37.2.65.5.85.9.2.39.3.88.3 1.47v4.51h-1.38v-4.34c0-.52-.13-.93-.4-1.21a1.45 1.45 0 0 0-1.12-.44c-.32 0-.61.07-.87.21a1.5 1.5 0 0 0-.6.6c-.15.27-.22.6-.22.97Zm12.86 4.35c-.66 0-1.24-.15-1.74-.45-.5-.3-.88-.73-1.15-1.28a4.24 4.24 0 0 1-.41-1.92c0-.74.13-1.38.4-1.93a3.08 3.08 0 0 1 2.9-1.74c.67 0 1.25.15 1.74.45.5.3.88.74 1.16 1.29.27.55.4 1.2.4 1.93s-.13 1.37-.4 1.92a3.08 3.08 0 0 1-2.9 1.73Zm0-1.16c.44 0 .8-.11 1.08-.34a2 2 0 0 0 .63-.9c.14-.39.2-.8.2-1.26 0-.45-.06-.87-.2-1.24a2.03 2.03 0 0 0-.63-.92 1.64 1.64 0 0 0-1.07-.35c-.44 0-.8.12-1.08.35-.29.23-.5.53-.63.92-.14.37-.2.79-.2 1.24 0 .46.06.87.2 1.25.13.38.34.68.63.91.28.23.64.34 1.08.34Zm6.23-3.19v4.21h-1.38V8.4h1.32v1.16h.1a2 2 0 0 1 .76-.9c.35-.23.8-.34 1.32-.34.49 0 .91.1 1.27.3.37.2.65.5.85.9.2.4.3.88.3 1.47v4.51H75.1v-4.34c0-.52-.14-.92-.4-1.2-.27-.3-.64-.45-1.1-.45-.33 0-.61.07-.86.21a1.5 1.5 0 0 0-.59.6c-.14.27-.21.6-.21.97Z"/><path fill="#fff" d="M80.72 15.5V6.05h3.9c.7 0 1.32.13 1.83.41.52.27.92.66 1.2 1.15.28.49.42 1.06.42 1.7a3.3 3.3 0 0 1-.43 1.72c-.28.49-.69.86-1.21 1.13-.53.27-1.15.4-1.88.4h-2.4v-1.8h1.98c.34 0 .63-.06.86-.18.23-.12.41-.28.53-.5.12-.22.18-.47.18-.76 0-.3-.06-.55-.18-.76a1.2 1.2 0 0 0-.53-.5 1.92 1.92 0 0 0-.86-.17H83v7.61h-2.28Zm11.65.13a4 4 0 0 1-1.92-.43c-.53-.3-.95-.72-1.24-1.26a4.16 4.16 0 0 1-.43-1.96c0-.73.15-1.37.44-1.92.29-.55.7-.98 1.22-1.28a4.14 4.14 0 0 1 3.25-.23 2.98 2.98 0 0 1 1.8 1.84c.16.45.25.96.25 1.55v.56h-6.17v-1.31h4.07c0-.24-.06-.46-.17-.64a1.16 1.16 0 0 0-.46-.44c-.2-.11-.41-.16-.66-.16a1.35 1.35 0 0 0-1.16.62c-.11.2-.17.41-.18.66v1.33c0 .29.06.54.17.76.11.22.28.38.48.5.21.12.46.18.75.18.2 0 .38-.02.55-.08.16-.05.3-.14.42-.24.11-.11.2-.24.26-.4l2.07.06a2.5 2.5 0 0 1-.56 1.21c-.3.35-.67.61-1.14.8a4.4 4.4 0 0 1-1.64.28Zm7.83 0a4 4 0 0 1-1.92-.43 3.1 3.1 0 0 1-1.23-1.26 4.16 4.16 0 0 1-.43-1.96c0-.73.14-1.37.43-1.92.29-.55.7-.98 1.22-1.28a4.08 4.08 0 0 1 3.25-.23 2.98 2.98 0 0 1 1.8 1.84c.17.45.25.96.25 1.55v.56H97.4v-1.31h4.06c0-.24-.06-.46-.17-.64a1.16 1.16 0 0 0-.46-.44 1.3 1.3 0 0 0-.66-.16 1.35 1.35 0 0 0-1.15.62c-.12.2-.18.41-.19.66v1.33c0 .29.06.54.17.76.12.22.28.38.49.5.2.12.46.18.75.18.2 0 .38-.02.54-.08.16-.05.3-.14.42-.24a1 1 0 0 0 .26-.4l2.08.06c-.09.46-.28.87-.57 1.21-.3.35-.67.61-1.14.8-.47.19-1.02.28-1.64.28Zm4.52-.13V8.4h2.2v1.3h.07c.13-.47.34-.81.63-1.04.3-.23.63-.35 1.02-.35a2.36 2.36 0 0 1 .63.09v1.96a3.76 3.76 0 0 0-.89-.12c-.26 0-.5.06-.72.18a1.3 1.3 0 0 0-.5.5c-.12.2-.18.45-.18.73v3.85h-2.26Zm4.43-7.6V6.05h7.99V7.9h-2.87v7.6h-2.25V7.9h-2.87Zm12.72 4.54V8.4h2.25v7.09h-2.15v-1.32h-.08a2 2 0 0 1-.8 1.03c-.38.26-.83.38-1.36.38a2.27 2.27 0 0 1-2.13-1.26c-.2-.4-.3-.87-.3-1.4V8.4h2.25v4.08c0 .38.1.68.3.9.2.23.48.34.82.34.22 0 .43-.05.6-.15.19-.1.33-.25.43-.44.11-.2.17-.43.17-.7Zm3.69 3.06V6.05h2.25v3.57h.05c.1-.21.22-.42.4-.62.16-.2.38-.36.65-.49s.59-.2.96-.2a2.62 2.62 0 0 1 2.42 1.59c.27.54.4 1.23.4 2.06 0 .8-.13 1.47-.38 2.02a2.61 2.61 0 0 1-3.38 1.45 2.03 2.03 0 0 1-1.07-1.08h-.07v1.15h-2.23Zm2.2-3.55c0 .39.06.72.16 1s.25.5.45.66c.2.16.43.23.7.23.28 0 .52-.07.7-.23.2-.16.35-.38.45-.66.1-.28.15-.61.15-1 0-.38-.05-.7-.15-.99a1.4 1.4 0 0 0-.44-.65 1.09 1.09 0 0 0-.7-.23c-.28 0-.52.08-.71.23-.2.15-.35.36-.45.64a3 3 0 0 0-.15 1Zm9.42 3.68a4 4 0 0 1-1.92-.43 3.1 3.1 0 0 1-1.23-1.26 4.17 4.17 0 0 1-.43-1.96c0-.73.14-1.37.43-1.92.3-.55.7-.98 1.23-1.28a4.08 4.08 0 0 1 3.24-.23 2.98 2.98 0 0 1 1.8 1.84c.17.45.25.96.25 1.55v.56h-6.16v-1.31h4.06c0-.24-.06-.46-.17-.64a1.16 1.16 0 0 0-.46-.44c-.19-.11-.4-.16-.66-.16a1.35 1.35 0 0 0-1.15.62c-.12.2-.18.41-.19.66v1.33c0 .29.06.54.17.76.12.22.28.38.49.5.2.12.46.18.75.18.2 0 .38-.02.54-.08.16-.05.3-.14.42-.24.12-.11.2-.24.27-.4l2.07.06c-.09.46-.28.87-.57 1.21a2.8 2.8 0 0 1-1.14.8 4.4 4.4 0 0 1-1.63.28Z"/></g></g><rect width="144.8" height="19.8" x=".6" y=".6" stroke="url(#e)" stroke-opacity=".88" stroke-width="1.2" rx="4.4"/><defs><clipPath id="a"><rect width="146" height="21" fill="#fff" rx="5"/></clipPath><clipPath id="c"><path fill="#fff" d="M6.06 3h11.3v16H6.05z"/></clipPath><filter id="b" width="23.55" height="27.7" x="-.6" y="-3.1" color-interpolation-filters="sRGB" filterUnits="userSpaceOnUse"><feFlood flood-opacity="0" result="BackgroundImageFix"/><feColorMatrix in="SourceAlpha" result="hardAlpha" values="0 0 0 0 0 0 0 0 0 0 0 0 0 0 0 0 0 0 127 0"/><feOffset/><feGaussianBlur stdDeviation="2.8"/><feComposite in2="hardAlpha" operator="out"/><feColorMatrix values="0 0 0 0 0 0 0 0 0 0 0 0 0 0 0 0 0 0 0.25 0"/><feBlend in2="BackgroundImageFix" result="effect1_dropShadow_2055_78"/><feBlend in="SourceGraphic" in2="effect1_dropShadow_2055_78" result="shape"/></filter><filter id="d" width="133.43" height="27.43" x="13.29" y="-3.21" color-interpolation-filters="sRGB" filterUnits="userSpaceOnUse"><feFlood flood-opacity="0" result="BackgroundImageFix"/><feColorMatrix in="SourceAlpha" result="hardAlpha" values="0 0 0 0 0 0 0 0 0 0 0 0 0 0 0 0 0 0 127 0"/><feOffset/><feGaussianBlur stdDeviation="2.86"/><feComposite in2="hardAlpha" operator="out"/><feColorMatrix values="0 0 0 0 0 0 0 0 0 0 0 0 0 0 0 0 0 0 0.25 0"/><feBlend in2="BackgroundImageFix" result="effect1_dropShadow_2055_78"/><feBlend in="SourceGraphic" in2="effect1_dropShadow_2055_78" result="shape"/></filter><linearGradient id="e" x1="0" x2="146" y1="10.5" y2="10.5" gradientUnits="userSpaceOnUse"><stop stop-color="#6A5687"/><stop offset=".5" stop-color="#EB7239"/><stop offset="1" stop-color="#FEE1CB"/></linearGradient></defs></svg>