<svg xmlns="http://www.w3.org/2000/svg" width="143" height="21" fill="none" viewBox="0 0 143 21"><rect width="143" height="21" fill="currentColor" class="fill" rx="5"/><rect width="141.8" height="19.8" x=".6" y=".6" stroke="url(#paint0_linear_2058_136)" stroke-opacity=".75" stroke-width="1.2" rx="4.4"/><path fill="currentColor" d="M6.952 4.895c-.233 0-.456.039-.667.117-.378.133-.69.372-.935.717-.233.334-.35.707-.35 1.118v7.309c0 .534.19.995.567 1.385.39.378.851.567 1.385.567.545 0 1.007-.19 1.385-.567.39-.39.584-.851.584-1.385v-1.33c.004-.287.3-.212.45 0 .281.487.876.904 1.569.902.693-.002 1.268-.345 1.569-.901.113-.134.434-.363.467 0v1.329c0 .534.189.995.567 1.385.39.378.851.567 1.385.567.545 0 1.007-.19 1.385-.567.39-.39.584-.851.584-1.385V6.847c0-.411-.122-.784-.367-1.118a1.816 1.816 0 0 0-.918-.717 2.005 2.005 0 0 0-.667-.117c-.601 0-1.107.234-1.519.7l-1.98 2.32c-.046.033-.193.288-.506.288s-.444-.255-.488-.288l-1.998-2.32c-.4-.466-.901-.7-1.502-.7Zm12.346 0c-.467 0-.868.167-1.201.5a1.611 1.611 0 0 0-.484 1.185c0 .467.161.868.484 1.202.333.322.734.484 1.201.484.467 0 .868-.162 1.201-.484.334-.334.501-.735.501-1.202 0-.467-.167-.862-.5-1.184a1.638 1.638 0 0 0-1.202-.501Zm.017 3.704c-.468 0-.868.167-1.202.5-.5.501-.5.735-.5 1.202v4.122c0 .467.167.867.5 1.201.334.323.734.484 1.202.484.7 0 .862-.161 1.184-.484.334-.334.501-.734.501-1.201V10.3c0-.467-.167-.867-.5-1.201a1.584 1.584 0 0 0-1.185-.5" class="base"/><path fill="currentColor" d="M24.039 15.5V6.045h5.863v1.228h-4.437v2.881h4.017v1.223h-4.017V15.5H24.04Zm9.972.143c-.664 0-1.245-.152-1.74-.457a3.082 3.082 0 0 1-1.154-1.279c-.274-.547-.41-1.188-.41-1.92 0-.736.136-1.379.41-1.93.274-.55.659-.979 1.154-1.283.495-.305 1.076-.457 1.74-.457.665 0 1.245.152 1.74.457.496.304.881.732 1.155 1.283.274.551.41 1.194.41 1.93 0 .732-.136 1.373-.41 1.92a3.082 3.082 0 0 1-1.154 1.28c-.496.304-1.076.456-1.74.456Zm.005-1.159c.43 0 .788-.114 1.071-.341.283-.228.492-.531.628-.91.138-.378.208-.795.208-1.25 0-.453-.07-.869-.208-1.247a2.03 2.03 0 0 0-.628-.919c-.283-.23-.64-.346-1.07-.346-.435 0-.795.115-1.081.346-.283.23-.494.537-.633.919a3.674 3.674 0 0 0-.203 1.246c0 .456.068.873.203 1.251.139.379.35.682.633.91.286.227.646.341 1.08.341Zm6.222-8.439V15.5h-1.38V6.045h1.38Zm3.237 0V15.5h-1.38V6.045h1.38Zm4.844 9.598c-.665 0-1.245-.152-1.74-.457a3.082 3.082 0 0 1-1.154-1.279c-.274-.547-.411-1.188-.411-1.92 0-.736.137-1.379.41-1.93.274-.55.66-.979 1.155-1.283.495-.305 1.075-.457 1.74-.457s1.245.152 1.74.457c.496.304.88.732 1.155 1.283.273.551.41 1.194.41 1.93 0 .732-.137 1.373-.41 1.92a3.082 3.082 0 0 1-1.154 1.28c-.496.304-1.076.456-1.74.456Zm.005-1.159c.43 0 .788-.114 1.07-.341.284-.228.493-.531.629-.91.138-.378.207-.795.207-1.25 0-.453-.069-.869-.207-1.247a2.03 2.03 0 0 0-.628-.919c-.283-.23-.64-.346-1.071-.346-.434 0-.794.115-1.08.346-.284.23-.495.537-.633.919a3.674 3.674 0 0 0-.203 1.246c0 .456.067.873.203 1.251.139.379.35.682.632.91.287.227.647.341 1.08.341Zm6.163 1.016L52.4 8.41h1.427l1.39 5.207h.068l1.395-5.208h1.426l1.385 5.184h.07l1.38-5.184h1.426L60.285 15.5h-1.408l-1.44-5.12h-.107l-1.44 5.12h-1.403Zm15.617.143c-.665 0-1.245-.152-1.74-.457a3.082 3.082 0 0 1-1.154-1.279c-.274-.547-.411-1.188-.411-1.92 0-.736.137-1.379.41-1.93.275-.55.66-.979 1.155-1.283.495-.305 1.075-.457 1.74-.457s1.245.152 1.74.457c.496.304.88.732 1.155 1.283.274.551.41 1.194.41 1.93 0 .732-.136 1.373-.41 1.92a3.082 3.082 0 0 1-1.154 1.28c-.496.304-1.076.456-1.74.456Zm.005-1.159c.43 0 .788-.114 1.07-.341.284-.228.493-.531.629-.91.138-.378.207-.795.207-1.25 0-.453-.069-.869-.207-1.247a2.03 2.03 0 0 0-.628-.919c-.283-.23-.64-.346-1.071-.346-.434 0-.794.115-1.08.346-.284.23-.494.537-.633.919a3.677 3.677 0 0 0-.203 1.246c0 .456.068.873.203 1.251.139.379.35.682.633.91.286.227.646.341 1.08.341Zm6.222-3.194v4.21h-1.38V8.41h1.324v1.153h.088c.163-.375.419-.677.766-.905.351-.227.793-.341 1.325-.341.484 0 .907.101 1.27.304.363.2.645.499.845.896.2.397.3.888.3 1.473v4.51h-1.38v-4.344c0-.514-.135-.916-.402-1.205-.268-.292-.636-.439-1.104-.439-.32 0-.604.07-.854.208a1.495 1.495 0 0 0-.586.61c-.142.264-.212.584-.212.96Z" class="tagline"/><path fill="currentColor" d="M84.716 6.045h2.83l2.4 5.854h.11l2.401-5.854h2.83V15.5h-2.225V9.692h-.078l-2.272 5.748H89.29l-2.27-5.78h-.08v5.84h-2.224V6.045ZM96.713 15.5V8.41h2.257v7.09h-2.257Zm1.13-7.917c-.316 0-.589-.105-.817-.314a1.01 1.01 0 0 1-.341-.767c0-.295.114-.547.341-.757.228-.212.5-.318.818-.318.32 0 .592.106.817.318.227.21.341.462.341.757 0 .299-.114.554-.341.767-.225.21-.497.314-.817.314Zm8.755 2.991-2.073.056a.773.773 0 0 0-.176-.393.94.94 0 0 0-.374-.272 1.27 1.27 0 0 0-.526-.102c-.261 0-.485.053-.669.157-.182.105-.271.247-.268.425a.453.453 0 0 0 .166.36c.117.102.325.183.623.245l1.367.258c.708.136 1.234.36 1.579.674.348.314.523.73.526 1.247-.003.486-.148.91-.434 1.27-.283.36-.671.64-1.163.84-.493.196-1.056.295-1.69.295-1.012 0-1.811-.208-2.396-.623-.581-.419-.914-.979-.997-1.68l2.23-.056a.869.869 0 0 0 .383.59c.206.136.469.204.789.204.29 0 .525-.054.707-.162.181-.107.274-.25.277-.429a.454.454 0 0 0-.213-.383c-.138-.099-.355-.176-.651-.231l-1.237-.236c-.711-.129-1.24-.367-1.588-.715-.348-.35-.52-.797-.517-1.339-.003-.474.123-.878.379-1.214.255-.338.618-.597 1.089-.775.471-.179 1.026-.268 1.667-.268.96 0 1.717.201 2.271.605.554.4.86.95.919 1.652Zm7.477 0-2.073.056a.772.772 0 0 0-.175-.393.94.94 0 0 0-.374-.272 1.274 1.274 0 0 0-.526-.102 1.34 1.34 0 0 0-.67.157c-.181.105-.27.247-.267.425a.453.453 0 0 0 .166.36c.117.102.324.183.623.245l1.366.258c.708.136 1.235.36 1.579.674.348.314.524.73.527 1.247-.003.486-.148.91-.434 1.27-.283.36-.671.64-1.164.84-.492.196-1.055.295-1.689.295-1.013 0-1.812-.208-2.396-.623a2.326 2.326 0 0 1-.997-1.68l2.229-.056c.05.258.177.455.383.59.207.136.47.204.79.204.289 0 .525-.054.706-.162.182-.107.274-.25.277-.429a.456.456 0 0 0-.212-.383c-.139-.099-.356-.176-.651-.231l-1.237-.236c-.711-.129-1.241-.367-1.588-.715-.348-.35-.52-.797-.517-1.339-.003-.474.123-.878.378-1.214.256-.338.619-.597 1.09-.775.471-.179 1.026-.268 1.666-.268.96 0 1.718.201 2.271.605.554.4.861.95.919 1.652Zm3.323 3.066.009-2.692h.314l1.994-2.539h2.558l-2.964 3.638h-.595l-1.316 1.593Zm-2.036 1.86V6.045h2.257V15.5h-2.257Zm4.404 0-1.856-2.945 1.487-1.602 2.977 4.547h-2.608Zm6.337.134c-.741 0-1.381-.146-1.92-.439a3.028 3.028 0 0 1-1.237-1.26c-.286-.548-.43-1.199-.43-1.953 0-.732.145-1.372.434-1.92.29-.551.697-.979 1.224-1.284.526-.307 1.146-.461 1.86-.461.505 0 .967.078 1.385.235.419.157.78.39 1.085.697.305.308.542.688.711 1.14.169.45.254.965.254 1.547v.563h-6.163v-1.31h4.062a1.279 1.279 0 0 0-.17-.643 1.163 1.163 0 0 0-.458-.438 1.314 1.314 0 0 0-.66-.162c-.252 0-.478.057-.678.171a1.282 1.282 0 0 0-.66 1.108v1.334c0 .29.056.543.17.762.114.216.276.383.485.503.209.12.459.18.748.18.2 0 .382-.027.545-.083.163-.055.303-.137.42-.244.117-.108.204-.24.263-.397l2.073.06c-.086.464-.276.869-.568 1.214a2.873 2.873 0 0 1-1.14.798c-.471.188-1.016.282-1.635.282Zm5.709 2.525a4.35 4.35 0 0 1-.767-.064 3.091 3.091 0 0 1-.618-.162l.498-1.639c.222.074.422.117.6.13a.84.84 0 0 0 .467-.088.664.664 0 0 0 .304-.365l.088-.213-2.52-7.349h2.363l1.307 5.06h.073l1.325-5.06h2.378l-2.673 7.77c-.129.387-.312.729-.549 1.024a2.386 2.386 0 0 1-.91.702c-.369.17-.825.254-1.366.254Z" class="base"/><defs><linearGradient id="paint0_linear_2058_136" x1="0" x2="143" y1="10.5" y2="10.5" gradientUnits="userSpaceOnUse"><stop stop-color="#98C934"/><stop offset="1" stop-color="#34C9A9"/></linearGradient></defs><style>.fill{color:#fff}.base{color:#000}.tagline{color:#1a1a1a}@media (prefers-color-scheme:dark){.fill{color:#000}.base{color:#fff}.tagline{color:#e8e8e8}}</style></svg>