<svg xmlns="http://www.w3.org/2000/svg" width="159" height="21" fill="none" viewBox="0 0 159 21"><rect width="159" height="21" fill="currentColor" class="fill" rx="5"/><rect width="157.8" height="19.8" x=".6" y=".6" stroke="url(#paint0_linear_2040_161)" stroke-opacity=".88" stroke-width="1.2" rx="4.4"/><g clip-path="url(#clip0_2040_161)"><path fill="currentColor" fill-rule="evenodd" d="M12.976 2.5C8.566 2.5 5 6.167 5 10.703c0 3.626 2.285 6.695 5.454 7.782.396.081.541-.177.541-.394 0-.19-.013-.842-.013-1.521-2.219.489-2.68-.978-2.68-.978-.357-.95-.886-1.195-.886-1.195-.726-.503.053-.503.053-.503.806.055 1.229.842 1.229.842.713 1.25 1.861.897 2.324.68.066-.53.277-.897.502-1.1-1.77-.19-3.632-.897-3.632-4.048 0-.896.317-1.63.819-2.2-.08-.204-.357-1.046.079-2.173 0 0 .674-.217 2.192.842.65-.18 1.32-.27 1.994-.272.674 0 1.36.096 1.994.272 1.519-1.06 2.192-.842 2.192-.842.436 1.127.159 1.97.08 2.173.515.57.818 1.304.818 2.2 0 3.151-1.862 3.843-3.644 4.047.29.258.54.747.54 1.521 0 1.1-.012 1.983-.012 2.255 0 .217.145.475.541.394 3.17-1.087 5.454-4.156 5.454-7.782.013-4.536-3.565-8.203-7.963-8.203Z" class="base" clip-rule="evenodd"/></g><path fill="currentColor" d="M31.891 9.12h-1.44a2.202 2.202 0 0 0-.863-1.408 2.387 2.387 0 0 0-.734-.37A2.866 2.866 0 0 0 28 7.219a2.67 2.67 0 0 0-1.464.41c-.428.275-.766.676-1.015 1.206-.247.53-.37 1.175-.37 1.939 0 .77.123 1.418.37 1.948.249.53.589.93 1.02 1.2.43.271.915.406 1.454.406.299 0 .582-.04.85-.12.27-.083.515-.204.733-.364a2.212 2.212 0 0 0 .873-1.39l1.44.005a3.855 3.855 0 0 1-.447 1.283 3.54 3.54 0 0 1-.845 1.007c-.342.28-.733.497-1.173.65-.44.154-.92.231-1.44.231-.819 0-1.548-.194-2.188-.581-.64-.391-1.145-.95-1.515-1.676-.366-.726-.549-1.593-.549-2.6 0-1.009.185-1.875.554-2.598.37-.727.874-1.284 1.514-1.672.64-.39 1.368-.586 2.184-.586.502 0 .97.073 1.403.217.437.142.83.351 1.177.628.348.274.636.61.864 1.006.227.394.381.845.461 1.353Zm2.977 2.17v4.21h-1.38V6.045h1.361v3.518h.088c.166-.381.42-.685.762-.91.341-.224.788-.336 1.339-.336.486 0 .91.1 1.274.3.366.2.65.498.85.895.202.394.304.887.304 1.478v4.51h-1.38v-4.344c0-.52-.134-.923-.402-1.21-.268-.289-.64-.434-1.117-.434-.327 0-.619.07-.877.208a1.498 1.498 0 0 0-.605.61c-.145.264-.217.584-.217.96Zm9.496 4.353c-.699 0-1.3-.15-1.805-.448a3.037 3.037 0 0 1-1.163-1.27c-.271-.547-.407-1.189-.407-1.924 0-.727.136-1.367.407-1.92a3.154 3.154 0 0 1 1.144-1.298c.493-.31 1.068-.466 1.727-.466.4 0 .788.066 1.163.198.376.133.713.34 1.011.623.299.284.534.651.707 1.104.172.45.258.995.258 1.639v.489H41.77v-1.034h4.285c0-.363-.074-.685-.222-.965a1.675 1.675 0 0 0-.623-.67 1.741 1.741 0 0 0-.933-.244c-.388 0-.726.095-1.015.286a1.92 1.92 0 0 0-.665.739c-.154.302-.231.63-.231.983v.808c0 .474.083.877.25 1.21.168.332.404.586.706.761.301.173.654.259 1.057.259.261 0 .5-.037.715-.111a1.484 1.484 0 0 0 .919-.9l1.306.235a2.365 2.365 0 0 1-.563 1.011 2.73 2.73 0 0 1-1.01.67 3.785 3.785 0 0 1-1.381.235Zm7.56 0c-.686 0-1.277-.155-1.772-.466a3.087 3.087 0 0 1-1.136-1.297c-.264-.551-.397-1.182-.397-1.893 0-.72.136-1.356.406-1.907.271-.554.653-.986 1.145-1.297.493-.31 1.073-.466 1.74-.466.54 0 1.02.1 1.441.3.422.197.762.474 1.02.83.262.358.417.775.466 1.252h-1.343a1.61 1.61 0 0 0-.508-.859c-.261-.24-.612-.36-1.052-.36-.385 0-.722.102-1.011.305-.287.2-.51.486-.67.858-.16.37-.24.807-.24 1.311 0 .518.079.964.236 1.34.157.375.378.666.664.872.29.206.63.31 1.02.31.262 0 .5-.049.712-.144.215-.099.395-.239.54-.42.148-.182.25-.4.31-.656h1.343a2.61 2.61 0 0 1-.448 1.228c-.25.36-.584.644-1.002.85-.416.206-.903.31-1.463.31Zm5.66-2.548-.01-1.685h.24l2.825-3h1.653l-3.222 3.415h-.217l-1.27 1.27Zm-1.27 2.405V6.045h1.38V15.5h-1.38Zm4.478 0-2.54-3.37.952-.965 3.282 4.335h-1.694Zm9.185.143c-.665 0-1.245-.152-1.74-.457a3.082 3.082 0 0 1-1.154-1.279c-.274-.547-.411-1.188-.411-1.92 0-.736.137-1.379.41-1.93.275-.55.66-.979 1.155-1.283.495-.305 1.076-.457 1.74-.457.665 0 1.245.152 1.74.457.496.304.88.732 1.155 1.283.274.551.41 1.194.41 1.93 0 .732-.136 1.373-.41 1.92a3.082 3.082 0 0 1-1.154 1.28c-.496.304-1.076.456-1.74.456Zm.005-1.159c.43 0 .788-.114 1.07-.341.284-.228.493-.531.629-.91.138-.378.207-.795.207-1.25 0-.453-.069-.869-.207-1.247a2.03 2.03 0 0 0-.628-.919c-.283-.23-.64-.346-1.071-.346-.434 0-.794.115-1.08.346-.284.23-.494.537-.633.919a3.674 3.674 0 0 0-.203 1.246c0 .456.068.873.203 1.251.139.379.35.682.633.91.286.227.646.341 1.08.341Zm9.333-1.925V8.41H80.7V15.5h-1.357v-1.228h-.074a2.213 2.213 0 0 1-.785.946c-.357.25-.801.374-1.334.374-.455 0-.859-.1-1.21-.3a2.108 2.108 0 0 1-.821-.9c-.197-.397-.296-.888-.296-1.473V8.41h1.38v4.344c0 .483.135.868.402 1.154.268.287.616.43 1.044.43.258 0 .515-.065.77-.194.26-.13.473-.325.642-.587.173-.261.257-.593.254-.997Zm6.55-4.15v1.108h-3.873V8.409h3.873ZM83.03 6.71h1.38v6.708c0 .268.04.47.12.605.08.132.184.223.31.272.13.046.27.07.42.07.11 0 .208-.008.29-.024.084-.015.149-.027.195-.037l.25 1.14a2.702 2.702 0 0 1-.896.148 2.428 2.428 0 0 1-1.016-.194 1.742 1.742 0 0 1-.762-.627c-.194-.284-.29-.639-.29-1.067V6.71Zm10.789 8.933c-.665 0-1.245-.152-1.74-.457a3.082 3.082 0 0 1-1.154-1.279c-.274-.547-.411-1.188-.411-1.92 0-.736.137-1.379.41-1.93.274-.55.66-.979 1.155-1.283.495-.305 1.075-.457 1.74-.457s1.245.152 1.74.457c.496.304.88.732 1.155 1.283.273.551.41 1.194.41 1.93 0 .732-.136 1.373-.41 1.92a3.082 3.082 0 0 1-1.154 1.28c-.496.304-1.076.456-1.741.456Zm.005-1.159c.43 0 .788-.114 1.07-.341.284-.228.493-.531.628-.91.139-.378.208-.795.208-1.25 0-.453-.069-.869-.208-1.247a2.03 2.03 0 0 0-.627-.919c-.283-.23-.64-.346-1.071-.346-.434 0-.794.115-1.08.346-.284.23-.495.537-.633.919a3.674 3.674 0 0 0-.203 1.246c0 .456.067.873.203 1.251.138.379.35.682.632.91.287.227.647.341 1.08.341Zm6.222-3.194v4.21h-1.38V8.41h1.324v1.153h.088c.163-.375.418-.677.766-.905.351-.227.793-.341 1.325-.341.483 0 .906.101 1.27.304.363.2.644.499.844.896.2.397.301.888.301 1.473v4.51h-1.381v-4.344c0-.514-.134-.916-.401-1.205-.268-.292-.636-.439-1.104-.439-.32 0-.605.07-.854.208a1.497 1.497 0 0 0-.586.61c-.142.264-.212.584-.212.96Z" class="tagline"/><path fill="currentColor" d="M114.92 9.134a1.642 1.642 0 0 0-.231-.513 1.463 1.463 0 0 0-.374-.383 1.595 1.595 0 0 0-.508-.235 2.24 2.24 0 0 0-.627-.083c-.459 0-.856.11-1.191.332-.333.222-.59.545-.771.97-.182.421-.273.934-.273 1.537 0 .606.088 1.123.263 1.551.176.428.43.754.762.979.333.224.736.337 1.21.337.418 0 .772-.068 1.061-.203.293-.139.514-.334.665-.587.151-.252.226-.55.226-.89l.425.05h-2.299V10.33h4.076v1.252c0 .846-.18 1.57-.54 2.174a3.59 3.59 0 0 1-1.477 1.39c-.625.323-1.343.484-2.156.484-.902 0-1.694-.195-2.377-.586a4.062 4.062 0 0 1-1.598-1.671c-.381-.726-.572-1.588-.572-2.585 0-.776.115-1.464.346-2.064a4.391 4.391 0 0 1 .965-1.533 4.18 4.18 0 0 1 1.44-.95 4.792 4.792 0 0 1 1.768-.324 4.81 4.81 0 0 1 1.529.236c.474.157.892.378 1.255.664.366.287.663.627.891 1.02.228.395.37.827.425 1.298h-2.313Zm4.206 6.366V8.41h2.257v7.09h-2.257Zm1.131-7.917c-.317 0-.59-.105-.817-.314a1.01 1.01 0 0 1-.342-.767c0-.295.114-.547.342-.757.227-.212.5-.318.817-.318.32 0 .592.106.817.318a.99.99 0 0 1 .341.757c0 .299-.113.554-.341.767-.225.21-.497.314-.817.314Zm6.565.826v1.662h-4.473V8.409h4.473Zm-3.536-1.699h2.258v6.56c0 .139.021.251.064.337a.409.409 0 0 0 .199.18c.086.034.189.051.309.051.086 0 .177-.008.273-.023a4.18 4.18 0 0 0 .221-.046l.342 1.63c-.108.03-.26.069-.457.115a3.809 3.809 0 0 1-.697.088c-.53.024-.984-.037-1.362-.185a1.77 1.77 0 0 1-.864-.702c-.196-.317-.292-.715-.286-1.195V6.71Zm4.841 8.79V6.045h2.285V9.84h3.725V6.045h2.281V15.5h-2.281v-3.8h-3.725v3.8h-2.285Zm14.299-3.06V8.41h2.253v7.09h-2.151v-1.32h-.074a2.065 2.065 0 0 1-.803 1.034c-.376.252-.83.378-1.362.378-.483 0-.908-.11-1.274-.332a2.258 2.258 0 0 1-.854-.928c-.204-.4-.307-.868-.31-1.403v-4.52h2.258v4.076c.003.385.104.688.304.91.2.222.473.332.818.332.224 0 .426-.049.604-.148.182-.101.325-.247.43-.438.107-.194.161-.428.161-.702Zm3.69 3.06V6.045h2.257v3.578h.047c.092-.215.223-.423.392-.623.172-.2.391-.363.655-.49.268-.129.588-.193.961-.193.492 0 .952.129 1.38.388.431.258.779.657 1.043 1.195.265.539.397 1.225.397 2.06 0 .802-.127 1.475-.383 2.017-.252.541-.594.947-1.025 1.218a2.61 2.61 0 0 1-1.426.407 2.26 2.26 0 0 1-.928-.176 2.008 2.008 0 0 1-.66-.462 2.195 2.195 0 0 1-.406-.614h-.07v1.15h-2.234Zm2.211-3.546c0 .382.051.715.153.998.104.283.253.503.447.66.197.154.433.23.707.23a1.1 1.1 0 0 0 .706-.23c.194-.157.34-.377.439-.66.101-.283.152-.616.152-.998 0-.381-.051-.712-.152-.992a1.4 1.4 0 0 0-.439-.65 1.089 1.089 0 0 0-.706-.232c-.277 0-.513.076-.707.226-.194.151-.343.367-.447.647-.102.28-.153.614-.153 1.002Z" class="base"/><defs><linearGradient id="paint0_linear_2040_161" x1="0" x2="159" y1="10.5" y2="10.5" gradientUnits="userSpaceOnUse"><stop stop-color="#A8348F"/><stop offset=".501" stop-color="#103EBB"/><stop offset="1" stop-color="#00AAA6"/></linearGradient><clipPath id="clip0_2040_161"><path fill="currentColor" d="M5 2.5h16v16H5z" class="base"/></clipPath></defs><style>.fill{color:#fff}.base{color:#000}.tagline{color:#1a1a1a}@media (prefers-color-scheme:dark){.fill{color:#000}.base{color:#fff}.tagline{color:#e8e8e8}}</style></svg>