<svg xmlns="http://www.w3.org/2000/svg" width="123" height="21" fill="none" viewBox="0 0 123 21"><rect width="123" height="21" fill="currentColor" class="fill" rx="5"/><rect width="121.8" height="19.8" x=".6" y=".6" stroke="url(#paint0_linear_2038_69)" stroke-opacity=".88" stroke-width="1.2" rx="4.4"/><g clip-path="url(#clip0_2038_69)"><path fill="currentColor" fill-rule="evenodd" d="M12.976 2.5C8.566 2.5 5 6.167 5 10.703c0 3.626 2.285 6.695 5.454 7.782.396.081.541-.177.541-.394 0-.19-.013-.842-.013-1.521-2.219.489-2.68-.978-2.68-.978-.357-.95-.886-1.195-.886-1.195-.726-.503.053-.503.053-.503.806.055 1.229.842 1.229.842.713 1.25 1.861.897 2.324.68.066-.53.277-.897.502-1.1-1.77-.19-3.632-.897-3.632-4.048 0-.896.317-1.63.819-2.2-.08-.204-.357-1.046.079-2.173 0 0 .674-.217 2.192.842.65-.18 1.32-.27 1.994-.272.674 0 1.36.096 1.994.272 1.519-1.06 2.192-.842 2.192-.842.436 1.127.159 1.97.08 2.173.515.57.818 1.304.818 2.2 0 3.151-1.862 3.843-3.644 4.047.29.258.54.747.54 1.521 0 1.1-.012 1.983-.012 2.255 0 .217.145.475.541.394 3.17-1.087 5.454-4.156 5.454-7.782.013-4.536-3.566-8.203-7.963-8.203Z" class="base" clip-rule="evenodd"/></g><path fill="currentColor" d="M24.039 15.5V6.045h5.863v1.228h-4.437v2.881h4.017v1.223h-4.017V15.5H24.04Zm9.972.143c-.664 0-1.245-.152-1.74-.457a3.082 3.082 0 0 1-1.154-1.279c-.274-.547-.41-1.188-.41-1.92 0-.736.136-1.379.41-1.93.274-.55.659-.979 1.154-1.283.495-.305 1.076-.457 1.74-.457.665 0 1.245.152 1.74.457.496.304.881.732 1.155 1.283.274.551.41 1.194.41 1.93 0 .732-.136 1.373-.41 1.92a3.082 3.082 0 0 1-1.154 1.28c-.496.304-1.076.456-1.74.456Zm.005-1.159c.43 0 .788-.114 1.071-.341.283-.228.492-.531.628-.91.138-.378.208-.795.208-1.25 0-.453-.07-.869-.208-1.247a2.03 2.03 0 0 0-.628-.919c-.283-.23-.64-.346-1.07-.346-.435 0-.795.115-1.081.346-.283.23-.494.537-.633.919a3.674 3.674 0 0 0-.203 1.246c0 .456.068.873.203 1.251.139.379.35.682.633.91.286.227.646.341 1.08.341Zm4.842 1.016V8.41h1.334v1.126h.074c.129-.382.357-.682.683-.9.33-.222.702-.333 1.117-.333a5.903 5.903 0 0 1 .586.032v1.32a2.47 2.47 0 0 0-.295-.05 2.82 2.82 0 0 0-.425-.033 1.8 1.8 0 0 0-.872.208 1.543 1.543 0 0 0-.822 1.39v4.33h-1.38Zm6.258-2.405-.009-1.685h.24l2.825-3h1.653l-3.222 3.415h-.217l-1.27 1.27Zm-1.27 2.405V6.045h1.381V15.5h-1.38Zm4.479 0-2.54-3.37.952-.965 3.282 4.335h-1.694Zm9.185.143c-.664 0-1.244-.152-1.74-.457a3.082 3.082 0 0 1-1.154-1.279c-.274-.547-.41-1.188-.41-1.92 0-.736.136-1.379.41-1.93.274-.55.659-.979 1.154-1.283.496-.305 1.076-.457 1.74-.457.665 0 1.245.152 1.74.457.496.304.881.732 1.155 1.283.274.551.41 1.194.41 1.93 0 .732-.136 1.373-.41 1.92a3.082 3.082 0 0 1-1.154 1.28c-.496.304-1.076.456-1.74.456Zm.005-1.159c.431 0 .788-.114 1.071-.341.283-.228.492-.531.628-.91.138-.378.208-.795.208-1.25 0-.453-.07-.869-.208-1.247a2.03 2.03 0 0 0-.628-.919c-.283-.23-.64-.346-1.07-.346-.435 0-.795.115-1.081.346-.283.23-.494.537-.633.919a3.677 3.677 0 0 0-.203 1.246c0 .456.068.873.203 1.251.139.379.35.682.633.91.286.227.646.341 1.08.341Zm6.222-3.194v4.21h-1.38V8.41h1.325v1.153h.087c.163-.375.419-.677.767-.905.35-.227.792-.341 1.325-.341.483 0 .906.101 1.269.304.363.2.645.499.845.896.2.397.3.888.3 1.473v4.51h-1.38v-4.344c0-.514-.134-.916-.402-1.205-.268-.292-.636-.439-1.103-.439-.32 0-.605.07-.854.208a1.494 1.494 0 0 0-.587.61c-.141.264-.212.584-.212.96Z" class="tagline"/><path fill="currentColor" d="M78.92 9.134a1.66 1.66 0 0 0-.23-.513 1.475 1.475 0 0 0-.375-.383 1.604 1.604 0 0 0-.507-.235c-.191-.056-.4-.083-.628-.083-.459 0-.856.11-1.191.332-.333.222-.59.545-.771.97-.182.421-.273.934-.273 1.537 0 .606.088 1.123.263 1.551.176.428.43.754.762.979.332.224.736.337 1.21.337.418 0 .772-.068 1.061-.203.293-.139.514-.334.665-.587.151-.252.226-.55.226-.89l.425.05h-2.299V10.33h4.077v1.252c0 .846-.18 1.57-.54 2.174a3.592 3.592 0 0 1-1.478 1.39c-.625.323-1.343.484-2.156.484-.901 0-1.694-.195-2.377-.586a4.063 4.063 0 0 1-1.598-1.671c-.381-.726-.572-1.588-.572-2.585 0-.776.115-1.464.346-2.064.231-.603.553-1.114.965-1.533a4.17 4.17 0 0 1 1.44-.95 4.788 4.788 0 0 1 1.769-.324c.547 0 1.057.079 1.528.236a4.08 4.08 0 0 1 1.255.664c.367.287.663.627.891 1.02.228.395.37.827.425 1.298H78.92Zm4.206 6.366V8.41h2.257v7.09h-2.257Zm1.13-7.917c-.316 0-.589-.105-.816-.314a1.01 1.01 0 0 1-.342-.767c0-.295.114-.547.342-.757.227-.212.5-.318.817-.318.32 0 .592.106.817.318.228.21.341.462.341.757 0 .299-.113.554-.341.767-.225.21-.497.314-.817.314Zm6.567.826v1.662h-4.474V8.409h4.474ZM87.285 6.71h2.258v6.56c0 .139.021.251.064.337a.403.403 0 0 0 .199.18c.086.034.19.051.31.051.085 0 .176-.008.272-.023.098-.018.172-.034.221-.046l.342 1.63c-.108.03-.26.069-.457.115a3.798 3.798 0 0 1-.697.088c-.53.024-.984-.037-1.362-.185a1.766 1.766 0 0 1-.864-.702c-.197-.317-.292-.715-.286-1.195V6.71Zm4.84 8.79V6.045h2.286V9.84h3.725V6.045h2.281V15.5h-2.28v-3.8h-3.726v3.8h-2.285Zm14.3-3.06V8.41h2.253v7.09h-2.151v-1.32h-.074a2.065 2.065 0 0 1-.803 1.034c-.376.252-.83.378-1.362.378-.483 0-.908-.11-1.274-.332a2.258 2.258 0 0 1-.854-.928c-.204-.4-.307-.868-.31-1.403v-4.52h2.258v4.076c.003.385.104.688.304.91.2.222.473.332.818.332.224 0 .426-.049.604-.148.182-.101.325-.247.43-.438.107-.194.161-.428.161-.702Zm3.69 3.06V6.045h2.257v3.578h.047c.092-.215.223-.423.392-.623.172-.2.391-.363.655-.49.268-.129.588-.193.961-.193.492 0 .952.129 1.38.388.431.258.779.657 1.043 1.195.265.539.397 1.225.397 2.06 0 .802-.127 1.475-.383 2.017-.252.541-.594.947-1.025 1.218a2.61 2.61 0 0 1-1.426.407 2.26 2.26 0 0 1-.928-.176 2.008 2.008 0 0 1-.66-.462 2.195 2.195 0 0 1-.406-.614h-.07v1.15h-2.234Zm2.211-3.546c0 .382.051.715.153.998.104.283.253.503.447.66.197.154.433.23.707.23a1.1 1.1 0 0 0 .706-.23c.194-.157.34-.377.439-.66.101-.283.152-.616.152-.998 0-.381-.051-.712-.152-.992a1.4 1.4 0 0 0-.439-.65 1.089 1.089 0 0 0-.706-.232c-.277 0-.513.076-.707.226-.194.151-.343.367-.447.647-.102.28-.153.614-.153 1.002Z" class="base"/><defs><linearGradient id="paint0_linear_2038_69" x1="0" x2="123" y1="10.5" y2="10.5" gradientUnits="userSpaceOnUse"><stop stop-color="#A8348F"/><stop offset=".501" stop-color="#103EBB"/><stop offset="1" stop-color="#00AAA6"/></linearGradient><clipPath id="clip0_2038_69"><path fill="currentColor" d="M5 2.5h16v16H5z" class="base"/></clipPath></defs><style>.fill{color:#fff}.base{color:#000}.tagline{color:#1a1a1a}@media (prefers-color-scheme:dark){.fill{color:#000}.base{color:#fff}.tagline{color:#e8e8e8}}</style></svg>