<svg xmlns="http://www.w3.org/2000/svg" width="149" height="21" fill="none"><g clip-path="url(#a)"><rect width="149" height="21" fill="#000" rx="5"/><g filter="url(#b)"><g clip-path="url(#c)"><path fill="#fff" d="M12.99 2.5a7.8 7.8 0 0 1 5.71 2.34 7.7 7.7 0 0 1 1.71 2.58 8.27 8.27 0 0 1 .01 6.16 7.2 7.2 0 0 1-1.7 2.53 8.22 8.22 0 0 1-5.73 2.39 7.78 7.78 0 0 1-5.64-2.36A7.97 7.97 0 0 1 5 10.5a7.89 7.89 0 0 1 2.37-5.67A7.56 7.56 0 0 1 13 2.5ZM13 3.94a6.2 6.2 0 0 0-4.6 1.92A6.88 6.88 0 0 0 6.95 8a6.3 6.3 0 0 0 0 4.97 6.63 6.63 0 0 0 8.56 3.55 6.9 6.9 0 0 0 2.18-1.44 6.15 6.15 0 0 0 1.87-4.59 6.57 6.57 0 0 0-1.9-4.63A6.33 6.33 0 0 0 13 3.94Zm-.1 5.23-1.07.56a1.1 1.1 0 0 0-.42-.5.95.95 0 0 0-.46-.14c-.72 0-1.08.47-1.08 1.41 0 .43.1.77.28 1.03.18.26.44.38.8.38.46 0 .8-.22.98-.68l.99.5a2.35 2.35 0 0 1-2.1 1.26c-.72 0-1.3-.22-1.73-.66a2.47 2.47 0 0 1-.66-1.83c0-.76.22-1.37.67-1.81.44-.45 1-.67 1.68-.67.99 0 1.7.38 2.12 1.15Zm4.62 0-1.06.56a1.1 1.1 0 0 0-.42-.5.97.97 0 0 0-.48-.14c-.71 0-1.07.47-1.07 1.41 0 .43.09.77.27 1.03.18.26.45.38.8.38.47 0 .8-.22.99-.68l1 .5c-.22.39-.52.7-.89.92a2.3 2.3 0 0 1-1.21.34c-.73 0-1.3-.22-1.74-.66a2.48 2.48 0 0 1-.65-1.83c0-.76.22-1.37.67-1.81.44-.45 1-.67 1.67-.67 1 0 1.7.38 2.12 1.15Z"/></g></g><g filter="url(#d)"><path fill="#E8E8E8" d="M24.04 15.5V6.05h1.43v8.22h4.28v1.23h-5.71Zm7.23 0V8.4h1.38v7.1h-1.38Zm.7-8.19a.88.88 0 0 1-.63-.24.78.78 0 0 1-.25-.58c0-.22.09-.42.25-.58a.87.87 0 0 1 .62-.24c.24 0 .45.08.62.24.17.16.26.36.26.58a.86.86 0 0 1-.87.82Zm5.52 8.33c-.69 0-1.28-.15-1.77-.46-.5-.32-.87-.75-1.14-1.3a4.32 4.32 0 0 1-.4-1.9c0-.71.14-1.35.41-1.9a3.1 3.1 0 0 1 1.15-1.3 3.2 3.2 0 0 1 1.74-.46c.53 0 1.01.1 1.44.3a2.51 2.51 0 0 1 1.49 2.08h-1.35a1.61 1.61 0 0 0-.5-.86 1.5 1.5 0 0 0-1.06-.36c-.39 0-.72.1-1.01.3a2 2 0 0 0-.67.86 3.3 3.3 0 0 0-.24 1.31c0 .52.08.97.23 1.34.16.38.38.67.67.88.29.2.63.3 1.02.3.26 0 .5-.04.71-.14.22-.1.4-.24.54-.42.15-.18.25-.4.31-.65h1.34a2.58 2.58 0 0 1-1.45 2.08c-.41.2-.9.3-1.46.3Zm7.45 0c-.7 0-1.3-.15-1.81-.44-.5-.3-.89-.73-1.16-1.27a4.3 4.3 0 0 1-.41-1.93c0-.73.14-1.37.4-1.92.28-.55.66-.99 1.15-1.3A3.47 3.47 0 0 1 46 8.51a2.82 2.82 0 0 1 1.72 1.73c.17.45.26 1 .26 1.64v.49h-5.64v-1.03h4.28c0-.37-.07-.69-.22-.97a1.67 1.67 0 0 0-1.55-.91c-.39 0-.73.1-1.02.28a2.06 2.06 0 0 0-.89 1.73v.8c0 .48.08.88.25 1.21.16.33.4.59.7.76.3.18.66.26 1.06.26.26 0 .5-.03.71-.1a1.48 1.48 0 0 0 .92-.9l1.31.23a2.58 2.58 0 0 1-1.57 1.68c-.4.15-.87.23-1.38.23Zm5.95-4.35v4.21H49.5V8.4h1.32v1.16h.1c.15-.37.41-.67.76-.9.35-.23.79-.34 1.32-.34.49 0 .9.1 1.27.3.37.2.65.5.85.9.2.4.3.88.3 1.47v4.51h-1.38v-4.34c0-.52-.14-.92-.4-1.2-.27-.3-.64-.45-1.1-.45-.33 0-.61.07-.86.21a1.5 1.5 0 0 0-.59.6c-.14.27-.21.6-.21.97Zm11.7-1.15-1.25.22a1.48 1.48 0 0 0-.25-.46 1.23 1.23 0 0 0-.45-.35c-.2-.1-.43-.14-.72-.14-.39 0-.71.09-.98.26-.26.18-.39.4-.39.67 0 .24.09.43.27.58.17.14.45.26.85.35l1.12.26c.65.15 1.14.38 1.46.7.32.31.48.72.48 1.22 0 .43-.12.8-.37 1.14-.24.33-.58.58-1.02.77-.43.19-.94.28-1.5.28a3.4 3.4 0 0 1-1.95-.5 2.2 2.2 0 0 1-.93-1.46l1.34-.2c.08.35.25.6.51.79.26.17.6.26 1.01.26.45 0 .82-.1 1.09-.28.27-.2.4-.42.4-.7 0-.22-.08-.4-.25-.56a1.63 1.63 0 0 0-.75-.34l-1.2-.26a2.88 2.88 0 0 1-1.47-.72 1.74 1.74 0 0 1-.47-1.25c0-.42.12-.79.35-1.1.24-.32.56-.56.97-.74a3.7 3.7 0 0 1 1.42-.26c.77 0 1.37.16 1.8.5.45.32.74.77.88 1.32Zm4.71 5.5a3.04 3.04 0 0 1-2.97-1.72 4.3 4.3 0 0 1-.4-1.92c0-.73.14-1.37.4-1.92.28-.55.66-.99 1.15-1.3a3.47 3.47 0 0 1 2.89-.27 2.82 2.82 0 0 1 1.72 1.73c.17.45.26 1 .26 1.64v.49H64.7v-1.03h4.28c0-.37-.07-.69-.22-.97a1.68 1.68 0 0 0-1.55-.91c-.4 0-.73.1-1.02.28a2.03 2.03 0 0 0-.89 1.73v.8c0 .48.08.88.24 1.21.17.33.4.59.71.76.3.18.66.26 1.06.26.26 0 .5-.03.71-.1a1.48 1.48 0 0 0 .92-.9l1.3.23a2.54 2.54 0 0 1-1.57 1.68c-.4.15-.86.23-1.38.23Z"/><path fill="#fff" d="M73.72 15.5V6.05h3.94c.7 0 1.3.1 1.78.3.48.2.84.48 1.08.84.24.36.36.77.36 1.25a1.99 1.99 0 0 1-.85 1.66c-.26.18-.57.31-.92.39v.09c.38.02.74.12 1.06.3a2.28 2.28 0 0 1 1.08 1.97 2.45 2.45 0 0 1-1.51 2.3 4.2 4.2 0 0 1-1.78.35h-4.24ZM76 13.66h1.41c.5 0 .86-.1 1.1-.28a.94.94 0 0 0 .35-.79c0-.24-.05-.45-.17-.63a1.1 1.1 0 0 0-.48-.4c-.21-.1-.46-.15-.76-.15H76v2.25Zm0-3.73h1.27c.24 0 .47-.04.66-.12a.96.96 0 0 0 .62-.93.9.9 0 0 0-.34-.75 1.4 1.4 0 0 0-.9-.27H76v2.07Zm5.88-3.88h2.55l2 3.95h.08l2-3.95h2.55l-3.45 6.3v3.15h-2.27v-3.16l-3.46-6.3ZM96.36 9.9v1.74h-4.38V9.9h4.38Zm6.7-1.02c-.03-.34-.17-.6-.41-.79a1.62 1.62 0 0 0-1.03-.29c-.3 0-.54.04-.74.12a.96.96 0 0 0-.44.32.77.77 0 0 0-.15.46c0 .14.02.26.08.37.06.1.16.2.28.29a4.56 4.56 0 0 0 1.02.37l.81.18c.47.1.88.24 1.24.41.36.17.66.37.9.6.25.24.44.5.56.81.13.3.2.65.2 1.03 0 .6-.16 1.1-.45 1.54-.3.42-.73.75-1.3.98a5.2 5.2 0 0 1-2 .34c-.8 0-1.49-.12-2.08-.36a2.92 2.92 0 0 1-1.37-1.08 3.24 3.24 0 0 1-.5-1.83h2.19c.02.3.1.56.24.76.15.2.34.36.6.46.25.11.55.16.88.16.31 0 .57-.04.79-.12.22-.09.38-.2.5-.35a.82.82 0 0 0 .18-.5.7.7 0 0 0-.17-.46c-.1-.13-.27-.24-.5-.34a4.7 4.7 0 0 0-.84-.26l-1-.23a4.31 4.31 0 0 1-1.93-.91c-.47-.42-.7-1-.7-1.7 0-.6.16-1.1.47-1.55a3.1 3.1 0 0 1 1.32-1.02c.56-.25 1.2-.37 1.92-.37.73 0 1.36.12 1.9.37a2.79 2.79 0 0 1 1.72 2.59h-2.19Zm5.23 6.62h-2.46l3.19-9.45h3.04l3.2 9.45h-2.46l-2.22-7.07h-.08l-2.21 7.07Zm-.33-3.72h5.13v1.73h-5.13v-1.73ZM120.8 9.9v1.74h-4.38V9.9h4.38Zm1.46 4.03v-1.78l3.87-6.1h1.58v2.41h-.91l-2.27 3.6v.07h5.6v1.8h-7.87Zm4.56 1.57v-2.11l.05-.78V6.05h2.14v9.45h-2.19Zm5.72.13c-.34 0-.62-.11-.86-.35a1.14 1.14 0 0 1-.34-.85c0-.32.1-.6.34-.83.24-.24.52-.35.86-.35.31 0 .59.11.83.35a1.13 1.13 0 0 1 .19 1.44 1.3 1.3 0 0 1-.44.43c-.18.11-.37.16-.58.16Zm6.17.1a3.8 3.8 0 0 1-2.13-.59 3.8 3.8 0 0 1-1.38-1.69 6.58 6.58 0 0 1-.48-2.66c0-1.04.16-1.92.48-2.64.33-.73.79-1.28 1.38-1.66.6-.38 1.3-.57 2.13-.57a3.64 3.64 0 0 1 3.52 2.23c.32.72.48 1.6.48 2.64s-.16 1.93-.48 2.66c-.33.74-.79 1.3-1.39 1.7-.59.39-1.3.58-2.13.58Zm0-1.87c.5 0 .9-.25 1.2-.75.3-.5.45-1.28.45-2.32 0-.69-.07-1.25-.2-1.7a2.16 2.16 0 0 0-.58-.99 1.26 1.26 0 0 0-.87-.33c-.49 0-.88.25-1.18.75-.3.49-.46 1.24-.46 2.27 0 .69.06 1.26.2 1.72.14.45.33.8.58 1.02.25.22.54.33.86.33Z"/></g></g><rect width="147.8" height="19.8" x=".6" y=".6" stroke="url(#e)" stroke-opacity=".88" stroke-width="1.2" rx="4.4"/><defs><clipPath id="a"><rect width="149" height="21" fill="#fff" rx="5"/></clipPath><clipPath id="c"><path fill="#fff" d="M5 2.5h16v16H5z"/></clipPath><filter id="b" width="27.2" height="27.2" x="-.6" y="-3.1" color-interpolation-filters="sRGB" filterUnits="userSpaceOnUse"><feFlood flood-opacity="0" result="BackgroundImageFix"/><feColorMatrix in="SourceAlpha" result="hardAlpha" values="0 0 0 0 0 0 0 0 0 0 0 0 0 0 0 0 0 0 127 0"/><feOffset/><feGaussianBlur stdDeviation="2.8"/><feComposite in2="hardAlpha" operator="out"/><feColorMatrix values="0 0 0 0 0 0 0 0 0 0 0 0 0 0 0 0 0 0 0.25 0"/><feBlend in2="BackgroundImageFix" result="effect1_dropShadow_2011_19"/><feBlend in="SourceGraphic" in2="effect1_dropShadow_2011_19" result="shape"/></filter><filter id="d" width="132.43" height="27.43" x="17.29" y="-3.21" color-interpolation-filters="sRGB" filterUnits="userSpaceOnUse"><feFlood flood-opacity="0" result="BackgroundImageFix"/><feColorMatrix in="SourceAlpha" result="hardAlpha" values="0 0 0 0 0 0 0 0 0 0 0 0 0 0 0 0 0 0 127 0"/><feOffset/><feGaussianBlur stdDeviation="2.86"/><feComposite in2="hardAlpha" operator="out"/><feColorMatrix values="0 0 0 0 0 0 0 0 0 0 0 0 0 0 0 0 0 0 0.25 0"/><feBlend in2="BackgroundImageFix" result="effect1_dropShadow_2011_19"/><feBlend in="SourceGraphic" in2="effect1_dropShadow_2011_19" result="shape"/></filter><linearGradient id="e" x1="0" x2="149" y1="10.5" y2="10.5" gradientUnits="userSpaceOnUse"><stop stop-color="#A5B2AC"/><stop offset="1" stop-color="#ECF0ED"/></linearGradient></defs></svg>