<svg xmlns="http://www.w3.org/2000/svg" width="149" height="21" fill="none" viewBox="0 0 149 21"><rect width="149" height="21" fill="currentColor" class="fill" rx="5"/><rect width="147.8" height="19.8" x=".6" y=".6" stroke="url(#paint0_linear_2011_19)" stroke-opacity=".88" stroke-width="1.2" rx="4.4"/><g clip-path="url(#clip0_2011_19)"><path fill="currentColor" d="M12.985 2.5c2.238 0 4.143.781 5.715 2.343a7.694 7.694 0 0 1 1.714 2.579c.39.966.586 1.992.586 3.078a8.163 8.163 0 0 1-.579 3.078 7.344 7.344 0 0 1-1.707 2.536 8.222 8.222 0 0 1-2.657 1.771c-.99.41-2.014.615-3.071.615a7.775 7.775 0 0 1-3.036-.608 8.047 8.047 0 0 1-2.6-1.756A7.845 7.845 0 0 1 5 10.5c0-1.057.202-2.074.607-3.05a8.033 8.033 0 0 1 1.764-2.622C8.895 3.276 10.766 2.5 12.985 2.5Zm.03 1.443c-1.83 0-3.367.638-4.615 1.914a6.878 6.878 0 0 0-1.45 2.15 6.3 6.3 0 0 0-.508 2.493c0 .857.17 1.684.508 2.479a6.627 6.627 0 0 0 1.45 2.129 6.593 6.593 0 0 0 2.128 1.428c.79.329 1.62.493 2.486.493.857 0 1.688-.166 2.494-.5a6.909 6.909 0 0 0 2.178-1.443c1.247-1.219 1.87-2.747 1.87-4.585a6.57 6.57 0 0 0-.485-2.515 6.397 6.397 0 0 0-1.414-2.114c-1.286-1.286-2.833-1.929-4.643-1.929Zm-.101 5.229-1.072.557c-.114-.238-.255-.405-.421-.5a.95.95 0 0 0-.464-.143c-.715 0-1.072.471-1.072 1.415 0 .428.09.77.271 1.028.181.257.448.386.8.386.467 0 .796-.229.987-.686l.985.5a2.35 2.35 0 0 1-2.1 1.257c-.714 0-1.29-.219-1.729-.657-.438-.438-.657-1.048-.657-1.828 0-.762.222-1.367.665-1.814.442-.448 1.002-.672 1.678-.672.991 0 1.7.385 2.129 1.157Zm4.614 0-1.057.557c-.114-.238-.255-.405-.422-.5a.972.972 0 0 0-.478-.143c-.714 0-1.072.471-1.072 1.415 0 .428.091.77.272 1.028.18.257.447.386.8.386.466 0 .795-.229.985-.686l1 .5c-.219.39-.514.698-.885.921a2.308 2.308 0 0 1-1.214.336c-.724 0-1.303-.219-1.736-.657-.434-.438-.65-1.048-.65-1.828 0-.762.221-1.367.665-1.814.442-.448 1.002-.672 1.678-.672.99 0 1.696.385 2.114 1.157Z" class="base"/></g><path fill="currentColor" d="M24.039 15.5V6.045h1.426v8.227h4.284V15.5h-5.71Zm7.227 0V8.41h1.38v7.09h-1.38Zm.697-8.185a.877.877 0 0 1-.619-.24.78.78 0 0 1-.254-.582.77.77 0 0 1 .254-.581.868.868 0 0 1 .619-.245c.24 0 .445.081.614.245.172.16.258.354.258.581a.774.774 0 0 1-.258.582.862.862 0 0 1-.614.24Zm5.527 8.328c-.686 0-1.277-.155-1.773-.466a3.087 3.087 0 0 1-1.135-1.297c-.265-.551-.397-1.182-.397-1.893 0-.72.135-1.356.406-1.907.27-.554.652-.986 1.145-1.297.492-.31 1.072-.466 1.74-.466.539 0 1.019.1 1.44.3.422.197.762.474 1.02.83.262.358.418.775.467 1.252H39.06a1.61 1.61 0 0 0-.508-.859c-.262-.24-.613-.36-1.053-.36-.385 0-.721.102-1.01.305-.287.2-.51.486-.67.858-.16.37-.24.807-.24 1.311 0 .518.078.964.235 1.34.157.375.379.666.665.872.29.206.63.31 1.02.31.262 0 .499-.049.711-.144.216-.099.396-.239.54-.42.148-.182.251-.4.31-.656h1.343a2.61 2.61 0 0 1-.448 1.228c-.25.36-.583.644-1.002.85-.415.206-.903.31-1.463.31Zm7.445 0c-.698 0-1.3-.15-1.805-.448a3.038 3.038 0 0 1-1.163-1.27c-.271-.547-.407-1.189-.407-1.924 0-.727.136-1.367.407-1.92a3.154 3.154 0 0 1 1.145-1.298c.492-.31 1.068-.466 1.726-.466.4 0 .788.066 1.164.198.375.133.712.34 1.01.623.3.284.535.651.707 1.104.172.45.258.995.258 1.639v.489h-5.636v-1.034h4.284c0-.363-.074-.685-.222-.965a1.675 1.675 0 0 0-.623-.67 1.741 1.741 0 0 0-.933-.244c-.387 0-.726.095-1.015.286a1.92 1.92 0 0 0-.665.739c-.154.302-.23.63-.23.983v.808c0 .474.082.877.248 1.21.17.332.405.586.707.761.301.173.654.259 1.057.259.262 0 .5-.037.716-.111a1.485 1.485 0 0 0 .919-.9l1.306.235a2.365 2.365 0 0 1-.563 1.011 2.73 2.73 0 0 1-1.011.67 3.785 3.785 0 0 1-1.38.235Zm5.954-4.353v4.21h-1.38V8.41h1.325v1.153h.088c.163-.375.418-.677.766-.905.35-.227.792-.341 1.325-.341.483 0 .906.101 1.27.304.363.2.644.499.844.896.2.397.3.888.3 1.473v4.51h-1.38v-4.344c0-.514-.134-.916-.402-1.205-.267-.292-.635-.439-1.103-.439-.32 0-.605.07-.854.208a1.495 1.495 0 0 0-.586.61c-.142.264-.213.584-.213.96Zm11.703-1.15-1.251.222a1.48 1.48 0 0 0-.25-.457 1.233 1.233 0 0 0-.452-.356c-.19-.092-.43-.138-.715-.138-.391 0-.717.088-.979.263-.262.172-.392.396-.392.67 0 .236.087.427.263.572.175.144.458.263.85.355l1.126.259c.652.15 1.138.383 1.458.697.32.314.48.722.48 1.223 0 .425-.123.804-.369 1.136-.243.33-.583.588-1.02.775-.434.188-.937.282-1.51.282-.794 0-1.442-.17-1.943-.508-.502-.341-.81-.826-.923-1.454l1.334-.203c.083.348.254.61.512.79.259.175.596.262 1.011.262.453 0 .814-.093 1.085-.281.27-.19.406-.423.406-.697a.725.725 0 0 0-.249-.559c-.163-.15-.414-.264-.752-.341l-1.2-.263c-.663-.151-1.152-.391-1.469-.72-.314-.33-.47-.747-.47-1.252 0-.418.116-.785.35-1.098.234-.314.557-.56.97-.734.412-.179.884-.268 1.417-.268.766 0 1.37.166 1.81.498.44.33.73.771.872 1.325Zm4.712 5.503c-.698 0-1.3-.15-1.805-.448a3.037 3.037 0 0 1-1.163-1.27c-.27-.547-.406-1.189-.406-1.924 0-.727.135-1.367.406-1.92a3.155 3.155 0 0 1 1.145-1.298c.492-.31 1.068-.466 1.726-.466.4 0 .788.066 1.164.198.375.133.712.34 1.01.623.3.284.535.651.707 1.104.172.45.259.995.259 1.639v.489H64.71v-1.034h4.284c0-.363-.074-.685-.222-.965a1.676 1.676 0 0 0-.623-.67 1.741 1.741 0 0 0-.932-.244c-.388 0-.727.095-1.016.286a1.922 1.922 0 0 0-.665.739c-.154.302-.23.63-.23.983v.808c0 .474.082.877.249 1.21.169.332.404.586.706.761.302.173.654.259 1.057.259.262 0 .5-.037.716-.111a1.484 1.484 0 0 0 .919-.9l1.306.235a2.367 2.367 0 0 1-.563 1.011 2.73 2.73 0 0 1-1.011.67 3.784 3.784 0 0 1-1.38.235Z" class="tagline"/><path fill="currentColor" d="M73.716 15.5V6.045h3.942c.708 0 1.3.1 1.777.3.48.2.84.48 1.08.84.244.36.365.778.365 1.252 0 .36-.075.681-.226.965a1.99 1.99 0 0 1-.623.697 2.49 2.49 0 0 1-.919.387v.093c.382.018.734.121 1.057.31.327.187.588.449.785.784.197.332.296.726.296 1.182 0 .508-.13.961-.388 1.362-.259.397-.633.71-1.122.941-.49.228-1.083.342-1.782.342h-4.242ZM76 13.658h1.412c.496 0 .86-.094 1.094-.282.237-.187.356-.449.356-.784 0-.244-.057-.453-.17-.628a1.099 1.099 0 0 0-.486-.411 1.755 1.755 0 0 0-.752-.148H76v2.253Zm0-3.725h1.265c.249 0 .47-.042.664-.125a1.02 1.02 0 0 0 .453-.36.96.96 0 0 0 .166-.568c0-.317-.112-.566-.337-.748-.225-.181-.528-.272-.91-.272h-1.301v2.073Zm5.876-3.888h2.553l2 3.957h.082l2-3.957h2.552l-3.457 6.297V15.5h-2.272v-3.158l-3.457-6.297Zm14.48 3.86v1.736h-4.376V9.905h4.376Zm6.704-1.025c-.03-.339-.167-.602-.411-.79-.24-.19-.583-.286-1.029-.286-.295 0-.542.039-.739.116a.964.964 0 0 0-.443.318.772.772 0 0 0-.152.457.676.676 0 0 0 .083.374.943.943 0 0 0 .277.286c.123.08.271.151.443.213.172.061.366.115.582.161l.812.185c.468.102.88.237 1.237.406.361.17.662.371.905.605.247.234.433.503.559.808.126.305.191.646.194 1.025-.003.597-.154 1.11-.453 1.537-.298.428-.727.756-1.288.983-.557.228-1.229.342-2.017.342-.791 0-1.48-.118-2.068-.355-.588-.237-1.045-.598-1.371-1.08-.326-.484-.494-1.095-.504-1.833h2.189c.018.304.1.558.244.761.145.203.344.357.596.462.255.105.551.157.886.157.308 0 .57-.042.785-.125.219-.083.386-.198.503-.346a.817.817 0 0 0 .18-.508.698.698 0 0 0-.166-.457c-.108-.13-.274-.24-.498-.332a5.138 5.138 0 0 0-.85-.263l-.988-.231c-.819-.188-1.463-.491-1.934-.91-.471-.421-.705-.99-.702-1.708-.003-.584.154-1.097.471-1.537.317-.44.756-.783 1.316-1.03.56-.246 1.199-.369 1.916-.369.732 0 1.368.125 1.906.374.542.246.962.593 1.261 1.039.298.446.45.963.457 1.551h-2.189Zm5.225 6.62h-2.456l3.19-9.455h3.042l3.19 9.455h-2.456l-2.22-7.072h-.074l-2.216 7.072Zm-.328-3.72h5.134v1.735h-5.134v-1.736Zm12.85-1.875v1.736h-4.376V9.905h4.376Zm1.46 4.025v-1.782l3.873-6.103h1.584v2.42h-.919l-2.267 3.591v.074h5.609v1.8h-7.88Zm4.566 1.57v-2.114l.046-.78v-6.56h2.137V15.5h-2.183Zm5.712.134c-.333 0-.617-.117-.854-.351a1.142 1.142 0 0 1-.347-.85 1.116 1.116 0 0 1 .347-.835c.237-.234.521-.35.854-.35.314 0 .591.116.831.35a1.126 1.126 0 0 1 .193 1.44c-.11.182-.257.327-.438.434a1.115 1.115 0 0 1-.586.162Zm6.176.097c-.824 0-1.535-.196-2.132-.586-.597-.394-1.058-.96-1.381-1.695-.323-.738-.483-1.626-.48-2.663.003-1.038.165-1.918.485-2.641.323-.726.782-1.279 1.376-1.657.597-.382 1.308-.573 2.132-.573.825 0 1.536.191 2.133.573.6.378 1.062.93 1.385 1.657.323.726.483 1.606.48 2.64 0 1.04-.161 1.93-.484 2.669-.324.739-.784 1.303-1.381 1.694-.594.388-1.305.582-2.133.582Zm0-1.87c.493 0 .891-.25 1.196-.752.305-.505.456-1.28.453-2.322 0-.684-.07-1.247-.208-1.69-.139-.446-.331-.779-.577-.997a1.26 1.26 0 0 0-.864-.328c-.489 0-.884.248-1.186.743-.302.493-.454 1.25-.457 2.272-.003.692.063 1.266.198 1.721.139.456.333.796.582 1.02.249.222.537.333.863.333Z" class="base"/><defs><linearGradient id="paint0_linear_2011_19" x1="0" x2="149" y1="10.5" y2="10.5" gradientUnits="userSpaceOnUse"><stop stop-color="#A5B2AC"/><stop offset="1" stop-color="#ECF0ED"/></linearGradient><clipPath id="clip0_2011_19"><path fill="currentColor" d="M5 2.5h16v16H5z" class="base"/></clipPath></defs><style>.fill{color:#fff}.base{color:#000}.tagline{color:#1a1a1a}@media (prefers-color-scheme:dark){.fill{color:#000}.base{color:#fff}.tagline{color:#e8e8e8}}</style></svg>