<svg width="175" height="21" viewBox="0 0 175 21" fill="none" xmlns="http://www.w3.org/2000/svg">
<g clip-path="url(#clip0_2011_19)">
<rect width="175" height="21" rx="5" fill="black"/>
<g filter="url(#filter0_d_2011_19)">
<g clip-path="url(#clip1_2011_19)">
<path d="M12.9852 2.5C15.223 2.5 17.1282 3.28125 18.6995 4.843C19.4515 5.59525 20.0232 6.455 20.4137 7.4215C20.804 8.38825 20.9997 9.41425 20.9997 10.5C20.9997 11.5952 20.8065 12.6215 20.4212 13.5782C20.0355 14.5352 19.4662 15.3807 18.7142 16.114C17.9335 16.8852 17.0477 17.476 16.057 17.8855C15.0667 18.295 14.0427 18.4997 12.9857 18.4997C11.9287 18.4997 10.9167 18.2977 9.95 17.8925C8.9835 17.488 8.11675 16.9022 7.35 16.1357C6.58325 15.3692 6 14.5047 5.6 13.5427C5.2 12.5807 5 11.5667 5 10.5C5 9.44275 5.20225 8.42625 5.607 7.45C6.01175 6.47375 6.6 5.6 7.37125 4.8285C8.895 3.2765 10.7663 2.5 12.9852 2.5ZM13.0142 3.943C11.1857 3.943 9.6475 4.58125 8.39975 5.85725C7.771 6.4955 7.28775 7.212 6.94975 8.00725C6.61125 8.8025 6.4425 9.6335 6.4425 10.5002C6.4425 11.3575 6.61125 12.1837 6.94975 12.9785C7.288 13.7742 7.771 14.4837 8.39975 15.1075C9.02825 15.7315 9.7375 16.2072 10.5285 16.5362C11.3187 16.8647 12.1475 17.029 13.0142 17.029C13.8712 17.029 14.7017 16.8627 15.5075 16.5292C16.3122 16.1955 17.0377 15.715 17.6857 15.0865C18.9332 13.8675 19.5567 12.339 19.5567 10.5005C19.5567 9.61475 19.3947 8.77675 19.071 7.98625C18.7477 7.19575 18.276 6.49125 17.6575 5.87175C16.371 4.586 14.8237 3.943 13.0142 3.943ZM12.914 9.17175L11.8422 9.729C11.7277 9.49125 11.5875 9.32425 11.421 9.229C11.2542 9.134 11.0995 9.08625 10.9565 9.08625C10.2425 9.08625 9.885 9.5575 9.885 10.5005C9.885 10.929 9.9755 11.2715 10.1562 11.5287C10.3372 11.786 10.604 11.9147 10.9565 11.9147C11.4232 11.9147 11.7517 11.686 11.9425 11.229L12.928 11.729C12.7185 12.1197 12.428 12.4267 12.0565 12.6505C11.6855 12.8745 11.2757 12.9862 10.828 12.9862C10.1137 12.9862 9.53725 12.7675 9.09925 12.329C8.66125 11.891 8.44225 11.2815 8.44225 10.5007C8.44225 9.73875 8.66375 9.13425 9.1065 8.6865C9.54925 8.239 10.1087 8.015 10.7852 8.015C11.776 8.0145 12.4852 8.40025 12.914 9.17175ZM17.5282 9.17175L16.471 9.729C16.3567 9.49125 16.216 9.32425 16.0495 9.229C15.8825 9.134 15.7227 9.08625 15.571 9.08625C14.8567 9.08625 14.4992 9.5575 14.4992 10.5005C14.4992 10.929 14.59 11.2715 14.7707 11.5287C14.9515 11.786 15.218 11.9147 15.571 11.9147C16.0372 11.9147 16.366 11.686 16.5562 11.229L17.5562 11.729C17.3375 12.1197 17.042 12.4267 16.671 12.6505C16.2995 12.8745 15.8947 12.9862 15.4567 12.9862C14.7327 12.9862 14.1545 12.7675 13.7215 12.329C13.2875 11.891 13.071 11.2815 13.071 10.5007C13.071 9.73875 13.2922 9.13425 13.7355 8.6865C14.178 8.239 14.7375 8.015 15.4137 8.015C16.4042 8.0145 17.1095 8.40025 17.5282 9.17175Z" fill="white"/>
</g>
</g>
<g filter="url(#filter1_d_2011_19)">
<path d="M24.0387 15.5V6.04545H25.4652V14.272H29.7493V15.5H24.0387ZM31.2658 15.5V8.40909H32.6461V15.5H31.2658ZM31.9629 7.31498C31.7228 7.31498 31.5166 7.23497 31.3443 7.07493C31.175 6.91181 31.0904 6.71792 31.0904 6.49325C31.0904 6.26551 31.175 6.07161 31.3443 5.91158C31.5166 5.74846 31.7228 5.6669 31.9629 5.6669C32.2029 5.6669 32.4076 5.74846 32.5769 5.91158C32.7492 6.07161 32.8354 6.26551 32.8354 6.49325C32.8354 6.71792 32.7492 6.91181 32.5769 7.07493C32.4076 7.23497 32.2029 7.31498 31.9629 7.31498ZM37.49 15.6431C36.8036 15.6431 36.2127 15.4877 35.7172 15.1768C35.2248 14.8629 34.8463 14.4305 34.5816 13.8796C34.3169 13.3287 34.1846 12.6978 34.1846 11.9869C34.1846 11.2667 34.32 10.6312 34.5908 10.0803C34.8617 9.52628 35.2433 9.09387 35.7357 8.78302C36.2281 8.47218 36.8083 8.31676 37.4761 8.31676C38.0147 8.31676 38.4948 8.41678 38.9165 8.61683C39.3381 8.8138 39.6782 9.09079 39.9367 9.4478C40.1983 9.8048 40.3537 10.2218 40.403 10.6989H39.0596C38.9857 10.3665 38.8164 10.0803 38.5518 9.8402C38.2902 9.60014 37.9393 9.48011 37.4992 9.48011C37.1145 9.48011 36.7775 9.58167 36.4882 9.7848C36.202 9.98485 35.9788 10.2711 35.8188 10.6435C35.6588 11.0128 35.5787 11.4498 35.5787 11.9545C35.5787 12.4716 35.6572 12.9178 35.8142 13.2933C35.9711 13.6688 36.1927 13.9596 36.479 14.1658C36.7683 14.372 37.1083 14.4751 37.4992 14.4751C37.7608 14.4751 37.9978 14.4274 38.2101 14.332C38.4256 14.2335 38.6056 14.0935 38.7503 13.9119C38.898 13.7303 39.0011 13.5118 39.0596 13.2564H40.403C40.3537 13.715 40.2045 14.1243 39.9552 14.4844C39.7059 14.8445 39.3719 15.1276 38.9534 15.3338C38.5379 15.54 38.0501 15.6431 37.49 15.6431ZM44.9352 15.6431C44.2366 15.6431 43.6349 15.4938 43.1301 15.1953C42.6285 14.8937 42.2407 14.4705 41.9668 13.9258C41.696 13.378 41.5605 12.7363 41.5605 12.0007C41.5605 11.2744 41.696 10.6342 41.9668 10.0803C42.2407 9.52628 42.6223 9.09387 43.1117 8.78302C43.6041 8.47218 44.1796 8.31676 44.8382 8.31676C45.2383 8.31676 45.6261 8.38293 46.0016 8.51527C46.3771 8.64761 46.7141 8.85535 47.0126 9.13849C47.3111 9.42164 47.5466 9.78942 47.7189 10.2418C47.8913 10.6912 47.9774 11.2375 47.9774 11.8807V12.37H42.3407V11.3359H46.6248C46.6248 10.9728 46.551 10.6512 46.4032 10.3711C46.2555 10.0879 46.0478 9.86482 45.78 9.7017C45.5153 9.53859 45.2045 9.45703 44.8475 9.45703C44.4597 9.45703 44.1211 9.55244 43.8318 9.74325C43.5456 9.93099 43.324 10.1772 43.1671 10.4819C43.0132 10.7835 42.9363 11.1113 42.9363 11.4652V12.2731C42.9363 12.747 43.0193 13.1502 43.1855 13.4826C43.3548 13.815 43.5903 14.0689 43.8919 14.2443C44.1935 14.4167 44.5459 14.5028 44.949 14.5028C45.2106 14.5028 45.4492 14.4659 45.6646 14.392C45.88 14.3151 46.0662 14.2012 46.2232 14.0504C46.3801 13.8996 46.5002 13.7134 46.5833 13.4918L47.8897 13.7273C47.7851 14.112 47.5974 14.449 47.3265 14.7383C47.0588 15.0245 46.7218 15.2476 46.3155 15.4077C45.9123 15.5646 45.4522 15.6431 44.9352 15.6431ZM50.8893 11.2898V15.5H49.509V8.40909H50.8339V9.56321H50.9216C51.0847 9.18773 51.3402 8.88612 51.6879 8.65838C52.0388 8.43063 52.4804 8.31676 53.0129 8.31676C53.4961 8.31676 53.9192 8.41832 54.2824 8.62145C54.6456 8.82149 54.9272 9.12003 55.1272 9.51704C55.3273 9.91406 55.4273 10.4049 55.4273 10.9897V15.5H54.047V11.1559C54.047 10.6419 53.9131 10.2403 53.6453 9.95099C53.3776 9.65862 53.0098 9.51243 52.542 9.51243C52.2219 9.51243 51.9372 9.58167 51.6879 9.72017C51.4417 9.85866 51.2463 10.0618 51.1016 10.3295C50.9601 10.5942 50.8893 10.9143 50.8893 11.2898ZM62.5921 10.1403L61.341 10.3619C61.2887 10.2018 61.2056 10.0495 61.0917 9.90483C60.9809 9.76018 60.8301 9.64169 60.6393 9.54936C60.4485 9.45703 60.2099 9.41086 59.9237 9.41086C59.5329 9.41086 59.2066 9.49858 58.945 9.674C58.6834 9.84635 58.5526 10.0695 58.5526 10.3434C58.5526 10.5804 58.6403 10.7712 58.8158 10.9158C58.9912 11.0605 59.2743 11.179 59.6652 11.2713L60.7916 11.5298C61.4441 11.6806 61.9304 11.913 62.2504 12.2269C62.5705 12.5408 62.7305 12.9486 62.7305 13.4503C62.7305 13.875 62.6074 14.2535 62.3612 14.5859C62.1181 14.9152 61.778 15.1738 61.341 15.3615C60.907 15.5492 60.4038 15.6431 59.8314 15.6431C59.0374 15.6431 58.3895 15.4738 57.8879 15.1353C57.3862 14.7937 57.0784 14.3089 56.9646 13.6811L58.2987 13.478C58.3818 13.8258 58.5526 14.0889 58.8112 14.2674C59.0697 14.4428 59.4067 14.5305 59.8222 14.5305C60.2746 14.5305 60.6362 14.4367 60.907 14.2489C61.1779 14.0581 61.3133 13.8258 61.3133 13.5518C61.3133 13.3303 61.2302 13.1441 61.064 12.9932C60.9009 12.8424 60.6501 12.7286 60.3115 12.6516L59.1112 12.3885C58.4495 12.2377 57.9602 11.9976 57.6432 11.6683C57.3293 11.339 57.1723 10.922 57.1723 10.4173C57.1723 9.9987 57.2893 9.63245 57.5232 9.31853C57.7571 9.00461 58.0802 8.75994 58.4926 8.58451C58.905 8.40601 59.3774 8.31676 59.9099 8.31676C60.6762 8.31676 61.2794 8.48295 61.7195 8.81534C62.1596 9.14465 62.4505 9.58629 62.5921 10.1403ZM67.3043 15.6431C66.6057 15.6431 66.004 15.4938 65.4993 15.1953C64.9976 14.8937 64.6098 14.4705 64.3359 13.9258C64.0651 13.378 63.9297 12.7363 63.9297 12.0007C63.9297 11.2744 64.0651 10.6342 64.3359 10.0803C64.6098 9.52628 64.9915 9.09387 65.4808 8.78302C65.9732 8.47218 66.5488 8.31676 67.2074 8.31676C67.6075 8.31676 67.9953 8.38293 68.3707 8.51527C68.7462 8.64761 69.0832 8.85535 69.3817 9.13849C69.6803 9.42164 69.9157 9.78942 70.0881 10.2418C70.2604 10.6912 70.3466 11.2375 70.3466 11.8807V12.37H64.7099V11.3359H68.9939C68.9939 10.9728 68.9201 10.6512 68.7724 10.3711C68.6246 10.0879 68.4169 9.86482 68.1491 9.7017C67.8845 9.53859 67.5736 9.45703 67.2166 9.45703C66.8288 9.45703 66.4903 9.55244 66.201 9.74325C65.9148 9.93099 65.6932 10.1772 65.5362 10.4819C65.3823 10.7835 65.3054 11.1113 65.3054 11.4652V12.2731C65.3054 12.747 65.3885 13.1502 65.5547 13.4826C65.7239 13.815 65.9594 14.0689 66.261 14.2443C66.5626 14.4167 66.915 14.5028 67.3182 14.5028C67.5798 14.5028 67.8183 14.4659 68.0337 14.392C68.2492 14.3151 68.4354 14.2012 68.5923 14.0504C68.7493 13.8996 68.8693 13.7134 68.9524 13.4918L70.2589 13.7273C70.1542 14.112 69.9665 14.449 69.6957 14.7383C69.4279 15.0245 69.0909 15.2476 68.6846 15.4077C68.2815 15.5646 67.8214 15.6431 67.3043 15.6431Z" fill="#E8E8E8"/>
<path d="M82.2976 9.47088H79.9893C79.9586 9.2339 79.8955 9.02 79.8001 8.82919C79.7046 8.63837 79.5785 8.47526 79.4215 8.33984C79.2645 8.20443 79.0783 8.10132 78.8629 8.03054C78.6506 7.95667 78.4151 7.91974 78.1566 7.91974C77.698 7.91974 77.3025 8.03208 76.9702 8.25675C76.6408 8.48141 76.3869 8.80611 76.2084 9.23082C76.033 9.65554 75.9453 10.1695 75.9453 10.7727C75.9453 11.4006 76.0345 11.9268 76.2131 12.3516C76.3946 12.7732 76.6485 13.0917 76.9748 13.3072C77.3041 13.5195 77.6934 13.6257 78.1427 13.6257C78.3951 13.6257 78.6244 13.5934 78.8306 13.5288C79.0399 13.4641 79.223 13.3703 79.38 13.2472C79.54 13.121 79.6708 12.9686 79.7724 12.7901C79.877 12.6085 79.9493 12.4039 79.9893 12.1761L82.2976 12.19C82.2576 12.6085 82.136 13.0209 81.9329 13.4272C81.7328 13.8334 81.4574 14.2043 81.1065 14.5398C80.7557 14.8722 80.3279 15.1368 79.8231 15.3338C79.3215 15.5308 78.746 15.6293 78.0966 15.6293C77.241 15.6293 76.4747 15.4415 75.7976 15.066C75.1236 14.6875 74.5911 14.1366 74.2003 13.4133C73.8094 12.6901 73.614 11.8099 73.614 10.7727C73.614 9.73248 73.8125 8.85073 74.2095 8.12748C74.6065 7.40424 75.1436 6.85488 75.8207 6.4794C76.4977 6.10393 77.2564 5.91619 78.0966 5.91619C78.669 5.91619 79.1984 5.99621 79.6846 6.15625C80.1709 6.31321 80.5987 6.54403 80.968 6.84872C81.3373 7.15033 81.6374 7.52119 81.8682 7.96129C82.0991 8.4014 82.2422 8.90459 82.2976 9.47088ZM92.1872 9.47088H89.879C89.8482 9.2339 89.7851 9.02 89.6897 8.82919C89.5943 8.63837 89.4681 8.47526 89.3111 8.33984C89.1542 8.20443 88.968 8.10132 88.7526 8.03054C88.5402 7.95667 88.3048 7.91974 88.0462 7.91974C87.5877 7.91974 87.1922 8.03208 86.8598 8.25675C86.5305 8.48141 86.2766 8.80611 86.0981 9.23082C85.9227 9.65554 85.8349 10.1695 85.8349 10.7727C85.8349 11.4006 85.9242 11.9268 86.1027 12.3516C86.2843 12.7732 86.5382 13.0917 86.8644 13.3072C87.1937 13.5195 87.583 13.6257 88.0324 13.6257C88.2848 13.6257 88.514 13.5934 88.7202 13.5288C88.9295 13.4641 89.1126 13.3703 89.2696 13.2472C89.4296 13.121 89.5604 12.9686 89.662 12.7901C89.7666 12.6085 89.839 12.4039 89.879 12.1761L92.1872 12.19C92.1472 12.6085 92.0256 13.0209 91.8225 13.4272C91.6225 13.8334 91.347 14.2043 90.9962 14.5398C90.6453 14.8722 90.2175 15.1368 89.7128 15.3338C89.2111 15.5308 88.6356 15.6293 87.9862 15.6293C87.1306 15.6293 86.3643 15.4415 85.6872 15.066C85.0132 14.6875 84.4808 14.1366 84.0899 13.4133C83.6991 12.6901 83.5036 11.8099 83.5036 10.7727C83.5036 9.73248 83.7021 8.85073 84.0991 8.12748C84.4962 7.40424 85.0332 6.85488 85.7103 6.4794C86.3874 6.10393 87.146 5.91619 87.9862 5.91619C88.5587 5.91619 89.088 5.99621 89.5743 6.15625C90.0606 6.31321 90.4883 6.54403 90.8577 6.84872C91.227 7.15033 91.5271 7.52119 91.7579 7.96129C91.9887 8.4014 92.1318 8.90459 92.1872 9.47088ZM98.0328 9.90483V11.6406H93.6564V9.90483H98.0328ZM99.6267 15.5V6.04545H103.569C104.277 6.04545 104.869 6.14548 105.346 6.34552C105.827 6.54557 106.187 6.82564 106.427 7.18572C106.67 7.54581 106.791 7.96283 106.791 8.43679C106.791 8.79687 106.716 9.11849 106.565 9.40163C106.414 9.6817 106.207 9.91406 105.942 10.0987C105.677 10.2834 105.371 10.4126 105.023 10.4865V10.5788C105.405 10.5973 105.757 10.7004 106.08 10.8881C106.407 11.0759 106.668 11.3375 106.865 11.6729C107.062 12.0053 107.161 12.3993 107.161 12.8548C107.161 13.3626 107.031 13.8165 106.773 14.2166C106.514 14.6136 106.141 14.9276 105.651 15.1584C105.162 15.3861 104.568 15.5 103.869 15.5H99.6267ZM101.912 13.658H103.324C103.82 13.658 104.185 13.5642 104.419 13.3764C104.656 13.1887 104.774 12.9271 104.774 12.5916C104.774 12.3485 104.717 12.1392 104.603 11.9638C104.489 11.7853 104.328 11.6483 104.118 11.5529C103.909 11.4544 103.658 11.4052 103.366 11.4052H101.912V13.658ZM101.912 9.93253H103.177C103.426 9.93253 103.648 9.89098 103.842 9.80788C104.035 9.72478 104.186 9.60476 104.294 9.4478C104.405 9.29084 104.46 9.10156 104.46 8.87997C104.46 8.56297 104.348 8.31368 104.123 8.1321C103.898 7.95052 103.595 7.85973 103.214 7.85973H101.912V9.93253ZM107.789 6.04545H110.342L112.34 10.0018H112.424L114.422 6.04545H116.975L113.518 12.3423V15.5H111.246V12.3423L107.789 6.04545ZM122.268 9.90483V11.6406H117.892V9.90483H122.268ZM128.972 8.87997C128.942 8.54143 128.805 8.27829 128.562 8.09055C128.322 7.89974 127.978 7.80433 127.532 7.80433C127.237 7.80433 126.99 7.8428 126.793 7.91974C126.597 7.99668 126.449 8.10286 126.35 8.23828C126.252 8.37062 126.201 8.52296 126.198 8.69531C126.192 8.83688 126.219 8.96153 126.281 9.06924C126.346 9.17696 126.438 9.27237 126.558 9.35547C126.681 9.43549 126.829 9.50627 127.001 9.56782C127.174 9.62938 127.367 9.68324 127.583 9.7294L128.395 9.91406C128.863 10.0156 129.276 10.151 129.633 10.3203C129.993 10.4896 130.294 10.6912 130.537 10.9251C130.784 11.159 130.97 11.4283 131.096 11.733C131.222 12.0376 131.287 12.3793 131.29 12.7578C131.287 13.3549 131.136 13.8673 130.838 14.2951C130.539 14.7229 130.11 15.0507 129.55 15.2784C128.992 15.5062 128.32 15.62 127.532 15.62C126.741 15.62 126.052 15.5015 125.464 15.2646C124.876 15.0276 124.419 14.6675 124.093 14.1843C123.767 13.7011 123.599 13.0902 123.59 12.3516H125.778C125.796 12.6562 125.878 12.9102 126.023 13.1133C126.167 13.3164 126.366 13.4703 126.618 13.5749C126.873 13.6796 127.169 13.7319 127.504 13.7319C127.812 13.7319 128.074 13.6903 128.289 13.6072C128.508 13.5241 128.675 13.4087 128.792 13.261C128.909 13.1133 128.969 12.944 128.972 12.7532C128.969 12.5747 128.914 12.4223 128.806 12.2962C128.699 12.1669 128.532 12.0561 128.308 11.9638C128.086 11.8684 127.803 11.7807 127.458 11.7006L126.47 11.4698C125.652 11.2821 125.007 10.9789 124.536 10.5604C124.065 10.1387 123.831 9.56936 123.834 8.85227C123.831 8.26752 123.988 7.75509 124.305 7.31498C124.622 6.87488 125.061 6.53172 125.621 6.28551C126.181 6.0393 126.82 5.91619 127.537 5.91619C128.269 5.91619 128.905 6.04084 129.443 6.29013C129.985 6.53634 130.405 6.88257 130.704 7.32883C131.002 7.77509 131.155 8.29214 131.161 8.87997H128.972ZM134.197 15.5H131.741L134.931 6.04545H137.973L141.163 15.5H138.707L136.487 8.42755H136.413L134.197 15.5ZM133.869 11.7791H139.003V13.5149H133.869V11.7791ZM146.719 9.90483V11.6406H142.343V9.90483H146.719ZM148.179 13.9304V12.1484L152.053 6.04545H153.636V8.46449H152.717L150.451 12.0561V12.13H156.06V13.9304H148.179ZM152.745 15.5V13.3857L152.791 12.6055V6.04545H154.929V15.5H152.745ZM158.457 15.6339C158.124 15.6339 157.84 15.5169 157.603 15.283C157.369 15.0491 157.253 14.766 157.256 14.4336C157.253 14.1074 157.369 13.8288 157.603 13.598C157.84 13.3641 158.124 13.2472 158.457 13.2472C158.771 13.2472 159.048 13.3641 159.288 13.598C159.531 13.8288 159.654 14.1074 159.657 14.4336C159.654 14.6552 159.595 14.8568 159.482 15.0383C159.371 15.2199 159.225 15.3646 159.043 15.4723C158.865 15.58 158.669 15.6339 158.457 15.6339ZM164.634 15.7308C163.809 15.7308 163.098 15.5354 162.501 15.1445C161.904 14.7506 161.444 14.1858 161.12 13.4503C160.797 12.7116 160.637 11.8237 160.64 10.7866C160.643 9.74941 160.805 8.8692 161.125 8.14595C161.448 7.41962 161.907 6.86719 162.501 6.48864C163.098 6.10701 163.809 5.91619 164.634 5.91619C165.458 5.91619 166.169 6.10701 166.766 6.48864C167.367 6.86719 167.828 7.41962 168.151 8.14595C168.474 8.87228 168.635 9.75248 168.631 10.7866C168.631 11.8268 168.47 12.7163 168.147 13.4549C167.824 14.1935 167.363 14.7583 166.766 15.1491C166.172 15.5369 165.461 15.7308 164.634 15.7308ZM164.634 13.8611C165.126 13.8611 165.525 13.6103 165.829 13.1087C166.134 12.6039 166.285 11.8299 166.282 10.7866C166.282 10.1033 166.212 9.54013 166.074 9.09694C165.935 8.65068 165.743 8.3183 165.497 8.09978C165.251 7.88127 164.963 7.77202 164.634 7.77202C164.144 7.77202 163.749 8.01977 163.447 8.51527C163.146 9.00769 162.993 9.76479 162.99 10.7866C162.987 11.479 163.053 12.053 163.189 12.5085C163.327 12.964 163.521 13.3041 163.77 13.5288C164.02 13.7504 164.307 13.8611 164.634 13.8611Z" fill="white"/>
</g>
</g>
<rect x="0.6" y="0.6" width="173.8" height="19.8" rx="4.4" stroke="url(#paint0_linear_2011_19)" stroke-opacity="0.88" stroke-width="1.2"/>
<defs>
<filter id="filter0_d_2011_19" x="-0.60028" y="-3.10028" width="27.2006" height="27.2006" filterUnits="userSpaceOnUse" color-interpolation-filters="sRGB">
<feFlood flood-opacity="0" result="BackgroundImageFix"/>
<feColorMatrix in="SourceAlpha" type="matrix" values="0 0 0 0 0 0 0 0 0 0 0 0 0 0 0 0 0 0 127 0" result="hardAlpha"/>
<feOffset/>
<feGaussianBlur stdDeviation="2.80014"/>
<feComposite in2="hardAlpha" operator="out"/>
<feColorMatrix type="matrix" values="0 0 0 0 0 0 0 0 0 0 0 0 0 0 0 0 0 0 0.25 0"/>
<feBlend mode="normal" in2="BackgroundImageFix" result="effect1_dropShadow_2011_19"/>
<feBlend mode="normal" in="SourceGraphic" in2="effect1_dropShadow_2011_19" result="shape"/>
</filter>
<filter id="filter1_d_2011_19" x="17.2857" y="-3.21429" width="158.429" height="27.4286" filterUnits="userSpaceOnUse" color-interpolation-filters="sRGB">
<feFlood flood-opacity="0" result="BackgroundImageFix"/>
<feColorMatrix in="SourceAlpha" type="matrix" values="0 0 0 0 0 0 0 0 0 0 0 0 0 0 0 0 0 0 127 0" result="hardAlpha"/>
<feOffset/>
<feGaussianBlur stdDeviation="2.85714"/>
<feComposite in2="hardAlpha" operator="out"/>
<feColorMatrix type="matrix" values="0 0 0 0 0 0 0 0 0 0 0 0 0 0 0 0 0 0 0.25 0"/>
<feBlend mode="normal" in2="BackgroundImageFix" result="effect1_dropShadow_2011_19"/>
<feBlend mode="normal" in="SourceGraphic" in2="effect1_dropShadow_2011_19" result="shape"/>
</filter>
<linearGradient id="paint0_linear_2011_19" x1="0" y1="10.5" x2="175" y2="10.5" gradientUnits="userSpaceOnUse">
<stop stop-color="#A5B2AC"/>
<stop offset="1" stop-color="#ECF0ED"/>
</linearGradient>
<clipPath id="clip0_2011_19">
<rect width="175" height="21" rx="5" fill="white"/>
</clipPath>
<clipPath id="clip1_2011_19">
<rect width="16" height="16" fill="white" transform="translate(5 2.5)"/>
</clipPath>
</defs>
</svg>
