<svg width="149" height="21" viewBox="0 0 149 21" fill="none" xmlns="http://www.w3.org/2000/svg">
<g clip-path="url(#clip0_2011_19)">
<rect width="149" height="21" rx="5" fill="black"/>
<g filter="url(#filter0_d_2011_19)">
<g clip-path="url(#clip1_2011_19)">
<path d="M12.9852 2.5C15.223 2.5 17.1282 3.28125 18.6995 4.843C19.4515 5.59525 20.0232 6.455 20.4137 7.4215C20.804 8.38825 20.9997 9.41425 20.9997 10.5C20.9997 11.5952 20.8065 12.6215 20.4212 13.5782C20.0355 14.5352 19.4662 15.3807 18.7142 16.114C17.9335 16.8852 17.0477 17.476 16.057 17.8855C15.0667 18.295 14.0427 18.4997 12.9857 18.4997C11.9287 18.4997 10.9167 18.2977 9.95 17.8925C8.9835 17.488 8.11675 16.9022 7.35 16.1357C6.58325 15.3692 6 14.5047 5.6 13.5427C5.2 12.5807 5 11.5667 5 10.5C5 9.44275 5.20225 8.42625 5.607 7.45C6.01175 6.47375 6.6 5.6 7.37125 4.8285C8.895 3.2765 10.7663 2.5 12.9852 2.5ZM13.0142 3.943C11.1857 3.943 9.6475 4.58125 8.39975 5.85725C7.771 6.4955 7.28775 7.212 6.94975 8.00725C6.61125 8.8025 6.4425 9.6335 6.4425 10.5002C6.4425 11.3575 6.61125 12.1837 6.94975 12.9785C7.288 13.7742 7.771 14.4837 8.39975 15.1075C9.02825 15.7315 9.7375 16.2072 10.5285 16.5362C11.3187 16.8647 12.1475 17.029 13.0142 17.029C13.8712 17.029 14.7017 16.8627 15.5075 16.5292C16.3122 16.1955 17.0377 15.715 17.6857 15.0865C18.9332 13.8675 19.5567 12.339 19.5567 10.5005C19.5567 9.61475 19.3947 8.77675 19.071 7.98625C18.7477 7.19575 18.276 6.49125 17.6575 5.87175C16.371 4.586 14.8237 3.943 13.0142 3.943ZM12.914 9.17175L11.8422 9.729C11.7277 9.49125 11.5875 9.32425 11.421 9.229C11.2542 9.134 11.0995 9.08625 10.9565 9.08625C10.2425 9.08625 9.885 9.5575 9.885 10.5005C9.885 10.929 9.9755 11.2715 10.1562 11.5287C10.3372 11.786 10.604 11.9147 10.9565 11.9147C11.4232 11.9147 11.7517 11.686 11.9425 11.229L12.928 11.729C12.7185 12.1197 12.428 12.4267 12.0565 12.6505C11.6855 12.8745 11.2757 12.9862 10.828 12.9862C10.1137 12.9862 9.53725 12.7675 9.09925 12.329C8.66125 11.891 8.44225 11.2815 8.44225 10.5007C8.44225 9.73875 8.66375 9.13425 9.1065 8.6865C9.54925 8.239 10.1087 8.015 10.7852 8.015C11.776 8.0145 12.4852 8.40025 12.914 9.17175ZM17.5282 9.17175L16.471 9.729C16.3567 9.49125 16.216 9.32425 16.0495 9.229C15.8825 9.134 15.7227 9.08625 15.571 9.08625C14.8567 9.08625 14.4992 9.5575 14.4992 10.5005C14.4992 10.929 14.59 11.2715 14.7707 11.5287C14.9515 11.786 15.218 11.9147 15.571 11.9147C16.0372 11.9147 16.366 11.686 16.5562 11.229L17.5562 11.729C17.3375 12.1197 17.042 12.4267 16.671 12.6505C16.2995 12.8745 15.8947 12.9862 15.4567 12.9862C14.7327 12.9862 14.1545 12.7675 13.7215 12.329C13.2875 11.891 13.071 11.2815 13.071 10.5007C13.071 9.73875 13.2922 9.13425 13.7355 8.6865C14.178 8.239 14.7375 8.015 15.4137 8.015C16.4042 8.0145 17.1095 8.40025 17.5282 9.17175Z" fill="white"/>
</g>
</g>
<g filter="url(#filter1_d_2011_19)">
<path d="M24.0387 15.5V6.04545H25.4652V14.272H29.7493V15.5H24.0387ZM31.2658 15.5V8.40909H32.6461V15.5H31.2658ZM31.9629 7.31498C31.7228 7.31498 31.5166 7.23497 31.3443 7.07493C31.175 6.91181 31.0904 6.71792 31.0904 6.49325C31.0904 6.26551 31.175 6.07161 31.3443 5.91158C31.5166 5.74846 31.7228 5.6669 31.9629 5.6669C32.2029 5.6669 32.4076 5.74846 32.5769 5.91158C32.7492 6.07161 32.8354 6.26551 32.8354 6.49325C32.8354 6.71792 32.7492 6.91181 32.5769 7.07493C32.4076 7.23497 32.2029 7.31498 31.9629 7.31498ZM37.49 15.6431C36.8036 15.6431 36.2127 15.4877 35.7172 15.1768C35.2248 14.8629 34.8463 14.4305 34.5816 13.8796C34.3169 13.3287 34.1846 12.6978 34.1846 11.9869C34.1846 11.2667 34.32 10.6312 34.5908 10.0803C34.8617 9.52628 35.2433 9.09387 35.7357 8.78302C36.2281 8.47218 36.8083 8.31676 37.4761 8.31676C38.0147 8.31676 38.4948 8.41678 38.9165 8.61683C39.3381 8.8138 39.6782 9.09079 39.9367 9.4478C40.1983 9.8048 40.3537 10.2218 40.403 10.6989H39.0596C38.9857 10.3665 38.8164 10.0803 38.5518 9.8402C38.2902 9.60014 37.9393 9.48011 37.4992 9.48011C37.1145 9.48011 36.7775 9.58167 36.4882 9.7848C36.202 9.98485 35.9788 10.2711 35.8188 10.6435C35.6588 11.0128 35.5787 11.4498 35.5787 11.9545C35.5787 12.4716 35.6572 12.9178 35.8142 13.2933C35.9711 13.6688 36.1927 13.9596 36.479 14.1658C36.7683 14.372 37.1083 14.4751 37.4992 14.4751C37.7608 14.4751 37.9978 14.4274 38.2101 14.332C38.4256 14.2335 38.6056 14.0935 38.7503 13.9119C38.898 13.7303 39.0011 13.5118 39.0596 13.2564H40.403C40.3537 13.715 40.2045 14.1243 39.9552 14.4844C39.7059 14.8445 39.3719 15.1276 38.9534 15.3338C38.5379 15.54 38.0501 15.6431 37.49 15.6431ZM44.9352 15.6431C44.2366 15.6431 43.6349 15.4938 43.1301 15.1953C42.6285 14.8937 42.2407 14.4705 41.9668 13.9258C41.696 13.378 41.5605 12.7363 41.5605 12.0007C41.5605 11.2744 41.696 10.6342 41.9668 10.0803C42.2407 9.52628 42.6223 9.09387 43.1117 8.78302C43.6041 8.47218 44.1796 8.31676 44.8382 8.31676C45.2383 8.31676 45.6261 8.38293 46.0016 8.51527C46.3771 8.64761 46.7141 8.85535 47.0126 9.13849C47.3111 9.42164 47.5466 9.78942 47.7189 10.2418C47.8913 10.6912 47.9774 11.2375 47.9774 11.8807V12.37H42.3407V11.3359H46.6248C46.6248 10.9728 46.551 10.6512 46.4032 10.3711C46.2555 10.0879 46.0478 9.86482 45.78 9.7017C45.5153 9.53859 45.2045 9.45703 44.8475 9.45703C44.4597 9.45703 44.1211 9.55244 43.8318 9.74325C43.5456 9.93099 43.324 10.1772 43.1671 10.4819C43.0132 10.7835 42.9363 11.1113 42.9363 11.4652V12.2731C42.9363 12.747 43.0193 13.1502 43.1855 13.4826C43.3548 13.815 43.5903 14.0689 43.8919 14.2443C44.1935 14.4167 44.5459 14.5028 44.949 14.5028C45.2106 14.5028 45.4492 14.4659 45.6646 14.392C45.88 14.3151 46.0662 14.2012 46.2232 14.0504C46.3801 13.8996 46.5002 13.7134 46.5833 13.4918L47.8897 13.7273C47.7851 14.112 47.5974 14.449 47.3265 14.7383C47.0588 15.0245 46.7218 15.2476 46.3155 15.4077C45.9123 15.5646 45.4522 15.6431 44.9352 15.6431ZM50.8893 11.2898V15.5H49.509V8.40909H50.8339V9.56321H50.9216C51.0847 9.18773 51.3402 8.88612 51.6879 8.65838C52.0388 8.43063 52.4804 8.31676 53.0129 8.31676C53.4961 8.31676 53.9192 8.41832 54.2824 8.62145C54.6456 8.82149 54.9272 9.12003 55.1272 9.51704C55.3273 9.91406 55.4273 10.4049 55.4273 10.9897V15.5H54.047V11.1559C54.047 10.6419 53.9131 10.2403 53.6453 9.95099C53.3776 9.65862 53.0098 9.51243 52.542 9.51243C52.2219 9.51243 51.9372 9.58167 51.6879 9.72017C51.4417 9.85866 51.2463 10.0618 51.1016 10.3295C50.9601 10.5942 50.8893 10.9143 50.8893 11.2898ZM62.5921 10.1403L61.341 10.3619C61.2887 10.2018 61.2056 10.0495 61.0917 9.90483C60.9809 9.76018 60.8301 9.64169 60.6393 9.54936C60.4485 9.45703 60.2099 9.41086 59.9237 9.41086C59.5329 9.41086 59.2066 9.49858 58.945 9.674C58.6834 9.84635 58.5526 10.0695 58.5526 10.3434C58.5526 10.5804 58.6403 10.7712 58.8158 10.9158C58.9912 11.0605 59.2743 11.179 59.6652 11.2713L60.7916 11.5298C61.4441 11.6806 61.9304 11.913 62.2504 12.2269C62.5705 12.5408 62.7305 12.9486 62.7305 13.4503C62.7305 13.875 62.6074 14.2535 62.3612 14.5859C62.1181 14.9152 61.778 15.1738 61.341 15.3615C60.907 15.5492 60.4038 15.6431 59.8314 15.6431C59.0374 15.6431 58.3895 15.4738 57.8879 15.1353C57.3862 14.7937 57.0784 14.3089 56.9646 13.6811L58.2987 13.478C58.3818 13.8258 58.5526 14.0889 58.8112 14.2674C59.0697 14.4428 59.4067 14.5305 59.8222 14.5305C60.2746 14.5305 60.6362 14.4367 60.907 14.2489C61.1779 14.0581 61.3133 13.8258 61.3133 13.5518C61.3133 13.3303 61.2302 13.1441 61.064 12.9932C60.9009 12.8424 60.6501 12.7286 60.3115 12.6516L59.1112 12.3885C58.4495 12.2377 57.9602 11.9976 57.6432 11.6683C57.3293 11.339 57.1723 10.922 57.1723 10.4173C57.1723 9.9987 57.2893 9.63245 57.5232 9.31853C57.7571 9.00461 58.0802 8.75994 58.4926 8.58451C58.905 8.40601 59.3774 8.31676 59.9099 8.31676C60.6762 8.31676 61.2794 8.48295 61.7195 8.81534C62.1596 9.14465 62.4505 9.58629 62.5921 10.1403ZM67.3043 15.6431C66.6057 15.6431 66.004 15.4938 65.4993 15.1953C64.9976 14.8937 64.6098 14.4705 64.3359 13.9258C64.0651 13.378 63.9297 12.7363 63.9297 12.0007C63.9297 11.2744 64.0651 10.6342 64.3359 10.0803C64.6098 9.52628 64.9915 9.09387 65.4808 8.78302C65.9732 8.47218 66.5488 8.31676 67.2074 8.31676C67.6075 8.31676 67.9953 8.38293 68.3707 8.51527C68.7462 8.64761 69.0832 8.85535 69.3817 9.13849C69.6803 9.42164 69.9157 9.78942 70.0881 10.2418C70.2604 10.6912 70.3466 11.2375 70.3466 11.8807V12.37H64.7099V11.3359H68.9939C68.9939 10.9728 68.9201 10.6512 68.7724 10.3711C68.6246 10.0879 68.4169 9.86482 68.1491 9.7017C67.8845 9.53859 67.5736 9.45703 67.2166 9.45703C66.8288 9.45703 66.4903 9.55244 66.201 9.74325C65.9148 9.93099 65.6932 10.1772 65.5362 10.4819C65.3823 10.7835 65.3054 11.1113 65.3054 11.4652V12.2731C65.3054 12.747 65.3885 13.1502 65.5547 13.4826C65.7239 13.815 65.9594 14.0689 66.261 14.2443C66.5626 14.4167 66.915 14.5028 67.3182 14.5028C67.5798 14.5028 67.8183 14.4659 68.0337 14.392C68.2492 14.3151 68.4354 14.2012 68.5923 14.0504C68.7493 13.8996 68.8693 13.7134 68.9524 13.4918L70.2589 13.7273C70.1542 14.112 69.9665 14.449 69.6957 14.7383C69.4279 15.0245 69.0909 15.2476 68.6846 15.4077C68.2815 15.5646 67.8214 15.6431 67.3043 15.6431Z" fill="#E8E8E8"/>
<path d="M73.7155 15.5V6.04545H77.658C78.3659 6.04545 78.9583 6.14548 79.4354 6.34552C79.9155 6.54557 80.2756 6.82564 80.5156 7.18572C80.7587 7.54581 80.8803 7.96283 80.8803 8.43679C80.8803 8.79687 80.8049 9.11849 80.6541 9.40163C80.5033 9.6817 80.2956 9.91406 80.0309 10.0987C79.7662 10.2834 79.46 10.4126 79.1122 10.4865V10.5788C79.4938 10.5973 79.8462 10.7004 80.1694 10.8881C80.4956 11.0759 80.7572 11.3375 80.9542 11.6729C81.1511 12.0053 81.2496 12.3993 81.2496 12.8548C81.2496 13.3626 81.1204 13.8165 80.8618 14.2166C80.6033 14.6136 80.2294 14.9276 79.74 15.1584C79.2507 15.3861 78.6567 15.5 77.9581 15.5H73.7155ZM76.0007 13.658H77.4133C77.9088 13.658 78.2735 13.5642 78.5074 13.3764C78.7444 13.1887 78.8629 12.9271 78.8629 12.5916C78.8629 12.3485 78.806 12.1392 78.6921 11.9638C78.5782 11.7853 78.4167 11.6483 78.2074 11.5529C77.9981 11.4544 77.7473 11.4052 77.4549 11.4052H76.0007V13.658ZM76.0007 9.93253H77.2656C77.5149 9.93253 77.7365 9.89098 77.9304 9.80788C78.1243 9.72478 78.2751 9.60476 78.3828 9.4478C78.4936 9.29084 78.549 9.10156 78.549 8.87997C78.549 8.56297 78.4367 8.31368 78.212 8.1321C77.9873 7.95052 77.6842 7.85973 77.3025 7.85973H76.0007V9.93253ZM81.8775 6.04545H84.4304L86.4293 10.0018H86.5124L88.5113 6.04545H91.0643L87.6065 12.3423V15.5H85.3352V12.3423L81.8775 6.04545ZM96.357 9.90483V11.6406H91.9806V9.90483H96.357ZM103.061 8.87997C103.031 8.54143 102.894 8.27829 102.65 8.09055C102.41 7.89974 102.067 7.80433 101.621 7.80433C101.326 7.80433 101.079 7.8428 100.882 7.91974C100.685 7.99668 100.538 8.10286 100.439 8.23828C100.341 8.37062 100.29 8.52296 100.287 8.69531C100.281 8.83688 100.308 8.96153 100.37 9.06924C100.435 9.17696 100.527 9.27237 100.647 9.35547C100.77 9.43549 100.918 9.50627 101.09 9.56782C101.262 9.62938 101.456 9.68324 101.672 9.7294L102.484 9.91406C102.952 10.0156 103.364 10.151 103.721 10.3203C104.082 10.4896 104.383 10.6912 104.626 10.9251C104.873 11.159 105.059 11.4283 105.185 11.733C105.311 12.0376 105.376 12.3793 105.379 12.7578C105.376 13.3549 105.225 13.8673 104.926 14.2951C104.628 14.7229 104.199 15.0507 103.638 15.2784C103.081 15.5062 102.409 15.62 101.621 15.62C100.83 15.62 100.141 15.5015 99.5528 15.2646C98.965 15.0276 98.5079 14.6675 98.1817 14.1843C97.8555 13.7011 97.6877 13.0902 97.6785 12.3516H99.8667C99.8852 12.6562 99.9667 12.9102 100.111 13.1133C100.256 13.3164 100.455 13.4703 100.707 13.5749C100.962 13.6796 101.258 13.7319 101.593 13.7319C101.901 13.7319 102.163 13.6903 102.378 13.6072C102.597 13.5241 102.764 13.4087 102.881 13.261C102.998 13.1133 103.058 12.944 103.061 12.7532C103.058 12.5747 103.003 12.4223 102.895 12.2962C102.787 12.1669 102.621 12.0561 102.397 11.9638C102.175 11.8684 101.892 11.7807 101.547 11.7006L100.559 11.4698C99.7405 11.2821 99.0958 10.9789 98.6249 10.5604C98.154 10.1387 97.9201 9.56936 97.9232 8.85227C97.9201 8.26752 98.0771 7.75509 98.3941 7.31498C98.7111 6.87488 99.1496 6.53172 99.7098 6.28551C100.27 6.0393 100.909 5.91619 101.626 5.91619C102.358 5.91619 102.994 6.04084 103.532 6.29013C104.074 6.53634 104.494 6.88257 104.793 7.32883C105.091 7.77509 105.243 8.29214 105.25 8.87997H103.061ZM108.286 15.5H105.83L109.02 6.04545H112.062L115.252 15.5H112.796L110.576 8.42755H110.502L108.286 15.5ZM107.958 11.7791H113.092V13.5149H107.958V11.7791ZM120.808 9.90483V11.6406H116.432V9.90483H120.808ZM122.268 13.9304V12.1484L126.141 6.04545H127.725V8.46449H126.806L124.539 12.0561V12.13H130.148V13.9304H122.268ZM126.834 15.5V13.3857L126.88 12.6055V6.04545H129.017V15.5H126.834ZM132.546 15.6339C132.213 15.6339 131.929 15.5169 131.692 15.283C131.458 15.0491 131.342 14.766 131.345 14.4336C131.342 14.1074 131.458 13.8288 131.692 13.598C131.929 13.3641 132.213 13.2472 132.546 13.2472C132.86 13.2472 133.137 13.3641 133.377 13.598C133.62 13.8288 133.743 14.1074 133.746 14.4336C133.743 14.6552 133.684 14.8568 133.57 15.0383C133.46 15.2199 133.313 15.3646 133.132 15.4723C132.953 15.58 132.758 15.6339 132.546 15.6339ZM138.722 15.7308C137.898 15.7308 137.187 15.5354 136.59 15.1445C135.993 14.7506 135.532 14.1858 135.209 13.4503C134.886 12.7116 134.726 11.8237 134.729 10.7866C134.732 9.74941 134.894 8.8692 135.214 8.14595C135.537 7.41962 135.996 6.86719 136.59 6.48864C137.187 6.10701 137.898 5.91619 138.722 5.91619C139.547 5.91619 140.258 6.10701 140.855 6.48864C141.455 6.86719 141.917 7.41962 142.24 8.14595C142.563 8.87228 142.723 9.75248 142.72 10.7866C142.72 11.8268 142.559 12.7163 142.236 13.4549C141.912 14.1935 141.452 14.7583 140.855 15.1491C140.261 15.5369 139.55 15.7308 138.722 15.7308ZM138.722 13.8611C139.215 13.8611 139.613 13.6103 139.918 13.1087C140.223 12.6039 140.374 11.8299 140.371 10.7866C140.371 10.1033 140.301 9.54013 140.163 9.09694C140.024 8.65068 139.832 8.3183 139.586 8.09978C139.34 7.88127 139.052 7.77202 138.722 7.77202C138.233 7.77202 137.838 8.01977 137.536 8.51527C137.234 9.00769 137.082 9.76479 137.079 10.7866C137.076 11.479 137.142 12.053 137.277 12.5085C137.416 12.964 137.61 13.3041 137.859 13.5288C138.108 13.7504 138.396 13.8611 138.722 13.8611Z" fill="white"/>
</g>
</g>
<rect x="0.6" y="0.6" width="147.8" height="19.8" rx="4.4" stroke="url(#paint0_linear_2011_19)" stroke-opacity="0.88" stroke-width="1.2"/>
<defs>
<filter id="filter0_d_2011_19" x="-0.60028" y="-3.10028" width="27.2006" height="27.2006" filterUnits="userSpaceOnUse" color-interpolation-filters="sRGB">
<feFlood flood-opacity="0" result="BackgroundImageFix"/>
<feColorMatrix in="SourceAlpha" type="matrix" values="0 0 0 0 0 0 0 0 0 0 0 0 0 0 0 0 0 0 127 0" result="hardAlpha"/>
<feOffset/>
<feGaussianBlur stdDeviation="2.80014"/>
<feComposite in2="hardAlpha" operator="out"/>
<feColorMatrix type="matrix" values="0 0 0 0 0 0 0 0 0 0 0 0 0 0 0 0 0 0 0.25 0"/>
<feBlend mode="normal" in2="BackgroundImageFix" result="effect1_dropShadow_2011_19"/>
<feBlend mode="normal" in="SourceGraphic" in2="effect1_dropShadow_2011_19" result="shape"/>
</filter>
<filter id="filter1_d_2011_19" x="17.2857" y="-3.21429" width="132.429" height="27.4286" filterUnits="userSpaceOnUse" color-interpolation-filters="sRGB">
<feFlood flood-opacity="0" result="BackgroundImageFix"/>
<feColorMatrix in="SourceAlpha" type="matrix" values="0 0 0 0 0 0 0 0 0 0 0 0 0 0 0 0 0 0 127 0" result="hardAlpha"/>
<feOffset/>
<feGaussianBlur stdDeviation="2.85714"/>
<feComposite in2="hardAlpha" operator="out"/>
<feColorMatrix type="matrix" values="0 0 0 0 0 0 0 0 0 0 0 0 0 0 0 0 0 0 0.25 0"/>
<feBlend mode="normal" in2="BackgroundImageFix" result="effect1_dropShadow_2011_19"/>
<feBlend mode="normal" in="SourceGraphic" in2="effect1_dropShadow_2011_19" result="shape"/>
</filter>
<linearGradient id="paint0_linear_2011_19" x1="0" y1="10.5" x2="149" y2="10.5" gradientUnits="userSpaceOnUse">
<stop stop-color="#A5B2AC"/>
<stop offset="1" stop-color="#ECF0ED"/>
</linearGradient>
<clipPath id="clip0_2011_19">
<rect width="149" height="21" rx="5" fill="white"/>
</clipPath>
<clipPath id="clip1_2011_19">
<rect width="16" height="16" fill="white" transform="translate(5 2.5)"/>
</clipPath>
</defs>
</svg>
