<svg xmlns="http://www.w3.org/2000/svg" width="181" height="21" fill="none" viewBox="0 0 181 21"><rect width="181" height="21" fill="currentColor" class="fill" rx="5"/><rect width="179.8" height="19.8" x=".6" y=".6" stroke="url(#paint0_linear_2019_2)" stroke-opacity=".88" stroke-width="1.2" rx="4.4"/><g clip-path="url(#clip0_2019_2)"><path fill="currentColor" d="M17.217 8.379S20.484 7.836 21 6.255h-5.004V5H5l1.355 1.654V8.35s3.417-.187 4.74.868c1.81 1.765-2.036 4.152-2.036 4.152l-.66 2.297c1.032-1.034 2.997-2.37 6.6-2.306-1.371.456-2.75 1.168-3.823 2.306h7.283l-.686-2.297s-5.279-3.276-.556-4.991Z" class="base"/></g><path fill="currentColor" d="M24.837 15.5h-1.514l3.402-9.455h1.649l3.402 9.455h-1.514l-2.673-7.737h-.074L24.837 15.5Zm.254-3.702h4.912v1.2h-4.912v-1.2Zm13.117-3.389L35.636 15.5H34.16l-2.576-7.09h1.482l1.796 5.456h.074l1.79-5.457h1.483Zm3.157 7.248c-.449 0-.855-.083-1.218-.25a2.053 2.053 0 0 1-.864-.733c-.209-.32-.314-.713-.314-1.178 0-.4.078-.729.231-.988.154-.258.362-.463.624-.613.261-.151.554-.265.877-.342.323-.077.652-.136.988-.176l1.034-.12c.264-.033.457-.087.577-.161.12-.074.18-.194.18-.36v-.033c0-.403-.114-.715-.342-.937-.224-.221-.56-.332-1.006-.332-.465 0-.831.103-1.099.31-.265.202-.448.429-.55.678l-1.296-.296c.153-.43.378-.778.674-1.043a2.734 2.734 0 0 1 1.029-.582 4.02 4.02 0 0 1 1.223-.184c.284 0 .584.034.9.101.32.065.62.185.896.36.28.176.51.427.688.753.178.323.268.743.268 1.26V15.5h-1.348v-.97h-.056c-.089.179-.223.354-.401.527a2.131 2.131 0 0 1-.688.43c-.28.113-.616.17-1.007.17Zm.3-1.108c.382 0 .708-.075.98-.226.273-.151.48-.348.622-.591.145-.246.217-.51.217-.79v-.914c-.049.05-.144.096-.286.139a4.46 4.46 0 0 1-.475.106l-.522.079-.425.055c-.267.034-.512.09-.734.17a1.26 1.26 0 0 0-.526.347c-.13.148-.194.345-.194.59 0 .343.126.601.379.777.252.172.574.258.965.258Zm5.038.951V8.41h1.38v7.09h-1.38Zm.697-8.185a.877.877 0 0 1-.618-.24.78.78 0 0 1-.254-.582.77.77 0 0 1 .254-.581.868.868 0 0 1 .618-.245c.24 0 .445.081.614.245.173.16.259.354.259.581a.774.774 0 0 1-.259.582.862.862 0 0 1-.614.24Zm3.92-1.27V15.5h-1.38V6.045h1.38Zm3.922 9.612c-.45 0-.856-.083-1.22-.25a2.054 2.054 0 0 1-.863-.733c-.209-.32-.313-.713-.313-1.178 0-.4.077-.729.23-.988.154-.258.362-.463.624-.613.261-.151.553-.265.877-.342.323-.077.652-.136.988-.176l1.034-.12c.264-.033.457-.087.577-.161.12-.074.18-.194.18-.36v-.033c0-.403-.114-.715-.342-.937-.225-.221-.56-.332-1.006-.332-.465 0-.831.103-1.099.31-.265.202-.448.429-.55.678l-1.297-.296c.154-.43.379-.778.675-1.043a2.734 2.734 0 0 1 1.029-.582 4.018 4.018 0 0 1 1.223-.184c.284 0 .584.034.9.101.32.065.62.185.896.36.28.176.51.427.688.753.178.323.268.743.268 1.26V15.5h-1.348v-.97h-.056c-.089.179-.223.354-.401.527a2.132 2.132 0 0 1-.688.43c-.28.113-.616.17-1.006.17Zm.3-1.108c.381 0 .707-.075.978-.226.274-.151.482-.348.623-.591.145-.246.217-.51.217-.79v-.914c-.049.05-.144.096-.286.139a4.46 4.46 0 0 1-.475.106 58.06 58.06 0 0 1-.522.079l-.425.055c-.267.034-.512.09-.734.17a1.26 1.26 0 0 0-.526.347c-.13.148-.194.345-.194.59 0 .343.126.601.379.777.252.172.574.258.965.258Zm5.148.951V6.045h1.38V9.56h.084c.08-.148.195-.319.346-.513.15-.194.36-.363.628-.508.267-.147.621-.221 1.061-.221a2.77 2.77 0 0 1 1.533.434c.45.289.802.706 1.057 1.25.259.546.388 1.201.388 1.967 0 .767-.128 1.424-.383 1.972-.256.544-.607.965-1.053 1.26a2.726 2.726 0 0 1-1.528.439c-.43 0-.783-.073-1.057-.217a2 2 0 0 1-.637-.508 3.844 3.844 0 0 1-.355-.517h-.116V15.5H60.69Zm1.353-3.546c0 .5.072.936.217 1.312.144.375.354.669.628.881.273.21.609.314 1.006.314.412 0 .757-.109 1.034-.328.277-.221.486-.521.628-.9a3.56 3.56 0 0 0 .217-1.279c0-.467-.071-.887-.213-1.26a1.928 1.928 0 0 0-.627-.882c-.277-.215-.624-.323-1.04-.323-.4 0-.738.103-1.015.31a1.9 1.9 0 0 0-.623.863c-.142.37-.212.8-.212 1.292Zm8.054-5.909V15.5h-1.38V6.045h1.38Zm4.913 9.598c-.698 0-1.3-.15-1.805-.448a3.038 3.038 0 0 1-1.163-1.27c-.27-.547-.406-1.189-.406-1.924 0-.727.135-1.367.406-1.92a3.154 3.154 0 0 1 1.145-1.298c.492-.31 1.068-.466 1.726-.466.4 0 .788.066 1.164.198.375.133.712.34 1.01.623.3.284.535.651.707 1.104.172.45.259.995.259 1.639v.489h-5.637v-1.034H76.7c0-.363-.074-.685-.222-.965a1.675 1.675 0 0 0-.623-.67 1.741 1.741 0 0 0-.932-.244c-.388 0-.727.095-1.016.286a1.92 1.92 0 0 0-.665.739c-.154.302-.23.63-.23.983v.808c0 .474.082.877.249 1.21.169.332.404.586.706.761.302.173.654.259 1.057.259.262 0 .5-.037.716-.111a1.485 1.485 0 0 0 .919-.9l1.306.235a2.366 2.366 0 0 1-.563 1.011 2.73 2.73 0 0 1-1.011.67 3.785 3.785 0 0 1-1.38.235Zm11.001 0c-.664 0-1.245-.152-1.74-.457a3.082 3.082 0 0 1-1.154-1.279c-.274-.547-.411-1.188-.411-1.92 0-.736.137-1.379.41-1.93.275-.55.66-.979 1.155-1.283.495-.305 1.076-.457 1.74-.457.665 0 1.245.152 1.74.457.496.304.881.732 1.155 1.283.274.551.41 1.194.41 1.93 0 .732-.136 1.373-.41 1.92a3.082 3.082 0 0 1-1.154 1.28c-.496.304-1.076.456-1.74.456Zm.005-1.159c.43 0 .788-.114 1.071-.341.283-.228.492-.531.628-.91.138-.378.208-.795.208-1.25 0-.453-.07-.869-.208-1.247a2.03 2.03 0 0 0-.628-.919c-.283-.23-.64-.346-1.07-.346-.435 0-.795.115-1.081.346-.283.23-.494.537-.633.919a3.677 3.677 0 0 0-.203 1.246c0 .456.068.873.203 1.251.139.379.35.682.633.91.286.227.646.341 1.08.341Zm6.222-3.194v4.21h-1.38V8.41h1.325v1.153h.087c.163-.375.419-.677.767-.905.35-.227.792-.341 1.325-.341.483 0 .906.101 1.269.304.363.2.645.499.845.896.2.397.3.888.3 1.473v4.51h-1.38v-4.344c0-.514-.134-.916-.402-1.205-.268-.292-.636-.439-1.103-.439-.32 0-.605.07-.854.208a1.493 1.493 0 0 0-.587.61c-.141.264-.212.584-.212.96Z" class="tagline"/><path fill="currentColor" d="M109.298 9.47h-2.309a1.99 1.99 0 0 0-.189-.64 1.555 1.555 0 0 0-.937-.8 2.137 2.137 0 0 0-.706-.11c-.459 0-.854.112-1.187.337-.329.224-.583.55-.762.974-.175.425-.263.938-.263 1.542 0 .628.09 1.154.268 1.579.182.421.436.74.762.955.329.213.718.319 1.168.319a2.3 2.3 0 0 0 .688-.097 1.69 1.69 0 0 0 .549-.282c.16-.126.291-.278.392-.457.105-.181.177-.386.217-.614l2.309.014a3.5 3.5 0 0 1-.365 1.237c-.2.406-.476.777-.826 1.113a3.906 3.906 0 0 1-1.284.794c-.502.197-1.077.295-1.726.295-.856 0-1.622-.188-2.299-.563-.674-.379-1.207-.93-1.598-1.653s-.586-1.603-.586-2.64c0-1.04.198-1.922.595-2.646.398-.723.935-1.272 1.612-1.648.677-.375 1.435-.563 2.276-.563.572 0 1.101.08 1.588.24.486.157.914.388 1.283.693.369.301.669.672.9 1.112.231.44.374.944.43 1.51Zm5.882 2.97V8.41h2.253v7.09h-2.151v-1.32h-.074a2.065 2.065 0 0 1-.803 1.034c-.376.252-.83.378-1.362.378-.484 0-.908-.11-1.274-.332a2.267 2.267 0 0 1-.855-.928c-.203-.4-.306-.868-.309-1.403v-4.52h2.258v4.076c.003.385.104.688.304.91.2.222.473.332.817.332.225 0 .427-.049.605-.148.182-.101.325-.247.43-.438.107-.194.161-.428.161-.702Zm3.69 3.06V8.41h2.193v1.292h.074c.129-.468.34-.816.632-1.044.292-.23.632-.346 1.02-.346.105 0 .213.008.323.023.111.013.214.033.31.06v1.962a2.18 2.18 0 0 0-.425-.087 3.765 3.765 0 0 0-.462-.033c-.267 0-.509.06-.724.18a1.29 1.29 0 0 0-.504.494c-.12.21-.18.456-.18.739v3.85h-2.257Zm11.662-4.926-2.073.056a.772.772 0 0 0-.175-.393.94.94 0 0 0-.374-.272 1.274 1.274 0 0 0-.526-.102 1.34 1.34 0 0 0-.67.157c-.181.105-.27.247-.267.425a.453.453 0 0 0 .166.36c.117.102.324.183.623.245l1.367.258c.707.136 1.234.36 1.578.674.348.314.524.73.527 1.247-.003.486-.148.91-.434 1.27-.283.36-.671.64-1.164.84-.492.196-1.055.295-1.689.295-1.013 0-1.812-.208-2.396-.623a2.326 2.326 0 0 1-.997-1.68l2.229-.056c.05.258.177.455.383.59.207.136.47.204.79.204.289 0 .525-.054.706-.162.182-.107.274-.25.277-.429a.456.456 0 0 0-.212-.383c-.139-.099-.356-.176-.651-.231l-1.237-.236c-.711-.129-1.241-.367-1.588-.715-.348-.35-.52-.797-.517-1.339-.003-.474.123-.878.378-1.214.256-.338.619-.597 1.09-.775.471-.179 1.026-.268 1.666-.268.96 0 1.718.201 2.272.605.553.4.86.95.918 1.652Zm4.602 5.06c-.742 0-1.382-.146-1.921-.439a3.033 3.033 0 0 1-1.237-1.26c-.286-.548-.429-1.199-.429-1.953 0-.732.144-1.372.434-1.92.289-.551.697-.979 1.223-1.284.526-.307 1.146-.461 1.86-.461.505 0 .967.078 1.385.235.419.157.781.39 1.085.697.305.308.542.688.711 1.14.169.45.254.965.254 1.547v.563h-6.163v-1.31h4.063a1.28 1.28 0 0 0-.171-.643 1.16 1.16 0 0 0-.457-.438 1.32 1.32 0 0 0-.66-.162c-.253 0-.479.057-.679.171-.2.111-.359.263-.476.457-.116.191-.178.408-.184.651v1.334c0 .29.057.543.171.762.113.216.275.383.484.503.21.12.459.18.748.18.2 0 .382-.027.545-.083.163-.055.303-.137.42-.244.117-.108.205-.24.263-.397l2.073.06c-.086.464-.275.869-.568 1.214a2.873 2.873 0 0 1-1.14.798c-.471.188-1.016.282-1.634.282Zm4.518-.134V6.045h6.454v1.856h-4.169v1.94h3.758v1.86h-3.758V15.5h-2.285Zm10.394.134c-.745 0-1.385-.152-1.92-.457a3.148 3.148 0 0 1-1.233-1.284c-.286-.55-.429-1.189-.429-1.915 0-.73.143-1.368.429-1.916.289-.551.7-.979 1.233-1.284.535-.307 1.175-.461 1.92-.461.745 0 1.383.154 1.916.461.535.305.946.733 1.232 1.284.29.548.434 1.186.434 1.916 0 .726-.144 1.365-.434 1.915a3.115 3.115 0 0 1-1.232 1.284c-.533.305-1.171.457-1.916.457Zm.014-1.704c.271 0 .5-.083.688-.249a1.56 1.56 0 0 0 .429-.692c.102-.296.152-.637.152-1.025 0-.394-.05-.739-.152-1.034a1.56 1.56 0 0 0-.429-.693 1.001 1.001 0 0 0-.688-.25c-.28 0-.517.084-.711.25-.191.166-.337.397-.439.693-.098.295-.147.64-.147 1.034 0 .388.049.73.147 1.025.102.295.248.526.439.692.194.166.431.25.711.25Zm4.725 1.57V8.41h2.193v1.292h.074c.129-.468.34-.816.632-1.044.292-.23.632-.346 1.02-.346.105 0 .213.008.323.023.111.013.214.033.31.06v1.962a2.18 2.18 0 0 0-.425-.087 3.765 3.765 0 0 0-.462-.033c-.267 0-.509.06-.724.18a1.29 1.29 0 0 0-.504.494c-.12.21-.18.456-.18.739v3.85h-2.257Zm8.409 2.807c-.674 0-1.251-.094-1.731-.282-.481-.188-.858-.444-1.131-.77a2.13 2.13 0 0 1-.494-1.109l2.137-.12c.04.145.114.271.222.379.11.107.254.19.429.25.178.058.388.087.628.087.378 0 .691-.093.937-.277.249-.182.374-.5.374-.956v-1.246h-.079a1.67 1.67 0 0 1-.406.586 1.923 1.923 0 0 1-.679.406 2.66 2.66 0 0 1-.923.148c-.517 0-.991-.12-1.422-.36-.427-.243-.771-.619-1.029-1.127-.256-.51-.383-1.167-.383-1.97 0-.829.132-1.51.397-2.046.264-.538.611-.937 1.038-1.195a2.655 2.655 0 0 1 1.39-.388c.372 0 .691.064.956.194.267.126.487.289.66.489.172.2.303.408.392.623h.065V8.41h2.248v7.119c0 .6-.151 1.106-.452 1.519-.302.412-.724.724-1.265.937-.542.215-1.168.323-1.879.323Zm.069-4.547c.274 0 .508-.073.702-.217a1.37 1.37 0 0 0 .448-.624 2.72 2.72 0 0 0 .156-.974c0-.384-.052-.715-.156-.992a1.384 1.384 0 0 0-.448-.646 1.11 1.11 0 0 0-.702-.227c-.28 0-.517.077-.711.231-.194.154-.342.37-.443.651a2.926 2.926 0 0 0-.148.983c0 .379.051.704.152.974.102.271.248.479.439.624.194.144.431.217.711.217Zm8.281 1.874c-.742 0-1.382-.146-1.921-.439a3.033 3.033 0 0 1-1.237-1.26c-.286-.548-.429-1.199-.429-1.953 0-.732.144-1.372.434-1.92.289-.551.697-.979 1.223-1.284.526-.307 1.147-.461 1.861-.461.504 0 .966.078 1.385.235.418.157.78.39 1.084.697.305.308.542.688.711 1.14.17.45.254.965.254 1.547v.563h-6.163v-1.31h4.063a1.27 1.27 0 0 0-.171-.643 1.16 1.16 0 0 0-.457-.438 1.32 1.32 0 0 0-.66-.162c-.253 0-.479.057-.679.171a1.283 1.283 0 0 0-.66 1.108v1.334c0 .29.057.543.171.762.114.216.275.383.484.503.21.12.459.18.748.18.2 0 .382-.027.545-.083.163-.055.303-.137.42-.244.117-.108.205-.24.263-.397l2.073.06c-.086.464-.275.869-.568 1.214a2.873 2.873 0 0 1-1.14.798c-.471.188-1.016.282-1.634.282Z" class="base"/><defs><linearGradient id="paint0_linear_2019_2" x1="0" x2="181" y1="10.5" y2="10.5" gradientUnits="userSpaceOnUse"><stop stop-color="#F16436"/><stop offset="1" stop-color="#F08C17"/></linearGradient><clipPath id="clip0_2019_2"><path fill="currentColor" d="M5 5h16v10.667H5z" class="base"/></clipPath></defs><style>.fill{color:#fff}.base{color:#000}.tagline{color:#1a1a1a}@media (prefers-color-scheme:dark){.fill{color:#000}.base{color:#fff}.tagline{color:#e8e8e8}}</style></svg>