<svg xmlns="http://www.w3.org/2000/svg" width="119" height="21" fill="none" viewBox="0 0 119 21"><rect width="119" height="21" fill="currentColor" class="fill" rx="5"/><rect width="117.8" height="19.8" x=".6" y=".6" stroke="url(#paint0_linear_2035_27)" stroke-opacity=".88" stroke-width="1.2" rx="4.4"/><g clip-path="url(#clip0_2035_27)"><path fill="currentColor" d="M18.666 8.155a2.334 2.334 0 0 0-2.334 2.334l.001.013.054.013h.001a1.1 1.1 0 0 1 .056.017h.002c.49.16.867.65.899 1.333.002.06.002.116 0 .171-.001.018-.001.037-.003.055l-.001.018-.006.053c-.008.074-.02.145-.038.21.398.291.877.449 1.369.45a2.334 2.334 0 1 0 0-4.667ZM7.334 8.155a2.334 2.334 0 1 0 0 4.668c.497-.002.98-.162 1.379-.458a1.538 1.538 0 0 1-.048-.405v-.006l.003-.073v-.016c.033-.728.46-1.237.999-1.36l.001-.016a2.334 2.334 0 0 0-2.334-2.334Z" class="base"/><path fill="currentColor" d="M13.006 7.496a8.63 8.63 0 0 0-2.55.38A7.127 7.127 0 0 0 8.294 8.96a5.18 5.18 0 0 0-1.445 1.62 3.94 3.94 0 0 0-.507 1.913c0 .657.172 1.307.507 1.913a5.18 5.18 0 0 0 1.445 1.621 7.126 7.126 0 0 0 2.162 1.084c.809.25 1.675.38 2.55.38 1.767 0 3.462-.527 4.711-1.464 1.25-.937 1.952-2.208 1.952-3.534 0-1.325-.702-2.596-1.952-3.533-1.25-.937-2.944-1.464-4.71-1.464Zm-3.084 2.978.06.003c.02.001.04.003.058.006h.003a.896.896 0 0 1 .054.008l.004.002a.93.93 0 0 1 .225.076c.356.174.617.572.69 1.066l.01.074.002.02.005.056.002.018.002.057v.019c.001.045 0 .09-.001.136v.002c-.039.818-.574 1.13-1.207 1.144h-.048c-.06 0-.12-.003-.179-.011-.53-.07-.92-.45-.936-1.132v-.064c0-.024 0-.048.002-.073v-.016c.035-.761.5-1.285 1.073-1.376.06-.01.12-.015.18-.015Zm6.167 0c.021 0 .042.002.062.003.02 0 .04.002.06.005l.059.007h.001c.04.006.078.015.116.025h.001c.019.006.038.011.056.018h.002c.49.16.867.65.899 1.333.002.06.002.116 0 .171-.001.018-.001.037-.003.055l-.001.018-.006.053c-.064.587-.43.92-.916.987a1.39 1.39 0 0 1-.188.012h-.05c-.632-.015-1.167-.326-1.206-1.144v-.157c.02-.7.408-1.262.935-1.367l.004-.002.043-.006a.883.883 0 0 1 .132-.01Zm-3.083 3.34c.81 0 1.587.041 2.306.114.122.012.2.139.152.253a2.664 2.664 0 0 1-4.918 0 .183.183 0 0 1 .153-.253 22.93 22.93 0 0 1 2.307-.113ZM16.655 6.817a1.654 1.654 0 1 0 0-3.308 1.654 1.654 0 0 0 0 3.308Z" class="base"/><path fill="currentColor" d="M12.982 7.707c-.199 0-.359-.082-.359-.21a2.69 2.69 0 0 1 2.688-2.688.358.358 0 1 1 0 .717c-1.087 0-1.97.883-1.97 1.97 0 .128-.16.21-.359.21Z" class="base"/></g><path fill="currentColor" d="M24.837 15.5h-1.514l3.402-9.455h1.649l3.402 9.455h-1.514l-2.673-7.737h-.074L24.837 15.5Zm.254-3.702h4.912v1.2h-4.912v-1.2Zm9.32-5.753V15.5h-1.38V6.045h1.38Zm7.17 4.095-1.25.222a1.485 1.485 0 0 0-.25-.457 1.233 1.233 0 0 0-.453-.356c-.19-.092-.429-.138-.715-.138-.39 0-.717.088-.979.263-.261.172-.392.396-.392.67 0 .236.088.427.263.572.175.144.459.263.85.355l1.126.259c.652.15 1.139.383 1.459.697.32.314.48.722.48 1.223 0 .425-.123.804-.37 1.136-.243.33-.583.588-1.02.775-.434.188-.937.282-1.51.282-.793 0-1.441-.17-1.943-.508-.502-.341-.81-.826-.923-1.454l1.334-.203c.083.348.254.61.512.79.259.175.596.262 1.011.262.453 0 .815-.093 1.085-.281.271-.19.407-.423.407-.697a.725.725 0 0 0-.25-.559c-.163-.15-.414-.264-.752-.341l-1.2-.263c-.662-.151-1.151-.391-1.468-.72-.315-.33-.471-.747-.471-1.252 0-.418.117-.785.35-1.098.234-.314.557-.56.97-.734.412-.179.885-.268 1.417-.268.767 0 1.37.166 1.81.498.44.33.73.771.872 1.325Zm4.643 5.503c-.664 0-1.245-.152-1.74-.457a3.082 3.082 0 0 1-1.154-1.279c-.274-.547-.411-1.188-.411-1.92 0-.736.137-1.379.41-1.93.275-.55.66-.979 1.155-1.283.495-.305 1.076-.457 1.74-.457.665 0 1.245.152 1.74.457.496.304.881.732 1.155 1.283.274.551.41 1.194.41 1.93 0 .732-.136 1.373-.41 1.92a3.082 3.082 0 0 1-1.154 1.28c-.496.304-1.076.456-1.74.456Zm.005-1.159c.43 0 .788-.114 1.071-.341.283-.228.492-.531.628-.91.138-.378.208-.795.208-1.25 0-.453-.07-.869-.208-1.247a2.03 2.03 0 0 0-.628-.919c-.283-.23-.64-.346-1.071-.346-.434 0-.794.115-1.08.346-.283.23-.494.537-.633.919a3.677 3.677 0 0 0-.203 1.246c0 .456.068.873.203 1.251.139.379.35.682.633.91.286.227.646.341 1.08.341Zm11.269 1.16c-.665 0-1.245-.153-1.74-.458a3.083 3.083 0 0 1-1.155-1.279c-.274-.547-.41-1.188-.41-1.92 0-.736.136-1.379.41-1.93.274-.55.659-.979 1.154-1.283.496-.305 1.076-.457 1.74-.457.666 0 1.246.152 1.741.457.496.304.88.732 1.154 1.283.274.551.411 1.194.411 1.93 0 .732-.137 1.373-.41 1.92a3.082 3.082 0 0 1-1.155 1.28c-.495.304-1.075.456-1.74.456Zm.004-1.16c.431 0 .788-.114 1.071-.341.284-.228.493-.531.628-.91a3.62 3.62 0 0 0 .208-1.25c0-.453-.07-.869-.208-1.247a2.03 2.03 0 0 0-.628-.919c-.283-.23-.64-.346-1.07-.346-.435 0-.795.115-1.08.346-.284.23-.495.537-.633.919a3.677 3.677 0 0 0-.203 1.246c0 .456.067.873.203 1.251.138.379.349.682.632.91.286.227.646.341 1.08.341Zm6.222-3.194v4.21h-1.38V8.41h1.325v1.153h.088c.163-.375.418-.677.766-.905.35-.227.792-.341 1.325-.341.483 0 .906.101 1.27.304.363.2.644.499.844.896.2.397.3.888.3 1.473v4.51h-1.38v-4.344c0-.514-.134-.916-.402-1.205-.267-.292-.635-.439-1.103-.439-.32 0-.605.07-.854.208a1.494 1.494 0 0 0-.586.61c-.142.264-.213.584-.213.96Z" class="tagline"/><path fill="currentColor" d="M72.716 15.5V6.045h3.905c.708 0 1.319.128 1.833.384.517.252.915.615 1.196 1.09.28.47.42 1.029.42 1.675 0 .655-.143 1.212-.43 1.671a2.743 2.743 0 0 1-1.219 1.043c-.526.237-1.149.356-1.87.356h-2.469v-1.8h2.045c.345 0 .633-.045.863-.135.234-.092.411-.23.531-.415.12-.188.18-.428.18-.72s-.06-.534-.18-.725a1.084 1.084 0 0 0-.53-.434c-.234-.098-.522-.148-.864-.148h-1.126V15.5h-2.285Zm5.322-4.321 2.355 4.321H77.9l-2.308-4.321h2.446Zm6.46 4.455c-.742 0-1.382-.146-1.92-.439a3.033 3.033 0 0 1-1.238-1.26c-.286-.548-.43-1.199-.43-1.953 0-.732.146-1.372.435-1.92.29-.551.697-.979 1.223-1.284.526-.307 1.147-.461 1.86-.461.505 0 .967.078 1.386.235.418.157.78.39 1.085.697.304.308.541.688.71 1.14.17.45.254.965.254 1.547v.563H81.7v-1.31h4.063a1.272 1.272 0 0 0-.171-.643 1.16 1.16 0 0 0-.457-.438 1.319 1.319 0 0 0-.66-.162c-.252 0-.479.057-.679.171a1.284 1.284 0 0 0-.66 1.108v1.334c0 .29.057.543.17.762.115.216.276.383.486.503.209.12.458.18.748.18.2 0 .381-.027.544-.083.163-.055.303-.137.42-.244a1.01 1.01 0 0 0 .263-.397l2.073.06c-.086.464-.275.869-.568 1.214-.289.341-.669.607-1.14.798-.47.188-1.016.282-1.634.282Zm7.108-.032c-.523 0-.998-.136-1.426-.407-.428-.27-.77-.677-1.025-1.218-.256-.542-.383-1.215-.383-2.018 0-.834.132-1.52.397-2.059.264-.538.61-.937 1.038-1.195.431-.259.894-.388 1.39-.388.372 0 .69.064.956.194.264.126.483.289.655.489.172.2.303.408.392.623h.047V6.045h2.257V15.5H93.67v-1.15h-.07c-.095.219-.23.424-.406.614-.175.191-.395.345-.66.462-.262.117-.57.176-.928.176Zm.785-1.76c.274 0 .508-.076.702-.23a1.49 1.49 0 0 0 .447-.66c.105-.283.157-.616.157-.998 0-.387-.052-.721-.157-1.001a1.381 1.381 0 0 0-.447-.646 1.109 1.109 0 0 0-.702-.227c-.28 0-.517.077-.711.231-.194.154-.342.37-.443.651-.099.28-.148.61-.148.992s.05.715.153.998c.101.283.247.503.438.66.194.154.43.23.711.23Zm7.53 1.76c-.523 0-.998-.136-1.426-.407-.428-.27-.77-.677-1.025-1.218-.255-.542-.383-1.215-.383-2.018 0-.834.132-1.52.397-2.059.265-.538.611-.937 1.039-1.195.43-.259.894-.388 1.39-.388.372 0 .69.064.955.194.265.126.483.289.656.489.172.2.303.408.392.623h.046V6.045h2.258V15.5h-2.235v-1.15h-.069a2.24 2.24 0 0 1-.406.614c-.176.191-.396.345-.661.462-.261.117-.57.176-.927.176Zm.785-1.76c.274 0 .508-.076.702-.23.194-.157.343-.377.448-.66.105-.283.157-.616.157-.998 0-.387-.052-.721-.157-1.001a1.384 1.384 0 0 0-.448-.646 1.11 1.11 0 0 0-.702-.227c-.28 0-.517.077-.71.231-.194.154-.342.37-.444.651-.098.28-.148.61-.148.992s.051.715.153.998c.101.283.248.503.438.66.194.154.431.23.711.23Zm4.941 1.658V8.41h2.258v7.09h-2.258Zm1.131-7.917c-.317 0-.589-.105-.817-.314a1.01 1.01 0 0 1-.342-.767c0-.295.114-.547.342-.757.228-.212.5-.318.817-.318.32 0 .593.106.817.318.228.21.342.462.342.757 0 .299-.114.554-.342.767-.224.21-.497.314-.817.314Zm6.566.826v1.662h-4.473V8.409h4.473Zm-3.536-1.699h2.257v6.56c0 .139.022.251.065.337a.402.402 0 0 0 .198.18c.087.034.19.051.31.051.086 0 .177-.008.272-.023.099-.018.172-.034.222-.046l.341 1.63c-.107.03-.26.069-.457.115a3.797 3.797 0 0 1-.697.088c-.529.024-.983-.037-1.362-.185a1.767 1.767 0 0 1-.863-.702c-.197-.317-.292-.715-.286-1.195V6.71Z" class="base"/><defs><linearGradient id="paint0_linear_2035_27" x1="0" x2="119" y1="10.5" y2="10.5" gradientUnits="userSpaceOnUse"><stop stop-color="#E53812"/><stop offset="1" stop-color="#FF7A00"/></linearGradient><clipPath id="clip0_2035_27"><path fill="currentColor" d="M5 2.5h16v16H5z" class="base"/></clipPath></defs><style>.fill{color:#fff}.base{color:#000}.tagline{color:#1a1a1a}@media (prefers-color-scheme:dark){.fill{color:#000}.base{color:#fff}.tagline{color:#e8e8e8}}</style></svg>