<svg xmlns="http://www.w3.org/2000/svg" width="173" height="21" fill="none" viewBox="0 0 173 21"><rect width="173" height="21" fill="currentColor" class="fill" rx="5"/><rect width="171.8" height="19.8" x=".6" y=".6" stroke="url(#paint0_linear_2065_2)" stroke-opacity=".88" stroke-width="1.2" rx="4.4"/><g clip-path="url(#clip0_2065_2)"><path fill="currentColor" d="M12.06 9.465a.74.74 0 0 0-.536.228l-5.69 5.949a.74.74 0 0 0-.175.72A2.285 2.285 0 0 0 7.847 18c.418 0 .837-.114 1.185-.345l-.045.027 6.429-3.658a.738.738 0 0 0 .172-1.15l-2.992-3.176a.74.74 0 0 0-.535-.233Zm-.007 1.813 1.815 1.926-5.612 3.193a.81.81 0 0 0-.044.027.595.595 0 0 1-.365.098c-.226 0-.408-.115-.554-.267l4.76-4.977Z" class="base"/><path fill="currentColor" d="M15.418 6.94a.739.739 0 0 0-.856.087L11.46 9.761a.738.738 0 0 0-.028 1.083l3.14 3.066a.738.738 0 0 0 .877.116l2.76-1.545a2.256 2.256 0 0 0 1.2-2.03 2.367 2.367 0 0 0-1.236-1.932L15.418 6.94Zm-.276 1.545 2.312 1.326.017.01a.95.95 0 0 1 .454.703.83.83 0 0 1-.417.655l-.011.006-2.289 1.282-2.175-2.124 2.109-1.858Z" class="base"/><path fill="currentColor" d="M6.187 4.131a.739.739 0 0 0-.52.483c-.099.298-.075.492-.075.64v10.53c0 .147.001.353.06.585a.739.739 0 0 0 1.234.348l5.911-5.8a.739.739 0 0 0-.012-1.067L6.874 4.308a.74.74 0 0 0-.687-.177ZM7.07 6.52l4.141 3.882-4.141 4.064V6.52Z" class="base"/><path fill="currentColor" d="M7.846 3c-1.039 0-1.961.678-2.197 1.678a.74.74 0 0 0 .2.695l5.727 5.653a.739.739 0 0 0 1.038 0l2.956-2.919a.739.739 0 0 0-.155-1.169l-6.392-3.62.046.027C8.689 3.093 8.265 3 7.846 3Zm0 1.478a.842.842 0 0 1 .449.126l5.54 3.138-1.74 1.72-4.797-4.735c.144-.138.328-.249.548-.249Z" class="base"/></g><path fill="currentColor" d="M29.437 9.032c-.09-.28-.21-.53-.36-.752a2.303 2.303 0 0 0-1.237-.937 2.84 2.84 0 0 0-.863-.125c-.533 0-1.013.137-1.44.41-.429.275-.767.676-1.016 1.206-.247.526-.37 1.17-.37 1.934 0 .766.125 1.414.374 1.944.25.529.591.93 1.025 1.204.434.274.928.411 1.482.411.514 0 .962-.104 1.343-.313.385-.21.682-.505.891-.887.213-.385.319-.837.319-1.357l.37.07h-2.706v-1.178h3.716v1.076c0 .794-.17 1.483-.508 2.068a3.458 3.458 0 0 1-1.394 1.348c-.59.317-1.268.475-2.031.475-.856 0-1.607-.197-2.253-.59-.643-.395-1.145-.953-1.505-1.676-.36-.727-.54-1.588-.54-2.586 0-.754.105-1.43.314-2.03.21-.601.503-1.11.882-1.529.381-.422.83-.743 1.343-.965a4.205 4.205 0 0 1 1.694-.337c.511 0 .987.076 1.427.226.443.151.837.365 1.182.642A3.632 3.632 0 0 1 30.9 9.032h-1.464Zm6.284 6.611c-.698 0-1.3-.15-1.805-.448a3.037 3.037 0 0 1-1.163-1.27c-.27-.547-.406-1.189-.406-1.924 0-.727.135-1.367.406-1.92a3.155 3.155 0 0 1 1.145-1.298c.492-.31 1.068-.466 1.726-.466.4 0 .788.066 1.164.198.375.133.712.34 1.01.623.3.284.535.651.707 1.104.172.45.259.995.259 1.639v.489h-5.637v-1.034h4.284c0-.363-.074-.685-.222-.965a1.676 1.676 0 0 0-.623-.67 1.741 1.741 0 0 0-.932-.244c-.388 0-.727.095-1.016.286a1.922 1.922 0 0 0-.665.739c-.154.302-.23.63-.23.983v.808c0 .474.083.877.249 1.21.169.332.404.586.706.761.302.173.654.259 1.057.259.262 0 .5-.037.716-.111a1.484 1.484 0 0 0 .919-.9l1.306.235a2.367 2.367 0 0 1-.563 1.011 2.73 2.73 0 0 1-1.011.67 3.784 3.784 0 0 1-1.38.235Zm7.884-7.234v1.108h-3.873V8.409h3.873ZM40.771 6.71h1.38v6.708c0 .268.04.47.12.605.08.132.183.223.31.272.128.046.268.07.42.07.11 0 .207-.008.29-.024.083-.015.148-.027.194-.037l.25 1.14a2.31 2.31 0 0 1-.342.093 2.7 2.7 0 0 1-.554.055 2.429 2.429 0 0 1-1.016-.194 1.742 1.742 0 0 1-.762-.627c-.194-.284-.29-.639-.29-1.067V6.71Zm7.801 8.79V8.41h1.38v7.09h-1.38Zm.697-8.185a.878.878 0 0 1-.618-.24.78.78 0 0 1-.254-.582.77.77 0 0 1 .254-.581.869.869 0 0 1 .618-.245c.24 0 .445.081.614.245.173.16.259.354.259.581a.774.774 0 0 1-.259.582.861.861 0 0 1-.614.24Zm5.85 1.094v1.108h-3.873V8.409h3.874ZM52.286 6.71h1.38v6.708c0 .268.04.47.12.605.08.132.184.223.31.272.13.046.27.07.42.07.11 0 .208-.008.29-.024.084-.015.149-.027.195-.037l.249 1.14a2.702 2.702 0 0 1-.896.148 2.428 2.428 0 0 1-1.015-.194 1.742 1.742 0 0 1-.762-.627c-.194-.284-.29-.639-.29-1.067V6.71Zm11.177 1.7v1.107h-4.007V8.409h4.007Zm-2.909 7.09V7.587c0-.443.097-.81.291-1.103.194-.295.451-.515.771-.66a2.46 2.46 0 0 1 1.043-.222c.277 0 .514.023.711.07.197.043.343.083.439.12l-.323 1.117a6.577 6.577 0 0 0-.25-.065 1.42 1.42 0 0 0-.369-.041c-.335 0-.575.083-.72.249-.142.166-.212.406-.212.72V15.5h-1.38Zm4.333 0V8.41h1.334v1.126h.074c.13-.382.357-.682.683-.9.33-.222.702-.333 1.117-.333a5.903 5.903 0 0 1 .587.032v1.32a2.47 2.47 0 0 0-.296-.05 2.82 2.82 0 0 0-.425-.033 1.8 1.8 0 0 0-.872.208 1.543 1.543 0 0 0-.822 1.39v4.33h-1.38Zm7.722.143c-.665 0-1.245-.152-1.74-.457a3.082 3.082 0 0 1-1.154-1.279c-.274-.547-.411-1.188-.411-1.92 0-.736.137-1.379.41-1.93.275-.55.66-.979 1.155-1.283.495-.305 1.075-.457 1.74-.457s1.245.152 1.74.457c.496.304.88.732 1.155 1.283.274.551.41 1.194.41 1.93 0 .732-.136 1.373-.41 1.92a3.082 3.082 0 0 1-1.154 1.28c-.496.304-1.076.456-1.74.456Zm.005-1.159c.43 0 .788-.114 1.07-.341.284-.228.493-.531.629-.91.138-.378.207-.795.207-1.25 0-.453-.069-.869-.207-1.247a2.03 2.03 0 0 0-.628-.919c-.283-.23-.64-.346-1.071-.346-.434 0-.794.115-1.08.346-.284.23-.495.537-.633.919a3.677 3.677 0 0 0-.203 1.246c0 .456.068.873.203 1.251.138.379.35.682.632.91.287.227.647.341 1.08.341Zm4.841 1.016V8.41h1.325v1.153h.088c.148-.39.39-.695.725-.914.335-.221.737-.332 1.205-.332.474 0 .87.11 1.19.332.324.222.562.526.716.914h.074c.17-.378.439-.68.808-.905.37-.227.81-.341 1.32-.341.644 0 1.168.201 1.575.605.409.403.614 1.01.614 1.823V15.5h-1.38v-4.626c0-.48-.132-.828-.393-1.043a1.427 1.427 0 0 0-.937-.323c-.45 0-.8.138-1.048.415-.25.274-.374.627-.374 1.057v4.52h-1.376v-4.713c0-.385-.12-.694-.36-.928-.24-.234-.552-.351-.937-.351-.262 0-.503.07-.725.208a1.524 1.524 0 0 0-.53.567 1.74 1.74 0 0 0-.2.845V15.5h-1.38Z" class="tagline"/><path fill="currentColor" d="M97.92 9.134a1.66 1.66 0 0 0-.23-.513 1.477 1.477 0 0 0-.375-.383 1.604 1.604 0 0 0-.507-.235c-.191-.056-.4-.083-.628-.083-.459 0-.856.11-1.191.332-.333.222-.59.545-.771.97-.182.421-.273.934-.273 1.537 0 .606.088 1.123.263 1.551.176.428.43.754.762.979.332.224.736.337 1.21.337.418 0 .772-.068 1.061-.203.293-.139.514-.334.665-.587.151-.252.226-.55.226-.89l.425.05h-2.299V10.33h4.076v1.252c0 .846-.18 1.57-.54 2.174a3.592 3.592 0 0 1-1.477 1.39c-.625.323-1.343.484-2.156.484-.902 0-1.694-.195-2.377-.586a4.063 4.063 0 0 1-1.598-1.671c-.381-.726-.572-1.588-.572-2.585 0-.776.115-1.464.346-2.064.231-.603.553-1.114.965-1.533a4.17 4.17 0 0 1 1.44-.95 4.788 4.788 0 0 1 1.769-.324c.547 0 1.057.079 1.528.236a4.08 4.08 0 0 1 1.255.664c.367.287.663.627.891 1.02.228.395.37.827.425 1.298H97.92Zm7.071 6.5c-.744 0-1.385-.152-1.92-.457a3.155 3.155 0 0 1-1.233-1.284c-.286-.55-.429-1.189-.429-1.915 0-.73.143-1.368.429-1.916.29-.551.7-.979 1.233-1.284.535-.307 1.176-.461 1.92-.461.745 0 1.384.154 1.916.461.536.305.947.733 1.233 1.284.289.548.434 1.186.434 1.916 0 .726-.145 1.365-.434 1.915a3.11 3.11 0 0 1-1.233 1.284c-.532.305-1.171.457-1.916.457Zm.014-1.704c.271 0 .5-.083.688-.249.188-.166.331-.397.429-.692.102-.296.153-.637.153-1.025 0-.394-.051-.739-.153-1.034-.098-.296-.241-.527-.429-.693a1.001 1.001 0 0 0-.688-.25c-.28 0-.517.084-.711.25a1.564 1.564 0 0 0-.438.693c-.099.295-.148.64-.148 1.034 0 .388.049.73.148 1.025.101.295.247.526.438.692.194.166.431.25.711.25Zm8.035 1.704c-.745 0-1.385-.152-1.92-.457a3.148 3.148 0 0 1-1.233-1.284c-.286-.55-.429-1.189-.429-1.915 0-.73.143-1.368.429-1.916.289-.551.7-.979 1.233-1.284.535-.307 1.175-.461 1.92-.461.745 0 1.384.154 1.916.461a3.08 3.08 0 0 1 1.233 1.284c.289.548.434 1.186.434 1.916 0 .726-.145 1.365-.434 1.915a3.117 3.117 0 0 1-1.233 1.284c-.532.305-1.171.457-1.916.457Zm.014-1.704c.271 0 .5-.083.688-.249.188-.166.331-.397.429-.692.102-.296.153-.637.153-1.025 0-.394-.051-.739-.153-1.034-.098-.296-.241-.527-.429-.693a1.001 1.001 0 0 0-.688-.25c-.28 0-.517.084-.711.25a1.564 1.564 0 0 0-.438.693c-.099.295-.148.64-.148 1.034 0 .388.049.73.148 1.025.101.295.247.526.438.692.194.166.431.25.711.25Zm8.03 4.377c-.674 0-1.251-.094-1.731-.282-.48-.188-.857-.444-1.131-.77a2.139 2.139 0 0 1-.494-1.109l2.138-.12c.04.145.114.271.221.379.111.107.254.19.43.25.178.058.387.087.627.087.379 0 .691-.093.938-.277.249-.182.373-.5.373-.956v-1.246h-.078a1.683 1.683 0 0 1-.406.586 1.932 1.932 0 0 1-.679.406 2.664 2.664 0 0 1-.923.148c-.517 0-.991-.12-1.422-.36-.428-.243-.771-.619-1.03-1.127-.255-.51-.383-1.167-.383-1.97 0-.829.133-1.51.397-2.046.265-.538.611-.937 1.039-1.195a2.655 2.655 0 0 1 1.39-.388c.372 0 .691.064.955.194.268.126.488.289.66.489.173.2.304.408.393.623h.064V8.41h2.249v7.119c0 .6-.151 1.106-.453 1.519-.301.412-.723.724-1.265.937-.541.215-1.168.323-1.879.323Zm.07-4.547c.274 0 .507-.073.701-.217.194-.145.344-.353.448-.624.105-.27.157-.595.157-.974 0-.384-.052-.715-.157-.992a1.377 1.377 0 0 0-.448-.646 1.107 1.107 0 0 0-.701-.227c-.28 0-.517.077-.711.231-.194.154-.342.37-.443.651a2.926 2.926 0 0 0-.148.983c0 .379.051.704.152.974.102.271.248.479.439.624.194.144.431.217.711.217Zm7.223-7.715V15.5h-2.257V6.045h2.257Zm4.752 9.589c-.742 0-1.382-.146-1.921-.439a3.033 3.033 0 0 1-1.237-1.26c-.286-.548-.429-1.199-.429-1.953 0-.732.144-1.372.434-1.92.289-.551.697-.979 1.223-1.284.526-.307 1.147-.461 1.861-.461.504 0 .966.078 1.384.235.419.157.781.39 1.085.697.305.308.542.688.711 1.14.17.45.254.965.254 1.547v.563h-6.163v-1.31h4.063a1.27 1.27 0 0 0-.171-.643 1.16 1.16 0 0 0-.457-.438 1.32 1.32 0 0 0-.66-.162c-.253 0-.479.057-.679.171a1.283 1.283 0 0 0-.66 1.108v1.334c0 .29.057.543.171.762.114.216.275.383.484.503.21.12.459.18.748.18.2 0 .382-.027.545-.083.163-.055.303-.137.42-.244.117-.108.205-.24.263-.397l2.073.06c-.086.464-.275.869-.568 1.214a2.873 2.873 0 0 1-1.14.798c-.471.188-1.016.282-1.634.282Zm7.311-.134V6.045h3.906c.708 0 1.318.139 1.832.416a2.91 2.91 0 0 1 1.196 1.15c.28.489.42 1.058.42 1.708 0 .652-.143 1.223-.429 1.712a2.88 2.88 0 0 1-1.214 1.131c-.527.268-1.151.402-1.875.402h-2.409v-1.8h1.985c.344 0 .632-.06.863-.18.234-.12.411-.288.531-.504.12-.218.18-.472.18-.761 0-.293-.06-.545-.18-.758a1.208 1.208 0 0 0-.531-.498c-.234-.117-.522-.176-.863-.176h-1.127V15.5h-2.285Zm10.738-9.455V15.5h-2.257V6.045h2.257Zm3.436 9.575c-.453 0-.854-.075-1.205-.226a1.874 1.874 0 0 1-.826-.693c-.2-.31-.3-.7-.3-1.168 0-.394.069-.726.207-.997.139-.27.33-.49.573-.66a2.69 2.69 0 0 1 .84-.383c.317-.09.655-.15 1.016-.18.403-.037.727-.075.974-.116.246-.043.424-.103.535-.18a.388.388 0 0 0 .171-.337v-.023c0-.237-.082-.42-.245-.549-.163-.13-.383-.194-.66-.194-.298 0-.538.065-.72.194a.85.85 0 0 0-.346.535l-2.082-.073c.061-.431.22-.816.475-1.155.259-.341.613-.609 1.062-.803.452-.197.996-.295 1.63-.295.452 0 .869.054 1.251.161.381.105.714.259.997.462.283.2.501.446.655.739.157.292.236.626.236 1.001v4.82h-2.124v-.988h-.055c-.126.24-.288.443-.485.61a1.93 1.93 0 0 1-.688.373 2.919 2.919 0 0 1-.886.125Zm.697-1.477c.243 0 .462-.05.655-.148.197-.098.354-.234.471-.406.117-.176.176-.379.176-.61v-.674a1.344 1.344 0 0 1-.236.093 3.935 3.935 0 0 1-.295.078 5.417 5.417 0 0 1-.332.065l-.328.05a2.039 2.039 0 0 0-.545.158.859.859 0 0 0-.342.277.678.678 0 0 0-.115.397c0 .233.083.412.249.535.17.123.383.185.642.185Zm6.048 4.016a4.35 4.35 0 0 1-.767-.064 3.091 3.091 0 0 1-.618-.162l.498-1.639c.222.074.422.117.6.13a.84.84 0 0 0 .467-.088c.132-.068.233-.19.304-.365l.088-.213-2.521-7.349h2.364l1.306 5.06h.074l1.325-5.06h2.378l-2.673 7.77c-.129.387-.313.729-.55 1.024a2.382 2.382 0 0 1-.909.702c-.369.17-.825.254-1.366.254Z" class="base"/><defs><linearGradient id="paint0_linear_2065_2" x1="0" x2="173" y1="10.5" y2="10.5" gradientUnits="userSpaceOnUse"><stop stop-color="#4285F4"/><stop offset=".33" stop-color="#34A853"/><stop offset=".66" stop-color="#FBBC04"/><stop offset="1" stop-color="#EA4335"/></linearGradient><clipPath id="clip0_2065_2"><path fill="currentColor" d="M5 3h15v15H5z" class="base"/></clipPath></defs><style>.fill{color:#fff}.base{color:#000}.tagline{color:#1a1a1a}@media (prefers-color-scheme:dark){.fill{color:#000}.base{color:#fff}.tagline{color:#e8e8e8}}</style></svg>