<svg xmlns="http://www.w3.org/2000/svg" width="191" height="21" fill="none" viewBox="0 0 191 21"><rect width="191" height="21" fill="currentColor" class="fill" rx="5"/><rect width="189.8" height="19.8" x=".6" y=".6" stroke="url(#paint0_linear_2072_66)" stroke-opacity=".88" stroke-width="1.2" rx="4.4"/><g clip-path="url(#clip0_2072_66)"><path fill="currentColor" d="m20.69 8.06-1.4-2.83s-.07-.08-.12-.08h-5.63c-.06 0-.12.05-.13.11-.01.06.02.13.08.15l7.04 2.83h.05c.04 0 .07-.02.1-.04.04-.04.05-.1.02-.15l-.01.01ZM16.81 7.71 5.39 2.94s-.06 0-.08.02c-.02.03-.02.06 0 .09l7.73 8.27s.03.02.05.02c0 0 .03 0 .05-.02l3.69-3.5s.02-.04.02-.06c0-.02-.02-.04-.04-.05ZM10.54 9.96s-.04-.03-.06-.02c-.02 0-.04.02-.05.04l-4.01 7.77s0 .07.02.09c.01 0 .03.01.04.01.02 0 .04 0 .05-.02l5.71-5.85s.03-.07 0-.09l-1.7-1.93Z" class="base"/></g><path fill="currentColor" d="M30.437 9.032c-.09-.28-.21-.53-.36-.752a2.303 2.303 0 0 0-1.237-.937 2.84 2.84 0 0 0-.863-.125c-.533 0-1.013.137-1.44.41-.429.275-.767.676-1.016 1.206-.247.526-.37 1.17-.37 1.934 0 .766.125 1.414.374 1.944.25.529.591.93 1.025 1.204.434.274.928.411 1.482.411.514 0 .962-.104 1.343-.313.385-.21.682-.505.891-.887.213-.385.319-.837.319-1.357l.37.07h-2.706v-1.178h3.716v1.076c0 .794-.17 1.483-.508 2.068a3.458 3.458 0 0 1-1.394 1.348c-.59.317-1.268.475-2.031.475-.856 0-1.607-.197-2.253-.59-.643-.395-1.145-.953-1.505-1.676-.36-.727-.54-1.588-.54-2.586 0-.754.105-1.43.314-2.03.21-.601.503-1.11.882-1.529.381-.422.83-.743 1.343-.965a4.205 4.205 0 0 1 1.694-.337c.511 0 .987.076 1.427.226.443.151.837.365 1.182.642A3.632 3.632 0 0 1 31.9 9.032h-1.464Zm6.284 6.611c-.698 0-1.3-.15-1.805-.448a3.037 3.037 0 0 1-1.163-1.27c-.27-.547-.406-1.189-.406-1.924 0-.727.135-1.367.406-1.92a3.155 3.155 0 0 1 1.145-1.298c.492-.31 1.068-.466 1.726-.466.4 0 .788.066 1.164.198.375.133.712.34 1.01.623.3.284.535.651.707 1.104.172.45.259.995.259 1.639v.489h-5.637v-1.034h4.284c0-.363-.074-.685-.222-.965a1.676 1.676 0 0 0-.623-.67 1.741 1.741 0 0 0-.932-.244c-.388 0-.727.095-1.016.286a1.922 1.922 0 0 0-.665.739c-.154.302-.23.63-.23.983v.808c0 .474.083.877.249 1.21.169.332.404.586.706.761.302.173.654.259 1.057.259.262 0 .5-.037.716-.111a1.484 1.484 0 0 0 .919-.9l1.306.235a2.367 2.367 0 0 1-.563 1.011 2.73 2.73 0 0 1-1.011.67 3.784 3.784 0 0 1-1.38.235Zm7.884-7.234v1.108h-3.873V8.409h3.873ZM41.771 6.71h1.38v6.708c0 .268.04.47.12.605.08.132.183.223.31.272.128.046.268.07.42.07.11 0 .207-.008.29-.024.083-.015.148-.027.194-.037l.25 1.14a2.31 2.31 0 0 1-.342.093 2.7 2.7 0 0 1-.554.055 2.429 2.429 0 0 1-1.016-.194 1.742 1.742 0 0 1-.762-.627c-.194-.284-.29-.639-.29-1.067V6.71Zm7.801 8.79V8.41h1.38v7.09h-1.38Zm.697-8.185a.878.878 0 0 1-.618-.24.78.78 0 0 1-.254-.582.77.77 0 0 1 .254-.581.869.869 0 0 1 .618-.245c.24 0 .445.081.614.245.173.16.259.354.259.581a.774.774 0 0 1-.259.582.861.861 0 0 1-.614.24Zm5.85 1.094v1.108h-3.873V8.409h3.874ZM53.286 6.71h1.38v6.708c0 .268.04.47.12.605.08.132.184.223.31.272.13.046.27.07.42.07.11 0 .208-.008.29-.024.084-.015.149-.027.195-.037l.249 1.14a2.702 2.702 0 0 1-.896.148 2.428 2.428 0 0 1-1.015-.194 1.742 1.742 0 0 1-.762-.627c-.194-.284-.29-.639-.29-1.067V6.71Zm11.177 1.7v1.107h-4.007V8.409h4.007Zm-2.909 7.09V7.587c0-.443.097-.81.291-1.103.194-.295.451-.515.771-.66a2.46 2.46 0 0 1 1.043-.222c.277 0 .514.023.711.07.197.043.344.083.439.12l-.323 1.117a6.577 6.577 0 0 0-.25-.065 1.42 1.42 0 0 0-.369-.041c-.335 0-.575.083-.72.249-.142.166-.212.406-.212.72V15.5h-1.38Zm4.333 0V8.41h1.334v1.126h.074c.13-.382.357-.682.683-.9.33-.222.702-.333 1.117-.333a5.903 5.903 0 0 1 .587.032v1.32a2.473 2.473 0 0 0-.296-.05 2.818 2.818 0 0 0-.425-.033 1.8 1.8 0 0 0-.872.208 1.544 1.544 0 0 0-.822 1.39v4.33h-1.38Zm7.722.143c-.665 0-1.245-.152-1.74-.457a3.082 3.082 0 0 1-1.154-1.279c-.274-.547-.411-1.188-.411-1.92 0-.736.137-1.379.41-1.93.275-.55.66-.979 1.155-1.283.495-.305 1.075-.457 1.74-.457s1.245.152 1.74.457c.496.304.88.732 1.155 1.283.274.551.41 1.194.41 1.93 0 .732-.136 1.373-.41 1.92a3.082 3.082 0 0 1-1.154 1.28c-.496.304-1.076.456-1.74.456Zm.005-1.159c.43 0 .788-.114 1.07-.341.284-.228.493-.531.629-.91.138-.378.207-.795.207-1.25 0-.453-.069-.869-.207-1.247a2.03 2.03 0 0 0-.628-.919c-.283-.23-.64-.346-1.071-.346-.434 0-.794.115-1.08.346-.284.23-.495.537-.633.919a3.677 3.677 0 0 0-.203 1.246c0 .456.068.873.203 1.251.138.379.35.682.632.91.287.227.647.341 1.08.341Zm4.841 1.016V8.41h1.325v1.153h.088c.148-.39.39-.695.725-.914.335-.221.737-.332 1.205-.332.474 0 .87.11 1.19.332.324.222.562.526.716.914h.074c.17-.378.439-.68.808-.905.37-.227.81-.341 1.32-.341.644 0 1.168.201 1.575.605.409.403.614 1.01.614 1.823V15.5h-1.38v-4.626c0-.48-.132-.828-.393-1.043a1.427 1.427 0 0 0-.937-.323c-.45 0-.8.138-1.048.415-.25.274-.374.627-.374 1.057v4.52h-1.376v-4.713c0-.385-.12-.694-.36-.928-.24-.234-.552-.351-.937-.351-.262 0-.503.07-.725.208a1.524 1.524 0 0 0-.53.567 1.74 1.74 0 0 0-.2.845V15.5h-1.38Zm18.24-7.09v1.107h-3.873V8.409h3.873Zm-2.835-1.7h1.38v6.708c0 .268.04.47.12.605.08.132.184.223.31.272.13.046.27.07.42.07.111 0 .208-.008.291-.024.083-.015.148-.027.194-.037l.25 1.14a2.702 2.702 0 0 1-.896.148 2.428 2.428 0 0 1-1.016-.194 1.742 1.742 0 0 1-.762-.627c-.194-.284-.29-.639-.29-1.067V6.71Zm5.895 4.58v4.21h-1.38V6.045h1.361v3.518h.088a2.04 2.04 0 0 1 .761-.91c.342-.224.788-.336 1.339-.336.487 0 .911.1 1.274.3.367.2.65.498.85.895.203.394.305.887.305 1.478v4.51h-1.381v-4.344c0-.52-.134-.923-.401-1.21-.268-.289-.641-.434-1.118-.434-.326 0-.618.07-.877.208a1.499 1.499 0 0 0-.605.61c-.144.264-.216.584-.216.96Zm9.496 4.353c-.699 0-1.301-.15-1.805-.448a3.037 3.037 0 0 1-1.164-1.27c-.271-.547-.406-1.189-.406-1.924 0-.727.135-1.367.406-1.92a3.158 3.158 0 0 1 1.145-1.298c.493-.31 1.068-.466 1.727-.466.4 0 .788.066 1.163.198.375.133.713.34 1.011.623.299.284.534.651.706 1.104.173.45.259.995.259 1.639v.489h-5.637v-1.034h4.284c0-.363-.074-.685-.221-.965a1.677 1.677 0 0 0-.624-.67 1.738 1.738 0 0 0-.932-.244c-.388 0-.726.095-1.016.286a1.913 1.913 0 0 0-.664.739 2.13 2.13 0 0 0-.231.983v.808c0 .474.083.877.249 1.21.169.332.405.586.706.761.302.173.654.259 1.057.259.262 0 .501-.037.716-.111a1.482 1.482 0 0 0 .919-.9l1.306.235a2.357 2.357 0 0 1-.563 1.011c-.268.287-.605.51-1.011.67a3.783 3.783 0 0 1-1.38.235Z" class="tagline"/><path fill="currentColor" d="M120.826 8.88c-.031-.339-.168-.602-.411-.79-.24-.19-.583-.286-1.029-.286-.296 0-.542.039-.739.116a.959.959 0 0 0-.443.318.772.772 0 0 0-.153.457.677.677 0 0 0 .084.374.931.931 0 0 0 .277.286c.123.08.27.151.443.213.172.061.366.115.581.161l.813.185c.468.102.88.237 1.237.406.36.17.662.371.905.605.246.234.432.503.559.808.126.305.19.646.193 1.025-.003.597-.153 1.11-.452 1.537-.299.428-.728.756-1.288.983-.557.228-1.229.342-2.017.342-.791 0-1.481-.118-2.069-.355-.587-.237-1.044-.598-1.371-1.08-.326-.484-.494-1.095-.503-1.833h2.188c.019.304.1.558.245.761.145.203.343.357.596.462.255.105.55.157.886.157.308 0 .569-.042.785-.125.218-.083.386-.198.503-.346a.817.817 0 0 0 .18-.508.703.703 0 0 0-.166-.457c-.108-.13-.274-.24-.499-.332a5.123 5.123 0 0 0-.849-.263l-.988-.231c-.819-.188-1.464-.491-1.934-.91-.471-.421-.705-.99-.702-1.708-.003-.584.154-1.097.471-1.537.317-.44.755-.783 1.315-1.03.561-.246 1.199-.369 1.916-.369.733 0 1.368.125 1.907.374.542.246.962.593 1.26 1.039.299.446.451.963.457 1.551h-2.188Zm5.729 2.576V15.5h-2.257V8.41h2.146v1.3h.079c.157-.433.424-.773.803-1.02.379-.249.829-.373 1.353-.373.498 0 .931.112 1.297.337.369.221.655.532.858.932.207.397.308.862.305 1.394v4.52h-2.257v-4.076c.003-.394-.097-.702-.3-.924-.2-.221-.479-.332-.836-.332-.237 0-.446.052-.628.157a1.04 1.04 0 0 0-.415.439c-.096.19-.145.421-.148.692Zm7.981 4.164c-.453 0-.854-.075-1.205-.226a1.882 1.882 0 0 1-.827-.693c-.2-.31-.3-.7-.3-1.168 0-.394.07-.726.208-.997.139-.27.329-.49.573-.66a2.69 2.69 0 0 1 .84-.383c.317-.09.655-.15 1.015-.18.404-.037.728-.075.975-.116.246-.043.424-.103.535-.18a.388.388 0 0 0 .171-.337v-.023c0-.237-.082-.42-.245-.549-.163-.13-.383-.194-.66-.194-.299 0-.539.065-.72.194a.85.85 0 0 0-.346.535l-2.082-.073c.061-.431.22-.816.475-1.155.259-.341.613-.609 1.062-.803.452-.197.995-.295 1.629-.295.453 0 .87.054 1.252.161.381.105.714.259.997.462.283.2.501.446.655.739.157.292.236.626.236 1.001v4.82h-2.124v-.988h-.055c-.126.24-.288.443-.485.61a1.93 1.93 0 0 1-.688.373 2.919 2.919 0 0 1-.886.125Zm.697-1.477c.243 0 .461-.05.655-.148.197-.098.354-.234.471-.406.117-.176.176-.379.176-.61v-.674a1.344 1.344 0 0 1-.236.093 5.306 5.306 0 0 1-.628.143l-.327.05a2.039 2.039 0 0 0-.545.158.859.859 0 0 0-.342.277.678.678 0 0 0-.115.397c0 .233.083.412.249.535.169.123.383.185.642.185Zm4.921 4.016V8.41h2.234v1.214h.07c.092-.215.223-.423.392-.623.172-.2.391-.363.656-.49.267-.129.587-.193.96-.193.492 0 .952.129 1.38.388.431.258.779.657 1.043 1.195.265.539.397 1.225.397 2.06 0 .802-.127 1.475-.383 2.017-.252.541-.594.947-1.025 1.218a2.61 2.61 0 0 1-1.426.407 2.26 2.26 0 0 1-.928-.176 2.008 2.008 0 0 1-.66-.462 2.195 2.195 0 0 1-.406-.614h-.047v3.81h-2.257Zm2.211-6.204c0 .381.051.714.153.997.104.283.254.503.447.66.197.154.433.23.707.23a1.1 1.1 0 0 0 .706-.23c.194-.157.34-.377.439-.66.101-.283.152-.616.152-.998 0-.381-.051-.712-.152-.992a1.4 1.4 0 0 0-.439-.65 1.089 1.089 0 0 0-.706-.232c-.277 0-.513.076-.707.226-.193.151-.343.367-.447.647-.102.28-.153.614-.153 1.002Zm14.008-3.075c-.031-.339-.168-.602-.411-.79-.24-.19-.583-.286-1.03-.286-.295 0-.541.039-.738.116a.959.959 0 0 0-.443.318.766.766 0 0 0-.153.457.685.685 0 0 0 .083.374.943.943 0 0 0 .277.286c.124.08.271.151.444.213.172.061.366.115.581.161l.813.185c.468.102.88.237 1.237.406.36.17.662.371.905.605.246.234.432.503.558.808.127.305.191.646.194 1.025-.003.597-.154 1.11-.452 1.537-.299.428-.728.756-1.288.983-.557.228-1.23.342-2.018.342-.79 0-1.48-.118-2.068-.355-.588-.237-1.045-.598-1.371-1.08-.326-.484-.494-1.095-.503-1.833h2.188c.019.304.1.558.245.761.145.203.343.357.595.462.256.105.551.157.887.157.308 0 .569-.042.785-.125.218-.083.386-.198.503-.346a.817.817 0 0 0 .18-.508.703.703 0 0 0-.166-.457c-.108-.13-.274-.24-.499-.332a5.154 5.154 0 0 0-.849-.263l-.988-.231c-.819-.188-1.464-.491-1.935-.91-.47-.421-.704-.99-.701-1.708-.003-.584.154-1.097.471-1.537.317-.44.755-.783 1.315-1.03.56-.246 1.199-.369 1.916-.369.733 0 1.368.125 1.907.374.541.246.961.593 1.26 1.039.299.446.451.963.457 1.551h-2.188Zm7.474-.47v1.661h-4.473V8.409h4.473Zm-3.536-1.7h2.257v6.56c0 .139.022.251.065.337a.402.402 0 0 0 .198.18.85.85 0 0 0 .31.051c.086 0 .177-.008.272-.023.098-.018.172-.034.222-.046l.341 1.63c-.108.03-.26.069-.457.115a3.797 3.797 0 0 1-.697.088c-.529.024-.983-.037-1.362-.185a1.767 1.767 0 0 1-.863-.702c-.197-.317-.292-.715-.286-1.195V6.71Zm7.922 8.924c-.745 0-1.385-.152-1.921-.457a3.152 3.152 0 0 1-1.232-1.284c-.287-.55-.43-1.189-.43-1.915 0-.73.143-1.368.43-1.916.289-.551.7-.979 1.232-1.284.536-.307 1.176-.461 1.921-.461.744 0 1.383.154 1.915.461.536.305.947.733 1.233 1.284.289.548.434 1.186.434 1.916 0 .726-.145 1.365-.434 1.915a3.11 3.11 0 0 1-1.233 1.284c-.532.305-1.171.457-1.915.457Zm.013-1.704a1 1 0 0 0 .688-.249c.188-.166.331-.397.43-.692.101-.296.152-.637.152-1.025 0-.394-.051-.739-.152-1.034-.099-.296-.242-.527-.43-.693a1 1 0 0 0-.688-.25c-.28 0-.517.084-.711.25-.19.166-.337.397-.438.693-.099.295-.148.64-.148 1.034 0 .388.049.73.148 1.025.101.295.248.526.438.692.194.166.431.25.711.25Zm4.725 1.57V8.41h2.193v1.292h.074c.129-.468.34-.816.633-1.044.292-.23.632-.346 1.02-.346.104 0 .212.008.323.023.111.013.214.033.309.06v1.962a2.164 2.164 0 0 0-.425-.087 3.763 3.763 0 0 0-.461-.033c-.268 0-.51.06-.725.18-.212.117-.38.282-.503.494-.12.21-.18.456-.18.739v3.85h-2.258Zm8.419.134c-.742 0-1.382-.146-1.921-.439a3.033 3.033 0 0 1-1.237-1.26c-.286-.548-.429-1.199-.429-1.953 0-.732.144-1.372.433-1.92a3.14 3.14 0 0 1 1.224-1.284c.526-.307 1.146-.461 1.86-.461.505 0 .967.078 1.385.235.419.157.78.39 1.085.697.305.308.542.688.711 1.14.169.45.254.965.254 1.547v.563h-6.163v-1.31h4.062a1.279 1.279 0 0 0-.17-.643 1.167 1.167 0 0 0-.457-.438 1.32 1.32 0 0 0-.661-.162c-.252 0-.478.057-.678.171a1.282 1.282 0 0 0-.66 1.108v1.334c0 .29.057.543.17.762.114.216.276.383.485.503.209.12.459.18.748.18.2 0 .382-.027.545-.083.163-.055.303-.137.42-.244.117-.108.205-.24.263-.397l2.073.06c-.086.464-.276.869-.568 1.214a2.873 2.873 0 0 1-1.14.798c-.471.188-1.016.282-1.634.282Z" class="base"/><defs><linearGradient id="paint0_linear_2072_66" x1="0" x2="191" y1="10.5" y2="10.5" gradientUnits="userSpaceOnUse"><stop stop-color="#FA6340"/><stop offset=".65" stop-color="#82BFA1"/></linearGradient><clipPath id="clip0_2072_66"><path fill="currentColor" d="M5 2.5h16v16H5z" class="base"/></clipPath></defs><style>.fill{color:#fff}.base{color:#000}.tagline{color:#1a1a1a}@media (prefers-color-scheme:dark){.fill{color:#000}.base{color:#fff}.tagline{color:#e8e8e8}}</style></svg>