<svg xmlns="http://www.w3.org/2000/svg" width="165" height="21" fill="none" viewBox="0 0 165 21"><rect width="163.8" height="19.8" x=".6" y=".6" fill="currentColor" class="fill" rx="4.4"/><rect width="163.8" height="19.8" x=".6" y=".6" stroke="url(#paint0_linear_2008_17)" stroke-width="1.2" rx="4.4"/><g clip-path="url(#clip0_2008_17)"><path fill="currentColor" d="M13.168 2.503A7.86 7.86 0 0 0 7.22 4.989a7.333 7.333 0 0 0-1.446 2.074A7.567 7.567 0 0 0 5 10.509c0 .946.114 1.666.4 2.513.16.506.514 1.266.78 1.686a8.199 8.199 0 0 0 5.9 3.76c.293.033 1.694.046 1.84.013.134-.027.147.066-.173-1.134l-.24-.913-.673-.04a5.671 5.671 0 0 1-3.454-1.2 3.559 3.559 0 0 1-.866-.84c0-.033.226-.187.493-.333a25.03 25.03 0 0 1 1.92-1.086c.02 0 .333.3.706.653l.667.647 1.38-.287 1.374-.287.98-.98c.533-.533.986-1 .986-1.013 0-.06-.28-1.087-.306-1.133-.027-.04-.134-.02-.68.12-.354.086-.8.2-.967.266l-.32.1-.353.354-.354.353-.62.067-.62.046-.347-.333a1.8 1.8 0 0 1-.64-1.133l-.086-.4.287-.38c.453-.6.453-.6.973-.734.267-.066.433-.133.553-.22.087-.066.434-.386.76-.712l.6-.6-.466-.467-.467-.467-1.3.36c-.713.2-1.307.354-1.313.354-.02 0-1.487 1.653-1.754 1.98l-.193.233.187.687c.106.373.2.773.206.893l.02.2-.226.153c-.247.154-1.48.867-1.894 1.087-.24.133-.246.133-.293.067-.053-.067-.153-.4-.213-.687-.12-.573-.114-1.833.013-2.487a5.893 5.893 0 0 1 5.267-4.62c.286-.02.513-.053.52-.066.04-.114.333-2 .313-2.026-.007-.014-.067-.014-.133-.02h-.007Zm2.453.446c-.133 0-.2.067-.247.254-.04.153-.306 1.613-.306 1.68 0 .026.066.073.146.106a5.673 5.673 0 0 1 1.994 1.334 5.586 5.586 0 0 1 1.44 2.299 4.6 4.6 0 0 1 .267 1.867c0 .713 0 .846-.067 1.153a6.246 6.246 0 0 1-1.174 2.513 7.93 7.93 0 0 1-.913.92c-.253.213-1.026.733-1.133.76-.067.02-.067.04-.047.173.02.12.427 1.707.467 1.853l.04.04a8.046 8.046 0 0 0 4.846-6.266c.087-.514.087-1.72 0-2.267a7.96 7.96 0 0 0-3.82-5.719c-.466-.28-1.366-.706-1.5-.706l.007.006Z" class="base"/></g><path fill="currentColor" d="M24.837 15.5h-1.514l3.402-9.455h1.649l3.402 9.455h-1.514l-2.673-7.737h-.074L24.837 15.5Zm.254-3.702h4.912v1.2h-4.912v-1.2Zm13.117-3.389L35.636 15.5H34.16l-2.576-7.09h1.482l1.796 5.456h.074l1.79-5.457h1.483Zm3.157 7.248c-.449 0-.855-.083-1.218-.25a2.053 2.053 0 0 1-.864-.733c-.209-.32-.314-.713-.314-1.178 0-.4.078-.729.231-.988.154-.258.362-.463.624-.613.261-.151.554-.265.877-.342.323-.077.652-.136.988-.176l1.034-.12c.264-.033.457-.087.577-.161.12-.074.18-.194.18-.36v-.033c0-.403-.114-.715-.342-.937-.224-.221-.56-.332-1.006-.332-.465 0-.831.103-1.099.31-.265.202-.448.429-.55.678l-1.296-.296c.153-.43.378-.778.674-1.043a2.734 2.734 0 0 1 1.029-.582 4.02 4.02 0 0 1 1.223-.184c.284 0 .584.034.9.101.32.065.62.185.896.36.28.176.51.427.688.753.178.323.268.743.268 1.26V15.5h-1.348v-.97h-.056c-.089.179-.223.354-.401.527a2.131 2.131 0 0 1-.688.43c-.28.113-.616.17-1.007.17Zm.3-1.108c.382 0 .708-.075.98-.226.273-.151.48-.348.622-.591.145-.246.217-.51.217-.79v-.914c-.049.05-.144.096-.286.139a4.46 4.46 0 0 1-.475.106l-.522.079-.425.055c-.267.034-.512.09-.734.17a1.26 1.26 0 0 0-.526.347c-.13.148-.194.345-.194.59 0 .343.126.601.379.777.252.172.574.258.965.258Zm5.038.951V8.41h1.38v7.09h-1.38Zm.697-8.185a.877.877 0 0 1-.618-.24.78.78 0 0 1-.254-.582.77.77 0 0 1 .254-.581.868.868 0 0 1 .618-.245c.24 0 .445.081.614.245.173.16.259.354.259.581a.774.774 0 0 1-.259.582.862.862 0 0 1-.614.24Zm3.92-1.27V15.5h-1.38V6.045h1.38Zm3.922 9.612c-.45 0-.856-.083-1.22-.25a2.054 2.054 0 0 1-.863-.733c-.209-.32-.313-.713-.313-1.178 0-.4.077-.729.23-.988.154-.258.362-.463.624-.613.261-.151.553-.265.877-.342.323-.077.652-.136.988-.176l1.034-.12c.264-.033.457-.087.577-.161.12-.074.18-.194.18-.36v-.033c0-.403-.114-.715-.342-.937-.225-.221-.56-.332-1.006-.332-.465 0-.831.103-1.099.31-.265.202-.448.429-.55.678l-1.297-.296c.154-.43.379-.778.675-1.043a2.734 2.734 0 0 1 1.029-.582 4.018 4.018 0 0 1 1.223-.184c.284 0 .584.034.9.101.32.065.62.185.896.36.28.176.51.427.688.753.178.323.268.743.268 1.26V15.5h-1.348v-.97h-.056c-.089.179-.223.354-.401.527a2.132 2.132 0 0 1-.688.43c-.28.113-.616.17-1.006.17Zm.3-1.108c.381 0 .707-.075.978-.226.274-.151.482-.348.623-.591.145-.246.217-.51.217-.79v-.914c-.049.05-.144.096-.286.139a4.46 4.46 0 0 1-.475.106 58.06 58.06 0 0 1-.522.079l-.425.055c-.267.034-.512.09-.734.17a1.26 1.26 0 0 0-.526.347c-.13.148-.194.345-.194.59 0 .343.126.601.379.777.252.172.574.258.965.258Zm5.148.951V6.045h1.38V9.56h.084c.08-.148.195-.319.346-.513.15-.194.36-.363.628-.508.267-.147.621-.221 1.061-.221a2.77 2.77 0 0 1 1.533.434c.45.289.802.706 1.057 1.25.259.546.388 1.201.388 1.967 0 .767-.128 1.424-.383 1.972-.256.544-.607.965-1.053 1.26a2.726 2.726 0 0 1-1.528.439c-.43 0-.783-.073-1.057-.217a2 2 0 0 1-.637-.508 3.844 3.844 0 0 1-.355-.517h-.116V15.5H60.69Zm1.353-3.546c0 .5.072.936.217 1.312.144.375.354.669.628.881.273.21.609.314 1.006.314.412 0 .757-.109 1.034-.328.277-.221.486-.521.628-.9a3.56 3.56 0 0 0 .217-1.279c0-.467-.071-.887-.213-1.26a1.928 1.928 0 0 0-.627-.882c-.277-.215-.624-.323-1.04-.323-.4 0-.738.103-1.015.31a1.9 1.9 0 0 0-.623.863c-.142.37-.212.8-.212 1.292Zm8.054-5.909V15.5h-1.38V6.045h1.38Zm4.913 9.598c-.698 0-1.3-.15-1.805-.448a3.038 3.038 0 0 1-1.163-1.27c-.27-.547-.406-1.189-.406-1.924 0-.727.135-1.367.406-1.92a3.154 3.154 0 0 1 1.145-1.298c.492-.31 1.068-.466 1.726-.466.4 0 .788.066 1.164.198.375.133.712.34 1.01.623.3.284.535.651.707 1.104.172.45.259.995.259 1.639v.489h-5.637v-1.034H76.7c0-.363-.074-.685-.222-.965a1.675 1.675 0 0 0-.623-.67 1.741 1.741 0 0 0-.932-.244c-.388 0-.727.095-1.016.286a1.92 1.92 0 0 0-.665.739c-.154.302-.23.63-.23.983v.808c0 .474.082.877.249 1.21.169.332.404.586.706.761.302.173.654.259 1.057.259.262 0 .5-.037.716-.111a1.485 1.485 0 0 0 .919-.9l1.306.235a2.366 2.366 0 0 1-.563 1.011c-.268.287-.605.51-1.011.67a3.785 3.785 0 0 1-1.38.235Zm11.001 0c-.664 0-1.245-.152-1.74-.457a3.082 3.082 0 0 1-1.154-1.279c-.274-.547-.411-1.188-.411-1.92 0-.736.137-1.379.41-1.93.275-.55.66-.979 1.155-1.283.495-.305 1.076-.457 1.74-.457.665 0 1.245.152 1.74.457.496.304.881.732 1.155 1.283.274.551.41 1.194.41 1.93 0 .732-.136 1.373-.41 1.92a3.082 3.082 0 0 1-1.154 1.28c-.496.304-1.076.456-1.74.456Zm.005-1.159c.43 0 .788-.114 1.071-.341.283-.228.492-.531.628-.91.138-.378.208-.795.208-1.25 0-.453-.07-.869-.208-1.247a2.03 2.03 0 0 0-.628-.919c-.283-.23-.64-.346-1.071-.346-.434 0-.794.115-1.08.346-.283.23-.494.537-.633.919a3.677 3.677 0 0 0-.203 1.246c0 .456.068.873.203 1.251.139.379.35.682.633.91.286.227.646.341 1.08.341Zm6.222-3.194v4.21h-1.38V8.41h1.325v1.153h.087c.163-.375.419-.677.767-.905.35-.227.792-.341 1.325-.341.483 0 .906.101 1.269.304.363.2.645.499.845.896.2.397.3.888.3 1.473v4.51h-1.38v-4.344c0-.514-.134-.916-.402-1.205-.268-.292-.636-.439-1.103-.439-.32 0-.605.07-.854.208a1.493 1.493 0 0 0-.587.61c-.141.264-.212.584-.212.96Z" class="tagline"/><path fill="currentColor" d="M100.716 6.045h2.829l2.401 5.854h.111l2.4-5.854h2.83V15.5h-2.225V9.692h-.078l-2.272 5.748h-1.422l-2.271-5.78h-.078v5.84h-2.225V6.045Zm15.307 9.589c-.745 0-1.385-.152-1.921-.457a3.152 3.152 0 0 1-1.232-1.284c-.287-.55-.43-1.189-.43-1.915 0-.73.143-1.368.43-1.916.289-.551.7-.979 1.232-1.284.536-.307 1.176-.461 1.921-.461.744 0 1.383.154 1.915.461.536.305.947.733 1.233 1.284.289.548.434 1.186.434 1.916 0 .726-.145 1.365-.434 1.915a3.11 3.11 0 0 1-1.233 1.284c-.532.305-1.171.457-1.915.457Zm.013-1.704a1 1 0 0 0 .688-.249c.188-.166.331-.397.43-.692.101-.296.152-.637.152-1.025 0-.394-.051-.739-.152-1.034-.099-.296-.242-.527-.43-.693a1 1 0 0 0-.688-.25c-.28 0-.517.084-.71.25-.191.166-.337.397-.439.693-.099.295-.148.64-.148 1.034 0 .388.049.73.148 1.025.102.295.248.526.439.692.193.166.43.25.71.25Zm7.315 1.672c-.523 0-.998-.136-1.426-.407-.428-.27-.77-.677-1.025-1.218-.256-.542-.383-1.215-.383-2.018 0-.834.132-1.52.397-2.059.264-.538.611-.937 1.038-1.195a2.657 2.657 0 0 1 1.39-.388c.372 0 .691.064.956.194.264.126.483.289.655.489.173.2.303.408.393.623h.046V6.045h2.257V15.5h-2.234v-1.15h-.069a2.22 2.22 0 0 1-.407.614c-.175.191-.395.345-.66.462a2.257 2.257 0 0 1-.928.176Zm.785-1.76c.274 0 .508-.076.702-.23.194-.157.343-.377.448-.66.104-.283.157-.616.157-.998a2.88 2.88 0 0 0-.157-1.001 1.384 1.384 0 0 0-.448-.646 1.11 1.11 0 0 0-.702-.227c-.28 0-.517.077-.711.231a1.43 1.43 0 0 0-.443.651c-.099.28-.148.61-.148.992s.051.715.153.998c.101.283.247.503.438.66.194.154.431.23.711.23Zm4.941 1.658V8.41h2.193v1.292h.074c.129-.468.34-.816.632-1.044.292-.23.632-.346 1.02-.346.105 0 .213.008.323.023.111.013.214.033.31.06v1.962a2.18 2.18 0 0 0-.425-.087 3.765 3.765 0 0 0-.462-.033c-.267 0-.509.06-.724.18a1.29 1.29 0 0 0-.504.494c-.12.21-.18.456-.18.739v3.85h-2.257Zm5.472 0V8.41h2.257v7.09h-2.257Zm1.131-7.917c-.317 0-.59-.105-.818-.314a1.013 1.013 0 0 1-.341-.767c0-.295.114-.547.341-.757.228-.212.501-.318.818-.318.32 0 .592.106.817.318.227.21.341.462.341.757 0 .299-.114.554-.341.767-.225.21-.497.314-.817.314Zm4.82 3.873V15.5h-2.257V8.41h2.147v1.3h.078c.157-.433.425-.773.803-1.02.379-.249.83-.373 1.353-.373.498 0 .931.112 1.297.337.369.221.656.532.859.932.206.397.308.862.304 1.394v4.52h-2.257v-4.076c.003-.394-.097-.702-.3-.924-.2-.221-.479-.332-.836-.332a1.23 1.23 0 0 0-.627.157 1.042 1.042 0 0 0-.416.439 1.58 1.58 0 0 0-.148.692Zm9.985-3.047v1.662h-4.474V8.409h4.474Zm-3.537-1.699h2.258v6.56c0 .139.021.251.064.337a.409.409 0 0 0 .199.18c.086.034.189.051.309.051.086 0 .177-.008.273-.023a4.18 4.18 0 0 0 .221-.046l.342 1.63c-.108.03-.26.069-.457.115a3.797 3.797 0 0 1-.697.088c-.53.024-.984-.037-1.362-.185a1.763 1.763 0 0 1-.863-.702c-.197-.317-.293-.715-.287-1.195V6.71Zm7.098 4.746V15.5h-2.257V6.045h2.183v3.666h.079a2.05 2.05 0 0 1 .785-1.025c.366-.246.814-.37 1.343-.37.499 0 .933.112 1.302.333.369.219.655.528.859.928.206.4.307.868.304 1.403v4.52h-2.257v-4.076c.003-.394-.096-.702-.296-.924-.2-.221-.481-.332-.845-.332-.236 0-.446.052-.627.157a1.063 1.063 0 0 0-.42.439c-.099.19-.15.421-.153.692Z" class="base"/><defs><linearGradient id="paint0_linear_2008_17" x1="0" x2="165" y1="10.5" y2="10.5" gradientUnits="userSpaceOnUse"><stop stop-color="#1BD96A"/><stop offset="1" stop-color="#52D5A5"/></linearGradient><clipPath id="clip0_2008_17"><path fill="currentColor" d="M5 2.5h16v16H5z" class="base"/></clipPath></defs><style>.fill{color:#fff}.base{color:#000}.tagline{color:#1a1a1a}@media (prefers-color-scheme:dark){.fill{color:#000}.base{color:#fff}.tagline{color:#e8e8e8}}</style></svg>