<svg xmlns="http://www.w3.org/2000/svg" width="181" height="21" fill="none"><g clip-path="url(#a)"><rect width="181" height="21" fill="#000" rx="5"/><g filter="url(#b)"><g clip-path="url(#c)"><path fill="#fff" d="M17.22 8.38s3.26-.54 3.78-2.13h-5V5H5l1.35 1.65v1.7s3.42-.19 4.74.87c1.81 1.76-2.03 4.15-2.03 4.15l-.66 2.3c1.03-1.04 3-2.37 6.6-2.3a9.15 9.15 0 0 0-3.82 2.3h7.28l-.69-2.3s-5.28-3.28-.55-5Z"/></g></g><g filter="url(#d)"><path fill="#E8E8E8" d="M24.84 15.5h-1.52l3.4-9.45h1.65l3.4 9.45h-1.5l-2.68-7.74h-.08l-2.67 7.74Zm.25-3.7H30V13h-4.9v-1.2Zm13.12-3.4-2.57 7.1h-1.48l-2.58-7.1h1.49l1.8 5.47h.06l1.8-5.46h1.48Zm3.16 7.26a2.9 2.9 0 0 1-1.22-.25 2.05 2.05 0 0 1-.87-.74 2.1 2.1 0 0 1-.31-1.17c0-.4.08-.73.23-1 .15-.25.36-.45.62-.6.27-.16.56-.27.88-.35.32-.07.65-.13.99-.17.42-.05.77-.1 1.03-.12.27-.04.46-.09.58-.16a.4.4 0 0 0 .18-.36v-.04c0-.4-.11-.71-.34-.93-.23-.23-.56-.34-1-.34a1.66 1.66 0 0 0-1.65.99l-1.3-.3a2.5 2.5 0 0 1 1.7-1.62 4.02 4.02 0 0 1 2.12-.08c.32.06.62.18.9.36a2 2 0 0 1 .69.75c.18.32.26.74.26 1.26v4.71h-1.34v-.97h-.06a2.05 2.05 0 0 1-1.09.96c-.28.11-.61.17-1 .17Zm.3-1.11c.38 0 .7-.08.97-.23a1.58 1.58 0 0 0 .84-1.38v-.91a.72.72 0 0 1-.28.14 58.6 58.6 0 0 1-1.42.24c-.27.03-.52.09-.74.17-.22.08-.4.2-.52.34a.87.87 0 0 0-.2.6c0 .34.13.6.38.77.25.17.57.26.97.26Zm5.03.95V8.4h1.38v7.1H46.7Zm.7-8.19a.88.88 0 0 1-.62-.24.78.78 0 0 1-.25-.58c0-.22.08-.42.25-.58a.87.87 0 0 1 .62-.24c.24 0 .45.08.61.24.18.16.26.36.26.58 0 .23-.08.42-.26.58a.86.86 0 0 1-.61.24Zm3.92-1.26v9.45h-1.38V6.05h1.38Zm3.92 9.6a2.9 2.9 0 0 1-1.22-.24 2.05 2.05 0 0 1-.86-.74 2.1 2.1 0 0 1-.31-1.17c0-.4.07-.73.23-1 .15-.25.36-.45.62-.6a3 3 0 0 1 .88-.35c.32-.07.65-.13.98-.17.43-.05.77-.1 1.04-.12.26-.04.46-.09.58-.16a.4.4 0 0 0 .18-.36v-.04c0-.4-.12-.71-.35-.93-.22-.23-.56-.34-1-.34a1.66 1.66 0 0 0-1.65.99l-1.3-.3a2.5 2.5 0 0 1 1.7-1.62 4.02 4.02 0 0 1 2.13-.08c.32.06.62.18.9.36a2 2 0 0 1 .68.75c.18.32.27.74.27 1.26v4.71H57.4v-.97h-.05c-.1.18-.23.35-.4.53-.18.17-.41.31-.7.43-.27.11-.6.17-1 .17Zm.3-1.1c.38 0 .7-.08.98-.23a1.58 1.58 0 0 0 .84-1.38v-.91a.72.72 0 0 1-.29.14c-.13.04-.3.07-.47.1a58.06 58.06 0 0 1-.95.14c-.27.03-.51.09-.73.17-.22.08-.4.2-.53.34a.87.87 0 0 0-.2.6c0 .34.13.6.39.77.25.17.57.26.96.26Zm5.15.95V6.05h1.38v3.5h.08c.08-.14.2-.31.35-.5.15-.2.36-.37.63-.51a2.2 2.2 0 0 1 1.06-.22A2.77 2.77 0 0 1 66.78 10c.26.55.39 1.2.39 1.97 0 .76-.13 1.42-.39 1.97a2.73 2.73 0 0 1-2.58 1.7c-.43 0-.78-.07-1.05-.22a2 2 0 0 1-.64-.5c-.15-.2-.27-.37-.36-.52h-.11v1.1h-1.35Zm1.35-3.55c0 .5.08.94.22 1.32.14.37.35.67.63.88.27.2.6.31 1 .31.42 0 .76-.1 1.04-.33.27-.22.48-.52.63-.9.14-.38.21-.8.21-1.28 0-.46-.07-.88-.21-1.26a1.93 1.93 0 0 0-.63-.88 1.64 1.64 0 0 0-1.04-.32c-.4 0-.73.1-1.01.3-.28.21-.48.5-.63.87-.14.37-.2.8-.2 1.3Zm8.06-5.9v9.45h-1.38V6.05h1.38Zm4.91 9.6c-.7 0-1.3-.16-1.8-.45-.5-.3-.9-.73-1.17-1.27a4.3 4.3 0 0 1-.4-1.93c0-.73.13-1.37.4-1.92.28-.55.66-.99 1.15-1.3a3.47 3.47 0 0 1 2.89-.27 2.82 2.82 0 0 1 1.71 1.73c.18.45.26 1 .26 1.64v.49h-5.63v-1.03h4.28c0-.37-.07-.69-.22-.97a1.68 1.68 0 0 0-1.56-.91c-.39 0-.72.1-1.01.28-.29.2-.51.44-.67.74-.15.3-.23.63-.23.99v.8c0 .48.08.88.25 1.21.17.33.4.59.7.76.3.18.66.26 1.06.26.27 0 .5-.03.72-.1a1.48 1.48 0 0 0 .92-.9l1.3.23a2.62 2.62 0 0 1-1.56 1.68c-.41.15-.87.23-1.39.23Zm11 0a3.08 3.08 0 0 1-2.9-1.74 4.24 4.24 0 0 1-.4-1.92c0-.74.13-1.38.4-1.93a3.08 3.08 0 0 1 2.9-1.74c.67 0 1.25.15 1.74.45.5.3.88.74 1.16 1.29.27.55.4 1.2.4 1.93s-.13 1.37-.4 1.92a3.08 3.08 0 0 1-2.9 1.73Zm0-1.17c.44 0 .8-.11 1.08-.34a2 2 0 0 0 .62-.9 3.75 3.75 0 0 0 .01-2.5 2.03 2.03 0 0 0-.63-.92 1.64 1.64 0 0 0-1.07-.35c-.44 0-.8.12-1.08.35-.29.23-.5.53-.64.92a3.81 3.81 0 0 0 0 2.49c.14.38.35.68.64.91.28.23.64.34 1.08.34Zm6.23-3.19v4.21h-1.38V8.4h1.32v1.16h.09c.16-.37.42-.67.77-.9.35-.23.79-.34 1.32-.34.48 0 .9.1 1.27.3.36.2.65.5.85.9.2.4.3.88.3 1.47v4.51H95.4v-4.34c0-.52-.14-.92-.4-1.2-.27-.3-.64-.45-1.1-.45-.33 0-.61.07-.86.21a1.5 1.5 0 0 0-.59.6c-.14.27-.21.6-.21.97Z"/><path fill="#fff" d="M109.3 9.47h-2.31a2 2 0 0 0-.19-.64 1.56 1.56 0 0 0-.94-.8 2.14 2.14 0 0 0-.7-.11c-.46 0-.86.11-1.19.34-.33.22-.58.55-.76.97-.18.43-.27.94-.27 1.54 0 .63.1 1.16.27 1.58.19.42.44.74.77.96.32.21.71.32 1.16.32.25 0 .48-.04.7-.1a1.55 1.55 0 0 0 .94-.74c.1-.18.17-.39.2-.61l2.32.01a3.97 3.97 0 0 1-4.2 3.44c-.86 0-1.63-.19-2.3-.56a4.06 4.06 0 0 1-1.6-1.66c-.4-.72-.59-1.6-.59-2.64s.2-1.92.6-2.64a4 4 0 0 1 1.61-1.65 5.06 5.06 0 0 1 3.86-.32 3.55 3.55 0 0 1 2.18 1.8c.24.44.38.94.44 1.51Zm5.88 2.97V8.4h2.25v7.09h-2.15v-1.32h-.07a2.1 2.1 0 0 1-.8 1.03c-.38.26-.83.38-1.37.38a2.27 2.27 0 0 1-2.13-1.26c-.2-.4-.3-.87-.3-1.4V8.4h2.25v4.08c0 .38.1.68.3.9.2.23.48.34.82.34a1.16 1.16 0 0 0 1.04-.59c.1-.2.16-.43.16-.7Zm3.69 3.06V8.4h2.2v1.3h.07c.13-.47.34-.81.63-1.04.3-.23.63-.35 1.02-.35a2.33 2.33 0 0 1 .63.09v1.96a3.77 3.77 0 0 0-.89-.12c-.26 0-.5.06-.72.18a1.2 1.2 0 0 0-.5.5c-.12.2-.18.45-.18.73v3.85h-2.26Zm11.66-4.93-2.07.06a.77.77 0 0 0-.18-.4.94.94 0 0 0-.37-.27c-.15-.06-.33-.1-.53-.1-.26 0-.48.06-.67.16-.18.1-.27.25-.26.43 0 .13.05.25.16.36.12.1.33.18.63.24l1.36.26c.71.13 1.24.36 1.58.67.35.32.53.73.53 1.25a2 2 0 0 1-.44 1.27c-.28.36-.67.64-1.16.84-.5.2-1.06.3-1.69.3a4.07 4.07 0 0 1-2.4-.63 2.33 2.33 0 0 1-1-1.68l2.24-.06c.05.26.17.46.38.6.2.13.47.2.79.2.29 0 .52-.05.7-.16.19-.11.28-.25.28-.43a.46.46 0 0 0-.2-.39 1.7 1.7 0 0 0-.66-.23l-1.24-.23a2.93 2.93 0 0 1-1.59-.72 1.8 1.8 0 0 1-.51-1.34c0-.47.12-.87.38-1.21.25-.34.61-.6 1.09-.78a4.7 4.7 0 0 1 1.66-.26c.96 0 1.72.2 2.27.6.56.4.86.95.92 1.65Zm4.6 5.06a4 4 0 0 1-1.92-.43c-.53-.3-.95-.72-1.23-1.26a4.17 4.17 0 0 1-.43-1.96c0-.73.14-1.37.43-1.92.29-.55.7-.98 1.22-1.28a4.14 4.14 0 0 1 3.25-.23 2.97 2.97 0 0 1 1.8 1.84c.16.45.25.96.25 1.55v.56h-6.16v-1.31h4.06c0-.24-.06-.46-.17-.64a1.16 1.16 0 0 0-.46-.44 1.3 1.3 0 0 0-.66-.16 1.35 1.35 0 0 0-1.15.62c-.12.2-.18.41-.19.66v1.33c0 .29.06.54.17.76.12.22.28.38.49.5.2.12.46.18.75.18.2 0 .38-.02.54-.08.16-.05.3-.14.42-.24a1 1 0 0 0 .26-.4l2.08.06c-.09.46-.28.87-.57 1.21-.3.35-.67.61-1.14.8a4.4 4.4 0 0 1-1.64.28Zm4.52-.13V6.05h6.46V7.9h-4.17v1.94h3.75v1.86h-3.75v3.8h-2.29Zm10.4.13c-.75 0-1.39-.15-1.92-.45a3.14 3.14 0 0 1-1.24-1.29 4.1 4.1 0 0 1-.43-1.91c0-.73.15-1.37.43-1.92.3-.55.7-.98 1.24-1.28.53-.3 1.17-.46 1.92-.46.74 0 1.38.15 1.91.46.54.3.95.73 1.23 1.28.3.55.44 1.19.44 1.92 0 .72-.15 1.36-.44 1.91-.28.55-.7.98-1.23 1.29a3.8 3.8 0 0 1-1.91.45Zm.01-1.7a1 1 0 0 0 .69-.25c.19-.17.33-.4.43-.7.1-.29.15-.63.15-1.02s-.05-.73-.15-1.03c-.1-.3-.25-.53-.43-.7a1 1 0 0 0-.69-.24c-.28 0-.52.08-.71.25-.2.16-.34.4-.44.69-.1.3-.15.64-.15 1.03 0 .4.05.73.15 1.03.1.3.25.52.44.7.2.16.43.24.71.24Zm4.72 1.57V8.4h2.2v1.3h.07c.13-.47.34-.81.63-1.04.3-.23.64-.35 1.02-.35a2.33 2.33 0 0 1 .64.09v1.96a3.77 3.77 0 0 0-.89-.12c-.27 0-.5.06-.72.18-.22.11-.38.28-.5.5-.13.2-.19.45-.19.73v3.85h-2.25Zm8.41 2.8c-.67 0-1.25-.09-1.73-.27a2.73 2.73 0 0 1-1.13-.78c-.27-.32-.44-.7-.5-1.1l2.14-.12a.8.8 0 0 0 .23.37c.1.11.25.2.43.25.17.06.38.1.62.1.38 0 .7-.1.94-.29.25-.18.38-.5.38-.95v-1.25h-.08c-.1.22-.23.42-.41.59-.18.17-.4.3-.68.4a2.87 2.87 0 0 1-2.34-.21 2.61 2.61 0 0 1-1.03-1.12 4.4 4.4 0 0 1-.39-1.97c0-.83.14-1.51.4-2.05.27-.54.61-.94 1.04-1.2a2.65 2.65 0 0 1 2.34-.19 2 2 0 0 1 1.06 1.11h.06V8.41h2.25v7.12c0 .6-.15 1.1-.45 1.52-.3.4-.73.72-1.27.93-.54.22-1.16.33-1.88.33Zm.07-4.54c.28 0 .51-.07.7-.22.2-.14.35-.35.45-.62.1-.27.16-.6.16-.97 0-.39-.05-.72-.16-1-.1-.28-.25-.5-.44-.64a1.1 1.1 0 0 0-.7-.23c-.29 0-.52.08-.72.23-.2.15-.34.37-.44.65-.1.28-.15.6-.15.99 0 .37.05.7.15.97.1.27.25.48.44.62.2.15.43.22.71.22Zm8.28 1.87a4 4 0 0 1-1.92-.43 3.1 3.1 0 0 1-1.23-1.26 4.17 4.17 0 0 1-.43-1.96c0-.73.14-1.37.43-1.92.29-.55.7-.98 1.22-1.28a4.14 4.14 0 0 1 3.25-.23 2.97 2.97 0 0 1 1.8 1.84c.16.45.25.96.25 1.55v.56h-6.16v-1.31h4.06c0-.24-.06-.46-.17-.64a1.16 1.16 0 0 0-.46-.44 1.3 1.3 0 0 0-.66-.16 1.35 1.35 0 0 0-1.15.62c-.12.2-.18.41-.19.66v1.33c0 .29.06.54.17.76.12.22.28.38.49.5.2.12.46.18.75.18.2 0 .38-.02.54-.08.16-.05.3-.14.42-.24a1 1 0 0 0 .26-.4l2.08.06c-.09.46-.28.87-.57 1.21-.3.35-.67.61-1.14.8a4.4 4.4 0 0 1-1.64.28Z"/></g></g><rect width="179.8" height="19.8" x=".6" y=".6" stroke="url(#e)" stroke-opacity=".88" stroke-width="1.2" rx="4.4"/><defs><clipPath id="a"><rect width="181" height="21" fill="#fff" rx="5"/></clipPath><clipPath id="c"><path fill="#fff" d="M5 5h16v10.67H5z"/></clipPath><filter id="b" width="27.2" height="27.2" x="-.6" y="-3.1" color-interpolation-filters="sRGB" filterUnits="userSpaceOnUse"><feFlood flood-opacity="0" result="BackgroundImageFix"/><feColorMatrix in="SourceAlpha" result="hardAlpha" values="0 0 0 0 0 0 0 0 0 0 0 0 0 0 0 0 0 0 127 0"/><feOffset/><feGaussianBlur stdDeviation="2.8"/><feComposite in2="hardAlpha" operator="out"/><feColorMatrix values="0 0 0 0 0 0 0 0 0 0 0 0 0 0 0 0 0 0 0.25 0"/><feBlend in2="BackgroundImageFix" result="effect1_dropShadow_2019_2"/><feBlend in="SourceGraphic" in2="effect1_dropShadow_2019_2" result="shape"/></filter><filter id="d" width="164.43" height="27.43" x="17.29" y="-3.21" color-interpolation-filters="sRGB" filterUnits="userSpaceOnUse"><feFlood flood-opacity="0" result="BackgroundImageFix"/><feColorMatrix in="SourceAlpha" result="hardAlpha" values="0 0 0 0 0 0 0 0 0 0 0 0 0 0 0 0 0 0 127 0"/><feOffset/><feGaussianBlur stdDeviation="2.86"/><feComposite in2="hardAlpha" operator="out"/><feColorMatrix values="0 0 0 0 0 0 0 0 0 0 0 0 0 0 0 0 0 0 0.25 0"/><feBlend in2="BackgroundImageFix" result="effect1_dropShadow_2019_2"/><feBlend in="SourceGraphic" in2="effect1_dropShadow_2019_2" result="shape"/></filter><linearGradient id="e" x1="0" x2="181" y1="10.5" y2="10.5" gradientUnits="userSpaceOnUse"><stop stop-color="#F16436"/><stop offset="1" stop-color="#FA855F"/></linearGradient></defs></svg>