<svg width="181" height="21" viewBox="0 0 181 21" fill="none" xmlns="http://www.w3.org/2000/svg">
<g clip-path="url(#clip0_2019_2)">
<rect width="181" height="21" rx="5" fill="black"/>
<g filter="url(#filter0_d_2019_2)">
<g clip-path="url(#clip1_2019_2)">
<path d="M17.2172 8.37856C17.2172 8.37856 20.4841 7.83633 21 6.25486H15.9956V5H5L6.35453 6.65445V8.34957C6.35453 8.34957 9.77233 8.16251 11.0944 9.21778C12.9041 10.9834 9.05901 13.3701 9.05901 13.3701L8.39967 15.6667C9.43071 14.6332 11.3958 13.2965 14.9987 13.3609C13.6276 13.817 12.2489 14.5294 11.1757 15.6667H18.4588L17.7731 13.3701C17.7731 13.3701 12.4943 10.0935 17.2172 8.37856Z" fill="white"/>
</g>
</g>
<g filter="url(#filter1_d_2019_2)">
<path d="M24.8374 15.5H23.3232L26.7255 6.04545H28.3736L31.7759 15.5H30.2617L27.5888 7.76278H27.5149L24.8374 15.5ZM25.0913 11.7976H30.0032V12.9979H25.0913V11.7976ZM38.2078 8.40909L35.6364 15.5H34.1592L31.5832 8.40909H33.0651L34.8609 13.8658H34.9347L36.7259 8.40909H38.2078ZM41.3655 15.657C40.9162 15.657 40.5099 15.5739 40.1467 15.4077C39.7836 15.2384 39.4958 14.9937 39.2835 14.6736C39.0742 14.3536 38.9695 13.9612 38.9695 13.4964C38.9695 13.0964 39.0465 12.767 39.2004 12.5085C39.3543 12.25 39.562 12.0453 39.8236 11.8945C40.0852 11.7437 40.3776 11.6299 40.7007 11.5529C41.0239 11.476 41.3532 11.4175 41.6886 11.3775C42.1134 11.3282 42.4581 11.2882 42.7227 11.2575C42.9874 11.2236 43.1798 11.1697 43.2998 11.0959C43.4198 11.022 43.4798 10.902 43.4798 10.7358V10.7035C43.4798 10.3003 43.366 9.98792 43.1382 9.76633C42.9136 9.54474 42.5781 9.43395 42.1318 9.43395C41.6671 9.43395 41.3009 9.53705 41.0331 9.74325C40.7684 9.94638 40.5853 10.1726 40.4837 10.4219L39.1865 10.1264C39.3404 9.69555 39.5651 9.34777 39.8605 9.08309C40.1591 8.81534 40.5022 8.62145 40.89 8.50142C41.2778 8.37831 41.6856 8.31676 42.1134 8.31676C42.3965 8.31676 42.6966 8.35061 43.0136 8.41832C43.3337 8.48295 43.6322 8.60298 43.9092 8.77841C44.1892 8.95383 44.4185 9.20466 44.597 9.53089C44.7755 9.85405 44.8648 10.2741 44.8648 10.7912V15.5H43.5168V14.5305H43.4614C43.3721 14.709 43.2382 14.8845 43.0597 15.0568C42.8812 15.2292 42.652 15.3723 42.3719 15.4861C42.0918 15.6 41.7564 15.657 41.3655 15.657ZM41.6656 14.549C42.0472 14.549 42.3734 14.4736 42.6443 14.3228C42.9182 14.172 43.1259 13.975 43.2675 13.7319C43.4121 13.4857 43.4845 13.2225 43.4845 12.9425V12.0284C43.4352 12.0776 43.3398 12.1238 43.1982 12.1669C43.0597 12.2069 42.9012 12.2423 42.7227 12.2731C42.5442 12.3008 42.3703 12.3269 42.2011 12.3516C42.0318 12.3731 41.8902 12.3916 41.7764 12.407C41.5086 12.4408 41.2639 12.4977 41.0423 12.5778C40.8238 12.6578 40.6484 12.7732 40.5161 12.924C40.3868 13.0717 40.3222 13.2687 40.3222 13.5149C40.3222 13.8565 40.4484 14.1151 40.7007 14.2905C40.9531 14.4628 41.2747 14.549 41.6656 14.549ZM46.7033 15.5V8.40909H48.0836V15.5H46.7033ZM47.4004 7.31498C47.1603 7.31498 46.9541 7.23497 46.7818 7.07493C46.6125 6.91181 46.5279 6.71792 46.5279 6.49325C46.5279 6.26551 46.6125 6.07161 46.7818 5.91158C46.9541 5.74846 47.1603 5.6669 47.4004 5.6669C47.6404 5.6669 47.8451 5.74846 48.0144 5.91158C48.1867 6.07161 48.2729 6.26551 48.2729 6.49325C48.2729 6.71792 48.1867 6.91181 48.0144 7.07493C47.8451 7.23497 47.6404 7.31498 47.4004 7.31498ZM51.3209 6.04545V15.5H49.9406V6.04545H51.3209ZM55.2415 15.657C54.7921 15.657 54.3859 15.5739 54.0227 15.4077C53.6596 15.2384 53.3718 14.9937 53.1594 14.6736C52.9502 14.3536 52.8455 13.9612 52.8455 13.4964C52.8455 13.0964 52.9225 12.767 53.0763 12.5085C53.2302 12.25 53.438 12.0453 53.6996 11.8945C53.9612 11.7437 54.2535 11.6299 54.5767 11.5529C54.8998 11.476 55.2292 11.4175 55.5646 11.3775C55.9893 11.3282 56.334 11.2882 56.5987 11.2575C56.8634 11.2236 57.0557 11.1697 57.1758 11.0959C57.2958 11.022 57.3558 10.902 57.3558 10.7358V10.7035C57.3558 10.3003 57.2419 9.98792 57.0142 9.76633C56.7895 9.54474 56.4541 9.43395 56.0078 9.43395C55.5431 9.43395 55.1768 9.53705 54.9091 9.74325C54.6444 9.94638 54.4613 10.1726 54.3597 10.4219L53.0625 10.1264C53.2164 9.69555 53.441 9.34777 53.7365 9.08309C54.035 8.81534 54.3782 8.62145 54.766 8.50142C55.1538 8.37831 55.5615 8.31676 55.9893 8.31676C56.2725 8.31676 56.5726 8.35061 56.8895 8.41832C57.2096 8.48295 57.5082 8.60298 57.7851 8.77841C58.0652 8.95383 58.2945 9.20466 58.473 9.53089C58.6515 9.85405 58.7408 10.2741 58.7408 10.7912V15.5H57.3927V14.5305H57.3373C57.2481 14.709 57.1142 14.8845 56.9357 15.0568C56.7572 15.2292 56.5279 15.3723 56.2479 15.4861C55.9678 15.6 55.6323 15.657 55.2415 15.657ZM55.5415 14.549C55.9232 14.549 56.2494 14.4736 56.5202 14.3228C56.7941 14.172 57.0019 13.975 57.1435 13.7319C57.2881 13.4857 57.3604 13.2225 57.3604 12.9425V12.0284C57.3112 12.0776 57.2158 12.1238 57.0742 12.1669C56.9357 12.2069 56.7772 12.2423 56.5987 12.2731C56.4202 12.3008 56.2463 12.3269 56.077 12.3516C55.9078 12.3731 55.7662 12.3916 55.6523 12.407C55.3846 12.4408 55.1399 12.4977 54.9183 12.5778C54.6998 12.6578 54.5244 12.7732 54.392 12.924C54.2628 13.0717 54.1981 13.2687 54.1981 13.5149C54.1981 13.8565 54.3243 14.1151 54.5767 14.2905C54.8291 14.4628 55.1507 14.549 55.5415 14.549ZM60.6901 15.5V6.04545H62.0704V9.55859H62.1535C62.2335 9.41086 62.3489 9.24005 62.4997 9.04616C62.6505 8.85227 62.8598 8.683 63.1276 8.53835C63.3953 8.39062 63.7492 8.31676 64.1894 8.31676C64.7618 8.31676 65.2727 8.46141 65.722 8.75071C66.1714 9.04001 66.5238 9.45703 66.7792 10.0018C67.0377 10.5465 67.167 11.2021 67.167 11.9684C67.167 12.7347 67.0393 13.3918 66.7838 13.9396C66.5284 14.4844 66.1775 14.9045 65.7313 15.1999C65.285 15.4923 64.7756 15.6385 64.2032 15.6385C63.7723 15.6385 63.4199 15.5662 63.146 15.4215C62.8752 15.2769 62.6628 15.1076 62.509 14.9137C62.3551 14.7198 62.2366 14.5475 62.1535 14.3967H62.0381V15.5H60.6901ZM62.0427 11.9545C62.0427 12.4531 62.115 12.8901 62.2597 13.2656C62.4043 13.6411 62.6136 13.935 62.8875 14.1474C63.1614 14.3566 63.4969 14.4613 63.8939 14.4613C64.3063 14.4613 64.651 14.352 64.928 14.1335C65.205 13.9119 65.4143 13.6119 65.5558 13.2333C65.7005 12.8548 65.7728 12.4285 65.7728 11.9545C65.7728 11.4867 65.702 11.0666 65.5604 10.6942C65.422 10.3218 65.2127 10.0279 64.9326 9.8125C64.6556 9.59706 64.3094 9.48934 63.8939 9.48934C63.4938 9.48934 63.1553 9.59245 62.8783 9.79865C62.6044 10.0049 62.3966 10.2926 62.255 10.6619C62.1135 11.0312 62.0427 11.4621 62.0427 11.9545ZM70.0973 6.04545V15.5H68.717V6.04545H70.0973ZM75.0104 15.6431C74.3117 15.6431 73.7101 15.4938 73.2053 15.1953C72.7037 14.8937 72.3159 14.4705 72.042 13.9258C71.7711 13.378 71.6357 12.7363 71.6357 12.0007C71.6357 11.2744 71.7711 10.6342 72.042 10.0803C72.3159 9.52628 72.6975 9.09387 73.1869 8.78302C73.6793 8.47218 74.2548 8.31676 74.9134 8.31676C75.3135 8.31676 75.7013 8.38293 76.0768 8.51527C76.4523 8.64761 76.7893 8.85535 77.0878 9.13849C77.3863 9.42164 77.6218 9.78942 77.7941 10.2418C77.9665 10.6912 78.0526 11.2375 78.0526 11.8807V12.37H72.4159V11.3359H76.7C76.7 10.9728 76.6261 10.6512 76.4784 10.3711C76.3307 10.0879 76.1229 9.86482 75.8552 9.7017C75.5905 9.53859 75.2797 9.45703 74.9227 9.45703C74.5349 9.45703 74.1963 9.55244 73.907 9.74325C73.6208 9.93099 73.3992 10.1772 73.2423 10.4819C73.0884 10.7835 73.0114 11.1113 73.0114 11.4652V12.2731C73.0114 12.747 73.0945 13.1502 73.2607 13.4826C73.43 13.815 73.6654 14.0689 73.967 14.2443C74.2687 14.4167 74.621 14.5028 75.0242 14.5028C75.2858 14.5028 75.5243 14.4659 75.7398 14.392C75.9552 14.3151 76.1414 14.2012 76.2984 14.0504C76.4553 13.8996 76.5754 13.7134 76.6585 13.4918L77.9649 13.7273C77.8603 14.112 77.6725 14.449 77.4017 14.7383C77.134 15.0245 76.7969 15.2476 76.3907 15.4077C75.9875 15.5646 75.5274 15.6431 75.0104 15.6431ZM86.0114 15.6431C85.3467 15.6431 84.7665 15.4908 84.271 15.1861C83.7755 14.8814 83.3908 14.4551 83.1169 13.9073C82.843 13.3595 82.706 12.7193 82.706 11.9869C82.706 11.2513 82.843 10.6081 83.1169 10.0572C83.3908 9.50627 83.7755 9.07848 84.271 8.77379C84.7665 8.4691 85.3467 8.31676 86.0114 8.31676C86.6762 8.31676 87.2563 8.4691 87.7518 8.77379C88.2473 9.07848 88.6321 9.50627 88.906 10.0572C89.1799 10.6081 89.3168 11.2513 89.3168 11.9869C89.3168 12.7193 89.1799 13.3595 88.906 13.9073C88.6321 14.4551 88.2473 14.8814 87.7518 15.1861C87.2563 15.4908 86.6762 15.6431 86.0114 15.6431ZM86.0161 14.4844C86.4469 14.4844 86.8039 14.3705 87.0871 14.1428C87.3702 13.915 87.5795 13.6119 87.7149 13.2333C87.8534 12.8548 87.9227 12.4377 87.9227 11.9822C87.9227 11.5298 87.8534 11.1143 87.7149 10.7358C87.5795 10.3542 87.3702 10.0479 87.0871 9.81711C86.8039 9.58629 86.4469 9.47088 86.0161 9.47088C85.5821 9.47088 85.222 9.58629 84.9358 9.81711C84.6527 10.0479 84.4418 10.3542 84.3033 10.7358C84.1679 11.1143 84.1002 11.5298 84.1002 11.9822C84.1002 12.4377 84.1679 12.8548 84.3033 13.2333C84.4418 13.6119 84.6527 13.915 84.9358 14.1428C85.222 14.3705 85.5821 14.4844 86.0161 14.4844ZM92.2379 11.2898V15.5H90.8576V8.40909H92.1825V9.56321H92.2702C92.4333 9.18773 92.6888 8.88612 93.0366 8.65838C93.3874 8.43063 93.8291 8.31676 94.3615 8.31676C94.8447 8.31676 95.2679 8.41832 95.631 8.62145C95.9942 8.82149 96.2758 9.12003 96.4758 9.51704C96.6759 9.91406 96.7759 10.4049 96.7759 10.9897V15.5H95.3956V11.1559C95.3956 10.6419 95.2617 10.2403 94.9939 9.95099C94.7262 9.65862 94.3584 9.51243 93.8906 9.51243C93.5705 9.51243 93.2858 9.58167 93.0366 9.72017C92.7903 9.85866 92.5949 10.0618 92.4503 10.3295C92.3087 10.5942 92.2379 10.9143 92.2379 11.2898Z" fill="#E8E8E8"/>
<path d="M109.298 9.47088H106.989C106.959 9.2339 106.895 9.02 106.8 8.82919C106.705 8.63837 106.578 8.47526 106.421 8.33984C106.265 8.20443 106.078 8.10132 105.863 8.03054C105.651 7.95667 105.415 7.91974 105.157 7.91974C104.698 7.91974 104.303 8.03208 103.97 8.25675C103.641 8.48141 103.387 8.80611 103.208 9.23082C103.033 9.65554 102.945 10.1695 102.945 10.7727C102.945 11.4006 103.035 11.9268 103.213 12.3516C103.395 12.7732 103.649 13.0917 103.975 13.3072C104.304 13.5195 104.693 13.6257 105.143 13.6257C105.395 13.6257 105.624 13.5934 105.831 13.5288C106.04 13.4641 106.223 13.3703 106.38 13.2472C106.54 13.121 106.671 12.9686 106.772 12.7901C106.877 12.6085 106.949 12.4039 106.989 12.1761L109.298 12.19C109.258 12.6085 109.136 13.0209 108.933 13.4272C108.733 13.8334 108.457 14.2043 108.107 14.5398C107.756 14.8722 107.328 15.1368 106.823 15.3338C106.321 15.5308 105.746 15.6293 105.097 15.6293C104.241 15.6293 103.475 15.4415 102.798 15.066C102.124 14.6875 101.591 14.1366 101.2 13.4133C100.809 12.6901 100.614 11.8099 100.614 10.7727C100.614 9.73248 100.812 8.85073 101.209 8.12748C101.607 7.40424 102.144 6.85488 102.821 6.4794C103.498 6.10393 104.256 5.91619 105.097 5.91619C105.669 5.91619 106.198 5.99621 106.685 6.15625C107.171 6.31321 107.599 6.54403 107.968 6.84872C108.337 7.15033 108.637 7.52119 108.868 7.96129C109.099 8.4014 109.242 8.90459 109.298 9.47088ZM115.18 12.4393V8.40909H117.433V15.5H115.282V14.1797H115.208C115.051 14.6136 114.783 14.9583 114.405 15.2138C114.029 15.4661 113.575 15.5923 113.043 15.5923C112.559 15.5923 112.135 15.4815 111.769 15.2599C111.402 15.0383 111.118 14.729 110.914 14.332C110.711 13.9319 110.608 13.4641 110.605 12.9286V8.40909H112.863V12.4854C112.866 12.8701 112.967 13.1733 113.167 13.3949C113.367 13.6165 113.64 13.7273 113.984 13.7273C114.209 13.7273 114.411 13.678 114.589 13.5795C114.771 13.478 114.914 13.3318 115.019 13.141C115.126 12.9471 115.18 12.7132 115.18 12.4393ZM118.87 15.5V8.40909H121.063V9.7017H121.137C121.266 9.2339 121.477 8.88612 121.769 8.65838C122.061 8.42755 122.401 8.31214 122.789 8.31214C122.894 8.31214 123.002 8.31984 123.112 8.33523C123.223 8.34754 123.326 8.36754 123.422 8.39524V10.3572C123.314 10.3203 123.172 10.2911 122.997 10.2695C122.825 10.248 122.671 10.2372 122.535 10.2372C122.268 10.2372 122.026 10.2972 121.811 10.4173C121.598 10.5342 121.43 10.6989 121.307 10.9112C121.187 11.1205 121.127 11.3667 121.127 11.6499V15.5H118.87ZM130.532 10.5742L128.459 10.6296C128.438 10.4819 128.379 10.3511 128.284 10.2372C128.189 10.1203 128.064 10.0295 127.91 9.96484C127.759 9.89713 127.584 9.86328 127.384 9.86328C127.122 9.86328 126.899 9.9156 126.714 10.0202C126.533 10.1249 126.444 10.2665 126.447 10.445C126.444 10.5834 126.499 10.7035 126.613 10.805C126.73 10.9066 126.937 10.9882 127.236 11.0497L128.603 11.3082C129.31 11.4437 129.837 11.6683 130.181 11.9822C130.529 12.2962 130.705 12.7116 130.708 13.2287C130.705 13.715 130.56 14.1381 130.274 14.4982C129.991 14.8583 129.603 15.1384 129.11 15.3384C128.618 15.5354 128.055 15.6339 127.421 15.6339C126.408 15.6339 125.609 15.4261 125.025 15.0106C124.443 14.5921 124.111 14.032 124.028 13.3303L126.257 13.2749C126.307 13.5334 126.434 13.7303 126.64 13.8658C126.847 14.0012 127.11 14.0689 127.43 14.0689C127.719 14.0689 127.955 14.015 128.136 13.9073C128.318 13.7996 128.41 13.6565 128.413 13.478C128.41 13.3179 128.339 13.1902 128.201 13.0948C128.062 12.9963 127.845 12.9194 127.55 12.864L126.313 12.6285C125.602 12.4993 125.072 12.2608 124.725 11.913C124.377 11.5621 124.205 11.1159 124.208 10.5742C124.205 10.1003 124.331 9.69555 124.586 9.36008C124.842 9.02154 125.205 8.76302 125.676 8.58451C126.147 8.40601 126.702 8.31676 127.342 8.31676C128.302 8.31676 129.06 8.51835 129.614 8.92152C130.167 9.32161 130.474 9.87251 130.532 10.5742ZM135.134 15.6339C134.392 15.6339 133.752 15.4877 133.213 15.1953C132.678 14.8999 132.265 14.4798 131.976 13.935C131.69 13.3872 131.547 12.7363 131.547 11.9822C131.547 11.2498 131.691 10.6096 131.981 10.0618C132.27 9.51089 132.678 9.08309 133.204 8.77841C133.73 8.47064 134.35 8.31676 135.064 8.31676C135.569 8.31676 136.031 8.39524 136.449 8.5522C136.868 8.70916 137.23 8.94152 137.534 9.24929C137.839 9.55705 138.076 9.93714 138.245 10.3896C138.414 10.8389 138.499 11.3544 138.499 11.9361V12.4993H132.336V11.1882H136.399C136.395 10.9482 136.339 10.7343 136.228 10.5465C136.117 10.3588 135.965 10.2126 135.771 10.108C135.58 10.0002 135.36 9.94638 135.111 9.94638C134.858 9.94638 134.632 10.0033 134.432 10.1172C134.232 10.228 134.073 10.3803 133.956 10.5742C133.84 10.765 133.778 10.982 133.772 11.2251V12.5593C133.772 12.8486 133.829 13.1025 133.943 13.321C134.056 13.5365 134.218 13.7042 134.427 13.8242C134.637 13.9442 134.886 14.0043 135.175 14.0043C135.375 14.0043 135.557 13.9766 135.72 13.9212C135.883 13.8658 136.023 13.7842 136.14 13.6765C136.257 13.5688 136.345 13.4364 136.403 13.2795L138.476 13.3395C138.39 13.8042 138.201 14.2089 137.908 14.5536C137.619 14.8952 137.239 15.1615 136.768 15.3523C136.297 15.54 135.752 15.6339 135.134 15.6339ZM139.652 15.5V6.04545H146.106V7.90128H141.937V9.8402H145.695V11.7006H141.937V15.5H139.652ZM150.046 15.6339C149.301 15.6339 148.661 15.4815 148.126 15.1768C147.593 14.8691 147.182 14.4413 146.893 13.8935C146.607 13.3426 146.464 12.704 146.464 11.9776C146.464 11.2482 146.607 10.6096 146.893 10.0618C147.182 9.51089 147.593 9.08309 148.126 8.77841C148.661 8.47064 149.301 8.31676 150.046 8.31676C150.791 8.31676 151.429 8.47064 151.962 8.77841C152.497 9.08309 152.908 9.51089 153.194 10.0618C153.484 10.6096 153.628 11.2482 153.628 11.9776C153.628 12.704 153.484 13.3426 153.194 13.8935C152.908 14.4413 152.497 14.8691 151.962 15.1768C151.429 15.4815 150.791 15.6339 150.046 15.6339ZM150.06 13.9304C150.331 13.9304 150.56 13.8473 150.748 13.6811C150.935 13.5149 151.079 13.2841 151.177 12.9886C151.279 12.6932 151.329 12.3516 151.329 11.9638C151.329 11.5698 151.279 11.2251 151.177 10.9297C151.079 10.6342 150.935 10.4034 150.748 10.2372C150.56 10.071 150.331 9.98792 150.06 9.98792C149.78 9.98792 149.543 10.071 149.349 10.2372C149.158 10.4034 149.012 10.6342 148.91 10.9297C148.812 11.2251 148.763 11.5698 148.763 11.9638C148.763 12.3516 148.812 12.6932 148.91 12.9886C149.012 13.2841 149.158 13.5149 149.349 13.6811C149.543 13.8473 149.78 13.9304 150.06 13.9304ZM154.785 15.5V8.40909H156.978V9.7017H157.052C157.181 9.2339 157.392 8.88612 157.684 8.65838C157.976 8.42755 158.316 8.31214 158.704 8.31214C158.809 8.31214 158.917 8.31984 159.027 8.33523C159.138 8.34754 159.241 8.36754 159.337 8.39524V10.3572C159.229 10.3203 159.087 10.2911 158.912 10.2695C158.74 10.248 158.586 10.2372 158.45 10.2372C158.183 10.2372 157.941 10.2972 157.726 10.4173C157.513 10.5342 157.345 10.6989 157.222 10.9112C157.102 11.1205 157.042 11.3667 157.042 11.6499V15.5H154.785ZM163.194 18.3068C162.52 18.3068 161.943 18.2129 161.463 18.0252C160.982 17.8375 160.605 17.5805 160.332 17.2543C160.058 16.928 159.893 16.5587 159.838 16.1463L161.975 16.0263C162.015 16.1709 162.089 16.2971 162.197 16.4048C162.307 16.5125 162.451 16.5956 162.626 16.6541C162.804 16.7126 163.014 16.7418 163.254 16.7418C163.632 16.7418 163.945 16.6495 164.191 16.4648C164.44 16.2833 164.565 15.9647 164.565 15.5092V14.2628H164.486C164.397 14.4813 164.262 14.6767 164.08 14.8491C163.899 15.0214 163.672 15.1568 163.401 15.2553C163.134 15.3538 162.826 15.4031 162.478 15.4031C161.961 15.4031 161.487 15.283 161.056 15.043C160.629 14.7998 160.285 14.4244 160.027 13.9165C159.771 13.4057 159.644 12.7486 159.644 11.9453C159.644 11.1174 159.776 10.4357 160.041 9.90021C160.305 9.36162 160.652 8.96307 161.079 8.70454C161.51 8.44602 161.973 8.31676 162.469 8.31676C162.841 8.31676 163.16 8.38139 163.425 8.51065C163.692 8.63684 163.912 8.79995 164.085 9C164.257 9.20005 164.388 9.40779 164.477 9.62322H164.542V8.40909H166.79V15.5277C166.79 16.1278 166.639 16.6341 166.338 17.0465C166.036 17.4589 165.614 17.7713 165.073 17.9837C164.531 18.1991 163.905 18.3068 163.194 18.3068ZM163.263 13.7596C163.537 13.7596 163.771 13.6873 163.965 13.5426C164.159 13.398 164.308 13.1902 164.413 12.9194C164.517 12.6486 164.569 12.3239 164.569 11.9453C164.569 11.5606 164.517 11.2298 164.413 10.9528C164.311 10.6727 164.162 10.4573 163.965 10.3065C163.771 10.1557 163.537 10.0803 163.263 10.0803C162.983 10.0803 162.746 10.1572 162.552 10.3111C162.358 10.465 162.21 10.6819 162.109 10.962C162.01 11.239 161.961 11.5668 161.961 11.9453C161.961 12.3239 162.012 12.6486 162.113 12.9194C162.215 13.1902 162.361 13.398 162.552 13.5426C162.746 13.6873 162.983 13.7596 163.263 13.7596ZM171.544 15.6339C170.802 15.6339 170.162 15.4877 169.623 15.1953C169.088 14.8999 168.675 14.4798 168.386 13.935C168.1 13.3872 167.957 12.7363 167.957 11.9822C167.957 11.2498 168.101 10.6096 168.391 10.0618C168.68 9.51089 169.088 9.08309 169.614 8.77841C170.14 8.47064 170.761 8.31676 171.475 8.31676C171.979 8.31676 172.441 8.39524 172.86 8.5522C173.278 8.70916 173.64 8.94152 173.944 9.24929C174.249 9.55705 174.486 9.93714 174.655 10.3896C174.825 10.8389 174.909 11.3544 174.909 11.9361V12.4993H168.746V11.1882H172.809C172.806 10.9482 172.749 10.7343 172.638 10.5465C172.527 10.3588 172.375 10.2126 172.181 10.108C171.99 10.0002 171.77 9.94638 171.521 9.94638C171.268 9.94638 171.042 10.0033 170.842 10.1172C170.642 10.228 170.484 10.3803 170.367 10.5742C170.25 10.765 170.188 10.982 170.182 11.2251V12.5593C170.182 12.8486 170.239 13.1025 170.353 13.321C170.467 13.5365 170.628 13.7042 170.837 13.8242C171.047 13.9442 171.296 14.0043 171.585 14.0043C171.785 14.0043 171.967 13.9766 172.13 13.9212C172.293 13.8658 172.433 13.7842 172.55 13.6765C172.667 13.5688 172.755 13.4364 172.813 13.2795L174.886 13.3395C174.8 13.8042 174.611 14.2089 174.318 14.5536C174.029 14.8952 173.649 15.1615 173.178 15.3523C172.707 15.54 172.162 15.6339 171.544 15.6339Z" fill="white"/>
</g>
</g>
<rect x="0.6" y="0.6" width="179.8" height="19.8" rx="4.4" stroke="url(#paint0_linear_2019_2)" stroke-opacity="0.88" stroke-width="1.2"/>
<defs>
<filter id="filter0_d_2019_2" x="-0.60028" y="-3.10028" width="27.2006" height="27.2006" filterUnits="userSpaceOnUse" color-interpolation-filters="sRGB">
<feFlood flood-opacity="0" result="BackgroundImageFix"/>
<feColorMatrix in="SourceAlpha" type="matrix" values="0 0 0 0 0 0 0 0 0 0 0 0 0 0 0 0 0 0 127 0" result="hardAlpha"/>
<feOffset/>
<feGaussianBlur stdDeviation="2.80014"/>
<feComposite in2="hardAlpha" operator="out"/>
<feColorMatrix type="matrix" values="0 0 0 0 0 0 0 0 0 0 0 0 0 0 0 0 0 0 0.25 0"/>
<feBlend mode="normal" in2="BackgroundImageFix" result="effect1_dropShadow_2019_2"/>
<feBlend mode="normal" in="SourceGraphic" in2="effect1_dropShadow_2019_2" result="shape"/>
</filter>
<filter id="filter1_d_2019_2" x="17.2857" y="-3.21429" width="164.429" height="27.4286" filterUnits="userSpaceOnUse" color-interpolation-filters="sRGB">
<feFlood flood-opacity="0" result="BackgroundImageFix"/>
<feColorMatrix in="SourceAlpha" type="matrix" values="0 0 0 0 0 0 0 0 0 0 0 0 0 0 0 0 0 0 127 0" result="hardAlpha"/>
<feOffset/>
<feGaussianBlur stdDeviation="2.85714"/>
<feComposite in2="hardAlpha" operator="out"/>
<feColorMatrix type="matrix" values="0 0 0 0 0 0 0 0 0 0 0 0 0 0 0 0 0 0 0.25 0"/>
<feBlend mode="normal" in2="BackgroundImageFix" result="effect1_dropShadow_2019_2"/>
<feBlend mode="normal" in="SourceGraphic" in2="effect1_dropShadow_2019_2" result="shape"/>
</filter>
<linearGradient id="paint0_linear_2019_2" x1="0" y1="10.5" x2="181" y2="10.5" gradientUnits="userSpaceOnUse">
<stop stop-color="#F16436"/>
<stop offset="1" stop-color="#FA855F"/>
</linearGradient>
<clipPath id="clip0_2019_2">
<rect width="181" height="21" rx="5" fill="white"/>
</clipPath>
<clipPath id="clip1_2019_2">
<rect width="16" height="10.6667" fill="white" transform="translate(5 5)"/>
</clipPath>
</defs>
</svg>
