<svg width="169" height="21" viewBox="0 0 169 21" fill="none" xmlns="http://www.w3.org/2000/svg">
<g clip-path="url(#clip0_2003_2)">
<rect width="169" height="21" rx="5" fill="black"/>
<g filter="url(#filter0_d_2003_2)">
<g clip-path="url(#clip1_2003_2)">
<g clip-path="url(#clip2_2003_2)">
<path d="M13.5 2.5L10.9501 7.49902H6.49507L5 9.2213L8.81825 12.3719L8.83398 17.0327L10.2517 18.5L13.5 15.914L16.747 18.5L18.166 17.0327L18.1817 12.3719L22 9.2213L20.5036 7.49902H16.0499L13.5 2.5ZM13.5 6.0174L15.0383 9.03268H15.0396H18.9142L19.2313 9.39821L18.1162 10.3192L16.5779 11.5888L16.4482 11.6954V11.7085L16.4469 12.0857L16.443 13.6128L16.4377 15.14L16.4351 15.6564L16.1311 15.9725L15.0855 15.14H15.0422V15.1049L15.0396 15.1036L13.5026 13.8795L13.5013 13.8782H13.5L11.9617 15.1023L11.9604 15.1036V15.14H11.9145L10.8689 15.9725L10.5649 15.6564L10.5623 15.14L10.557 13.6128L10.5531 12.0857L10.5518 11.6954L10.4221 11.5888L8.88378 10.3192L7.7687 9.39821L8.0858 9.03268H8.88378H11.9617L12.3194 8.33285L13.5 6.0174Z" fill="white"/>
</g>
</g>
</g>
<g filter="url(#filter1_d_2003_2)">
<path d="M24.0387 15.5V6.04546H27.4087C28.1412 6.04546 28.7491 6.17164 29.2322 6.42401C29.7185 6.67638 30.0817 7.02569 30.3217 7.47195C30.5618 7.91513 30.6818 8.42756 30.6818 9.00923C30.6818 9.58783 30.5602 10.0972 30.3171 10.5373C30.0771 10.9743 29.7139 11.3144 29.2276 11.5575C28.7444 11.8007 28.1366 11.9222 27.4041 11.9222H24.8512V10.6942H27.2749C27.7365 10.6942 28.112 10.6281 28.4013 10.4957C28.6937 10.3634 28.9075 10.171 29.043 9.91868C29.1784 9.66631 29.2461 9.36316 29.2461 9.00923C29.2461 8.65223 29.1768 8.34292 29.0383 8.08132C28.9029 7.81972 28.689 7.61968 28.3967 7.48118C28.1074 7.33961 27.7273 7.26882 27.2564 7.26882H25.4652V15.5H24.0387ZM28.706 11.2344L31.0419 15.5H29.4169L27.1271 11.2344H28.706ZM34.3704 15.657C33.921 15.657 33.5148 15.5739 33.1516 15.4077C32.7885 15.2384 32.5007 14.9937 32.2883 14.6737C32.0791 14.3536 31.9744 13.9612 31.9744 13.4964C31.9744 13.0964 32.0514 12.767 32.2053 12.5085C32.3591 12.25 32.5669 12.0453 32.8285 11.8945C33.0901 11.7437 33.3825 11.6299 33.7056 11.5529C34.0288 11.476 34.3581 11.4175 34.6935 11.3775C35.1182 11.3282 35.4629 11.2882 35.7276 11.2575C35.9923 11.2236 36.1847 11.1697 36.3047 11.0959C36.4247 11.022 36.4847 10.902 36.4847 10.7358V10.7035C36.4847 10.3003 36.3709 9.98793 36.1431 9.76634C35.9184 9.54475 35.583 9.43395 35.1367 9.43395C34.672 9.43395 34.3057 9.53705 34.038 9.74325C33.7733 9.94638 33.5902 10.1726 33.4886 10.4219L32.1914 10.1264C32.3453 9.69555 32.57 9.34778 32.8654 9.0831C33.1639 8.81534 33.5071 8.62145 33.8949 8.50142C34.2827 8.37832 34.6905 8.31676 35.1182 8.31676C35.4014 8.31676 35.7015 8.35062 36.0185 8.41833C36.3385 8.48296 36.6371 8.60298 36.9141 8.77841C37.1941 8.95384 37.4234 9.20467 37.6019 9.5309C37.7804 9.85405 37.8697 10.2741 37.8697 10.7912V15.5H36.5217V14.5305H36.4663C36.377 14.709 36.2431 14.8845 36.0646 15.0568C35.8861 15.2292 35.6568 15.3723 35.3768 15.4862C35.0967 15.6 34.7612 15.657 34.3704 15.657ZM34.6705 14.549C35.0521 14.549 35.3783 14.4736 35.6491 14.3228C35.9231 14.172 36.1308 13.975 36.2724 13.7319C36.417 13.4857 36.4893 13.2225 36.4893 12.9425V12.0284C36.4401 12.0777 36.3447 12.1238 36.2031 12.1669C36.0646 12.2069 35.9061 12.2423 35.7276 12.2731C35.5491 12.3008 35.3752 12.3269 35.206 12.3516C35.0367 12.3731 34.8951 12.3916 34.7812 12.407C34.5135 12.4408 34.2688 12.4978 34.0472 12.5778C33.8287 12.6578 33.6533 12.7732 33.5209 12.924C33.3917 13.0717 33.3271 13.2687 33.3271 13.5149C33.3271 13.8565 33.4532 14.1151 33.7056 14.2905C33.958 14.4628 34.2796 14.549 34.6705 14.549ZM43.0182 8.40909V9.51705H39.145V8.40909H43.0182ZM40.1837 6.71023H41.564V13.418C41.564 13.6857 41.604 13.8873 41.684 14.0227C41.7641 14.1551 41.8672 14.2459 41.9933 14.2951C42.1226 14.3413 42.2626 14.3643 42.4134 14.3643C42.5242 14.3643 42.6212 14.3567 42.7043 14.3413C42.7874 14.3259 42.852 14.3136 42.8982 14.3043L43.1475 15.4446C43.0674 15.4754 42.9536 15.5062 42.8058 15.5369C42.6581 15.5708 42.4734 15.5893 42.2519 15.5923C41.8887 15.5985 41.5502 15.5339 41.2362 15.3984C40.9223 15.263 40.6684 15.0537 40.4745 14.7706C40.2806 14.4875 40.1837 14.132 40.1837 13.7042V6.71023ZM47.525 15.6431C46.8264 15.6431 46.2247 15.4938 45.72 15.1953C45.2183 14.8937 44.8305 14.4705 44.5566 13.9258C44.2858 13.378 44.1504 12.7363 44.1504 12.0007C44.1504 11.2744 44.2858 10.6342 44.5566 10.0803C44.8305 9.52628 45.2122 9.09387 45.7015 8.78303C46.1939 8.47218 46.7695 8.31676 47.4281 8.31676C47.8282 8.31676 48.216 8.38293 48.5914 8.51527C48.9669 8.64761 49.3039 8.85535 49.6024 9.1385C49.901 9.42164 50.1364 9.78942 50.3088 10.2418C50.4811 10.6912 50.5673 11.2375 50.5673 11.8807V12.37H44.9306V11.3359H49.2147C49.2147 10.9728 49.1408 10.6512 48.9931 10.3711C48.8453 10.088 48.6376 9.86482 48.3698 9.70171C48.1052 9.53859 47.7943 9.45703 47.4373 9.45703C47.0495 9.45703 46.711 9.55244 46.4217 9.74325C46.1355 9.93099 45.9139 10.1772 45.7569 10.4819C45.603 10.7835 45.5261 11.1113 45.5261 11.4652V12.2731C45.5261 12.747 45.6092 13.1502 45.7754 13.4826C45.9447 13.815 46.1801 14.0689 46.4817 14.2443C46.7833 14.4167 47.1357 14.5028 47.5389 14.5028C47.8005 14.5028 48.039 14.4659 48.2544 14.392C48.4699 14.3151 48.6561 14.2012 48.813 14.0504C48.97 13.8996 49.09 13.7134 49.1731 13.4918L50.4796 13.7273C50.3749 14.112 50.1872 14.449 49.9164 14.7383C49.6486 15.0245 49.3116 15.2476 48.9054 15.4077C48.5022 15.5646 48.0421 15.6431 47.525 15.6431ZM58.5261 15.6431C57.8613 15.6431 57.2812 15.4908 56.7857 15.1861C56.2902 14.8814 55.9055 14.4551 55.6316 13.9073C55.3576 13.3595 55.2207 12.7193 55.2207 11.9869C55.2207 11.2513 55.3576 10.6081 55.6316 10.0572C55.9055 9.50628 56.2902 9.07848 56.7857 8.77379C57.2812 8.46911 57.8613 8.31676 58.5261 8.31676C59.1909 8.31676 59.771 8.46911 60.2665 8.77379C60.762 9.07848 61.1467 9.50628 61.4206 10.0572C61.6945 10.6081 61.8315 11.2513 61.8315 11.9869C61.8315 12.7193 61.6945 13.3595 61.4206 13.9073C61.1467 14.4551 60.762 14.8814 60.2665 15.1861C59.771 15.4908 59.1909 15.6431 58.5261 15.6431ZM58.5307 14.4844C58.9616 14.4844 59.3186 14.3705 59.6017 14.1428C59.8849 13.915 60.0942 13.6119 60.2296 13.2333C60.3681 12.8548 60.4373 12.4377 60.4373 11.9822C60.4373 11.5298 60.3681 11.1143 60.2296 10.7358C60.0942 10.3542 59.8849 10.0479 59.6017 9.81712C59.3186 9.58629 58.9616 9.47088 58.5307 9.47088C58.0968 9.47088 57.7367 9.58629 57.4505 9.81712C57.1673 10.0479 56.9565 10.3542 56.818 10.7358C56.6826 11.1143 56.6149 11.5298 56.6149 11.9822C56.6149 12.4377 56.6826 12.8548 56.818 13.2333C56.9565 13.6119 57.1673 13.915 57.4505 14.1428C57.7367 14.3705 58.0968 14.4844 58.5307 14.4844ZM64.7526 11.2898V15.5H63.3722V8.40909H64.6972V9.56321H64.7849C64.948 9.18774 65.2034 8.88613 65.5512 8.65838C65.9021 8.43064 66.3437 8.31676 66.8761 8.31676C67.3593 8.31676 67.7825 8.41833 68.1457 8.62145C68.5088 8.8215 68.7904 9.12003 68.9905 9.51705C69.1905 9.91406 69.2906 10.4049 69.2906 10.9897V15.5H67.9102V11.1559C67.9102 10.6419 67.7764 10.2403 67.5086 9.951C67.2408 9.65862 66.8731 9.51243 66.4053 9.51243C66.0852 9.51243 65.8005 9.58168 65.5512 9.72017C65.305 9.85867 65.1096 10.0618 64.9649 10.3295C64.8233 10.5942 64.7526 10.9143 64.7526 11.2898Z" fill="#E8E8E8"/>
<path d="M73.7155 6.04546H76.5454L78.946 11.8991H79.0568L81.4574 6.04546H84.2873V15.5H82.0621V9.69247H81.9836L79.7123 15.44H78.2905L76.0192 9.66016H75.9407V15.5H73.7155V6.04546ZM85.7126 6.04546H88.5425L90.9431 11.8991H91.0539L93.4544 6.04546H96.2843V15.5H94.0592V9.69247H93.9807L91.7094 15.44H90.2875L88.0162 9.66016H87.9377V15.5H85.7126V6.04546ZM106.292 9.47088H103.983C103.953 9.2339 103.89 9.02001 103.794 8.82919C103.699 8.63838 103.573 8.47526 103.416 8.33985C103.259 8.20443 103.072 8.10133 102.857 8.03054C102.645 7.95668 102.409 7.91975 102.151 7.91975C101.692 7.91975 101.297 8.03208 100.964 8.25675C100.635 8.48142 100.381 8.80611 100.203 9.23083C100.027 9.65554 99.9394 10.1695 99.9394 10.7727C99.9394 11.4006 100.029 11.9268 100.207 12.3516C100.389 12.7732 100.643 13.0917 100.969 13.3072C101.298 13.5195 101.688 13.6257 102.137 13.6257C102.389 13.6257 102.619 13.5934 102.825 13.5288C103.034 13.4641 103.217 13.3703 103.374 13.2472C103.534 13.121 103.665 12.9686 103.766 12.7901C103.871 12.6085 103.943 12.4039 103.983 12.1761L106.292 12.19C106.252 12.6085 106.13 13.021 105.927 13.4272C105.727 13.8335 105.452 14.2043 105.101 14.5398C104.75 14.8722 104.322 15.1368 103.817 15.3338C103.316 15.5308 102.74 15.6293 102.091 15.6293C101.235 15.6293 100.469 15.4415 99.7917 15.0661C99.1177 14.6875 98.5853 14.1366 98.1944 13.4134C97.8035 12.6901 97.6081 11.8099 97.6081 10.7727C97.6081 9.73248 97.8066 8.85074 98.2036 8.12749C98.6007 7.40424 99.1377 6.85488 99.8148 6.47941C100.492 6.10393 101.251 5.9162 102.091 5.9162C102.663 5.9162 103.193 5.99621 103.679 6.15625C104.165 6.31321 104.593 6.54404 104.962 6.84872C105.331 7.15033 105.632 7.52119 105.862 7.96129C106.093 8.4014 106.236 8.90459 106.292 9.47088ZM110.392 15.5V6.04546H114.298C115.006 6.04546 115.617 6.17318 116.131 6.42862C116.648 6.68099 117.046 7.04415 117.326 7.51811C117.606 7.98899 117.746 8.54759 117.746 9.19389C117.746 9.84943 117.603 10.4065 117.317 10.8651C117.031 11.3206 116.625 11.6683 116.098 11.9084C115.572 12.1454 114.949 12.2639 114.229 12.2639H111.759V10.4634H113.804C114.149 10.4634 114.436 10.4188 114.667 10.3295C114.901 10.2372 115.078 10.0987 115.198 9.91406C115.318 9.72633 115.378 9.48627 115.378 9.19389C115.378 8.90152 115.318 8.65992 115.198 8.46911C115.078 8.27521 114.901 8.13057 114.667 8.03516C114.433 7.93667 114.145 7.88743 113.804 7.88743H112.677V15.5H110.392ZM115.715 11.179L118.069 15.5H115.577L113.268 11.179H115.715ZM122.175 15.6339C121.433 15.6339 120.793 15.4877 120.254 15.1953C119.719 14.8999 119.306 14.4798 119.017 13.935C118.731 13.3872 118.588 12.7363 118.588 11.9822C118.588 11.2498 118.732 10.6096 119.022 10.0618C119.311 9.51089 119.719 9.0831 120.245 8.77841C120.771 8.47065 121.391 8.31676 122.105 8.31676C122.61 8.31676 123.072 8.39524 123.49 8.5522C123.909 8.70916 124.271 8.94153 124.575 9.24929C124.88 9.55706 125.117 9.93715 125.286 10.3896C125.455 10.8389 125.54 11.3544 125.54 11.9361V12.4993H119.377V11.1882H123.44C123.437 10.9482 123.38 10.7343 123.269 10.5465C123.158 10.3588 123.006 10.2126 122.812 10.108C122.621 10.0002 122.401 9.94638 122.152 9.94638C121.899 9.94638 121.673 10.0033 121.473 10.1172C121.273 10.228 121.114 10.3803 120.997 10.5742C120.881 10.765 120.819 10.982 120.813 11.2251V12.5593C120.813 12.8486 120.87 13.1025 120.984 13.321C121.098 13.5365 121.259 13.7042 121.468 13.8242C121.678 13.9442 121.927 14.0043 122.216 14.0043C122.416 14.0043 122.598 13.9766 122.761 13.9212C122.924 13.8658 123.064 13.7842 123.181 13.6765C123.298 13.5688 123.386 13.4364 123.444 13.2795L125.517 13.3395C125.431 13.8042 125.242 14.2089 124.949 14.5536C124.66 14.8952 124.28 15.1615 123.809 15.3523C123.338 15.54 122.793 15.6339 122.175 15.6339ZM133.381 8.40909L130.948 15.5H128.363L125.935 8.40909H128.312L129.619 13.2933H129.693L131.004 8.40909H133.381ZM134.247 15.5V8.40909H136.504V15.5H134.247ZM135.378 7.58274C135.061 7.58274 134.788 7.4781 134.561 7.26882C134.333 7.05647 134.219 6.80102 134.219 6.50249C134.219 6.20703 134.333 5.95467 134.561 5.74539C134.788 5.53303 135.061 5.42685 135.378 5.42685C135.698 5.42685 135.97 5.53303 136.195 5.74539C136.423 5.95467 136.537 6.20703 136.537 6.50249C136.537 6.80102 136.423 7.05647 136.195 7.26882C135.97 7.4781 135.698 7.58274 135.378 7.58274ZM141.256 15.6339C140.514 15.6339 139.874 15.4877 139.335 15.1953C138.8 14.8999 138.387 14.4798 138.098 13.935C137.812 13.3872 137.669 12.7363 137.669 11.9822C137.669 11.2498 137.813 10.6096 138.103 10.0618C138.392 9.51089 138.8 9.0831 139.326 8.77841C139.852 8.47065 140.472 8.31676 141.186 8.31676C141.691 8.31676 142.153 8.39524 142.571 8.5522C142.99 8.70916 143.352 8.94153 143.656 9.24929C143.961 9.55706 144.198 9.93715 144.367 10.3896C144.537 10.8389 144.621 11.3544 144.621 11.9361V12.4993H138.458V11.1882H142.521C142.518 10.9482 142.461 10.7343 142.35 10.5465C142.239 10.3588 142.087 10.2126 141.893 10.108C141.702 10.0002 141.482 9.94638 141.233 9.94638C140.98 9.94638 140.754 10.0033 140.554 10.1172C140.354 10.228 140.195 10.3803 140.079 10.5742C139.962 10.765 139.9 10.982 139.894 11.2251V12.5593C139.894 12.8486 139.951 13.1025 140.065 13.321C140.179 13.5365 140.34 13.7042 140.549 13.8242C140.759 13.9442 141.008 14.0043 141.297 14.0043C141.497 14.0043 141.679 13.9766 141.842 13.9212C142.005 13.8658 142.145 13.7842 142.262 13.6765C142.379 13.5688 142.467 13.4364 142.525 13.2795L144.598 13.3395C144.512 13.8042 144.323 14.2089 144.03 14.5536C143.741 14.8952 143.361 15.1615 142.89 15.3523C142.419 15.54 141.874 15.6339 141.256 15.6339ZM147.023 15.5L145.176 8.40909H147.443L148.399 12.9517H148.459L149.483 8.40909H151.695L152.747 12.9194H152.807L153.735 8.40909H156.002L154.151 15.5H151.736L150.628 11.3683H150.55L149.442 15.5H147.023ZM163.099 10.5742L161.026 10.6296C161.004 10.4819 160.946 10.3511 160.85 10.2372C160.755 10.1203 160.63 10.0295 160.476 9.96485C160.326 9.89714 160.15 9.86328 159.95 9.86328C159.689 9.86328 159.465 9.9156 159.281 10.0202C159.099 10.1249 159.01 10.2665 159.013 10.445C159.01 10.5835 159.065 10.7035 159.179 10.805C159.296 10.9066 159.504 10.9882 159.802 11.0497L161.169 11.3082C161.877 11.4437 162.403 11.6683 162.748 11.9822C163.096 12.2962 163.271 12.7116 163.274 13.2287C163.271 13.715 163.126 14.1381 162.84 14.4982C162.557 14.8583 162.169 15.1384 161.677 15.3384C161.184 15.5354 160.621 15.6339 159.987 15.6339C158.975 15.6339 158.176 15.4261 157.591 15.0107C157.009 14.5921 156.677 14.032 156.594 13.3303L158.824 13.2749C158.873 13.5334 159.001 13.7304 159.207 13.8658C159.413 14.0012 159.676 14.0689 159.996 14.0689C160.286 14.0689 160.521 14.015 160.703 13.9073C160.884 13.7996 160.977 13.6565 160.98 13.478C160.977 13.3179 160.906 13.1902 160.767 13.0948C160.629 12.9963 160.412 12.9194 160.116 12.864L158.879 12.6286C158.168 12.4993 157.639 12.2608 157.291 11.913C156.943 11.5621 156.771 11.1159 156.774 10.5742C156.771 10.1003 156.897 9.69555 157.153 9.36009C157.408 9.02155 157.771 8.76302 158.242 8.58452C158.713 8.40602 159.268 8.31676 159.909 8.31676C160.869 8.31676 161.626 8.51835 162.18 8.92152C162.734 9.32162 163.04 9.87252 163.099 10.5742Z" fill="white"/>
</g>
</g>
<rect x="0.6" y="0.6" width="167.8" height="19.8" rx="4.4" stroke="url(#paint0_linear_2003_2)" stroke-opacity="0.88" stroke-width="1.2"/>
<defs>
<filter id="filter0_d_2003_2" x="-0.600282" y="-3.10028" width="28.2006" height="27.2006" filterUnits="userSpaceOnUse" color-interpolation-filters="sRGB">
<feFlood flood-opacity="0" result="BackgroundImageFix"/>
<feColorMatrix in="SourceAlpha" type="matrix" values="0 0 0 0 0 0 0 0 0 0 0 0 0 0 0 0 0 0 127 0" result="hardAlpha"/>
<feOffset/>
<feGaussianBlur stdDeviation="2.80014"/>
<feComposite in2="hardAlpha" operator="out"/>
<feColorMatrix type="matrix" values="0 0 0 0 0 0 0 0 0 0 0 0 0 0 0 0 0 0 0.25 0"/>
<feBlend mode="normal" in2="BackgroundImageFix" result="effect1_dropShadow_2003_2"/>
<feBlend mode="normal" in="SourceGraphic" in2="effect1_dropShadow_2003_2" result="shape"/>
</filter>
<filter id="filter1_d_2003_2" x="17.2857" y="-3.21428" width="152.429" height="27.4286" filterUnits="userSpaceOnUse" color-interpolation-filters="sRGB">
<feFlood flood-opacity="0" result="BackgroundImageFix"/>
<feColorMatrix in="SourceAlpha" type="matrix" values="0 0 0 0 0 0 0 0 0 0 0 0 0 0 0 0 0 0 127 0" result="hardAlpha"/>
<feOffset/>
<feGaussianBlur stdDeviation="2.85714"/>
<feComposite in2="hardAlpha" operator="out"/>
<feColorMatrix type="matrix" values="0 0 0 0 0 0 0 0 0 0 0 0 0 0 0 0 0 0 0.25 0"/>
<feBlend mode="normal" in2="BackgroundImageFix" result="effect1_dropShadow_2003_2"/>
<feBlend mode="normal" in="SourceGraphic" in2="effect1_dropShadow_2003_2" result="shape"/>
</filter>
<linearGradient id="paint0_linear_2003_2" x1="0" y1="10.5" x2="169" y2="10.5" gradientUnits="userSpaceOnUse">
<stop stop-color="#59BC7B"/>
<stop offset="1" stop-color="#C5DE98"/>
</linearGradient>
<clipPath id="clip0_2003_2">
<rect width="169" height="21" rx="5" fill="white"/>
</clipPath>
<clipPath id="clip1_2003_2">
<rect width="17" height="16" fill="white" transform="translate(5 2.5)"/>
</clipPath>
<clipPath id="clip2_2003_2">
<rect width="17" height="16" fill="white" transform="translate(5 2.5)"/>
</clipPath>
</defs>
</svg>
