<svg fill="none" xmlns="http://www.w3.org/2000/svg" viewBox="0 0 169 21"><g clip-path="url(#a)"><rect width="169" height="21" rx="5" fill="#000"/><g filter="url(#b)"><g clip-path="url(#c)"><g clip-path="url(#d)"><path d="m13.5 2.5-2.55 4.999H6.495L5 9.221l3.818 3.15.016 4.662 1.418 1.467 3.248-2.586 3.247 2.586 1.419-1.467.016-4.661L22 9.222l-1.496-1.723H16.05L13.5 2.5Zm0 3.517 1.538 3.016h3.876l.317.365-1.115.921-1.538 1.27-.13.106v.014l-.001.377-.004 1.527-.005 1.527-.003.516-.304.316-1.046-.832h-.043v-.035l-.002-.001-1.537-1.224-.002-.002H13.5l-1.538 1.224-.002.002v.036h-.046l-1.045.832-.304-.316-.003-.516-.005-1.527-.004-1.527-.001-.39-.13-.107-1.538-1.27-1.115-.92.317-.366h3.876l.357-.7L13.5 6.017Z" fill="#fff"/></g></g></g><g filter="url(#e)"><path d="M24.039 15.5V6.045h3.37c.732 0 1.34.127 1.823.379.486.252.85.602 1.09 1.048.24.443.36.956.36 1.537 0 .579-.122 1.088-.365 1.528-.24.437-.603.777-1.09 1.02-.483.244-1.09.365-1.823.365h-2.553v-1.228h2.424c.462 0 .837-.066 1.126-.198.293-.133.506-.325.642-.577.135-.253.203-.556.203-.91 0-.357-.07-.666-.208-.928a1.342 1.342 0 0 0-.641-.6c-.29-.141-.67-.212-1.14-.212h-1.792V15.5H24.04Zm4.667-4.266 2.336 4.266h-1.625l-2.29-4.266h1.579Zm5.664 4.423a2.88 2.88 0 0 1-1.218-.25 2.054 2.054 0 0 1-.864-.733c-.209-.32-.314-.713-.314-1.178 0-.4.077-.729.231-.988.154-.258.362-.463.623-.613.262-.151.554-.265.878-.342.323-.077.652-.136.987-.176l1.035-.12c.264-.033.457-.087.577-.161.12-.074.18-.194.18-.36v-.033c0-.403-.114-.715-.342-.937-.225-.221-.56-.332-1.006-.332-.465 0-.831.103-1.099.31-.265.202-.448.429-.55.678l-1.297-.296c.154-.43.379-.778.674-1.043a2.733 2.733 0 0 1 1.03-.582 4.02 4.02 0 0 1 1.223-.184c.283 0 .584.034.9.101.32.065.62.185.896.36.28.176.51.427.688.753.178.323.268.743.268 1.26V15.5h-1.348v-.97h-.056a1.971 1.971 0 0 1-.401.527 2.134 2.134 0 0 1-.688.43c-.28.113-.616.17-1.007.17Zm.3-1.108c.382 0 .708-.075.98-.226.273-.151.48-.348.622-.591.145-.246.217-.51.217-.79v-.914c-.049.05-.144.096-.286.139a4.46 4.46 0 0 1-.475.106l-.522.079-.425.055a3.42 3.42 0 0 0-.734.17 1.26 1.26 0 0 0-.526.347c-.13.148-.194.345-.194.59 0 .343.126.601.379.777.252.172.574.258.964.258Zm8.348-6.14v1.108h-3.873V8.409h3.873ZM40.184 6.71h1.38v6.708c0 .268.04.47.12.605.08.132.183.223.31.272.129.046.269.07.42.07.11 0 .207-.008.29-.024.083-.015.148-.027.194-.037l.25 1.14a2.31 2.31 0 0 1-.342.093 2.695 2.695 0 0 1-.554.055 2.429 2.429 0 0 1-1.016-.194 1.742 1.742 0 0 1-.761-.627c-.194-.284-.291-.639-.291-1.067V6.71Zm7.341 8.933c-.699 0-1.3-.15-1.805-.448a3.037 3.037 0 0 1-1.163-1.27c-.271-.547-.407-1.189-.407-1.924 0-.727.136-1.367.407-1.92a3.155 3.155 0 0 1 1.145-1.298c.492-.31 1.068-.466 1.726-.466.4 0 .788.066 1.163.198.376.133.713.34 1.011.623.299.284.534.651.707 1.104.172.45.258.995.258 1.639v.489h-5.636v-1.034h4.284c0-.363-.074-.685-.222-.965a1.676 1.676 0 0 0-.623-.67 1.741 1.741 0 0 0-.933-.244 1.8 1.8 0 0 0-1.015.286 1.922 1.922 0 0 0-.665.739c-.154.302-.23.63-.23.983v.808c0 .474.082.877.248 1.21.17.332.405.586.707.761.301.173.654.259 1.057.259.261 0 .5-.037.715-.111a1.484 1.484 0 0 0 .919-.9l1.307.235a2.367 2.367 0 0 1-.564 1.011c-.267.287-.604.51-1.01.67a3.785 3.785 0 0 1-1.381.235Zm11.001 0c-.665 0-1.245-.152-1.74-.457a3.082 3.082 0 0 1-1.154-1.279c-.274-.547-.411-1.188-.411-1.92 0-.736.137-1.379.41-1.93.275-.55.66-.979 1.155-1.283.495-.305 1.075-.457 1.74-.457s1.245.152 1.74.457c.496.304.88.732 1.155 1.283.273.551.41 1.194.41 1.93 0 .732-.137 1.373-.41 1.92a3.082 3.082 0 0 1-1.154 1.28c-.496.304-1.076.456-1.74.456Zm.005-1.159c.43 0 .788-.114 1.07-.341.284-.228.493-.531.629-.91.138-.378.207-.795.207-1.25 0-.453-.069-.869-.207-1.247a2.03 2.03 0 0 0-.628-.919c-.283-.23-.64-.346-1.071-.346-.434 0-.794.115-1.08.346-.284.23-.495.537-.633.919a3.677 3.677 0 0 0-.203 1.246c0 .456.068.873.203 1.251.139.379.35.682.633.91.286.227.646.341 1.08.341Zm6.222-3.194v4.21h-1.38V8.41h1.324v1.153h.088c.163-.375.418-.677.766-.905.351-.227.793-.341 1.325-.341.483 0 .906.101 1.27.304.363.2.644.499.844.896.2.397.3.888.3 1.473v4.51h-1.38v-4.344c0-.514-.134-.916-.401-1.205-.268-.292-.636-.439-1.104-.439-.32 0-.605.07-.854.208a1.495 1.495 0 0 0-.586.61c-.142.264-.212.584-.212.96Z" fill="#E8E8E8"/><path d="M73.716 6.045h2.83l2.4 5.854h.11l2.401-5.854h2.83V15.5h-2.225V9.692h-.078l-2.272 5.748H78.29l-2.27-5.78h-.08v5.84h-2.224V6.045Zm11.997 0h2.83l2.4 5.854h.11l2.401-5.854h2.83V15.5H94.06V9.692h-.078L91.71 15.44h-1.422l-2.27-5.78h-.08v5.84h-2.224V6.045Zm20.579 3.426h-2.309a1.966 1.966 0 0 0-.189-.642 1.552 1.552 0 0 0-.937-.798 2.138 2.138 0 0 0-.706-.111c-.459 0-.854.112-1.187.337-.329.224-.583.55-.761.974-.176.425-.264.938-.264 1.542 0 .628.09 1.154.268 1.579.182.421.436.74.762.955.329.213.719.319 1.168.319.252 0 .482-.033.688-.097a1.69 1.69 0 0 0 .549-.282c.16-.126.291-.278.392-.457a1.85 1.85 0 0 0 .217-.614l2.309.014a3.5 3.5 0 0 1-.365 1.237c-.2.407-.475.777-.826 1.113a3.906 3.906 0 0 1-1.284.794c-.501.197-1.077.295-1.726.295-.856 0-1.622-.188-2.3-.563-.673-.379-1.206-.93-1.597-1.653-.39-.723-.586-1.603-.586-2.64 0-1.04.199-1.922.596-2.646.397-.723.934-1.272 1.61-1.648.678-.375 1.437-.563 2.277-.563.572 0 1.102.08 1.588.24.486.157.914.388 1.283.693.369.301.67.672.9 1.112.231.44.374.944.43 1.51Zm4.1 6.029V6.045h3.906c.708 0 1.319.128 1.833.384.517.252.915.615 1.195 1.09.28.47.42 1.029.42 1.675 0 .655-.143 1.212-.429 1.671a2.738 2.738 0 0 1-1.219 1.043c-.526.237-1.149.356-1.869.356h-2.47v-1.8h2.045c.345 0 .632-.045.863-.135a1.08 1.08 0 0 0 .531-.415c.12-.188.18-.428.18-.72s-.06-.534-.18-.725a1.083 1.083 0 0 0-.531-.434 2.237 2.237 0 0 0-.863-.148h-1.127V15.5h-2.285Zm5.323-4.321 2.354 4.321h-2.492l-2.309-4.321h2.447Zm6.46 4.455c-.742 0-1.382-.146-1.921-.439a3.033 3.033 0 0 1-1.237-1.26c-.286-.548-.429-1.199-.429-1.953 0-.732.144-1.372.434-1.92a3.135 3.135 0 0 1 1.223-1.284c.526-.307 1.146-.461 1.86-.461.505 0 .967.078 1.385.235.419.157.781.39 1.085.697.305.308.542.688.711 1.14.169.45.254.965.254 1.547v.563h-6.163v-1.31h4.063a1.27 1.27 0 0 0-.171-.643 1.16 1.16 0 0 0-.457-.438 1.32 1.32 0 0 0-.66-.162c-.253 0-.479.057-.679.171-.2.111-.359.263-.476.457a1.293 1.293 0 0 0-.184.651v1.334c0 .29.057.543.171.762.114.216.275.383.484.503.21.12.459.18.748.18.2 0 .382-.027.545-.083.163-.055.303-.137.42-.244.117-.108.205-.24.263-.397l2.073.06a2.561 2.561 0 0 1-.568 1.214 2.873 2.873 0 0 1-1.14.798c-.471.188-1.016.282-1.634.282Zm11.206-7.225-2.433 7.091h-2.585l-2.428-7.09h2.377l1.307 4.883h.074l1.311-4.884h2.377Zm.866 7.091V8.41h2.257v7.09h-2.257Zm1.131-7.917c-.317 0-.59-.105-.817-.314a1.01 1.01 0 0 1-.342-.767c0-.295.114-.547.342-.757.227-.212.5-.318.817-.318.32 0 .592.106.817.318.228.21.342.462.342.757 0 .299-.114.554-.342.767-.225.21-.497.314-.817.314Zm5.878 8.05c-.742 0-1.382-.145-1.921-.438a3.033 3.033 0 0 1-1.237-1.26c-.286-.548-.429-1.199-.429-1.953 0-.732.144-1.372.434-1.92a3.135 3.135 0 0 1 1.223-1.284c.526-.307 1.146-.461 1.86-.461.505 0 .967.078 1.385.235.419.157.781.39 1.085.697.305.308.542.688.711 1.14.17.45.254.965.254 1.547v.563h-6.163v-1.31h4.063a1.27 1.27 0 0 0-.171-.643 1.16 1.16 0 0 0-.457-.438 1.32 1.32 0 0 0-.66-.162c-.253 0-.479.057-.679.171a1.283 1.283 0 0 0-.66 1.108v1.334c0 .29.057.543.171.762.114.216.275.383.484.503.21.12.459.18.748.18.2 0 .382-.027.545-.083.163-.055.303-.137.42-.244.117-.108.205-.24.263-.397l2.073.06a2.561 2.561 0 0 1-.568 1.214 2.873 2.873 0 0 1-1.14.798c-.471.188-1.016.282-1.634.282Zm5.767-.133-1.847-7.09h2.267l.956 4.542h.06l1.024-4.543h2.212l1.052 4.51h.06l.928-4.51h2.267l-1.851 7.091h-2.415l-1.108-4.132h-.078l-1.108 4.132h-2.419Zm16.076-4.926-2.073.056a.773.773 0 0 0-.176-.393.94.94 0 0 0-.374-.272 1.27 1.27 0 0 0-.526-.102c-.261 0-.485.053-.669.157-.182.105-.271.247-.268.425a.453.453 0 0 0 .166.36c.117.102.325.183.623.245l1.367.258c.708.136 1.234.36 1.579.674.348.314.523.73.526 1.247-.003.486-.148.91-.434 1.27-.283.36-.671.64-1.163.84-.493.196-1.056.295-1.69.295-1.012 0-1.811-.208-2.396-.623a2.326 2.326 0 0 1-.997-1.68l2.23-.056a.869.869 0 0 0 .383.59c.206.136.469.204.789.204.29 0 .525-.054.707-.162.181-.107.274-.25.277-.429a.454.454 0 0 0-.213-.383c-.138-.099-.355-.176-.651-.231l-1.237-.235c-.711-.13-1.24-.368-1.588-.716-.348-.35-.52-.797-.517-1.339-.003-.474.123-.878.379-1.214.255-.338.618-.597 1.089-.775.471-.179 1.026-.268 1.667-.268.96 0 1.717.201 2.271.605.554.4.86.95.919 1.652Z" fill="#fff"/></g></g><rect x=".6" y=".6" width="167.8" height="19.8" rx="4.4" stroke="url(#f)" stroke-opacity=".88" stroke-width="1.2"/><defs><clipPath id="a"><rect width="169" height="21" rx="5" fill="#fff"/></clipPath><clipPath id="c"><path fill="#fff" transform="translate(5 2.5)" d="M0 0h17v16H0z"/></clipPath><clipPath id="d"><path fill="#fff" transform="translate(5 2.5)" d="M0 0h17v16H0z"/></clipPath><filter id="b" x="-.6" y="-3.1" width="28.201" height="27.201" filterUnits="userSpaceOnUse" color-interpolation-filters="sRGB"><feFlood flood-opacity="0" result="BackgroundImageFix"/><feColorMatrix in="SourceAlpha" values="0 0 0 0 0 0 0 0 0 0 0 0 0 0 0 0 0 0 127 0" result="hardAlpha"/><feOffset/><feGaussianBlur stdDeviation="2.8"/><feComposite in2="hardAlpha" operator="out"/><feColorMatrix values="0 0 0 0 0 0 0 0 0 0 0 0 0 0 0 0 0 0 0.25 0"/><feBlend in2="BackgroundImageFix" result="effect1_dropShadow_2003_2"/><feBlend in="SourceGraphic" in2="effect1_dropShadow_2003_2" result="shape"/></filter><filter id="e" x="17.286" y="-3.214" width="152.429" height="27.429" filterUnits="userSpaceOnUse" color-interpolation-filters="sRGB"><feFlood flood-opacity="0" result="BackgroundImageFix"/><feColorMatrix in="SourceAlpha" values="0 0 0 0 0 0 0 0 0 0 0 0 0 0 0 0 0 0 127 0" result="hardAlpha"/><feOffset/><feGaussianBlur stdDeviation="2.857"/><feComposite in2="hardAlpha" operator="out"/><feColorMatrix values="0 0 0 0 0 0 0 0 0 0 0 0 0 0 0 0 0 0 0.25 0"/><feBlend in2="BackgroundImageFix" result="effect1_dropShadow_2003_2"/><feBlend in="SourceGraphic" in2="effect1_dropShadow_2003_2" result="shape"/></filter><linearGradient id="f" x1="0" y1="10.5" x2="169" y2="10.5" gradientUnits="userSpaceOnUse"><stop stop-color="#59BC7B"/><stop offset="1" stop-color="#C5DE98"/></linearGradient></defs></svg>