<svg xmlns="http://www.w3.org/2000/svg" width="165" height="21" fill="none"><g clip-path="url(#a)"><rect width="165" height="21" fill="#000" rx="5"/><g filter="url(#b)"><g clip-path="url(#c)"><g clip-path="url(#d)"><path fill="#fff" d="M13.17 2.5A7.86 7.86 0 0 0 7.22 5a7.3 7.3 0 0 0-1.45 2.07A7.57 7.57 0 0 0 5 10.51c0 .95.11 1.67.4 2.51.16.5.51 1.27.78 1.69a8.2 8.2 0 0 0 5.9 3.76c.3.03 1.7.04 1.84.01.13-.03.15.07-.17-1.13l-.24-.92-.68-.04a5.67 5.67 0 0 1-4.32-2.04 25.03 25.03 0 0 1 2.41-1.42c.03 0 .34.3.71.66l.67.64 1.38-.28 1.37-.29.98-.98a29 29 0 0 0 1-1.01c0-.06-.29-1.09-.32-1.14a10.83 10.83 0 0 0-1.65.39l-.31.1-.36.35-.35.36-.62.06-.62.05-.35-.33a1.8 1.8 0 0 1-.64-1.14l-.08-.4.28-.38c.46-.6.46-.6.98-.73.26-.07.43-.13.55-.22.09-.06.43-.38.76-.71l.6-.6-.47-.47-.46-.46-1.3.36-1.32.35c-.02 0-1.48 1.65-1.75 1.98l-.2.23.2.69c.1.37.2.77.2.9l.02.2-.23.15c-.24.15-1.48.86-1.89 1.08-.24.14-.25.14-.3.07a2.8 2.8 0 0 1-.2-.69 8.41 8.41 0 0 1 0-2.48 5.9 5.9 0 0 1 5.27-4.62c.3-.02.52-.06.52-.07.04-.11.34-2 .32-2.03l-.14-.02Zm2.45.45c-.13 0-.2.07-.25.25-.04.16-.3 1.62-.3 1.68 0 .03.06.08.14.1.76.3 1.44.76 2 1.34a5.59 5.59 0 0 1 1.7 4.17c0 .71 0 .85-.06 1.15a6.25 6.25 0 0 1-2.09 3.43 7.4 7.4 0 0 1-1.13.76c-.07.02-.07.04-.05.18.02.12.43 1.7.47 1.85l.04.04a8.05 8.05 0 0 0 4.84-8.53 7.96 7.96 0 0 0-3.82-5.72 7.96 7.96 0 0 0-1.5-.7h.01Z"/></g></g></g><g filter="url(#e)"><path fill="#E8E8E8" d="M24.84 15.5h-1.52l3.4-9.45h1.65l3.4 9.45h-1.5l-2.68-7.74h-.08l-2.67 7.74Zm.25-3.7H30V13h-4.9v-1.2Zm13.12-3.4-2.57 7.1h-1.48l-2.58-7.1h1.49l1.8 5.47h.06l1.8-5.46h1.48Zm3.16 7.26a2.9 2.9 0 0 1-1.22-.25 2.05 2.05 0 0 1-.87-.74 2.1 2.1 0 0 1-.31-1.17c0-.4.08-.73.23-1 .15-.25.36-.45.62-.6.27-.16.56-.27.88-.35.32-.07.65-.13.99-.17.42-.05.77-.1 1.03-.12.27-.04.46-.09.58-.16a.4.4 0 0 0 .18-.36v-.04c0-.4-.11-.71-.34-.93-.23-.23-.56-.34-1-.34a1.66 1.66 0 0 0-1.65.99l-1.3-.3a2.5 2.5 0 0 1 1.7-1.62 4.02 4.02 0 0 1 2.12-.08c.32.06.62.18.9.36a2 2 0 0 1 .69.75c.18.32.26.74.26 1.26v4.71h-1.34v-.97h-.06a2.05 2.05 0 0 1-1.09.96c-.28.11-.61.17-1 .17Zm.3-1.11c.38 0 .7-.08.97-.23a1.58 1.58 0 0 0 .84-1.38v-.91a.72.72 0 0 1-.28.14 58.6 58.6 0 0 1-1.42.24c-.27.03-.52.09-.74.17-.22.08-.4.2-.52.34a.87.87 0 0 0-.2.6c0 .34.13.6.38.77.25.17.57.26.97.26Zm5.03.95V8.4h1.38v7.1H46.7Zm.7-8.19a.88.88 0 0 1-.62-.24.78.78 0 0 1-.25-.58c0-.22.08-.42.25-.58a.87.87 0 0 1 .62-.24c.24 0 .45.08.61.24.18.16.26.36.26.58 0 .23-.08.42-.26.58a.86.86 0 0 1-.61.24Zm3.92-1.26v9.45h-1.38V6.05h1.38Zm3.92 9.6a2.9 2.9 0 0 1-1.22-.24 2.05 2.05 0 0 1-.86-.74 2.1 2.1 0 0 1-.31-1.17c0-.4.07-.73.23-1 .15-.25.36-.45.62-.6a3 3 0 0 1 .88-.35c.32-.07.65-.13.98-.17.43-.05.77-.1 1.04-.12.26-.04.46-.09.58-.16a.4.4 0 0 0 .18-.36v-.04c0-.4-.12-.71-.35-.93-.22-.23-.56-.34-1-.34a1.66 1.66 0 0 0-1.65.99l-1.3-.3a2.5 2.5 0 0 1 1.7-1.62 4.02 4.02 0 0 1 2.13-.08c.32.06.62.18.9.36a2 2 0 0 1 .68.75c.18.32.27.74.27 1.26v4.71H57.4v-.97h-.05c-.1.18-.23.35-.4.53-.18.17-.41.31-.7.43-.27.11-.6.17-1 .17Zm.3-1.1c.38 0 .7-.08.98-.23a1.58 1.58 0 0 0 .84-1.38v-.91a.72.72 0 0 1-.29.14c-.13.04-.3.07-.47.1a58.06 58.06 0 0 1-.95.14c-.27.03-.51.09-.73.17-.22.08-.4.2-.53.34a.87.87 0 0 0-.2.6c0 .34.13.6.39.77.25.17.57.26.96.26Zm5.15.95V6.05h1.38v3.5h.08c.08-.14.2-.31.35-.5.15-.2.36-.37.63-.51a2.2 2.2 0 0 1 1.06-.22A2.77 2.77 0 0 1 66.78 10c.26.55.39 1.2.39 1.97 0 .76-.13 1.42-.39 1.97a2.73 2.73 0 0 1-2.58 1.7c-.43 0-.78-.07-1.05-.22a2 2 0 0 1-.64-.5c-.15-.2-.27-.37-.36-.52h-.11v1.1h-1.35Zm1.35-3.55c0 .5.08.94.22 1.32.14.37.35.67.63.88.27.2.6.31 1 .31.42 0 .76-.1 1.04-.33.27-.22.48-.52.63-.9.14-.38.21-.8.21-1.28 0-.46-.07-.88-.21-1.26a1.93 1.93 0 0 0-.63-.88 1.64 1.64 0 0 0-1.04-.32c-.4 0-.73.1-1.01.3-.28.21-.48.5-.63.87-.14.37-.2.8-.2 1.3Zm8.06-5.9v9.45h-1.38V6.05h1.38Zm4.91 9.6c-.7 0-1.3-.16-1.8-.45-.5-.3-.9-.73-1.17-1.27a4.3 4.3 0 0 1-.4-1.93c0-.73.13-1.37.4-1.92.28-.55.66-.99 1.15-1.3a3.47 3.47 0 0 1 2.89-.27 2.82 2.82 0 0 1 1.71 1.73c.18.45.26 1 .26 1.64v.49h-5.63v-1.03h4.28c0-.37-.07-.69-.22-.97a1.68 1.68 0 0 0-1.56-.91c-.39 0-.72.1-1.01.28-.29.2-.51.44-.67.74-.15.3-.23.63-.23.99v.8c0 .48.08.88.25 1.21.17.33.4.59.7.76.3.18.66.26 1.06.26.27 0 .5-.03.72-.1a1.48 1.48 0 0 0 .92-.9l1.3.23a2.62 2.62 0 0 1-1.56 1.68c-.41.15-.87.23-1.39.23Zm11 0a3.08 3.08 0 0 1-2.9-1.74 4.24 4.24 0 0 1-.4-1.92c0-.74.13-1.38.4-1.93a3.08 3.08 0 0 1 2.9-1.74c.67 0 1.25.15 1.74.45.5.3.88.74 1.16 1.29.27.55.4 1.2.4 1.93s-.13 1.37-.4 1.92a3.08 3.08 0 0 1-2.9 1.73Zm0-1.17c.44 0 .8-.11 1.08-.34a2 2 0 0 0 .62-.9 3.75 3.75 0 0 0 .01-2.5 2.03 2.03 0 0 0-.63-.92 1.64 1.64 0 0 0-1.07-.35c-.44 0-.8.12-1.08.35-.29.23-.5.53-.64.92a3.81 3.81 0 0 0 0 2.49c.14.38.35.68.64.91.28.23.64.34 1.08.34Zm6.23-3.19v4.21h-1.38V8.4h1.32v1.16h.09c.16-.37.42-.67.77-.9.35-.23.79-.34 1.32-.34.48 0 .9.1 1.27.3.36.2.65.5.85.9.2.4.3.88.3 1.47v4.51H95.4v-4.34c0-.52-.14-.92-.4-1.2-.27-.3-.64-.45-1.1-.45-.33 0-.61.07-.86.21a1.5 1.5 0 0 0-.59.6c-.14.27-.21.6-.21.97Z"/><path fill="#fff" d="M100.72 6.05h2.83l2.4 5.85h.1l2.4-5.85h2.84v9.45h-2.23V9.7h-.08l-2.27 5.74h-1.42l-2.27-5.78h-.08v5.84h-2.22V6.05Zm15.3 9.58a3.9 3.9 0 0 1-1.92-.45 3.18 3.18 0 0 1-1.23-1.29 4.09 4.09 0 0 1-.43-1.91c0-.73.14-1.37.43-1.92.29-.55.7-.98 1.23-1.28a3.8 3.8 0 0 1 1.92-.46c.75 0 1.39.15 1.92.46.53.3.95.73 1.23 1.28.29.55.44 1.19.44 1.92 0 .72-.15 1.36-.44 1.91-.28.55-.7.98-1.23 1.29a3.8 3.8 0 0 1-1.92.45Zm.02-1.7a1 1 0 0 0 .68-.25c.2-.17.34-.4.43-.7a3.23 3.23 0 0 0 0-2.05c-.1-.3-.24-.53-.43-.7a1 1 0 0 0-.68-.24c-.28 0-.52.08-.71.25-.2.16-.34.4-.44.69-.1.3-.15.64-.15 1.03 0 .4.05.73.15 1.03.1.3.25.52.44.7.19.16.43.24.7.24Zm7.31 1.67a2.61 2.61 0 0 1-2.45-1.62 4.71 4.71 0 0 1-.38-2.02c0-.83.13-1.52.4-2.06.26-.54.6-.94 1.03-1.2a2.66 2.66 0 0 1 2.35-.19c.26.13.48.29.65.49.18.2.3.4.4.62h.04V6.05h2.26v9.45h-2.23v-1.15h-.07a2.18 2.18 0 0 1-1.07 1.08c-.26.11-.57.17-.93.17Zm.79-1.76c.27 0 .5-.07.7-.23.2-.16.34-.38.45-.66.1-.28.15-.61.15-1a3 3 0 0 0-.15-1c-.1-.28-.26-.5-.45-.64a1.1 1.1 0 0 0-.7-.23c-.28 0-.52.08-.72.23-.19.15-.34.37-.44.65-.1.28-.15.61-.15 1 0 .38.06.7.16 1 .1.27.24.5.44.65.19.16.43.23.7.23Zm4.94 1.66V8.4h2.19v1.3h.07c.13-.47.34-.81.64-1.04a1.6 1.6 0 0 1 1.02-.35 2.33 2.33 0 0 1 .63.09v1.96a3.77 3.77 0 0 0-.89-.12c-.26 0-.5.06-.72.18-.22.11-.38.28-.5.5-.13.2-.19.45-.19.73v3.85h-2.25Zm5.47 0V8.4h2.26v7.1h-2.26Zm1.13-7.92c-.32 0-.59-.1-.82-.31a1.01 1.01 0 0 1-.34-.77 1 1 0 0 1 .34-.75c.23-.22.5-.32.82-.32.32 0 .6.1.82.32a1 1 0 0 1 .34.75c0 .3-.12.56-.34.77-.23.2-.5.31-.82.31Zm4.82 3.88v4.04h-2.26V8.4h2.15v1.31h.08a2 2 0 0 1 .8-1.02 2.4 2.4 0 0 1 1.35-.37c.5 0 .94.1 1.3.33.37.23.66.54.86.94.2.4.3.86.3 1.39v4.52h-2.25v-4.08c0-.39-.1-.7-.3-.92-.2-.22-.48-.33-.84-.33-.24 0-.44.05-.63.15-.18.1-.31.25-.41.44-.1.2-.15.43-.15.7Zm9.99-3.05v1.66H146V8.41h4.48Zm-3.54-1.7h2.26v6.56c0 .14.02.25.06.34a.4.4 0 0 0 .2.18c.09.03.19.05.3.05a1.73 1.73 0 0 0 .5-.07l.34 1.63-.45.11c-.2.05-.43.08-.7.1-.53.02-.98-.05-1.36-.2a1.76 1.76 0 0 1-.86-.7c-.2-.31-.3-.71-.3-1.2v-6.8Zm7.1 4.75v4.04h-2.26V6.05h2.18V9.7h.08c.16-.44.42-.78.79-1.02a2.3 2.3 0 0 1 1.34-.37c.5 0 .93.1 1.3.33.37.22.66.53.86.93.2.4.3.87.3 1.4v4.52h-2.25v-4.08c0-.39-.1-.7-.3-.92-.2-.22-.48-.33-.84-.33-.24 0-.45.05-.63.15-.18.1-.32.25-.42.44-.1.2-.15.43-.15.7Z"/></g></g><rect width="163.8" height="19.8" x=".6" y=".6" stroke="url(#f)" stroke-opacity=".88" stroke-width="1.2" rx="4.4"/><defs><clipPath id="a"><rect width="165" height="21" fill="#fff" rx="5"/></clipPath><clipPath id="c"><path fill="#fff" d="M5 2h17v17H5z"/></clipPath><clipPath id="d"><path fill="#fff" d="M5 2.5h16v16H5z"/></clipPath><filter id="b" width="28.2" height="28.2" x="-.6" y="-3.6" color-interpolation-filters="sRGB" filterUnits="userSpaceOnUse"><feFlood flood-opacity="0" result="BackgroundImageFix"/><feColorMatrix in="SourceAlpha" result="hardAlpha" values="0 0 0 0 0 0 0 0 0 0 0 0 0 0 0 0 0 0 127 0"/><feOffset/><feGaussianBlur stdDeviation="2.8"/><feComposite in2="hardAlpha" operator="out"/><feColorMatrix values="0 0 0 0 0 0 0 0 0 0 0 0 0 0 0 0 0 0 0.25 0"/><feBlend in2="BackgroundImageFix" result="effect1_dropShadow_2008_17"/><feBlend in="SourceGraphic" in2="effect1_dropShadow_2008_17" result="shape"/></filter><filter id="e" width="148.43" height="27.43" x="17.29" y="-3.21" color-interpolation-filters="sRGB" filterUnits="userSpaceOnUse"><feFlood flood-opacity="0" result="BackgroundImageFix"/><feColorMatrix in="SourceAlpha" result="hardAlpha" values="0 0 0 0 0 0 0 0 0 0 0 0 0 0 0 0 0 0 127 0"/><feOffset/><feGaussianBlur stdDeviation="2.86"/><feComposite in2="hardAlpha" operator="out"/><feColorMatrix values="0 0 0 0 0 0 0 0 0 0 0 0 0 0 0 0 0 0 0.25 0"/><feBlend in2="BackgroundImageFix" result="effect1_dropShadow_2008_17"/><feBlend in="SourceGraphic" in2="effect1_dropShadow_2008_17" result="shape"/></filter><linearGradient id="f" x1="0" x2="165" y1="10.5" y2="10.5" gradientUnits="userSpaceOnUse"><stop stop-color="#14DA6A"/><stop offset="1" stop-color="#7EE3AA"/></linearGradient></defs></svg>