<svg width="165" height="21" viewBox="0 0 165 21" fill="none" xmlns="http://www.w3.org/2000/svg">
<g clip-path="url(#clip0_2008_17)">
<rect width="165" height="21" rx="5" fill="black"/>
<g filter="url(#filter0_d_2008_17)">
<g clip-path="url(#clip1_2008_17)">
<g clip-path="url(#clip2_2008_17)">
<path d="M13.1679 2.50269C12.057 2.47326 10.9525 2.6797 9.92735 3.10836C8.90224 3.53703 7.97987 4.17815 7.22121 4.98935C6.62258 5.59151 6.13308 6.29304 5.77454 7.06269C5.24852 8.13441 4.98353 9.31519 5.00121 10.5087C5.00121 11.4554 5.11454 12.1754 5.40121 13.022C5.56121 13.528 5.91454 14.288 6.18121 14.708C6.82646 15.7309 7.69005 16.5984 8.71009 17.2484C9.73012 17.8983 10.8813 18.3146 12.0812 18.4674C12.3745 18.5007 13.7745 18.514 13.9212 18.4807C14.0545 18.454 14.0679 18.5474 13.7479 17.3474L13.5079 16.434L12.8345 16.394C11.5823 16.3861 10.3679 15.9641 9.38121 15.194C9.04661 14.9654 8.75351 14.6813 8.51454 14.354C8.51454 14.3207 8.74121 14.1674 9.00787 14.0207C9.6316 13.6307 10.2722 13.2683 10.9279 12.9347C10.9479 12.9347 11.2612 13.2347 11.6345 13.588L12.3012 14.2347L13.6812 13.948L15.0545 13.6614L16.0345 12.6814C16.5679 12.148 17.0212 11.6814 17.0212 11.668C17.0212 11.608 16.7412 10.5814 16.7145 10.5347C16.6879 10.4947 16.5812 10.5147 16.0345 10.6547C15.6812 10.7414 15.2345 10.8547 15.0679 10.9214L14.7479 11.0214L14.3945 11.3747L14.0412 11.728L13.4212 11.7947L12.8012 11.8414L12.4545 11.508C12.1073 11.2233 11.879 10.8191 11.8145 10.3747L11.7279 9.97469L12.0145 9.59469C12.4679 8.99469 12.4679 8.99469 12.9879 8.86135C13.2545 8.79469 13.4212 8.72802 13.5412 8.64135C13.6279 8.57535 13.9745 8.25535 14.3012 7.92869L14.9012 7.32869L14.4345 6.86202L13.9679 6.39535L12.6679 6.75535C11.9545 6.95535 11.3612 7.10869 11.3545 7.10869C11.3345 7.10869 9.86787 8.76202 9.60121 9.08869L9.40787 9.32202L9.59454 10.0087C9.70121 10.382 9.79454 10.782 9.80121 10.902L9.82121 11.102L9.59454 11.2554C9.34787 11.4087 8.11454 12.122 7.70121 12.342C7.46121 12.4754 7.45454 12.4754 7.40787 12.4087C7.35454 12.342 7.25454 12.0087 7.19454 11.722C7.07454 11.1487 7.08121 9.88869 7.20787 9.23535C7.47584 8.00318 8.13204 6.88944 9.08004 6.05784C10.028 5.22625 11.2178 4.72065 12.4745 4.61535C12.7612 4.59535 12.9879 4.56202 12.9945 4.54869C13.0345 4.43535 13.3279 2.54935 13.3079 2.52269C13.3012 2.50935 13.2412 2.50935 13.1745 2.50269H13.1679ZM15.6212 2.94935C15.4879 2.94935 15.4212 3.01602 15.3745 3.20269C15.3345 3.35602 15.0679 4.81602 15.0679 4.88269C15.0679 4.90935 15.1345 4.95602 15.2145 4.98935C15.9666 5.28681 16.6462 5.74141 17.2079 6.32269C17.8696 6.95917 18.3641 7.7489 18.6479 8.62202C18.8647 9.21915 18.9555 9.85473 18.9145 10.4887C18.9145 11.202 18.9145 11.3354 18.8479 11.642C18.65 12.5569 18.249 13.4156 17.6745 14.1547C17.4612 14.4214 17.0212 14.8614 16.7612 15.0747C16.5079 15.288 15.7345 15.808 15.6279 15.8347C15.5612 15.8547 15.5612 15.8747 15.5812 16.008C15.6012 16.128 16.0079 17.7147 16.0479 17.8614L16.0879 17.9014C17.3685 17.3636 18.4879 16.5038 19.3373 15.4056C20.1866 14.3075 20.7369 13.0083 20.9345 11.6347C21.0212 11.1214 21.0212 9.91469 20.9345 9.36802C20.7657 8.19033 20.335 7.06537 19.6739 6.07577C19.0129 5.08617 18.1384 4.25706 17.1145 3.64935C16.6479 3.36935 15.7479 2.94269 15.6145 2.94269L15.6212 2.94935Z" fill="white"/>
</g>
</g>
</g>
<g filter="url(#filter1_d_2008_17)">
<path d="M24.8374 15.5H23.3232L26.7255 6.04545H28.3736L31.7759 15.5H30.2617L27.5888 7.76278H27.5149L24.8374 15.5ZM25.0913 11.7976H30.0032V12.9979H25.0913V11.7976ZM38.2078 8.40909L35.6364 15.5H34.1592L31.5832 8.40909H33.0651L34.8609 13.8658H34.9347L36.7259 8.40909H38.2078ZM41.3655 15.657C40.9162 15.657 40.5099 15.5739 40.1467 15.4077C39.7836 15.2384 39.4958 14.9937 39.2835 14.6736C39.0742 14.3536 38.9695 13.9612 38.9695 13.4964C38.9695 13.0964 39.0465 12.767 39.2004 12.5085C39.3542 12.25 39.562 12.0453 39.8236 11.8945C40.0852 11.7437 40.3776 11.6299 40.7007 11.5529C41.0239 11.476 41.3532 11.4175 41.6886 11.3775C42.1134 11.3282 42.4581 11.2882 42.7227 11.2575C42.9874 11.2236 43.1798 11.1697 43.2998 11.0959C43.4198 11.022 43.4798 10.902 43.4798 10.7358V10.7035C43.4798 10.3003 43.366 9.98792 43.1382 9.76633C42.9136 9.54474 42.5781 9.43395 42.1318 9.43395C41.6671 9.43395 41.3009 9.53705 41.0331 9.74325C40.7684 9.94638 40.5853 10.1726 40.4837 10.4219L39.1865 10.1264C39.3404 9.69555 39.5651 9.34777 39.8605 9.08309C40.1591 8.81534 40.5022 8.62145 40.89 8.50142C41.2778 8.37831 41.6856 8.31676 42.1134 8.31676C42.3965 8.31676 42.6966 8.35061 43.0136 8.41832C43.3337 8.48295 43.6322 8.60298 43.9092 8.77841C44.1892 8.95383 44.4185 9.20466 44.597 9.53089C44.7755 9.85405 44.8648 10.2741 44.8648 10.7912V15.5H43.5168V14.5305H43.4614C43.3721 14.709 43.2382 14.8845 43.0597 15.0568C42.8812 15.2292 42.652 15.3723 42.3719 15.4861C42.0918 15.6 41.7564 15.657 41.3655 15.657ZM41.6656 14.549C42.0472 14.549 42.3734 14.4736 42.6443 14.3228C42.9182 14.172 43.1259 13.975 43.2675 13.7319C43.4121 13.4857 43.4845 13.2225 43.4845 12.9425V12.0284C43.4352 12.0776 43.3398 12.1238 43.1982 12.1669C43.0597 12.2069 42.9012 12.2423 42.7227 12.2731C42.5442 12.3008 42.3703 12.3269 42.2011 12.3516C42.0318 12.3731 41.8902 12.3916 41.7764 12.407C41.5086 12.4408 41.2639 12.4977 41.0423 12.5778C40.8238 12.6578 40.6484 12.7732 40.5161 12.924C40.3868 13.0717 40.3222 13.2687 40.3222 13.5149C40.3222 13.8565 40.4484 14.1151 40.7007 14.2905C40.9531 14.4628 41.2747 14.549 41.6656 14.549ZM46.7033 15.5V8.40909H48.0836V15.5H46.7033ZM47.4004 7.31498C47.1603 7.31498 46.9541 7.23497 46.7818 7.07493C46.6125 6.91181 46.5279 6.71792 46.5279 6.49325C46.5279 6.26551 46.6125 6.07161 46.7818 5.91158C46.9541 5.74846 47.1603 5.6669 47.4004 5.6669C47.6404 5.6669 47.8451 5.74846 48.0144 5.91158C48.1867 6.07161 48.2729 6.26551 48.2729 6.49325C48.2729 6.71792 48.1867 6.91181 48.0144 7.07493C47.8451 7.23497 47.6404 7.31498 47.4004 7.31498ZM51.3209 6.04545V15.5H49.9406V6.04545H51.3209ZM55.2415 15.657C54.7921 15.657 54.3859 15.5739 54.0227 15.4077C53.6596 15.2384 53.3718 14.9937 53.1594 14.6736C52.9502 14.3536 52.8455 13.9612 52.8455 13.4964C52.8455 13.0964 52.9225 12.767 53.0763 12.5085C53.2302 12.25 53.438 12.0453 53.6996 11.8945C53.9612 11.7437 54.2535 11.6299 54.5767 11.5529C54.8998 11.476 55.2292 11.4175 55.5646 11.3775C55.9893 11.3282 56.334 11.2882 56.5987 11.2575C56.8634 11.2236 57.0557 11.1697 57.1758 11.0959C57.2958 11.022 57.3558 10.902 57.3558 10.7358V10.7035C57.3558 10.3003 57.2419 9.98792 57.0142 9.76633C56.7895 9.54474 56.4541 9.43395 56.0078 9.43395C55.5431 9.43395 55.1768 9.53705 54.9091 9.74325C54.6444 9.94638 54.4613 10.1726 54.3597 10.4219L53.0625 10.1264C53.2164 9.69555 53.441 9.34777 53.7365 9.08309C54.035 8.81534 54.3782 8.62145 54.766 8.50142C55.1538 8.37831 55.5615 8.31676 55.9893 8.31676C56.2725 8.31676 56.5726 8.35061 56.8895 8.41832C57.2096 8.48295 57.5082 8.60298 57.7851 8.77841C58.0652 8.95383 58.2945 9.20466 58.473 9.53089C58.6515 9.85405 58.7408 10.2741 58.7408 10.7912V15.5H57.3927V14.5305H57.3373C57.2481 14.709 57.1142 14.8845 56.9357 15.0568C56.7572 15.2292 56.5279 15.3723 56.2479 15.4861C55.9678 15.6 55.6323 15.657 55.2415 15.657ZM55.5415 14.549C55.9232 14.549 56.2494 14.4736 56.5202 14.3228C56.7941 14.172 57.0019 13.975 57.1435 13.7319C57.2881 13.4857 57.3604 13.2225 57.3604 12.9425V12.0284C57.3112 12.0776 57.2158 12.1238 57.0742 12.1669C56.9357 12.2069 56.7772 12.2423 56.5987 12.2731C56.4202 12.3008 56.2463 12.3269 56.077 12.3516C55.9078 12.3731 55.7662 12.3916 55.6523 12.407C55.3846 12.4408 55.1399 12.4977 54.9183 12.5778C54.6998 12.6578 54.5244 12.7732 54.392 12.924C54.2628 13.0717 54.1981 13.2687 54.1981 13.5149C54.1981 13.8565 54.3243 14.1151 54.5767 14.2905C54.8291 14.4628 55.1507 14.549 55.5415 14.549ZM60.6901 15.5V6.04545H62.0704V9.55859H62.1535C62.2335 9.41086 62.3489 9.24005 62.4997 9.04616C62.6505 8.85227 62.8598 8.683 63.1276 8.53835C63.3953 8.39062 63.7492 8.31676 64.1894 8.31676C64.7618 8.31676 65.2727 8.46141 65.722 8.75071C66.1714 9.04001 66.5237 9.45703 66.7792 10.0018C67.0377 10.5465 67.167 11.2021 67.167 11.9684C67.167 12.7347 67.0393 13.3918 66.7838 13.9396C66.5284 14.4844 66.1775 14.9045 65.7313 15.1999C65.285 15.4923 64.7756 15.6385 64.2032 15.6385C63.7723 15.6385 63.4199 15.5662 63.146 15.4215C62.8752 15.2769 62.6628 15.1076 62.509 14.9137C62.3551 14.7198 62.2366 14.5475 62.1535 14.3967H62.0381V15.5H60.6901ZM62.0427 11.9545C62.0427 12.4531 62.115 12.8901 62.2597 13.2656C62.4043 13.6411 62.6136 13.935 62.8875 14.1474C63.1614 14.3566 63.4969 14.4613 63.8939 14.4613C64.3063 14.4613 64.651 14.352 64.928 14.1335C65.205 13.9119 65.4143 13.6119 65.5558 13.2333C65.7005 12.8548 65.7728 12.4285 65.7728 11.9545C65.7728 11.4867 65.702 11.0666 65.5604 10.6942C65.422 10.3218 65.2127 10.0279 64.9326 9.8125C64.6556 9.59706 64.3094 9.48934 63.8939 9.48934C63.4938 9.48934 63.1553 9.59245 62.8783 9.79865C62.6044 10.0049 62.3966 10.2926 62.255 10.6619C62.1135 11.0312 62.0427 11.4621 62.0427 11.9545ZM70.0973 6.04545V15.5H68.717V6.04545H70.0973ZM75.0104 15.6431C74.3117 15.6431 73.7101 15.4938 73.2053 15.1953C72.7037 14.8937 72.3159 14.4705 72.042 13.9258C71.7711 13.378 71.6357 12.7363 71.6357 12.0007C71.6357 11.2744 71.7711 10.6342 72.042 10.0803C72.3159 9.52628 72.6975 9.09387 73.1869 8.78302C73.6793 8.47218 74.2548 8.31676 74.9134 8.31676C75.3135 8.31676 75.7013 8.38293 76.0768 8.51527C76.4523 8.64761 76.7893 8.85535 77.0878 9.13849C77.3863 9.42164 77.6218 9.78942 77.7941 10.2418C77.9665 10.6912 78.0526 11.2375 78.0526 11.8807V12.37H72.4159V11.3359H76.7C76.7 10.9728 76.6261 10.6512 76.4784 10.3711C76.3307 10.0879 76.1229 9.86482 75.8552 9.7017C75.5905 9.53859 75.2797 9.45703 74.9227 9.45703C74.5349 9.45703 74.1963 9.55244 73.907 9.74325C73.6208 9.93099 73.3992 10.1772 73.2423 10.4819C73.0884 10.7835 73.0114 11.1113 73.0114 11.4652V12.2731C73.0114 12.747 73.0945 13.1502 73.2607 13.4826C73.43 13.815 73.6654 14.0689 73.967 14.2443C74.2687 14.4167 74.621 14.5028 75.0242 14.5028C75.2858 14.5028 75.5243 14.4659 75.7398 14.392C75.9552 14.3151 76.1414 14.2012 76.2984 14.0504C76.4553 13.8996 76.5754 13.7134 76.6585 13.4918L77.9649 13.7273C77.8603 14.112 77.6725 14.449 77.4017 14.7383C77.1339 15.0245 76.7969 15.2476 76.3907 15.4077C75.9875 15.5646 75.5274 15.6431 75.0104 15.6431ZM86.0114 15.6431C85.3467 15.6431 84.7665 15.4908 84.271 15.1861C83.7755 14.8814 83.3908 14.4551 83.1169 13.9073C82.843 13.3595 82.706 12.7193 82.706 11.9869C82.706 11.2513 82.843 10.6081 83.1169 10.0572C83.3908 9.50627 83.7755 9.07848 84.271 8.77379C84.7665 8.4691 85.3467 8.31676 86.0114 8.31676C86.6762 8.31676 87.2563 8.4691 87.7518 8.77379C88.2473 9.07848 88.6321 9.50627 88.906 10.0572C89.1799 10.6081 89.3168 11.2513 89.3168 11.9869C89.3168 12.7193 89.1799 13.3595 88.906 13.9073C88.6321 14.4551 88.2473 14.8814 87.7518 15.1861C87.2563 15.4908 86.6762 15.6431 86.0114 15.6431ZM86.016 14.4844C86.4469 14.4844 86.8039 14.3705 87.0871 14.1428C87.3702 13.915 87.5795 13.6119 87.7149 13.2333C87.8534 12.8548 87.9227 12.4377 87.9227 11.9822C87.9227 11.5298 87.8534 11.1143 87.7149 10.7358C87.5795 10.3542 87.3702 10.0479 87.0871 9.81711C86.8039 9.58629 86.4469 9.47088 86.016 9.47088C85.5821 9.47088 85.222 9.58629 84.9358 9.81711C84.6527 10.0479 84.4418 10.3542 84.3033 10.7358C84.1679 11.1143 84.1002 11.5298 84.1002 11.9822C84.1002 12.4377 84.1679 12.8548 84.3033 13.2333C84.4418 13.6119 84.6527 13.915 84.9358 14.1428C85.222 14.3705 85.5821 14.4844 86.016 14.4844ZM92.2379 11.2898V15.5H90.8576V8.40909H92.1825V9.56321H92.2702C92.4333 9.18773 92.6888 8.88612 93.0366 8.65838C93.3874 8.43063 93.829 8.31676 94.3615 8.31676C94.8447 8.31676 95.2679 8.41832 95.631 8.62145C95.9942 8.82149 96.2758 9.12003 96.4758 9.51704C96.6759 9.91406 96.7759 10.4049 96.7759 10.9897V15.5H95.3956V11.1559C95.3956 10.6419 95.2617 10.2403 94.9939 9.95099C94.7262 9.65862 94.3584 9.51243 93.8906 9.51243C93.5705 9.51243 93.2858 9.58167 93.0366 9.72017C92.7903 9.85866 92.5949 10.0618 92.4503 10.3295C92.3087 10.5942 92.2379 10.9143 92.2379 11.2898Z" fill="#E8E8E8"/>
<path d="M100.716 6.04545H103.545L105.946 11.8991H106.057L108.457 6.04545H111.287V15.5H109.062V9.69247H108.984L106.712 15.44H105.29L103.019 9.66015H102.941V15.5H100.716V6.04545ZM116.023 15.6339C115.278 15.6339 114.638 15.4815 114.102 15.1768C113.57 14.8691 113.159 14.4413 112.87 13.8935C112.583 13.3426 112.44 12.704 112.44 11.9776C112.44 11.2482 112.583 10.6096 112.87 10.0618C113.159 9.51089 113.57 9.08309 114.102 8.77841C114.638 8.47064 115.278 8.31676 116.023 8.31676C116.767 8.31676 117.406 8.47064 117.938 8.77841C118.474 9.08309 118.885 9.51089 119.171 10.0618C119.46 10.6096 119.605 11.2482 119.605 11.9776C119.605 12.704 119.46 13.3426 119.171 13.8935C118.885 14.4413 118.474 14.8691 117.938 15.1768C117.406 15.4815 116.767 15.6339 116.023 15.6339ZM116.036 13.9304C116.307 13.9304 116.537 13.8473 116.724 13.6811C116.912 13.5149 117.055 13.2841 117.154 12.9886C117.255 12.6932 117.306 12.3516 117.306 11.9638C117.306 11.5698 117.255 11.2251 117.154 10.9297C117.055 10.6342 116.912 10.4034 116.724 10.2372C116.537 10.071 116.307 9.98792 116.036 9.98792C115.756 9.98792 115.519 10.071 115.326 10.2372C115.135 10.4034 114.989 10.6342 114.887 10.9297C114.788 11.2251 114.739 11.5698 114.739 11.9638C114.739 12.3516 114.788 12.6932 114.887 12.9886C114.989 13.2841 115.135 13.5149 115.326 13.6811C115.519 13.8473 115.756 13.9304 116.036 13.9304ZM123.351 15.6016C122.828 15.6016 122.353 15.4661 121.925 15.1953C121.497 14.9245 121.155 14.5182 120.9 13.9766C120.644 13.4349 120.517 12.7624 120.517 11.9592C120.517 11.1251 120.649 10.4388 120.914 9.90021C121.178 9.36162 121.525 8.96307 121.952 8.70454C122.383 8.44602 122.847 8.31676 123.342 8.31676C123.714 8.31676 124.033 8.38139 124.298 8.51065C124.562 8.63684 124.781 8.79995 124.953 9C125.126 9.20005 125.256 9.40779 125.346 9.62322H125.392V6.04545H127.649V15.5H125.415V14.3505H125.346C125.25 14.569 125.115 14.7737 124.939 14.9645C124.764 15.1553 124.544 15.3092 124.279 15.4261C124.018 15.5431 123.708 15.6016 123.351 15.6016ZM124.136 13.8427C124.41 13.8427 124.644 13.7657 124.838 13.6119C125.032 13.4549 125.181 13.2348 125.286 12.9517C125.39 12.6686 125.443 12.3362 125.443 11.9545C125.443 11.5668 125.39 11.2328 125.286 10.9528C125.184 10.6727 125.035 10.4573 124.838 10.3065C124.644 10.1557 124.41 10.0803 124.136 10.0803C123.856 10.0803 123.619 10.1572 123.425 10.3111C123.231 10.465 123.084 10.6819 122.982 10.962C122.883 11.2421 122.834 11.5729 122.834 11.9545C122.834 12.3362 122.885 12.6686 122.987 12.9517C123.088 13.2348 123.234 13.4549 123.425 13.6119C123.619 13.7657 123.856 13.8427 124.136 13.8427ZM129.077 15.5V8.40909H131.27V9.7017H131.344C131.473 9.2339 131.684 8.88612 131.976 8.65838C132.268 8.42755 132.608 8.31214 132.996 8.31214C133.101 8.31214 133.209 8.31984 133.319 8.33523C133.43 8.34754 133.533 8.36754 133.629 8.39524V10.3572C133.521 10.3203 133.379 10.2911 133.204 10.2695C133.032 10.248 132.878 10.2372 132.742 10.2372C132.475 10.2372 132.233 10.2972 132.018 10.4173C131.805 10.5342 131.637 10.6989 131.514 10.9112C131.394 11.1205 131.334 11.3667 131.334 11.6499V15.5H129.077ZM134.549 15.5V8.40909H136.806V15.5H134.549ZM135.68 7.58274C135.363 7.58274 135.09 7.4781 134.862 7.26882C134.635 7.05646 134.521 6.80102 134.521 6.50248C134.521 6.20703 134.635 5.95466 134.862 5.74538C135.09 5.53302 135.363 5.42685 135.68 5.42685C136 5.42685 136.272 5.53302 136.497 5.74538C136.724 5.95466 136.838 6.20703 136.838 6.50248C136.838 6.80102 136.724 7.05646 136.497 7.26882C136.272 7.4781 136 7.58274 135.68 7.58274ZM140.5 11.456V15.5H138.243V8.40909H140.39V9.71094H140.468C140.625 9.27699 140.893 8.93691 141.271 8.69069C141.65 8.4414 142.101 8.31676 142.624 8.31676C143.122 8.31676 143.555 8.42909 143.921 8.65376C144.29 8.87535 144.577 9.1862 144.78 9.58629C144.986 9.98331 145.088 10.448 145.084 10.9805V15.5H142.827V11.4236C142.83 11.0297 142.73 10.7219 142.527 10.5004C142.327 10.2788 142.048 10.168 141.691 10.168C141.454 10.168 141.245 10.2203 141.064 10.3249C140.885 10.4265 140.747 10.5727 140.648 10.7635C140.553 10.9543 140.503 11.1851 140.5 11.456ZM150.485 8.40909V10.071H146.011V8.40909H150.485ZM146.948 6.71023H149.206V13.2702C149.206 13.4087 149.227 13.5211 149.27 13.6072C149.317 13.6903 149.383 13.7504 149.469 13.7873C149.555 13.8211 149.658 13.8381 149.778 13.8381C149.864 13.8381 149.955 13.8304 150.051 13.815C150.149 13.7965 150.223 13.7811 150.272 13.7688L150.614 15.3984C150.506 15.4292 150.354 15.4677 150.157 15.5138C149.963 15.56 149.731 15.5892 149.46 15.6016C148.93 15.6262 148.476 15.5646 148.098 15.4169C147.722 15.2661 147.435 15.0322 147.235 14.7152C147.038 14.3982 146.942 13.9996 146.948 13.5195V6.71023ZM154.046 11.456V15.5H151.789V6.04545H153.972V9.71094H154.051C154.211 9.27391 154.472 8.93229 154.836 8.68608C155.202 8.43987 155.65 8.31676 156.179 8.31676C156.678 8.31676 157.112 8.42756 157.481 8.64915C157.85 8.86766 158.136 9.17696 158.34 9.57706C158.546 9.97715 158.647 10.445 158.644 10.9805V15.5H156.387V11.4236C156.39 11.0297 156.291 10.7219 156.091 10.5004C155.891 10.2788 155.61 10.168 155.246 10.168C155.01 10.168 154.8 10.2203 154.619 10.3249C154.44 10.4265 154.3 10.5727 154.199 10.7635C154.1 10.9543 154.049 11.1851 154.046 11.456Z" fill="white"/>
</g>
</g>
<rect x="0.6" y="0.6" width="163.8" height="19.8" rx="4.4" stroke="url(#paint0_linear_2008_17)" stroke-opacity="0.88" stroke-width="1.2"/>
<defs>
<filter id="filter0_d_2008_17" x="-0.600282" y="-3.60028" width="28.2006" height="28.2006" filterUnits="userSpaceOnUse" color-interpolation-filters="sRGB">
<feFlood flood-opacity="0" result="BackgroundImageFix"/>
<feColorMatrix in="SourceAlpha" type="matrix" values="0 0 0 0 0 0 0 0 0 0 0 0 0 0 0 0 0 0 127 0" result="hardAlpha"/>
<feOffset/>
<feGaussianBlur stdDeviation="2.80014"/>
<feComposite in2="hardAlpha" operator="out"/>
<feColorMatrix type="matrix" values="0 0 0 0 0 0 0 0 0 0 0 0 0 0 0 0 0 0 0.25 0"/>
<feBlend mode="normal" in2="BackgroundImageFix" result="effect1_dropShadow_2008_17"/>
<feBlend mode="normal" in="SourceGraphic" in2="effect1_dropShadow_2008_17" result="shape"/>
</filter>
<filter id="filter1_d_2008_17" x="17.2857" y="-3.21429" width="148.429" height="27.4286" filterUnits="userSpaceOnUse" color-interpolation-filters="sRGB">
<feFlood flood-opacity="0" result="BackgroundImageFix"/>
<feColorMatrix in="SourceAlpha" type="matrix" values="0 0 0 0 0 0 0 0 0 0 0 0 0 0 0 0 0 0 127 0" result="hardAlpha"/>
<feOffset/>
<feGaussianBlur stdDeviation="2.85714"/>
<feComposite in2="hardAlpha" operator="out"/>
<feColorMatrix type="matrix" values="0 0 0 0 0 0 0 0 0 0 0 0 0 0 0 0 0 0 0.25 0"/>
<feBlend mode="normal" in2="BackgroundImageFix" result="effect1_dropShadow_2008_17"/>
<feBlend mode="normal" in="SourceGraphic" in2="effect1_dropShadow_2008_17" result="shape"/>
</filter>
<linearGradient id="paint0_linear_2008_17" x1="0" y1="10.5" x2="165" y2="10.5" gradientUnits="userSpaceOnUse">
<stop stop-color="#14DA6A"/>
<stop offset="1" stop-color="#7EE3AA"/>
</linearGradient>
<clipPath id="clip0_2008_17">
<rect width="165" height="21" rx="5" fill="white"/>
</clipPath>
<clipPath id="clip1_2008_17">
<rect width="17" height="17" fill="white" transform="translate(5 2)"/>
</clipPath>
<clipPath id="clip2_2008_17">
<rect width="16" height="16" fill="white" transform="translate(5 2.5)"/>
</clipPath>
</defs>
</svg>
