<svg xmlns="http://www.w3.org/2000/svg" width="157" height="21" fill="none" viewBox="0 0 157 21"><g clip-path="url(#a)"><rect width="157" height="21" fill="#000" rx="5"/><g filter="url(#b)"><g fill="#fff" clip-path="url(#c)"><path d="M11.175 4H5v6.175h6.175V4ZM18 4h-6.175v6.175H18V4ZM11.175 10.825H5V17h6.175v-6.175ZM18 10.825h-6.175V17H18v-6.175Z"/></g></g><g filter="url(#d)"><path fill="#E8E8E8" d="M27.437 9.032c-.09-.28-.21-.53-.36-.752a2.303 2.303 0 0 0-1.237-.937 2.84 2.84 0 0 0-.863-.125c-.533 0-1.013.137-1.44.41-.429.275-.767.676-1.016 1.206-.247.526-.37 1.17-.37 1.934 0 .766.125 1.414.374 1.944.25.529.591.93 1.025 1.204.434.274.928.411 1.482.411.514 0 .962-.104 1.343-.313.385-.21.682-.505.891-.887.213-.385.319-.837.319-1.357l.37.07h-2.706v-1.178h3.716v1.076c0 .794-.17 1.483-.508 2.068a3.458 3.458 0 0 1-1.394 1.348c-.59.317-1.268.475-2.031.475-.856 0-1.607-.197-2.253-.59-.643-.395-1.145-.953-1.505-1.676-.36-.727-.54-1.588-.54-2.586 0-.754.105-1.43.314-2.03.21-.601.503-1.11.882-1.529.381-.422.83-.743 1.343-.965a4.205 4.205 0 0 1 1.694-.337c.511 0 .987.076 1.427.226.443.151.837.365 1.182.642A3.632 3.632 0 0 1 28.9 9.032h-1.464Zm6.284 6.611c-.698 0-1.3-.15-1.805-.448a3.037 3.037 0 0 1-1.163-1.27c-.27-.547-.406-1.189-.406-1.924 0-.727.135-1.367.406-1.92a3.155 3.155 0 0 1 1.145-1.298c.492-.31 1.068-.466 1.726-.466.4 0 .788.066 1.164.198.375.133.712.34 1.01.623.3.284.535.651.707 1.104.172.45.259.995.259 1.639v.489h-5.637v-1.034h4.284c0-.363-.074-.685-.222-.965a1.676 1.676 0 0 0-.623-.67 1.741 1.741 0 0 0-.932-.244c-.388 0-.727.095-1.016.286a1.922 1.922 0 0 0-.665.739c-.154.302-.23.63-.23.983v.808c0 .474.082.877.249 1.21.169.332.404.586.706.761.302.173.654.259 1.057.259.262 0 .5-.037.716-.111a1.484 1.484 0 0 0 .919-.9l1.306.235a2.367 2.367 0 0 1-.563 1.011 2.73 2.73 0 0 1-1.011.67 3.784 3.784 0 0 1-1.38.235Zm7.884-7.234v1.108h-3.873V8.409h3.873ZM38.771 6.71h1.38v6.708c0 .268.04.47.12.605.08.132.183.223.31.272.128.046.268.07.42.07.11 0 .207-.008.29-.024.083-.015.148-.027.194-.037l.25 1.14a2.31 2.31 0 0 1-.342.093 2.7 2.7 0 0 1-.554.055 2.429 2.429 0 0 1-1.016-.194 1.742 1.742 0 0 1-.762-.627c-.194-.284-.29-.639-.29-1.067V6.71Zm7.801 8.79V8.41h1.38v7.09h-1.38Zm.697-8.185a.878.878 0 0 1-.618-.24.78.78 0 0 1-.254-.582.77.77 0 0 1 .254-.581.869.869 0 0 1 .618-.245c.24 0 .445.081.614.245.173.16.259.354.259.581a.774.774 0 0 1-.259.582.861.861 0 0 1-.614.24Zm5.85 1.094v1.108h-3.873V8.409h3.874ZM50.286 6.71h1.38v6.708c0 .268.04.47.12.605.08.132.184.223.31.272.13.046.27.07.42.07.11 0 .208-.008.29-.024.084-.015.149-.027.195-.037l.249 1.14a2.702 2.702 0 0 1-.896.148 2.428 2.428 0 0 1-1.015-.194 1.742 1.742 0 0 1-.762-.627c-.194-.284-.29-.639-.29-1.067V6.71Zm11.177 1.7v1.107h-4.007V8.409h4.007Zm-2.909 7.09V7.587c0-.443.097-.81.291-1.103.194-.295.451-.515.771-.66a2.46 2.46 0 0 1 1.043-.222c.277 0 .514.023.711.07.197.043.344.083.439.12l-.323 1.117a6.577 6.577 0 0 0-.25-.065 1.42 1.42 0 0 0-.369-.041c-.335 0-.575.083-.72.249-.142.166-.212.406-.212.72V15.5h-1.38Zm4.333 0V8.41h1.334v1.126h.074c.13-.382.357-.682.683-.9.33-.222.702-.333 1.117-.333a5.903 5.903 0 0 1 .587.032v1.32a2.467 2.467 0 0 0-.296-.05 2.82 2.82 0 0 0-.425-.033 1.8 1.8 0 0 0-.872.208 1.543 1.543 0 0 0-.822 1.39v4.33h-1.38Zm7.722.143c-.665 0-1.245-.152-1.74-.457a3.082 3.082 0 0 1-1.154-1.279c-.274-.547-.411-1.188-.411-1.92 0-.736.137-1.379.41-1.93.275-.55.66-.979 1.155-1.283.495-.305 1.075-.457 1.74-.457s1.245.152 1.74.457c.496.304.88.732 1.155 1.283.274.551.41 1.194.41 1.93 0 .732-.136 1.373-.41 1.92a3.082 3.082 0 0 1-1.154 1.28c-.496.304-1.076.456-1.74.456Zm.005-1.159c.43 0 .788-.114 1.07-.341.284-.228.493-.531.629-.91.138-.378.207-.795.207-1.25 0-.453-.069-.869-.207-1.247a2.03 2.03 0 0 0-.628-.919c-.283-.23-.64-.346-1.071-.346-.434 0-.794.115-1.08.346-.284.23-.495.537-.633.919a3.677 3.677 0 0 0-.203 1.246c0 .456.068.873.203 1.251.138.379.35.682.632.91.287.227.647.341 1.08.341Zm4.841 1.016V8.41h1.325v1.153h.088c.148-.39.39-.695.725-.914.335-.221.737-.332 1.205-.332.474 0 .87.11 1.19.332.324.222.562.526.716.914h.074c.17-.378.439-.68.808-.905.37-.227.81-.341 1.32-.341.644 0 1.168.201 1.575.605.409.403.614 1.01.614 1.823V15.5h-1.38v-4.626c0-.48-.132-.828-.393-1.043a1.427 1.427 0 0 0-.937-.323c-.45 0-.8.138-1.048.415-.25.274-.374.627-.374 1.057v4.52h-1.376v-4.713c0-.385-.12-.694-.36-.928-.24-.234-.552-.351-.937-.351-.262 0-.503.07-.725.208a1.524 1.524 0 0 0-.53.567 1.74 1.74 0 0 0-.2.845V15.5h-1.38Z"/><path fill="#fff" d="M89.716 6.045h2.83l2.4 5.854h.11l2.401-5.854h2.83V15.5h-2.225V9.692h-.078l-2.272 5.748H94.29l-2.27-5.78h-.08v5.84h-2.224V6.045Zm11.997 9.455V8.41h2.257v7.09h-2.257Zm1.131-7.917c-.317 0-.59-.105-.817-.314a1.01 1.01 0 0 1-.342-.767c0-.295.114-.547.342-.757.227-.212.5-.318.817-.318.32 0 .592.106.817.318.227.21.341.462.341.757 0 .299-.114.554-.341.767-.225.21-.497.314-.817.314Zm5.873 8.05c-.748 0-1.39-.153-1.925-.46a3.117 3.117 0 0 1-1.228-1.284c-.286-.551-.429-1.188-.429-1.911 0-.727.143-1.364.429-1.912.289-.55.7-.98 1.232-1.288.536-.307 1.175-.461 1.916-.461.656 0 1.227.118 1.713.355.489.237.871.573 1.145 1.007.277.43.423.937.438 1.518h-2.109c-.043-.363-.166-.647-.37-.854-.2-.206-.461-.309-.784-.309-.262 0-.491.074-.688.222-.197.144-.351.36-.462.646-.108.283-.161.634-.161 1.053 0 .418.053.772.161 1.061.111.287.265.504.462.651.197.145.426.217.688.217a1.062 1.062 0 0 0 .955-.526c.105-.176.171-.388.199-.637h2.109c-.021.585-.167 1.095-.438 1.533a2.72 2.72 0 0 1-1.131 1.02c-.483.24-1.057.36-1.722.36Zm4.447-.133V8.41h2.193v1.292h.073c.13-.468.341-.816.633-1.044.292-.23.632-.346 1.02-.346.105 0 .213.008.323.023.111.013.214.033.31.06v1.962a2.18 2.18 0 0 0-.425-.087 3.765 3.765 0 0 0-.462-.033c-.268 0-.509.06-.725.18-.212.117-.38.282-.503.494-.12.21-.18.456-.18.739v3.85h-2.257Zm8.413.134c-.744 0-1.385-.152-1.92-.457a3.155 3.155 0 0 1-1.233-1.284c-.286-.55-.429-1.189-.429-1.915 0-.73.143-1.368.429-1.916.29-.551.7-.979 1.233-1.284.535-.307 1.176-.461 1.92-.461.745 0 1.384.154 1.916.461.536.305.947.733 1.233 1.284.289.548.434 1.186.434 1.916 0 .726-.145 1.365-.434 1.915a3.11 3.11 0 0 1-1.233 1.284c-.532.305-1.171.457-1.916.457Zm.014-1.704c.271 0 .5-.083.688-.249.188-.166.331-.397.429-.692.102-.296.153-.637.153-1.025 0-.394-.051-.739-.153-1.034-.098-.296-.241-.527-.429-.693a1.001 1.001 0 0 0-.688-.25c-.28 0-.517.084-.711.25a1.564 1.564 0 0 0-.438.693c-.099.295-.148.64-.148 1.034 0 .388.049.73.148 1.025.101.295.247.526.438.692.194.166.431.25.711.25Zm10.916-3.356-2.073.056a.78.78 0 0 0-.175-.393.948.948 0 0 0-.374-.272 1.279 1.279 0 0 0-.527-.102 1.34 1.34 0 0 0-.669.157c-.182.105-.271.247-.268.425a.456.456 0 0 0 .166.36c.117.102.325.183.624.245l1.366.258c.708.136 1.234.36 1.579.674.348.314.523.73.526 1.247-.003.486-.148.91-.434 1.27-.283.36-.671.64-1.163.84-.492.196-1.056.295-1.69.295-1.012 0-1.811-.208-2.396-.623-.581-.419-.914-.979-.997-1.68l2.23-.056a.869.869 0 0 0 .383.59c.206.136.469.204.79.204.289 0 .524-.054.706-.162.181-.107.274-.25.277-.429a.454.454 0 0 0-.213-.383c-.138-.099-.355-.176-.65-.231l-1.238-.236c-.711-.129-1.24-.367-1.588-.715-.348-.35-.52-.797-.517-1.339-.003-.474.123-.878.379-1.214.255-.338.618-.597 1.089-.775.471-.179 1.027-.268 1.667-.268.96 0 1.717.201 2.271.605.554.4.86.95.919 1.652Zm4.597 5.06c-.745 0-1.385-.152-1.921-.457a3.152 3.152 0 0 1-1.232-1.284c-.287-.55-.43-1.189-.43-1.915 0-.73.143-1.368.43-1.916.289-.551.7-.979 1.232-1.284.536-.307 1.176-.461 1.921-.461.744 0 1.383.154 1.915.461.536.305.947.733 1.233 1.284.289.548.434 1.186.434 1.916 0 .726-.145 1.365-.434 1.915a3.11 3.11 0 0 1-1.233 1.284c-.532.305-1.171.457-1.915.457Zm.014-1.704c.27 0 .5-.083.687-.249.188-.166.331-.397.43-.692.101-.296.152-.637.152-1.025 0-.394-.051-.739-.152-1.034-.099-.296-.242-.527-.43-.693a.999.999 0 0 0-.687-.25c-.281 0-.518.084-.711.25-.191.166-.337.397-.439.693-.098.295-.148.64-.148 1.034 0 .388.05.73.148 1.025.102.295.248.526.439.692.193.166.43.25.711.25Zm8.755-5.52v1.661h-4.561V8.409h4.561Zm-3.61 7.09V8.049c0-.548.103-1.002.309-1.362a1.95 1.95 0 0 1 .859-.812c.366-.182.789-.273 1.269-.273.314 0 .609.025.886.074.28.046.488.088.624.125l-.36 1.652a1.912 1.912 0 0 0-.305-.069 2.14 2.14 0 0 0-.333-.027c-.264 0-.446.058-.544.175-.099.117-.148.277-.148.48V15.5h-2.257Zm8.698-7.09v1.661h-4.473V8.409h4.473Zm-3.536-1.7h2.257v6.56c0 .139.022.251.065.337a.4.4 0 0 0 .199.18c.086.034.189.051.309.051.086 0 .177-.008.272-.023.099-.018.173-.034.222-.046l.341 1.63c-.107.03-.26.069-.457.115a3.786 3.786 0 0 1-.697.088c-.529.024-.983-.037-1.362-.185a1.767 1.767 0 0 1-.863-.702c-.197-.317-.292-.715-.286-1.195V6.71Z"/></g></g><rect width="155.8" height="19.8" x=".6" y=".6" stroke="url(#e)" stroke-opacity=".88" stroke-width="1.2" rx="4.4"/><defs><clipPath id="a"><rect width="157" height="21" fill="#fff" rx="5"/></clipPath><clipPath id="c"><path fill="#fff" d="M5 4h13v13H5z"/></clipPath><filter id="b" width="24.201" height="24.201" x="-.6" y="-1.6" color-interpolation-filters="sRGB" filterUnits="userSpaceOnUse"><feFlood flood-opacity="0" result="BackgroundImageFix"/><feColorMatrix in="SourceAlpha" result="hardAlpha" values="0 0 0 0 0 0 0 0 0 0 0 0 0 0 0 0 0 0 127 0"/><feOffset/><feGaussianBlur stdDeviation="2.8"/><feComposite in2="hardAlpha" operator="out"/><feColorMatrix values="0 0 0 0 0 0 0 0 0 0 0 0 0 0 0 0 0 0 0.25 0"/><feBlend in2="BackgroundImageFix" result="effect1_dropShadow_2065_37"/><feBlend in="SourceGraphic" in2="effect1_dropShadow_2065_37" result="shape"/></filter><filter id="d" width="143.429" height="27.429" x="14.286" y="-3.214" color-interpolation-filters="sRGB" filterUnits="userSpaceOnUse"><feFlood flood-opacity="0" result="BackgroundImageFix"/><feColorMatrix in="SourceAlpha" result="hardAlpha" values="0 0 0 0 0 0 0 0 0 0 0 0 0 0 0 0 0 0 127 0"/><feOffset/><feGaussianBlur stdDeviation="2.857"/><feComposite in2="hardAlpha" operator="out"/><feColorMatrix values="0 0 0 0 0 0 0 0 0 0 0 0 0 0 0 0 0 0 0.25 0"/><feBlend in2="BackgroundImageFix" result="effect1_dropShadow_2065_37"/><feBlend in="SourceGraphic" in2="effect1_dropShadow_2065_37" result="shape"/></filter><linearGradient id="e" x1="0" x2="157" y1="10.5" y2="10.5" gradientUnits="userSpaceOnUse"><stop stop-color="#F25022"/><stop offset=".33" stop-color="#7FBA00"/><stop offset=".66" stop-color="#00A4EF"/><stop offset="1" stop-color="#FFB900"/></linearGradient></defs></svg>