<svg xmlns="http://www.w3.org/2000/svg" width="159" height="21" fill="none"><g clip-path="url(#a)"><rect width="159" height="21" fill="#000" rx="5"/><g filter="url(#b)"><g clip-path="url(#c)"><path fill="#fff" fill-rule="evenodd" d="M12.98 2.5A8.08 8.08 0 0 0 5 10.7c0 3.63 2.28 6.7 5.45 7.78.4.09.55-.17.55-.39l-.02-1.52c-2.22.49-2.68-.98-2.68-.98-.36-.95-.88-1.2-.88-1.2-.73-.5.05-.5.05-.5.8.06 1.23.85 1.23.85.71 1.25 1.86.9 2.32.68.07-.53.28-.9.5-1.1-1.77-.2-3.63-.9-3.63-4.05 0-.9.32-1.63.82-2.2a3 3 0 0 1 .08-2.17s.67-.22 2.2.84a7.52 7.52 0 0 1 3.98 0c1.52-1.06 2.2-.84 2.2-.84.43 1.12.15 1.96.07 2.17.52.57.82 1.3.82 2.2 0 3.15-1.86 3.84-3.64 4.05.29.25.54.74.54 1.52l-.02 2.25c0 .22.15.48.55.4a8.18 8.18 0 0 0 5.45-7.79 8.07 8.07 0 0 0-7.96-8.2Z" clip-rule="evenodd"/></g></g><g filter="url(#d)"><path fill="#E8E8E8" d="M31.9 9.12h-1.45a2.2 2.2 0 0 0-.86-1.4 2.39 2.39 0 0 0-.74-.38 2.87 2.87 0 0 0-2.31.29 2.8 2.8 0 0 0-1.02 1.2 4.58 4.58 0 0 0-.37 1.94c0 .77.12 1.42.37 1.95s.59.93 1.02 1.2a2.95 2.95 0 0 0 2.3.29c.28-.09.52-.2.74-.37a2.24 2.24 0 0 0 .87-1.39h1.44a3.85 3.85 0 0 1-1.3 2.3c-.33.28-.72.5-1.16.65a4.44 4.44 0 0 1-3.64-.35 4.07 4.07 0 0 1-1.5-1.68 5.71 5.71 0 0 1-.56-2.6c0-1 .19-1.87.56-2.6a4.04 4.04 0 0 1 3.7-2.25c.5 0 .97.07 1.4.21a3.7 3.7 0 0 1 2.04 1.64c.23.4.38.84.46 1.35Zm2.97 2.17v4.21h-1.38V6.05h1.36v3.51h.09c.16-.38.42-.68.76-.9a2.4 2.4 0 0 1 1.34-.34c.48 0 .9.1 1.27.3.37.2.65.5.85.9.2.39.3.88.3 1.47v4.51H38.1v-4.34c0-.52-.14-.93-.4-1.21a1.45 1.45 0 0 0-1.12-.44c-.33 0-.62.07-.88.21a1.5 1.5 0 0 0-.6.6c-.15.27-.22.6-.22.97Zm9.5 4.35c-.7 0-1.3-.15-1.81-.44-.5-.3-.9-.73-1.16-1.27a4.3 4.3 0 0 1-.41-1.93c0-.73.13-1.37.4-1.92.28-.55.66-.99 1.15-1.3a3.47 3.47 0 0 1 2.89-.27 2.82 2.82 0 0 1 1.72 1.73c.17.45.26 1 .26 1.64v.49h-5.64v-1.03h4.28c0-.37-.07-.69-.22-.97a1.67 1.67 0 0 0-1.55-.91c-.4 0-.73.1-1.02.28a2.03 2.03 0 0 0-.89 1.73v.8c0 .48.08.88.24 1.21.17.33.4.59.71.76a2 2 0 0 0 1.06.26c.26 0 .5-.03.71-.1a1.48 1.48 0 0 0 .92-.9l1.3.23a2.54 2.54 0 0 1-1.57 1.68c-.4.15-.86.23-1.38.23Zm7.55 0c-.68 0-1.27-.15-1.77-.46-.5-.32-.87-.75-1.13-1.3a4.32 4.32 0 0 1-.4-1.9c0-.71.13-1.35.4-1.9.28-.55.66-.99 1.15-1.3a3.2 3.2 0 0 1 1.74-.46c.54 0 1.02.1 1.44.3a2.51 2.51 0 0 1 1.49 2.08h-1.35a1.6 1.6 0 0 0-.5-.86 1.5 1.5 0 0 0-1.06-.36c-.38 0-.72.1-1 .3-.3.2-.52.5-.68.86a3.3 3.3 0 0 0-.24 1.31c0 .52.08.97.24 1.34.16.38.38.67.66.88.3.2.63.3 1.02.3.27 0 .5-.04.71-.14.22-.1.4-.24.54-.42.15-.18.26-.4.31-.65h1.35a2.58 2.58 0 0 1-1.45 2.08c-.42.2-.9.3-1.47.3Zm5.66-2.55v-1.68h.23l2.83-3h1.65l-3.22 3.42h-.22l-1.27 1.26Zm-1.27 2.41V6.05h1.38v9.45h-1.38Zm4.48 0-2.54-3.37.95-.96 3.29 4.33h-1.7Zm9.19.14a3.07 3.07 0 0 1-2.9-1.73 4.24 4.24 0 0 1-.4-1.92c0-.74.13-1.38.4-1.93a3.08 3.08 0 0 1 2.9-1.74 3 3 0 0 1 2.89 1.74c.28.55.41 1.2.41 1.93s-.13 1.37-.4 1.92a3.08 3.08 0 0 1-2.9 1.73Zm0-1.16c.43 0 .79-.11 1.07-.34a2 2 0 0 0 .63-.9c.14-.39.2-.8.2-1.26 0-.45-.06-.87-.2-1.24a2.03 2.03 0 0 0-.63-.92 1.64 1.64 0 0 0-1.07-.35c-.43 0-.8.12-1.08.35-.28.23-.5.53-.63.92-.14.37-.2.79-.2 1.24 0 .46.06.87.2 1.25s.35.68.63.91c.29.23.65.34 1.08.34Zm9.34-1.92V8.4h1.38v7.09h-1.36v-1.23h-.07a2.2 2.2 0 0 1-2.12 1.32 2.1 2.1 0 0 1-2.03-1.2c-.2-.4-.3-.89-.3-1.47V8.4h1.38v4.34c0 .49.14.87.4 1.16.27.28.62.43 1.05.43a1.7 1.7 0 0 0 1.41-.78c.17-.27.26-.6.26-1Zm6.54-4.15v1.1H82v-1.1h3.87Zm-2.83-1.7h1.38v6.7c0 .28.04.48.12.61a.6.6 0 0 0 .31.28 1.62 1.62 0 0 0 .71.05l.2-.05.24 1.14a2.7 2.7 0 0 1-1.91-.05 1.74 1.74 0 0 1-.76-.62 1.8 1.8 0 0 1-.29-1.07V6.71Zm10.79 8.93a3.07 3.07 0 0 1-2.9-1.73 4.24 4.24 0 0 1-.4-1.92c0-.74.13-1.38.4-1.93a3.08 3.08 0 0 1 2.9-1.74 3 3 0 0 1 2.89 1.74c.28.55.41 1.2.41 1.93s-.13 1.37-.4 1.92a3.08 3.08 0 0 1-2.9 1.73Zm0-1.16c.43 0 .8-.11 1.07-.34a2 2 0 0 0 .63-.9 3.75 3.75 0 0 0 .01-2.5 2.03 2.03 0 0 0-.64-.92 1.64 1.64 0 0 0-1.07-.35c-.43 0-.79.12-1.08.35-.28.23-.5.53-.63.92a3.81 3.81 0 0 0 0 2.49c.14.38.35.68.63.91.29.23.65.34 1.08.34Zm6.23-3.19v4.21h-1.38V8.4h1.32v1.16h.09c.16-.37.42-.67.76-.9.35-.23.8-.34 1.33-.34.48 0 .9.1 1.27.3.36.2.64.5.84.9.2.4.3.88.3 1.47v4.51h-1.38v-4.34c0-.52-.13-.92-.4-1.2a1.4 1.4 0 0 0-1.1-.45c-.32 0-.6.07-.86.21a1.5 1.5 0 0 0-.58.6 2 2 0 0 0-.21.97Z"/><path fill="#fff" d="M114.92 9.13a1.64 1.64 0 0 0-.6-.9 1.6 1.6 0 0 0-.51-.23c-.2-.05-.4-.08-.63-.08-.46 0-.86.11-1.2.33a2.2 2.2 0 0 0-.76.97c-.18.42-.28.94-.28 1.54 0 .6.1 1.12.27 1.55.17.43.43.75.76.98.33.22.74.34 1.21.34.42 0 .77-.07 1.06-.2.3-.15.52-.34.67-.6.15-.25.22-.54.22-.88l.43.05h-2.3v-1.67h4.07v1.25a4.2 4.2 0 0 1-.54 2.18c-.35.6-.85 1.06-1.47 1.38-.63.33-1.35.49-2.16.49-.9 0-1.7-.2-2.38-.59a4.06 4.06 0 0 1-1.6-1.67 5.5 5.5 0 0 1-.57-2.58c0-.78.12-1.47.35-2.07a4.18 4.18 0 0 1 2.4-2.48 4.8 4.8 0 0 1 1.77-.32c.55 0 1.06.07 1.53.23a4 4 0 0 1 1.26.67 3.33 3.33 0 0 1 1.32 2.32h-2.32Zm4.2 6.37V8.4h2.26v7.1h-2.25Zm1.14-7.92c-.32 0-.6-.1-.82-.31a1.01 1.01 0 0 1-.34-.77 1 1 0 0 1 .34-.75c.23-.22.5-.32.82-.32.32 0 .59.1.81.32a1 1 0 0 1 0 1.52c-.22.2-.5.31-.81.31Zm6.56.83v1.66h-4.47V8.41h4.47Zm-3.53-1.7h2.25v6.56c0 .14.02.25.07.34a.4.4 0 0 0 .2.18.9.9 0 0 0 .3.05 1.73 1.73 0 0 0 .5-.07l.34 1.63-.45.11c-.2.05-.43.08-.7.1a3.3 3.3 0 0 1-1.36-.2 1.77 1.77 0 0 1-.87-.7 2.1 2.1 0 0 1-.28-1.2v-6.8Zm4.84 8.79V6.05h2.28v3.79h3.73v-3.8h2.28v9.46h-2.28v-3.8h-3.73v3.8h-2.28Zm14.3-3.06V8.4h2.25v7.09h-2.15v-1.32h-.08a2 2 0 0 1-.8 1.03c-.38.26-.83.38-1.36.38a2.26 2.26 0 0 1-2.13-1.26c-.2-.4-.3-.87-.3-1.4V8.4h2.25v4.08c0 .38.1.68.3.9.2.23.48.34.82.34.23 0 .43-.05.6-.15.19-.1.33-.25.43-.44.11-.2.17-.43.17-.7Zm3.69 3.06V6.05h2.25v3.57h.05c.1-.21.22-.42.4-.62.16-.2.38-.36.65-.49s.59-.2.96-.2a2.62 2.62 0 0 1 2.42 1.59c.27.54.4 1.23.4 2.06 0 .8-.13 1.47-.38 2.02a2.6 2.6 0 0 1-3.38 1.45 2 2 0 0 1-1.07-1.08h-.07v1.15h-2.23Zm2.2-3.55c0 .39.06.72.16 1s.25.5.45.66c.2.16.43.23.7.23.28 0 .52-.07.71-.23.2-.16.34-.38.44-.66.1-.28.15-.61.15-1 0-.38-.05-.7-.15-.99a1.4 1.4 0 0 0-.44-.65c-.2-.15-.43-.23-.7-.23-.28 0-.52.08-.71.23-.2.15-.35.36-.45.64a3 3 0 0 0-.15 1Z"/></g></g><rect width="157.8" height="19.8" x=".6" y=".6" stroke="url(#e)" stroke-opacity=".88" stroke-width="1.2" rx="4.4"/><defs><clipPath id="a"><rect width="159" height="21" fill="#fff" rx="5"/></clipPath><clipPath id="c"><path fill="#fff" d="M5 2.5h16v16H5z"/></clipPath><filter id="b" width="27.2" height="27.2" x="-.6" y="-3.1" color-interpolation-filters="sRGB" filterUnits="userSpaceOnUse"><feFlood flood-opacity="0" result="BackgroundImageFix"/><feColorMatrix in="SourceAlpha" result="hardAlpha" values="0 0 0 0 0 0 0 0 0 0 0 0 0 0 0 0 0 0 127 0"/><feOffset/><feGaussianBlur stdDeviation="2.8"/><feComposite in2="hardAlpha" operator="out"/><feColorMatrix values="0 0 0 0 0 0 0 0 0 0 0 0 0 0 0 0 0 0 0.25 0"/><feBlend in2="BackgroundImageFix" result="effect1_dropShadow_2040_161"/><feBlend in="SourceGraphic" in2="effect1_dropShadow_2040_161" result="shape"/></filter><filter id="d" width="142.43" height="27.43" x="17.29" y="-3.21" color-interpolation-filters="sRGB" filterUnits="userSpaceOnUse"><feFlood flood-opacity="0" result="BackgroundImageFix"/><feColorMatrix in="SourceAlpha" result="hardAlpha" values="0 0 0 0 0 0 0 0 0 0 0 0 0 0 0 0 0 0 127 0"/><feOffset/><feGaussianBlur stdDeviation="2.86"/><feComposite in2="hardAlpha" operator="out"/><feColorMatrix values="0 0 0 0 0 0 0 0 0 0 0 0 0 0 0 0 0 0 0.25 0"/><feBlend in2="BackgroundImageFix" result="effect1_dropShadow_2040_161"/><feBlend in="SourceGraphic" in2="effect1_dropShadow_2040_161" result="shape"/></filter><linearGradient id="e" x1="0" x2="159" y1="10.5" y2="10.5" gradientUnits="userSpaceOnUse"><stop stop-color="#A8348F"/><stop offset=".5" stop-color="#103EBB"/><stop offset="1" stop-color="#00AAA6"/></linearGradient></defs></svg>