<svg xmlns="http://www.w3.org/2000/svg" width="180" height="21" fill="none"><g clip-path="url(#a)"><rect width="180" height="21" fill="#000" rx="5"/><g filter="url(#b)"><g clip-path="url(#c)"><path fill="url(#d)" d="M13.14 6.69h-.03l-.03.02-.01.02v.02l3.08 11.55a8 8 0 0 0 3.61-3.1L13.2 6.71l-.03-.02h-.03Z"/><path fill="#fff" d="M12.99 2.95A8 8 0 0 0 6.2 15.2l6.67-8.62c.05-.06.17-.06.21 0l6.67 8.62A8 8 0 0 0 13 2.95Z"/></g></g><g filter="url(#e)"><path fill="#E8E8E8" d="M31.9 9.12h-1.45a2.2 2.2 0 0 0-.86-1.4 2.39 2.39 0 0 0-.74-.38 2.87 2.87 0 0 0-2.31.29 2.8 2.8 0 0 0-1.02 1.2 4.58 4.58 0 0 0-.37 1.94c0 .77.12 1.42.37 1.95s.59.93 1.02 1.2a2.95 2.95 0 0 0 2.3.29c.28-.09.52-.2.74-.37a2.24 2.24 0 0 0 .87-1.39h1.44a3.85 3.85 0 0 1-1.3 2.3c-.33.28-.72.5-1.16.65a4.44 4.44 0 0 1-3.64-.35 4.07 4.07 0 0 1-1.5-1.68 5.71 5.71 0 0 1-.56-2.6c0-1 .19-1.87.56-2.6a4.04 4.04 0 0 1 3.7-2.25c.5 0 .97.07 1.4.21a3.7 3.7 0 0 1 2.04 1.64c.23.4.38.84.46 1.35Zm4.57 6.52c-.66 0-1.24-.15-1.74-.45-.5-.3-.88-.73-1.15-1.28a4.24 4.24 0 0 1-.41-1.92c0-.74.14-1.38.41-1.93a3.08 3.08 0 0 1 2.9-1.74c.66 0 1.24.15 1.73.45.5.3.88.74 1.16 1.29.27.55.41 1.2.41 1.93s-.14 1.37-.41 1.92a3.08 3.08 0 0 1-2.9 1.73Zm0-1.16c.44 0 .8-.11 1.08-.34a2 2 0 0 0 .63-.9c.14-.39.2-.8.2-1.26 0-.45-.06-.87-.2-1.24a2.03 2.03 0 0 0-.63-.92 1.64 1.64 0 0 0-1.07-.35c-.43 0-.8.12-1.08.35-.28.23-.5.53-.63.92-.14.37-.2.79-.2 1.24 0 .46.06.87.2 1.25a2 2 0 0 0 .63.91c.28.23.65.34 1.08.34Zm6.23-3.19v4.21h-1.38V8.4h1.33v1.16h.08a2.1 2.1 0 0 1 2.09-1.24c.49 0 .91.1 1.27.3.37.2.65.5.85.9.2.4.3.88.3 1.47v4.51h-1.38v-4.34c0-.52-.14-.92-.4-1.2-.27-.3-.64-.45-1.1-.45-.33 0-.61.07-.86.21a1.5 1.5 0 0 0-.59.6c-.14.27-.2.6-.2.97Zm9.7-2.88v1.1h-3.87v-1.1h3.87Zm-2.83-1.7h1.38v6.7c0 .28.04.48.12.61.08.14.18.23.3.28a1.62 1.62 0 0 0 .71.05l.2-.05.25 1.14a2.7 2.7 0 0 1-1.91-.05 1.74 1.74 0 0 1-.76-.62 1.8 1.8 0 0 1-.3-1.07V6.71Zm4.36 8.79V8.4h1.33v1.14h.08c.12-.39.35-.69.68-.9.33-.23.7-.34 1.12-.34a5.9 5.9 0 0 1 .58.04v1.32a2.82 2.82 0 0 0-.72-.08c-.32 0-.62.06-.87.2a1.54 1.54 0 0 0-.82 1.39v4.33h-1.38Zm4.99 0V8.4h1.38v7.1h-1.38Zm.7-8.19a.88.88 0 0 1-.63-.24.78.78 0 0 1-.25-.58c0-.22.09-.42.25-.58a.87.87 0 0 1 .62-.24c.24 0 .45.08.62.24.17.16.26.36.26.58 0 .23-.09.42-.26.58a.86.86 0 0 1-.62.24Zm2.64 8.19V6.05h1.38v3.5h.09c.08-.14.2-.31.34-.5.15-.2.36-.37.63-.51a2.2 2.2 0 0 1 1.06-.22 2.77 2.77 0 0 1 2.6 1.68c.25.55.38 1.2.38 1.97 0 .76-.13 1.42-.38 1.97a2.73 2.73 0 0 1-2.58 1.7 2.2 2.2 0 0 1-1.06-.22 2 2 0 0 1-.64-.5 4.3 4.3 0 0 1-.35-.52h-.12v1.1h-1.35Zm1.36-3.55c0 .5.07.94.21 1.32.15.37.36.67.63.88.28.2.61.31 1 .31.42 0 .77-.1 1.04-.33.28-.22.49-.52.63-.9a3.65 3.65 0 0 0 0-2.54 1.93 1.93 0 0 0-.62-.88 1.64 1.64 0 0 0-1.04-.32c-.4 0-.74.1-1.02.3-.27.21-.48.5-.62.87s-.21.8-.21 1.3Zm11.16.6V8.42h1.39v7.09H74.8v-1.23h-.07c-.17.38-.43.7-.79.95-.36.25-.8.37-1.33.37a2.1 2.1 0 0 1-2.03-1.2c-.2-.4-.3-.89-.3-1.47V8.4h1.38v4.34c0 .49.14.87.4 1.16.27.28.62.43 1.05.43a1.7 1.7 0 0 0 1.4-.78c.18-.27.27-.6.26-1Zm6.55-4.14v1.1h-3.87v-1.1h3.87ZM78.5 6.7h1.38v6.7c0 .28.04.48.12.61.08.14.18.23.3.28a1.62 1.62 0 0 0 .71.05l.2-.05.25 1.14a2.7 2.7 0 0 1-1.91-.05 1.74 1.74 0 0 1-.76-.62 1.8 1.8 0 0 1-.3-1.07V6.71Zm7.34 8.93a3.04 3.04 0 0 1-2.97-1.72 4.3 4.3 0 0 1-.4-1.92c0-.73.13-1.37.4-1.92.27-.55.66-.99 1.15-1.3a3.47 3.47 0 0 1 2.89-.27 2.82 2.82 0 0 1 1.71 1.73c.18.45.26 1 .26 1.64v.49h-5.63v-1.03h4.28c0-.37-.07-.69-.22-.97a1.68 1.68 0 0 0-1.56-.91c-.39 0-.72.1-1.01.28-.29.2-.51.44-.67.74-.15.3-.23.63-.23.99v.8c0 .48.08.88.25 1.21.17.33.4.59.7.76.3.18.66.26 1.06.26.26 0 .5-.03.72-.1a1.48 1.48 0 0 0 .92-.9l1.3.23a2.58 2.58 0 0 1-1.57 1.68c-.4.15-.86.23-1.38.23Zm11 0c-.66 0-1.24-.15-1.74-.45-.5-.3-.88-.73-1.15-1.28a4.24 4.24 0 0 1-.41-1.92c0-.74.13-1.38.4-1.93a3.08 3.08 0 0 1 2.9-1.74c.67 0 1.25.15 1.74.45.5.3.88.74 1.16 1.29.27.55.4 1.2.4 1.93s-.13 1.37-.4 1.92a3.08 3.08 0 0 1-2.9 1.73Zm0-1.16c.44 0 .8-.11 1.08-.34a2 2 0 0 0 .62-.9 3.75 3.75 0 0 0 .01-2.5 2.03 2.03 0 0 0-.63-.92 1.64 1.64 0 0 0-1.07-.35c-.44 0-.8.12-1.09.35-.28.23-.49.53-.63.92a3.81 3.81 0 0 0 0 2.49c.14.38.35.68.63.91.3.23.65.34 1.09.34Zm6.23-3.19v4.21h-1.38V8.4H103v1.16h.09c.16-.37.42-.67.77-.9.35-.23.79-.34 1.32-.34.48 0 .9.1 1.27.3.36.2.65.5.85.9.2.4.3.88.3 1.47v4.51h-1.39v-4.34c0-.52-.13-.92-.4-1.2-.26-.3-.63-.45-1.1-.45-.32 0-.6.07-.85.21a1.5 1.5 0 0 0-.6.6c-.13.27-.2.6-.2.97Z"/><path fill="#fff" d="M120.3 9.47h-2.31a2 2 0 0 0-.19-.64 1.56 1.56 0 0 0-.94-.8 2.14 2.14 0 0 0-.7-.11c-.46 0-.86.11-1.19.34-.33.22-.58.55-.76.97-.18.43-.27.94-.27 1.54 0 .63.1 1.16.27 1.58.19.42.44.74.77.96.32.21.71.32 1.16.32.25 0 .48-.04.7-.1a1.55 1.55 0 0 0 .94-.74c.1-.18.17-.39.2-.61l2.32.01a3.97 3.97 0 0 1-4.2 3.44c-.86 0-1.63-.19-2.3-.56a4.06 4.06 0 0 1-1.6-1.66c-.4-.72-.59-1.6-.59-2.64s.2-1.92.6-2.64a4 4 0 0 1 1.61-1.65 5.06 5.06 0 0 1 3.86-.32 3.55 3.55 0 0 1 2.18 1.8c.24.44.38.94.44 1.51Zm4.62 6.16c-.75 0-1.39-.15-1.92-.45a3.14 3.14 0 0 1-1.24-1.29 4.1 4.1 0 0 1-.43-1.91c0-.73.15-1.37.43-1.92.3-.55.7-.98 1.23-1.28a3.9 3.9 0 0 1 1.93-.46c.74 0 1.38.15 1.91.46.54.3.95.73 1.23 1.28.3.55.44 1.19.44 1.92 0 .72-.15 1.36-.44 1.91-.28.55-.7.98-1.23 1.29a3.8 3.8 0 0 1-1.91.45Zm0-1.7a1 1 0 0 0 .7-.25c.19-.17.33-.4.43-.7.1-.29.15-.63.15-1.02s-.05-.73-.15-1.03c-.1-.3-.24-.53-.43-.7a1 1 0 0 0-.7-.24c-.27 0-.5.08-.7.25-.2.16-.34.4-.44.69-.1.3-.15.64-.15 1.03 0 .4.05.73.15 1.03.1.3.25.52.44.7.2.16.43.24.7.24Zm7.32 1.67a2.62 2.62 0 0 1-2.45-1.62 4.73 4.73 0 0 1-.38-2.02c0-.83.13-1.52.4-2.06.26-.54.6-.94 1.03-1.2a2.65 2.65 0 0 1 2.35-.19 2.07 2.07 0 0 1 1.05 1.11h.04V6.05h2.26v9.45h-2.23v-1.15h-.07a1.97 1.97 0 0 1-1.07 1.08c-.26.11-.57.17-.93.17Zm.79-1.76c.27 0 .5-.07.7-.23.2-.16.34-.38.45-.66.1-.28.16-.61.16-1 0-.38-.06-.72-.16-1s-.25-.5-.45-.64a1.1 1.1 0 0 0-.7-.23c-.28 0-.52.08-.71.23-.2.15-.34.37-.44.65-.1.28-.15.61-.15 1 0 .38.05.7.15 1 .1.27.25.5.44.65.2.16.43.23.7.23Zm8.25 1.8a4 4 0 0 1-1.92-.44 3.1 3.1 0 0 1-1.23-1.26 4.17 4.17 0 0 1-.43-1.96c0-.73.14-1.37.43-1.92.29-.55.7-.98 1.22-1.28a4.08 4.08 0 0 1 3.25-.23 2.98 2.98 0 0 1 1.8 1.84c.16.45.25.96.25 1.55v.56h-6.16v-1.31h4.06c0-.24-.06-.46-.17-.64a1.16 1.16 0 0 0-.46-.44 1.3 1.3 0 0 0-.66-.16 1.35 1.35 0 0 0-1.15.62c-.12.2-.18.41-.19.66v1.33c0 .29.06.54.17.76.12.22.28.38.49.5.2.12.46.18.75.18.2 0 .38-.02.54-.08.16-.05.3-.14.42-.24a1 1 0 0 0 .26-.4l2.08.06c-.09.46-.28.87-.57 1.21-.3.35-.67.61-1.14.8-.47.19-1.02.28-1.64.28Zm4.52-.14V6.05h2.26v3.57h.05c.09-.21.22-.42.39-.62a2.03 2.03 0 0 1 1.61-.69 2.62 2.62 0 0 1 2.43 1.59c.26.54.4 1.23.4 2.06 0 .8-.13 1.47-.39 2.02a2.61 2.61 0 0 1-3.38 1.45 2.03 2.03 0 0 1-1.06-1.08h-.07v1.15h-2.24Zm2.21-3.55c0 .39.06.72.16 1s.25.5.44.66c.2.16.44.23.71.23.28 0 .51-.07.7-.23.2-.16.35-.38.44-.66.1-.28.16-.61.16-1 0-.38-.05-.7-.16-.99a1.4 1.4 0 0 0-.43-.65 1.1 1.1 0 0 0-.71-.23c-.28 0-.51.08-.7.23-.2.15-.35.36-.45.64a3 3 0 0 0-.16 1Zm9.42 3.68a4 4 0 0 1-1.92-.43c-.53-.3-.95-.72-1.23-1.26a4.17 4.17 0 0 1-.44-1.96c0-.73.15-1.37.44-1.92.29-.55.7-.98 1.22-1.28a4.14 4.14 0 0 1 3.25-.23 2.98 2.98 0 0 1 1.8 1.84c.16.45.25.96.25 1.55v.56h-6.17v-1.31h4.07c0-.24-.06-.46-.17-.64a1.17 1.17 0 0 0-.46-.44c-.2-.11-.41-.16-.66-.16a1.35 1.35 0 0 0-1.16.62c-.11.2-.17.41-.18.66v1.33c0 .29.06.54.17.76.11.22.28.38.49.5.2.12.46.18.74.18.2 0 .39-.02.55-.08.16-.05.3-.14.42-.24a1 1 0 0 0 .26-.4l2.08.06c-.1.46-.28.87-.57 1.21-.3.35-.67.61-1.14.8a4.4 4.4 0 0 1-1.64.28Zm4.52-.13V8.4h2.2v1.3h.07c.13-.47.34-.81.63-1.04.3-.23.63-.35 1.02-.35a2.33 2.33 0 0 1 .63.09v1.96a3.77 3.77 0 0 0-.89-.12c-.26 0-.5.06-.72.18a1.2 1.2 0 0 0-.5.5c-.12.2-.18.45-.18.73v3.85h-2.26Zm8.41 2.8c-.67 0-1.25-.09-1.73-.27a2.73 2.73 0 0 1-1.13-.78c-.28-.32-.44-.7-.5-1.1l2.14-.12c.04.14.12.27.22.37.11.11.26.2.43.25.18.06.39.1.63.1.38 0 .7-.1.94-.29.25-.18.37-.5.37-.95v-1.25h-.08a1.67 1.67 0 0 1-1.08.99 2.87 2.87 0 0 1-2.35-.21 2.61 2.61 0 0 1-1.03-1.12 4.4 4.4 0 0 1-.38-1.97c0-.83.13-1.51.4-2.05.26-.54.6-.94 1.03-1.2a2.65 2.65 0 0 1 2.35-.19c.27.13.49.29.66.49.17.2.3.4.4.62h.06V8.41h2.25v7.12c0 .6-.16 1.1-.46 1.52-.3.4-.72.72-1.26.93-.54.22-1.17.33-1.88.33Zm.07-4.54c.27 0 .5-.07.7-.22.2-.14.34-.35.45-.62.1-.27.16-.6.16-.97 0-.39-.06-.72-.16-1s-.25-.5-.45-.64a1.1 1.1 0 0 0-.7-.23c-.28 0-.52.08-.71.23-.2.15-.34.37-.44.65-.1.28-.15.6-.15.99 0 .37.05.7.15.97.1.27.25.48.44.62.2.15.43.22.7.22Z"/></g></g><rect width="178.8" height="19.8" x=".6" y=".6" stroke="url(#f)" stroke-opacity=".88" stroke-width="1.2" rx="4.4"/><defs><linearGradient id="d" x1="13.14" x2="18.28" y1="6.69" y2="16.95" gradientUnits="userSpaceOnUse"><stop stop-color="#fff" stop-opacity="0"/><stop offset=".5" stop-color="#fff" stop-opacity=".3"/><stop offset="1" stop-color="#fff" stop-opacity=".3"/></linearGradient><linearGradient id="f" x1="0" x2="180" y1="10.5" y2="10.5" gradientUnits="userSpaceOnUse"><stop stop-color="#4793CC"/><stop offset="1" stop-color="#21716D"/></linearGradient><clipPath id="a"><rect width="180" height="21" fill="#fff" rx="5"/></clipPath><clipPath id="c"><path fill="#fff" d="M5 2.5h16v16H5z"/></clipPath><filter id="b" width="27.2" height="27.2" x="-.6" y="-3.1" color-interpolation-filters="sRGB" filterUnits="userSpaceOnUse"><feFlood flood-opacity="0" result="BackgroundImageFix"/><feColorMatrix in="SourceAlpha" result="hardAlpha" values="0 0 0 0 0 0 0 0 0 0 0 0 0 0 0 0 0 0 127 0"/><feOffset/><feGaussianBlur stdDeviation="2.8"/><feComposite in2="hardAlpha" operator="out"/><feColorMatrix values="0 0 0 0 0 0 0 0 0 0 0 0 0 0 0 0 0 0 0.25 0"/><feBlend in2="BackgroundImageFix" result="effect1_dropShadow_2040_152"/><feBlend in="SourceGraphic" in2="effect1_dropShadow_2040_152" result="shape"/></filter><filter id="e" width="163.43" height="27.43" x="17.29" y="-3.21" color-interpolation-filters="sRGB" filterUnits="userSpaceOnUse"><feFlood flood-opacity="0" result="BackgroundImageFix"/><feColorMatrix in="SourceAlpha" result="hardAlpha" values="0 0 0 0 0 0 0 0 0 0 0 0 0 0 0 0 0 0 127 0"/><feOffset/><feGaussianBlur stdDeviation="2.86"/><feComposite in2="hardAlpha" operator="out"/><feColorMatrix values="0 0 0 0 0 0 0 0 0 0 0 0 0 0 0 0 0 0 0.25 0"/><feBlend in2="BackgroundImageFix" result="effect1_dropShadow_2040_152"/><feBlend in="SourceGraphic" in2="effect1_dropShadow_2040_152" result="shape"/></filter></defs></svg>