<svg xmlns="http://www.w3.org/2000/svg" width="120" height="21" fill="none"><g clip-path="url(#a)"><rect width="120" height="21" fill="#000" rx="5"/><g filter="url(#b)"><g clip-path="url(#c)"><path fill="#fff" d="M8.68 2.76a1.47 1.47 0 0 0-1.44.93L5.37 8.58l-.07.16a4.52 4.52 0 0 0-.26 1.06 4.52 4.52 0 0 0 .39 2.48 4.57 4.57 0 0 0 .15.3l.01.02.01.01a4.53 4.53 0 0 0 1.2 1.36l.01.01 2.93 2.19 1.44 1.09.88.66a1.56 1.56 0 0 0 1.88 0l.87-.66 1.46-1.1-.14.1 3.07-2.3a4.52 4.52 0 0 0 1.5-5.22l-.02-.05-1.92-5a1.48 1.48 0 0 0-2.28-.6c-.24.19-.42.45-.5.75l.01-.05-1.07 3.3h-3.84l-1.07-3.3.01.05a1.47 1.47 0 0 0-1.34-1.08Zm8.75 2.84 1.45 3.78.02.05a2.57 2.57 0 0 1 .07 1.64 2.6 2.6 0 0 1-.93 1.36l-2.34 1.75-.02-.02-.6.48-1.43 1.08-.65.5-.66-.5-1.44-1.1-2.91-2.17-.04-.03a2.57 2.57 0 0 1-.68-.77l.02.03-.12-.16.1.13a2.6 2.6 0 0 1-.09-.17l-.1-.14.1.12a2.6 2.6 0 0 1-.23-1.42 2.61 2.61 0 0 1 .14-.59L8.57 5.6l1.11 3.42h6.64l1.11-3.42ZM5.56 12.46l.07.1-.07-.1Zm.14.28.06.08v-.01l-.06-.07Z"/></g></g><g filter="url(#d)"><path fill="#E8E8E8" d="M24.04 15.5V6.05h5.86v1.22h-4.43v2.88h4.01v1.23h-4.01v4.12h-1.43Zm9.97.14c-.66 0-1.24-.15-1.74-.45-.5-.3-.88-.73-1.15-1.28a4.24 4.24 0 0 1-.41-1.92c0-.74.13-1.38.4-1.93a3.08 3.08 0 0 1 2.9-1.74c.67 0 1.25.15 1.74.45.5.3.88.74 1.16 1.29.27.55.4 1.2.4 1.93s-.13 1.37-.4 1.92a3.08 3.08 0 0 1-2.9 1.73Zm0-1.16c.44 0 .8-.11 1.08-.34a2 2 0 0 0 .62-.9 3.75 3.75 0 0 0 .01-2.5 2.03 2.03 0 0 0-.63-.92 1.64 1.64 0 0 0-1.07-.35c-.44 0-.8.12-1.08.35-.29.23-.5.53-.64.92a3.81 3.81 0 0 0 0 2.49c.14.38.35.68.64.91.28.23.64.34 1.08.34Zm4.85 1.02V8.4h1.33v1.14h.08c.12-.39.35-.69.68-.9.33-.23.7-.34 1.12-.34a5.9 5.9 0 0 1 .58.04v1.32a2.82 2.82 0 0 0-.72-.08c-.32 0-.61.06-.87.2a1.54 1.54 0 0 0-.82 1.39v4.33h-1.38Zm6.26-2.4-.01-1.69h.24l2.82-3h1.66l-3.23 3.42h-.21l-1.27 1.26Zm-1.27 2.4V6.05h1.38v9.45h-1.38Zm4.47 0-2.53-3.37.95-.96 3.28 4.33h-1.7Zm9.2.14c-.67 0-1.25-.15-1.75-.45-.5-.3-.88-.73-1.15-1.28a4.24 4.24 0 0 1-.41-1.92c0-.74.13-1.38.4-1.93a3.08 3.08 0 0 1 2.9-1.74c.67 0 1.25.15 1.74.45.5.3.88.74 1.16 1.29.27.55.4 1.2.4 1.93s-.13 1.37-.4 1.92a3.08 3.08 0 0 1-2.9 1.73Zm0-1.16c.43 0 .78-.11 1.07-.34a2 2 0 0 0 .62-.9 3.75 3.75 0 0 0 .01-2.5 2.03 2.03 0 0 0-.63-.92 1.64 1.64 0 0 0-1.07-.35c-.44 0-.8.12-1.09.35-.28.23-.49.53-.63.92a3.81 3.81 0 0 0 0 2.49c.14.38.35.68.63.91.3.23.65.34 1.09.34Zm6.22-3.19v4.21h-1.38V8.4h1.32v1.16h.09c.16-.37.42-.67.77-.9.35-.23.79-.34 1.32-.34.48 0 .9.1 1.27.3.36.2.64.5.84.9.2.4.3.88.3 1.47v4.51H66.9v-4.34c0-.52-.13-.92-.4-1.2-.26-.3-.63-.45-1.1-.45-.32 0-.6.07-.85.21a1.5 1.5 0 0 0-.6.6c-.13.27-.2.6-.2.97Z"/><path fill="#fff" d="M78.92 9.13a1.53 1.53 0 0 0-.23-.5A1.48 1.48 0 0 0 77.8 8c-.2-.05-.4-.08-.63-.08-.46 0-.86.11-1.2.33a2.2 2.2 0 0 0-.76.97c-.18.42-.27.94-.27 1.54 0 .6.08 1.12.26 1.55.17.43.43.75.76.98.33.22.74.34 1.21.34.42 0 .77-.07 1.06-.2.3-.15.52-.34.67-.6.15-.25.22-.54.22-.88l.43.05h-2.3v-1.67h4.07v1.25a4.2 4.2 0 0 1-.54 2.18 3.6 3.6 0 0 1-1.47 1.38c-.63.33-1.35.49-2.16.49-.9 0-1.7-.2-2.38-.59a4.06 4.06 0 0 1-1.6-1.67 5.49 5.49 0 0 1-.57-2.58c0-.78.12-1.47.35-2.07a4.17 4.17 0 0 1 2.4-2.48 4.79 4.79 0 0 1 1.77-.32c.55 0 1.06.07 1.53.23a4 4 0 0 1 1.26.67 3.52 3.52 0 0 1 1.31 2.31h-2.31Zm4.2 6.37V8.4h2.26v7.1h-2.25Zm1.14-7.92c-.32 0-.6-.1-.82-.31a1.01 1.01 0 0 1-.34-.77 1 1 0 0 1 .34-.75c.23-.22.5-.32.82-.32.32 0 .59.1.81.32a1 1 0 0 1 .35.75c0 .3-.12.56-.35.77-.22.2-.5.31-.81.31Zm6.56.83v1.66h-4.47V8.41h4.47ZM87.3 6.7h2.25v6.56c0 .14.03.25.07.34a.4.4 0 0 0 .2.18.9.9 0 0 0 .3.05 1.71 1.71 0 0 0 .5-.07l.34 1.63-.46.11a3.9 3.9 0 0 1-.7.1c-.52.02-.98-.05-1.35-.2a1.77 1.77 0 0 1-.87-.7 2.1 2.1 0 0 1-.28-1.2V6.7Zm4.84 8.79V6.05h2.28v7.6h3.94v1.85h-6.22Zm9.4.12c-.45 0-.86-.08-1.2-.23a1.88 1.88 0 0 1-.83-.69c-.2-.3-.3-.7-.3-1.17 0-.4.06-.72.2-1 .14-.26.33-.48.58-.65.24-.17.52-.3.84-.39.31-.09.65-.15 1.01-.18a12 12 0 0 0 .98-.11c.24-.05.42-.1.53-.18a.4.4 0 0 0 .17-.34v-.02a.66.66 0 0 0-.24-.55c-.17-.13-.39-.2-.66-.2-.3 0-.54.07-.72.2-.19.13-.3.3-.35.53l-2.08-.07A2.46 2.46 0 0 1 101 8.61a4.6 4.6 0 0 1 2.88-.13c.38.1.71.26 1 .46a2.08 2.08 0 0 1 .89 1.74v4.82h-2.13v-.99h-.05a2 2 0 0 1-1.18.99c-.26.08-.55.12-.88.12Zm.7-1.48c.24 0 .46-.05.65-.15a1.07 1.07 0 0 0 .65-1.02v-.66l-.24.09a3.94 3.94 0 0 1-.63.14l-.33.05c-.2.04-.39.09-.54.16a.87.87 0 0 0-.34.28.69.69 0 0 0-.12.4c0 .23.09.4.25.53.17.12.39.18.64.18Zm4.91 1.36V6.05h2.26v3.57h.05c.1-.21.22-.42.4-.62.16-.2.38-.36.65-.49s.58-.2.96-.2a2.62 2.62 0 0 1 2.42 1.59c.27.54.4 1.23.4 2.06 0 .8-.13 1.47-.39 2.02a2.62 2.62 0 0 1-3.38 1.45 2.03 2.03 0 0 1-1.06-1.08h-.07v1.15h-2.23Zm2.22-3.55c0 .39.05.72.15 1 .1.28.25.5.45.66.2.16.43.23.7.23.28 0 .52-.07.7-.23.2-.16.35-.38.45-.66.1-.28.15-.61.15-1 0-.38-.05-.7-.15-.99a1.4 1.4 0 0 0-.44-.65c-.2-.15-.43-.23-.7-.23-.28 0-.52.08-.71.23-.2.15-.35.36-.45.64a3 3 0 0 0-.15 1Z"/></g></g><rect width="118.8" height="19.8" x=".6" y=".6" stroke="url(#e)" stroke-opacity=".88" stroke-width="1.2" rx="4.4"/><defs><clipPath id="a"><rect width="120" height="21" fill="#fff" rx="5"/></clipPath><clipPath id="c"><path fill="#fff" d="M5 2.5h16v16H5z"/></clipPath><filter id="b" width="27.2" height="27.2" x="-.6" y="-3.1" color-interpolation-filters="sRGB" filterUnits="userSpaceOnUse"><feFlood flood-opacity="0" result="BackgroundImageFix"/><feColorMatrix in="SourceAlpha" result="hardAlpha" values="0 0 0 0 0 0 0 0 0 0 0 0 0 0 0 0 0 0 127 0"/><feOffset/><feGaussianBlur stdDeviation="2.8"/><feComposite in2="hardAlpha" operator="out"/><feColorMatrix values="0 0 0 0 0 0 0 0 0 0 0 0 0 0 0 0 0 0 0.25 0"/><feBlend in2="BackgroundImageFix" result="effect1_dropShadow_2038_90"/><feBlend in="SourceGraphic" in2="effect1_dropShadow_2038_90" result="shape"/></filter><filter id="d" width="103.43" height="27.43" x="17.29" y="-3.21" color-interpolation-filters="sRGB" filterUnits="userSpaceOnUse"><feFlood flood-opacity="0" result="BackgroundImageFix"/><feColorMatrix in="SourceAlpha" result="hardAlpha" values="0 0 0 0 0 0 0 0 0 0 0 0 0 0 0 0 0 0 127 0"/><feOffset/><feGaussianBlur stdDeviation="2.86"/><feComposite in2="hardAlpha" operator="out"/><feColorMatrix values="0 0 0 0 0 0 0 0 0 0 0 0 0 0 0 0 0 0 0.25 0"/><feBlend in2="BackgroundImageFix" result="effect1_dropShadow_2038_90"/><feBlend in="SourceGraphic" in2="effect1_dropShadow_2038_90" result="shape"/></filter><linearGradient id="e" x1="0" x2="120" y1="10.5" y2="10.5" gradientUnits="userSpaceOnUse"><stop stop-color="#FEB484"/><stop offset=".5" stop-color="#A686F2"/><stop offset="1" stop-color="#592AC8"/></linearGradient></defs></svg>