<svg xmlns="http://www.w3.org/2000/svg" width="141" height="21" fill="none"><g clip-path="url(#a)"><rect width="141" height="21" fill="#000" rx="5"/><g filter="url(#b)"><g clip-path="url(#c)"><path fill="#fff" d="M8.47 4.87A17.49 17.49 0 0 1 13 10.06v3.62c0-.08-.03 0-.1.2-.38 1.01-1.86 4.98-5.23 1.8-1.78-1.66-.96-3.33 2.28-3.84-1.85.3-3.93-.18-4.5-2.05C5.27 9.25 5 5.94 5 5.49c0-2.24 2.14-1.53 3.47-.62Zm9.06 0A17.49 17.49 0 0 0 13 10.06v3.62c0-.08.03 0 .1.2.38 1.01 1.86 4.98 5.23 1.8 1.78-1.66.96-3.33-2.28-3.84 1.85.3 3.93-.18 4.5-2.05.17-.54.45-3.85.45-4.3 0-2.24-2.14-1.53-3.47-.62Z"/></g></g><g filter="url(#d)"><path fill="#E8E8E8" d="M24.04 15.5V6.05h5.86v1.22h-4.43v2.88h4.01v1.23h-4.01v4.12h-1.43Zm9.97.14c-.66 0-1.24-.15-1.74-.45-.5-.3-.88-.73-1.15-1.28a4.24 4.24 0 0 1-.41-1.92c0-.74.13-1.38.4-1.93a3.08 3.08 0 0 1 2.9-1.74c.67 0 1.25.15 1.74.45.5.3.88.74 1.16 1.29.27.55.4 1.2.4 1.93s-.13 1.37-.4 1.92a3.08 3.08 0 0 1-2.9 1.73Zm0-1.16c.44 0 .8-.11 1.08-.34a2 2 0 0 0 .62-.9 3.75 3.75 0 0 0 .01-2.5 2.03 2.03 0 0 0-.63-.92 1.64 1.64 0 0 0-1.07-.35c-.44 0-.8.12-1.08.35-.29.23-.5.53-.64.92a3.81 3.81 0 0 0 0 2.49c.14.38.35.68.64.91.28.23.64.34 1.08.34Zm6.23-8.43v9.45h-1.38V6.05h1.38Zm3.24 0v9.45h-1.39V6.05h1.39Zm4.84 9.6a3.08 3.08 0 0 1-2.9-1.74 4.24 4.24 0 0 1-.4-1.92c0-.74.13-1.38.4-1.93a3.08 3.08 0 0 1 2.9-1.74 3 3 0 0 1 2.89 1.74c.28.55.41 1.2.41 1.93s-.13 1.37-.4 1.92a3.08 3.08 0 0 1-2.9 1.73Zm0-1.17c.43 0 .8-.11 1.07-.34a2 2 0 0 0 .63-.9 3.75 3.75 0 0 0 .01-2.5 2.03 2.03 0 0 0-.64-.92 1.64 1.64 0 0 0-1.07-.35c-.43 0-.79.12-1.08.35-.28.23-.5.53-.63.92a3.81 3.81 0 0 0 0 2.49c.14.38.35.68.63.91.29.23.65.34 1.08.34Zm6.17 1.02L52.4 8.4h1.43l1.39 5.22h.07l1.39-5.21h1.43l1.38 5.18h.07l1.38-5.18h1.43l-2.09 7.09h-1.4l-1.44-5.12h-.11l-1.44 5.12h-1.4Zm15.61.14c-.66 0-1.24-.15-1.74-.45-.5-.3-.88-.73-1.15-1.28a4.24 4.24 0 0 1-.41-1.92c0-.74.14-1.38.41-1.93a3.08 3.08 0 0 1 2.9-1.74c.66 0 1.24.15 1.73.45.5.3.88.74 1.16 1.29.27.55.41 1.2.41 1.93s-.14 1.37-.41 1.92a3.08 3.08 0 0 1-2.9 1.73Zm0-1.16c.44 0 .8-.11 1.08-.34a2 2 0 0 0 .63-.9c.14-.39.2-.8.2-1.26 0-.45-.06-.87-.2-1.24a2.03 2.03 0 0 0-.63-.92 1.64 1.64 0 0 0-1.07-.35c-.44 0-.8.12-1.08.35-.28.23-.5.53-.63.92-.14.37-.2.79-.2 1.24 0 .46.06.87.2 1.25a2 2 0 0 0 .63.91c.28.23.64.34 1.08.34Zm6.23-3.19v4.21h-1.38V8.4h1.33v1.16h.08a2.1 2.1 0 0 1 2.09-1.24c.49 0 .91.1 1.27.3.37.2.65.5.85.9.2.4.3.88.3 1.47v4.51h-1.38v-4.34c0-.52-.14-.92-.4-1.2-.27-.3-.64-.45-1.1-.45-.33 0-.61.07-.86.21a1.5 1.5 0 0 0-.59.6c-.14.27-.2.6-.2.97Z"/><path fill="#fff" d="M84.72 15.5V6.05h3.94c.7 0 1.3.1 1.78.3.48.2.84.48 1.08.84.24.36.36.77.36 1.25a1.99 1.99 0 0 1-.85 1.66c-.26.18-.57.31-.92.39v.09c.38.02.74.12 1.06.3a2.28 2.28 0 0 1 1.08 1.97 2.45 2.45 0 0 1-1.51 2.3 4.2 4.2 0 0 1-1.78.35h-4.24ZM87 13.66h1.41c.5 0 .86-.1 1.1-.28a.94.94 0 0 0 .35-.79c0-.24-.05-.45-.17-.63a1.1 1.1 0 0 0-.48-.4c-.21-.1-.46-.15-.76-.15H87v2.25Zm0-3.73h1.27c.24 0 .47-.04.66-.12a.96.96 0 0 0 .62-.93.9.9 0 0 0-.34-.75 1.4 1.4 0 0 0-.9-.27H87v2.07Zm8.6-3.88v9.45h-2.25V6.05h2.26Zm6.02 6.39V8.4h2.25v7.09h-2.15v-1.32h-.08a2 2 0 0 1-.8 1.03c-.37.26-.83.38-1.36.38a2.26 2.26 0 0 1-2.13-1.26c-.2-.4-.3-.87-.3-1.4V8.4h2.25v4.08c0 .38.1.68.3.9.2.23.48.34.82.34a1.16 1.16 0 0 0 1.04-.59c.1-.2.16-.43.16-.7Zm7 3.2a4 4 0 0 1-1.92-.44c-.53-.3-.95-.72-1.24-1.26a4.17 4.17 0 0 1-.42-1.96c0-.73.14-1.37.43-1.92.29-.55.7-.98 1.22-1.28a4.14 4.14 0 0 1 3.25-.23 2.98 2.98 0 0 1 1.8 1.84c.16.45.25.96.25 1.55v.56h-6.17v-1.31h4.07c0-.24-.06-.46-.17-.64a1.16 1.16 0 0 0-.46-.44c-.2-.11-.41-.16-.66-.16a1.35 1.35 0 0 0-1.16.62c-.11.2-.17.41-.18.66v1.33c0 .29.06.54.17.76.11.22.28.38.49.5.2.12.45.18.74.18.2 0 .39-.02.55-.08.16-.05.3-.14.42-.24a1 1 0 0 0 .26-.4l2.07.06a2.5 2.5 0 0 1-.56 1.21c-.3.35-.67.61-1.14.8a4.4 4.4 0 0 1-1.64.28Zm10.71-5.07-2.07.06a.77.77 0 0 0-.18-.4.95.95 0 0 0-.37-.27c-.15-.06-.33-.1-.53-.1-.26 0-.48.06-.67.16-.18.1-.27.25-.27.43 0 .13.06.25.17.36.12.1.33.18.63.24l1.36.26c.7.13 1.23.36 1.58.67.35.32.52.73.53 1.25a2 2 0 0 1-.44 1.27c-.28.36-.67.64-1.16.84-.5.2-1.06.3-1.69.3a4.07 4.07 0 0 1-2.4-.63 2.33 2.33 0 0 1-1-1.68l2.24-.06c.05.26.17.46.38.6.2.13.47.2.79.2.29 0 .52-.05.7-.16.19-.11.28-.25.28-.43a.46.46 0 0 0-.21-.39 1.7 1.7 0 0 0-.65-.23l-1.24-.23a2.93 2.93 0 0 1-1.59-.72 1.8 1.8 0 0 1-.51-1.34c0-.47.12-.87.38-1.21.25-.34.61-.6 1.08-.78a4.7 4.7 0 0 1 1.67-.26c.96 0 1.72.2 2.27.6.56.4.86.95.92 1.65Zm3.32 3.07.01-2.7h.32l2-2.53h2.55l-2.97 3.64h-.6l-1.3 1.59Zm-2.03 1.86V6.05h2.25v9.45h-2.25Zm4.4 0-1.85-2.95 1.48-1.6 2.98 4.55h-2.6Zm4.85 2.66a4.34 4.34 0 0 1-1.39-.23l.5-1.64c.23.08.43.12.6.13a.8.8 0 0 0 .47-.08.66.66 0 0 0 .3-.37l.1-.21-2.53-7.35h2.36l1.31 5.06h.07L133 8.4h2.38l-2.68 7.77a3.3 3.3 0 0 1-.54 1.02c-.24.3-.54.54-.91.7-.37.17-.83.26-1.37.26Z"/></g></g><rect width="139.8" height="19.8" x=".6" y=".6" stroke="url(#e)" stroke-opacity=".75" stroke-width="1.2" rx="4.4"/><defs><clipPath id="a"><rect width="141" height="21" fill="#fff" rx="5"/></clipPath><clipPath id="c"><path fill="#fff" d="M5 4h16v13H5z"/></clipPath><filter id="b" width="27.2" height="27.2" x="-.6" y="-3.1" color-interpolation-filters="sRGB" filterUnits="userSpaceOnUse"><feFlood flood-opacity="0" result="BackgroundImageFix"/><feColorMatrix in="SourceAlpha" result="hardAlpha" values="0 0 0 0 0 0 0 0 0 0 0 0 0 0 0 0 0 0 127 0"/><feOffset/><feGaussianBlur stdDeviation="2.8"/><feComposite in2="hardAlpha" operator="out"/><feColorMatrix values="0 0 0 0 0 0 0 0 0 0 0 0 0 0 0 0 0 0 0.25 0"/><feBlend in2="BackgroundImageFix" result="effect1_dropShadow_2026_2"/><feBlend in="SourceGraphic" in2="effect1_dropShadow_2026_2" result="shape"/></filter><filter id="d" width="124.43" height="27.43" x="17.29" y="-3.21" color-interpolation-filters="sRGB" filterUnits="userSpaceOnUse"><feFlood flood-opacity="0" result="BackgroundImageFix"/><feColorMatrix in="SourceAlpha" result="hardAlpha" values="0 0 0 0 0 0 0 0 0 0 0 0 0 0 0 0 0 0 127 0"/><feOffset/><feGaussianBlur stdDeviation="2.86"/><feComposite in2="hardAlpha" operator="out"/><feColorMatrix values="0 0 0 0 0 0 0 0 0 0 0 0 0 0 0 0 0 0 0.25 0"/><feBlend in2="BackgroundImageFix" result="effect1_dropShadow_2026_2"/><feBlend in="SourceGraphic" in2="effect1_dropShadow_2026_2" result="shape"/></filter><linearGradient id="e" x1="0" x2="141" y1="10.5" y2="10.5" gradientUnits="userSpaceOnUse"><stop stop-color="#0B7AFF"/><stop offset="1" stop-color="#5BC8FF"/></linearGradient></defs></svg>