<svg width="177" height="21" viewBox="0 0 177 21" fill="none" xmlns="http://www.w3.org/2000/svg">
<g clip-path="url(#clip0_2023_2)">
<rect width="177" height="21" rx="5" fill="black"/>
<g filter="url(#filter0_d_2023_2)">
<g clip-path="url(#clip1_2023_2)">
<path d="M13 13.7333C14.7857 13.7333 16.2333 12.2857 16.2333 10.5C16.2333 8.71431 14.7857 7.26673 13 7.26673C11.2143 7.26673 9.76672 8.71431 9.76672 10.5C9.76672 12.2857 11.2143 13.7333 13 13.7333Z" stroke="white" stroke-width="1.36676" stroke-miterlimit="2.9" stroke-linecap="square"/>
<path d="M19.7653 7.71359C20.1293 8.59746 20.3166 9.5441 20.3166 10.5C20.3166 11.4608 20.1274 12.4123 19.7597 13.2999C19.392 14.1876 18.8531 14.9942 18.1736 15.6736C17.4942 16.353 16.6877 16.892 15.8 17.2597C14.9123 17.6274 13.9608 17.8166 13 17.8166C12.0455 17.8166 11.1002 17.6298 10.2173 17.2668" stroke="white" stroke-width="1.36676" stroke-miterlimit="2.9" stroke-linecap="round"/>
<path d="M6.23323 13.2828C5.87017 12.3999 5.68338 11.4546 5.68338 10.5C5.68338 8.55951 6.45424 6.6985 7.82637 5.32637C9.1985 3.95424 11.0595 3.18338 13 3.18338C13.9559 3.18338 14.9025 3.37069 15.7864 3.73473" stroke="white" stroke-width="1.36676" stroke-miterlimit="2.9" stroke-linecap="round"/>
<path d="M18.1736 6.83076C19.0045 6.83076 19.678 6.15722 19.678 5.32637C19.678 4.49552 19.0045 3.82198 18.1736 3.82198C17.3428 3.82198 16.6693 4.49552 16.6693 5.32637C16.6693 6.15722 17.3428 6.83076 18.1736 6.83076Z" fill="white"/>
<path d="M7.82638 17.178C8.65723 17.178 9.33077 16.5045 9.33077 15.6736C9.33077 14.8428 8.65723 14.1692 7.82638 14.1692C6.99553 14.1692 6.32199 14.8428 6.32199 15.6736C6.32199 16.5045 6.99553 17.178 7.82638 17.178Z" fill="white"/>
</g>
</g>
<g filter="url(#filter1_d_2023_2)">
<path d="M24.0387 15.5V6.04546H29.9016V7.27344H25.4652V10.1541H29.4815V11.3775H25.4652V15.5H24.0387ZM34.0114 15.6431C33.3467 15.6431 32.7665 15.4908 32.271 15.1861C31.7755 14.8814 31.3908 14.4551 31.1169 13.9073C30.843 13.3595 30.7061 12.7193 30.7061 11.9869C30.7061 11.2513 30.843 10.6081 31.1169 10.0572C31.3908 9.50627 31.7755 9.07848 32.271 8.77379C32.7665 8.46911 33.3467 8.31676 34.0114 8.31676C34.6762 8.31676 35.2564 8.46911 35.7519 8.77379C36.2474 9.07848 36.6321 9.50627 36.906 10.0572C37.1799 10.6081 37.3168 11.2513 37.3168 11.9869C37.3168 12.7193 37.1799 13.3595 36.906 13.9073C36.6321 14.4551 36.2474 14.8814 35.7519 15.1861C35.2564 15.4908 34.6762 15.6431 34.0114 15.6431ZM34.0161 14.4844C34.4469 14.4844 34.8039 14.3705 35.0871 14.1428C35.3702 13.915 35.5795 13.6119 35.7149 13.2333C35.8534 12.8548 35.9227 12.4377 35.9227 11.9822C35.9227 11.5298 35.8534 11.1143 35.7149 10.7358C35.5795 10.3542 35.3702 10.0479 35.0871 9.81712C34.8039 9.58629 34.4469 9.47088 34.0161 9.47088C33.5821 9.47088 33.222 9.58629 32.9358 9.81712C32.6527 10.0479 32.4418 10.3542 32.3034 10.7358C32.1679 11.1143 32.1002 11.5298 32.1002 11.9822C32.1002 12.4377 32.1679 12.8548 32.3034 13.2333C32.4418 13.6119 32.6527 13.915 32.9358 14.1428C33.222 14.3705 33.5821 14.4844 34.0161 14.4844ZM40.2379 6.04546V15.5H38.8576V6.04546H40.2379ZM43.4752 6.04546V15.5H42.0949V6.04546H43.4752ZM48.3191 15.6431C47.6543 15.6431 47.0742 15.4908 46.5787 15.1861C46.0831 14.8814 45.6984 14.4551 45.4245 13.9073C45.1506 13.3595 45.0137 12.7193 45.0137 11.9869C45.0137 11.2513 45.1506 10.6081 45.4245 10.0572C45.6984 9.50627 46.0831 9.07848 46.5787 8.77379C47.0742 8.46911 47.6543 8.31676 48.3191 8.31676C48.9838 8.31676 49.564 8.46911 50.0595 8.77379C50.555 9.07848 50.9397 9.50627 51.2136 10.0572C51.4875 10.6081 51.6245 11.2513 51.6245 11.9869C51.6245 12.7193 51.4875 13.3595 51.2136 13.9073C50.9397 14.4551 50.555 14.8814 50.0595 15.1861C49.564 15.4908 48.9838 15.6431 48.3191 15.6431ZM48.3237 14.4844C48.7545 14.4844 49.1116 14.3705 49.3947 14.1428C49.6778 13.915 49.8871 13.6119 50.0225 13.2333C50.161 12.8548 50.2303 12.4377 50.2303 11.9822C50.2303 11.5298 50.161 11.1143 50.0225 10.7358C49.8871 10.3542 49.6778 10.0479 49.3947 9.81712C49.1116 9.58629 48.7545 9.47088 48.3237 9.47088C47.8897 9.47088 47.5296 9.58629 47.2434 9.81712C46.9603 10.0479 46.7495 10.3542 46.611 10.7358C46.4755 11.1143 46.4078 11.5298 46.4078 11.9822C46.4078 12.4377 46.4755 12.8548 46.611 13.2333C46.7495 13.6119 46.9603 13.915 47.2434 14.1428C47.5296 14.3705 47.8897 14.4844 48.3237 14.4844ZM54.4867 15.5L52.4 8.40909H53.8265L55.2161 13.6165H55.2853L56.6795 8.40909H58.106L59.4909 13.5934H59.5602L60.9405 8.40909H62.367L60.285 15.5H58.8769L57.4366 10.3803H57.3304L55.8901 15.5H54.4867ZM70.1042 15.6431C69.4394 15.6431 68.8593 15.4908 68.3638 15.1861C67.8683 14.8814 67.4836 14.4551 67.2097 13.9073C66.9358 13.3595 66.7988 12.7193 66.7988 11.9869C66.7988 11.2513 66.9358 10.6081 67.2097 10.0572C67.4836 9.50627 67.8683 9.07848 68.3638 8.77379C68.8593 8.46911 69.4394 8.31676 70.1042 8.31676C70.769 8.31676 71.3491 8.46911 71.8446 8.77379C72.3401 9.07848 72.7248 9.50627 72.9987 10.0572C73.2727 10.6081 73.4096 11.2513 73.4096 11.9869C73.4096 12.7193 73.2727 13.3595 72.9987 13.9073C72.7248 14.4551 72.3401 14.8814 71.8446 15.1861C71.3491 15.4908 70.769 15.6431 70.1042 15.6431ZM70.1088 14.4844C70.5397 14.4844 70.8967 14.3705 71.1799 14.1428C71.463 13.915 71.6723 13.6119 71.8077 13.2333C71.9462 12.8548 72.0154 12.4377 72.0154 11.9822C72.0154 11.5298 71.9462 11.1143 71.8077 10.7358C71.6723 10.3542 71.463 10.0479 71.1799 9.81712C70.8967 9.58629 70.5397 9.47088 70.1088 9.47088C69.6749 9.47088 69.3148 9.58629 69.0286 9.81712C68.7454 10.0479 68.5346 10.3542 68.3961 10.7358C68.2607 11.1143 68.193 11.5298 68.193 11.9822C68.193 12.4377 68.2607 12.8548 68.3961 13.2333C68.5346 13.6119 68.7454 13.915 69.0286 14.1428C69.3148 14.3705 69.6749 14.4844 70.1088 14.4844ZM76.3307 11.2898V15.5H74.9504V8.40909H76.2753V9.56321H76.363C76.5261 9.18774 76.7816 8.88613 77.1293 8.65838C77.4802 8.43063 77.9218 8.31676 78.4543 8.31676C78.9375 8.31676 79.3606 8.41832 79.7238 8.62145C80.087 8.8215 80.3686 9.12003 80.5686 9.51705C80.7687 9.91406 80.8687 10.4049 80.8687 10.9897V15.5H79.4884V11.1559C79.4884 10.6419 79.3545 10.2403 79.0867 9.95099C78.819 9.65862 78.4512 9.51243 77.9834 9.51243C77.6633 9.51243 77.3786 9.58168 77.1293 9.72017C76.8831 9.85866 76.6877 10.0618 76.543 10.3295C76.4015 10.5942 76.3307 10.9143 76.3307 11.2898ZM89.4703 8.40909V9.51705H85.5971V8.40909H89.4703ZM86.6358 6.71023H88.0161V13.418C88.0161 13.6857 88.0561 13.8873 88.1362 14.0227C88.2162 14.1551 88.3193 14.2459 88.4455 14.2951C88.5747 14.3413 88.7148 14.3643 88.8656 14.3643C88.9764 14.3643 89.0733 14.3567 89.1564 14.3413C89.2395 14.3259 89.3041 14.3136 89.3503 14.3043L89.5996 15.4446C89.5196 15.4754 89.4057 15.5062 89.258 15.5369C89.1102 15.5708 88.9256 15.5893 88.704 15.5923C88.3408 15.5985 88.0023 15.5339 87.6884 15.3984C87.3744 15.263 87.1205 15.0537 86.9266 14.7706C86.7328 14.4875 86.6358 14.132 86.6358 13.7042V6.71023ZM92.5299 11.2898V15.5H91.1496V6.04546H92.5114V9.56321H92.5991C92.7653 9.18158 93.0192 8.87843 93.3609 8.65376C93.7025 8.4291 94.1487 8.31676 94.6996 8.31676C95.1859 8.31676 95.6106 8.41679 95.9738 8.61683C96.34 8.81688 96.6232 9.11541 96.8232 9.51243C97.0263 9.90637 97.1279 10.3988 97.1279 10.9897V15.5H95.7476V11.1559C95.7476 10.6358 95.6137 10.2326 95.3459 9.94638C95.0782 9.65708 94.7058 9.51243 94.2288 9.51243C93.9025 9.51243 93.6102 9.58168 93.3516 9.72017C93.0962 9.85866 92.8946 10.0618 92.7469 10.3295C92.6022 10.5942 92.5299 10.9143 92.5299 11.2898ZM102.026 15.6431C101.327 15.6431 100.726 15.4938 100.221 15.1953C99.7193 14.8937 99.3315 14.4705 99.0576 13.9258C98.7868 13.378 98.6513 12.7363 98.6513 12.0007C98.6513 11.2744 98.7868 10.6342 99.0576 10.0803C99.3315 9.52628 99.7131 9.09387 100.202 8.78303C100.695 8.47218 101.27 8.31676 101.929 8.31676C102.329 8.31676 102.717 8.38293 103.092 8.51527C103.468 8.64761 103.805 8.85535 104.103 9.13849C104.402 9.42164 104.637 9.78942 104.81 10.2418C104.982 10.6912 105.068 11.2375 105.068 11.8807V12.37H99.4315V11.3359H103.716C103.716 10.9728 103.642 10.6512 103.494 10.3711C103.346 10.0879 103.139 9.86482 102.871 9.7017C102.606 9.53859 102.295 9.45703 101.938 9.45703C101.55 9.45703 101.212 9.55244 100.923 9.74325C100.636 9.93099 100.415 10.1772 100.258 10.4819C100.104 10.7835 100.027 11.1113 100.027 11.4652V12.2731C100.027 12.747 100.11 13.1502 100.276 13.4826C100.446 13.815 100.681 14.0689 100.983 14.2443C101.284 14.4167 101.637 14.5028 102.04 14.5028C102.301 14.5028 102.54 14.4659 102.755 14.392C102.971 14.3151 103.157 14.2012 103.314 14.0504C103.471 13.8996 103.591 13.7134 103.674 13.4918L104.981 13.7273C104.876 14.112 104.688 14.449 104.417 14.7383C104.15 15.0245 103.813 15.2476 103.406 15.4077C103.003 15.5646 102.543 15.6431 102.026 15.6431Z" fill="#E8E8E8"/>
<path d="M108.716 15.5V6.04546H115.169V7.90128H111.001V9.8402H114.758V11.7006H111.001V15.5H108.716ZM119.114 15.6339C118.372 15.6339 117.732 15.4877 117.194 15.1953C116.658 14.8999 116.246 14.4798 115.956 13.935C115.67 13.3872 115.527 12.7363 115.527 11.9822C115.527 11.2498 115.672 10.6096 115.961 10.0618C116.25 9.51089 116.658 9.0831 117.184 8.77841C117.711 8.47064 118.331 8.31676 119.045 8.31676C119.55 8.31676 120.011 8.39524 120.43 8.5522C120.848 8.70916 121.21 8.94152 121.515 9.24929C121.819 9.55705 122.056 9.93714 122.226 10.3896C122.395 10.8389 122.48 11.3544 122.48 11.9361V12.4993H116.317V11.1882H120.379C120.376 10.9482 120.319 10.7343 120.208 10.5465C120.097 10.3588 119.945 10.2126 119.751 10.108C119.56 10.0002 119.34 9.94638 119.091 9.94638C118.839 9.94638 118.612 10.0033 118.412 10.1172C118.212 10.228 118.054 10.3803 117.937 10.5742C117.82 10.765 117.758 10.982 117.752 11.2251V12.5593C117.752 12.8486 117.809 13.1025 117.923 13.321C118.037 13.5365 118.199 13.7042 118.408 13.8242C118.617 13.9442 118.866 14.0043 119.156 14.0043C119.356 14.0043 119.537 13.9766 119.7 13.9212C119.864 13.8658 120.004 13.7842 120.121 13.6765C120.237 13.5688 120.325 13.4364 120.384 13.2795L122.456 13.3395C122.37 13.8042 122.181 14.2089 121.889 14.5536C121.599 14.8952 121.219 15.1615 120.748 15.3523C120.277 15.54 119.733 15.6339 119.114 15.6339ZM126.222 15.6016C125.699 15.6016 125.224 15.4661 124.796 15.1953C124.368 14.9245 124.026 14.5182 123.771 13.9766C123.516 13.4349 123.388 12.7624 123.388 11.9592C123.388 11.1251 123.52 10.4388 123.785 9.90021C124.05 9.36162 124.396 8.96307 124.824 8.70455C125.254 8.44602 125.718 8.31676 126.213 8.31676C126.586 8.31676 126.904 8.38139 127.169 8.51065C127.433 8.63684 127.652 8.79995 127.824 9C127.997 9.20005 128.127 9.40779 128.217 9.62322H128.263V6.04546H130.52V15.5H128.286V14.3505H128.217C128.121 14.569 127.986 14.7737 127.81 14.9645C127.635 15.1553 127.415 15.3092 127.15 15.4261C126.889 15.5431 126.579 15.6016 126.222 15.6016ZM127.007 13.8427C127.281 13.8427 127.515 13.7657 127.709 13.6119C127.903 13.4549 128.052 13.2348 128.157 12.9517C128.261 12.6686 128.314 12.3362 128.314 11.9545C128.314 11.5668 128.261 11.2328 128.157 10.9528C128.055 10.6727 127.906 10.4573 127.709 10.3065C127.515 10.1557 127.281 10.0803 127.007 10.0803C126.727 10.0803 126.49 10.1572 126.296 10.3111C126.102 10.465 125.955 10.6819 125.853 10.962C125.755 11.2421 125.705 11.5729 125.705 11.9545C125.705 12.3362 125.756 12.6686 125.858 12.9517C125.959 13.2348 126.105 13.4549 126.296 13.6119C126.49 13.7657 126.727 13.8427 127.007 13.8427ZM131.948 15.5V8.40909H134.205V15.5H131.948ZM133.079 7.58274C132.762 7.58274 132.49 7.4781 132.262 7.26882C132.034 7.05646 131.92 6.80102 131.92 6.50249C131.92 6.20703 132.034 5.95466 132.262 5.74538C132.49 5.53303 132.762 5.42685 133.079 5.42685C133.399 5.42685 133.671 5.53303 133.896 5.74538C134.124 5.95466 134.238 6.20703 134.238 6.50249C134.238 6.80102 134.124 7.05646 133.896 7.26882C133.671 7.4781 133.399 7.58274 133.079 7.58274ZM142.521 8.40909L140.088 15.5H137.503L135.074 8.40909H137.452L138.758 13.2933H138.832L140.143 8.40909H142.521ZM146.473 15.6339C145.731 15.6339 145.091 15.4877 144.552 15.1953C144.017 14.8999 143.604 14.4798 143.315 13.935C143.029 13.3872 142.886 12.7363 142.886 11.9822C142.886 11.2498 143.03 10.6096 143.319 10.0618C143.609 9.51089 144.017 9.0831 144.543 8.77841C145.069 8.47064 145.689 8.31676 146.403 8.31676C146.908 8.31676 147.37 8.39524 147.788 8.5522C148.207 8.70916 148.568 8.94152 148.873 9.24929C149.178 9.55705 149.415 9.93714 149.584 10.3896C149.753 10.8389 149.838 11.3544 149.838 11.9361V12.4993H143.675V11.1882H147.737C147.734 10.9482 147.677 10.7343 147.567 10.5465C147.456 10.3588 147.303 10.2126 147.11 10.108C146.919 10.0002 146.699 9.94638 146.449 9.94638C146.197 9.94638 145.971 10.0033 145.771 10.1172C145.571 10.228 145.412 10.3803 145.295 10.5742C145.178 10.765 145.117 10.982 145.111 11.2251V12.5593C145.111 12.8486 145.168 13.1025 145.281 13.321C145.395 13.5365 145.557 13.7042 145.766 13.8242C145.975 13.9442 146.225 14.0043 146.514 14.0043C146.714 14.0043 146.896 13.9766 147.059 13.9212C147.222 13.8658 147.362 13.7842 147.479 13.6765C147.596 13.5688 147.684 13.4364 147.742 13.2795L149.815 13.3395C149.729 13.8042 149.539 14.2089 149.247 14.5536C148.958 14.8952 148.578 15.1615 148.107 15.3523C147.636 15.54 147.091 15.6339 146.473 15.6339ZM150.991 15.5V8.40909H153.184V9.7017H153.258C153.387 9.2339 153.598 8.88613 153.89 8.65838C154.182 8.42756 154.523 8.31215 154.91 8.31215C155.015 8.31215 155.123 8.31984 155.233 8.33523C155.344 8.34754 155.447 8.36754 155.543 8.39524V10.3572C155.435 10.3203 155.293 10.2911 155.118 10.2695C154.946 10.248 154.792 10.2372 154.656 10.2372C154.389 10.2372 154.147 10.2972 153.932 10.4173C153.719 10.5342 153.552 10.6989 153.428 10.9112C153.308 11.1205 153.248 11.3667 153.248 11.6499V15.5H150.991ZM162.653 10.5742L160.58 10.6296C160.559 10.4819 160.5 10.3511 160.405 10.2372C160.31 10.1203 160.185 10.0295 160.031 9.96484C159.88 9.89714 159.705 9.86328 159.505 9.86328C159.243 9.86328 159.02 9.9156 158.835 10.0202C158.654 10.1249 158.565 10.2665 158.568 10.445C158.565 10.5835 158.62 10.7035 158.734 10.805C158.851 10.9066 159.059 10.9882 159.357 11.0497L160.724 11.3082C161.431 11.4437 161.958 11.6683 162.302 11.9822C162.65 12.2962 162.826 12.7116 162.829 13.2287C162.826 13.715 162.681 14.1381 162.395 14.4982C162.112 14.8583 161.724 15.1384 161.231 15.3384C160.739 15.5354 160.176 15.6339 159.542 15.6339C158.529 15.6339 157.731 15.4261 157.146 15.0107C156.564 14.5921 156.232 14.032 156.149 13.3303L158.378 13.2749C158.428 13.5334 158.555 13.7303 158.762 13.8658C158.968 14.0012 159.231 14.0689 159.551 14.0689C159.84 14.0689 160.076 14.015 160.257 13.9073C160.439 13.7996 160.531 13.6565 160.534 13.478C160.531 13.3179 160.46 13.1902 160.322 13.0948C160.183 12.9963 159.966 12.9194 159.671 12.864L158.434 12.6286C157.723 12.4993 157.194 12.2608 156.846 11.913C156.498 11.5621 156.326 11.1159 156.329 10.5742C156.326 10.1003 156.452 9.69555 156.707 9.36009C156.963 9.02154 157.326 8.76302 157.797 8.58452C158.268 8.40601 158.823 8.31676 159.463 8.31676C160.424 8.31676 161.181 8.51835 161.735 8.92152C162.289 9.32161 162.595 9.87251 162.653 10.5742ZM167.255 15.6339C166.513 15.6339 165.873 15.4877 165.334 15.1953C164.799 14.8999 164.386 14.4798 164.097 13.935C163.811 13.3872 163.668 12.7363 163.668 11.9822C163.668 11.2498 163.812 10.6096 164.102 10.0618C164.391 9.51089 164.799 9.0831 165.325 8.77841C165.851 8.47064 166.471 8.31676 167.185 8.31676C167.69 8.31676 168.152 8.39524 168.57 8.5522C168.989 8.70916 169.351 8.94152 169.655 9.24929C169.96 9.55705 170.197 9.93714 170.366 10.3896C170.536 10.8389 170.62 11.3544 170.62 11.9361V12.4993H164.457V11.1882H168.52C168.517 10.9482 168.46 10.7343 168.349 10.5465C168.238 10.3588 168.086 10.2126 167.892 10.108C167.701 10.0002 167.481 9.94638 167.232 9.94638C166.979 9.94638 166.753 10.0033 166.553 10.1172C166.353 10.228 166.194 10.3803 166.078 10.5742C165.961 10.765 165.899 10.982 165.893 11.2251V12.5593C165.893 12.8486 165.95 13.1025 166.064 13.321C166.178 13.5365 166.339 13.7042 166.548 13.8242C166.758 13.9442 167.007 14.0043 167.296 14.0043C167.496 14.0043 167.678 13.9766 167.841 13.9212C168.004 13.8658 168.144 13.7842 168.261 13.6765C168.378 13.5688 168.466 13.4364 168.524 13.2795L170.597 13.3395C170.511 13.8042 170.322 14.2089 170.029 14.5536C169.74 14.8952 169.36 15.1615 168.889 15.3523C168.418 15.54 167.873 15.6339 167.255 15.6339Z" fill="white"/>
</g>
</g>
<rect x="0.6" y="0.6" width="175.8" height="19.8" rx="4.4" stroke="url(#paint0_linear_2023_2)" stroke-opacity="0.75" stroke-width="1.2"/>
<defs>
<filter id="filter0_d_2023_2" x="-0.60028" y="-3.10028" width="27.2006" height="27.2006" filterUnits="userSpaceOnUse" color-interpolation-filters="sRGB">
<feFlood flood-opacity="0" result="BackgroundImageFix"/>
<feColorMatrix in="SourceAlpha" type="matrix" values="0 0 0 0 0 0 0 0 0 0 0 0 0 0 0 0 0 0 127 0" result="hardAlpha"/>
<feOffset/>
<feGaussianBlur stdDeviation="2.80014"/>
<feComposite in2="hardAlpha" operator="out"/>
<feColorMatrix type="matrix" values="0 0 0 0 0 0 0 0 0 0 0 0 0 0 0 0 0 0 0.25 0"/>
<feBlend mode="normal" in2="BackgroundImageFix" result="effect1_dropShadow_2023_2"/>
<feBlend mode="normal" in="SourceGraphic" in2="effect1_dropShadow_2023_2" result="shape"/>
</filter>
<filter id="filter1_d_2023_2" x="17.2857" y="-3.21428" width="160.429" height="27.4286" filterUnits="userSpaceOnUse" color-interpolation-filters="sRGB">
<feFlood flood-opacity="0" result="BackgroundImageFix"/>
<feColorMatrix in="SourceAlpha" type="matrix" values="0 0 0 0 0 0 0 0 0 0 0 0 0 0 0 0 0 0 127 0" result="hardAlpha"/>
<feOffset/>
<feGaussianBlur stdDeviation="2.85714"/>
<feComposite in2="hardAlpha" operator="out"/>
<feColorMatrix type="matrix" values="0 0 0 0 0 0 0 0 0 0 0 0 0 0 0 0 0 0 0.25 0"/>
<feBlend mode="normal" in2="BackgroundImageFix" result="effect1_dropShadow_2023_2"/>
<feBlend mode="normal" in="SourceGraphic" in2="effect1_dropShadow_2023_2" result="shape"/>
</filter>
<linearGradient id="paint0_linear_2023_2" x1="0" y1="10.5" x2="177" y2="10.5" gradientUnits="userSpaceOnUse">
<stop stop-color="#FFCA00"/>
<stop offset="0.25" stop-color="#FF0000"/>
<stop offset="0.5" stop-color="#9500FF"/>
<stop offset="0.75" stop-color="#00A3FF"/>
<stop offset="1" stop-color="#64FF00"/>
</linearGradient>
<clipPath id="clip0_2023_2">
<rect width="177" height="21" rx="5" fill="white"/>
</clipPath>
<clipPath id="clip1_2023_2">
<rect width="16" height="16" fill="white" transform="translate(5 2.5)"/>
</clipPath>
</defs>
</svg>
