<svg xmlns="http://www.w3.org/2000/svg" width="142" height="21" fill="none"><g clip-path="url(#a)"><rect width="142" height="21" fill="#000" rx="5"/><g filter="url(#b)"><g clip-path="url(#c)"><path fill="#fff" d="M16.66 7.57a3.4 3.4 0 0 1 1.01-.95c1.2-.69 2.45-.6 3.04.4.59 1 .27 2.1-.85 2.86-.57.34-1.13.55-1.74.63M9.34 7.57a3.4 3.4 0 0 0-1.01-.95c-1.2-.69-2.45-.6-3.04.4-.6 1-.27 2.1.85 2.86.57.34 1.13.55 1.74.63"/><path fill="#fff" d="M13 6.6c-3.73.07-5.33 1.84-5.17 4.5.12 1.95 1.92 3.5 3.66 4.12a1.62 1.62 0 0 1-.06-.4c-.03-.84.63-1.53 1.57-1.53a1.52 1.52 0 0 1 1.52 1.91c1.72-.62 3.5-2.17 3.65-4.1.2-2.67-1.44-4.55-5.17-4.5Zm-2.5 4.95a.75.75 0 1 1 0 1.51.75.75 0 0 1 0-1.5Zm5 .01a.75.75 0 1 1 0 1.5.75.75 0 0 1 0-1.5Z"/><path stroke="#fff" stroke-linecap="round" stroke-width=".71" d="m9.92 14.38-.97 1.29m7.13-1.3.97 1.3M8.56 13.1 7 13.74m10.37-.64 1.56.64"/><path stroke="#fff" stroke-linecap="round" stroke-linejoin="round" stroke-width=".5" d="M13 13.29c-.94 0-1.6.7-1.57 1.52.02.88.71 1.52 1.57 1.52.88 0 1.57-.7 1.57-1.52A1.5 1.5 0 0 0 13 13.29Z"/></g></g><g filter="url(#d)"><path fill="#E8E8E8" d="M24.04 15.5V6.05h1.43v8.22h4.28v1.23h-5.71Zm10.28.14a3.04 3.04 0 0 1-2.97-1.72 4.3 4.3 0 0 1-.4-1.92c0-.73.13-1.37.4-1.92.28-.55.66-.99 1.15-1.3a3.47 3.47 0 0 1 2.89-.27 2.82 2.82 0 0 1 1.72 1.73c.17.45.25 1 .25 1.64v.49h-5.63v-1.03H36c0-.37-.07-.69-.22-.97a1.67 1.67 0 0 0-1.56-.91c-.38 0-.72.1-1.01.28-.29.2-.5.44-.67.74-.15.3-.23.63-.23.99v.8c0 .48.09.88.25 1.21.17.33.4.59.7.76.31.18.66.26 1.07.26.26 0 .5-.03.71-.1a1.48 1.48 0 0 0 .92-.9l1.3.23a2.54 2.54 0 0 1-1.56 1.68c-.41.15-.87.23-1.39.23Zm4.58-.14V8.4h1.32v1.16h.09c.15-.39.39-.7.72-.91.34-.22.74-.33 1.2-.33a2 2 0 0 1 1.2.33c.32.22.56.53.71.91h.08a2 2 0 0 1 .8-.9 2.5 2.5 0 0 1 1.33-.34c.64 0 1.16.2 1.57.6.41.4.61 1.01.61 1.82v4.76h-1.38v-4.63c0-.48-.13-.82-.39-1.04a1.43 1.43 0 0 0-.93-.32c-.45 0-.8.14-1.05.41-.25.28-.38.63-.38 1.06v4.52h-1.37v-4.71c0-.39-.12-.7-.36-.93a1.29 1.29 0 0 0-.94-.35c-.26 0-.5.07-.72.2-.22.14-.4.33-.54.57-.13.25-.2.53-.2.85v4.37H38.9Zm11.48 0V8.4h1.33v1.16h.09c.15-.39.39-.7.72-.91.34-.22.74-.33 1.2-.33a2 2 0 0 1 1.2.33c.32.22.56.53.71.91h.08a2 2 0 0 1 .8-.9c.37-.23.82-.34 1.33-.34.64 0 1.16.2 1.57.6.41.4.61 1.01.61 1.82v4.76h-1.38v-4.63c0-.48-.13-.82-.39-1.04a1.43 1.43 0 0 0-.94-.32c-.45 0-.8.14-1.04.41-.25.28-.38.63-.38 1.06v4.52h-1.37v-4.71c0-.39-.12-.7-.36-.93a1.29 1.29 0 0 0-.94-.35c-.26 0-.5.07-.73.2a1.62 1.62 0 0 0-.73 1.42v4.37h-1.38Zm12.11 2.66a2.88 2.88 0 0 1-.94-.15l.33-1.13c.26.06.48.1.68.08a.8.8 0 0 0 .52-.22c.15-.14.29-.36.4-.68l.18-.47-2.6-7.18h1.48l1.8 5.5h.07l1.8-5.5h1.48l-2.93 8.04c-.13.37-.3.68-.51.93a2 2 0 0 1-.75.59c-.29.12-.63.19-1 .19Zm12.92-2.52c-.66 0-1.24-.15-1.74-.45-.5-.3-.88-.73-1.15-1.28a4.24 4.24 0 0 1-.41-1.92c0-.74.13-1.38.4-1.93a3.08 3.08 0 0 1 2.9-1.74c.67 0 1.25.15 1.74.45.5.3.88.74 1.16 1.29.27.55.4 1.2.4 1.93s-.13 1.37-.4 1.92a3.08 3.08 0 0 1-2.9 1.73Zm0-1.16c.44 0 .8-.11 1.08-.34a2 2 0 0 0 .62-.9 3.75 3.75 0 0 0 .01-2.5 2.03 2.03 0 0 0-.63-.92 1.64 1.64 0 0 0-1.07-.35c-.44 0-.8.12-1.08.35-.29.23-.5.53-.64.92a3.81 3.81 0 0 0 0 2.49c.14.38.35.68.64.91.28.23.64.34 1.08.34Zm6.23-3.19v4.21h-1.38V8.4h1.32v1.16h.09c.16-.37.42-.67.77-.9.35-.23.79-.34 1.32-.34.48 0 .9.1 1.27.3.36.2.65.5.85.9.2.4.3.88.3 1.47v4.51h-1.39v-4.34c0-.52-.13-.92-.4-1.2-.26-.3-.63-.45-1.1-.45-.32 0-.6.07-.85.21a1.5 1.5 0 0 0-.59.6c-.14.27-.21.6-.21.97Z"/><path fill="#fff" d="M90.72 15.5V6.05H93v7.6h3.93v1.85h-6.21Zm10.71.13a4 4 0 0 1-1.92-.43c-.53-.3-.95-.72-1.24-1.26a4.16 4.16 0 0 1-.43-1.96c0-.73.15-1.37.44-1.92.29-.55.7-.98 1.22-1.28a4.14 4.14 0 0 1 3.25-.23 2.98 2.98 0 0 1 1.8 1.84c.16.45.25.96.25 1.55v.56h-6.17v-1.31h4.07c0-.24-.06-.46-.17-.64a1.17 1.17 0 0 0-.46-.44c-.2-.11-.41-.16-.66-.16a1.35 1.35 0 0 0-1.16.62c-.11.2-.17.41-.18.66v1.33c0 .29.06.54.17.76.11.22.28.38.48.5.21.12.46.18.75.18.2 0 .39-.02.55-.08.16-.05.3-.14.42-.24a1 1 0 0 0 .26-.4l2.07.06a2.5 2.5 0 0 1-.56 1.21c-.3.35-.67.61-1.14.8a4.4 4.4 0 0 1-1.64.28Zm4.52-.13V8.4h2.15v1.31h.08a2.02 2.02 0 0 1 2-1.4c.5 0 .91.13 1.26.39.35.25.58.59.67 1.01h.08c.13-.42.39-.76.77-1.01a2.4 2.4 0 0 1 1.36-.38c.68 0 1.22.21 1.64.64.42.43.63 1.02.63 1.77v4.77h-2.26v-4.26c0-.35-.1-.62-.27-.8a.94.94 0 0 0-.71-.29c-.31 0-.55.1-.73.3-.18.2-.27.48-.27.82v4.23h-2.17v-4.28c0-.33-.09-.59-.27-.78a.92.92 0 0 0-.7-.29.96.96 0 0 0-.88.54 1.4 1.4 0 0 0-.12.61v4.2h-2.26Zm12.03 0V8.4h2.15v1.31h.08a2.02 2.02 0 0 1 2-1.4c.5 0 .92.13 1.27.39.35.25.57.59.67 1.01h.07c.13-.42.4-.76.78-1.01a2.4 2.4 0 0 1 1.36-.38c.67 0 1.22.21 1.63.64.42.43.63 1.02.63 1.77v4.77h-2.26v-4.26c0-.35-.09-.62-.27-.8a.94.94 0 0 0-.7-.29c-.32 0-.56.1-.74.3-.17.2-.26.48-.26.82v4.23h-2.17v-4.28c0-.33-.1-.59-.27-.78a.92.92 0 0 0-.7-.29.95.95 0 0 0-.88.54 1.4 1.4 0 0 0-.13.61v4.2H118Zm13.17 2.66a4.35 4.35 0 0 1-1.39-.23l.5-1.64c.22.08.42.12.6.13a.8.8 0 0 0 .47-.08.66.66 0 0 0 .3-.37l.09-.21-2.52-7.35h2.36l1.3 5.06h.08l1.33-5.06h2.38l-2.68 7.77c-.13.39-.31.73-.55 1.02-.23.3-.53.54-.9.7-.38.17-.83.26-1.37.26Z"/></g></g><rect width="140.8" height="19.8" x=".6" y=".6" stroke="url(#e)" stroke-opacity=".88" stroke-width="1.2" rx="4.4"/><defs><clipPath id="a"><rect width="142" height="21" fill="#fff" rx="5"/></clipPath><clipPath id="c"><path fill="#fff" d="M5 3h16v16H5z"/></clipPath><filter id="b" width="27.2" height="27.7" x="-.6" y="-3.1" color-interpolation-filters="sRGB" filterUnits="userSpaceOnUse"><feFlood flood-opacity="0" result="BackgroundImageFix"/><feColorMatrix in="SourceAlpha" result="hardAlpha" values="0 0 0 0 0 0 0 0 0 0 0 0 0 0 0 0 0 0 127 0"/><feOffset/><feGaussianBlur stdDeviation="2.8"/><feComposite in2="hardAlpha" operator="out"/><feColorMatrix values="0 0 0 0 0 0 0 0 0 0 0 0 0 0 0 0 0 0 0.25 0"/><feBlend in2="BackgroundImageFix" result="effect1_dropShadow_2035_39"/><feBlend in="SourceGraphic" in2="effect1_dropShadow_2035_39" result="shape"/></filter><filter id="d" width="125.43" height="27.43" x="17.29" y="-3.21" color-interpolation-filters="sRGB" filterUnits="userSpaceOnUse"><feFlood flood-opacity="0" result="BackgroundImageFix"/><feColorMatrix in="SourceAlpha" result="hardAlpha" values="0 0 0 0 0 0 0 0 0 0 0 0 0 0 0 0 0 0 127 0"/><feOffset/><feGaussianBlur stdDeviation="2.86"/><feComposite in2="hardAlpha" operator="out"/><feColorMatrix values="0 0 0 0 0 0 0 0 0 0 0 0 0 0 0 0 0 0 0.25 0"/><feBlend in2="BackgroundImageFix" result="effect1_dropShadow_2035_39"/><feBlend in="SourceGraphic" in2="effect1_dropShadow_2035_39" result="shape"/></filter><linearGradient id="e" x1="0" x2="142" y1="10.5" y2="10.5" gradientUnits="userSpaceOnUse"><stop stop-color="#12D10E"/><stop offset=".5" stop-color="#69D066"/><stop offset="1" stop-color="#06C698"/></linearGradient></defs></svg>