<svg xmlns="http://www.w3.org/2000/svg" width="124" height="21" fill="none"><g clip-path="url(#a)"><rect width="124" height="21" fill="#000" rx="5"/><g filter="url(#b)"><g clip-path="url(#c)"><path fill="#fff" d="M16.66 7.57a3.4 3.4 0 0 1 1.01-.95c1.2-.69 2.45-.6 3.04.4.59 1 .27 2.1-.85 2.86-.57.34-1.13.55-1.74.63M9.34 7.57a3.4 3.4 0 0 0-1.01-.95c-1.2-.69-2.45-.6-3.04.4-.6 1-.27 2.1.85 2.86.57.34 1.13.55 1.74.63"/><path fill="#fff" d="M13 6.6c-3.73.07-5.33 1.84-5.17 4.5.12 1.95 1.92 3.5 3.66 4.12a1.62 1.62 0 0 1-.06-.4c-.03-.84.63-1.53 1.57-1.53a1.52 1.52 0 0 1 1.52 1.91c1.72-.62 3.5-2.17 3.65-4.1.2-2.67-1.44-4.55-5.17-4.5Zm-2.5 4.95a.75.75 0 1 1 0 1.51.75.75 0 0 1 0-1.5Zm5 .01a.75.75 0 1 1 0 1.5.75.75 0 0 1 0-1.5Z"/><path stroke="#fff" stroke-linecap="round" stroke-width=".71" d="m9.92 14.38-.97 1.29m7.13-1.3.97 1.3M8.56 13.1 7 13.74m10.37-.64 1.56.64"/><path stroke="#fff" stroke-linecap="round" stroke-linejoin="round" stroke-width=".5" d="M13 13.29c-.94 0-1.6.7-1.57 1.52.02.88.71 1.52 1.57 1.52.88 0 1.57-.7 1.57-1.52A1.5 1.5 0 0 0 13 13.29Z"/></g></g><g filter="url(#d)"><path fill="#E8E8E8" d="M24.84 15.5h-1.52l3.4-9.45h1.65l3.4 9.45h-1.5l-2.68-7.74h-.08l-2.67 7.74Zm.25-3.7H30V13h-4.9v-1.2Zm9.32-5.75v9.45h-1.38V6.05h1.38Zm7.17 4.09-1.25.22a1.48 1.48 0 0 0-.25-.46 1.23 1.23 0 0 0-.45-.35c-.2-.1-.43-.14-.72-.14-.39 0-.71.09-.98.26-.26.18-.39.4-.39.67 0 .24.09.43.27.58.17.14.45.26.84.35l1.13.26c.65.15 1.14.38 1.46.7.32.31.48.72.48 1.22 0 .43-.12.8-.37 1.14-.24.33-.58.58-1.02.77-.43.19-.94.28-1.5.28a3.4 3.4 0 0 1-1.95-.5 2.2 2.2 0 0 1-.93-1.46l1.34-.2c.08.35.25.6.51.79.26.17.6.26 1.01.26.45 0 .82-.1 1.09-.28.27-.2.4-.42.4-.7 0-.22-.08-.4-.25-.56a1.63 1.63 0 0 0-.75-.34l-1.2-.26a2.88 2.88 0 0 1-1.47-.72 1.74 1.74 0 0 1-.47-1.25c0-.42.12-.79.35-1.1.24-.32.56-.56.97-.74a3.7 3.7 0 0 1 1.42-.26c.77 0 1.37.16 1.8.5.45.32.74.77.88 1.32Zm4.64 5.5c-.66 0-1.24-.15-1.74-.45-.5-.3-.88-.73-1.15-1.28a4.24 4.24 0 0 1-.41-1.92c0-.74.14-1.38.41-1.93a3.08 3.08 0 0 1 2.9-1.74c.66 0 1.24.15 1.73.45.5.3.88.74 1.16 1.29.27.55.41 1.2.41 1.93s-.14 1.37-.41 1.92a3.08 3.08 0 0 1-2.9 1.73Zm0-1.16c.44 0 .8-.11 1.08-.34a2 2 0 0 0 .63-.9c.14-.39.2-.8.2-1.26 0-.45-.06-.87-.2-1.24a2.03 2.03 0 0 0-.63-.92 1.64 1.64 0 0 0-1.07-.35c-.43 0-.8.12-1.08.35-.28.23-.5.53-.63.92-.14.37-.2.79-.2 1.24 0 .46.06.87.2 1.25a2 2 0 0 0 .63.91c.28.23.65.34 1.08.34Zm11.28 1.16a3.07 3.07 0 0 1-2.9-1.73 4.24 4.24 0 0 1-.4-1.92c0-.74.13-1.38.4-1.93a3.08 3.08 0 0 1 2.9-1.74 3 3 0 0 1 2.89 1.74c.28.55.41 1.2.41 1.93s-.13 1.37-.4 1.92a3.08 3.08 0 0 1-2.9 1.73Zm0-1.16c.43 0 .79-.11 1.07-.34a2 2 0 0 0 .63-.9c.14-.39.2-.8.2-1.26 0-.45-.06-.87-.2-1.24a2.03 2.03 0 0 0-.63-.92 1.64 1.64 0 0 0-1.07-.35c-.43 0-.8.12-1.08.35-.28.23-.5.53-.63.92-.14.37-.2.79-.2 1.24 0 .46.06.87.2 1.25s.35.68.63.91c.29.23.65.34 1.08.34Zm6.22-3.19v4.21h-1.38V8.4h1.33v1.16h.09c.16-.37.42-.67.76-.9.35-.23.8-.34 1.33-.34.48 0 .9.1 1.27.3.36.2.64.5.84.9.2.4.3.88.3 1.47v4.51h-1.38v-4.34c0-.52-.13-.92-.4-1.2-.27-.3-.64-.45-1.1-.45-.32 0-.6.07-.86.21a1.5 1.5 0 0 0-.58.6c-.14.27-.22.6-.22.97Z"/><path fill="#fff" d="M72.72 15.5V6.05H75v7.6h3.93v1.85h-6.21Zm10.71.13a4 4 0 0 1-1.92-.43c-.53-.3-.95-.72-1.24-1.26a4.16 4.16 0 0 1-.43-1.96c0-.73.15-1.37.44-1.92.29-.55.7-.98 1.22-1.28a4.14 4.14 0 0 1 3.25-.23 2.98 2.98 0 0 1 1.8 1.84c.16.45.25.96.25 1.55v.56h-6.17v-1.31h4.07c0-.24-.06-.46-.17-.64a1.16 1.16 0 0 0-.46-.44c-.2-.11-.41-.16-.66-.16a1.35 1.35 0 0 0-1.16.62c-.11.2-.17.41-.18.66v1.33c0 .29.06.54.17.76.11.22.28.38.49.5.2.12.45.18.74.18.2 0 .38-.02.55-.08.16-.05.3-.14.42-.24.11-.11.2-.24.26-.4l2.07.06a2.5 2.5 0 0 1-.56 1.21c-.3.35-.67.61-1.14.8a4.4 4.4 0 0 1-1.64.28Zm4.52-.13V8.4h2.15v1.31h.08a2.02 2.02 0 0 1 2-1.4c.5 0 .91.13 1.26.39.35.25.58.59.67 1.01h.08c.13-.42.39-.76.77-1.01a2.4 2.4 0 0 1 1.36-.38c.68 0 1.22.21 1.64.64.42.43.63 1.02.63 1.77v4.77h-2.26v-4.26c0-.35-.1-.62-.27-.8a.94.94 0 0 0-.71-.29c-.31 0-.56.1-.73.3-.18.2-.27.48-.27.82v4.23h-2.17v-4.28c0-.33-.09-.59-.26-.78a.92.92 0 0 0-.71-.29.95.95 0 0 0-.88.54c-.08.18-.12.38-.12.61v4.2h-2.26Zm12.04 0V8.4h2.14v1.31h.08a2.02 2.02 0 0 1 2-1.4c.5 0 .92.13 1.27.39.35.25.57.59.67 1.01h.07c.13-.42.4-.76.78-1.01a2.4 2.4 0 0 1 1.36-.38c.67 0 1.22.21 1.63.64.42.43.63 1.02.63 1.77v4.77h-2.26v-4.26c0-.35-.09-.62-.27-.8a.94.94 0 0 0-.7-.29c-.32 0-.56.1-.74.3-.17.2-.26.48-.26.82v4.23h-2.17v-4.28c0-.33-.1-.59-.27-.78a.92.92 0 0 0-.7-.29.95.95 0 0 0-.88.54 1.4 1.4 0 0 0-.13.61v4.2H100Zm13.16 2.66a4.35 4.35 0 0 1-1.39-.23l.5-1.64c.22.08.42.12.6.13a.8.8 0 0 0 .47-.08.66.66 0 0 0 .3-.37l.09-.21-2.52-7.35h2.36l1.3 5.06h.08l1.33-5.06h2.38l-2.68 7.77c-.13.39-.31.73-.55 1.02-.23.3-.53.54-.9.7-.38.17-.83.26-1.37.26Z"/></g></g><rect width="122.8" height="19.8" x=".6" y=".6" stroke="url(#e)" stroke-opacity=".88" stroke-width="1.2" rx="4.4"/><defs><clipPath id="a"><rect width="124" height="21" fill="#fff" rx="5"/></clipPath><clipPath id="c"><path fill="#fff" d="M5 3h16v16H5z"/></clipPath><filter id="b" width="27.2" height="27.7" x="-.6" y="-3.1" color-interpolation-filters="sRGB" filterUnits="userSpaceOnUse"><feFlood flood-opacity="0" result="BackgroundImageFix"/><feColorMatrix in="SourceAlpha" result="hardAlpha" values="0 0 0 0 0 0 0 0 0 0 0 0 0 0 0 0 0 0 127 0"/><feOffset/><feGaussianBlur stdDeviation="2.8"/><feComposite in2="hardAlpha" operator="out"/><feColorMatrix values="0 0 0 0 0 0 0 0 0 0 0 0 0 0 0 0 0 0 0.25 0"/><feBlend in2="BackgroundImageFix" result="effect1_dropShadow_2035_51"/><feBlend in="SourceGraphic" in2="effect1_dropShadow_2035_51" result="shape"/></filter><filter id="d" width="107.43" height="27.43" x="17.29" y="-3.21" color-interpolation-filters="sRGB" filterUnits="userSpaceOnUse"><feFlood flood-opacity="0" result="BackgroundImageFix"/><feColorMatrix in="SourceAlpha" result="hardAlpha" values="0 0 0 0 0 0 0 0 0 0 0 0 0 0 0 0 0 0 127 0"/><feOffset/><feGaussianBlur stdDeviation="2.86"/><feComposite in2="hardAlpha" operator="out"/><feColorMatrix values="0 0 0 0 0 0 0 0 0 0 0 0 0 0 0 0 0 0 0.25 0"/><feBlend in2="BackgroundImageFix" result="effect1_dropShadow_2035_51"/><feBlend in="SourceGraphic" in2="effect1_dropShadow_2035_51" result="shape"/></filter><linearGradient id="e" x1="0" x2="124" y1="10.5" y2="10.5" gradientUnits="userSpaceOnUse"><stop stop-color="#12D10E"/><stop offset=".5" stop-color="#69D066"/><stop offset="1" stop-color="#06C698"/></linearGradient></defs></svg>