<svg width="154" height="21" viewBox="0 0 154 21" fill="none" xmlns="http://www.w3.org/2000/svg">
<g clip-path="url(#clip0_2006_8)">
<rect width="154" height="21" rx="5" fill="black"/>
<g filter="url(#filter0_d_2006_8)">
<g clip-path="url(#clip1_2006_8)">
<path d="M19.9435 6.40997C19.7279 4.82665 18.3309 3.57888 16.6748 3.33709C16.3954 3.29624 15.3368 3.14755 12.8846 3.14755H12.8663C10.4134 3.14755 9.88718 3.29624 9.60778 3.33709C7.99784 3.57218 6.52761 4.69336 6.1709 6.29544C5.99932 7.08442 5.98101 7.95913 6.01289 8.7615C6.05832 9.91215 6.06714 11.0608 6.17293 12.2068C6.24607 12.968 6.37365 13.7231 6.55473 14.4665C6.89381 15.8396 8.26639 16.9822 9.61117 17.4483C11.051 17.9345 12.5993 18.0152 14.0829 17.6814C14.2461 17.6439 14.4075 17.6004 14.5671 17.5508C14.9272 17.4376 15.3497 17.311 15.6603 17.0887C15.6646 17.0855 15.6681 17.0815 15.6705 17.0769C15.673 17.0722 15.6744 17.0671 15.6745 17.0619V15.9514C15.6745 15.9465 15.6733 15.9417 15.6711 15.9373C15.6689 15.9329 15.6657 15.9291 15.6618 15.9261C15.6579 15.923 15.6534 15.9209 15.6485 15.9199C15.6437 15.9188 15.6387 15.9188 15.6339 15.9199C14.6833 16.1442 13.7093 16.2566 12.732 16.2548C11.0502 16.2548 10.5979 15.4665 10.4683 15.1383C10.3642 14.8547 10.2981 14.5588 10.2717 14.2582C10.2714 14.2532 10.2724 14.2482 10.2744 14.2435C10.2765 14.2389 10.2796 14.2348 10.2836 14.2316C10.2876 14.2284 10.2922 14.2262 10.2972 14.2251C10.3022 14.2241 10.3074 14.2242 10.3124 14.2254C11.2471 14.4482 12.2052 14.5606 13.1667 14.5603C13.398 14.5603 13.6285 14.5603 13.8598 14.5543C14.8268 14.5275 15.8461 14.4786 16.7976 14.2951C16.8213 14.2904 16.845 14.2864 16.8654 14.2803C18.3661 13.9957 19.7943 13.1022 19.9394 10.8398C19.9449 10.7507 19.9584 9.9068 19.9584 9.81437C19.9591 9.50026 20.0608 7.58607 19.9435 6.40997ZM17.6337 12.0554H16.0557V8.23775C16.0557 7.43404 15.7166 7.02414 15.0269 7.02414C14.2687 7.02414 13.889 7.50904 13.889 8.46682V10.5565H12.3204V8.46682C12.3204 7.50904 11.94 7.02414 11.1818 7.02414C10.4962 7.02414 10.1537 7.43404 10.153 8.23775V12.0554H8.5763V8.12187C8.5763 7.31816 8.78405 6.67965 9.19953 6.20635C9.62812 5.73418 10.1903 5.49173 10.8881 5.49173C11.6958 5.49173 12.3061 5.79847 12.713 6.4113L13.1057 7.06232L13.499 6.4113C13.9059 5.79847 14.5163 5.49173 15.3226 5.49173C16.0197 5.49173 16.5819 5.73418 17.0119 6.20635C17.4273 6.67921 17.6351 7.31772 17.6351 8.12187L17.6337 12.0554Z" fill="white"/>
</g>
</g>
<g filter="url(#filter1_d_2006_8)">
<path d="M24.0387 15.5V6.04546H29.9016V7.27344H25.4652V10.1541H29.4815V11.3775H25.4652V15.5H24.0387ZM34.0114 15.6431C33.3467 15.6431 32.7665 15.4908 32.271 15.1861C31.7755 14.8814 31.3908 14.4551 31.1169 13.9073C30.843 13.3595 30.7061 12.7193 30.7061 11.9869C30.7061 11.2513 30.843 10.6081 31.1169 10.0572C31.3908 9.50627 31.7755 9.07848 32.271 8.77379C32.7665 8.46911 33.3467 8.31676 34.0114 8.31676C34.6762 8.31676 35.2564 8.46911 35.7519 8.77379C36.2474 9.07848 36.6321 9.50627 36.906 10.0572C37.1799 10.6081 37.3168 11.2513 37.3168 11.9869C37.3168 12.7193 37.1799 13.3595 36.906 13.9073C36.6321 14.4551 36.2474 14.8814 35.7519 15.1861C35.2564 15.4908 34.6762 15.6431 34.0114 15.6431ZM34.0161 14.4844C34.4469 14.4844 34.8039 14.3705 35.0871 14.1428C35.3702 13.915 35.5795 13.6119 35.7149 13.2333C35.8534 12.8548 35.9227 12.4377 35.9227 11.9822C35.9227 11.5298 35.8534 11.1143 35.7149 10.7358C35.5795 10.3542 35.3702 10.0479 35.0871 9.81712C34.8039 9.58629 34.4469 9.47088 34.0161 9.47088C33.5821 9.47088 33.222 9.58629 32.9358 9.81712C32.6527 10.0479 32.4418 10.3542 32.3034 10.7358C32.1679 11.1143 32.1002 11.5298 32.1002 11.9822C32.1002 12.4377 32.1679 12.8548 32.3034 13.2333C32.4418 13.6119 32.6527 13.915 32.9358 14.1428C33.222 14.3705 33.5821 14.4844 34.0161 14.4844ZM40.2379 6.04546V15.5H38.8576V6.04546H40.2379ZM43.4752 6.04546V15.5H42.0949V6.04546H43.4752ZM48.3191 15.6431C47.6543 15.6431 47.0742 15.4908 46.5787 15.1861C46.0831 14.8814 45.6984 14.4551 45.4245 13.9073C45.1506 13.3595 45.0137 12.7193 45.0137 11.9869C45.0137 11.2513 45.1506 10.6081 45.4245 10.0572C45.6984 9.50627 46.0831 9.07848 46.5787 8.77379C47.0742 8.46911 47.6543 8.31676 48.3191 8.31676C48.9838 8.31676 49.564 8.46911 50.0595 8.77379C50.555 9.07848 50.9397 9.50627 51.2136 10.0572C51.4875 10.6081 51.6245 11.2513 51.6245 11.9869C51.6245 12.7193 51.4875 13.3595 51.2136 13.9073C50.9397 14.4551 50.555 14.8814 50.0595 15.1861C49.564 15.4908 48.9838 15.6431 48.3191 15.6431ZM48.3237 14.4844C48.7545 14.4844 49.1116 14.3705 49.3947 14.1428C49.6778 13.915 49.8871 13.6119 50.0225 13.2333C50.161 12.8548 50.2303 12.4377 50.2303 11.9822C50.2303 11.5298 50.161 11.1143 50.0225 10.7358C49.8871 10.3542 49.6778 10.0479 49.3947 9.81712C49.1116 9.58629 48.7545 9.47088 48.3237 9.47088C47.8897 9.47088 47.5296 9.58629 47.2434 9.81712C46.9603 10.0479 46.7495 10.3542 46.611 10.7358C46.4755 11.1143 46.4078 11.5298 46.4078 11.9822C46.4078 12.4377 46.4755 12.8548 46.611 13.2333C46.7495 13.6119 46.9603 13.915 47.2434 14.1428C47.5296 14.3705 47.8897 14.4844 48.3237 14.4844ZM54.4867 15.5L52.4 8.40909H53.8265L55.2161 13.6165H55.2853L56.6795 8.40909H58.106L59.4909 13.5934H59.5602L60.9405 8.40909H62.367L60.285 15.5H58.8769L57.4366 10.3803H57.3304L55.8901 15.5H54.4867ZM70.1042 15.6431C69.4394 15.6431 68.8593 15.4908 68.3638 15.1861C67.8683 14.8814 67.4836 14.4551 67.2097 13.9073C66.9358 13.3595 66.7988 12.7193 66.7988 11.9869C66.7988 11.2513 66.9358 10.6081 67.2097 10.0572C67.4836 9.50627 67.8683 9.07848 68.3638 8.77379C68.8593 8.46911 69.4394 8.31676 70.1042 8.31676C70.769 8.31676 71.3491 8.46911 71.8446 8.77379C72.3401 9.07848 72.7248 9.50627 72.9987 10.0572C73.2727 10.6081 73.4096 11.2513 73.4096 11.9869C73.4096 12.7193 73.2727 13.3595 72.9987 13.9073C72.7248 14.4551 72.3401 14.8814 71.8446 15.1861C71.3491 15.4908 70.769 15.6431 70.1042 15.6431ZM70.1088 14.4844C70.5397 14.4844 70.8967 14.3705 71.1799 14.1428C71.463 13.915 71.6723 13.6119 71.8077 13.2333C71.9462 12.8548 72.0154 12.4377 72.0154 11.9822C72.0154 11.5298 71.9462 11.1143 71.8077 10.7358C71.6723 10.3542 71.463 10.0479 71.1799 9.81712C70.8967 9.58629 70.5397 9.47088 70.1088 9.47088C69.6749 9.47088 69.3148 9.58629 69.0286 9.81712C68.7454 10.0479 68.5346 10.3542 68.3961 10.7358C68.2607 11.1143 68.193 11.5298 68.193 11.9822C68.193 12.4377 68.2607 12.8548 68.3961 13.2333C68.5346 13.6119 68.7454 13.915 69.0286 14.1428C69.3148 14.3705 69.6749 14.4844 70.1088 14.4844ZM76.3307 11.2898V15.5H74.9504V8.40909H76.2753V9.56321H76.363C76.5261 9.18774 76.7816 8.88613 77.1293 8.65838C77.4802 8.43063 77.9218 8.31676 78.4543 8.31676C78.9375 8.31676 79.3606 8.41832 79.7238 8.62145C80.087 8.8215 80.3686 9.12003 80.5686 9.51705C80.7687 9.91406 80.8687 10.4049 80.8687 10.9897V15.5H79.4884V11.1559C79.4884 10.6419 79.3545 10.2403 79.0867 9.95099C78.819 9.65862 78.4512 9.51243 77.9834 9.51243C77.6633 9.51243 77.3786 9.58168 77.1293 9.72017C76.8831 9.85866 76.6877 10.0618 76.543 10.3295C76.4015 10.5942 76.3307 10.9143 76.3307 11.2898Z" fill="#E8E8E8"/>
<path d="M84.7155 6.04546H87.5454L89.946 11.8991H90.0568L92.4574 6.04546H95.2873V15.5H93.0621V9.69247H92.9836L90.7123 15.44H89.2905L87.0192 9.66016H86.9407V15.5H84.7155V6.04546ZM98.7115 15.62C98.2591 15.62 97.8575 15.5446 97.5066 15.3938C97.1589 15.2399 96.8834 15.0091 96.6803 14.7013C96.4802 14.3905 96.3802 14.0012 96.3802 13.5334C96.3802 13.1394 96.4495 12.8071 96.588 12.5362C96.7265 12.2654 96.9173 12.0453 97.1604 11.8761C97.4035 11.7068 97.6836 11.5791 98.0006 11.4929C98.3176 11.4036 98.6561 11.3436 99.0162 11.3129C99.4194 11.2759 99.7441 11.2375 99.9903 11.1974C100.237 11.1544 100.415 11.0943 100.526 11.0174C100.64 10.9374 100.697 10.825 100.697 10.6804V10.6573C100.697 10.4203 100.615 10.2372 100.452 10.108C100.289 9.97869 100.069 9.91406 99.7918 9.91406C99.4933 9.91406 99.2532 9.97869 99.0716 10.108C98.89 10.2372 98.7746 10.4157 98.7254 10.6435L96.6434 10.5696C96.7049 10.1387 96.8634 9.75402 97.1189 9.41548C97.3774 9.07386 97.7313 8.80611 98.1806 8.61222C98.6331 8.41525 99.1763 8.31676 99.8103 8.31676C100.263 8.31676 100.68 8.37062 101.061 8.47834C101.443 8.58298 101.775 8.73686 102.058 8.93999C102.342 9.14003 102.56 9.38625 102.714 9.67862C102.871 9.971 102.949 10.3049 102.949 10.6804V15.5H100.826V14.5121H100.77C100.644 14.7521 100.483 14.9553 100.286 15.1214C100.092 15.2876 99.8626 15.4123 99.5979 15.4954C99.3363 15.5785 99.0408 15.62 98.7115 15.62ZM99.4086 14.1428C99.6518 14.1428 99.8703 14.0935 100.064 13.995C100.261 13.8965 100.418 13.7611 100.535 13.5888C100.652 13.4134 100.71 13.2102 100.71 12.9794V12.3054C100.646 12.3393 100.567 12.37 100.475 12.3977C100.386 12.4254 100.287 12.4516 100.18 12.4762C100.072 12.5008 99.9611 12.5224 99.8472 12.5408C99.7333 12.5593 99.6241 12.5762 99.5194 12.5916C99.3071 12.6255 99.1255 12.6778 98.9747 12.7486C98.827 12.8194 98.7131 12.9117 98.6331 13.0256C98.5561 13.1364 98.5176 13.2687 98.5176 13.4226C98.5176 13.6565 98.6007 13.835 98.7669 13.9581C98.9362 14.0812 99.1501 14.1428 99.4086 14.1428ZM110.52 10.5742L108.448 10.6296C108.426 10.4819 108.368 10.3511 108.272 10.2372C108.177 10.1203 108.052 10.0295 107.898 9.96484C107.748 9.89714 107.572 9.86328 107.372 9.86328C107.11 9.86328 106.887 9.9156 106.703 10.0202C106.521 10.1249 106.432 10.2665 106.435 10.445C106.432 10.5835 106.487 10.7035 106.601 10.805C106.718 10.9066 106.926 10.9882 107.224 11.0497L108.591 11.3082C109.299 11.4437 109.825 11.6683 110.17 11.9822C110.517 12.2962 110.693 12.7116 110.696 13.2287C110.693 13.715 110.548 14.1381 110.262 14.4982C109.979 14.8583 109.591 15.1384 109.099 15.3384C108.606 15.5354 108.043 15.6339 107.409 15.6339C106.396 15.6339 105.598 15.4261 105.013 15.0107C104.431 14.5921 104.099 14.032 104.016 13.3303L106.246 13.2749C106.295 13.5334 106.423 13.7303 106.629 13.8658C106.835 14.0012 107.098 14.0689 107.418 14.0689C107.708 14.0689 107.943 14.015 108.125 13.9073C108.306 13.7996 108.398 13.6565 108.402 13.478C108.398 13.3179 108.328 13.1902 108.189 13.0948C108.051 12.9963 107.834 12.9194 107.538 12.864L106.301 12.6286C105.59 12.4993 105.061 12.2608 104.713 11.913C104.365 11.5621 104.193 11.1159 104.196 10.5742C104.193 10.1003 104.319 9.69555 104.574 9.36009C104.83 9.02154 105.193 8.76302 105.664 8.58452C106.135 8.40601 106.69 8.31676 107.331 8.31676C108.291 8.31676 109.048 8.51835 109.602 8.92152C110.156 9.32161 110.462 9.87251 110.52 10.5742ZM115.81 8.40909V10.071H111.336V8.40909H115.81ZM112.274 6.71023H114.531V13.2702C114.531 13.4087 114.553 13.5211 114.596 13.6072C114.642 13.6903 114.708 13.7504 114.794 13.7873C114.88 13.8211 114.983 13.8381 115.103 13.8381C115.19 13.8381 115.28 13.8304 115.376 13.815C115.474 13.7965 115.548 13.7811 115.597 13.7688L115.939 15.3984C115.831 15.4292 115.679 15.4677 115.482 15.5138C115.288 15.56 115.056 15.5893 114.785 15.6016C114.256 15.6262 113.802 15.5646 113.423 15.4169C113.048 15.2661 112.76 15.0322 112.56 14.7152C112.363 14.3982 112.267 13.9996 112.274 13.5195V6.71023ZM120.195 15.6339C119.451 15.6339 118.811 15.4815 118.275 15.1768C117.743 14.8691 117.332 14.4413 117.042 13.8935C116.756 13.3426 116.613 12.704 116.613 11.9776C116.613 11.2482 116.756 10.6096 117.042 10.0618C117.332 9.51089 117.743 9.0831 118.275 8.77841C118.811 8.47064 119.451 8.31676 120.195 8.31676C120.94 8.31676 121.579 8.47064 122.111 8.77841C122.647 9.0831 123.058 9.51089 123.344 10.0618C123.633 10.6096 123.778 11.2482 123.778 11.9776C123.778 12.704 123.633 13.3426 123.344 13.8935C123.058 14.4413 122.647 14.8691 122.111 15.1768C121.579 15.4815 120.94 15.6339 120.195 15.6339ZM120.209 13.9304C120.48 13.9304 120.709 13.8473 120.897 13.6811C121.085 13.5149 121.228 13.2841 121.327 12.9886C121.428 12.6932 121.479 12.3516 121.479 11.9638C121.479 11.5698 121.428 11.2251 121.327 10.9297C121.228 10.6342 121.085 10.4034 120.897 10.2372C120.709 10.071 120.48 9.98793 120.209 9.98793C119.929 9.98793 119.692 10.071 119.498 10.2372C119.308 10.4034 119.161 10.6342 119.06 10.9297C118.961 11.2251 118.912 11.5698 118.912 11.9638C118.912 12.3516 118.961 12.6932 119.06 12.9886C119.161 13.2841 119.308 13.5149 119.498 13.6811C119.692 13.8473 119.929 13.9304 120.209 13.9304ZM127.524 15.6016C127.001 15.6016 126.525 15.4661 126.098 15.1953C125.67 14.9245 125.328 14.5182 125.073 13.9766C124.817 13.4349 124.69 12.7624 124.69 11.9592C124.69 11.1251 124.822 10.4388 125.087 9.90021C125.351 9.36162 125.698 8.96307 126.125 8.70455C126.556 8.44602 127.019 8.31676 127.515 8.31676C127.887 8.31676 128.206 8.38139 128.47 8.51065C128.735 8.63684 128.954 8.79995 129.126 9C129.298 9.20005 129.429 9.40779 129.518 9.62322H129.565V6.04546H131.822V15.5H129.588V14.3505H129.518C129.423 14.569 129.288 14.7737 129.112 14.9645C128.937 15.1553 128.717 15.3092 128.452 15.4261C128.19 15.5431 127.881 15.6016 127.524 15.6016ZM128.309 13.8427C128.583 13.8427 128.817 13.7657 129.011 13.6119C129.205 13.4549 129.354 13.2348 129.458 12.9517C129.563 12.6686 129.615 12.3362 129.615 11.9545C129.615 11.5668 129.563 11.2328 129.458 10.9528C129.357 10.6727 129.208 10.4573 129.011 10.3065C128.817 10.1557 128.583 10.0803 128.309 10.0803C128.029 10.0803 127.792 10.1572 127.598 10.3111C127.404 10.465 127.256 10.6819 127.155 10.962C127.056 11.2421 127.007 11.5729 127.007 11.9545C127.007 12.3362 127.058 12.6686 127.159 12.9517C127.261 13.2348 127.407 13.4549 127.598 13.6119C127.792 13.7657 128.029 13.8427 128.309 13.8427ZM136.56 15.6339C135.815 15.6339 135.175 15.4815 134.639 15.1768C134.107 14.8691 133.696 14.4413 133.407 13.8935C133.12 13.3426 132.977 12.704 132.977 11.9776C132.977 11.2482 133.12 10.6096 133.407 10.0618C133.696 9.51089 134.107 9.0831 134.639 8.77841C135.175 8.47064 135.815 8.31676 136.56 8.31676C137.305 8.31676 137.943 8.47064 138.476 8.77841C139.011 9.0831 139.422 9.51089 139.708 10.0618C139.997 10.6096 140.142 11.2482 140.142 11.9776C140.142 12.704 139.997 13.3426 139.708 13.8935C139.422 14.4413 139.011 14.8691 138.476 15.1768C137.943 15.4815 137.305 15.6339 136.56 15.6339ZM136.574 13.9304C136.844 13.9304 137.074 13.8473 137.261 13.6811C137.449 13.5149 137.592 13.2841 137.691 12.9886C137.792 12.6932 137.843 12.3516 137.843 11.9638C137.843 11.5698 137.792 11.2251 137.691 10.9297C137.592 10.6342 137.449 10.4034 137.261 10.2372C137.074 10.071 136.844 9.98793 136.574 9.98793C136.294 9.98793 136.057 10.071 135.863 10.2372C135.672 10.4034 135.526 10.6342 135.424 10.9297C135.326 11.2251 135.276 11.5698 135.276 11.9638C135.276 12.3516 135.326 12.6932 135.424 12.9886C135.526 13.2841 135.672 13.5149 135.863 13.6811C136.057 13.8473 136.294 13.9304 136.574 13.9304ZM143.556 11.456V15.5H141.299V8.40909H143.445V9.71094H143.524C143.681 9.27699 143.948 8.93691 144.327 8.6907C144.705 8.44141 145.156 8.31676 145.68 8.31676C146.178 8.31676 146.611 8.4291 146.977 8.65376C147.346 8.87535 147.632 9.1862 147.835 9.58629C148.042 9.98331 148.143 10.448 148.14 10.9805V15.5H145.883V11.4236C145.886 11.0297 145.786 10.7219 145.583 10.5004C145.383 10.2788 145.104 10.168 144.747 10.168C144.51 10.168 144.301 10.2203 144.119 10.3249C143.941 10.4265 143.802 10.5727 143.704 10.7635C143.608 10.9543 143.559 11.1851 143.556 11.456Z" fill="white"/>
</g>
</g>
<rect x="0.6" y="0.6" width="152.8" height="19.8" rx="4.4" stroke="url(#paint0_linear_2006_8)" stroke-opacity="0.88" stroke-width="1.2"/>
<defs>
<filter id="filter0_d_2006_8" x="-0.60028" y="-3.10028" width="27.2006" height="27.2006" filterUnits="userSpaceOnUse" color-interpolation-filters="sRGB">
<feFlood flood-opacity="0" result="BackgroundImageFix"/>
<feColorMatrix in="SourceAlpha" type="matrix" values="0 0 0 0 0 0 0 0 0 0 0 0 0 0 0 0 0 0 127 0" result="hardAlpha"/>
<feOffset/>
<feGaussianBlur stdDeviation="2.80014"/>
<feComposite in2="hardAlpha" operator="out"/>
<feColorMatrix type="matrix" values="0 0 0 0 0 0 0 0 0 0 0 0 0 0 0 0 0 0 0.25 0"/>
<feBlend mode="normal" in2="BackgroundImageFix" result="effect1_dropShadow_2006_8"/>
<feBlend mode="normal" in="SourceGraphic" in2="effect1_dropShadow_2006_8" result="shape"/>
</filter>
<filter id="filter1_d_2006_8" x="17.2857" y="-3.21428" width="137.429" height="27.4286" filterUnits="userSpaceOnUse" color-interpolation-filters="sRGB">
<feFlood flood-opacity="0" result="BackgroundImageFix"/>
<feColorMatrix in="SourceAlpha" type="matrix" values="0 0 0 0 0 0 0 0 0 0 0 0 0 0 0 0 0 0 127 0" result="hardAlpha"/>
<feOffset/>
<feGaussianBlur stdDeviation="2.85714"/>
<feComposite in2="hardAlpha" operator="out"/>
<feColorMatrix type="matrix" values="0 0 0 0 0 0 0 0 0 0 0 0 0 0 0 0 0 0 0.25 0"/>
<feBlend mode="normal" in2="BackgroundImageFix" result="effect1_dropShadow_2006_8"/>
<feBlend mode="normal" in="SourceGraphic" in2="effect1_dropShadow_2006_8" result="shape"/>
</filter>
<linearGradient id="paint0_linear_2006_8" x1="0" y1="10.5" x2="154" y2="10.5" gradientUnits="userSpaceOnUse">
<stop stop-color="#6364FF"/>
<stop offset="1" stop-color="#4D31BF"/>
</linearGradient>
<clipPath id="clip0_2006_8">
<rect width="154" height="21" rx="5" fill="white"/>
</clipPath>
<clipPath id="clip1_2006_8">
<rect width="14" height="15" fill="white" transform="translate(6 3)"/>
</clipPath>
</defs>
</svg>
