<svg xmlns="http://www.w3.org/2000/svg" width="154" height="21" fill="none"><g clip-path="url(#a)"><rect width="154" height="21" fill="#000" rx="5"/><g filter="url(#b)"><g clip-path="url(#c)"><path fill="#fff" d="M19.94 6.41c-.21-1.58-1.6-2.83-3.27-3.07-.27-.04-1.33-.2-3.79-.2h-.01c-2.46 0-2.98.16-3.26.2C8 3.57 6.53 4.69 6.17 6.3c-.17.78-.19 1.66-.16 2.46.05 1.15.06 2.3.16 3.45.08.76.2 1.51.38 2.26.34 1.37 1.72 2.51 3.06 2.98a8.3 8.3 0 0 0 4.96.1c.36-.11.78-.24 1.09-.46a.03.03 0 0 0 .01-.03v-1.1a.03.03 0 0 0 0-.03l-.02-.01h-.02c-.95.22-1.92.34-2.9.33-1.68 0-2.13-.78-2.26-1.11a3.42 3.42 0 0 1-.19-.9.03.03 0 0 1 .03-.01c.94.22 1.9.33 2.86.33h.69c.97-.03 1.99-.08 2.94-.26l.07-.02c1.5-.28 2.92-1.18 3.07-3.44l.02-1.03c0-.31.1-2.22-.02-3.4Zm-2.3 5.65h-1.58V8.24c0-.8-.34-1.22-1.03-1.22-.76 0-1.14.49-1.14 1.45v2.09h-1.57v-2.1c0-.95-.38-1.44-1.14-1.44-.68 0-1.03.41-1.03 1.22v3.82H8.58V8.12c0-.8.2-1.44.62-1.91.43-.48.99-.72 1.69-.72.8 0 1.42.3 1.82.92l.4.65.39-.65c.4-.61 1.02-.92 1.82-.92.7 0 1.26.24 1.7.72.4.47.62 1.1.62 1.91v3.94Z"/></g></g><g filter="url(#d)"><path fill="#E8E8E8" d="M24.04 15.5V6.05h5.86v1.22h-4.43v2.88h4.01v1.23h-4.01v4.12h-1.43Zm9.97.14c-.66 0-1.24-.15-1.74-.45-.5-.3-.88-.73-1.15-1.28a4.24 4.24 0 0 1-.41-1.92c0-.74.13-1.38.4-1.93a3.08 3.08 0 0 1 2.9-1.74c.67 0 1.25.15 1.74.45.5.3.88.74 1.16 1.29.27.55.4 1.2.4 1.93s-.13 1.37-.4 1.92a3.08 3.08 0 0 1-2.9 1.73Zm0-1.16c.44 0 .8-.11 1.08-.34a2 2 0 0 0 .62-.9 3.75 3.75 0 0 0 .01-2.5 2.03 2.03 0 0 0-.63-.92 1.64 1.64 0 0 0-1.07-.35c-.44 0-.8.12-1.08.35-.29.23-.5.53-.64.92a3.81 3.81 0 0 0 0 2.49c.14.38.35.68.64.91.28.23.64.34 1.08.34Zm6.23-8.43v9.45h-1.38V6.05h1.38Zm3.24 0v9.45h-1.39V6.05h1.39Zm4.84 9.6a3.08 3.08 0 0 1-2.9-1.74 4.24 4.24 0 0 1-.4-1.92c0-.74.13-1.38.4-1.93a3.08 3.08 0 0 1 2.9-1.74 3 3 0 0 1 2.89 1.74c.28.55.41 1.2.41 1.93s-.13 1.37-.4 1.92a3.08 3.08 0 0 1-2.9 1.73Zm0-1.17c.43 0 .8-.11 1.07-.34a2 2 0 0 0 .63-.9 3.75 3.75 0 0 0 .01-2.5 2.03 2.03 0 0 0-.64-.92 1.64 1.64 0 0 0-1.07-.35c-.43 0-.79.12-1.08.35-.28.23-.5.53-.63.92a3.81 3.81 0 0 0 0 2.49c.14.38.35.68.63.91.29.23.65.34 1.08.34Zm6.17 1.02L52.4 8.4h1.43l1.39 5.22h.07l1.39-5.21h1.43l1.38 5.18h.07l1.38-5.18h1.43l-2.09 7.09h-1.4l-1.44-5.12h-.11l-1.44 5.12h-1.4Zm15.61.14c-.66 0-1.24-.15-1.74-.45-.5-.3-.88-.73-1.15-1.28a4.24 4.24 0 0 1-.41-1.92c0-.74.14-1.38.41-1.93a3.08 3.08 0 0 1 2.9-1.74c.66 0 1.24.15 1.73.45.5.3.88.74 1.16 1.29.27.55.41 1.2.41 1.93s-.14 1.37-.41 1.92a3.08 3.08 0 0 1-2.9 1.73Zm0-1.16c.44 0 .8-.11 1.08-.34a2 2 0 0 0 .63-.9c.14-.39.2-.8.2-1.26 0-.45-.06-.87-.2-1.24a2.03 2.03 0 0 0-.63-.92 1.64 1.64 0 0 0-1.07-.35c-.44 0-.8.12-1.08.35-.28.23-.5.53-.63.92-.14.37-.2.79-.2 1.24 0 .46.06.87.2 1.25a2 2 0 0 0 .63.91c.28.23.64.34 1.08.34Zm6.23-3.19v4.21h-1.38V8.4h1.33v1.16h.08a2.1 2.1 0 0 1 2.09-1.24c.49 0 .91.1 1.27.3.37.2.65.5.85.9.2.4.3.88.3 1.47v4.51h-1.38v-4.34c0-.52-.14-.92-.4-1.2-.27-.3-.64-.45-1.1-.45-.33 0-.61.07-.86.21a1.5 1.5 0 0 0-.59.6c-.14.27-.2.6-.2.97Z"/><path fill="#fff" d="M84.72 6.05h2.83l2.4 5.85h.1l2.4-5.85h2.84v9.45h-2.23V9.7h-.08l-2.27 5.74H89.3l-2.27-5.78h-.08v5.84h-2.22V6.05Zm14 9.57c-.46 0-.86-.08-1.21-.23a1.88 1.88 0 0 1-.83-.69c-.2-.3-.3-.7-.3-1.17 0-.4.07-.72.2-1 .15-.26.34-.48.58-.65.24-.17.52-.3.84-.39.32-.09.66-.15 1.02-.18.4-.03.72-.07.97-.11.25-.05.43-.1.54-.18a.4.4 0 0 0 .17-.34v-.02a.66.66 0 0 0-.25-.55c-.16-.13-.38-.2-.66-.2-.3 0-.54.07-.72.2a.8.8 0 0 0-.34.53l-2.09-.07a2.46 2.46 0 0 1 1.54-1.96 4.5 4.5 0 0 1 2.88-.13c.38.1.72.26 1 .46a2.08 2.08 0 0 1 .89 1.74v4.82h-2.12v-.99h-.06a2 2 0 0 1-1.17.99c-.26.08-.56.12-.89.12Zm.69-1.48c.24 0 .46-.05.65-.15a1.07 1.07 0 0 0 .65-1.02v-.66l-.23.09a4.07 4.07 0 0 1-.63.14l-.33.05c-.21.04-.4.09-.55.16a.86.86 0 0 0-.34.28.68.68 0 0 0-.11.4c0 .23.08.4.25.53.17.12.38.18.64.18Zm11.11-3.57-2.07.06a.77.77 0 0 0-.18-.4.94.94 0 0 0-.37-.27c-.15-.06-.33-.1-.53-.1-.26 0-.48.06-.67.16-.18.1-.27.25-.27.43 0 .13.06.25.17.36.12.1.33.18.62.24l1.37.26c.7.13 1.23.36 1.58.67.35.32.52.73.53 1.25a2 2 0 0 1-.44 1.27c-.28.36-.67.64-1.16.84-.5.2-1.06.3-1.7.3-1 0-1.8-.21-2.39-.63a2.33 2.33 0 0 1-1-1.68l2.24-.06c.05.26.17.46.38.6.2.13.47.2.79.2.29 0 .52-.05.7-.16.19-.11.28-.25.28-.43a.46.46 0 0 0-.21-.39c-.14-.1-.36-.17-.65-.23l-1.24-.23a2.94 2.94 0 0 1-1.59-.72 1.8 1.8 0 0 1-.51-1.34c0-.47.12-.87.37-1.21.26-.34.62-.6 1.1-.78a4.7 4.7 0 0 1 1.66-.26c.96 0 1.72.2 2.27.6.56.4.86.95.92 1.65Zm5.29-2.16v1.66h-4.47V8.41h4.47Zm-3.54-1.7h2.26v6.56c0 .14.02.25.07.34a.4.4 0 0 0 .2.18c.08.03.18.05.3.05a1.72 1.72 0 0 0 .5-.07l.34 1.63-.46.11a3.36 3.36 0 0 1-2.06-.1 1.77 1.77 0 0 1-.86-.7 2.1 2.1 0 0 1-.29-1.2v-6.8Zm7.92 8.92c-.74 0-1.38-.15-1.91-.45a3.14 3.14 0 0 1-1.24-1.29 4.1 4.1 0 0 1-.43-1.91c0-.73.15-1.37.43-1.92.3-.55.7-.98 1.23-1.28a3.8 3.8 0 0 1 1.92-.46c.75 0 1.39.15 1.92.46.54.3.95.73 1.23 1.28.3.55.44 1.19.44 1.92 0 .72-.15 1.36-.44 1.91-.28.55-.7.98-1.23 1.29a3.8 3.8 0 0 1-1.92.45Zm.02-1.7a1 1 0 0 0 .69-.25c.18-.17.33-.4.43-.7.1-.29.15-.63.15-1.02s-.05-.73-.15-1.03c-.1-.3-.25-.53-.43-.7a1 1 0 0 0-.7-.24c-.27 0-.5.08-.7.25-.2.16-.34.4-.44.69-.1.3-.15.64-.15 1.03 0 .4.05.73.15 1.03.1.3.25.52.44.7.2.16.43.24.7.24Zm7.31 1.67a2.6 2.6 0 0 1-2.45-1.62 4.71 4.71 0 0 1-.38-2.02c0-.83.13-1.52.4-2.06.26-.54.6-.94 1.03-1.2a2.65 2.65 0 0 1 2.35-.19 2.07 2.07 0 0 1 1.05 1.11h.04V6.05h2.26v9.45h-2.23v-1.15h-.07c-.1.22-.23.42-.4.61-.18.2-.4.35-.67.47-.26.11-.57.17-.93.17Zm.79-1.76c.27 0 .5-.07.7-.23.2-.16.34-.38.45-.66.1-.28.16-.61.16-1 0-.38-.06-.72-.16-1s-.25-.5-.45-.64a1.1 1.1 0 0 0-.7-.23c-.28 0-.52.08-.71.23-.2.15-.34.37-.44.65-.1.28-.15.61-.15 1 0 .38.05.7.15 1 .1.27.25.5.44.65.2.16.43.23.7.23Zm8.25 1.8c-.75 0-1.38-.16-1.92-.46a3.18 3.18 0 0 1-1.23-1.29 4.09 4.09 0 0 1-.43-1.91c0-.73.14-1.37.43-1.92.29-.55.7-.98 1.23-1.28a3.8 3.8 0 0 1 1.92-.46c.75 0 1.38.15 1.92.46.53.3.94.73 1.23 1.28.29.55.43 1.19.43 1.92 0 .72-.14 1.36-.43 1.91-.29.55-.7.98-1.23 1.29a3.8 3.8 0 0 1-1.92.45Zm.01-1.71a1 1 0 0 0 .7-.25c.18-.17.32-.4.42-.7.1-.29.15-.63.15-1.02s-.05-.73-.15-1.03c-.1-.3-.24-.53-.43-.7a1 1 0 0 0-.69-.24 1 1 0 0 0-.7.25c-.2.16-.34.4-.45.69-.1.3-.14.64-.14 1.03 0 .4.05.73.14 1.03.1.3.25.52.44.7.2.16.43.24.71.24Zm6.99-2.47v4.04h-2.26V8.4h2.14v1.31h.08c.16-.43.43-.77.8-1.02a2.4 2.4 0 0 1 1.36-.37c.5 0 .93.1 1.3.33s.65.54.86.94c.2.4.3.86.3 1.39v4.52h-2.26v-4.08c0-.39-.1-.7-.3-.92-.2-.22-.48-.33-.83-.33-.24 0-.45.05-.63.15-.18.1-.32.25-.42.44-.1.2-.14.43-.14.7Z"/></g></g><rect width="152.8" height="19.8" x=".6" y=".6" stroke="url(#e)" stroke-opacity=".88" stroke-width="1.2" rx="4.4"/><defs><clipPath id="a"><rect width="154" height="21" fill="#fff" rx="5"/></clipPath><clipPath id="c"><path fill="#fff" d="M6 3h14v15H6z"/></clipPath><filter id="b" width="27.2" height="27.2" x="-.6" y="-3.1" color-interpolation-filters="sRGB" filterUnits="userSpaceOnUse"><feFlood flood-opacity="0" result="BackgroundImageFix"/><feColorMatrix in="SourceAlpha" result="hardAlpha" values="0 0 0 0 0 0 0 0 0 0 0 0 0 0 0 0 0 0 127 0"/><feOffset/><feGaussianBlur stdDeviation="2.8"/><feComposite in2="hardAlpha" operator="out"/><feColorMatrix values="0 0 0 0 0 0 0 0 0 0 0 0 0 0 0 0 0 0 0.25 0"/><feBlend in2="BackgroundImageFix" result="effect1_dropShadow_2006_8"/><feBlend in="SourceGraphic" in2="effect1_dropShadow_2006_8" result="shape"/></filter><filter id="d" width="137.43" height="27.43" x="17.29" y="-3.21" color-interpolation-filters="sRGB" filterUnits="userSpaceOnUse"><feFlood flood-opacity="0" result="BackgroundImageFix"/><feColorMatrix in="SourceAlpha" result="hardAlpha" values="0 0 0 0 0 0 0 0 0 0 0 0 0 0 0 0 0 0 127 0"/><feOffset/><feGaussianBlur stdDeviation="2.86"/><feComposite in2="hardAlpha" operator="out"/><feColorMatrix values="0 0 0 0 0 0 0 0 0 0 0 0 0 0 0 0 0 0 0.25 0"/><feBlend in2="BackgroundImageFix" result="effect1_dropShadow_2006_8"/><feBlend in="SourceGraphic" in2="effect1_dropShadow_2006_8" result="shape"/></filter><linearGradient id="e" x1="0" x2="154" y1="10.5" y2="10.5" gradientUnits="userSpaceOnUse"><stop stop-color="#6364FF"/><stop offset="1" stop-color="#4D31BF"/></linearGradient></defs></svg>