<svg xmlns="http://www.w3.org/2000/svg" width="143" height="21" fill="none"><g clip-path="url(#a)"><rect width="143" height="21" fill="#000" rx="5"/><g filter="url(#b)"><path fill="#fff" d="M6.95 4.9a1.9 1.9 0 0 0-1.6.83c-.23.33-.35.7-.35 1.12v7.3a1.94 1.94 0 0 0 1.95 1.96c.55 0 1-.2 1.39-.57.39-.39.58-.85.58-1.38v-1.33c0-.3.3-.22.45 0 .28.48.88.9 1.57.9.7 0 1.27-.35 1.57-.9.11-.14.43-.37.47 0v1.33a1.92 1.92 0 0 0 1.95 1.95c.54 0 1-.2 1.38-.57.4-.39.59-.85.59-1.38V6.85c0-.41-.13-.79-.37-1.12a1.82 1.82 0 0 0-.92-.72 2 2 0 0 0-2.18.59l-1.98 2.3c-.05.04-.2.3-.51.3s-.44-.26-.49-.3l-2-2.31c-.4-.47-.9-.7-1.5-.7Zm12.35 0c-.47 0-.87.16-1.2.5-.33.32-.49.71-.49 1.18s.16.87.49 1.2c.33.32.73.49 1.2.49s.87-.17 1.2-.49c.33-.33.5-.73.5-1.2s-.17-.86-.5-1.18a1.6 1.6 0 0 0-1.2-.5Zm.01 3.7c-.46 0-.86.17-1.2.5-.5.5-.5.73-.5 1.2v4.12a1.67 1.67 0 0 0 1.7 1.69c.7 0 .87-.16 1.19-.49.33-.33.5-.73.5-1.2V10.3c0-.47-.17-.87-.5-1.2a1.6 1.6 0 0 0-1.19-.5"/></g><g filter="url(#c)"><path fill="#E8E8E8" d="M24.04 15.5V6.05h5.86v1.22h-4.43v2.88h4.01v1.23h-4.01v4.12h-1.43Zm9.97.14c-.66 0-1.24-.15-1.74-.45-.5-.3-.88-.73-1.15-1.28a4.24 4.24 0 0 1-.41-1.92c0-.74.13-1.38.4-1.93a3.08 3.08 0 0 1 2.9-1.74c.67 0 1.25.15 1.74.45.5.3.88.74 1.16 1.29.27.55.4 1.2.4 1.93s-.13 1.37-.4 1.92a3.08 3.08 0 0 1-2.9 1.73Zm0-1.16c.44 0 .8-.11 1.08-.34a2 2 0 0 0 .62-.9 3.75 3.75 0 0 0 .01-2.5 2.03 2.03 0 0 0-.63-.92 1.64 1.64 0 0 0-1.07-.35c-.44 0-.8.12-1.08.35-.29.23-.5.53-.64.92a3.81 3.81 0 0 0 0 2.49c.14.38.35.68.64.91.28.23.64.34 1.08.34Zm6.23-8.43v9.45h-1.38V6.05h1.38Zm3.24 0v9.45h-1.39V6.05h1.39Zm4.84 9.6a3.08 3.08 0 0 1-2.9-1.74 4.24 4.24 0 0 1-.4-1.92c0-.74.13-1.38.4-1.93a3.08 3.08 0 0 1 2.9-1.74 3 3 0 0 1 2.89 1.74c.28.55.41 1.2.41 1.93s-.13 1.37-.4 1.92a3.08 3.08 0 0 1-2.9 1.73Zm0-1.17c.43 0 .8-.11 1.07-.34a2 2 0 0 0 .63-.9 3.75 3.75 0 0 0 .01-2.5 2.03 2.03 0 0 0-.64-.92 1.64 1.64 0 0 0-1.07-.35c-.43 0-.79.12-1.08.35-.28.23-.5.53-.63.92a3.81 3.81 0 0 0 0 2.49c.14.38.35.68.63.91.29.23.65.34 1.08.34Zm6.17 1.02L52.4 8.4h1.43l1.39 5.22h.07l1.39-5.21h1.43l1.38 5.18h.07l1.38-5.18h1.43l-2.09 7.09h-1.4l-1.44-5.12h-.11l-1.44 5.12h-1.4Zm15.61.14c-.66 0-1.24-.15-1.74-.45-.5-.3-.88-.73-1.15-1.28a4.24 4.24 0 0 1-.41-1.92c0-.74.14-1.38.41-1.93a3.08 3.08 0 0 1 2.9-1.74c.66 0 1.24.15 1.73.45.5.3.88.74 1.16 1.29.27.55.41 1.2.41 1.93s-.14 1.37-.41 1.92a3.08 3.08 0 0 1-2.9 1.73Zm0-1.16c.44 0 .8-.11 1.08-.34a2 2 0 0 0 .63-.9c.14-.39.2-.8.2-1.26 0-.45-.06-.87-.2-1.24a2.03 2.03 0 0 0-.63-.92 1.64 1.64 0 0 0-1.07-.35c-.44 0-.8.12-1.08.35-.28.23-.5.53-.63.92-.14.37-.2.79-.2 1.24 0 .46.06.87.2 1.25a2 2 0 0 0 .63.91c.28.23.64.34 1.08.34Zm6.23-3.19v4.21h-1.38V8.4h1.33v1.16h.08a2.1 2.1 0 0 1 2.09-1.24c.49 0 .91.1 1.27.3.37.2.65.5.85.9.2.4.3.88.3 1.47v4.51h-1.38v-4.34c0-.52-.14-.92-.4-1.2-.27-.3-.64-.45-1.1-.45-.33 0-.61.07-.86.21a1.5 1.5 0 0 0-.59.6c-.14.27-.2.6-.2.97Z"/><path fill="#fff" d="M84.72 6.05h2.83l2.4 5.85h.1l2.4-5.85h2.84v9.45h-2.23V9.7h-.08l-2.27 5.74H89.3l-2.27-5.78h-.08v5.84h-2.22V6.05Zm12 9.45V8.4h2.25v7.1h-2.26Zm1.12-7.92c-.31 0-.59-.1-.81-.31a1.01 1.01 0 0 1-.35-.77 1 1 0 0 1 .35-.75c.22-.22.5-.32.81-.32.32 0 .6.1.82.32a1 1 0 0 1 .34.75 1 1 0 0 1-.34.77c-.22.2-.5.31-.82.31Zm8.76 3-2.07.05a.77.77 0 0 0-.18-.4.94.94 0 0 0-.38-.27c-.14-.06-.32-.1-.52-.1-.26 0-.49.06-.67.16-.18.1-.27.25-.27.43 0 .13.05.25.17.36.11.1.32.18.62.24l1.37.26c.7.13 1.23.36 1.58.67.34.32.52.73.52 1.25a2 2 0 0 1-.43 1.27c-.28.36-.67.64-1.16.84-.5.2-1.06.3-1.7.3-1 0-1.8-.21-2.39-.63a2.33 2.33 0 0 1-1-1.68l2.23-.06a.9.9 0 0 0 .39.6c.2.13.47.2.79.2.28 0 .52-.05.7-.16.18-.11.28-.25.28-.43a.45.45 0 0 0-.21-.39c-.14-.1-.36-.17-.66-.23l-1.23-.23a2.94 2.94 0 0 1-1.59-.72 1.8 1.8 0 0 1-.52-1.34c0-.47.13-.87.38-1.21.26-.34.62-.6 1.1-.78a4.7 4.7 0 0 1 1.66-.26c.96 0 1.72.2 2.27.6.55.4.86.95.92 1.65Zm7.48 0-2.08.05a.77.77 0 0 0-.17-.4.94.94 0 0 0-.38-.27c-.15-.06-.32-.1-.52-.1-.27 0-.49.06-.67.16-.18.1-.27.25-.27.43 0 .13.05.25.17.36.11.1.32.18.62.24l1.36.26c.71.13 1.24.36 1.58.67.35.32.53.73.53 1.25a2 2 0 0 1-.43 1.27c-.29.36-.67.64-1.17.84-.49.2-1.05.3-1.69.3-1 0-1.8-.21-2.4-.63a2.33 2.33 0 0 1-.99-1.68l2.23-.06c.05.26.18.46.38.6.21.13.47.2.8.2.28 0 .52-.05.7-.16.18-.11.27-.25.28-.43a.46.46 0 0 0-.22-.39 1.7 1.7 0 0 0-.65-.23l-1.23-.23a2.93 2.93 0 0 1-1.6-.72 1.8 1.8 0 0 1-.5-1.34c-.01-.47.11-.87.37-1.21.26-.34.62-.6 1.09-.78a4.7 4.7 0 0 1 1.67-.26c.95 0 1.71.2 2.27.6.55.4.86.95.92 1.65Zm3.32 3.06v-2.7h.32l2-2.53h2.55l-2.96 3.64h-.6l-1.31 1.59Zm-2.04 1.86V6.05h2.26v9.45h-2.26Zm4.4 0-1.85-2.95 1.49-1.6 2.97 4.55h-2.6Zm6.34.13a4 4 0 0 1-1.92-.43c-.53-.3-.95-.72-1.23-1.26a4.17 4.17 0 0 1-.43-1.96c0-.73.14-1.37.43-1.92.29-.55.7-.98 1.22-1.28a4.14 4.14 0 0 1 3.25-.23 2.98 2.98 0 0 1 1.8 1.84c.16.45.25.96.25 1.55v.56h-6.16v-1.31h4.06c0-.24-.06-.46-.17-.64a1.16 1.16 0 0 0-.46-.44 1.3 1.3 0 0 0-.66-.16 1.35 1.35 0 0 0-1.15.62c-.12.2-.18.41-.19.66v1.33c0 .29.06.54.17.76.12.22.28.38.49.5.2.12.46.18.74.18.2 0 .39-.02.55-.08.16-.05.3-.14.42-.24a1 1 0 0 0 .26-.4l2.08.06c-.09.46-.28.87-.57 1.21-.3.35-.67.61-1.14.8a4.4 4.4 0 0 1-1.64.28Zm5.71 2.53a4.35 4.35 0 0 1-1.38-.23l.5-1.64c.22.08.42.12.6.13.18.02.33-.01.46-.08a.66.66 0 0 0 .3-.37l.1-.21-2.53-7.35h2.37l1.3 5.06h.08l1.32-5.06h2.38l-2.67 7.77c-.13.39-.31.73-.55 1.02-.24.3-.54.54-.91.7-.37.17-.83.26-1.37.26Z"/></g></g><rect width="141.8" height="19.8" x=".6" y=".6" stroke="url(#d)" stroke-opacity=".75" stroke-width="1.2" rx="4.4"/><defs><filter id="b" width="27.2" height="27.2" x="-.6" y="-3.1" color-interpolation-filters="sRGB" filterUnits="userSpaceOnUse"><feFlood flood-opacity="0" result="BackgroundImageFix"/><feColorMatrix in="SourceAlpha" result="hardAlpha" values="0 0 0 0 0 0 0 0 0 0 0 0 0 0 0 0 0 0 127 0"/><feOffset/><feGaussianBlur stdDeviation="2.8"/><feComposite in2="hardAlpha" operator="out"/><feColorMatrix values="0 0 0 0 0 0 0 0 0 0 0 0 0 0 0 0 0 0 0.25 0"/><feBlend in2="BackgroundImageFix" result="effect1_dropShadow_2058_136"/><feBlend in="SourceGraphic" in2="effect1_dropShadow_2058_136" result="shape"/></filter><filter id="c" width="126.43" height="27.43" x="17.29" y="-3.21" color-interpolation-filters="sRGB" filterUnits="userSpaceOnUse"><feFlood flood-opacity="0" result="BackgroundImageFix"/><feColorMatrix in="SourceAlpha" result="hardAlpha" values="0 0 0 0 0 0 0 0 0 0 0 0 0 0 0 0 0 0 127 0"/><feOffset/><feGaussianBlur stdDeviation="2.86"/><feComposite in2="hardAlpha" operator="out"/><feColorMatrix values="0 0 0 0 0 0 0 0 0 0 0 0 0 0 0 0 0 0 0.25 0"/><feBlend in2="BackgroundImageFix" result="effect1_dropShadow_2058_136"/><feBlend in="SourceGraphic" in2="effect1_dropShadow_2058_136" result="shape"/></filter><linearGradient id="d" x1="0" x2="143" y1="10.5" y2="10.5" gradientUnits="userSpaceOnUse"><stop stop-color="#98C934"/><stop offset="1" stop-color="#34C9A9"/></linearGradient><clipPath id="a"><rect width="143" height="21" fill="#fff" rx="5"/></clipPath></defs></svg>