<svg xmlns="http://www.w3.org/2000/svg" width="140" height="21" fill="none"><g clip-path="url(#a)"><rect width="140" height="21" fill="#000" rx="5"/><g filter="url(#b)"><path fill="#fff" fill-rule="evenodd" d="M12 17.5a7 7 0 1 1 0-14 7 7 0 0 1 0 14Zm-.56-5.47h1.29c1.2 0 2.19-.96 2.19-2.13 0-1.18-.98-2.14-2.2-2.14h-1.85c-.7 0-1.26.55-1.26 1.23v4.8l1.83-1.76Z" clip-rule="evenodd"/></g><g filter="url(#c)"><path fill="#E8E8E8" d="M22.04 15.5V6.05h5.86v1.22h-4.43v2.88h4.01v1.23h-4.01v4.12h-1.43Zm9.97.14c-.66 0-1.24-.15-1.74-.45-.5-.3-.88-.73-1.15-1.28a4.24 4.24 0 0 1-.41-1.92c0-.74.13-1.38.4-1.93a3.08 3.08 0 0 1 2.9-1.74c.67 0 1.25.15 1.74.45.5.3.88.74 1.16 1.29.27.55.4 1.2.4 1.93s-.13 1.37-.4 1.92a3.08 3.08 0 0 1-2.9 1.73Zm0-1.16c.44 0 .8-.11 1.08-.34a2 2 0 0 0 .62-.9 3.75 3.75 0 0 0 .01-2.5 2.03 2.03 0 0 0-.63-.92 1.64 1.64 0 0 0-1.07-.35c-.44 0-.8.12-1.08.35-.29.23-.5.53-.64.92a3.81 3.81 0 0 0 0 2.49c.14.38.35.68.64.91.28.23.64.34 1.08.34Zm6.23-8.43v9.45h-1.38V6.05h1.38Zm3.24 0v9.45h-1.39V6.05h1.39Zm4.84 9.6a3.08 3.08 0 0 1-2.9-1.74 4.24 4.24 0 0 1-.4-1.92c0-.74.13-1.38.4-1.93a3.08 3.08 0 0 1 2.9-1.74 3 3 0 0 1 2.89 1.74c.28.55.41 1.2.41 1.93s-.13 1.37-.4 1.92a3.08 3.08 0 0 1-2.9 1.73Zm0-1.17c.43 0 .8-.11 1.07-.34a2 2 0 0 0 .63-.9 3.75 3.75 0 0 0 .01-2.5 2.03 2.03 0 0 0-.64-.92 1.64 1.64 0 0 0-1.07-.35c-.43 0-.79.12-1.08.35-.28.23-.5.53-.63.92a3.81 3.81 0 0 0 0 2.49c.14.38.35.68.63.91.29.23.65.34 1.08.34Zm6.17 1.02L50.4 8.4h1.43l1.39 5.22h.07l1.39-5.21h1.43l1.38 5.18h.07l1.38-5.18h1.43l-2.09 7.09h-1.4l-1.44-5.12h-.11l-1.44 5.12h-1.4Zm15.61.14c-.66 0-1.24-.15-1.74-.45-.5-.3-.88-.73-1.15-1.28a4.24 4.24 0 0 1-.41-1.92c0-.74.14-1.38.41-1.93a3.08 3.08 0 0 1 2.9-1.74c.66 0 1.24.15 1.73.45.5.3.88.74 1.16 1.29.27.55.41 1.2.41 1.93s-.14 1.37-.41 1.92a3.08 3.08 0 0 1-2.9 1.73Zm0-1.16c.44 0 .8-.11 1.08-.34a2 2 0 0 0 .63-.9c.14-.39.2-.8.2-1.26 0-.45-.06-.87-.2-1.24a2.03 2.03 0 0 0-.63-.92 1.64 1.64 0 0 0-1.07-.35c-.44 0-.8.12-1.08.35-.28.23-.5.53-.63.92-.14.37-.2.79-.2 1.24 0 .46.06.87.2 1.25a2 2 0 0 0 .63.91c.28.23.64.34 1.08.34Zm6.23-3.19v4.21h-1.38V8.4h1.33v1.16h.08a2.1 2.1 0 0 1 2.09-1.24c.49 0 .91.1 1.27.3.37.2.65.5.85.9.2.4.3.88.3 1.47v4.51h-1.38v-4.34c0-.52-.14-.92-.4-1.2-.27-.3-.64-.45-1.1-.45-.33 0-.61.07-.86.21a1.5 1.5 0 0 0-.59.6c-.14.27-.2.6-.2.97Z"/><path fill="#fff" d="M82.72 15.5V6.05h3.9c.7 0 1.32.13 1.83.41.52.27.92.66 1.2 1.15.28.49.42 1.06.42 1.7a3.3 3.3 0 0 1-.43 1.72c-.28.49-.69.86-1.21 1.13-.53.27-1.15.4-1.88.4h-2.4v-1.8h1.98c.34 0 .63-.06.86-.18.23-.12.41-.28.53-.5.12-.22.18-.47.18-.76 0-.3-.06-.55-.18-.76a1.2 1.2 0 0 0-.53-.5 1.92 1.92 0 0 0-.86-.17H85v7.61h-2.28Zm8.48 0V8.4h2.25v7.1H91.2Zm1.13-7.92c-.32 0-.6-.1-.82-.31a1.01 1.01 0 0 1-.34-.77 1 1 0 0 1 .34-.75c.23-.22.5-.32.82-.32.32 0 .59.1.81.32a1 1 0 0 1 .35.75c0 .3-.12.56-.35.77-.22.2-.5.31-.81.31Zm4.48.83 1.17 2.33 1.2-2.33h2.28l-1.98 3.54 2.06 3.55h-2.26l-1.3-2.35-1.27 2.35h-2.3l2.07-3.55-1.96-3.54h2.3Zm8.75 7.22c-.75 0-1.39-.14-1.92-.43-.54-.3-.95-.72-1.24-1.26a4.17 4.17 0 0 1-.43-1.96c0-.73.14-1.37.43-1.92.3-.55.7-.98 1.23-1.28a4.08 4.08 0 0 1 3.24-.23 2.98 2.98 0 0 1 1.8 1.84c.17.45.25.96.25 1.55v.56h-6.16v-1.31h4.06c0-.24-.06-.46-.17-.64a1.16 1.16 0 0 0-.46-.44c-.19-.11-.4-.16-.66-.16a1.35 1.35 0 0 0-1.15.62c-.12.2-.18.41-.19.66v1.33c0 .29.06.54.17.76.12.22.28.38.49.5.2.12.46.18.75.18.2 0 .38-.02.54-.08.17-.05.3-.14.42-.24a1 1 0 0 0 .27-.4l2.07.06c-.09.46-.28.87-.57 1.21a2.8 2.8 0 0 1-1.14.8 4.4 4.4 0 0 1-1.63.28Zm6.77-9.58v9.45h-2.26V6.05h2.26Zm5.47 2.36v1.66h-4.56V8.41h4.56Zm-3.61 7.09V8.05c0-.55.1-1 .3-1.36.21-.37.5-.64.87-.82.36-.18.79-.27 1.27-.27a5.06 5.06 0 0 1 1.5.2l-.35 1.65a2.14 2.14 0 0 0-.64-.1c-.27 0-.45.07-.55.18a.72.72 0 0 0-.14.48v7.49h-2.26Zm7.78.13a4 4 0 0 1-1.92-.43c-.53-.3-.95-.72-1.24-1.26a4.17 4.17 0 0 1-.43-1.96c0-.73.15-1.37.44-1.92.29-.55.7-.98 1.22-1.28a4.14 4.14 0 0 1 3.25-.23 2.98 2.98 0 0 1 1.8 1.84c.16.45.25.96.25 1.55v.56h-6.17v-1.31h4.06c0-.24-.06-.46-.17-.64a1.16 1.16 0 0 0-.45-.44c-.2-.11-.41-.16-.66-.16a1.35 1.35 0 0 0-1.16.62c-.11.2-.18.41-.18.66v1.33c0 .29.06.54.17.76.11.22.28.38.48.5.21.12.46.18.75.18.2 0 .38-.02.55-.08.16-.05.3-.14.42-.24a1 1 0 0 0 .26-.4l2.07.06a2.5 2.5 0 0 1-.56 1.21c-.3.35-.67.61-1.14.8a4.4 4.4 0 0 1-1.64.28Zm7.1-.03a2.62 2.62 0 0 1-2.44-1.62 4.73 4.73 0 0 1-.39-2.02c0-.83.14-1.52.4-2.06.27-.54.61-.94 1.04-1.2a2.65 2.65 0 0 1 2.34-.19c.27.13.49.29.66.49.17.2.3.4.4.62h.04V6.05h2.26v9.45h-2.24v-1.15h-.07a1.97 1.97 0 0 1-1.07 1.08c-.25.11-.56.17-.92.17Zm.8-1.76c.27 0 .5-.07.7-.23.19-.16.34-.38.44-.66.1-.28.16-.61.16-1 0-.38-.05-.72-.16-1-.1-.28-.25-.5-.44-.64a1.1 1.1 0 0 0-.7-.23c-.29 0-.52.08-.72.23-.2.15-.34.37-.44.65-.1.28-.15.61-.15 1 0 .38.05.7.15 1 .1.27.25.5.44.65.2.16.43.23.71.23Z"/></g></g><rect width="138.8" height="19.8" x=".6" y=".6" stroke="url(#d)" stroke-opacity=".8" stroke-width="1.2" rx="4.4"/><defs><filter id="b" width="25.2" height="25.2" x="-.6" y="-2.1" color-interpolation-filters="sRGB" filterUnits="userSpaceOnUse"><feFlood flood-opacity="0" result="BackgroundImageFix"/><feColorMatrix in="SourceAlpha" result="hardAlpha" values="0 0 0 0 0 0 0 0 0 0 0 0 0 0 0 0 0 0 127 0"/><feOffset/><feGaussianBlur stdDeviation="2.8"/><feComposite in2="hardAlpha" operator="out"/><feColorMatrix values="0 0 0 0 0 0 0 0 0 0 0 0 0 0 0 0 0 0 0.25 0"/><feBlend in2="BackgroundImageFix" result="effect1_dropShadow_2058_151"/><feBlend in="SourceGraphic" in2="effect1_dropShadow_2058_151" result="shape"/></filter><filter id="c" width="125.43" height="27.43" x="15.29" y="-3.21" color-interpolation-filters="sRGB" filterUnits="userSpaceOnUse"><feFlood flood-opacity="0" result="BackgroundImageFix"/><feColorMatrix in="SourceAlpha" result="hardAlpha" values="0 0 0 0 0 0 0 0 0 0 0 0 0 0 0 0 0 0 127 0"/><feOffset/><feGaussianBlur stdDeviation="2.86"/><feComposite in2="hardAlpha" operator="out"/><feColorMatrix values="0 0 0 0 0 0 0 0 0 0 0 0 0 0 0 0 0 0 0.25 0"/><feBlend in2="BackgroundImageFix" result="effect1_dropShadow_2058_151"/><feBlend in="SourceGraphic" in2="effect1_dropShadow_2058_151" result="shape"/></filter><linearGradient id="d" x1="0" x2="140" y1="10.5" y2="10.5" gradientUnits="userSpaceOnUse"><stop stop-color="#F22449"/><stop offset=".25" stop-color="#FF8D11"/><stop offset=".5" stop-color="#11D946"/><stop offset=".75" stop-color="#0098FD"/><stop offset="1" stop-color="#C835B7"/></linearGradient><clipPath id="a"><rect width="140" height="21" fill="#fff" rx="5"/></clipPath></defs></svg>