<svg xmlns="http://www.w3.org/2000/svg" width="132" height="21" fill="none"><g clip-path="url(#a)"><rect width="132" height="21" fill="#000" rx="5"/><g filter="url(#b)"><g clip-path="url(#c)"><path fill="#FEFFFF" d="M18.67 8.15a2.33 2.33 0 0 0-2.34 2.34v.01l.06.01.05.02c.5.16.87.65.9 1.34v.29l-.04.21a2.33 2.33 0 1 0 1.37-4.22Zm-11.34 0a2.33 2.33 0 1 0 1.38 4.22 1.54 1.54 0 0 1-.04-.41v-.09c.03-.73.46-1.24 1-1.37v-.01a2.33 2.33 0 0 0-2.34-2.34Z"/><path fill="#FEFFFF" d="M13 7.5c-.87 0-1.74.13-2.54.38-.81.25-1.55.62-2.17 1.08a5.18 5.18 0 0 0-1.44 1.62 3.94 3.94 0 0 0 0 3.83c.33.6.83 1.15 1.44 1.62.62.46 1.36.83 2.17 1.08.8.25 1.67.38 2.55.38 1.76 0 3.46-.53 4.7-1.46a4.47 4.47 0 0 0 1.96-3.54c0-1.32-.7-2.6-1.95-3.53A7.93 7.93 0 0 0 13 7.5Zm-3.08 2.97h.06l.06.01a.93.93 0 0 1 .28.09c.36.17.62.57.7 1.06v.1l.01.05v.24c-.03.82-.57 1.13-1.2 1.14h-.05l-.18-.01c-.53-.07-.92-.45-.93-1.13v-.15c.03-.77.5-1.29 1.07-1.38l.18-.02Zm6.17 0h.06l.06.01h.06l.12.03.05.02c.5.16.87.65.9 1.34v.29c-.07.59-.44.92-.92.99l-.19.01h-.05c-.63-.01-1.17-.33-1.2-1.14v-.16c.02-.7.4-1.26.93-1.37h.05l.13-.02ZM13 13.81c.8 0 1.58.05 2.3.12.12.01.2.14.15.25a2.66 2.66 0 0 1-4.91 0 .18.18 0 0 1 .15-.25c.72-.07 1.5-.12 2.3-.12Z"/><path fill="#fff" d="M16.65 6.82a1.65 1.65 0 1 0 0-3.31 1.65 1.65 0 0 0 0 3.3Z"/><path fill="#fff" d="M12.98 7.7c-.2 0-.36-.08-.36-.2a2.7 2.7 0 0 1 2.7-2.7.36.36 0 1 1 0 .73c-1.1 0-1.98.88-1.98 1.97 0 .12-.16.2-.36.2Z"/></g></g><g filter="url(#d)"><path fill="#E8E8E8" d="M24.04 15.5V6.05h3.37c.73 0 1.34.12 1.82.37.49.26.85.6 1.1 1.05.23.45.35.96.35 1.54a3.1 3.1 0 0 1-.36 1.53c-.24.43-.6.77-1.1 1.02-.48.24-1.08.36-1.82.36h-2.55V10.7h2.42c.47 0 .84-.06 1.13-.2.3-.13.5-.32.64-.57.14-.25.2-.56.2-.91 0-.36-.06-.67-.2-.93a1.34 1.34 0 0 0-.64-.6 2.6 2.6 0 0 0-1.14-.21h-1.8v8.23h-1.42Zm4.67-4.27 2.33 4.27h-1.62l-2.3-4.27h1.59Zm6.56 4.41a3.04 3.04 0 0 1-2.97-1.72 4.3 4.3 0 0 1-.4-1.92c0-.73.13-1.37.4-1.92.28-.55.66-.99 1.15-1.3a3.47 3.47 0 0 1 2.89-.27 2.82 2.82 0 0 1 1.72 1.73c.17.45.26 1 .26 1.64v.49h-5.64v-1.03h4.28c0-.37-.07-.69-.22-.97a1.68 1.68 0 0 0-1.55-.91c-.4 0-.73.1-1.02.28a2.03 2.03 0 0 0-.89 1.73v.8c0 .48.08.88.24 1.21.17.33.4.59.71.76a2 2 0 0 0 1.06.26c.26 0 .5-.03.71-.1a1.48 1.48 0 0 0 .92-.9l1.3.23a2.54 2.54 0 0 1-1.57 1.68c-.4.15-.86.23-1.38.23Zm7.23 0a2.75 2.75 0 0 1-2.58-1.7 4.68 4.68 0 0 1-.38-1.97c0-.77.13-1.42.38-1.97a2.76 2.76 0 0 1 2.59-1.69 2.14 2.14 0 0 1 1.69.73c.15.2.27.37.35.52h.09V6.05h1.38v9.45h-1.35v-1.1h-.12c-.08.15-.2.32-.36.51a2 2 0 0 1-1.69.73Zm.3-1.18c.4 0 .74-.1 1.01-.31.28-.21.49-.5.63-.88.15-.38.22-.82.22-1.32 0-.49-.07-.92-.21-1.29a1.9 1.9 0 0 0-.63-.86c-.27-.2-.61-.31-1.01-.31-.42 0-.76.1-1.04.32s-.49.51-.63.88c-.14.38-.2.8-.2 1.26 0 .48.06.9.2 1.28.15.38.36.68.63.9.28.22.63.33 1.04.33Zm7.84 1.18a2.75 2.75 0 0 1-2.59-1.7 4.68 4.68 0 0 1-.37-1.97c0-.77.12-1.42.38-1.97a2.76 2.76 0 0 1 2.59-1.69 2.14 2.14 0 0 1 1.69.73c.15.2.27.37.35.52h.08V6.05h1.38v9.45h-1.34v-1.1h-.12c-.08.15-.2.32-.36.51a2 2 0 0 1-1.69.73Zm.3-1.18c.4 0 .74-.1 1.01-.31.28-.21.49-.5.63-.88s.22-.82.22-1.32c0-.49-.07-.92-.22-1.29a1.9 1.9 0 0 0-.62-.86c-.27-.2-.61-.31-1.02-.31-.41 0-.76.1-1.03.32-.28.22-.49.51-.63.88-.14.38-.21.8-.21 1.26 0 .48.07.9.21 1.28.14.38.35.68.63.9.28.22.63.33 1.03.33Zm5.18 1.04V8.4h1.38v7.1h-1.38Zm.7-8.19a.88.88 0 0 1-.62-.24.78.78 0 0 1-.25-.58c0-.22.08-.42.25-.58a.87.87 0 0 1 .62-.24c.24 0 .45.08.61.24.18.16.26.36.26.58 0 .23-.08.42-.26.58a.86.86 0 0 1-.61.24Zm5.85 1.1v1.1H58.8v-1.1h3.87Zm-2.83-1.7h1.38v6.7c0 .28.04.48.12.61.08.14.18.23.3.28a1.62 1.62 0 0 0 .71.05l.2-.05.25 1.14a2.7 2.7 0 0 1-1.91-.05 1.74 1.74 0 0 1-.76-.62 1.8 1.8 0 0 1-.3-1.07V6.71Zm10.78 8.93c-.66 0-1.24-.15-1.74-.45-.5-.3-.88-.73-1.15-1.28a4.24 4.24 0 0 1-.41-1.92c0-.74.14-1.38.41-1.93a3.08 3.08 0 0 1 2.9-1.74 3 3 0 0 1 2.89 1.74c.27.55.41 1.2.41 1.93s-.14 1.37-.41 1.92a3.08 3.08 0 0 1-2.9 1.73Zm0-1.16c.44 0 .8-.11 1.08-.34a2 2 0 0 0 .63-.9c.14-.39.2-.8.2-1.26 0-.45-.06-.87-.2-1.24a2.03 2.03 0 0 0-.63-.92 1.64 1.64 0 0 0-1.07-.35c-.43 0-.8.12-1.08.35-.28.23-.5.53-.63.92-.14.37-.2.79-.2 1.24 0 .46.06.87.2 1.25s.35.68.63.91c.29.23.65.34 1.08.34Zm6.23-3.19v4.21h-1.38V8.4h1.33v1.16h.08a2.1 2.1 0 0 1 2.09-1.24c.49 0 .91.1 1.27.3.37.2.65.5.85.9.2.4.3.88.3 1.47v4.51H80v-4.34c0-.52-.14-.92-.4-1.2-.27-.3-.64-.45-1.1-.45-.33 0-.61.07-.86.21a1.5 1.5 0 0 0-.59.6c-.14.27-.2.6-.2.97Z"/><path fill="#fff" d="M85.72 15.5V6.05h3.9c.7 0 1.32.12 1.83.38.52.25.92.61 1.2 1.09.28.47.42 1.03.42 1.67a2.74 2.74 0 0 1-1.65 2.71 4.3 4.3 0 0 1-1.87.36h-2.47v-1.8h2.05c.34 0 .63-.04.86-.13.23-.1.41-.23.53-.42.12-.18.18-.42.18-.72 0-.29-.06-.53-.18-.72-.12-.2-.3-.34-.53-.43-.23-.1-.52-.15-.86-.15H88v7.61h-2.28Zm5.32-4.32 2.35 4.32H90.9l-2.3-4.32h2.44Zm6.46 4.45a4 4 0 0 1-1.92-.43c-.54-.3-.95-.72-1.24-1.26a4.16 4.16 0 0 1-.43-1.96c0-.73.15-1.37.43-1.92.3-.55.7-.98 1.23-1.28.52-.3 1.14-.46 1.86-.46.5 0 .97.08 1.38.23a2.98 2.98 0 0 1 1.8 1.84c.17.45.25.96.25 1.55v.56H94.7v-1.31h4.06c0-.24-.06-.46-.17-.64a1.16 1.16 0 0 0-.45-.44c-.2-.11-.42-.16-.67-.16a1.35 1.35 0 0 0-1.15.62c-.12.2-.18.41-.18.66v1.33c0 .29.05.54.17.76.11.22.27.38.48.5.21.12.46.18.75.18.2 0 .38-.02.54-.08.17-.05.3-.14.42-.24.12-.11.2-.24.27-.4l2.07.06c-.09.46-.28.87-.57 1.21a2.8 2.8 0 0 1-1.14.8 4.4 4.4 0 0 1-1.63.28Zm7.1-.03a2.6 2.6 0 0 1-2.44-1.62 4.71 4.71 0 0 1-.39-2.02c0-.83.13-1.52.4-2.06.26-.54.61-.94 1.04-1.2a2.65 2.65 0 0 1 2.34-.19c.27.13.49.29.66.49.17.2.3.4.39.62h.05V6.05h2.25v9.45h-2.23v-1.15h-.07c-.1.22-.23.42-.4.61-.18.2-.4.35-.67.47-.26.11-.57.17-.92.17Zm.8-1.76c.27 0 .5-.07.7-.23.19-.16.34-.38.44-.66.1-.28.16-.61.16-1 0-.38-.06-.72-.16-1s-.25-.5-.45-.64a1.1 1.1 0 0 0-.7-.23c-.28 0-.52.08-.71.23-.2.15-.34.37-.44.65-.1.28-.15.61-.15 1 0 .38.05.7.15 1 .1.27.25.5.44.65.2.16.43.23.71.23Zm7.52 1.76a2.61 2.61 0 0 1-2.45-1.62 4.73 4.73 0 0 1-.38-2.02c0-.83.13-1.52.4-2.06.26-.54.6-.94 1.03-1.2a2.65 2.65 0 0 1 2.35-.19c.26.13.48.29.65.49.18.2.3.4.4.62h.04V6.05h2.26v9.45h-2.23v-1.15h-.07a2.18 2.18 0 0 1-1.07 1.08c-.26.11-.57.17-.93.17Zm.79-1.76c.27 0 .5-.07.7-.23.2-.16.34-.38.45-.66.1-.28.15-.61.15-1a3 3 0 0 0-.15-1c-.1-.28-.25-.5-.45-.64a1.1 1.1 0 0 0-.7-.23c-.28 0-.52.08-.71.23-.2.15-.35.37-.45.65-.1.28-.14.61-.14 1 0 .38.05.7.15 1 .1.27.25.5.44.65.19.16.43.23.7.23Zm4.94 1.66V8.4h2.25v7.1h-2.25Zm1.13-7.92c-.32 0-.6-.1-.82-.31a1.01 1.01 0 0 1-.34-.77 1 1 0 0 1 .34-.75c.23-.22.5-.32.82-.32.32 0 .6.1.81.32a1 1 0 0 1 .35.75c0 .3-.12.56-.34.77-.23.2-.5.31-.82.31Zm6.56.83v1.66h-4.47V8.41h4.47Zm-3.53-1.7h2.25v6.56c0 .14.03.25.07.34a.4.4 0 0 0 .2.18c.09.03.19.05.3.05a1.7 1.7 0 0 0 .5-.07l.34 1.63-.45.11c-.2.05-.43.08-.7.1-.53.02-.98-.05-1.36-.2a1.77 1.77 0 0 1-.87-.7 2.1 2.1 0 0 1-.28-1.2v-6.8Z"/></g></g><rect width="130.8" height="19.8" x=".6" y=".6" stroke="url(#e)" stroke-opacity=".88" stroke-width="1.2" rx="4.4"/><defs><clipPath id="a"><rect width="132" height="21" fill="#fff" rx="5"/></clipPath><clipPath id="c"><path fill="#fff" d="M5 2.5h16v16H5z"/></clipPath><filter id="b" width="27.2" height="27.2" x="-.6" y="-3.1" color-interpolation-filters="sRGB" filterUnits="userSpaceOnUse"><feFlood flood-opacity="0" result="BackgroundImageFix"/><feColorMatrix in="SourceAlpha" result="hardAlpha" values="0 0 0 0 0 0 0 0 0 0 0 0 0 0 0 0 0 0 127 0"/><feOffset/><feGaussianBlur stdDeviation="2.8"/><feComposite in2="hardAlpha" operator="out"/><feColorMatrix values="0 0 0 0 0 0 0 0 0 0 0 0 0 0 0 0 0 0 0.25 0"/><feBlend in2="BackgroundImageFix" result="effect1_dropShadow_2034_8"/><feBlend in="SourceGraphic" in2="effect1_dropShadow_2034_8" result="shape"/></filter><filter id="d" width="115.43" height="27.43" x="17.29" y="-3.21" color-interpolation-filters="sRGB" filterUnits="userSpaceOnUse"><feFlood flood-opacity="0" result="BackgroundImageFix"/><feColorMatrix in="SourceAlpha" result="hardAlpha" values="0 0 0 0 0 0 0 0 0 0 0 0 0 0 0 0 0 0 127 0"/><feOffset/><feGaussianBlur stdDeviation="2.86"/><feComposite in2="hardAlpha" operator="out"/><feColorMatrix values="0 0 0 0 0 0 0 0 0 0 0 0 0 0 0 0 0 0 0.25 0"/><feBlend in2="BackgroundImageFix" result="effect1_dropShadow_2034_8"/><feBlend in="SourceGraphic" in2="effect1_dropShadow_2034_8" result="shape"/></filter><linearGradient id="e" x1="0" x2="132" y1="10.5" y2="10.5" gradientUnits="userSpaceOnUse"><stop stop-color="#FF4500"/><stop offset="1" stop-color="#FF8051"/></linearGradient></defs></svg>