<svg xmlns="http://www.w3.org/2000/svg" width="145" height="21" fill="none"><g clip-path="url(#a)"><rect width="145" height="21" fill="#000" rx="5"/><g filter="url(#b)"><path fill="#fff" d="M13 4.9s-5 0-6.25.33a2 2 0 0 0-1.42 1.42C5 7.9 5 10.5 5 10.5s0 2.6.33 3.85a2 2 0 0 0 1.42 1.42C8 16.1 13 16.1 13 16.1s5 0 6.25-.33a2 2 0 0 0 1.42-1.42C21 13.1 21 10.5 21 10.5s0-2.6-.33-3.85a2 2 0 0 0-1.42-1.42C18 4.9 13 4.9 13 4.9Zm-1.6 3.2 4.15 2.4-4.15 2.4V8.1Z"/></g><g filter="url(#c)"><path fill="#E8E8E8" d="m25.89 15.5-2.62-9.45h1.5l1.84 7.32h.09l1.91-7.32h1.49l1.92 7.32h.08l1.84-7.32h1.5l-2.62 9.45h-1.44L29.4 8.42h-.07l-1.99 7.08H25.9Zm12.11.16a2.9 2.9 0 0 1-1.22-.25 2.05 2.05 0 0 1-.86-.74 2.1 2.1 0 0 1-.31-1.17c0-.4.07-.73.23-1 .15-.25.36-.45.62-.6a3 3 0 0 1 .88-.35c.32-.07.65-.13.98-.17.43-.05.77-.1 1.04-.12.26-.04.46-.09.58-.16a.4.4 0 0 0 .18-.36v-.04c0-.4-.12-.71-.35-.93-.22-.23-.56-.34-1-.34a1.66 1.66 0 0 0-1.65.99l-1.3-.3a2.5 2.5 0 0 1 1.7-1.62 4.02 4.02 0 0 1 2.13-.08c.32.06.62.18.9.36a2 2 0 0 1 .68.75c.18.32.27.74.27 1.26v4.71h-1.35v-.97h-.05c-.1.18-.23.35-.4.53-.18.17-.41.31-.7.43-.27.11-.6.17-1 .17Zm.3-1.11c.38 0 .7-.08.98-.23a1.58 1.58 0 0 0 .84-1.38v-.91a.72.72 0 0 1-.29.14c-.13.04-.3.07-.47.1a58.06 58.06 0 0 1-.95.14c-.27.03-.51.09-.73.17-.22.08-.4.2-.53.34a.87.87 0 0 0-.2.6c0 .34.13.6.39.77.25.17.57.26.96.26Zm8.35-6.14v1.1h-3.87v-1.1h3.87ZM43.8 6.7h1.38v6.7c0 .28.04.48.12.61.08.14.19.23.31.28a1.62 1.62 0 0 0 .71.05l.2-.05.25 1.14a2.7 2.7 0 0 1-1.91-.05 1.74 1.74 0 0 1-.76-.62 1.8 1.8 0 0 1-.3-1.07V6.71Zm7.28 8.93a3.3 3.3 0 0 1-1.78-.46 3.1 3.1 0 0 1-1.13-1.3 4.32 4.32 0 0 1-.4-1.9c0-.71.14-1.35.4-1.9.28-.55.66-.99 1.15-1.3a3.2 3.2 0 0 1 1.74-.46c.54 0 1.02.1 1.44.3A2.51 2.51 0 0 1 54 10.7h-1.34a1.6 1.6 0 0 0-.51-.86 1.5 1.5 0 0 0-1.05-.36c-.39 0-.73.1-1.02.3-.28.2-.5.5-.66.86a3.3 3.3 0 0 0-.24 1.31c0 .52.07.97.23 1.34.16.38.38.67.67.88.28.2.63.3 1.02.3a1.56 1.56 0 0 0 1.25-.56c.14-.18.25-.4.3-.65H54a2.58 2.58 0 0 1-1.45 2.08c-.42.2-.9.3-1.46.3Zm5.77-4.35v4.21h-1.38V6.05h1.36v3.51h.09c.16-.38.42-.68.76-.9a2.4 2.4 0 0 1 1.34-.34c.48 0 .9.1 1.27.3.37.2.65.5.85.9.2.39.3.88.3 1.47v4.51h-1.38v-4.34c0-.52-.13-.93-.4-1.21a1.45 1.45 0 0 0-1.12-.44c-.32 0-.61.07-.87.21a1.5 1.5 0 0 0-.6.6c-.15.27-.22.6-.22.97Zm12.86 4.35c-.66 0-1.24-.15-1.74-.45-.5-.3-.88-.73-1.15-1.28a4.24 4.24 0 0 1-.41-1.92c0-.74.13-1.38.4-1.93a3.08 3.08 0 0 1 2.9-1.74c.67 0 1.25.15 1.74.45.5.3.88.74 1.16 1.29.27.55.4 1.2.4 1.93s-.13 1.37-.4 1.92a3.08 3.08 0 0 1-2.9 1.73Zm0-1.16c.44 0 .8-.11 1.08-.34a2 2 0 0 0 .63-.9c.14-.39.2-.8.2-1.26 0-.45-.06-.87-.2-1.24a2.03 2.03 0 0 0-.63-.92 1.64 1.64 0 0 0-1.07-.35c-.44 0-.8.12-1.08.35-.29.23-.5.53-.63.92-.14.37-.2.79-.2 1.24 0 .46.06.87.2 1.25.13.38.34.68.63.91.28.23.64.34 1.08.34Zm6.23-3.19v4.21h-1.38V8.4h1.32v1.16h.1a2 2 0 0 1 .76-.9c.35-.23.8-.34 1.32-.34.49 0 .91.1 1.27.3.37.2.65.5.85.9.2.4.3.88.3 1.47v4.51H79.1v-4.34c0-.52-.14-.92-.4-1.2-.27-.3-.64-.45-1.1-.45-.33 0-.61.07-.86.21a1.5 1.5 0 0 0-.59.6c-.14.27-.21.6-.21.97Z"/><path fill="#fff" d="M84.24 6.05h2.56l2 3.95h.08l2-3.95h2.55l-3.46 6.3v3.15H87.7v-3.16l-3.46-6.3Zm11.82 9.58a3.9 3.9 0 0 1-1.92-.45 3.18 3.18 0 0 1-1.23-1.29 4.1 4.1 0 0 1-.43-1.91c0-.73.14-1.37.43-1.92.29-.55.7-.98 1.23-1.28a3.8 3.8 0 0 1 1.92-.46c.75 0 1.39.15 1.92.46.53.3.94.73 1.23 1.28.29.55.43 1.19.43 1.92 0 .72-.14 1.36-.43 1.91-.29.55-.7.98-1.23 1.29a3.8 3.8 0 0 1-1.92.45Zm.02-1.7a1 1 0 0 0 .68-.25c.2-.17.33-.4.43-.7a3.23 3.23 0 0 0 0-2.05c-.1-.3-.24-.53-.43-.7a1 1 0 0 0-.68-.24c-.28 0-.52.08-.72.25-.19.16-.33.4-.43.69-.1.3-.15.64-.15 1.03 0 .4.05.73.15 1.03.1.3.24.52.43.7.2.16.44.24.72.24Zm9.3-1.5V8.42h2.25v7.09h-2.15v-1.32h-.08a2 2 0 0 1-.8 1.03c-.38.26-.83.38-1.36.38a2.27 2.27 0 0 1-2.13-1.26c-.2-.4-.3-.87-.31-1.4V8.4h2.26v4.08c0 .38.1.68.3.9.2.23.47.34.82.34.22 0 .43-.05.6-.15.19-.1.33-.25.43-.44.11-.2.17-.43.17-.7Zm2.72-4.53V6.05h7.99V7.9h-2.87v7.6h-2.25V7.9h-2.87Zm12.71 4.54V8.4h2.26v7.09h-2.16v-1.32h-.07c-.16.43-.42.78-.8 1.03-.38.26-.83.38-1.37.38a2.27 2.27 0 0 1-2.13-1.26c-.2-.4-.3-.87-.3-1.4V8.4h2.26v4.08c0 .38.1.68.3.9.2.23.47.34.82.34.22 0 .42-.05.6-.15.18-.1.33-.25.43-.44.1-.2.16-.43.16-.7Zm3.7 3.06V6.05h2.25v3.57h.05c.09-.21.22-.42.39-.62a2.03 2.03 0 0 1 1.61-.69 2.62 2.62 0 0 1 2.43 1.59c.26.54.4 1.23.4 2.06 0 .8-.13 1.47-.39 2.02a2.61 2.61 0 0 1-3.38 1.45 2.02 2.02 0 0 1-1.06-1.08h-.07v1.15h-2.24Zm2.2-3.55c0 .39.06.72.16 1s.25.5.44.66c.2.16.44.23.71.23.28 0 .51-.07.7-.23.2-.16.35-.38.44-.66.1-.28.16-.61.16-1 0-.38-.05-.7-.16-.99a1.4 1.4 0 0 0-.43-.65 1.1 1.1 0 0 0-.71-.23c-.28 0-.51.08-.7.23-.2.15-.35.36-.45.64a3 3 0 0 0-.16 1Zm9.42 3.68a4 4 0 0 1-1.92-.43c-.53-.3-.95-.72-1.24-1.26a4.17 4.17 0 0 1-.42-1.96c0-.73.14-1.37.43-1.92.29-.55.7-.98 1.22-1.28a4.14 4.14 0 0 1 3.25-.23 2.97 2.97 0 0 1 1.8 1.84c.16.45.25.96.25 1.55v.56h-6.16v-1.31h4.06c0-.24-.06-.46-.17-.64a1.16 1.16 0 0 0-.46-.44c-.2-.11-.41-.16-.66-.16a1.35 1.35 0 0 0-1.16.62c-.11.2-.17.41-.18.66v1.33c0 .29.06.54.17.76.12.22.28.38.49.5.2.12.45.18.74.18.2 0 .39-.02.55-.08.16-.05.3-.14.42-.24a1 1 0 0 0 .26-.4l2.07.06a2.5 2.5 0 0 1-.56 1.21c-.3.35-.67.61-1.14.8a4.4 4.4 0 0 1-1.64.28Z"/></g></g><rect width="143.8" height="19.8" x=".6" y=".6" stroke="url(#d)" stroke-opacity=".88" stroke-width="1.2" rx="4.4"/><defs><filter id="b" width="27.2" height="27.2" x="-.6" y="-3.1" color-interpolation-filters="sRGB" filterUnits="userSpaceOnUse"><feFlood flood-opacity="0" result="BackgroundImageFix"/><feColorMatrix in="SourceAlpha" result="hardAlpha" values="0 0 0 0 0 0 0 0 0 0 0 0 0 0 0 0 0 0 127 0"/><feOffset/><feGaussianBlur stdDeviation="2.8"/><feComposite in2="hardAlpha" operator="out"/><feColorMatrix values="0 0 0 0 0 0 0 0 0 0 0 0 0 0 0 0 0 0 0.25 0"/><feBlend in2="BackgroundImageFix" result="effect1_dropShadow_2056_113"/><feBlend in="SourceGraphic" in2="effect1_dropShadow_2056_113" result="shape"/></filter><filter id="c" width="128.43" height="27.43" x="17.29" y="-3.21" color-interpolation-filters="sRGB" filterUnits="userSpaceOnUse"><feFlood flood-opacity="0" result="BackgroundImageFix"/><feColorMatrix in="SourceAlpha" result="hardAlpha" values="0 0 0 0 0 0 0 0 0 0 0 0 0 0 0 0 0 0 127 0"/><feOffset/><feGaussianBlur stdDeviation="2.86"/><feComposite in2="hardAlpha" operator="out"/><feColorMatrix values="0 0 0 0 0 0 0 0 0 0 0 0 0 0 0 0 0 0 0.25 0"/><feBlend in2="BackgroundImageFix" result="effect1_dropShadow_2056_113"/><feBlend in="SourceGraphic" in2="effect1_dropShadow_2056_113" result="shape"/></filter><linearGradient id="d" x1="0" x2="145" y1="10.5" y2="10.5" gradientUnits="userSpaceOnUse"><stop offset=".3" stop-color="#F00D0D"/><stop offset="1" stop-color="#F50057"/></linearGradient><clipPath id="a"><rect width="145" height="21" fill="#fff" rx="5"/></clipPath></defs></svg>