<svg xmlns="http://www.w3.org/2000/svg" width="177" height="21" fill="none" viewBox="0 0 177 21"><rect width="177" height="21" fill="currentColor" class="fill" rx="5"/><rect width="175.8" height="19.8" x=".6" y=".6" stroke="url(#paint0_linear_2023_2)" stroke-opacity=".75" stroke-width="1.2" rx="4.4"/><g clip-path="url(#clip0_2023_2)"><path stroke="currentColor" stroke-linecap="square" stroke-miterlimit="2.9" stroke-width="1.367" d="M13 13.733a3.233 3.233 0 1 0 0-6.466 3.233 3.233 0 0 0 0 6.466Z" class="base"/><path stroke="currentColor" stroke-linecap="round" stroke-miterlimit="2.9" stroke-width="1.367" d="M19.765 7.714a7.317 7.317 0 0 1-9.548 9.553M6.233 13.283a7.317 7.317 0 0 1 9.553-9.548" class="base"/><path fill="currentColor" d="M18.174 6.83a1.504 1.504 0 1 0 0-3.008 1.504 1.504 0 0 0 0 3.009ZM7.826 17.178a1.504 1.504 0 1 0 0-3.009 1.504 1.504 0 0 0 0 3.009Z" class="base"/></g><path fill="currentColor" d="M24.039 15.5V6.045h5.863v1.228h-4.437v2.881h4.017v1.223h-4.017V15.5H24.04Zm9.972.143c-.664 0-1.245-.152-1.74-.457a3.082 3.082 0 0 1-1.154-1.279c-.274-.547-.41-1.188-.41-1.92 0-.736.136-1.379.41-1.93.274-.55.659-.979 1.154-1.283.495-.305 1.076-.457 1.74-.457.665 0 1.245.152 1.74.457.496.304.881.732 1.155 1.283.274.551.41 1.194.41 1.93 0 .732-.136 1.373-.41 1.92a3.082 3.082 0 0 1-1.154 1.28c-.496.304-1.076.456-1.74.456Zm.005-1.159c.43 0 .788-.114 1.071-.341.283-.228.492-.531.628-.91.138-.378.208-.795.208-1.25 0-.453-.07-.869-.208-1.247a2.03 2.03 0 0 0-.628-.919c-.283-.23-.64-.346-1.07-.346-.435 0-.795.115-1.081.346-.283.23-.494.537-.633.919a3.674 3.674 0 0 0-.203 1.246c0 .456.068.873.203 1.251.139.379.35.682.633.91.286.227.646.341 1.08.341Zm6.222-8.439V15.5h-1.38V6.045h1.38Zm3.237 0V15.5h-1.38V6.045h1.38Zm4.844 9.598c-.665 0-1.245-.152-1.74-.457a3.082 3.082 0 0 1-1.154-1.279c-.274-.547-.411-1.188-.411-1.92 0-.736.137-1.379.41-1.93.274-.55.66-.979 1.155-1.283.495-.305 1.075-.457 1.74-.457s1.245.152 1.74.457c.496.304.88.732 1.155 1.283.273.551.41 1.194.41 1.93 0 .732-.137 1.373-.41 1.92a3.082 3.082 0 0 1-1.154 1.28c-.496.304-1.076.456-1.74.456Zm.005-1.159c.43 0 .788-.114 1.07-.341.284-.228.493-.531.629-.91.138-.378.207-.795.207-1.25 0-.453-.069-.869-.207-1.247a2.03 2.03 0 0 0-.628-.919c-.283-.23-.64-.346-1.071-.346-.434 0-.794.115-1.08.346-.284.23-.495.537-.633.919a3.674 3.674 0 0 0-.203 1.246c0 .456.067.873.203 1.251.139.379.35.682.632.91.287.227.647.341 1.08.341Zm6.163 1.016L52.4 8.41h1.427l1.39 5.207h.068l1.395-5.208h1.426l1.385 5.184h.07l1.38-5.184h1.426L60.285 15.5h-1.408l-1.44-5.12h-.107l-1.44 5.12h-1.403Zm15.617.143c-.665 0-1.245-.152-1.74-.457a3.082 3.082 0 0 1-1.154-1.279c-.274-.547-.411-1.188-.411-1.92 0-.736.137-1.379.41-1.93.275-.55.66-.979 1.155-1.283.495-.305 1.075-.457 1.74-.457s1.245.152 1.74.457c.496.304.88.732 1.155 1.283.274.551.41 1.194.41 1.93 0 .732-.136 1.373-.41 1.92a3.082 3.082 0 0 1-1.154 1.28c-.496.304-1.076.456-1.74.456Zm.005-1.159c.43 0 .788-.114 1.07-.341.284-.228.493-.531.629-.91.138-.378.207-.795.207-1.25 0-.453-.069-.869-.207-1.247a2.03 2.03 0 0 0-.628-.919c-.283-.23-.64-.346-1.071-.346-.434 0-.794.115-1.08.346-.284.23-.494.537-.633.919a3.677 3.677 0 0 0-.203 1.246c0 .456.068.873.203 1.251.139.379.35.682.633.91.286.227.646.341 1.08.341Zm6.222-3.194v4.21h-1.38V8.41h1.324v1.153h.088c.163-.375.419-.677.766-.905.351-.227.793-.341 1.325-.341.484 0 .907.101 1.27.304.363.2.645.499.845.896.2.397.3.888.3 1.473v4.51h-1.38v-4.344c0-.514-.135-.916-.402-1.205-.268-.292-.636-.439-1.104-.439-.32 0-.604.07-.854.208a1.495 1.495 0 0 0-.586.61c-.142.264-.212.584-.212.96Zm13.14-2.88v1.107h-3.874V8.409h3.873Zm-2.835-1.7h1.38v6.708c0 .268.04.47.12.605.08.132.183.223.31.272.129.046.269.07.42.07.11 0 .207-.008.29-.024.084-.015.148-.027.194-.037l.25 1.14a2.703 2.703 0 0 1-.896.148 2.428 2.428 0 0 1-1.016-.194 1.742 1.742 0 0 1-.761-.627c-.194-.284-.291-.639-.291-1.067V6.71Zm5.894 4.58v4.21h-1.38V6.045h1.361v3.518h.088c.166-.381.42-.685.762-.91.341-.224.788-.336 1.339-.336.486 0 .91.1 1.274.3.366.2.65.498.85.895.202.394.304.887.304 1.478v4.51h-1.38v-4.344c0-.52-.134-.923-.402-1.21-.268-.289-.64-.434-1.117-.434-.326 0-.619.07-.877.208a1.498 1.498 0 0 0-.605.61c-.145.264-.217.584-.217.96Zm9.496 4.353c-.699 0-1.3-.15-1.805-.448a3.037 3.037 0 0 1-1.163-1.27c-.271-.547-.407-1.189-.407-1.924 0-.727.136-1.367.407-1.92a3.156 3.156 0 0 1 1.144-1.298c.493-.31 1.068-.466 1.727-.466.4 0 .788.066 1.163.198.376.133.713.34 1.011.623.299.284.534.651.707 1.104.172.45.258.995.258 1.639v.489h-5.636v-1.034h4.284c0-.363-.074-.685-.222-.965a1.675 1.675 0 0 0-.623-.67 1.744 1.744 0 0 0-.933-.244c-.388 0-.726.095-1.015.286a1.916 1.916 0 0 0-.665.739 2.13 2.13 0 0 0-.231.983v.808c0 .474.083.877.249 1.21.17.332.405.586.707.761.301.173.654.259 1.057.259.261 0 .5-.037.715-.111a1.482 1.482 0 0 0 .919-.9l1.307.235a2.37 2.37 0 0 1-.564 1.011c-.267.287-.604.51-1.011.67a3.783 3.783 0 0 1-1.38.235Z" class="tagline"/><path fill="currentColor" d="M108.716 15.5V6.045h6.453v1.856h-4.168v1.94h3.757v1.86h-3.757V15.5h-2.285Zm10.398.134c-.742 0-1.382-.146-1.92-.439a3.036 3.036 0 0 1-1.238-1.26c-.286-.548-.429-1.199-.429-1.953 0-.732.145-1.372.434-1.92.289-.551.697-.979 1.223-1.284.527-.307 1.147-.461 1.861-.461.505 0 .966.078 1.385.235.418.157.78.39 1.085.697.304.308.541.688.711 1.14.169.45.254.965.254 1.547v.563h-6.163v-1.31h4.062a1.27 1.27 0 0 0-.171-.643 1.16 1.16 0 0 0-.457-.438 1.32 1.32 0 0 0-.66-.162 1.35 1.35 0 0 0-.679.171 1.283 1.283 0 0 0-.66 1.108v1.334c0 .29.057.543.171.762.114.216.276.383.485.503.209.12.458.18.748.18.2 0 .381-.027.544-.083a1.16 1.16 0 0 0 .421-.244c.116-.108.204-.24.263-.397l2.072.06c-.086.464-.275.869-.567 1.214-.29.341-.67.607-1.141.798-.471.188-1.015.282-1.634.282Zm7.108-.032c-.523 0-.998-.136-1.426-.407-.428-.27-.77-.677-1.025-1.218-.255-.542-.383-1.215-.383-2.018 0-.834.132-1.52.397-2.059.265-.538.611-.937 1.039-1.195.43-.259.894-.388 1.389-.388.373 0 .691.064.956.194.264.126.483.289.655.489.173.2.303.408.393.623h.046V6.045h2.257V15.5h-2.234v-1.15h-.069a2.22 2.22 0 0 1-.407.614c-.175.191-.395.345-.66.462a2.257 2.257 0 0 1-.928.176Zm.785-1.76c.274 0 .508-.076.702-.23.194-.157.343-.377.448-.66.104-.283.157-.616.157-.998a2.88 2.88 0 0 0-.157-1.001 1.384 1.384 0 0 0-.448-.646 1.11 1.11 0 0 0-.702-.227c-.28 0-.517.077-.711.231a1.43 1.43 0 0 0-.443.651c-.098.28-.148.61-.148.992s.051.715.153.998c.101.283.247.503.438.66.194.154.431.23.711.23Zm4.941 1.658V8.41h2.257v7.09h-2.257Zm1.131-7.917c-.317 0-.589-.105-.817-.314a1.01 1.01 0 0 1-.342-.767c0-.295.114-.547.342-.757.228-.212.5-.318.817-.318.32 0 .592.106.817.318.228.21.342.462.342.757 0 .299-.114.554-.342.767-.225.21-.497.314-.817.314Zm9.442.826-2.433 7.091h-2.585l-2.429-7.09h2.378l1.306 4.883h.074l1.311-4.884h2.378Zm3.952 7.225c-.742 0-1.382-.146-1.921-.439a3.033 3.033 0 0 1-1.237-1.26c-.286-.548-.429-1.199-.429-1.953 0-.732.144-1.372.433-1.92a3.14 3.14 0 0 1 1.224-1.284c.526-.307 1.146-.461 1.86-.461.505 0 .967.078 1.385.235.419.157.78.39 1.085.697.305.308.542.688.711 1.14.169.45.254.965.254 1.547v.563h-6.163v-1.31h4.062a1.279 1.279 0 0 0-.17-.643 1.167 1.167 0 0 0-.457-.438 1.32 1.32 0 0 0-.661-.162c-.252 0-.478.057-.678.171a1.282 1.282 0 0 0-.66 1.108v1.334c0 .29.057.543.17.762.114.216.276.383.485.503.209.12.459.18.748.18.2 0 .382-.027.545-.083.163-.055.303-.137.42-.244.117-.108.205-.24.263-.397l2.073.06c-.086.464-.276.869-.568 1.214a2.873 2.873 0 0 1-1.14.798c-.471.188-1.016.282-1.634.282Zm4.518-.134V8.41h2.193v1.292h.074c.129-.468.34-.816.632-1.044a1.6 1.6 0 0 1 1.02-.346c.105 0 .213.008.323.023.111.013.214.033.31.06v1.962a2.18 2.18 0 0 0-.425-.087 3.765 3.765 0 0 0-.462-.033c-.267 0-.509.06-.724.18-.213.117-.38.282-.504.494-.12.21-.18.456-.18.739v3.85h-2.257Zm11.662-4.926-2.073.056a.772.772 0 0 0-.175-.393.94.94 0 0 0-.374-.272 1.274 1.274 0 0 0-.526-.102 1.34 1.34 0 0 0-.67.157c-.181.105-.27.247-.267.425a.453.453 0 0 0 .166.36c.117.102.325.183.623.245l1.367.258c.707.136 1.234.36 1.578.674.348.314.524.73.527 1.247-.003.486-.148.91-.434 1.27-.283.36-.671.64-1.164.84-.492.196-1.055.295-1.689.295-1.013 0-1.811-.208-2.396-.623a2.326 2.326 0 0 1-.997-1.68l2.229-.056a.87.87 0 0 0 .384.59c.206.136.469.204.789.204.289 0 .525-.054.706-.162.182-.107.274-.25.277-.429a.456.456 0 0 0-.212-.383c-.139-.099-.356-.176-.651-.231l-1.237-.236c-.711-.129-1.24-.367-1.588-.715-.348-.35-.52-.797-.517-1.339-.003-.474.123-.878.378-1.214.256-.338.619-.597 1.09-.775.471-.179 1.026-.268 1.666-.268.961 0 1.718.201 2.272.605.554.4.86.95.918 1.652Zm4.602 5.06c-.742 0-1.382-.146-1.921-.439a3.033 3.033 0 0 1-1.237-1.26c-.286-.548-.429-1.199-.429-1.953 0-.732.144-1.372.434-1.92.289-.551.697-.979 1.223-1.284.526-.307 1.146-.461 1.861-.461.504 0 .966.078 1.384.235.419.157.781.39 1.085.697.305.308.542.688.711 1.14.17.45.254.965.254 1.547v.563h-6.163v-1.31h4.063a1.27 1.27 0 0 0-.171-.643 1.16 1.16 0 0 0-.457-.438 1.32 1.32 0 0 0-.66-.162c-.253 0-.479.057-.679.171a1.283 1.283 0 0 0-.66 1.108v1.334c0 .29.057.543.171.762.114.216.275.383.484.503.21.12.459.18.748.18.2 0 .382-.027.545-.083.163-.055.303-.137.42-.244.117-.108.205-.24.263-.397l2.073.06c-.086.464-.275.869-.568 1.214a2.873 2.873 0 0 1-1.14.798c-.471.188-1.016.282-1.634.282Z" class="base"/><defs><linearGradient id="paint0_linear_2023_2" x1="0" x2="177" y1="10.5" y2="10.5" gradientUnits="userSpaceOnUse"><stop stop-color="#FFCA00"/><stop offset=".25" stop-color="red"/><stop offset=".5" stop-color="#9500FF"/><stop offset=".75" stop-color="#00A3FF"/><stop offset="1" stop-color="#64FF00"/></linearGradient><clipPath id="clip0_2023_2"><path fill="currentColor" d="M5 2.5h16v16H5z" class="base"/></clipPath></defs><style>.fill{color:#fff}.base{color:#000}.tagline{color:#1a1a1a}@media (prefers-color-scheme:dark){.fill{color:#000}.base{color:#fff}.tagline{color:#e8e8e8}}</style></svg>